M48
; DRILL file {KiCad 9.0.7} date 2026-06-24T14:00:35+0200
; FORMAT={-:-/ absolute / metric / decimal}
; #@! TF.CreationDate,2026-06-24T14:00:35+02:00
; #@! TF.GenerationSoftware,Kicad,Pcbnew,9.0.7
; #@! TF.FileFunction,Plated,1,2,PTH
FMAT,2
METRIC
; #@! TA.AperFunction,Plated,PTH,ViaDrill
T1C0.300
; #@! TA.AperFunction,Plated,PTH,ComponentDrill
T2C1.000
; #@! TA.AperFunction,Plated,PTH,ComponentDrill
T3C1.020
%
G90
G05
T1
X144.822Y-51.678
X146.878Y-53.984
T2
X174.5Y-42.92
X174.5Y-45.46
X174.5Y-48.0
X174.5Y-50.54
X174.5Y-53.08
X174.5Y-55.62
X174.5Y-58.16
X174.5Y-60.7
X177.04Y-42.92
X177.04Y-45.46
X177.04Y-48.0
X177.04Y-50.54
X177.04Y-53.08
X177.04Y-55.62
X177.04Y-58.16
X177.04Y-60.7
T3
X117.26Y-38.6
X117.26Y-64.0
X119.8Y-38.6
X119.8Y-64.0
X122.34Y-38.6
X122.34Y-64.0
X124.88Y-38.6
X124.88Y-64.0
X127.42Y-38.6
X127.42Y-64.0
X129.96Y-38.6
X129.96Y-64.0
X132.5Y-38.6
X132.5Y-64.0
X135.04Y-38.6
X135.04Y-64.0
X137.58Y-38.6
X137.58Y-64.0
X140.12Y-38.6
X140.12Y-64.0
X142.66Y-38.6
X142.66Y-64.0
X145.2Y-38.6
X145.2Y-64.0
X147.74Y-38.6
X147.74Y-64.0
X150.28Y-38.6
X150.28Y-64.0
X152.82Y-38.6
X152.82Y-64.0
X155.36Y-38.6
X155.36Y-64.0
X157.9Y-38.6
X157.9Y-64.0
X160.44Y-38.6
X160.44Y-64.0
X162.98Y-38.6
X162.98Y-64.0
M30
