%TF.GenerationSoftware,KiCad,Pcbnew,9.0.7*%
%TF.CreationDate,2026-06-24T14:00:29+02:00*%
%TF.ProjectId,esp32-adapter-board,65737033-322d-4616-9461-707465722d62,rev?*%
%TF.SameCoordinates,Original*%
%TF.FileFunction,Copper,L1,Top*%
%TF.FilePolarity,Positive*%
%FSLAX46Y46*%
G04 Gerber Fmt 4.6, Leading zero omitted, Abs format (unit mm)*
G04 Created by KiCad (PCBNEW 9.0.7) date 2026-06-24 14:00:29*
%MOMM*%
%LPD*%
G01*
G04 APERTURE LIST*
%TA.AperFunction,ComponentPad*%
%ADD10R,1.700000X1.700000*%
%TD*%
%TA.AperFunction,ComponentPad*%
%ADD11C,1.700000*%
%TD*%
%TA.AperFunction,ComponentPad*%
%ADD12R,1.530000X1.530000*%
%TD*%
%TA.AperFunction,ComponentPad*%
%ADD13C,1.530000*%
%TD*%
%TA.AperFunction,ViaPad*%
%ADD14C,0.600000*%
%TD*%
%TA.AperFunction,Conductor*%
%ADD15C,0.200000*%
%TD*%
G04 APERTURE END LIST*
D10*
%TO.P,J_ESP32,1,Pin_1*%
%TO.N,Net-(J33-Pin_1)*%
X174500000Y-42920000D03*
D11*
%TO.P,J_ESP32,2,Pin_2*%
%TO.N,Net-(J33-Pin_2)*%
X177040000Y-42920000D03*
%TO.P,J_ESP32,3,Pin_3*%
%TO.N,Net-(J33-Pin_3)*%
X174500000Y-45460000D03*
%TO.P,J_ESP32,4,Pin_4*%
%TO.N,Net-(J33-Pin_4)*%
X177040000Y-45460000D03*
%TO.P,J_ESP32,5,Pin_5*%
%TO.N,Net-(J33-Pin_5)*%
X174500000Y-48000000D03*
%TO.P,J_ESP32,6,Pin_6*%
%TO.N,Net-(J33-Pin_6)*%
X177040000Y-48000000D03*
%TO.P,J_ESP32,7,Pin_7*%
%TO.N,Net-(J33-Pin_7)*%
X174500000Y-50540000D03*
%TO.P,J_ESP32,8,Pin_8*%
%TO.N,Net-(J33-Pin_8)*%
X177040000Y-50540000D03*
%TO.P,J_ESP32,9,Pin_9*%
%TO.N,Net-(J33-Pin_9)*%
X174500000Y-53080000D03*
%TO.P,J_ESP32,10,Pin_10*%
%TO.N,Net-(J33-Pin_10)*%
X177040000Y-53080000D03*
%TO.P,J_ESP32,11,Pin_11*%
%TO.N,Net-(J33-Pin_11)*%
X174500000Y-55620000D03*
%TO.P,J_ESP32,12,Pin_12*%
%TO.N,Net-(J33-Pin_12)*%
X177040000Y-55620000D03*
%TO.P,J_ESP32,13,Pin_13*%
%TO.N,Net-(J33-Pin_13)*%
X174500000Y-58160000D03*
%TO.P,J_ESP32,14,Pin_14*%
%TO.N,Net-(J33-Pin_14)*%
X177040000Y-58160000D03*
%TO.P,J_ESP32,15,Pin_15*%
%TO.N,Net-(J33-Pin_15)*%
X174500000Y-60700000D03*
%TO.P,J_ESP32,16,Pin_16*%
%TO.N,Net-(J33-Pin_16)*%
X177040000Y-60700000D03*
%TD*%
D12*
%TO.P,ESP32 DEVKITC,1,3V3*%
%TO.N,Net-(J33-Pin_1)*%
X162980000Y-38600000D03*
D13*
%TO.P,ESP32 DEVKITC,2,EN*%
%TO.N,unconnected-(U1-EN-Pad2)*%
X160440000Y-38600000D03*
%TO.P,ESP32 DEVKITC,3,SENSOR_VP*%
%TO.N,unconnected-(U1-SENSOR_VP-Pad3)*%
X157900000Y-38600000D03*
%TO.P,ESP32 DEVKITC,4,SENSOR_VN*%
%TO.N,unconnected-(U1-SENSOR_VN-Pad4)*%
X155360000Y-38600000D03*
%TO.P,ESP32 DEVKITC,5,IO34*%
%TO.N,unconnected-(U1-IO34-Pad5)*%
X152820000Y-38600000D03*
%TO.P,ESP32 DEVKITC,6,IO35*%
%TO.N,unconnected-(U1-IO35-Pad6)*%
X150280000Y-38600000D03*
%TO.P,ESP32 DEVKITC,7,IO32*%
%TO.N,unconnected-(U1-IO32-Pad7)*%
X147740000Y-38600000D03*
%TO.P,ESP32 DEVKITC,8,IO33*%
%TO.N,unconnected-(U1-IO33-Pad8)*%
X145200000Y-38600000D03*
%TO.P,ESP32 DEVKITC,9,IO25*%
%TO.N,Net-(J33-Pin_10)*%
X142660000Y-38600000D03*
%TO.P,ESP32 DEVKITC,10,IO26*%
%TO.N,Net-(J33-Pin_12)*%
X140120000Y-38600000D03*
%TO.P,ESP32 DEVKITC,11,IO27*%
%TO.N,Net-(J33-Pin_14)*%
X137580000Y-38600000D03*
%TO.P,ESP32 DEVKITC,12,IO14*%
%TO.N,Net-(J33-Pin_16)*%
X135040000Y-38600000D03*
%TO.P,ESP32 DEVKITC,13,IO12*%
%TO.N,unconnected-(U1-IO12-Pad13)*%
X132500000Y-38600000D03*
%TO.P,ESP32 DEVKITC,14,GND1*%
%TO.N,unconnected-(U1-GND1-Pad14)*%
X129960000Y-38600000D03*
%TO.P,ESP32 DEVKITC,15,IO13*%
%TO.N,Net-(J33-Pin_7)*%
X127420000Y-38600000D03*
%TO.P,ESP32 DEVKITC,16,SD2*%
%TO.N,unconnected-(U1-SD2-Pad16)*%
X124880000Y-38600000D03*
%TO.P,ESP32 DEVKITC,17,SD3*%
%TO.N,unconnected-(U1-SD3-Pad17)*%
X122340000Y-38600000D03*
%TO.P,ESP32 DEVKITC,18,CMD*%
%TO.N,unconnected-(U1-CMD-Pad18)*%
X119800000Y-38600000D03*
%TO.P,ESP32 DEVKITC,19,EXT_5V*%
%TO.N,unconnected-(U1-EXT_5V-Pad19)*%
X117260000Y-38600000D03*
%TO.P,ESP32 DEVKITC,20,CLK*%
%TO.N,unconnected-(U1-CLK-Pad20)*%
X117260000Y-64000000D03*
%TO.P,ESP32 DEVKITC,21,SD0*%
%TO.N,unconnected-(U1-SD0-Pad21)*%
X119800000Y-64000000D03*
%TO.P,ESP32 DEVKITC,22,SD1*%
%TO.N,unconnected-(U1-SD1-Pad22)*%
X122340000Y-64000000D03*
%TO.P,ESP32 DEVKITC,23,IO15*%
%TO.N,unconnected-(U1-IO15-Pad23)*%
X124880000Y-64000000D03*
%TO.P,ESP32 DEVKITC,24,IO2*%
%TO.N,unconnected-(U1-IO2-Pad24)*%
X127420000Y-64000000D03*
%TO.P,ESP32 DEVKITC,25,IO0*%
%TO.N,unconnected-(U1-IO0-Pad25)*%
X129960000Y-64000000D03*
%TO.P,ESP32 DEVKITC,26,IO4*%
%TO.N,Net-(J33-Pin_5)*%
X132500000Y-64000000D03*
%TO.P,ESP32 DEVKITC,27,IO16*%
%TO.N,Net-(J33-Pin_8)*%
X135040000Y-64000000D03*
%TO.P,ESP32 DEVKITC,28,IO17*%
%TO.N,Net-(J33-Pin_9)*%
X137580000Y-64000000D03*
%TO.P,ESP32 DEVKITC,29,IO5*%
%TO.N,Net-(J33-Pin_6)*%
X140120000Y-64000000D03*
%TO.P,ESP32 DEVKITC,30,IO18*%
%TO.N,Net-(J33-Pin_11)*%
X142660000Y-64000000D03*
%TO.P,ESP32 DEVKITC,31,IO19*%
%TO.N,Net-(J33-Pin_13)*%
X145200000Y-64000000D03*
%TO.P,ESP32 DEVKITC,32,GND2*%
%TO.N,unconnected-(U1-GND2-Pad32)*%
X147740000Y-64000000D03*
%TO.P,ESP32 DEVKITC,33,IO21*%
%TO.N,Net-(J33-Pin_4)*%
X150280000Y-64000000D03*
%TO.P,ESP32 DEVKITC,34,RXD0*%
%TO.N,unconnected-(U1-RXD0-Pad34)*%
X152820000Y-64000000D03*
%TO.P,ESP32 DEVKITC,35,TXD0*%
%TO.N,unconnected-(U1-TXD0-Pad35)*%
X155360000Y-64000000D03*
%TO.P,ESP32 DEVKITC,36,IO22*%
%TO.N,Net-(J33-Pin_3)*%
X157900000Y-64000000D03*
%TO.P,ESP32 DEVKITC,37,IO23*%
%TO.N,Net-(J33-Pin_15)*%
X160440000Y-64000000D03*
%TO.P,ESP32 DEVKITC,38,GND3*%
%TO.N,Net-(J33-Pin_2)*%
X162980000Y-64000000D03*
%TD*%
D14*
%TO.N,Net-(J33-Pin_5)*%
X144822300Y-51677700D03*
%TO.N,Net-(J33-Pin_6)*%
X146878400Y-53984500D03*
%TD*%
D15*
%TO.N,Net-(J33-Pin_13)*%
X145200000Y-64000000D02*
X151040000Y-58160000D01*
X151040000Y-58160000D02*
X174500000Y-58160000D01*
%TO.N,Net-(J33-Pin_9)*%
X138282000Y-64000000D02*
X149200400Y-53081600D01*
X174498500Y-53081500D02*
X174500000Y-53080000D01*
X137580000Y-64000000D02*
X138282000Y-64000000D01*
X149200400Y-53081600D02*
X149200400Y-53081500D01*
X149200400Y-53081500D02*
X174498500Y-53081500D01*
%TO.N,Net-(J33-Pin_8)*%
X148751400Y-52962600D02*
X148751400Y-52891800D01*
X146469000Y-55245000D02*
X148751400Y-52962600D01*
X175770000Y-51810000D02*
X177040000Y-50540000D01*
X135040000Y-64000000D02*
X143795000Y-55245000D01*
X143795000Y-55245000D02*
X146469000Y-55245000D01*
X149833200Y-51810000D02*
X175770000Y-51810000D01*
X148751400Y-52891800D02*
X149833200Y-51810000D01*
%TO.N,Net-(J33-Pin_11)*%
X142660000Y-64000000D02*
X151040000Y-55620000D01*
X151040000Y-55620000D02*
X174500000Y-55620000D01*
%TO.N,Net-(J33-Pin_5)*%
X174500000Y-48000000D02*
X148500000Y-48000000D01*
X148500000Y-48000000D02*
X144822300Y-51677700D01*
%TO.N,Net-(J33-Pin_15)*%
X163740000Y-60700000D02*
X160440000Y-64000000D01*
X174500000Y-60700000D02*
X163740000Y-60700000D01*
%TO.N,Net-(J33-Pin_6)*%
X175770000Y-49270000D02*
X151592900Y-49270000D01*
X151592900Y-49270000D02*
X146878400Y-53984500D01*
X177040000Y-48000000D02*
X175770000Y-49270000D01*
%TD*%
M02*
