%TF.GenerationSoftware,KiCad,Pcbnew,9.0.7*%
%TF.CreationDate,2026-06-24T14:00:29+02:00*%
%TF.ProjectId,esp32-adapter-board,65737033-322d-4616-9461-707465722d62,rev?*%
%TF.SameCoordinates,Original*%
%TF.FileFunction,Copper,L2,Bot*%
%TF.FilePolarity,Positive*%
%FSLAX46Y46*%
G04 Gerber Fmt 4.6, Leading zero omitted, Abs format (unit mm)*
G04 Created by KiCad (PCBNEW 9.0.7) date 2026-06-24 14:00:29*
%MOMM*%
%LPD*%
G01*
G04 APERTURE LIST*
%TA.AperFunction,ComponentPad*%
%ADD10R,1.700000X1.700000*%
%TD*%
%TA.AperFunction,ComponentPad*%
%ADD11C,1.700000*%
%TD*%
%TA.AperFunction,ComponentPad*%
%ADD12R,1.530000X1.530000*%
%TD*%
%TA.AperFunction,ComponentPad*%
%ADD13C,1.530000*%
%TD*%
%TA.AperFunction,ViaPad*%
%ADD14C,0.600000*%
%TD*%
%TA.AperFunction,Conductor*%
%ADD15C,0.200000*%
%TD*%
G04 APERTURE END LIST*
D10*
%TO.P,J_ESP32,1,Pin_1*%
%TO.N,Net-(J33-Pin_1)*%
X174500000Y-42920000D03*
D11*
%TO.P,J_ESP32,2,Pin_2*%
%TO.N,Net-(J33-Pin_2)*%
X177040000Y-42920000D03*
%TO.P,J_ESP32,3,Pin_3*%
%TO.N,Net-(J33-Pin_3)*%
X174500000Y-45460000D03*
%TO.P,J_ESP32,4,Pin_4*%
%TO.N,Net-(J33-Pin_4)*%
X177040000Y-45460000D03*
%TO.P,J_ESP32,5,Pin_5*%
%TO.N,Net-(J33-Pin_5)*%
X174500000Y-48000000D03*
%TO.P,J_ESP32,6,Pin_6*%
%TO.N,Net-(J33-Pin_6)*%
X177040000Y-48000000D03*
%TO.P,J_ESP32,7,Pin_7*%
%TO.N,Net-(J33-Pin_7)*%
X174500000Y-50540000D03*
%TO.P,J_ESP32,8,Pin_8*%
%TO.N,Net-(J33-Pin_8)*%
X177040000Y-50540000D03*
%TO.P,J_ESP32,9,Pin_9*%
%TO.N,Net-(J33-Pin_9)*%
X174500000Y-53080000D03*
%TO.P,J_ESP32,10,Pin_10*%
%TO.N,Net-(J33-Pin_10)*%
X177040000Y-53080000D03*
%TO.P,J_ESP32,11,Pin_11*%
%TO.N,Net-(J33-Pin_11)*%
X174500000Y-55620000D03*
%TO.P,J_ESP32,12,Pin_12*%
%TO.N,Net-(J33-Pin_12)*%
X177040000Y-55620000D03*
%TO.P,J_ESP32,13,Pin_13*%
%TO.N,Net-(J33-Pin_13)*%
X174500000Y-58160000D03*
%TO.P,J_ESP32,14,Pin_14*%
%TO.N,Net-(J33-Pin_14)*%
X177040000Y-58160000D03*
%TO.P,J_ESP32,15,Pin_15*%
%TO.N,Net-(J33-Pin_15)*%
X174500000Y-60700000D03*
%TO.P,J_ESP32,16,Pin_16*%
%TO.N,Net-(J33-Pin_16)*%
X177040000Y-60700000D03*
%TD*%
D12*
%TO.P,ESP32 DEVKITC,1,3V3*%
%TO.N,Net-(J33-Pin_1)*%
X162980000Y-38600000D03*
D13*
%TO.P,ESP32 DEVKITC,2,EN*%
%TO.N,unconnected-(U1-EN-Pad2)*%
X160440000Y-38600000D03*
%TO.P,ESP32 DEVKITC,3,SENSOR_VP*%
%TO.N,unconnected-(U1-SENSOR_VP-Pad3)*%
X157900000Y-38600000D03*
%TO.P,ESP32 DEVKITC,4,SENSOR_VN*%
%TO.N,unconnected-(U1-SENSOR_VN-Pad4)*%
X155360000Y-38600000D03*
%TO.P,ESP32 DEVKITC,5,IO34*%
%TO.N,unconnected-(U1-IO34-Pad5)*%
X152820000Y-38600000D03*
%TO.P,ESP32 DEVKITC,6,IO35*%
%TO.N,unconnected-(U1-IO35-Pad6)*%
X150280000Y-38600000D03*
%TO.P,ESP32 DEVKITC,7,IO32*%
%TO.N,unconnected-(U1-IO32-Pad7)*%
X147740000Y-38600000D03*
%TO.P,ESP32 DEVKITC,8,IO33*%
%TO.N,unconnected-(U1-IO33-Pad8)*%
X145200000Y-38600000D03*
%TO.P,ESP32 DEVKITC,9,IO25*%
%TO.N,Net-(J33-Pin_10)*%
X142660000Y-38600000D03*
%TO.P,ESP32 DEVKITC,10,IO26*%
%TO.N,Net-(J33-Pin_12)*%
X140120000Y-38600000D03*
%TO.P,ESP32 DEVKITC,11,IO27*%
%TO.N,Net-(J33-Pin_14)*%
X137580000Y-38600000D03*
%TO.P,ESP32 DEVKITC,12,IO14*%
%TO.N,Net-(J33-Pin_16)*%
X135040000Y-38600000D03*
%TO.P,ESP32 DEVKITC,13,IO12*%
%TO.N,unconnected-(U1-IO12-Pad13)*%
X132500000Y-38600000D03*
%TO.P,ESP32 DEVKITC,14,GND1*%
%TO.N,unconnected-(U1-GND1-Pad14)*%
X129960000Y-38600000D03*
%TO.P,ESP32 DEVKITC,15,IO13*%
%TO.N,Net-(J33-Pin_7)*%
X127420000Y-38600000D03*
%TO.P,ESP32 DEVKITC,16,SD2*%
%TO.N,unconnected-(U1-SD2-Pad16)*%
X124880000Y-38600000D03*
%TO.P,ESP32 DEVKITC,17,SD3*%
%TO.N,unconnected-(U1-SD3-Pad17)*%
X122340000Y-38600000D03*
%TO.P,ESP32 DEVKITC,18,CMD*%
%TO.N,unconnected-(U1-CMD-Pad18)*%
X119800000Y-38600000D03*
%TO.P,ESP32 DEVKITC,19,EXT_5V*%
%TO.N,unconnected-(U1-EXT_5V-Pad19)*%
X117260000Y-38600000D03*
%TO.P,ESP32 DEVKITC,20,CLK*%
%TO.N,unconnected-(U1-CLK-Pad20)*%
X117260000Y-64000000D03*
%TO.P,ESP32 DEVKITC,21,SD0*%
%TO.N,unconnected-(U1-SD0-Pad21)*%
X119800000Y-64000000D03*
%TO.P,ESP32 DEVKITC,22,SD1*%
%TO.N,unconnected-(U1-SD1-Pad22)*%
X122340000Y-64000000D03*
%TO.P,ESP32 DEVKITC,23,IO15*%
%TO.N,unconnected-(U1-IO15-Pad23)*%
X124880000Y-64000000D03*
%TO.P,ESP32 DEVKITC,24,IO2*%
%TO.N,unconnected-(U1-IO2-Pad24)*%
X127420000Y-64000000D03*
%TO.P,ESP32 DEVKITC,25,IO0*%
%TO.N,unconnected-(U1-IO0-Pad25)*%
X129960000Y-64000000D03*
%TO.P,ESP32 DEVKITC,26,IO4*%
%TO.N,Net-(J33-Pin_5)*%
X132500000Y-64000000D03*
%TO.P,ESP32 DEVKITC,27,IO16*%
%TO.N,Net-(J33-Pin_8)*%
X135040000Y-64000000D03*
%TO.P,ESP32 DEVKITC,28,IO17*%
%TO.N,Net-(J33-Pin_9)*%
X137580000Y-64000000D03*
%TO.P,ESP32 DEVKITC,29,IO5*%
%TO.N,Net-(J33-Pin_6)*%
X140120000Y-64000000D03*
%TO.P,ESP32 DEVKITC,30,IO18*%
%TO.N,Net-(J33-Pin_11)*%
X142660000Y-64000000D03*
%TO.P,ESP32 DEVKITC,31,IO19*%
%TO.N,Net-(J33-Pin_13)*%
X145200000Y-64000000D03*
%TO.P,ESP32 DEVKITC,32,GND2*%
%TO.N,unconnected-(U1-GND2-Pad32)*%
X147740000Y-64000000D03*
%TO.P,ESP32 DEVKITC,33,IO21*%
%TO.N,Net-(J33-Pin_4)*%
X150280000Y-64000000D03*
%TO.P,ESP32 DEVKITC,34,RXD0*%
%TO.N,unconnected-(U1-RXD0-Pad34)*%
X152820000Y-64000000D03*
%TO.P,ESP32 DEVKITC,35,TXD0*%
%TO.N,unconnected-(U1-TXD0-Pad35)*%
X155360000Y-64000000D03*
%TO.P,ESP32 DEVKITC,36,IO22*%
%TO.N,Net-(J33-Pin_3)*%
X157900000Y-64000000D03*
%TO.P,ESP32 DEVKITC,37,IO23*%
%TO.N,Net-(J33-Pin_15)*%
X160440000Y-64000000D03*
%TO.P,ESP32 DEVKITC,38,GND3*%
%TO.N,Net-(J33-Pin_2)*%
X162980000Y-64000000D03*
%TD*%
D14*
%TO.N,Net-(J33-Pin_5)*%
X144822300Y-51677700D03*
%TO.N,Net-(J33-Pin_6)*%
X146878400Y-53984500D03*
%TD*%
D15*
%TO.N,Net-(J33-Pin_12)*%
X177040000Y-55620000D02*
X175770000Y-54350000D01*
X155870000Y-54350000D02*
X140120000Y-38600000D01*
X175770000Y-54350000D02*
X155870000Y-54350000D01*
%TO.N,Net-(J33-Pin_2)*%
X177040000Y-42920000D02*
X179073100Y-44953100D01*
X179073100Y-44953100D02*
X179073100Y-61537700D01*
X179073100Y-61537700D02*
X176610800Y-64000000D01*
X176610800Y-64000000D02*
X162980000Y-64000000D01*
%TO.N,Net-(J33-Pin_10)*%
X177040000Y-53080000D02*
X175770000Y-51810000D01*
X155870000Y-51810000D02*
X142660000Y-38600000D01*
X175770000Y-51810000D02*
X155870000Y-51810000D01*
%TO.N,Net-(J33-Pin_1)*%
X174500000Y-42920000D02*
X168366700Y-42920000D01*
X162980000Y-38600000D02*
X164046700Y-38600000D01*
X168366700Y-42920000D02*
X164046700Y-38600000D01*
%TO.N,Net-(J33-Pin_3)*%
X177567300Y-44289500D02*
X178628100Y-45350300D01*
X174500000Y-45460000D02*
X175670500Y-44289500D01*
X178628100Y-61413300D02*
X177585700Y-62455700D01*
X178628100Y-45350300D02*
X178628100Y-61413300D01*
X175670500Y-44289500D02*
X177567300Y-44289500D01*
X177585700Y-62455700D02*
X159444300Y-62455700D01*
X159444300Y-62455700D02*
X157900000Y-64000000D01*
%TO.N,Net-(J33-Pin_14)*%
X175770000Y-56890000D02*
X155870000Y-56890000D01*
X177040000Y-58160000D02*
X175770000Y-56890000D01*
X155870000Y-56890000D02*
X137580000Y-38600000D01*
%TO.N,Net-(J33-Pin_7)*%
X174500000Y-50540000D02*
X155619800Y-50540000D01*
X143930000Y-38356900D02*
X143101200Y-37528100D01*
X143101200Y-37528100D02*
X128491900Y-37528100D01*
X128491900Y-37528100D02*
X127420000Y-38600000D01*
X143930000Y-38850200D02*
X143930000Y-38356900D01*
X155619800Y-50540000D02*
X143930000Y-38850200D01*
%TO.N,Net-(J33-Pin_5)*%
X144822300Y-51677700D02*
X132500000Y-64000000D01*
%TO.N,Net-(J33-Pin_16)*%
X155870000Y-59430000D02*
X135040000Y-38600000D01*
X177040000Y-60700000D02*
X175770000Y-59430000D01*
X175770000Y-59430000D02*
X155870000Y-59430000D01*
%TO.N,Net-(J33-Pin_4)*%
X178208800Y-61181500D02*
X177530700Y-61859600D01*
X152420400Y-61859600D02*
X150280000Y-64000000D01*
X178208800Y-46628800D02*
X178208800Y-61181500D01*
X177040000Y-45460000D02*
X178208800Y-46628800D01*
X177530700Y-61859600D02*
X152420400Y-61859600D01*
%TO.N,Net-(J33-Pin_6)*%
X140120000Y-64000000D02*
X146878400Y-57241600D01*
X146878400Y-57241600D02*
X146878400Y-53984500D01*
%TD*%
%TA.AperFunction,Conductor*%
%TO.N,GND*%
G36*
X127989448Y-37019407D02*
G01*
X128025412Y-37068907D01*
X128025412Y-37130093D01*
X128001260Y-37169504D01*
X127826232Y-37344530D01*
X127771715Y-37372307D01*
X127725643Y-37368683D01*
X127716338Y-37365660D01*
X127519600Y-37334500D01*
X127519597Y-37334500D01*
X127320403Y-37334500D01*
X127320400Y-37334500D01*
X127123665Y-37365659D01*
X126934216Y-37427215D01*
X126756736Y-37517645D01*
X126595583Y-37634730D01*
X126454730Y-37775583D01*
X126337645Y-37936736D01*
X126247215Y-38114216D01*
X126244155Y-38123635D01*
X126208191Y-38173135D01*
X126150000Y-38192042D01*
X126091809Y-38173135D01*
X126055845Y-38123635D01*
X126054495Y-38119480D01*
X126052785Y-38114217D01*
X125962353Y-37936734D01*
X125845269Y-37775582D01*
X125704418Y-37634731D01*
X125543266Y-37517647D01*
X125543265Y-37517646D01*
X125543263Y-37517645D01*
X125365783Y-37427215D01*
X125176334Y-37365659D01*
X124979600Y-37334500D01*
X124979597Y-37334500D01*
X124780403Y-37334500D01*
X124780400Y-37334500D01*
X124583665Y-37365659D01*
X124394216Y-37427215D01*
X124216736Y-37517645D01*
X124055583Y-37634730D01*
X123914730Y-37775583D01*
X123797645Y-37936736D01*
X123707215Y-38114216D01*
X123704155Y-38123635D01*
X123668191Y-38173135D01*
X123610000Y-38192042D01*
X123551809Y-38173135D01*
X123515845Y-38123635D01*
X123514495Y-38119480D01*
X123512785Y-38114217D01*
X123422353Y-37936734D01*
X123305269Y-37775582D01*
X123164418Y-37634731D01*
X123003266Y-37517647D01*
X123003265Y-37517646D01*
X123003263Y-37517645D01*
X122825783Y-37427215D01*
X122636334Y-37365659D01*
X122439600Y-37334500D01*
X122439597Y-37334500D01*
X122240403Y-37334500D01*
X122240400Y-37334500D01*
X122043665Y-37365659D01*
X121854216Y-37427215D01*
X121676736Y-37517645D01*
X121515583Y-37634730D01*
X121374730Y-37775583D01*
X121257645Y-37936736D01*
X121167215Y-38114216D01*
X121164155Y-38123635D01*
X121128191Y-38173135D01*
X121070000Y-38192042D01*
X121011809Y-38173135D01*
X120975845Y-38123635D01*
X120974495Y-38119480D01*
X120972785Y-38114217D01*
X120882353Y-37936734D01*
X120765269Y-37775582D01*
X120624418Y-37634731D01*
X120463266Y-37517647D01*
X120463265Y-37517646D01*
X120463263Y-37517645D01*
X120285783Y-37427215D01*
X120096334Y-37365659D01*
X119899600Y-37334500D01*
X119899597Y-37334500D01*
X119700403Y-37334500D01*
X119700400Y-37334500D01*
X119503665Y-37365659D01*
X119314216Y-37427215D01*
X119136736Y-37517645D01*
X118975583Y-37634730D01*
X118834730Y-37775583D01*
X118717645Y-37936736D01*
X118627215Y-38114216D01*
X118624155Y-38123635D01*
X118588191Y-38173135D01*
X118530000Y-38192042D01*
X118471809Y-38173135D01*
X118435845Y-38123635D01*
X118434495Y-38119480D01*
X118432785Y-38114217D01*
X118342353Y-37936734D01*
X118225269Y-37775582D01*
X118084418Y-37634731D01*
X117923266Y-37517647D01*
X117923265Y-37517646D01*
X117923263Y-37517645D01*
X117745783Y-37427215D01*
X117556334Y-37365659D01*
X117359600Y-37334500D01*
X117359597Y-37334500D01*
X117160403Y-37334500D01*
X117160400Y-37334500D01*
X116963665Y-37365659D01*
X116774216Y-37427215D01*
X116596736Y-37517645D01*
X116435583Y-37634730D01*
X116294730Y-37775583D01*
X116177645Y-37936736D01*
X116087215Y-38114216D01*
X116025659Y-38303665D01*
X115994500Y-38500399D01*
X115994500Y-38699600D01*
X116025659Y-38896334D01*
X116087215Y-39085783D01*
X116177644Y-39263262D01*
X116177647Y-39263266D01*
X116294731Y-39424418D01*
X116435582Y-39565269D01*
X116596734Y-39682353D01*
X116774217Y-39772785D01*
X116963661Y-39834339D01*
X116963662Y-39834339D01*
X116963665Y-39834340D01*
X117160400Y-39865500D01*
X117160403Y-39865500D01*
X117359600Y-39865500D01*
X117556334Y-39834340D01*
X117556335Y-39834339D01*
X117556339Y-39834339D01*
X117745783Y-39772785D01*
X117923266Y-39682353D01*
X118084418Y-39565269D01*
X118225269Y-39424418D01*
X118342353Y-39263266D01*
X118432785Y-39085783D01*
X118435845Y-39076366D01*
X118471808Y-39026866D01*
X118529998Y-39007957D01*
X118588189Y-39026863D01*
X118624154Y-39076362D01*
X118624155Y-39076366D01*
X118627213Y-39085780D01*
X118717645Y-39263262D01*
X118717647Y-39263266D01*
X118834731Y-39424418D01*
X118975582Y-39565269D01*
X119136734Y-39682353D01*
X119314217Y-39772785D01*
X119503661Y-39834339D01*
X119503662Y-39834339D01*
X119503665Y-39834340D01*
X119700400Y-39865500D01*
X119700403Y-39865500D01*
X119899600Y-39865500D01*
X120096334Y-39834340D01*
X120096335Y-39834339D01*
X120096339Y-39834339D01*
X120285783Y-39772785D01*
X120463266Y-39682353D01*
X120624418Y-39565269D01*
X120765269Y-39424418D01*
X120882353Y-39263266D01*
X120972785Y-39085783D01*
X120975845Y-39076366D01*
X121011808Y-39026866D01*
X121069998Y-39007957D01*
X121128189Y-39026863D01*
X121164154Y-39076362D01*
X121164155Y-39076366D01*
X121167213Y-39085780D01*
X121257645Y-39263262D01*
X121257647Y-39263266D01*
X121374731Y-39424418D01*
X121515582Y-39565269D01*
X121676734Y-39682353D01*
X121854217Y-39772785D01*
X122043661Y-39834339D01*
X122043662Y-39834339D01*
X122043665Y-39834340D01*
X122240400Y-39865500D01*
X122240403Y-39865500D01*
X122439600Y-39865500D01*
X122636334Y-39834340D01*
X122636335Y-39834339D01*
X122636339Y-39834339D01*
X122825783Y-39772785D01*
X123003266Y-39682353D01*
X123164418Y-39565269D01*
X123305269Y-39424418D01*
X123422353Y-39263266D01*
X123512785Y-39085783D01*
X123515845Y-39076366D01*
X123551808Y-39026866D01*
X123609998Y-39007957D01*
X123668189Y-39026863D01*
X123704154Y-39076362D01*
X123704155Y-39076366D01*
X123707213Y-39085780D01*
X123797645Y-39263262D01*
X123797647Y-39263266D01*
X123914731Y-39424418D01*
X124055582Y-39565269D01*
X124216734Y-39682353D01*
X124394217Y-39772785D01*
X124583661Y-39834339D01*
X124583662Y-39834339D01*
X124583665Y-39834340D01*
X124780400Y-39865500D01*
X124780403Y-39865500D01*
X124979600Y-39865500D01*
X125176334Y-39834340D01*
X125176335Y-39834339D01*
X125176339Y-39834339D01*
X125365783Y-39772785D01*
X125543266Y-39682353D01*
X125704418Y-39565269D01*
X125845269Y-39424418D01*
X125962353Y-39263266D01*
X126052785Y-39085783D01*
X126055845Y-39076366D01*
X126091808Y-39026866D01*
X126149998Y-39007957D01*
X126208189Y-39026863D01*
X126244154Y-39076362D01*
X126244155Y-39076366D01*
X126247213Y-39085780D01*
X126337645Y-39263262D01*
X126337647Y-39263266D01*
X126454731Y-39424418D01*
X126595582Y-39565269D01*
X126756734Y-39682353D01*
X126934217Y-39772785D01*
X127123661Y-39834339D01*
X127123662Y-39834339D01*
X127123665Y-39834340D01*
X127320400Y-39865500D01*
X127320403Y-39865500D01*
X127519600Y-39865500D01*
X127716334Y-39834340D01*
X127716335Y-39834339D01*
X127716339Y-39834339D01*
X127905783Y-39772785D01*
X128083266Y-39682353D01*
X128244418Y-39565269D01*
X128385269Y-39424418D01*
X128502353Y-39263266D01*
X128592785Y-39085783D01*
X128595845Y-39076366D01*
X128631808Y-39026866D01*
X128689998Y-39007957D01*
X128748189Y-39026863D01*
X128784154Y-39076362D01*
X128784155Y-39076366D01*
X128787213Y-39085780D01*
X128877645Y-39263262D01*
X128877647Y-39263266D01*
X128994731Y-39424418D01*
X129135582Y-39565269D01*
X129296734Y-39682353D01*
X129474217Y-39772785D01*
X129663661Y-39834339D01*
X129663662Y-39834339D01*
X129663665Y-39834340D01*
X129860400Y-39865500D01*
X129860403Y-39865500D01*
X130059600Y-39865500D01*
X130256334Y-39834340D01*
X130256335Y-39834339D01*
X130256339Y-39834339D01*
X130445783Y-39772785D01*
X130623266Y-39682353D01*
X130784418Y-39565269D01*
X130925269Y-39424418D01*
X131042353Y-39263266D01*
X131132785Y-39085783D01*
X131135845Y-39076366D01*
X131171808Y-39026866D01*
X131229998Y-39007957D01*
X131288189Y-39026863D01*
X131324154Y-39076362D01*
X131324155Y-39076366D01*
X131327213Y-39085780D01*
X131417645Y-39263262D01*
X131417647Y-39263266D01*
X131534731Y-39424418D01*
X131675582Y-39565269D01*
X131836734Y-39682353D01*
X132014217Y-39772785D01*
X132203661Y-39834339D01*
X132203662Y-39834339D01*
X132203665Y-39834340D01*
X132400400Y-39865500D01*
X132400403Y-39865500D01*
X132599600Y-39865500D01*
X132796334Y-39834340D01*
X132796335Y-39834339D01*
X132796339Y-39834339D01*
X132985783Y-39772785D01*
X133163266Y-39682353D01*
X133324418Y-39565269D01*
X133465269Y-39424418D01*
X133582353Y-39263266D01*
X133672785Y-39085783D01*
X133675845Y-39076366D01*
X133711808Y-39026866D01*
X133769998Y-39007957D01*
X133828189Y-39026863D01*
X133864154Y-39076362D01*
X133864155Y-39076366D01*
X133867213Y-39085780D01*
X133957645Y-39263262D01*
X133957647Y-39263266D01*
X134074731Y-39424418D01*
X134215582Y-39565269D01*
X134376734Y-39682353D01*
X134554217Y-39772785D01*
X134743661Y-39834339D01*
X134743662Y-39834339D01*
X134743665Y-39834340D01*
X134940400Y-39865500D01*
X134940403Y-39865500D01*
X135139600Y-39865500D01*
X135299706Y-39840141D01*
X135336339Y-39834339D01*
X135345636Y-39831317D01*
X135406819Y-39831317D01*
X135446232Y-39855467D01*
X155501284Y-59910520D01*
X155638216Y-59989577D01*
X155638218Y-59989577D01*
X155638219Y-59989578D01*
X155714579Y-60010039D01*
X155790940Y-60030500D01*
X155790942Y-60030501D01*
X155790943Y-60030501D01*
X155955121Y-60030501D01*
X155955137Y-60030500D01*
X173163873Y-60030500D01*
X173222064Y-60049407D01*
X173258028Y-60098907D01*
X173258028Y-60160093D01*
X173252081Y-60174448D01*
X173248443Y-60181585D01*
X173182752Y-60383761D01*
X173149500Y-60593709D01*
X173149500Y-60806290D01*
X173182752Y-61016238D01*
X173219556Y-61129507D01*
X173219556Y-61190693D01*
X173183592Y-61240193D01*
X173125401Y-61259100D01*
X152505537Y-61259100D01*
X152505521Y-61259099D01*
X152499458Y-61259099D01*
X152341343Y-61259099D01*
X152341340Y-61259099D01*
X152188619Y-61300021D01*
X152188618Y-61300021D01*
X152051684Y-61379080D01*
X150686233Y-62744530D01*
X150631716Y-62772307D01*
X150585643Y-62768683D01*
X150576338Y-62765660D01*
X150379600Y-62734500D01*
X150379597Y-62734500D01*
X150180403Y-62734500D01*
X150180400Y-62734500D01*
X149983665Y-62765659D01*
X149794216Y-62827215D01*
X149616736Y-62917645D01*
X149455583Y-63034730D01*
X149314730Y-63175583D01*
X149197645Y-63336736D01*
X149107215Y-63514216D01*
X149104155Y-63523635D01*
X149068191Y-63573135D01*
X149010000Y-63592042D01*
X148951809Y-63573135D01*
X148915845Y-63523635D01*
X148912785Y-63514217D01*
X148822353Y-63336734D01*
X148705269Y-63175582D01*
X148564418Y-63034731D01*
X148403266Y-62917647D01*
X148403265Y-62917646D01*
X148403263Y-62917645D01*
X148225783Y-62827215D01*
X148036334Y-62765659D01*
X147839600Y-62734500D01*
X147839597Y-62734500D01*
X147640403Y-62734500D01*
X147640400Y-62734500D01*
X147443665Y-62765659D01*
X147254216Y-62827215D01*
X147076736Y-62917645D01*
X146915583Y-63034730D01*
X146774730Y-63175583D01*
X146657645Y-63336736D01*
X146567215Y-63514216D01*
X146564155Y-63523635D01*
X146528191Y-63573135D01*
X146470000Y-63592042D01*
X146411809Y-63573135D01*
X146375845Y-63523635D01*
X146372785Y-63514217D01*
X146282353Y-63336734D01*
X146165269Y-63175582D01*
X146024418Y-63034731D01*
X145863266Y-62917647D01*
X145863265Y-62917646D01*
X145863263Y-62917645D01*
X145685783Y-62827215D01*
X145496334Y-62765659D01*
X145299600Y-62734500D01*
X145299597Y-62734500D01*
X145100403Y-62734500D01*
X145100400Y-62734500D01*
X144903665Y-62765659D01*
X144714216Y-62827215D01*
X144536736Y-62917645D01*
X144375583Y-63034730D01*
X144234730Y-63175583D01*
X144117645Y-63336736D01*
X144027215Y-63514216D01*
X144024155Y-63523635D01*
X143988191Y-63573135D01*
X143930000Y-63592042D01*
X143871809Y-63573135D01*
X143835845Y-63523635D01*
X143832785Y-63514217D01*
X143742353Y-63336734D01*
X143625269Y-63175582D01*
X143484418Y-63034731D01*
X143323266Y-62917647D01*
X143323265Y-62917646D01*
X143323263Y-62917645D01*
X143145783Y-62827215D01*
X142956334Y-62765659D01*
X142759600Y-62734500D01*
X142759597Y-62734500D01*
X142560403Y-62734500D01*
X142560400Y-62734500D01*
X142474386Y-62748123D01*
X142413954Y-62738552D01*
X142370689Y-62695287D01*
X142361118Y-62634855D01*
X142388893Y-62580340D01*
X147247113Y-57722121D01*
X147247116Y-57722120D01*
X147358920Y-57610316D01*
X147409783Y-57522218D01*
X147437977Y-57473385D01*
X147478901Y-57320657D01*
X147478901Y-57162543D01*
X147478901Y-57156481D01*
X147478900Y-57156463D01*
X147478900Y-54556152D01*
X147497517Y-54498852D01*
X147497487Y-54498832D01*
X147497559Y-54498724D01*
X147497807Y-54497961D01*
X147499743Y-54495455D01*
X147500186Y-54494791D01*
X147500189Y-54494789D01*
X147587794Y-54363679D01*
X147648137Y-54217997D01*
X147678900Y-54063342D01*
X147678900Y-53905658D01*
X147648137Y-53751003D01*
X147587794Y-53605321D01*
X147587793Y-53605319D01*
X147587790Y-53605314D01*
X147545250Y-53541650D01*
X147500189Y-53474211D01*
X147388689Y-53362711D01*
X147336459Y-53327812D01*
X147257585Y-53275109D01*
X147257574Y-53275103D01*
X147111897Y-53214763D01*
X146957244Y-53184000D01*
X146957242Y-53184000D01*
X146799558Y-53184000D01*
X146799555Y-53184000D01*
X146644903Y-53214763D01*
X146644901Y-53214763D01*
X146499225Y-53275103D01*
X146499214Y-53275109D01*
X146368111Y-53362711D01*
X146368107Y-53362714D01*
X146256614Y-53474207D01*
X146256611Y-53474211D01*
X146169009Y-53605314D01*
X146169003Y-53605325D01*
X146108663Y-53751001D01*
X146108663Y-53751003D01*
X146077900Y-53905655D01*
X146077900Y-54063344D01*
X146108663Y-54217996D01*
X146108663Y-54217998D01*
X146169003Y-54363674D01*
X146169009Y-54363685D01*
X146227429Y-54451115D01*
X146256611Y-54494789D01*
X146256612Y-54494790D01*
X146259313Y-54498832D01*
X146257936Y-54499751D01*
X146277729Y-54550332D01*
X146277900Y-54556152D01*
X146277900Y-56951856D01*
X146258993Y-57010047D01*
X146248904Y-57021860D01*
X140526233Y-62744530D01*
X140471716Y-62772307D01*
X140425643Y-62768683D01*
X140416338Y-62765660D01*
X140219600Y-62734500D01*
X140219597Y-62734500D01*
X140020403Y-62734500D01*
X140020400Y-62734500D01*
X139823665Y-62765659D01*
X139634216Y-62827215D01*
X139456736Y-62917645D01*
X139295583Y-63034730D01*
X139154730Y-63175583D01*
X139037645Y-63336736D01*
X138947215Y-63514216D01*
X138944155Y-63523635D01*
X138908191Y-63573135D01*
X138850000Y-63592042D01*
X138791809Y-63573135D01*
X138755845Y-63523635D01*
X138752785Y-63514217D01*
X138662353Y-63336734D01*
X138545269Y-63175582D01*
X138404418Y-63034731D01*
X138243266Y-62917647D01*
X138243265Y-62917646D01*
X138243263Y-62917645D01*
X138065783Y-62827215D01*
X137876334Y-62765659D01*
X137679600Y-62734500D01*
X137679597Y-62734500D01*
X137480403Y-62734500D01*
X137480400Y-62734500D01*
X137283665Y-62765659D01*
X137094216Y-62827215D01*
X136916736Y-62917645D01*
X136755583Y-63034730D01*
X136614730Y-63175583D01*
X136497645Y-63336736D01*
X136407215Y-63514216D01*
X136404155Y-63523635D01*
X136368191Y-63573135D01*
X136310000Y-63592042D01*
X136251809Y-63573135D01*
X136215845Y-63523635D01*
X136212785Y-63514217D01*
X136122353Y-63336734D01*
X136005269Y-63175582D01*
X135864418Y-63034731D01*
X135703266Y-62917647D01*
X135703265Y-62917646D01*
X135703263Y-62917645D01*
X135525783Y-62827215D01*
X135336334Y-62765659D01*
X135139600Y-62734500D01*
X135139597Y-62734500D01*
X134940403Y-62734500D01*
X134940400Y-62734500D01*
X134854386Y-62748123D01*
X134793954Y-62738552D01*
X134750689Y-62695287D01*
X134741118Y-62634855D01*
X134768893Y-62580340D01*
X144842701Y-52506534D01*
X144896379Y-52479185D01*
X144896372Y-52479149D01*
X144896500Y-52479123D01*
X144897216Y-52478759D01*
X144900359Y-52478355D01*
X144901138Y-52478200D01*
X144901142Y-52478200D01*
X145055797Y-52447437D01*
X145201479Y-52387094D01*
X145332589Y-52299489D01*
X145444089Y-52187989D01*
X145531694Y-52056879D01*
X145592037Y-51911197D01*
X145622800Y-51756542D01*
X145622800Y-51598858D01*
X145592037Y-51444203D01*
X145531694Y-51298521D01*
X145531693Y-51298519D01*
X145531690Y-51298514D01*
X145472211Y-51209499D01*
X145444089Y-51167411D01*
X145332589Y-51055911D01*
X145251382Y-51001650D01*
X145201485Y-50968309D01*
X145201474Y-50968303D01*
X145055797Y-50907963D01*
X144901144Y-50877200D01*
X144901142Y-50877200D01*
X144743458Y-50877200D01*
X144743455Y-50877200D01*
X144588803Y-50907963D01*
X144588801Y-50907963D01*
X144443125Y-50968303D01*
X144443114Y-50968309D01*
X144312011Y-51055911D01*
X144312007Y-51055914D01*
X144200514Y-51167407D01*
X144200511Y-51167411D01*
X144112909Y-51298514D01*
X144112903Y-51298525D01*
X144052563Y-51444201D01*
X144052563Y-51444203D01*
X144020851Y-51603628D01*
X144019226Y-51603304D01*
X143997456Y-51653064D01*
X143993463Y-51657300D01*
X132906233Y-62744530D01*
X132851716Y-62772307D01*
X132805643Y-62768683D01*
X132796338Y-62765660D01*
X132599600Y-62734500D01*
X132599597Y-62734500D01*
X132400403Y-62734500D01*
X132400400Y-62734500D01*
X132203665Y-62765659D01*
X132014216Y-62827215D01*
X131836736Y-62917645D01*
X131675583Y-63034730D01*
X131534730Y-63175583D01*
X131417645Y-63336736D01*
X131327215Y-63514216D01*
X131324155Y-63523635D01*
X131288191Y-63573135D01*
X131230000Y-63592042D01*
X131171809Y-63573135D01*
X131135845Y-63523635D01*
X131132785Y-63514217D01*
X131042353Y-63336734D01*
X130925269Y-63175582D01*
X130784418Y-63034731D01*
X130623266Y-62917647D01*
X130623265Y-62917646D01*
X130623263Y-62917645D01*
X130445783Y-62827215D01*
X130256334Y-62765659D01*
X130059600Y-62734500D01*
X130059597Y-62734500D01*
X129860403Y-62734500D01*
X129860400Y-62734500D01*
X129663665Y-62765659D01*
X129474216Y-62827215D01*
X129296736Y-62917645D01*
X129135583Y-63034730D01*
X128994730Y-63175583D01*
X128877645Y-63336736D01*
X128787215Y-63514216D01*
X128784155Y-63523635D01*
X128748191Y-63573135D01*
X128690000Y-63592042D01*
X128631809Y-63573135D01*
X128595845Y-63523635D01*
X128592785Y-63514217D01*
X128502353Y-63336734D01*
X128385269Y-63175582D01*
X128244418Y-63034731D01*
X128083266Y-62917647D01*
X128083265Y-62917646D01*
X128083263Y-62917645D01*
X127905783Y-62827215D01*
X127716334Y-62765659D01*
X127519600Y-62734500D01*
X127519597Y-62734500D01*
X127320403Y-62734500D01*
X127320400Y-62734500D01*
X127123665Y-62765659D01*
X126934216Y-62827215D01*
X126756736Y-62917645D01*
X126595583Y-63034730D01*
X126454730Y-63175583D01*
X126337645Y-63336736D01*
X126247215Y-63514216D01*
X126244155Y-63523635D01*
X126208191Y-63573135D01*
X126150000Y-63592042D01*
X126091809Y-63573135D01*
X126055845Y-63523635D01*
X126052785Y-63514217D01*
X125962353Y-63336734D01*
X125845269Y-63175582D01*
X125704418Y-63034731D01*
X125543266Y-62917647D01*
X125543265Y-62917646D01*
X125543263Y-62917645D01*
X125365783Y-62827215D01*
X125176334Y-62765659D01*
X124979600Y-62734500D01*
X124979597Y-62734500D01*
X124780403Y-62734500D01*
X124780400Y-62734500D01*
X124583665Y-62765659D01*
X124394216Y-62827215D01*
X124216736Y-62917645D01*
X124055583Y-63034730D01*
X123914730Y-63175583D01*
X123797645Y-63336736D01*
X123707215Y-63514216D01*
X123704155Y-63523635D01*
X123668191Y-63573135D01*
X123610000Y-63592042D01*
X123551809Y-63573135D01*
X123515845Y-63523635D01*
X123512785Y-63514217D01*
X123422353Y-63336734D01*
X123305269Y-63175582D01*
X123164418Y-63034731D01*
X123003266Y-62917647D01*
X123003265Y-62917646D01*
X123003263Y-62917645D01*
X122825783Y-62827215D01*
X122636334Y-62765659D01*
X122439600Y-62734500D01*
X122439597Y-62734500D01*
X122240403Y-62734500D01*
X122240400Y-62734500D01*
X122043665Y-62765659D01*
X121854216Y-62827215D01*
X121676736Y-62917645D01*
X121515583Y-63034730D01*
X121374730Y-63175583D01*
X121257645Y-63336736D01*
X121167215Y-63514216D01*
X121164155Y-63523635D01*
X121128191Y-63573135D01*
X121070000Y-63592042D01*
X121011809Y-63573135D01*
X120975845Y-63523635D01*
X120972785Y-63514217D01*
X120882353Y-63336734D01*
X120765269Y-63175582D01*
X120624418Y-63034731D01*
X120463266Y-62917647D01*
X120463265Y-62917646D01*
X120463263Y-62917645D01*
X120285783Y-62827215D01*
X120096334Y-62765659D01*
X119899600Y-62734500D01*
X119899597Y-62734500D01*
X119700403Y-62734500D01*
X119700400Y-62734500D01*
X119503665Y-62765659D01*
X119314216Y-62827215D01*
X119136736Y-62917645D01*
X118975583Y-63034730D01*
X118834730Y-63175583D01*
X118717645Y-63336736D01*
X118627215Y-63514216D01*
X118624155Y-63523635D01*
X118588191Y-63573135D01*
X118530000Y-63592042D01*
X118471809Y-63573135D01*
X118435845Y-63523635D01*
X118432785Y-63514217D01*
X118342353Y-63336734D01*
X118225269Y-63175582D01*
X118084418Y-63034731D01*
X117923266Y-62917647D01*
X117923265Y-62917646D01*
X117923263Y-62917645D01*
X117745783Y-62827215D01*
X117556334Y-62765659D01*
X117359600Y-62734500D01*
X117359597Y-62734500D01*
X117160403Y-62734500D01*
X117160400Y-62734500D01*
X116963665Y-62765659D01*
X116774216Y-62827215D01*
X116596736Y-62917645D01*
X116435583Y-63034730D01*
X116294730Y-63175583D01*
X116177645Y-63336736D01*
X116087215Y-63514216D01*
X116025659Y-63703665D01*
X115994500Y-63900399D01*
X115994500Y-64099600D01*
X116025659Y-64296334D01*
X116087215Y-64485783D01*
X116177644Y-64663262D01*
X116177647Y-64663266D01*
X116294731Y-64824418D01*
X116435582Y-64965269D01*
X116596734Y-65082353D01*
X116774217Y-65172785D01*
X116963661Y-65234339D01*
X116963662Y-65234339D01*
X116963665Y-65234340D01*
X117160400Y-65265500D01*
X117160403Y-65265500D01*
X117359600Y-65265500D01*
X117556334Y-65234340D01*
X117556335Y-65234339D01*
X117556339Y-65234339D01*
X117745783Y-65172785D01*
X117923266Y-65082353D01*
X118084418Y-64965269D01*
X118225269Y-64824418D01*
X118342353Y-64663266D01*
X118432785Y-64485783D01*
X118432786Y-64485780D01*
X118435845Y-64476366D01*
X118471808Y-64426866D01*
X118529998Y-64407957D01*
X118588189Y-64426863D01*
X118624154Y-64476362D01*
X118624155Y-64476366D01*
X118627213Y-64485780D01*
X118717645Y-64663262D01*
X118717647Y-64663266D01*
X118834731Y-64824418D01*
X118975582Y-64965269D01*
X119136734Y-65082353D01*
X119314217Y-65172785D01*
X119503661Y-65234339D01*
X119503662Y-65234339D01*
X119503665Y-65234340D01*
X119700400Y-65265500D01*
X119700403Y-65265500D01*
X119899600Y-65265500D01*
X120096334Y-65234340D01*
X120096335Y-65234339D01*
X120096339Y-65234339D01*
X120285783Y-65172785D01*
X120463266Y-65082353D01*
X120624418Y-64965269D01*
X120765269Y-64824418D01*
X120882353Y-64663266D01*
X120972785Y-64485783D01*
X120972786Y-64485780D01*
X120975845Y-64476366D01*
X121011808Y-64426866D01*
X121069998Y-64407957D01*
X121128189Y-64426863D01*
X121164154Y-64476362D01*
X121164155Y-64476366D01*
X121167213Y-64485780D01*
X121257645Y-64663262D01*
X121257647Y-64663266D01*
X121374731Y-64824418D01*
X121515582Y-64965269D01*
X121676734Y-65082353D01*
X121854217Y-65172785D01*
X122043661Y-65234339D01*
X122043662Y-65234339D01*
X122043665Y-65234340D01*
X122240400Y-65265500D01*
X122240403Y-65265500D01*
X122439600Y-65265500D01*
X122636334Y-65234340D01*
X122636335Y-65234339D01*
X122636339Y-65234339D01*
X122825783Y-65172785D01*
X123003266Y-65082353D01*
X123164418Y-64965269D01*
X123305269Y-64824418D01*
X123422353Y-64663266D01*
X123512785Y-64485783D01*
X123512786Y-64485780D01*
X123515845Y-64476366D01*
X123551808Y-64426866D01*
X123609998Y-64407957D01*
X123668189Y-64426863D01*
X123704154Y-64476362D01*
X123704155Y-64476366D01*
X123707213Y-64485780D01*
X123797645Y-64663262D01*
X123797647Y-64663266D01*
X123914731Y-64824418D01*
X124055582Y-64965269D01*
X124216734Y-65082353D01*
X124394217Y-65172785D01*
X124583661Y-65234339D01*
X124583662Y-65234339D01*
X124583665Y-65234340D01*
X124780400Y-65265500D01*
X124780403Y-65265500D01*
X124979600Y-65265500D01*
X125176334Y-65234340D01*
X125176335Y-65234339D01*
X125176339Y-65234339D01*
X125365783Y-65172785D01*
X125543266Y-65082353D01*
X125704418Y-64965269D01*
X125845269Y-64824418D01*
X125962353Y-64663266D01*
X126052785Y-64485783D01*
X126052786Y-64485780D01*
X126055845Y-64476366D01*
X126091808Y-64426866D01*
X126149998Y-64407957D01*
X126208189Y-64426863D01*
X126244154Y-64476362D01*
X126244155Y-64476366D01*
X126247213Y-64485780D01*
X126337645Y-64663262D01*
X126337647Y-64663266D01*
X126454731Y-64824418D01*
X126595582Y-64965269D01*
X126756734Y-65082353D01*
X126934217Y-65172785D01*
X127123661Y-65234339D01*
X127123662Y-65234339D01*
X127123665Y-65234340D01*
X127320400Y-65265500D01*
X127320403Y-65265500D01*
X127519600Y-65265500D01*
X127716334Y-65234340D01*
X127716335Y-65234339D01*
X127716339Y-65234339D01*
X127905783Y-65172785D01*
X128083266Y-65082353D01*
X128244418Y-64965269D01*
X128385269Y-64824418D01*
X128502353Y-64663266D01*
X128592785Y-64485783D01*
X128592786Y-64485780D01*
X128595845Y-64476366D01*
X128631808Y-64426866D01*
X128689998Y-64407957D01*
X128748189Y-64426863D01*
X128784154Y-64476362D01*
X128784155Y-64476366D01*
X128787213Y-64485780D01*
X128877645Y-64663262D01*
X128877647Y-64663266D01*
X128994731Y-64824418D01*
X129135582Y-64965269D01*
X129296734Y-65082353D01*
X129474217Y-65172785D01*
X129663661Y-65234339D01*
X129663662Y-65234339D01*
X129663665Y-65234340D01*
X129860400Y-65265500D01*
X129860403Y-65265500D01*
X130059600Y-65265500D01*
X130256334Y-65234340D01*
X130256335Y-65234339D01*
X130256339Y-65234339D01*
X130445783Y-65172785D01*
X130623266Y-65082353D01*
X130784418Y-64965269D01*
X130925269Y-64824418D01*
X131042353Y-64663266D01*
X131132785Y-64485783D01*
X131132786Y-64485780D01*
X131135845Y-64476366D01*
X131171808Y-64426866D01*
X131229998Y-64407957D01*
X131288189Y-64426863D01*
X131324154Y-64476362D01*
X131324155Y-64476366D01*
X131327213Y-64485780D01*
X131417645Y-64663262D01*
X131417647Y-64663266D01*
X131534731Y-64824418D01*
X131675582Y-64965269D01*
X131836734Y-65082353D01*
X132014217Y-65172785D01*
X132203661Y-65234339D01*
X132203662Y-65234339D01*
X132203665Y-65234340D01*
X132400400Y-65265500D01*
X132400403Y-65265500D01*
X132599600Y-65265500D01*
X132796334Y-65234340D01*
X132796335Y-65234339D01*
X132796339Y-65234339D01*
X132985783Y-65172785D01*
X133163266Y-65082353D01*
X133324418Y-64965269D01*
X133465269Y-64824418D01*
X133582353Y-64663266D01*
X133672785Y-64485783D01*
X133672786Y-64485780D01*
X133675845Y-64476366D01*
X133711808Y-64426866D01*
X133769998Y-64407957D01*
X133828189Y-64426863D01*
X133864154Y-64476362D01*
X133864155Y-64476366D01*
X133867213Y-64485780D01*
X133957645Y-64663262D01*
X133957647Y-64663266D01*
X134074731Y-64824418D01*
X134215582Y-64965269D01*
X134376734Y-65082353D01*
X134554217Y-65172785D01*
X134743661Y-65234339D01*
X134743662Y-65234339D01*
X134743665Y-65234340D01*
X134940400Y-65265500D01*
X134940403Y-65265500D01*
X135139600Y-65265500D01*
X135336334Y-65234340D01*
X135336335Y-65234339D01*
X135336339Y-65234339D01*
X135525783Y-65172785D01*
X135703266Y-65082353D01*
X135864418Y-64965269D01*
X136005269Y-64824418D01*
X136122353Y-64663266D01*
X136212785Y-64485783D01*
X136212786Y-64485780D01*
X136215845Y-64476366D01*
X136251808Y-64426866D01*
X136309998Y-64407957D01*
X136368189Y-64426863D01*
X136404154Y-64476362D01*
X136404155Y-64476366D01*
X136407213Y-64485780D01*
X136497645Y-64663262D01*
X136497647Y-64663266D01*
X136614731Y-64824418D01*
X136755582Y-64965269D01*
X136916734Y-65082353D01*
X137094217Y-65172785D01*
X137283661Y-65234339D01*
X137283662Y-65234339D01*
X137283665Y-65234340D01*
X137480400Y-65265500D01*
X137480403Y-65265500D01*
X137679600Y-65265500D01*
X137876334Y-65234340D01*
X137876335Y-65234339D01*
X137876339Y-65234339D01*
X138065783Y-65172785D01*
X138243266Y-65082353D01*
X138404418Y-64965269D01*
X138545269Y-64824418D01*
X138662353Y-64663266D01*
X138752785Y-64485783D01*
X138752786Y-64485780D01*
X138755845Y-64476366D01*
X138791808Y-64426866D01*
X138849998Y-64407957D01*
X138908189Y-64426863D01*
X138944154Y-64476362D01*
X138944155Y-64476366D01*
X138947213Y-64485780D01*
X139037645Y-64663262D01*
X139037647Y-64663266D01*
X139154731Y-64824418D01*
X139295582Y-64965269D01*
X139456734Y-65082353D01*
X139634217Y-65172785D01*
X139823661Y-65234339D01*
X139823662Y-65234339D01*
X139823665Y-65234340D01*
X140020400Y-65265500D01*
X140020403Y-65265500D01*
X140219600Y-65265500D01*
X140416334Y-65234340D01*
X140416335Y-65234339D01*
X140416339Y-65234339D01*
X140605783Y-65172785D01*
X140783266Y-65082353D01*
X140944418Y-64965269D01*
X141085269Y-64824418D01*
X141202353Y-64663266D01*
X141292785Y-64485783D01*
X141292786Y-64485780D01*
X141295845Y-64476366D01*
X141331808Y-64426866D01*
X141389998Y-64407957D01*
X141448189Y-64426863D01*
X141484154Y-64476362D01*
X141484155Y-64476366D01*
X141487213Y-64485780D01*
X141577645Y-64663262D01*
X141577647Y-64663266D01*
X141694731Y-64824418D01*
X141835582Y-64965269D01*
X141996734Y-65082353D01*
X142174217Y-65172785D01*
X142363661Y-65234339D01*
X142363662Y-65234339D01*
X142363665Y-65234340D01*
X142560400Y-65265500D01*
X142560403Y-65265500D01*
X142759600Y-65265500D01*
X142956334Y-65234340D01*
X142956335Y-65234339D01*
X142956339Y-65234339D01*
X143145783Y-65172785D01*
X143323266Y-65082353D01*
X143484418Y-64965269D01*
X143625269Y-64824418D01*
X143742353Y-64663266D01*
X143832785Y-64485783D01*
X143832786Y-64485780D01*
X143835845Y-64476366D01*
X143871808Y-64426866D01*
X143929998Y-64407957D01*
X143988189Y-64426863D01*
X144024154Y-64476362D01*
X144024155Y-64476366D01*
X144027213Y-64485780D01*
X144117645Y-64663262D01*
X144117647Y-64663266D01*
X144234731Y-64824418D01*
X144375582Y-64965269D01*
X144536734Y-65082353D01*
X144714217Y-65172785D01*
X144903661Y-65234339D01*
X144903662Y-65234339D01*
X144903665Y-65234340D01*
X145100400Y-65265500D01*
X145100403Y-65265500D01*
X145299600Y-65265500D01*
X145496334Y-65234340D01*
X145496335Y-65234339D01*
X145496339Y-65234339D01*
X145685783Y-65172785D01*
X145863266Y-65082353D01*
X146024418Y-64965269D01*
X146165269Y-64824418D01*
X146282353Y-64663266D01*
X146372785Y-64485783D01*
X146372786Y-64485780D01*
X146375845Y-64476366D01*
X146411808Y-64426866D01*
X146469998Y-64407957D01*
X146528189Y-64426863D01*
X146564154Y-64476362D01*
X146564155Y-64476366D01*
X146567213Y-64485780D01*
X146657645Y-64663262D01*
X146657647Y-64663266D01*
X146774731Y-64824418D01*
X146915582Y-64965269D01*
X147076734Y-65082353D01*
X147254217Y-65172785D01*
X147443661Y-65234339D01*
X147443662Y-65234339D01*
X147443665Y-65234340D01*
X147640400Y-65265500D01*
X147640403Y-65265500D01*
X147839600Y-65265500D01*
X148036334Y-65234340D01*
X148036335Y-65234339D01*
X148036339Y-65234339D01*
X148225783Y-65172785D01*
X148403266Y-65082353D01*
X148564418Y-64965269D01*
X148705269Y-64824418D01*
X148822353Y-64663266D01*
X148912785Y-64485783D01*
X148912786Y-64485780D01*
X148915845Y-64476366D01*
X148951808Y-64426866D01*
X149009998Y-64407957D01*
X149068189Y-64426863D01*
X149104154Y-64476362D01*
X149104155Y-64476366D01*
X149107213Y-64485780D01*
X149197645Y-64663262D01*
X149197647Y-64663266D01*
X149314731Y-64824418D01*
X149455582Y-64965269D01*
X149616734Y-65082353D01*
X149794217Y-65172785D01*
X149983661Y-65234339D01*
X149983662Y-65234339D01*
X149983665Y-65234340D01*
X150180400Y-65265500D01*
X150180403Y-65265500D01*
X150379600Y-65265500D01*
X150576334Y-65234340D01*
X150576335Y-65234339D01*
X150576339Y-65234339D01*
X150765783Y-65172785D01*
X150943266Y-65082353D01*
X151104418Y-64965269D01*
X151245269Y-64824418D01*
X151362353Y-64663266D01*
X151452785Y-64485783D01*
X151452786Y-64485780D01*
X151455845Y-64476366D01*
X151491808Y-64426866D01*
X151549998Y-64407957D01*
X151608189Y-64426863D01*
X151644154Y-64476362D01*
X151644155Y-64476366D01*
X151647213Y-64485780D01*
X151737645Y-64663262D01*
X151737647Y-64663266D01*
X151854731Y-64824418D01*
X151995582Y-64965269D01*
X152156734Y-65082353D01*
X152334217Y-65172785D01*
X152523661Y-65234339D01*
X152523662Y-65234339D01*
X152523665Y-65234340D01*
X152720400Y-65265500D01*
X152720403Y-65265500D01*
X152919600Y-65265500D01*
X153116334Y-65234340D01*
X153116335Y-65234339D01*
X153116339Y-65234339D01*
X153305783Y-65172785D01*
X153483266Y-65082353D01*
X153644418Y-64965269D01*
X153785269Y-64824418D01*
X153902353Y-64663266D01*
X153992785Y-64485783D01*
X153992786Y-64485780D01*
X153995845Y-64476366D01*
X154031808Y-64426866D01*
X154089998Y-64407957D01*
X154148189Y-64426863D01*
X154184154Y-64476362D01*
X154184155Y-64476366D01*
X154187213Y-64485780D01*
X154277645Y-64663262D01*
X154277647Y-64663266D01*
X154394731Y-64824418D01*
X154535582Y-64965269D01*
X154696734Y-65082353D01*
X154874217Y-65172785D01*
X155063661Y-65234339D01*
X155063662Y-65234339D01*
X155063665Y-65234340D01*
X155260400Y-65265500D01*
X155260403Y-65265500D01*
X155459600Y-65265500D01*
X155656334Y-65234340D01*
X155656335Y-65234339D01*
X155656339Y-65234339D01*
X155845783Y-65172785D01*
X156023266Y-65082353D01*
X156184418Y-64965269D01*
X156325269Y-64824418D01*
X156442353Y-64663266D01*
X156532785Y-64485783D01*
X156532786Y-64485780D01*
X156535845Y-64476366D01*
X156571808Y-64426866D01*
X156629998Y-64407957D01*
X156688189Y-64426863D01*
X156724154Y-64476362D01*
X156724155Y-64476366D01*
X156727213Y-64485780D01*
X156817645Y-64663262D01*
X156817647Y-64663266D01*
X156934731Y-64824418D01*
X157075582Y-64965269D01*
X157236734Y-65082353D01*
X157414217Y-65172785D01*
X157603661Y-65234339D01*
X157603662Y-65234339D01*
X157603665Y-65234340D01*
X157800400Y-65265500D01*
X157800403Y-65265500D01*
X157999600Y-65265500D01*
X158196334Y-65234340D01*
X158196335Y-65234339D01*
X158196339Y-65234339D01*
X158385783Y-65172785D01*
X158563266Y-65082353D01*
X158724418Y-64965269D01*
X158865269Y-64824418D01*
X158982353Y-64663266D01*
X159072785Y-64485783D01*
X159072786Y-64485780D01*
X159075845Y-64476366D01*
X159111808Y-64426866D01*
X159169998Y-64407957D01*
X159228189Y-64426863D01*
X159264154Y-64476362D01*
X159264155Y-64476366D01*
X159267213Y-64485780D01*
X159357645Y-64663262D01*
X159357647Y-64663266D01*
X159474731Y-64824418D01*
X159615582Y-64965269D01*
X159776734Y-65082353D01*
X159954217Y-65172785D01*
X160143661Y-65234339D01*
X160143662Y-65234339D01*
X160143665Y-65234340D01*
X160340400Y-65265500D01*
X160340403Y-65265500D01*
X160539600Y-65265500D01*
X160736334Y-65234340D01*
X160736335Y-65234339D01*
X160736339Y-65234339D01*
X160925783Y-65172785D01*
X161103266Y-65082353D01*
X161264418Y-64965269D01*
X161405269Y-64824418D01*
X161522353Y-64663266D01*
X161612785Y-64485783D01*
X161612786Y-64485780D01*
X161615845Y-64476366D01*
X161651808Y-64426866D01*
X161709998Y-64407957D01*
X161768189Y-64426863D01*
X161804154Y-64476362D01*
X161804155Y-64476366D01*
X161807213Y-64485780D01*
X161897645Y-64663262D01*
X161897647Y-64663266D01*
X162014731Y-64824418D01*
X162155582Y-64965269D01*
X162316734Y-65082353D01*
X162494217Y-65172785D01*
X162683661Y-65234339D01*
X162683662Y-65234339D01*
X162683665Y-65234340D01*
X162880400Y-65265500D01*
X162880403Y-65265500D01*
X163079600Y-65265500D01*
X163276334Y-65234340D01*
X163276335Y-65234339D01*
X163276339Y-65234339D01*
X163465783Y-65172785D01*
X163643266Y-65082353D01*
X163804418Y-64965269D01*
X163945269Y-64824418D01*
X164062353Y-64663266D01*
X164063984Y-64660064D01*
X164066794Y-64654552D01*
X164110060Y-64611289D01*
X164155002Y-64600500D01*
X176525664Y-64600500D01*
X176525680Y-64600501D01*
X176531743Y-64600501D01*
X176689856Y-64600501D01*
X176689857Y-64600501D01*
X176842585Y-64559577D01*
X176892704Y-64530639D01*
X176979516Y-64480520D01*
X177091320Y-64368716D01*
X177091321Y-64368713D01*
X179247724Y-62212310D01*
X182023800Y-62212310D01*
X182023800Y-62454889D01*
X182055461Y-62695381D01*
X182055461Y-62695386D01*
X182080124Y-62787429D01*
X182115016Y-62917647D01*
X182118244Y-62929692D01*
X182118248Y-62929705D01*
X182211072Y-63153804D01*
X182211074Y-63153808D01*
X182211076Y-63153812D01*
X182316690Y-63336740D01*
X182332366Y-63363892D01*
X182480029Y-63556331D01*
X182480031Y-63556333D01*
X182480035Y-63556338D01*
X182651562Y-63727865D01*
X182651566Y-63727868D01*
X182651568Y-63727870D01*
X182844007Y-63875533D01*
X182844011Y-63875536D01*
X183054088Y-63996824D01*
X183278200Y-64089654D01*
X183512511Y-64152438D01*
X183753012Y-64184100D01*
X183753013Y-64184100D01*
X183995587Y-64184100D01*
X183995588Y-64184100D01*
X184236089Y-64152438D01*
X184470400Y-64089654D01*
X184694512Y-63996824D01*
X184904589Y-63875536D01*
X185097038Y-63727865D01*
X185268565Y-63556338D01*
X185416236Y-63363889D01*
X185537524Y-63153812D01*
X185630354Y-62929700D01*
X185693138Y-62695389D01*
X185724800Y-62454888D01*
X185724800Y-62212312D01*
X185693138Y-61971811D01*
X185630354Y-61737500D01*
X185537524Y-61513388D01*
X185416236Y-61303311D01*
X185413713Y-61300023D01*
X185268570Y-61110868D01*
X185268568Y-61110866D01*
X185268565Y-61110862D01*
X185097038Y-60939335D01*
X185097033Y-60939331D01*
X185097031Y-60939329D01*
X184904592Y-60791666D01*
X184904589Y-60791664D01*
X184694512Y-60670376D01*
X184694508Y-60670374D01*
X184694504Y-60670372D01*
X184470405Y-60577548D01*
X184470404Y-60577547D01*
X184470400Y-60577546D01*
X184236089Y-60514762D01*
X184236086Y-60514761D01*
X184236084Y-60514761D01*
X183995589Y-60483100D01*
X183995588Y-60483100D01*
X183753012Y-60483100D01*
X183753010Y-60483100D01*
X183512518Y-60514761D01*
X183512513Y-60514761D01*
X183278207Y-60577544D01*
X183278194Y-60577548D01*
X183054095Y-60670372D01*
X182844007Y-60791666D01*
X182651568Y-60939329D01*
X182480029Y-61110868D01*
X182332366Y-61303307D01*
X182211072Y-61513395D01*
X182118248Y-61737494D01*
X182118244Y-61737507D01*
X182055461Y-61971813D01*
X182055461Y-61971818D01*
X182023800Y-62212310D01*
X179247724Y-62212310D01*
X179441813Y-62018221D01*
X179441816Y-62018220D01*
X179553620Y-61906416D01*
X179625451Y-61782000D01*
X179632677Y-61769485D01*
X179673600Y-61616757D01*
X179673600Y-61458643D01*
X179673600Y-45040145D01*
X179673601Y-45040132D01*
X179673601Y-44874042D01*
X179673600Y-44874040D01*
X179632678Y-44721319D01*
X179632678Y-44721318D01*
X179632677Y-44721316D01*
X179553620Y-44584384D01*
X178362923Y-43393688D01*
X178335147Y-43339172D01*
X178338774Y-43293091D01*
X178357246Y-43236243D01*
X178390500Y-43026287D01*
X178390500Y-42813713D01*
X178390500Y-42813709D01*
X178357247Y-42603761D01*
X178357246Y-42603757D01*
X178291557Y-42401588D01*
X178195051Y-42212184D01*
X178195049Y-42212180D01*
X178070108Y-42040213D01*
X178070106Y-42040211D01*
X178070104Y-42040208D01*
X177919792Y-41889896D01*
X177919788Y-41889893D01*
X177919786Y-41889891D01*
X177747819Y-41764950D01*
X177747815Y-41764948D01*
X177558412Y-41668443D01*
X177356238Y-41602752D01*
X177146290Y-41569500D01*
X177146287Y-41569500D01*
X176933713Y-41569500D01*
X176933710Y-41569500D01*
X176723761Y-41602752D01*
X176521587Y-41668443D01*
X176332184Y-41764948D01*
X176332180Y-41764950D01*
X176160212Y-41889892D01*
X176160206Y-41889897D01*
X176014044Y-42036059D01*
X175959528Y-42063836D01*
X175899096Y-42054264D01*
X175855831Y-42011000D01*
X175845608Y-41976633D01*
X175844091Y-41962522D01*
X175844091Y-41962517D01*
X175817006Y-41889897D01*
X175793797Y-41827670D01*
X175707549Y-41712458D01*
X175707548Y-41712457D01*
X175707546Y-41712454D01*
X175642112Y-41663470D01*
X175592329Y-41626202D01*
X175457488Y-41575910D01*
X175457483Y-41575909D01*
X175457481Y-41575908D01*
X175457477Y-41575908D01*
X175426249Y-41572550D01*
X175397873Y-41569500D01*
X175397870Y-41569500D01*
X173602133Y-41569500D01*
X173602129Y-41569500D01*
X173602128Y-41569501D01*
X173594949Y-41570272D01*
X173542519Y-41575908D01*
X173542514Y-41575909D01*
X173407670Y-41626202D01*
X173292458Y-41712450D01*
X173292450Y-41712458D01*
X173206202Y-41827670D01*
X173155910Y-41962511D01*
X173155908Y-41962522D01*
X173149500Y-42022129D01*
X173149500Y-42220500D01*
X173130593Y-42278691D01*
X173081093Y-42314655D01*
X173050500Y-42319500D01*
X168656444Y-42319500D01*
X168598253Y-42300593D01*
X168586440Y-42290504D01*
X167595425Y-41299489D01*
X166443846Y-40147910D01*
X182023800Y-40147910D01*
X182023800Y-40390489D01*
X182055461Y-40630981D01*
X182055461Y-40630986D01*
X182118244Y-40865292D01*
X182118248Y-40865305D01*
X182211072Y-41089404D01*
X182211074Y-41089408D01*
X182211076Y-41089412D01*
X182332364Y-41299489D01*
X182332366Y-41299492D01*
X182480029Y-41491931D01*
X182480031Y-41491933D01*
X182480035Y-41491938D01*
X182651562Y-41663465D01*
X182651566Y-41663468D01*
X182651568Y-41663470D01*
X182715411Y-41712458D01*
X182844011Y-41811136D01*
X183054088Y-41932424D01*
X183278200Y-42025254D01*
X183512511Y-42088038D01*
X183753012Y-42119700D01*
X183753013Y-42119700D01*
X183995587Y-42119700D01*
X183995588Y-42119700D01*
X184236089Y-42088038D01*
X184470400Y-42025254D01*
X184694512Y-41932424D01*
X184904589Y-41811136D01*
X185097038Y-41663465D01*
X185268565Y-41491938D01*
X185416236Y-41299489D01*
X185537524Y-41089412D01*
X185630354Y-40865300D01*
X185693138Y-40630989D01*
X185724800Y-40390488D01*
X185724800Y-40147912D01*
X185693138Y-39907411D01*
X185630354Y-39673100D01*
X185537524Y-39448988D01*
X185416236Y-39238911D01*
X185386944Y-39200737D01*
X185268570Y-39046468D01*
X185268568Y-39046466D01*
X185268565Y-39046462D01*
X185097038Y-38874935D01*
X185097033Y-38874931D01*
X185097031Y-38874929D01*
X184904592Y-38727266D01*
X184904589Y-38727264D01*
X184694512Y-38605976D01*
X184694508Y-38605974D01*
X184694504Y-38605972D01*
X184470405Y-38513148D01*
X184470404Y-38513147D01*
X184470400Y-38513146D01*
X184236089Y-38450362D01*
X184236086Y-38450361D01*
X184236084Y-38450361D01*
X183995589Y-38418700D01*
X183995588Y-38418700D01*
X183753012Y-38418700D01*
X183753010Y-38418700D01*
X183512518Y-38450361D01*
X183512513Y-38450361D01*
X183278207Y-38513144D01*
X183278194Y-38513148D01*
X183054095Y-38605972D01*
X182844007Y-38727266D01*
X182651568Y-38874929D01*
X182480029Y-39046468D01*
X182332366Y-39238907D01*
X182211072Y-39448995D01*
X182118248Y-39673094D01*
X182118244Y-39673107D01*
X182055461Y-39907413D01*
X182055461Y-39907418D01*
X182023800Y-40147910D01*
X166443846Y-40147910D01*
X164527221Y-38231286D01*
X164527220Y-38231284D01*
X164415416Y-38119480D01*
X164328604Y-38069360D01*
X164294998Y-38049957D01*
X164254057Y-38004486D01*
X164245499Y-37964221D01*
X164245499Y-37787133D01*
X164245499Y-37787128D01*
X164239091Y-37727517D01*
X164204485Y-37634733D01*
X164188797Y-37592670D01*
X164102549Y-37477458D01*
X164102548Y-37477457D01*
X164102546Y-37477454D01*
X164102541Y-37477450D01*
X163987329Y-37391202D01*
X163852488Y-37340910D01*
X163852483Y-37340909D01*
X163852481Y-37340908D01*
X163852477Y-37340908D01*
X163821249Y-37337550D01*
X163792873Y-37334500D01*
X163792870Y-37334500D01*
X162167133Y-37334500D01*
X162167129Y-37334500D01*
X162167128Y-37334501D01*
X162159949Y-37335272D01*
X162107519Y-37340908D01*
X162107514Y-37340909D01*
X161972670Y-37391202D01*
X161857458Y-37477450D01*
X161857450Y-37477458D01*
X161771202Y-37592670D01*
X161720910Y-37727511D01*
X161720908Y-37727522D01*
X161714500Y-37787129D01*
X161714500Y-37901478D01*
X161695593Y-37959669D01*
X161646093Y-37995633D01*
X161584907Y-37995633D01*
X161535407Y-37959669D01*
X161527291Y-37946424D01*
X161522356Y-37936739D01*
X161522355Y-37936737D01*
X161413658Y-37787129D01*
X161405269Y-37775582D01*
X161264418Y-37634731D01*
X161103266Y-37517647D01*
X161103265Y-37517646D01*
X161103263Y-37517645D01*
X160925783Y-37427215D01*
X160736334Y-37365659D01*
X160539600Y-37334500D01*
X160539597Y-37334500D01*
X160340403Y-37334500D01*
X160340400Y-37334500D01*
X160143665Y-37365659D01*
X159954216Y-37427215D01*
X159776736Y-37517645D01*
X159615583Y-37634730D01*
X159474730Y-37775583D01*
X159357645Y-37936736D01*
X159267215Y-38114216D01*
X159264155Y-38123635D01*
X159228191Y-38173135D01*
X159170000Y-38192042D01*
X159111809Y-38173135D01*
X159075845Y-38123635D01*
X159074495Y-38119480D01*
X159072785Y-38114217D01*
X158982353Y-37936734D01*
X158865269Y-37775582D01*
X158724418Y-37634731D01*
X158563266Y-37517647D01*
X158563265Y-37517646D01*
X158563263Y-37517645D01*
X158385783Y-37427215D01*
X158196334Y-37365659D01*
X157999600Y-37334500D01*
X157999597Y-37334500D01*
X157800403Y-37334500D01*
X157800400Y-37334500D01*
X157603665Y-37365659D01*
X157414216Y-37427215D01*
X157236736Y-37517645D01*
X157075583Y-37634730D01*
X156934730Y-37775583D01*
X156817645Y-37936736D01*
X156727215Y-38114216D01*
X156724155Y-38123635D01*
X156688191Y-38173135D01*
X156630000Y-38192042D01*
X156571809Y-38173135D01*
X156535845Y-38123635D01*
X156534495Y-38119480D01*
X156532785Y-38114217D01*
X156442353Y-37936734D01*
X156325269Y-37775582D01*
X156184418Y-37634731D01*
X156023266Y-37517647D01*
X156023265Y-37517646D01*
X156023263Y-37517645D01*
X155845783Y-37427215D01*
X155656334Y-37365659D01*
X155459600Y-37334500D01*
X155459597Y-37334500D01*
X155260403Y-37334500D01*
X155260400Y-37334500D01*
X155063665Y-37365659D01*
X154874216Y-37427215D01*
X154696736Y-37517645D01*
X154535583Y-37634730D01*
X154394730Y-37775583D01*
X154277645Y-37936736D01*
X154187215Y-38114216D01*
X154184155Y-38123635D01*
X154148191Y-38173135D01*
X154090000Y-38192042D01*
X154031809Y-38173135D01*
X153995845Y-38123635D01*
X153994495Y-38119480D01*
X153992785Y-38114217D01*
X153902353Y-37936734D01*
X153785269Y-37775582D01*
X153644418Y-37634731D01*
X153483266Y-37517647D01*
X153483265Y-37517646D01*
X153483263Y-37517645D01*
X153305783Y-37427215D01*
X153116334Y-37365659D01*
X152919600Y-37334500D01*
X152919597Y-37334500D01*
X152720403Y-37334500D01*
X152720400Y-37334500D01*
X152523665Y-37365659D01*
X152334216Y-37427215D01*
X152156736Y-37517645D01*
X151995583Y-37634730D01*
X151854730Y-37775583D01*
X151737645Y-37936736D01*
X151647215Y-38114216D01*
X151644155Y-38123635D01*
X151608191Y-38173135D01*
X151550000Y-38192042D01*
X151491809Y-38173135D01*
X151455845Y-38123635D01*
X151454495Y-38119480D01*
X151452785Y-38114217D01*
X151362353Y-37936734D01*
X151245269Y-37775582D01*
X151104418Y-37634731D01*
X150943266Y-37517647D01*
X150943265Y-37517646D01*
X150943263Y-37517645D01*
X150765783Y-37427215D01*
X150576334Y-37365659D01*
X150379600Y-37334500D01*
X150379597Y-37334500D01*
X150180403Y-37334500D01*
X150180400Y-37334500D01*
X149983665Y-37365659D01*
X149794216Y-37427215D01*
X149616736Y-37517645D01*
X149455583Y-37634730D01*
X149314730Y-37775583D01*
X149197645Y-37936736D01*
X149107215Y-38114216D01*
X149104155Y-38123635D01*
X149068191Y-38173135D01*
X149010000Y-38192042D01*
X148951809Y-38173135D01*
X148915845Y-38123635D01*
X148914495Y-38119480D01*
X148912785Y-38114217D01*
X148822353Y-37936734D01*
X148705269Y-37775582D01*
X148564418Y-37634731D01*
X148403266Y-37517647D01*
X148403265Y-37517646D01*
X148403263Y-37517645D01*
X148225783Y-37427215D01*
X148036334Y-37365659D01*
X147839600Y-37334500D01*
X147839597Y-37334500D01*
X147640403Y-37334500D01*
X147640400Y-37334500D01*
X147443665Y-37365659D01*
X147254216Y-37427215D01*
X147076736Y-37517645D01*
X146915583Y-37634730D01*
X146774730Y-37775583D01*
X146657645Y-37936736D01*
X146567215Y-38114216D01*
X146564155Y-38123635D01*
X146528191Y-38173135D01*
X146470000Y-38192042D01*
X146411809Y-38173135D01*
X146375845Y-38123635D01*
X146374495Y-38119480D01*
X146372785Y-38114217D01*
X146282353Y-37936734D01*
X146165269Y-37775582D01*
X146024418Y-37634731D01*
X145863266Y-37517647D01*
X145863265Y-37517646D01*
X145863263Y-37517645D01*
X145685783Y-37427215D01*
X145496334Y-37365659D01*
X145299600Y-37334500D01*
X145299597Y-37334500D01*
X145100403Y-37334500D01*
X145100400Y-37334500D01*
X144903665Y-37365659D01*
X144714216Y-37427215D01*
X144536736Y-37517645D01*
X144375579Y-37634733D01*
X144286327Y-37723985D01*
X144231810Y-37751762D01*
X144171378Y-37742190D01*
X144146320Y-37723985D01*
X143591839Y-37169504D01*
X143564062Y-37114987D01*
X143573633Y-37054555D01*
X143616898Y-37011290D01*
X143661843Y-37000500D01*
X186900500Y-37000500D01*
X186958691Y-37019407D01*
X186994655Y-37068907D01*
X186999500Y-37099500D01*
X186999500Y-65900500D01*
X186980593Y-65958691D01*
X186931093Y-65994655D01*
X186900500Y-65999500D01*
X108099500Y-65999500D01*
X108041309Y-65980593D01*
X108005345Y-65931093D01*
X108000500Y-65900500D01*
X108000500Y-62212310D01*
X110023800Y-62212310D01*
X110023800Y-62454889D01*
X110055461Y-62695381D01*
X110055461Y-62695386D01*
X110080124Y-62787429D01*
X110115016Y-62917647D01*
X110118244Y-62929692D01*
X110118248Y-62929705D01*
X110211072Y-63153804D01*
X110211074Y-63153808D01*
X110211076Y-63153812D01*
X110316690Y-63336740D01*
X110332366Y-63363892D01*
X110480029Y-63556331D01*
X110480031Y-63556333D01*
X110480035Y-63556338D01*
X110651562Y-63727865D01*
X110651566Y-63727868D01*
X110651568Y-63727870D01*
X110844007Y-63875533D01*
X110844011Y-63875536D01*
X111054088Y-63996824D01*
X111278200Y-64089654D01*
X111512511Y-64152438D01*
X111753012Y-64184100D01*
X111753013Y-64184100D01*
X111995587Y-64184100D01*
X111995588Y-64184100D01*
X112236089Y-64152438D01*
X112470400Y-64089654D01*
X112694512Y-63996824D01*
X112904589Y-63875536D01*
X113097038Y-63727865D01*
X113268565Y-63556338D01*
X113416236Y-63363889D01*
X113537524Y-63153812D01*
X113630354Y-62929700D01*
X113693138Y-62695389D01*
X113724800Y-62454888D01*
X113724800Y-62212312D01*
X113693138Y-61971811D01*
X113630354Y-61737500D01*
X113537524Y-61513388D01*
X113416236Y-61303311D01*
X113413713Y-61300023D01*
X113268570Y-61110868D01*
X113268568Y-61110866D01*
X113268565Y-61110862D01*
X113097038Y-60939335D01*
X113097033Y-60939331D01*
X113097031Y-60939329D01*
X112904592Y-60791666D01*
X112904589Y-60791664D01*
X112694512Y-60670376D01*
X112694508Y-60670374D01*
X112694504Y-60670372D01*
X112470405Y-60577548D01*
X112470404Y-60577547D01*
X112470400Y-60577546D01*
X112236089Y-60514762D01*
X112236086Y-60514761D01*
X112236084Y-60514761D01*
X111995589Y-60483100D01*
X111995588Y-60483100D01*
X111753012Y-60483100D01*
X111753010Y-60483100D01*
X111512518Y-60514761D01*
X111512513Y-60514761D01*
X111278207Y-60577544D01*
X111278194Y-60577548D01*
X111054095Y-60670372D01*
X110844007Y-60791666D01*
X110651568Y-60939329D01*
X110480029Y-61110868D01*
X110332366Y-61303307D01*
X110211072Y-61513395D01*
X110118248Y-61737494D01*
X110118244Y-61737507D01*
X110055461Y-61971813D01*
X110055461Y-61971818D01*
X110023800Y-62212310D01*
X108000500Y-62212310D01*
X108000500Y-40147910D01*
X109928900Y-40147910D01*
X109928900Y-40390489D01*
X109960561Y-40630981D01*
X109960561Y-40630986D01*
X110023344Y-40865292D01*
X110023348Y-40865305D01*
X110116172Y-41089404D01*
X110116174Y-41089408D01*
X110116176Y-41089412D01*
X110237464Y-41299489D01*
X110237466Y-41299492D01*
X110385129Y-41491931D01*
X110385131Y-41491933D01*
X110385135Y-41491938D01*
X110556662Y-41663465D01*
X110556666Y-41663468D01*
X110556668Y-41663470D01*
X110620511Y-41712458D01*
X110749111Y-41811136D01*
X110959188Y-41932424D01*
X111183300Y-42025254D01*
X111417611Y-42088038D01*
X111658112Y-42119700D01*
X111658113Y-42119700D01*
X111900687Y-42119700D01*
X111900688Y-42119700D01*
X112141189Y-42088038D01*
X112375500Y-42025254D01*
X112599612Y-41932424D01*
X112809689Y-41811136D01*
X113002138Y-41663465D01*
X113173665Y-41491938D01*
X113321336Y-41299489D01*
X113442624Y-41089412D01*
X113535454Y-40865300D01*
X113598238Y-40630989D01*
X113629900Y-40390488D01*
X113629900Y-40147912D01*
X113598238Y-39907411D01*
X113535454Y-39673100D01*
X113442624Y-39448988D01*
X113321336Y-39238911D01*
X113292044Y-39200737D01*
X113173670Y-39046468D01*
X113173668Y-39046466D01*
X113173665Y-39046462D01*
X113002138Y-38874935D01*
X113002133Y-38874931D01*
X113002131Y-38874929D01*
X112809692Y-38727266D01*
X112809689Y-38727264D01*
X112599612Y-38605976D01*
X112599608Y-38605974D01*
X112599604Y-38605972D01*
X112375505Y-38513148D01*
X112375504Y-38513147D01*
X112375500Y-38513146D01*
X112141189Y-38450362D01*
X112141186Y-38450361D01*
X112141184Y-38450361D01*
X111900689Y-38418700D01*
X111900688Y-38418700D01*
X111658112Y-38418700D01*
X111658110Y-38418700D01*
X111417618Y-38450361D01*
X111417613Y-38450361D01*
X111183307Y-38513144D01*
X111183294Y-38513148D01*
X110959195Y-38605972D01*
X110749107Y-38727266D01*
X110556668Y-38874929D01*
X110385129Y-39046468D01*
X110237466Y-39238907D01*
X110116172Y-39448995D01*
X110023348Y-39673094D01*
X110023344Y-39673107D01*
X109960561Y-39907413D01*
X109960561Y-39907418D01*
X109928900Y-40147910D01*
X108000500Y-40147910D01*
X108000500Y-37099500D01*
X108019407Y-37041309D01*
X108068907Y-37005345D01*
X108099500Y-37000500D01*
X127931257Y-37000500D01*
X127989448Y-37019407D01*
G37*
%TD.AperFunction*%
%TA.AperFunction,Conductor*%
G36*
X158409848Y-62479007D02*
G01*
X158445812Y-62528507D01*
X158445812Y-62589693D01*
X158421660Y-62629104D01*
X158306232Y-62744531D01*
X158251716Y-62772308D01*
X158205637Y-62768682D01*
X158201778Y-62767428D01*
X158196334Y-62765659D01*
X157999600Y-62734500D01*
X157999597Y-62734500D01*
X157800403Y-62734500D01*
X157800400Y-62734500D01*
X157603665Y-62765659D01*
X157414216Y-62827215D01*
X157236736Y-62917645D01*
X157075583Y-63034730D01*
X156934730Y-63175583D01*
X156817645Y-63336736D01*
X156727215Y-63514216D01*
X156724155Y-63523635D01*
X156688191Y-63573135D01*
X156630000Y-63592042D01*
X156571809Y-63573135D01*
X156535845Y-63523635D01*
X156532785Y-63514217D01*
X156442353Y-63336734D01*
X156325269Y-63175582D01*
X156184418Y-63034731D01*
X156023266Y-62917647D01*
X156023265Y-62917646D01*
X156023263Y-62917645D01*
X155845783Y-62827215D01*
X155656334Y-62765659D01*
X155459600Y-62734500D01*
X155459597Y-62734500D01*
X155260403Y-62734500D01*
X155260400Y-62734500D01*
X155063665Y-62765659D01*
X154874216Y-62827215D01*
X154696736Y-62917645D01*
X154535583Y-63034730D01*
X154394730Y-63175583D01*
X154277645Y-63336736D01*
X154187215Y-63514216D01*
X154184155Y-63523635D01*
X154148191Y-63573135D01*
X154090000Y-63592042D01*
X154031809Y-63573135D01*
X153995845Y-63523635D01*
X153992785Y-63514217D01*
X153902353Y-63336734D01*
X153785269Y-63175582D01*
X153644418Y-63034731D01*
X153483266Y-62917647D01*
X153483265Y-62917646D01*
X153483263Y-62917645D01*
X153305783Y-62827215D01*
X153116334Y-62765659D01*
X152919600Y-62734500D01*
X152919597Y-62734500D01*
X152720403Y-62734500D01*
X152720400Y-62734500D01*
X152634387Y-62748123D01*
X152573955Y-62738552D01*
X152530690Y-62695287D01*
X152521119Y-62634855D01*
X152548897Y-62580338D01*
X152640140Y-62489096D01*
X152694657Y-62461319D01*
X152710143Y-62460100D01*
X158351657Y-62460100D01*
X158409848Y-62479007D01*
G37*
%TD.AperFunction*%
%TA.AperFunction,Conductor*%
G36*
X161922082Y-63061045D02*
G01*
X161937762Y-63061046D01*
X161950445Y-63070261D01*
X161965360Y-63075107D01*
X161974578Y-63087794D01*
X161987262Y-63097010D01*
X161992106Y-63111920D01*
X162001324Y-63124607D01*
X162001324Y-63140288D01*
X162006169Y-63155200D01*
X162001324Y-63170110D01*
X162001324Y-63185793D01*
X161987261Y-63213391D01*
X161897650Y-63336728D01*
X161897646Y-63336734D01*
X161807215Y-63514216D01*
X161804155Y-63523635D01*
X161768191Y-63573135D01*
X161710000Y-63592042D01*
X161651809Y-63573135D01*
X161615845Y-63523635D01*
X161612785Y-63514217D01*
X161522353Y-63336734D01*
X161432739Y-63213391D01*
X161413831Y-63155200D01*
X161432738Y-63097010D01*
X161482238Y-63061046D01*
X161512831Y-63056200D01*
X161907169Y-63056200D01*
X161922082Y-63061045D01*
G37*
%TD.AperFunction*%
%TA.AperFunction,Conductor*%
G36*
X176524548Y-63075107D02*
G01*
X176560512Y-63124607D01*
X176560512Y-63185793D01*
X176536361Y-63225204D01*
X176391061Y-63370504D01*
X176336544Y-63398281D01*
X176321057Y-63399500D01*
X164155002Y-63399500D01*
X164096811Y-63380593D01*
X164066794Y-63345448D01*
X164062356Y-63336740D01*
X164062354Y-63336736D01*
X164062353Y-63336734D01*
X163972739Y-63213391D01*
X163953831Y-63155200D01*
X163972738Y-63097010D01*
X164022238Y-63061046D01*
X164052831Y-63056200D01*
X176466357Y-63056200D01*
X176524548Y-63075107D01*
G37*
%TD.AperFunction*%
%TA.AperFunction,Conductor*%
G36*
X137986233Y-39855468D02*
G01*
X155389478Y-57258713D01*
X155389480Y-57258716D01*
X155501284Y-57370520D01*
X155501286Y-57370521D01*
X155501289Y-57370524D01*
X155501288Y-57370524D01*
X155588091Y-57420637D01*
X155588093Y-57420639D01*
X155588094Y-57420639D01*
X155610916Y-57433815D01*
X155638215Y-57449577D01*
X155790943Y-57490500D01*
X155949057Y-57490500D01*
X173163873Y-57490500D01*
X173222064Y-57509407D01*
X173258028Y-57558907D01*
X173258028Y-57620093D01*
X173252081Y-57634448D01*
X173248443Y-57641585D01*
X173182752Y-57843761D01*
X173149500Y-58053709D01*
X173149500Y-58266290D01*
X173182752Y-58476238D01*
X173248443Y-58678414D01*
X173252081Y-58685552D01*
X173261655Y-58745984D01*
X173233879Y-58800501D01*
X173179363Y-58828281D01*
X173163873Y-58829500D01*
X156159744Y-58829500D01*
X156101553Y-58810593D01*
X156089740Y-58800504D01*
X146799127Y-49509891D01*
X137308896Y-40019661D01*
X137281120Y-39965145D01*
X137290691Y-39904713D01*
X137333956Y-39861448D01*
X137394388Y-39851877D01*
X137480400Y-39865500D01*
X137480403Y-39865500D01*
X137679600Y-39865500D01*
X137839706Y-39840141D01*
X137876339Y-39834339D01*
X137885636Y-39831317D01*
X137946819Y-39831317D01*
X137986233Y-39855468D01*
G37*
%TD.AperFunction*%
%TA.AperFunction,Conductor*%
G36*
X140526232Y-39855467D02*
G01*
X155501284Y-54830520D01*
X155638216Y-54909577D01*
X155638218Y-54909577D01*
X155638219Y-54909578D01*
X155714579Y-54930039D01*
X155790940Y-54950500D01*
X155790942Y-54950501D01*
X155790943Y-54950501D01*
X155955121Y-54950501D01*
X155955137Y-54950500D01*
X173163873Y-54950500D01*
X173222064Y-54969407D01*
X173258028Y-55018907D01*
X173258028Y-55080093D01*
X173252081Y-55094448D01*
X173248443Y-55101585D01*
X173182752Y-55303761D01*
X173149500Y-55513709D01*
X173149500Y-55726290D01*
X173182752Y-55936238D01*
X173248443Y-56138414D01*
X173252081Y-56145552D01*
X173261655Y-56205984D01*
X173233879Y-56260501D01*
X173179363Y-56288281D01*
X173163873Y-56289500D01*
X156159743Y-56289500D01*
X156101552Y-56270593D01*
X156089739Y-56260504D01*
X139848897Y-40019662D01*
X139821120Y-39965145D01*
X139830691Y-39904713D01*
X139873956Y-39861448D01*
X139934388Y-39851877D01*
X140020400Y-39865500D01*
X140020403Y-39865500D01*
X140219600Y-39865500D01*
X140379706Y-39840141D01*
X140416339Y-39834339D01*
X140425636Y-39831317D01*
X140486819Y-39831317D01*
X140526232Y-39855467D01*
G37*
%TD.AperFunction*%
%TA.AperFunction,Conductor*%
G36*
X143066233Y-39855468D02*
G01*
X155389478Y-52178713D01*
X155389480Y-52178716D01*
X155501284Y-52290520D01*
X155501286Y-52290521D01*
X155501289Y-52290524D01*
X155501288Y-52290524D01*
X155588091Y-52340637D01*
X155588093Y-52340639D01*
X155588094Y-52340639D01*
X155610916Y-52353815D01*
X155638215Y-52369577D01*
X155790943Y-52410500D01*
X173163873Y-52410500D01*
X173222064Y-52429407D01*
X173258028Y-52478907D01*
X173258028Y-52540093D01*
X173252081Y-52554448D01*
X173248443Y-52561585D01*
X173182752Y-52763761D01*
X173149500Y-52973709D01*
X173149500Y-53186290D01*
X173182752Y-53396238D01*
X173248443Y-53598414D01*
X173252081Y-53605552D01*
X173261655Y-53665984D01*
X173233879Y-53720501D01*
X173179363Y-53748281D01*
X173163873Y-53749500D01*
X156159744Y-53749500D01*
X156101553Y-53730593D01*
X156089740Y-53720504D01*
X149339127Y-46969891D01*
X142388896Y-40019661D01*
X142361120Y-39965145D01*
X142370691Y-39904713D01*
X142413956Y-39861448D01*
X142474388Y-39851877D01*
X142560400Y-39865500D01*
X142560403Y-39865500D01*
X142759600Y-39865500D01*
X142919706Y-39840141D01*
X142956339Y-39834339D01*
X142965636Y-39831317D01*
X143026819Y-39831317D01*
X143066233Y-39855468D01*
G37*
%TD.AperFunction*%
%TA.AperFunction,Conductor*%
G36*
X159228189Y-39026863D02*
G01*
X159264154Y-39076362D01*
X159264155Y-39076366D01*
X159267213Y-39085780D01*
X159357645Y-39263262D01*
X159357647Y-39263266D01*
X159474731Y-39424418D01*
X159615582Y-39565269D01*
X159776734Y-39682353D01*
X159954217Y-39772785D01*
X160143661Y-39834339D01*
X160143662Y-39834339D01*
X160143665Y-39834340D01*
X160340400Y-39865500D01*
X160340403Y-39865500D01*
X160539600Y-39865500D01*
X160736334Y-39834340D01*
X160736335Y-39834339D01*
X160736339Y-39834339D01*
X160925783Y-39772785D01*
X161103266Y-39682353D01*
X161264418Y-39565269D01*
X161405269Y-39424418D01*
X161522353Y-39263266D01*
X161527288Y-39253579D01*
X161570548Y-39210313D01*
X161630979Y-39200737D01*
X161685498Y-39228510D01*
X161713280Y-39283024D01*
X161714500Y-39298518D01*
X161714500Y-39412866D01*
X161714501Y-39412870D01*
X161720908Y-39472480D01*
X161720909Y-39472485D01*
X161771202Y-39607329D01*
X161857450Y-39722541D01*
X161857454Y-39722546D01*
X161857457Y-39722548D01*
X161857458Y-39722549D01*
X161972670Y-39808797D01*
X162107511Y-39859089D01*
X162107512Y-39859089D01*
X162107517Y-39859091D01*
X162167127Y-39865500D01*
X163792872Y-39865499D01*
X163852483Y-39859091D01*
X163926949Y-39831317D01*
X163987329Y-39808797D01*
X163987329Y-39808796D01*
X163987331Y-39808796D01*
X164102546Y-39722546D01*
X164127176Y-39689643D01*
X164177183Y-39654391D01*
X164238362Y-39655263D01*
X164276432Y-39678967D01*
X167997984Y-43400520D01*
X168134916Y-43479577D01*
X168134918Y-43479577D01*
X168134919Y-43479578D01*
X168211279Y-43500039D01*
X168287640Y-43520500D01*
X168287642Y-43520501D01*
X168287643Y-43520501D01*
X168451821Y-43520501D01*
X168451837Y-43520500D01*
X173050501Y-43520500D01*
X173108692Y-43539407D01*
X173144656Y-43588907D01*
X173149501Y-43619500D01*
X173149501Y-43817870D01*
X173155908Y-43877480D01*
X173155909Y-43877485D01*
X173206202Y-44012329D01*
X173292450Y-44127541D01*
X173292454Y-44127546D01*
X173292457Y-44127548D01*
X173292458Y-44127549D01*
X173407670Y-44213797D01*
X173542511Y-44264089D01*
X173542512Y-44264089D01*
X173542517Y-44264091D01*
X173556637Y-44265609D01*
X173612473Y-44290629D01*
X173642939Y-44343689D01*
X173636399Y-44404524D01*
X173616058Y-44434045D01*
X173469897Y-44580206D01*
X173469892Y-44580212D01*
X173344950Y-44752180D01*
X173344948Y-44752184D01*
X173248443Y-44941587D01*
X173182752Y-45143761D01*
X173149500Y-45353709D01*
X173149500Y-45566290D01*
X173182752Y-45776238D01*
X173248443Y-45978412D01*
X173344948Y-46167815D01*
X173344950Y-46167819D01*
X173469891Y-46339786D01*
X173469893Y-46339788D01*
X173469896Y-46339792D01*
X173620208Y-46490104D01*
X173620211Y-46490106D01*
X173620213Y-46490108D01*
X173792180Y-46615049D01*
X173792184Y-46615051D01*
X173844662Y-46641790D01*
X173887927Y-46685055D01*
X173897498Y-46745487D01*
X173869720Y-46800004D01*
X173844662Y-46818210D01*
X173792184Y-46844948D01*
X173792180Y-46844950D01*
X173620213Y-46969891D01*
X173469891Y-47120213D01*
X173344950Y-47292180D01*
X173344948Y-47292184D01*
X173248443Y-47481587D01*
X173182752Y-47683761D01*
X173149500Y-47893709D01*
X173149500Y-48106290D01*
X173182752Y-48316238D01*
X173248443Y-48518412D01*
X173344948Y-48707815D01*
X173344950Y-48707819D01*
X173469891Y-48879786D01*
X173469893Y-48879788D01*
X173469896Y-48879792D01*
X173620208Y-49030104D01*
X173620211Y-49030106D01*
X173620213Y-49030108D01*
X173792180Y-49155049D01*
X173792184Y-49155051D01*
X173844662Y-49181790D01*
X173887927Y-49225055D01*
X173897498Y-49285487D01*
X173869720Y-49340004D01*
X173844662Y-49358210D01*
X173792184Y-49384948D01*
X173792180Y-49384950D01*
X173620213Y-49509891D01*
X173469891Y-49660213D01*
X173344950Y-49832180D01*
X173344948Y-49832184D01*
X173317811Y-49885445D01*
X173274546Y-49928710D01*
X173229601Y-49939500D01*
X155909544Y-49939500D01*
X155851353Y-49920593D01*
X155839540Y-49910504D01*
X150870623Y-44941587D01*
X145792757Y-39863722D01*
X145764981Y-39809206D01*
X145774552Y-39748774D01*
X145817814Y-39705511D01*
X145863266Y-39682353D01*
X146024418Y-39565269D01*
X146165269Y-39424418D01*
X146282353Y-39263266D01*
X146372785Y-39085783D01*
X146375845Y-39076366D01*
X146411808Y-39026866D01*
X146469998Y-39007957D01*
X146528189Y-39026863D01*
X146564154Y-39076362D01*
X146564155Y-39076366D01*
X146567213Y-39085780D01*
X146657645Y-39263262D01*
X146657647Y-39263266D01*
X146774731Y-39424418D01*
X146915582Y-39565269D01*
X147076734Y-39682353D01*
X147254217Y-39772785D01*
X147443661Y-39834339D01*
X147443662Y-39834339D01*
X147443665Y-39834340D01*
X147640400Y-39865500D01*
X147640403Y-39865500D01*
X147839600Y-39865500D01*
X148036334Y-39834340D01*
X148036335Y-39834339D01*
X148036339Y-39834339D01*
X148225783Y-39772785D01*
X148403266Y-39682353D01*
X148564418Y-39565269D01*
X148705269Y-39424418D01*
X148822353Y-39263266D01*
X148912785Y-39085783D01*
X148915845Y-39076366D01*
X148951808Y-39026866D01*
X149009998Y-39007957D01*
X149068189Y-39026863D01*
X149104154Y-39076362D01*
X149104155Y-39076366D01*
X149107213Y-39085780D01*
X149197645Y-39263262D01*
X149197647Y-39263266D01*
X149314731Y-39424418D01*
X149455582Y-39565269D01*
X149616734Y-39682353D01*
X149794217Y-39772785D01*
X149983661Y-39834339D01*
X149983662Y-39834339D01*
X149983665Y-39834340D01*
X150180400Y-39865500D01*
X150180403Y-39865500D01*
X150379600Y-39865500D01*
X150576334Y-39834340D01*
X150576335Y-39834339D01*
X150576339Y-39834339D01*
X150765783Y-39772785D01*
X150943266Y-39682353D01*
X151104418Y-39565269D01*
X151245269Y-39424418D01*
X151362353Y-39263266D01*
X151452785Y-39085783D01*
X151455845Y-39076366D01*
X151491808Y-39026866D01*
X151549998Y-39007957D01*
X151608189Y-39026863D01*
X151644154Y-39076362D01*
X151644155Y-39076366D01*
X151647213Y-39085780D01*
X151737645Y-39263262D01*
X151737647Y-39263266D01*
X151854731Y-39424418D01*
X151995582Y-39565269D01*
X152156734Y-39682353D01*
X152334217Y-39772785D01*
X152523661Y-39834339D01*
X152523662Y-39834339D01*
X152523665Y-39834340D01*
X152720400Y-39865500D01*
X152720403Y-39865500D01*
X152919600Y-39865500D01*
X153116334Y-39834340D01*
X153116335Y-39834339D01*
X153116339Y-39834339D01*
X153305783Y-39772785D01*
X153483266Y-39682353D01*
X153644418Y-39565269D01*
X153785269Y-39424418D01*
X153902353Y-39263266D01*
X153992785Y-39085783D01*
X153995845Y-39076366D01*
X154031808Y-39026866D01*
X154089998Y-39007957D01*
X154148189Y-39026863D01*
X154184154Y-39076362D01*
X154184155Y-39076366D01*
X154187213Y-39085780D01*
X154277645Y-39263262D01*
X154277647Y-39263266D01*
X154394731Y-39424418D01*
X154535582Y-39565269D01*
X154696734Y-39682353D01*
X154874217Y-39772785D01*
X155063661Y-39834339D01*
X155063662Y-39834339D01*
X155063665Y-39834340D01*
X155260400Y-39865500D01*
X155260403Y-39865500D01*
X155459600Y-39865500D01*
X155656334Y-39834340D01*
X155656335Y-39834339D01*
X155656339Y-39834339D01*
X155845783Y-39772785D01*
X156023266Y-39682353D01*
X156184418Y-39565269D01*
X156325269Y-39424418D01*
X156442353Y-39263266D01*
X156532785Y-39085783D01*
X156535845Y-39076366D01*
X156571808Y-39026866D01*
X156629998Y-39007957D01*
X156688189Y-39026863D01*
X156724154Y-39076362D01*
X156724155Y-39076366D01*
X156727213Y-39085780D01*
X156817645Y-39263262D01*
X156817647Y-39263266D01*
X156934731Y-39424418D01*
X157075582Y-39565269D01*
X157236734Y-39682353D01*
X157414217Y-39772785D01*
X157603661Y-39834339D01*
X157603662Y-39834339D01*
X157603665Y-39834340D01*
X157800400Y-39865500D01*
X157800403Y-39865500D01*
X157999600Y-39865500D01*
X158196334Y-39834340D01*
X158196335Y-39834339D01*
X158196339Y-39834339D01*
X158385783Y-39772785D01*
X158563266Y-39682353D01*
X158724418Y-39565269D01*
X158865269Y-39424418D01*
X158982353Y-39263266D01*
X159072785Y-39085783D01*
X159075845Y-39076366D01*
X159111808Y-39026866D01*
X159169998Y-39007957D01*
X159228189Y-39026863D01*
G37*
%TD.AperFunction*%
%TA.AperFunction,Conductor*%
G36*
X175799457Y-48609619D02*
G01*
X175814946Y-48612073D01*
X175826033Y-48623160D01*
X175840003Y-48630278D01*
X175858210Y-48655337D01*
X175884948Y-48707815D01*
X175884950Y-48707819D01*
X176009891Y-48879786D01*
X176009893Y-48879788D01*
X176009896Y-48879792D01*
X176160208Y-49030104D01*
X176160211Y-49030106D01*
X176160213Y-49030108D01*
X176332180Y-49155049D01*
X176332184Y-49155051D01*
X176384662Y-49181790D01*
X176427927Y-49225055D01*
X176437498Y-49285487D01*
X176409720Y-49340004D01*
X176384662Y-49358210D01*
X176332184Y-49384948D01*
X176332180Y-49384950D01*
X176160213Y-49509891D01*
X176009891Y-49660213D01*
X175884950Y-49832180D01*
X175884948Y-49832184D01*
X175858210Y-49884662D01*
X175814945Y-49927927D01*
X175754513Y-49937498D01*
X175699996Y-49909720D01*
X175681790Y-49884662D01*
X175655051Y-49832184D01*
X175655049Y-49832180D01*
X175530108Y-49660213D01*
X175530106Y-49660211D01*
X175530104Y-49660208D01*
X175379792Y-49509896D01*
X175379788Y-49509893D01*
X175379786Y-49509891D01*
X175207819Y-49384950D01*
X175207815Y-49384948D01*
X175176904Y-49369198D01*
X175155336Y-49358209D01*
X175112073Y-49314946D01*
X175102501Y-49254514D01*
X175130278Y-49199997D01*
X175155335Y-49181791D01*
X175207816Y-49155051D01*
X175379792Y-49030104D01*
X175530104Y-48879792D01*
X175655051Y-48707816D01*
X175681790Y-48655336D01*
X175692878Y-48644248D01*
X175699997Y-48630278D01*
X175713966Y-48623160D01*
X175725054Y-48612073D01*
X175740542Y-48609619D01*
X175754514Y-48602501D01*
X175770000Y-48604953D01*
X175785486Y-48602501D01*
X175799457Y-48609619D01*
G37*
%TD.AperFunction*%
%TA.AperFunction,Conductor*%
G36*
X175840003Y-46090278D02*
G01*
X175858210Y-46115337D01*
X175884948Y-46167815D01*
X175884950Y-46167819D01*
X176009891Y-46339786D01*
X176009893Y-46339788D01*
X176009896Y-46339792D01*
X176160208Y-46490104D01*
X176160211Y-46490106D01*
X176160213Y-46490108D01*
X176332180Y-46615049D01*
X176332184Y-46615051D01*
X176384662Y-46641790D01*
X176427927Y-46685055D01*
X176437498Y-46745487D01*
X176409720Y-46800004D01*
X176384662Y-46818210D01*
X176332184Y-46844948D01*
X176332180Y-46844950D01*
X176160213Y-46969891D01*
X176009891Y-47120213D01*
X175884950Y-47292180D01*
X175884948Y-47292184D01*
X175858210Y-47344662D01*
X175814945Y-47387927D01*
X175754513Y-47397498D01*
X175699996Y-47369720D01*
X175681790Y-47344662D01*
X175655051Y-47292184D01*
X175655049Y-47292180D01*
X175530108Y-47120213D01*
X175530106Y-47120211D01*
X175530104Y-47120208D01*
X175379792Y-46969896D01*
X175379788Y-46969893D01*
X175379786Y-46969891D01*
X175207819Y-46844950D01*
X175207815Y-46844948D01*
X175176904Y-46829198D01*
X175155336Y-46818209D01*
X175112073Y-46774946D01*
X175102501Y-46714514D01*
X175130278Y-46659997D01*
X175155335Y-46641791D01*
X175207816Y-46615051D01*
X175379792Y-46490104D01*
X175530104Y-46339792D01*
X175655051Y-46167816D01*
X175681790Y-46115336D01*
X175725054Y-46072073D01*
X175785486Y-46062501D01*
X175840003Y-46090278D01*
G37*
%TD.AperFunction*%
%TD*%
M02*
