M48
; DRILL file {KiCad 9.0.7} date 2026-06-25T22:39:37+0200
; FORMAT={-:-/ absolute / metric / decimal}
; #@! TF.CreationDate,2026-06-25T22:39:37+02:00
; #@! TF.GenerationSoftware,Kicad,Pcbnew,9.0.7
; #@! TF.FileFunction,Plated,1,2,PTH
FMAT,2
METRIC
; #@! TA.AperFunction,Plated,PTH,ComponentDrill
T1C0.750
%
G90
G05
T1
X150.95Y-82.0
X150.95Y-84.0
X150.963Y-44.274
X150.963Y-46.274
X150.968Y-89.49
X150.968Y-91.49
X150.982Y-51.932
X150.982Y-53.932
X150.982Y-74.511
X150.982Y-76.511
X151.0Y-59.5
X151.0Y-61.5
X151.0Y-67.0
X151.0Y-69.0
X151.0Y-100.231
X151.0Y-102.231
X151.0Y-107.5
X151.0Y-109.5
X151.0Y-115.0
X151.0Y-117.0
X161.0Y-91.5
X161.0Y-93.5
X161.0Y-95.5
M30
