%TF.GenerationSoftware,KiCad,Pcbnew,9.0.7*%
%TF.CreationDate,2026-06-25T22:39:31+02:00*%
%TF.ProjectId,vcc-board,7663632d-626f-4617-9264-2e6b69636164,rev?*%
%TF.SameCoordinates,Original*%
%TF.FileFunction,Copper,L2,Bot*%
%TF.FilePolarity,Positive*%
%FSLAX46Y46*%
G04 Gerber Fmt 4.6, Leading zero omitted, Abs format (unit mm)*
G04 Created by KiCad (PCBNEW 9.0.7) date 2026-06-25 22:39:31*
%MOMM*%
%LPD*%
G01*
G04 APERTURE LIST*
G04 Aperture macros list*
%AMRoundRect*
0 Rectangle with rounded corners*
0 $1 Rounding radius*
0 $2 $3 $4 $5 $6 $7 $8 $9 X,Y pos of 4 corners*
0 Add a 4 corners polygon primitive as box body*
4,1,4,$2,$3,$4,$5,$6,$7,$8,$9,$2,$3,0*
0 Add four circle primitives for the rounded corners*
1,1,$1+$1,$2,$3*
1,1,$1+$1,$4,$5*
1,1,$1+$1,$6,$7*
1,1,$1+$1,$8,$9*
0 Add four rect primitives between the rounded corners*
20,1,$1+$1,$2,$3,$4,$5,0*
20,1,$1+$1,$4,$5,$6,$7,0*
20,1,$1+$1,$6,$7,$8,$9,0*
20,1,$1+$1,$8,$9,$2,$3,0*%
G04 Aperture macros list end*
%TA.AperFunction,ComponentPad*%
%ADD10RoundRect,0.250000X-0.625000X0.350000X-0.625000X-0.350000X0.625000X-0.350000X0.625000X0.350000X0*%
%TD*%
%TA.AperFunction,ComponentPad*%
%ADD11O,1.750000X1.200000*%
%TD*%
%TA.AperFunction,Conductor*%
%ADD12C,0.200000*%
%TD*%
G04 APERTURE END LIST*
D10*
%TO.P,5V#3,1,Pin_1*%
%TO.N,Net-(J24-Pin_1)*%
X151000000Y-100231500D03*
D11*
%TO.P,5V#3,2,Pin_2*%
%TO.N,GND*%
X151000000Y-102231500D03*
%TD*%
D10*
%TO.P,5V#1,1,Pin_1*%
%TO.N,Net-(J24-Pin_1)*%
X151000000Y-115000000D03*
D11*
%TO.P,5V#1,2,Pin_2*%
%TO.N,GND*%
X151000000Y-117000000D03*
%TD*%
D10*
%TO.P,3.3V#1,1,Pin_1*%
%TO.N,Net-(J17-Pin_1)*%
X150968100Y-89490100D03*
D11*
%TO.P,3.3V#1,2,Pin_2*%
%TO.N,GND*%
X150968100Y-91490100D03*
%TD*%
D10*
%TO.P,3.3V#7,1,Pin_1*%
%TO.N,Net-(J17-Pin_1)*%
X150962500Y-44273900D03*
D11*
%TO.P,3.3V#7,2,Pin_2*%
%TO.N,GND*%
X150962500Y-46273900D03*
%TD*%
D10*
%TO.P,3.3V#2,1,Pin_1*%
%TO.N,Net-(J17-Pin_1)*%
X150950000Y-82000000D03*
D11*
%TO.P,3.3V#2,2,Pin_2*%
%TO.N,GND*%
X150950000Y-84000000D03*
%TD*%
D10*
%TO.P,3.3V#4,1,Pin_1*%
%TO.N,Net-(J17-Pin_1)*%
X151000000Y-67000000D03*
D11*
%TO.P,3.3V#4,2,Pin_2*%
%TO.N,GND*%
X151000000Y-69000000D03*
%TD*%
D10*
%TO.P,5V#2,1,Pin_1*%
%TO.N,Net-(J24-Pin_1)*%
X151000000Y-107500000D03*
D11*
%TO.P,5V#2,2,Pin_2*%
%TO.N,GND*%
X151000000Y-109500000D03*
%TD*%
D10*
%TO.P,B_VCC,1,Pin_1*%
%TO.N,Net-(J17-Pin_1)*%
X161000000Y-91500000D03*
D11*
%TO.P,B_VCC,2,Pin_2*%
%TO.N,Net-(J24-Pin_1)*%
X161000000Y-93500000D03*
%TO.P,B_VCC,3,Pin_3*%
%TO.N,GND*%
X161000000Y-95500000D03*
%TD*%
D10*
%TO.P,3.3V#6,1,Pin_1*%
%TO.N,Net-(J17-Pin_1)*%
X150981900Y-51931900D03*
D11*
%TO.P,3.3V#6,2,Pin_2*%
%TO.N,GND*%
X150981900Y-53931900D03*
%TD*%
D10*
%TO.P,3.3V#3,1,Pin_1*%
%TO.N,Net-(J17-Pin_1)*%
X150981900Y-74510600D03*
D11*
%TO.P,3.3V#3,2,Pin_2*%
%TO.N,GND*%
X150981900Y-76510600D03*
%TD*%
D10*
%TO.P,3.3V#5,1,Pin_1*%
%TO.N,Net-(J17-Pin_1)*%
X151000000Y-59500000D03*
D11*
%TO.P,3.3V#5,2,Pin_2*%
%TO.N,GND*%
X151000000Y-61500000D03*
%TD*%
D12*
%TO.N,Net-(J17-Pin_1)*%
X150950000Y-82000000D02*
X152143300Y-83193300D01*
X149779100Y-50729100D02*
X150981900Y-51931900D01*
X149775600Y-53138200D02*
X149775600Y-58275600D01*
X150962500Y-44273900D02*
X149779100Y-45457300D01*
X152143300Y-83193300D02*
X152143300Y-88314900D01*
X149779100Y-45457300D02*
X149779100Y-50729100D01*
X150981900Y-74510600D02*
X149740400Y-75752100D01*
X149810000Y-65810000D02*
X151000000Y-67000000D01*
X149740400Y-75752100D02*
X149740400Y-80790400D01*
X150981900Y-74510600D02*
X149819900Y-73348600D01*
X151000000Y-59500000D02*
X149810000Y-60690000D01*
X149819900Y-68180100D02*
X151000000Y-67000000D01*
X149775600Y-58275600D02*
X151000000Y-59500000D01*
X150981900Y-51931900D02*
X149775600Y-53138200D01*
X149819900Y-73348600D02*
X149819900Y-68180100D01*
X152978000Y-91500000D02*
X150968100Y-89490100D01*
X152143300Y-88314900D02*
X150968100Y-89490100D01*
X149740400Y-80790400D02*
X150950000Y-82000000D01*
X149810000Y-60690000D02*
X149810000Y-65810000D01*
X161000000Y-91500000D02*
X152978000Y-91500000D01*
%TO.N,Net-(J24-Pin_1)*%
X149757600Y-113757600D02*
X149757600Y-108742400D01*
X149757600Y-108742400D02*
X151000000Y-107500000D01*
X151000000Y-107500000D02*
X149757600Y-106257600D01*
X149757600Y-106257600D02*
X149757600Y-101473900D01*
X161000000Y-93500000D02*
X157731500Y-93500000D01*
X151000000Y-115000000D02*
X149757600Y-113757600D01*
X157731500Y-93500000D02*
X151000000Y-100231500D01*
X149757600Y-101473900D02*
X151000000Y-100231500D01*
%TD*%
%TA.AperFunction,Conductor*%
%TO.N,GND*%
G36*
X164942539Y-41020185D02*
G01*
X164988294Y-41072989D01*
X164999500Y-41124500D01*
X164999500Y-119875500D01*
X164979815Y-119942539D01*
X164927011Y-119988294D01*
X164875500Y-119999500D01*
X146124500Y-119999500D01*
X146057461Y-119979815D01*
X146011706Y-119927011D01*
X146000500Y-119875500D01*
X146000500Y-80869454D01*
X149139898Y-80869454D01*
X149180823Y-81022185D01*
X149201090Y-81057288D01*
X149201089Y-81057288D01*
X149201090Y-81057289D01*
X149259875Y-81159109D01*
X149259881Y-81159117D01*
X149378749Y-81277985D01*
X149378755Y-81277990D01*
X149544537Y-81443772D01*
X149578022Y-81505095D01*
X149580214Y-81544055D01*
X149574500Y-81599981D01*
X149574500Y-82400001D01*
X149574501Y-82400019D01*
X149585000Y-82502796D01*
X149585001Y-82502799D01*
X149640185Y-82669331D01*
X149640187Y-82669336D01*
X149675069Y-82725888D01*
X149732288Y-82818656D01*
X149856344Y-82942712D01*
X149920981Y-82982580D01*
X149967705Y-83034526D01*
X149978928Y-83103489D01*
X149951085Y-83167571D01*
X149943566Y-83175799D01*
X149835964Y-83283401D01*
X149734195Y-83423475D01*
X149655591Y-83577744D01*
X149602085Y-83742415D01*
X149600884Y-83749999D01*
X149600885Y-83750000D01*
X150669670Y-83750000D01*
X150649925Y-83769745D01*
X150600556Y-83855255D01*
X150575000Y-83950630D01*
X150575000Y-84049370D01*
X150600556Y-84144745D01*
X150649925Y-84230255D01*
X150669670Y-84250000D01*
X149600885Y-84250000D01*
X149602085Y-84257584D01*
X149655591Y-84422255D01*
X149734195Y-84576524D01*
X149835967Y-84716602D01*
X149958397Y-84839032D01*
X150098475Y-84940804D01*
X150252742Y-85019408D01*
X150417415Y-85072914D01*
X150588429Y-85100000D01*
X150700000Y-85100000D01*
X150700000Y-84280330D01*
X150719745Y-84300075D01*
X150805255Y-84349444D01*
X150900630Y-84375000D01*
X150999370Y-84375000D01*
X151094745Y-84349444D01*
X151180255Y-84300075D01*
X151200000Y-84280330D01*
X151200000Y-85100000D01*
X151311570Y-85100000D01*
X151399401Y-85086088D01*
X151468694Y-85095042D01*
X151522147Y-85140038D01*
X151542787Y-85206789D01*
X151542800Y-85208561D01*
X151542800Y-88014802D01*
X151523115Y-88081841D01*
X151506481Y-88102483D01*
X151255682Y-88353281D01*
X151194359Y-88386766D01*
X151168001Y-88389600D01*
X150293098Y-88389600D01*
X150293080Y-88389601D01*
X150190303Y-88400100D01*
X150190300Y-88400101D01*
X150023768Y-88455285D01*
X150023763Y-88455287D01*
X149874442Y-88547389D01*
X149750389Y-88671442D01*
X149658287Y-88820763D01*
X149658286Y-88820766D01*
X149603101Y-88987303D01*
X149603101Y-88987304D01*
X149603100Y-88987304D01*
X149592600Y-89090083D01*
X149592600Y-89890101D01*
X149592601Y-89890119D01*
X149603100Y-89992896D01*
X149603101Y-89992899D01*
X149606328Y-90002636D01*
X149658286Y-90159434D01*
X149750388Y-90308756D01*
X149874444Y-90432812D01*
X149939081Y-90472680D01*
X149985805Y-90524626D01*
X149997028Y-90593589D01*
X149969185Y-90657671D01*
X149961666Y-90665899D01*
X149854064Y-90773501D01*
X149752295Y-90913575D01*
X149673691Y-91067844D01*
X149620185Y-91232515D01*
X149618984Y-91240099D01*
X149618985Y-91240100D01*
X150687770Y-91240100D01*
X150668025Y-91259845D01*
X150618656Y-91345355D01*
X150593100Y-91440730D01*
X150593100Y-91539470D01*
X150618656Y-91634845D01*
X150668025Y-91720355D01*
X150687770Y-91740100D01*
X149618985Y-91740100D01*
X149620185Y-91747684D01*
X149673691Y-91912355D01*
X149752295Y-92066624D01*
X149854067Y-92206702D01*
X149976497Y-92329132D01*
X150116575Y-92430904D01*
X150270842Y-92509508D01*
X150435515Y-92563014D01*
X150606529Y-92590100D01*
X150718100Y-92590100D01*
X150718100Y-91770430D01*
X150737845Y-91790175D01*
X150823355Y-91839544D01*
X150918730Y-91865100D01*
X151017470Y-91865100D01*
X151112845Y-91839544D01*
X151198355Y-91790175D01*
X151218100Y-91770430D01*
X151218100Y-92590100D01*
X151329671Y-92590100D01*
X151500684Y-92563014D01*
X151665357Y-92509508D01*
X151819624Y-92430904D01*
X151959702Y-92329132D01*
X152082132Y-92206702D01*
X152183904Y-92066624D01*
X152262508Y-91912356D01*
X152268304Y-91894518D01*
X152269857Y-91892245D01*
X152270054Y-91889499D01*
X152289460Y-91863575D01*
X152307740Y-91836841D01*
X152310276Y-91835768D01*
X152311926Y-91833566D01*
X152342264Y-91822250D01*
X152372098Y-91809642D01*
X152374810Y-91810111D01*
X152377390Y-91809149D01*
X152409032Y-91816032D01*
X152440945Y-91821554D01*
X152443796Y-91823595D01*
X152445663Y-91824001D01*
X152473917Y-91845152D01*
X152493139Y-91864374D01*
X152493149Y-91864385D01*
X152497479Y-91868715D01*
X152497480Y-91868716D01*
X152609284Y-91980520D01*
X152647870Y-92002797D01*
X152696095Y-92030639D01*
X152696097Y-92030641D01*
X152734151Y-92052611D01*
X152746215Y-92059577D01*
X152898943Y-92100501D01*
X152898946Y-92100501D01*
X153064653Y-92100501D01*
X153064669Y-92100500D01*
X159579092Y-92100500D01*
X159646131Y-92120185D01*
X159684636Y-92164271D01*
X159686395Y-92163187D01*
X159690185Y-92169331D01*
X159690186Y-92169334D01*
X159782288Y-92318656D01*
X159906344Y-92442712D01*
X159970543Y-92482310D01*
X160017268Y-92534258D01*
X160028489Y-92603221D01*
X160000646Y-92667303D01*
X159993128Y-92675530D01*
X159885585Y-92783073D01*
X159838133Y-92848386D01*
X159782803Y-92891051D01*
X159737815Y-92899500D01*
X157818170Y-92899500D01*
X157818154Y-92899499D01*
X157810558Y-92899499D01*
X157652443Y-92899499D01*
X157576079Y-92919961D01*
X157499714Y-92940423D01*
X157499709Y-92940426D01*
X157362790Y-93019475D01*
X157362782Y-93019481D01*
X151287582Y-99094681D01*
X151226259Y-99128166D01*
X151199901Y-99131000D01*
X150324998Y-99131000D01*
X150324980Y-99131001D01*
X150222203Y-99141500D01*
X150222200Y-99141501D01*
X150055668Y-99196685D01*
X150055663Y-99196687D01*
X149906342Y-99288789D01*
X149782289Y-99412842D01*
X149690187Y-99562163D01*
X149690186Y-99562166D01*
X149635001Y-99728703D01*
X149635001Y-99728704D01*
X149635000Y-99728704D01*
X149624500Y-99831483D01*
X149624500Y-100631501D01*
X149624502Y-100631522D01*
X149630214Y-100687445D01*
X149617443Y-100756138D01*
X149594537Y-100787726D01*
X149388886Y-100993378D01*
X149277081Y-101105182D01*
X149277080Y-101105184D01*
X149237227Y-101174212D01*
X149198023Y-101242115D01*
X149157099Y-101394843D01*
X149157099Y-101394845D01*
X149157099Y-101562946D01*
X149157100Y-101562959D01*
X149157100Y-106170930D01*
X149157099Y-106170948D01*
X149157099Y-106336654D01*
X149157098Y-106336654D01*
X149198023Y-106489385D01*
X149226958Y-106539500D01*
X149226959Y-106539504D01*
X149226960Y-106539504D01*
X149277079Y-106626314D01*
X149277081Y-106626317D01*
X149395949Y-106745185D01*
X149395955Y-106745190D01*
X149594537Y-106943772D01*
X149628022Y-107005095D01*
X149630214Y-107044055D01*
X149624500Y-107099981D01*
X149624500Y-107900001D01*
X149624502Y-107900022D01*
X149630214Y-107955945D01*
X149617443Y-108024638D01*
X149594537Y-108056226D01*
X149388886Y-108261878D01*
X149277081Y-108373682D01*
X149277080Y-108373684D01*
X149237227Y-108442712D01*
X149198023Y-108510615D01*
X149157099Y-108663343D01*
X149157099Y-108663345D01*
X149157099Y-108831446D01*
X149157100Y-108831459D01*
X149157100Y-113670930D01*
X149157099Y-113670948D01*
X149157099Y-113836654D01*
X149157098Y-113836654D01*
X149198023Y-113989385D01*
X149226958Y-114039500D01*
X149226959Y-114039504D01*
X149226960Y-114039504D01*
X149277079Y-114126314D01*
X149277081Y-114126317D01*
X149395949Y-114245185D01*
X149395955Y-114245190D01*
X149594537Y-114443772D01*
X149628022Y-114505095D01*
X149630214Y-114544055D01*
X149624500Y-114599981D01*
X149624500Y-115400001D01*
X149624501Y-115400019D01*
X149635000Y-115502796D01*
X149635001Y-115502799D01*
X149690185Y-115669331D01*
X149690186Y-115669334D01*
X149782288Y-115818656D01*
X149906344Y-115942712D01*
X149970981Y-115982580D01*
X150017705Y-116034526D01*
X150028928Y-116103489D01*
X150001085Y-116167571D01*
X149993566Y-116175799D01*
X149885964Y-116283401D01*
X149784195Y-116423475D01*
X149705591Y-116577744D01*
X149652085Y-116742415D01*
X149650884Y-116749999D01*
X149650885Y-116750000D01*
X150719670Y-116750000D01*
X150699925Y-116769745D01*
X150650556Y-116855255D01*
X150625000Y-116950630D01*
X150625000Y-117049370D01*
X150650556Y-117144745D01*
X150699925Y-117230255D01*
X150719670Y-117250000D01*
X149650885Y-117250000D01*
X149652085Y-117257584D01*
X149705591Y-117422255D01*
X149784195Y-117576524D01*
X149885967Y-117716602D01*
X150008397Y-117839032D01*
X150148475Y-117940804D01*
X150302742Y-118019408D01*
X150467415Y-118072914D01*
X150638429Y-118100000D01*
X150750000Y-118100000D01*
X150750000Y-117280330D01*
X150769745Y-117300075D01*
X150855255Y-117349444D01*
X150950630Y-117375000D01*
X151049370Y-117375000D01*
X151144745Y-117349444D01*
X151230255Y-117300075D01*
X151250000Y-117280330D01*
X151250000Y-118100000D01*
X151361571Y-118100000D01*
X151532584Y-118072914D01*
X151697257Y-118019408D01*
X151851524Y-117940804D01*
X151991602Y-117839032D01*
X152114032Y-117716602D01*
X152215804Y-117576524D01*
X152294408Y-117422255D01*
X152347914Y-117257584D01*
X152349115Y-117250000D01*
X151280330Y-117250000D01*
X151300075Y-117230255D01*
X151349444Y-117144745D01*
X151375000Y-117049370D01*
X151375000Y-116950630D01*
X151349444Y-116855255D01*
X151300075Y-116769745D01*
X151280330Y-116750000D01*
X152349115Y-116750000D01*
X152349115Y-116749999D01*
X152347914Y-116742415D01*
X152294408Y-116577744D01*
X152215804Y-116423475D01*
X152140794Y-116320231D01*
X152071042Y-116245311D01*
X159408800Y-116245311D01*
X159408800Y-116487888D01*
X159440461Y-116728385D01*
X159503247Y-116962704D01*
X159578651Y-117144745D01*
X159596076Y-117186812D01*
X159717364Y-117396889D01*
X159717366Y-117396892D01*
X159717367Y-117396893D01*
X159865033Y-117589336D01*
X159865039Y-117589343D01*
X160036556Y-117760860D01*
X160036562Y-117760865D01*
X160229011Y-117908536D01*
X160439088Y-118029824D01*
X160663200Y-118122654D01*
X160897511Y-118185438D01*
X161077886Y-118209184D01*
X161138011Y-118217100D01*
X161138012Y-118217100D01*
X161380589Y-118217100D01*
X161428688Y-118210767D01*
X161621089Y-118185438D01*
X161855400Y-118122654D01*
X162079512Y-118029824D01*
X162289589Y-117908536D01*
X162482038Y-117760865D01*
X162653565Y-117589338D01*
X162801236Y-117396889D01*
X162922524Y-117186812D01*
X163015354Y-116962700D01*
X163078138Y-116728389D01*
X163109800Y-116487888D01*
X163109800Y-116245312D01*
X163078138Y-116004811D01*
X163015354Y-115770500D01*
X162922524Y-115546388D01*
X162801236Y-115336311D01*
X162653565Y-115143862D01*
X162653560Y-115143856D01*
X162482043Y-114972339D01*
X162482036Y-114972333D01*
X162289593Y-114824667D01*
X162289592Y-114824666D01*
X162289589Y-114824664D01*
X162079512Y-114703376D01*
X162079505Y-114703373D01*
X161855404Y-114610547D01*
X161621085Y-114547761D01*
X161380589Y-114516100D01*
X161380588Y-114516100D01*
X161138012Y-114516100D01*
X161138011Y-114516100D01*
X160897514Y-114547761D01*
X160663195Y-114610547D01*
X160439094Y-114703373D01*
X160439085Y-114703377D01*
X160229006Y-114824667D01*
X160036563Y-114972333D01*
X160036556Y-114972339D01*
X159865039Y-115143856D01*
X159865033Y-115143863D01*
X159717367Y-115336306D01*
X159596077Y-115546385D01*
X159596073Y-115546394D01*
X159503247Y-115770495D01*
X159440461Y-116004814D01*
X159408800Y-116245311D01*
X152071042Y-116245311D01*
X152003359Y-116172613D01*
X151988668Y-116143264D01*
X151972949Y-116114476D01*
X151973112Y-116112186D01*
X151972085Y-116110133D01*
X151975592Y-116077506D01*
X151977933Y-116044784D01*
X151979308Y-116042946D01*
X151979554Y-116040664D01*
X152000146Y-116015111D01*
X152019805Y-115988851D01*
X152023136Y-115986583D01*
X152023396Y-115986261D01*
X152023814Y-115986121D01*
X152028995Y-115982594D01*
X152093656Y-115942712D01*
X152217712Y-115818656D01*
X152309814Y-115669334D01*
X152364999Y-115502797D01*
X152375500Y-115400009D01*
X152375499Y-114599992D01*
X152364999Y-114497203D01*
X152309814Y-114330666D01*
X152217712Y-114181344D01*
X152093656Y-114057288D01*
X151944334Y-113965186D01*
X151777797Y-113910001D01*
X151777795Y-113910000D01*
X151675016Y-113899500D01*
X151675009Y-113899500D01*
X150800097Y-113899500D01*
X150733058Y-113879815D01*
X150712416Y-113863181D01*
X150394419Y-113545184D01*
X150360934Y-113483861D01*
X150358100Y-113457503D01*
X150358100Y-110700785D01*
X150377785Y-110633746D01*
X150430589Y-110587991D01*
X150499747Y-110578047D01*
X150501498Y-110578312D01*
X150638429Y-110600000D01*
X150750000Y-110600000D01*
X150750000Y-109780330D01*
X150769745Y-109800075D01*
X150855255Y-109849444D01*
X150950630Y-109875000D01*
X151049370Y-109875000D01*
X151144745Y-109849444D01*
X151230255Y-109800075D01*
X151250000Y-109780330D01*
X151250000Y-110600000D01*
X151361571Y-110600000D01*
X151532584Y-110572914D01*
X151697257Y-110519408D01*
X151851524Y-110440804D01*
X151991602Y-110339032D01*
X152114032Y-110216602D01*
X152215804Y-110076524D01*
X152294408Y-109922255D01*
X152347914Y-109757584D01*
X152349115Y-109750000D01*
X151280330Y-109750000D01*
X151300075Y-109730255D01*
X151349444Y-109644745D01*
X151375000Y-109549370D01*
X151375000Y-109450630D01*
X151349444Y-109355255D01*
X151300075Y-109269745D01*
X151280330Y-109250000D01*
X152349115Y-109250000D01*
X152349115Y-109249999D01*
X152347914Y-109242415D01*
X152294408Y-109077744D01*
X152215804Y-108923475D01*
X152114032Y-108783397D01*
X152006434Y-108675799D01*
X151972949Y-108614476D01*
X151977933Y-108544784D01*
X152019805Y-108488851D01*
X152028995Y-108482594D01*
X152093656Y-108442712D01*
X152217712Y-108318656D01*
X152309814Y-108169334D01*
X152364999Y-108002797D01*
X152375500Y-107900009D01*
X152375499Y-107099992D01*
X152364999Y-106997203D01*
X152309814Y-106830666D01*
X152217712Y-106681344D01*
X152093656Y-106557288D01*
X151944334Y-106465186D01*
X151777797Y-106410001D01*
X151777795Y-106410000D01*
X151675016Y-106399500D01*
X151675009Y-106399500D01*
X150800097Y-106399500D01*
X150733058Y-106379815D01*
X150712416Y-106363181D01*
X150394419Y-106045184D01*
X150360934Y-105983861D01*
X150358100Y-105957503D01*
X150358100Y-103432285D01*
X150377785Y-103365246D01*
X150430589Y-103319491D01*
X150499747Y-103309547D01*
X150501498Y-103309812D01*
X150638429Y-103331500D01*
X150750000Y-103331500D01*
X150750000Y-102511830D01*
X150769745Y-102531575D01*
X150855255Y-102580944D01*
X150950630Y-102606500D01*
X151049370Y-102606500D01*
X151144745Y-102580944D01*
X151230255Y-102531575D01*
X151250000Y-102511830D01*
X151250000Y-103331500D01*
X151361571Y-103331500D01*
X151532584Y-103304414D01*
X151697257Y-103250908D01*
X151851524Y-103172304D01*
X151991602Y-103070532D01*
X152114032Y-102948102D01*
X152215804Y-102808024D01*
X152294408Y-102653755D01*
X152347914Y-102489084D01*
X152349115Y-102481500D01*
X151280330Y-102481500D01*
X151300075Y-102461755D01*
X151349444Y-102376245D01*
X151375000Y-102280870D01*
X151375000Y-102182130D01*
X151349444Y-102086755D01*
X151300075Y-102001245D01*
X151280330Y-101981500D01*
X152349115Y-101981500D01*
X152349115Y-101981499D01*
X152347914Y-101973915D01*
X152294408Y-101809244D01*
X152215804Y-101654975D01*
X152114032Y-101514897D01*
X152006434Y-101407299D01*
X151972949Y-101345976D01*
X151977933Y-101276284D01*
X152019805Y-101220351D01*
X152028995Y-101214094D01*
X152093656Y-101174212D01*
X152217712Y-101050156D01*
X152309814Y-100900834D01*
X152364999Y-100734297D01*
X152375500Y-100631509D01*
X152375499Y-99831492D01*
X152369785Y-99775553D01*
X152382555Y-99706860D01*
X152405459Y-99675274D01*
X157943917Y-94136819D01*
X158005240Y-94103334D01*
X158031598Y-94100500D01*
X159737815Y-94100500D01*
X159804854Y-94120185D01*
X159838131Y-94151612D01*
X159885586Y-94216928D01*
X160008072Y-94339414D01*
X160091449Y-94399991D01*
X160134114Y-94455322D01*
X160140093Y-94524935D01*
X160107487Y-94586730D01*
X160091448Y-94600627D01*
X160008404Y-94660961D01*
X160008399Y-94660965D01*
X159885967Y-94783397D01*
X159784195Y-94923475D01*
X159705591Y-95077744D01*
X159652085Y-95242415D01*
X159650884Y-95249999D01*
X159650885Y-95250000D01*
X160719670Y-95250000D01*
X160699925Y-95269745D01*
X160650556Y-95355255D01*
X160625000Y-95450630D01*
X160625000Y-95549370D01*
X160650556Y-95644745D01*
X160699925Y-95730255D01*
X160719670Y-95750000D01*
X159650885Y-95750000D01*
X159652085Y-95757584D01*
X159705591Y-95922255D01*
X159784195Y-96076524D01*
X159885967Y-96216602D01*
X160008397Y-96339032D01*
X160148475Y-96440804D01*
X160302742Y-96519408D01*
X160467415Y-96572914D01*
X160638429Y-96600000D01*
X160750000Y-96600000D01*
X160750000Y-95780330D01*
X160769745Y-95800075D01*
X160855255Y-95849444D01*
X160950630Y-95875000D01*
X161049370Y-95875000D01*
X161144745Y-95849444D01*
X161230255Y-95800075D01*
X161250000Y-95780330D01*
X161250000Y-96600000D01*
X161361571Y-96600000D01*
X161532584Y-96572914D01*
X161697257Y-96519408D01*
X161851524Y-96440804D01*
X161991602Y-96339032D01*
X162114032Y-96216602D01*
X162215804Y-96076524D01*
X162294408Y-95922255D01*
X162347914Y-95757584D01*
X162349115Y-95750000D01*
X161280330Y-95750000D01*
X161300075Y-95730255D01*
X161349444Y-95644745D01*
X161375000Y-95549370D01*
X161375000Y-95450630D01*
X161349444Y-95355255D01*
X161300075Y-95269745D01*
X161280330Y-95250000D01*
X162349115Y-95250000D01*
X162349115Y-95249999D01*
X162347914Y-95242415D01*
X162294408Y-95077744D01*
X162215804Y-94923475D01*
X162114032Y-94783397D01*
X161991602Y-94660967D01*
X161908551Y-94600628D01*
X161865885Y-94545298D01*
X161859906Y-94475685D01*
X161892511Y-94413889D01*
X161908551Y-94399991D01*
X161991928Y-94339414D01*
X162114414Y-94216928D01*
X162216232Y-94076788D01*
X162294873Y-93922445D01*
X162348402Y-93757701D01*
X162375500Y-93586611D01*
X162375500Y-93413389D01*
X162348402Y-93242299D01*
X162294873Y-93077555D01*
X162216232Y-92923212D01*
X162114414Y-92783072D01*
X162006872Y-92675530D01*
X161973387Y-92614207D01*
X161978371Y-92544515D01*
X162020243Y-92488582D01*
X162029457Y-92482310D01*
X162093656Y-92442712D01*
X162217712Y-92318656D01*
X162309814Y-92169334D01*
X162364999Y-92002797D01*
X162375500Y-91900009D01*
X162375499Y-91099992D01*
X162364999Y-90997203D01*
X162309814Y-90830666D01*
X162217712Y-90681344D01*
X162093656Y-90557288D01*
X161944334Y-90465186D01*
X161777797Y-90410001D01*
X161777795Y-90410000D01*
X161675010Y-90399500D01*
X160324998Y-90399500D01*
X160324981Y-90399501D01*
X160222203Y-90410000D01*
X160222200Y-90410001D01*
X160055668Y-90465185D01*
X160055663Y-90465187D01*
X159906342Y-90557289D01*
X159782289Y-90681342D01*
X159782288Y-90681344D01*
X159725446Y-90773501D01*
X159686395Y-90836813D01*
X159684600Y-90835706D01*
X159645313Y-90880337D01*
X159579092Y-90899500D01*
X153278097Y-90899500D01*
X153211058Y-90879815D01*
X153190416Y-90863181D01*
X152373562Y-90046327D01*
X152340077Y-89985004D01*
X152337885Y-89946046D01*
X152343600Y-89890109D01*
X152343599Y-89090092D01*
X152337885Y-89034154D01*
X152350655Y-88965462D01*
X152373558Y-88933875D01*
X152623820Y-88683616D01*
X152702877Y-88546684D01*
X152743801Y-88393957D01*
X152743801Y-88235842D01*
X152743801Y-88228247D01*
X152743800Y-88228229D01*
X152743800Y-83282359D01*
X152743801Y-83282346D01*
X152743801Y-83114245D01*
X152743801Y-83114243D01*
X152702877Y-82961515D01*
X152633791Y-82841855D01*
X152623820Y-82824584D01*
X152512016Y-82712780D01*
X152512013Y-82712778D01*
X152355462Y-82556227D01*
X152321977Y-82494904D01*
X152319785Y-82455946D01*
X152325500Y-82400009D01*
X152325499Y-81599992D01*
X152314999Y-81497203D01*
X152259814Y-81330666D01*
X152167712Y-81181344D01*
X152043656Y-81057288D01*
X151894334Y-80965186D01*
X151727797Y-80910001D01*
X151727795Y-80910000D01*
X151625016Y-80899500D01*
X151625009Y-80899500D01*
X150750098Y-80899500D01*
X150683059Y-80879815D01*
X150662417Y-80863181D01*
X150377219Y-80577983D01*
X150343734Y-80516660D01*
X150340900Y-80490302D01*
X150340900Y-77711527D01*
X150360585Y-77644488D01*
X150413389Y-77598733D01*
X150482547Y-77588789D01*
X150484299Y-77589054D01*
X150620330Y-77610600D01*
X150731900Y-77610600D01*
X150731900Y-76790930D01*
X150751645Y-76810675D01*
X150837155Y-76860044D01*
X150932530Y-76885600D01*
X151031270Y-76885600D01*
X151126645Y-76860044D01*
X151212155Y-76810675D01*
X151231900Y-76790930D01*
X151231900Y-77610600D01*
X151343471Y-77610600D01*
X151514484Y-77583514D01*
X151679157Y-77530008D01*
X151833424Y-77451404D01*
X151973502Y-77349632D01*
X152095932Y-77227202D01*
X152197704Y-77087124D01*
X152276308Y-76932855D01*
X152329814Y-76768184D01*
X152331015Y-76760600D01*
X151262230Y-76760600D01*
X151281975Y-76740855D01*
X151331344Y-76655345D01*
X151356900Y-76559970D01*
X151356900Y-76461230D01*
X151331344Y-76365855D01*
X151281975Y-76280345D01*
X151262230Y-76260600D01*
X152331015Y-76260600D01*
X152331015Y-76260599D01*
X152329814Y-76253015D01*
X152276308Y-76088344D01*
X152197704Y-75934075D01*
X152095932Y-75793997D01*
X151988334Y-75686399D01*
X151954849Y-75625076D01*
X151959833Y-75555384D01*
X152001705Y-75499451D01*
X152010895Y-75493194D01*
X152075556Y-75453312D01*
X152199612Y-75329256D01*
X152291714Y-75179934D01*
X152346899Y-75013397D01*
X152357400Y-74910609D01*
X152357399Y-74110592D01*
X152346899Y-74007803D01*
X152291714Y-73841266D01*
X152199612Y-73691944D01*
X152075556Y-73567888D01*
X151926234Y-73475786D01*
X151759697Y-73420601D01*
X151759695Y-73420600D01*
X151656916Y-73410100D01*
X151656909Y-73410100D01*
X150781997Y-73410100D01*
X150714958Y-73390415D01*
X150694316Y-73373781D01*
X150456719Y-73136184D01*
X150423234Y-73074861D01*
X150420400Y-73048503D01*
X150420400Y-70210652D01*
X150440085Y-70143613D01*
X150492889Y-70097858D01*
X150562047Y-70087914D01*
X150563799Y-70088179D01*
X150638430Y-70100000D01*
X150750000Y-70100000D01*
X150750000Y-69280330D01*
X150769745Y-69300075D01*
X150855255Y-69349444D01*
X150950630Y-69375000D01*
X151049370Y-69375000D01*
X151144745Y-69349444D01*
X151230255Y-69300075D01*
X151250000Y-69280330D01*
X151250000Y-70100000D01*
X151361571Y-70100000D01*
X151532584Y-70072914D01*
X151697257Y-70019408D01*
X151851524Y-69940804D01*
X151991602Y-69839032D01*
X152114032Y-69716602D01*
X152215804Y-69576524D01*
X152294408Y-69422255D01*
X152347914Y-69257584D01*
X152349115Y-69250000D01*
X151280330Y-69250000D01*
X151300075Y-69230255D01*
X151349444Y-69144745D01*
X151375000Y-69049370D01*
X151375000Y-68950630D01*
X151349444Y-68855255D01*
X151300075Y-68769745D01*
X151280330Y-68750000D01*
X152349115Y-68750000D01*
X152349115Y-68749999D01*
X152347914Y-68742415D01*
X152294408Y-68577744D01*
X152215804Y-68423475D01*
X152114032Y-68283397D01*
X152006434Y-68175799D01*
X151972949Y-68114476D01*
X151977933Y-68044784D01*
X152019805Y-67988851D01*
X152028995Y-67982594D01*
X152093656Y-67942712D01*
X152217712Y-67818656D01*
X152309814Y-67669334D01*
X152364999Y-67502797D01*
X152375500Y-67400009D01*
X152375499Y-66599992D01*
X152364999Y-66497203D01*
X152309814Y-66330666D01*
X152217712Y-66181344D01*
X152093656Y-66057288D01*
X151944334Y-65965186D01*
X151777797Y-65910001D01*
X151777795Y-65910000D01*
X151675016Y-65899500D01*
X151675009Y-65899500D01*
X150800097Y-65899500D01*
X150733058Y-65879815D01*
X150712416Y-65863181D01*
X150446819Y-65597584D01*
X150413334Y-65536261D01*
X150410500Y-65509903D01*
X150410500Y-62709084D01*
X150430185Y-62642045D01*
X150482989Y-62596290D01*
X150552147Y-62586346D01*
X150553899Y-62586611D01*
X150638430Y-62600000D01*
X150750000Y-62600000D01*
X150750000Y-61780330D01*
X150769745Y-61800075D01*
X150855255Y-61849444D01*
X150950630Y-61875000D01*
X151049370Y-61875000D01*
X151144745Y-61849444D01*
X151230255Y-61800075D01*
X151250000Y-61780330D01*
X151250000Y-62600000D01*
X151361571Y-62600000D01*
X151532584Y-62572914D01*
X151697257Y-62519408D01*
X151851524Y-62440804D01*
X151991602Y-62339032D01*
X152114032Y-62216602D01*
X152215804Y-62076524D01*
X152294408Y-61922255D01*
X152347914Y-61757584D01*
X152349115Y-61750000D01*
X151280330Y-61750000D01*
X151300075Y-61730255D01*
X151349444Y-61644745D01*
X151375000Y-61549370D01*
X151375000Y-61450630D01*
X151349444Y-61355255D01*
X151300075Y-61269745D01*
X151280330Y-61250000D01*
X152349115Y-61250000D01*
X152349115Y-61249999D01*
X152347914Y-61242415D01*
X152294408Y-61077744D01*
X152215804Y-60923475D01*
X152114032Y-60783397D01*
X152006434Y-60675799D01*
X151972949Y-60614476D01*
X151977933Y-60544784D01*
X152019805Y-60488851D01*
X152028995Y-60482594D01*
X152093656Y-60442712D01*
X152217712Y-60318656D01*
X152309814Y-60169334D01*
X152364999Y-60002797D01*
X152375500Y-59900009D01*
X152375499Y-59099992D01*
X152364999Y-58997203D01*
X152309814Y-58830666D01*
X152217712Y-58681344D01*
X152093656Y-58557288D01*
X151944334Y-58465186D01*
X151777797Y-58410001D01*
X151777795Y-58410000D01*
X151675016Y-58399500D01*
X151675009Y-58399500D01*
X150800097Y-58399500D01*
X150733058Y-58379815D01*
X150712416Y-58363181D01*
X150412419Y-58063184D01*
X150378934Y-58001861D01*
X150376100Y-57975503D01*
X150376100Y-55138402D01*
X150395785Y-55071363D01*
X150448589Y-55025608D01*
X150517747Y-55015664D01*
X150519499Y-55015929D01*
X150620330Y-55031900D01*
X150731900Y-55031900D01*
X150731900Y-54212230D01*
X150751645Y-54231975D01*
X150837155Y-54281344D01*
X150932530Y-54306900D01*
X151031270Y-54306900D01*
X151126645Y-54281344D01*
X151212155Y-54231975D01*
X151231900Y-54212230D01*
X151231900Y-55031900D01*
X151343471Y-55031900D01*
X151514484Y-55004814D01*
X151679157Y-54951308D01*
X151833424Y-54872704D01*
X151973502Y-54770932D01*
X152095932Y-54648502D01*
X152197704Y-54508424D01*
X152276308Y-54354155D01*
X152329814Y-54189484D01*
X152331015Y-54181900D01*
X151262230Y-54181900D01*
X151281975Y-54162155D01*
X151331344Y-54076645D01*
X151356900Y-53981270D01*
X151356900Y-53882530D01*
X151331344Y-53787155D01*
X151281975Y-53701645D01*
X151262230Y-53681900D01*
X152331015Y-53681900D01*
X152331015Y-53681899D01*
X152329814Y-53674315D01*
X152276308Y-53509644D01*
X152197704Y-53355375D01*
X152095932Y-53215297D01*
X151988334Y-53107699D01*
X151954849Y-53046376D01*
X151959833Y-52976684D01*
X152001705Y-52920751D01*
X152010895Y-52914494D01*
X152075556Y-52874612D01*
X152199612Y-52750556D01*
X152291714Y-52601234D01*
X152346899Y-52434697D01*
X152357400Y-52331909D01*
X152357399Y-51531892D01*
X152346899Y-51429103D01*
X152291714Y-51262566D01*
X152199612Y-51113244D01*
X152075556Y-50989188D01*
X151926234Y-50897086D01*
X151759697Y-50841901D01*
X151759695Y-50841900D01*
X151656916Y-50831400D01*
X151656909Y-50831400D01*
X150781997Y-50831400D01*
X150714958Y-50811715D01*
X150694316Y-50795081D01*
X150415919Y-50516684D01*
X150382434Y-50455361D01*
X150379600Y-50429003D01*
X150379600Y-47484029D01*
X150399285Y-47416990D01*
X150452089Y-47371235D01*
X150521247Y-47361291D01*
X150522999Y-47361556D01*
X150600930Y-47373900D01*
X150712500Y-47373900D01*
X150712500Y-46554230D01*
X150732245Y-46573975D01*
X150817755Y-46623344D01*
X150913130Y-46648900D01*
X151011870Y-46648900D01*
X151107245Y-46623344D01*
X151192755Y-46573975D01*
X151212500Y-46554230D01*
X151212500Y-47373900D01*
X151324071Y-47373900D01*
X151495084Y-47346814D01*
X151659757Y-47293308D01*
X151814024Y-47214704D01*
X151954102Y-47112932D01*
X152076532Y-46990502D01*
X152178304Y-46850424D01*
X152256908Y-46696155D01*
X152310414Y-46531484D01*
X152311615Y-46523900D01*
X151242830Y-46523900D01*
X151262575Y-46504155D01*
X151311944Y-46418645D01*
X151337500Y-46323270D01*
X151337500Y-46224530D01*
X151311944Y-46129155D01*
X151262575Y-46043645D01*
X151242830Y-46023900D01*
X152311615Y-46023900D01*
X152311615Y-46023899D01*
X152310414Y-46016315D01*
X152256908Y-45851644D01*
X152178304Y-45697375D01*
X152076532Y-45557297D01*
X151968934Y-45449699D01*
X151935449Y-45388376D01*
X151940433Y-45318684D01*
X151982305Y-45262751D01*
X151991495Y-45256494D01*
X152056156Y-45216612D01*
X152180212Y-45092556D01*
X152272314Y-44943234D01*
X152327499Y-44776697D01*
X152338000Y-44673909D01*
X152338000Y-44629311D01*
X159290700Y-44629311D01*
X159290700Y-44871888D01*
X159322361Y-45112385D01*
X159385147Y-45346704D01*
X159467842Y-45546346D01*
X159477976Y-45570812D01*
X159599264Y-45780889D01*
X159599266Y-45780892D01*
X159599267Y-45780893D01*
X159746933Y-45973336D01*
X159746939Y-45973343D01*
X159918456Y-46144860D01*
X159918462Y-46144865D01*
X160110911Y-46292536D01*
X160320988Y-46413824D01*
X160545100Y-46506654D01*
X160779411Y-46569438D01*
X160959786Y-46593184D01*
X161019911Y-46601100D01*
X161019912Y-46601100D01*
X161262489Y-46601100D01*
X161310588Y-46594767D01*
X161502989Y-46569438D01*
X161737300Y-46506654D01*
X161961412Y-46413824D01*
X162171489Y-46292536D01*
X162363938Y-46144865D01*
X162535465Y-45973338D01*
X162683136Y-45780889D01*
X162804424Y-45570812D01*
X162897254Y-45346700D01*
X162960038Y-45112389D01*
X162991700Y-44871888D01*
X162991700Y-44629312D01*
X162960038Y-44388811D01*
X162897254Y-44154500D01*
X162804424Y-43930388D01*
X162683136Y-43720311D01*
X162622218Y-43640921D01*
X162535466Y-43527863D01*
X162535460Y-43527856D01*
X162363943Y-43356339D01*
X162363936Y-43356333D01*
X162171493Y-43208667D01*
X162171492Y-43208666D01*
X162171489Y-43208664D01*
X161961412Y-43087376D01*
X161961405Y-43087373D01*
X161737304Y-42994547D01*
X161502985Y-42931761D01*
X161262489Y-42900100D01*
X161262488Y-42900100D01*
X161019912Y-42900100D01*
X161019911Y-42900100D01*
X160779414Y-42931761D01*
X160545095Y-42994547D01*
X160320994Y-43087373D01*
X160320985Y-43087377D01*
X160110906Y-43208667D01*
X159918463Y-43356333D01*
X159918456Y-43356339D01*
X159746939Y-43527856D01*
X159746933Y-43527863D01*
X159599267Y-43720306D01*
X159477977Y-43930385D01*
X159477973Y-43930394D01*
X159385147Y-44154495D01*
X159322361Y-44388814D01*
X159290700Y-44629311D01*
X152338000Y-44629311D01*
X152337999Y-43873892D01*
X152327499Y-43771103D01*
X152272314Y-43604566D01*
X152180212Y-43455244D01*
X152056156Y-43331188D01*
X151906834Y-43239086D01*
X151740297Y-43183901D01*
X151740295Y-43183900D01*
X151637510Y-43173400D01*
X150287498Y-43173400D01*
X150287481Y-43173401D01*
X150184703Y-43183900D01*
X150184700Y-43183901D01*
X150018168Y-43239085D01*
X150018163Y-43239087D01*
X149868842Y-43331189D01*
X149744789Y-43455242D01*
X149652687Y-43604563D01*
X149652686Y-43604566D01*
X149597501Y-43771103D01*
X149597501Y-43771104D01*
X149597500Y-43771104D01*
X149587000Y-43873883D01*
X149587000Y-44673901D01*
X149587002Y-44673922D01*
X149592714Y-44729845D01*
X149592356Y-44731766D01*
X149593040Y-44733599D01*
X149585996Y-44765976D01*
X149579943Y-44798538D01*
X149578471Y-44800566D01*
X149578188Y-44801872D01*
X149557038Y-44830126D01*
X149410386Y-44976778D01*
X149410385Y-44976778D01*
X149410384Y-44976779D01*
X149298581Y-45088582D01*
X149298579Y-45088585D01*
X149284836Y-45112389D01*
X149263468Y-45149400D01*
X149219523Y-45225515D01*
X149178599Y-45378243D01*
X149178599Y-45378245D01*
X149178599Y-45546346D01*
X149178600Y-45546359D01*
X149178600Y-50642430D01*
X149178599Y-50642448D01*
X149178599Y-50808154D01*
X149178598Y-50808154D01*
X149219523Y-50960885D01*
X149235864Y-50989188D01*
X149235863Y-50989188D01*
X149235864Y-50989189D01*
X149298575Y-51097809D01*
X149298581Y-51097817D01*
X149417449Y-51216685D01*
X149417455Y-51216690D01*
X149576437Y-51375672D01*
X149609922Y-51436995D01*
X149612114Y-51475955D01*
X149606400Y-51531881D01*
X149606400Y-52331901D01*
X149606402Y-52331922D01*
X149612114Y-52387845D01*
X149611756Y-52389766D01*
X149612440Y-52391599D01*
X149605396Y-52423976D01*
X149599343Y-52456538D01*
X149597871Y-52458566D01*
X149597588Y-52459872D01*
X149576437Y-52488126D01*
X149406886Y-52657678D01*
X149295081Y-52769482D01*
X149295079Y-52769485D01*
X149244961Y-52856294D01*
X149244959Y-52856296D01*
X149216025Y-52906409D01*
X149216024Y-52906410D01*
X149200144Y-52965672D01*
X149175099Y-53059143D01*
X149175099Y-53059145D01*
X149175099Y-53227246D01*
X149175100Y-53227259D01*
X149175100Y-58188930D01*
X149175099Y-58188948D01*
X149175099Y-58354654D01*
X149175098Y-58354654D01*
X149216022Y-58507383D01*
X149244834Y-58557286D01*
X149244836Y-58557289D01*
X149295079Y-58644314D01*
X149295081Y-58644317D01*
X149413949Y-58763185D01*
X149413955Y-58763190D01*
X149594537Y-58943772D01*
X149628022Y-59005095D01*
X149630214Y-59044055D01*
X149624500Y-59099981D01*
X149624500Y-59900001D01*
X149624502Y-59900022D01*
X149630214Y-59955945D01*
X149629856Y-59957866D01*
X149630540Y-59959699D01*
X149623496Y-59992076D01*
X149617443Y-60024638D01*
X149615971Y-60026666D01*
X149615688Y-60027972D01*
X149594538Y-60056226D01*
X149441286Y-60209478D01*
X149441285Y-60209478D01*
X149441284Y-60209479D01*
X149329479Y-60321284D01*
X149307478Y-60359392D01*
X149298179Y-60375500D01*
X149250423Y-60458215D01*
X149209499Y-60610943D01*
X149209499Y-60610945D01*
X149209499Y-60779046D01*
X149209500Y-60779059D01*
X149209500Y-65723330D01*
X149209499Y-65723348D01*
X149209499Y-65889054D01*
X149209498Y-65889054D01*
X149209499Y-65889057D01*
X149250423Y-66041785D01*
X149250424Y-66041787D01*
X149250423Y-66041787D01*
X149259374Y-66057289D01*
X149259375Y-66057290D01*
X149329477Y-66178712D01*
X149329481Y-66178717D01*
X149448349Y-66297585D01*
X149448355Y-66297590D01*
X149594537Y-66443772D01*
X149628022Y-66505095D01*
X149630214Y-66544055D01*
X149624500Y-66599981D01*
X149624500Y-67400001D01*
X149624502Y-67400022D01*
X149630214Y-67455945D01*
X149629856Y-67457866D01*
X149630540Y-67459699D01*
X149623497Y-67492073D01*
X149617443Y-67524638D01*
X149615971Y-67526667D01*
X149615688Y-67527971D01*
X149594538Y-67556226D01*
X149451186Y-67699578D01*
X149451185Y-67699578D01*
X149451184Y-67699579D01*
X149339381Y-67811382D01*
X149339380Y-67811384D01*
X149335182Y-67818656D01*
X149260323Y-67948315D01*
X149219399Y-68101043D01*
X149219399Y-68101045D01*
X149219399Y-68269146D01*
X149219400Y-68269159D01*
X149219400Y-73261930D01*
X149219399Y-73261948D01*
X149219399Y-73427654D01*
X149219398Y-73427654D01*
X149260323Y-73580385D01*
X149289258Y-73630500D01*
X149289259Y-73630504D01*
X149289260Y-73630504D01*
X149339379Y-73717314D01*
X149339381Y-73717317D01*
X149458249Y-73836185D01*
X149458255Y-73836190D01*
X149576437Y-73954372D01*
X149609922Y-74015695D01*
X149612114Y-74054655D01*
X149606400Y-74110581D01*
X149606400Y-74910601D01*
X149606402Y-74910622D01*
X149612114Y-74966545D01*
X149599343Y-75035238D01*
X149576437Y-75066826D01*
X149371686Y-75271578D01*
X149259881Y-75383382D01*
X149259880Y-75383384D01*
X149219508Y-75453312D01*
X149209761Y-75470194D01*
X149209759Y-75470196D01*
X149180825Y-75520309D01*
X149180824Y-75520310D01*
X149171426Y-75555384D01*
X149139899Y-75673043D01*
X149139899Y-75831157D01*
X149139899Y-75831159D01*
X149139900Y-75841153D01*
X149139900Y-80703730D01*
X149139899Y-80703748D01*
X149139899Y-80869454D01*
X149139898Y-80869454D01*
X146000500Y-80869454D01*
X146000500Y-41124500D01*
X146020185Y-41057461D01*
X146072989Y-41011706D01*
X146124500Y-41000500D01*
X164875500Y-41000500D01*
X164942539Y-41020185D01*
G37*
%TD.AperFunction*%
%TD*%
M02*
