%TF.GenerationSoftware,KiCad,Pcbnew,9.0.7*%
%TF.CreationDate,2026-06-25T22:39:31+02:00*%
%TF.ProjectId,vcc-board,7663632d-626f-4617-9264-2e6b69636164,rev?*%
%TF.SameCoordinates,Original*%
%TF.FileFunction,Legend,Top*%
%TF.FilePolarity,Positive*%
%FSLAX46Y46*%
G04 Gerber Fmt 4.6, Leading zero omitted, Abs format (unit mm)*
G04 Created by KiCad (PCBNEW 9.0.7) date 2026-06-25 22:39:31*
%MOMM*%
%LPD*%
G01*
G04 APERTURE LIST*
%ADD10C,0.100000*%
%ADD11C,0.150000*%
%ADD12C,0.120000*%
G04 APERTURE END LIST*
D10*
X161152447Y-64338972D02*
X162152447Y-64005639D01*
X162152447Y-64005639D02*
X161152447Y-63672306D01*
X162057208Y-62767544D02*
X162104828Y-62815163D01*
X162104828Y-62815163D02*
X162152447Y-62958020D01*
X162152447Y-62958020D02*
X162152447Y-63053258D01*
X162152447Y-63053258D02*
X162104828Y-63196115D01*
X162104828Y-63196115D02*
X162009589Y-63291353D01*
X162009589Y-63291353D02*
X161914351Y-63338972D01*
X161914351Y-63338972D02*
X161723875Y-63386591D01*
X161723875Y-63386591D02*
X161581018Y-63386591D01*
X161581018Y-63386591D02*
X161390542Y-63338972D01*
X161390542Y-63338972D02*
X161295304Y-63291353D01*
X161295304Y-63291353D02*
X161200066Y-63196115D01*
X161200066Y-63196115D02*
X161152447Y-63053258D01*
X161152447Y-63053258D02*
X161152447Y-62958020D01*
X161152447Y-62958020D02*
X161200066Y-62815163D01*
X161200066Y-62815163D02*
X161247685Y-62767544D01*
X162057208Y-61767544D02*
X162104828Y-61815163D01*
X162104828Y-61815163D02*
X162152447Y-61958020D01*
X162152447Y-61958020D02*
X162152447Y-62053258D01*
X162152447Y-62053258D02*
X162104828Y-62196115D01*
X162104828Y-62196115D02*
X162009589Y-62291353D01*
X162009589Y-62291353D02*
X161914351Y-62338972D01*
X161914351Y-62338972D02*
X161723875Y-62386591D01*
X161723875Y-62386591D02*
X161581018Y-62386591D01*
X161581018Y-62386591D02*
X161390542Y-62338972D01*
X161390542Y-62338972D02*
X161295304Y-62291353D01*
X161295304Y-62291353D02*
X161200066Y-62196115D01*
X161200066Y-62196115D02*
X161152447Y-62053258D01*
X161152447Y-62053258D02*
X161152447Y-61958020D01*
X161152447Y-61958020D02*
X161200066Y-61815163D01*
X161200066Y-61815163D02*
X161247685Y-61767544D01*
X161628637Y-60243734D02*
X161676256Y-60100877D01*
X161676256Y-60100877D02*
X161723875Y-60053258D01*
X161723875Y-60053258D02*
X161819113Y-60005639D01*
X161819113Y-60005639D02*
X161961970Y-60005639D01*
X161961970Y-60005639D02*
X162057208Y-60053258D01*
X162057208Y-60053258D02*
X162104828Y-60100877D01*
X162104828Y-60100877D02*
X162152447Y-60196115D01*
X162152447Y-60196115D02*
X162152447Y-60577067D01*
X162152447Y-60577067D02*
X161152447Y-60577067D01*
X161152447Y-60577067D02*
X161152447Y-60243734D01*
X161152447Y-60243734D02*
X161200066Y-60148496D01*
X161200066Y-60148496D02*
X161247685Y-60100877D01*
X161247685Y-60100877D02*
X161342923Y-60053258D01*
X161342923Y-60053258D02*
X161438161Y-60053258D01*
X161438161Y-60053258D02*
X161533399Y-60100877D01*
X161533399Y-60100877D02*
X161581018Y-60148496D01*
X161581018Y-60148496D02*
X161628637Y-60243734D01*
X161628637Y-60243734D02*
X161628637Y-60577067D01*
X162152447Y-59434210D02*
X162104828Y-59529448D01*
X162104828Y-59529448D02*
X162057208Y-59577067D01*
X162057208Y-59577067D02*
X161961970Y-59624686D01*
X161961970Y-59624686D02*
X161676256Y-59624686D01*
X161676256Y-59624686D02*
X161581018Y-59577067D01*
X161581018Y-59577067D02*
X161533399Y-59529448D01*
X161533399Y-59529448D02*
X161485780Y-59434210D01*
X161485780Y-59434210D02*
X161485780Y-59291353D01*
X161485780Y-59291353D02*
X161533399Y-59196115D01*
X161533399Y-59196115D02*
X161581018Y-59148496D01*
X161581018Y-59148496D02*
X161676256Y-59100877D01*
X161676256Y-59100877D02*
X161961970Y-59100877D01*
X161961970Y-59100877D02*
X162057208Y-59148496D01*
X162057208Y-59148496D02*
X162104828Y-59196115D01*
X162104828Y-59196115D02*
X162152447Y-59291353D01*
X162152447Y-59291353D02*
X162152447Y-59434210D01*
X162152447Y-58672305D02*
X161485780Y-58672305D01*
X161676256Y-58672305D02*
X161581018Y-58624686D01*
X161581018Y-58624686D02*
X161533399Y-58577067D01*
X161533399Y-58577067D02*
X161485780Y-58481829D01*
X161485780Y-58481829D02*
X161485780Y-58386591D01*
X162152447Y-57624686D02*
X161628637Y-57624686D01*
X161628637Y-57624686D02*
X161533399Y-57672305D01*
X161533399Y-57672305D02*
X161485780Y-57767543D01*
X161485780Y-57767543D02*
X161485780Y-57958019D01*
X161485780Y-57958019D02*
X161533399Y-58053257D01*
X162104828Y-57624686D02*
X162152447Y-57719924D01*
X162152447Y-57719924D02*
X162152447Y-57958019D01*
X162152447Y-57958019D02*
X162104828Y-58053257D01*
X162104828Y-58053257D02*
X162009589Y-58100876D01*
X162009589Y-58100876D02*
X161914351Y-58100876D01*
X161914351Y-58100876D02*
X161819113Y-58053257D01*
X161819113Y-58053257D02*
X161771494Y-57958019D01*
X161771494Y-57958019D02*
X161771494Y-57719924D01*
X161771494Y-57719924D02*
X161723875Y-57624686D01*
X162152447Y-56719924D02*
X161152447Y-56719924D01*
X162104828Y-56719924D02*
X162152447Y-56815162D01*
X162152447Y-56815162D02*
X162152447Y-57005638D01*
X162152447Y-57005638D02*
X162104828Y-57100876D01*
X162104828Y-57100876D02*
X162057208Y-57148495D01*
X162057208Y-57148495D02*
X161961970Y-57196114D01*
X161961970Y-57196114D02*
X161676256Y-57196114D01*
X161676256Y-57196114D02*
X161581018Y-57148495D01*
X161581018Y-57148495D02*
X161533399Y-57100876D01*
X161533399Y-57100876D02*
X161485780Y-57005638D01*
X161485780Y-57005638D02*
X161485780Y-56815162D01*
X161485780Y-56815162D02*
X161533399Y-56719924D01*
X162857629Y-64243734D02*
X162810010Y-64196115D01*
X162810010Y-64196115D02*
X162762391Y-64100877D01*
X162762391Y-64100877D02*
X162762391Y-63862782D01*
X162762391Y-63862782D02*
X162810010Y-63767544D01*
X162810010Y-63767544D02*
X162857629Y-63719925D01*
X162857629Y-63719925D02*
X162952867Y-63672306D01*
X162952867Y-63672306D02*
X163048105Y-63672306D01*
X163048105Y-63672306D02*
X163190962Y-63719925D01*
X163190962Y-63719925D02*
X163762391Y-64291353D01*
X163762391Y-64291353D02*
X163762391Y-63672306D01*
X162762391Y-63053258D02*
X162762391Y-62958020D01*
X162762391Y-62958020D02*
X162810010Y-62862782D01*
X162810010Y-62862782D02*
X162857629Y-62815163D01*
X162857629Y-62815163D02*
X162952867Y-62767544D01*
X162952867Y-62767544D02*
X163143343Y-62719925D01*
X163143343Y-62719925D02*
X163381438Y-62719925D01*
X163381438Y-62719925D02*
X163571914Y-62767544D01*
X163571914Y-62767544D02*
X163667152Y-62815163D01*
X163667152Y-62815163D02*
X163714772Y-62862782D01*
X163714772Y-62862782D02*
X163762391Y-62958020D01*
X163762391Y-62958020D02*
X163762391Y-63053258D01*
X163762391Y-63053258D02*
X163714772Y-63148496D01*
X163714772Y-63148496D02*
X163667152Y-63196115D01*
X163667152Y-63196115D02*
X163571914Y-63243734D01*
X163571914Y-63243734D02*
X163381438Y-63291353D01*
X163381438Y-63291353D02*
X163143343Y-63291353D01*
X163143343Y-63291353D02*
X162952867Y-63243734D01*
X162952867Y-63243734D02*
X162857629Y-63196115D01*
X162857629Y-63196115D02*
X162810010Y-63148496D01*
X162810010Y-63148496D02*
X162762391Y-63053258D01*
X162857629Y-62338972D02*
X162810010Y-62291353D01*
X162810010Y-62291353D02*
X162762391Y-62196115D01*
X162762391Y-62196115D02*
X162762391Y-61958020D01*
X162762391Y-61958020D02*
X162810010Y-61862782D01*
X162810010Y-61862782D02*
X162857629Y-61815163D01*
X162857629Y-61815163D02*
X162952867Y-61767544D01*
X162952867Y-61767544D02*
X163048105Y-61767544D01*
X163048105Y-61767544D02*
X163190962Y-61815163D01*
X163190962Y-61815163D02*
X163762391Y-62386591D01*
X163762391Y-62386591D02*
X163762391Y-61767544D01*
X162762391Y-60910401D02*
X162762391Y-61100877D01*
X162762391Y-61100877D02*
X162810010Y-61196115D01*
X162810010Y-61196115D02*
X162857629Y-61243734D01*
X162857629Y-61243734D02*
X163000486Y-61338972D01*
X163000486Y-61338972D02*
X163190962Y-61386591D01*
X163190962Y-61386591D02*
X163571914Y-61386591D01*
X163571914Y-61386591D02*
X163667152Y-61338972D01*
X163667152Y-61338972D02*
X163714772Y-61291353D01*
X163714772Y-61291353D02*
X163762391Y-61196115D01*
X163762391Y-61196115D02*
X163762391Y-61005639D01*
X163762391Y-61005639D02*
X163714772Y-60910401D01*
X163714772Y-60910401D02*
X163667152Y-60862782D01*
X163667152Y-60862782D02*
X163571914Y-60815163D01*
X163571914Y-60815163D02*
X163333819Y-60815163D01*
X163333819Y-60815163D02*
X163238581Y-60862782D01*
X163238581Y-60862782D02*
X163190962Y-60910401D01*
X163190962Y-60910401D02*
X163143343Y-61005639D01*
X163143343Y-61005639D02*
X163143343Y-61196115D01*
X163143343Y-61196115D02*
X163190962Y-61291353D01*
X163190962Y-61291353D02*
X163238581Y-61338972D01*
X163238581Y-61338972D02*
X163333819Y-61386591D01*
X163381438Y-59624686D02*
X163381438Y-58862782D01*
X163762391Y-57624686D02*
X162762391Y-57624686D01*
X163143343Y-57624686D02*
X163095724Y-57529448D01*
X163095724Y-57529448D02*
X163095724Y-57338972D01*
X163095724Y-57338972D02*
X163143343Y-57243734D01*
X163143343Y-57243734D02*
X163190962Y-57196115D01*
X163190962Y-57196115D02*
X163286200Y-57148496D01*
X163286200Y-57148496D02*
X163571914Y-57148496D01*
X163571914Y-57148496D02*
X163667152Y-57196115D01*
X163667152Y-57196115D02*
X163714772Y-57243734D01*
X163714772Y-57243734D02*
X163762391Y-57338972D01*
X163762391Y-57338972D02*
X163762391Y-57529448D01*
X163762391Y-57529448D02*
X163714772Y-57624686D01*
X163762391Y-56719924D02*
X163095724Y-56719924D01*
X162762391Y-56719924D02*
X162810010Y-56767543D01*
X162810010Y-56767543D02*
X162857629Y-56719924D01*
X162857629Y-56719924D02*
X162810010Y-56672305D01*
X162810010Y-56672305D02*
X162762391Y-56719924D01*
X162762391Y-56719924D02*
X162857629Y-56719924D01*
X163095724Y-55815163D02*
X163905248Y-55815163D01*
X163905248Y-55815163D02*
X164000486Y-55862782D01*
X164000486Y-55862782D02*
X164048105Y-55910401D01*
X164048105Y-55910401D02*
X164095724Y-56005639D01*
X164095724Y-56005639D02*
X164095724Y-56148496D01*
X164095724Y-56148496D02*
X164048105Y-56243734D01*
X163714772Y-55815163D02*
X163762391Y-55910401D01*
X163762391Y-55910401D02*
X163762391Y-56100877D01*
X163762391Y-56100877D02*
X163714772Y-56196115D01*
X163714772Y-56196115D02*
X163667152Y-56243734D01*
X163667152Y-56243734D02*
X163571914Y-56291353D01*
X163571914Y-56291353D02*
X163286200Y-56291353D01*
X163286200Y-56291353D02*
X163190962Y-56243734D01*
X163190962Y-56243734D02*
X163143343Y-56196115D01*
X163143343Y-56196115D02*
X163095724Y-56100877D01*
X163095724Y-56100877D02*
X163095724Y-55910401D01*
X163095724Y-55910401D02*
X163143343Y-55815163D01*
X163762391Y-55338972D02*
X162762391Y-55338972D01*
X163143343Y-55338972D02*
X163095724Y-55243734D01*
X163095724Y-55243734D02*
X163095724Y-55053258D01*
X163095724Y-55053258D02*
X163143343Y-54958020D01*
X163143343Y-54958020D02*
X163190962Y-54910401D01*
X163190962Y-54910401D02*
X163286200Y-54862782D01*
X163286200Y-54862782D02*
X163571914Y-54862782D01*
X163571914Y-54862782D02*
X163667152Y-54910401D01*
X163667152Y-54910401D02*
X163714772Y-54958020D01*
X163714772Y-54958020D02*
X163762391Y-55053258D01*
X163762391Y-55053258D02*
X163762391Y-55243734D01*
X163762391Y-55243734D02*
X163714772Y-55338972D01*
X163762391Y-54434210D02*
X163095724Y-54434210D01*
X163286200Y-54434210D02*
X163190962Y-54386591D01*
X163190962Y-54386591D02*
X163143343Y-54338972D01*
X163143343Y-54338972D02*
X163095724Y-54243734D01*
X163095724Y-54243734D02*
X163095724Y-54148496D01*
X163762391Y-53386591D02*
X163238581Y-53386591D01*
X163238581Y-53386591D02*
X163143343Y-53434210D01*
X163143343Y-53434210D02*
X163095724Y-53529448D01*
X163095724Y-53529448D02*
X163095724Y-53719924D01*
X163095724Y-53719924D02*
X163143343Y-53815162D01*
X163714772Y-53386591D02*
X163762391Y-53481829D01*
X163762391Y-53481829D02*
X163762391Y-53719924D01*
X163762391Y-53719924D02*
X163714772Y-53815162D01*
X163714772Y-53815162D02*
X163619533Y-53862781D01*
X163619533Y-53862781D02*
X163524295Y-53862781D01*
X163524295Y-53862781D02*
X163429057Y-53815162D01*
X163429057Y-53815162D02*
X163381438Y-53719924D01*
X163381438Y-53719924D02*
X163381438Y-53481829D01*
X163381438Y-53481829D02*
X163333819Y-53386591D01*
X163762391Y-52910400D02*
X163095724Y-52910400D01*
X162762391Y-52910400D02*
X162810010Y-52958019D01*
X162810010Y-52958019D02*
X162857629Y-52910400D01*
X162857629Y-52910400D02*
X162810010Y-52862781D01*
X162810010Y-52862781D02*
X162762391Y-52910400D01*
X162762391Y-52910400D02*
X162857629Y-52910400D01*
X163095724Y-52434210D02*
X163762391Y-52434210D01*
X163190962Y-52434210D02*
X163143343Y-52386591D01*
X163143343Y-52386591D02*
X163095724Y-52291353D01*
X163095724Y-52291353D02*
X163095724Y-52148496D01*
X163095724Y-52148496D02*
X163143343Y-52053258D01*
X163143343Y-52053258D02*
X163238581Y-52005639D01*
X163238581Y-52005639D02*
X163762391Y-52005639D01*
X163762391Y-51386591D02*
X163714772Y-51481829D01*
X163714772Y-51481829D02*
X163619533Y-51529448D01*
X163619533Y-51529448D02*
X162762391Y-51529448D01*
X163762391Y-50577067D02*
X163238581Y-50577067D01*
X163238581Y-50577067D02*
X163143343Y-50624686D01*
X163143343Y-50624686D02*
X163095724Y-50719924D01*
X163095724Y-50719924D02*
X163095724Y-50910400D01*
X163095724Y-50910400D02*
X163143343Y-51005638D01*
X163714772Y-50577067D02*
X163762391Y-50672305D01*
X163762391Y-50672305D02*
X163762391Y-50910400D01*
X163762391Y-50910400D02*
X163714772Y-51005638D01*
X163714772Y-51005638D02*
X163619533Y-51053257D01*
X163619533Y-51053257D02*
X163524295Y-51053257D01*
X163524295Y-51053257D02*
X163429057Y-51005638D01*
X163429057Y-51005638D02*
X163381438Y-50910400D01*
X163381438Y-50910400D02*
X163381438Y-50672305D01*
X163381438Y-50672305D02*
X163333819Y-50577067D01*
X163762391Y-50100876D02*
X162762391Y-50100876D01*
X163143343Y-50100876D02*
X163095724Y-50005638D01*
X163095724Y-50005638D02*
X163095724Y-49815162D01*
X163095724Y-49815162D02*
X163143343Y-49719924D01*
X163143343Y-49719924D02*
X163190962Y-49672305D01*
X163190962Y-49672305D02*
X163286200Y-49624686D01*
X163286200Y-49624686D02*
X163571914Y-49624686D01*
X163571914Y-49624686D02*
X163667152Y-49672305D01*
X163667152Y-49672305D02*
X163714772Y-49719924D01*
X163714772Y-49719924D02*
X163762391Y-49815162D01*
X163762391Y-49815162D02*
X163762391Y-50005638D01*
X163762391Y-50005638D02*
X163714772Y-50100876D01*
X163714772Y-49243733D02*
X163762391Y-49148495D01*
X163762391Y-49148495D02*
X163762391Y-48958019D01*
X163762391Y-48958019D02*
X163714772Y-48862781D01*
X163714772Y-48862781D02*
X163619533Y-48815162D01*
X163619533Y-48815162D02*
X163571914Y-48815162D01*
X163571914Y-48815162D02*
X163476676Y-48862781D01*
X163476676Y-48862781D02*
X163429057Y-48958019D01*
X163429057Y-48958019D02*
X163429057Y-49100876D01*
X163429057Y-49100876D02*
X163381438Y-49196114D01*
X163381438Y-49196114D02*
X163286200Y-49243733D01*
X163286200Y-49243733D02*
X163238581Y-49243733D01*
X163238581Y-49243733D02*
X163143343Y-49196114D01*
X163143343Y-49196114D02*
X163095724Y-49100876D01*
X163095724Y-49100876D02*
X163095724Y-48958019D01*
X163095724Y-48958019D02*
X163143343Y-48862781D01*
X153923533Y-112714285D02*
X153923533Y-113476190D01*
X153542580Y-113095237D02*
X154304485Y-113095237D01*
X153923533Y-118523810D02*
X153923533Y-119285715D01*
X153934613Y-86282760D02*
X153934613Y-85520856D01*
X153934613Y-80473235D02*
X153934613Y-79711331D01*
X154315566Y-80092283D02*
X153553661Y-80092283D01*
X153934613Y-63785714D02*
X153934613Y-63023810D01*
X153934613Y-57976189D02*
X153934613Y-57214285D01*
X154315566Y-57595237D02*
X153553661Y-57595237D01*
X153923533Y-105214285D02*
X153923533Y-105976190D01*
X153542580Y-105595237D02*
X154304485Y-105595237D01*
X153923533Y-111023810D02*
X153923533Y-111785715D01*
X153930300Y-48614696D02*
X153930300Y-47852792D01*
X153930300Y-42805171D02*
X153930300Y-42043267D01*
X154311253Y-42424219D02*
X153549348Y-42424219D01*
X153930300Y-56255800D02*
X153930300Y-55493896D01*
X153930300Y-50446275D02*
X153930300Y-49684371D01*
X154311253Y-50065323D02*
X153549348Y-50065323D01*
X146457419Y-108690476D02*
X146457419Y-109166666D01*
X146457419Y-109166666D02*
X146933609Y-109214285D01*
X146933609Y-109214285D02*
X146885990Y-109166666D01*
X146885990Y-109166666D02*
X146838371Y-109071428D01*
X146838371Y-109071428D02*
X146838371Y-108833333D01*
X146838371Y-108833333D02*
X146885990Y-108738095D01*
X146885990Y-108738095D02*
X146933609Y-108690476D01*
X146933609Y-108690476D02*
X147028847Y-108642857D01*
X147028847Y-108642857D02*
X147266942Y-108642857D01*
X147266942Y-108642857D02*
X147362180Y-108690476D01*
X147362180Y-108690476D02*
X147409800Y-108738095D01*
X147409800Y-108738095D02*
X147457419Y-108833333D01*
X147457419Y-108833333D02*
X147457419Y-109071428D01*
X147457419Y-109071428D02*
X147409800Y-109166666D01*
X147409800Y-109166666D02*
X147362180Y-109214285D01*
X146457419Y-108357142D02*
X147457419Y-108023809D01*
X147457419Y-108023809D02*
X146457419Y-107690476D01*
X153934613Y-78785714D02*
X153934613Y-78023810D01*
X153934613Y-72976189D02*
X153934613Y-72214285D01*
X154315566Y-72595237D02*
X153553661Y-72595237D01*
X146457419Y-69476189D02*
X146457419Y-68857142D01*
X146457419Y-68857142D02*
X146838371Y-69190475D01*
X146838371Y-69190475D02*
X146838371Y-69047618D01*
X146838371Y-69047618D02*
X146885990Y-68952380D01*
X146885990Y-68952380D02*
X146933609Y-68904761D01*
X146933609Y-68904761D02*
X147028847Y-68857142D01*
X147028847Y-68857142D02*
X147266942Y-68857142D01*
X147266942Y-68857142D02*
X147362180Y-68904761D01*
X147362180Y-68904761D02*
X147409800Y-68952380D01*
X147409800Y-68952380D02*
X147457419Y-69047618D01*
X147457419Y-69047618D02*
X147457419Y-69333332D01*
X147457419Y-69333332D02*
X147409800Y-69428570D01*
X147409800Y-69428570D02*
X147362180Y-69476189D01*
X147362180Y-68428570D02*
X147409800Y-68380951D01*
X147409800Y-68380951D02*
X147457419Y-68428570D01*
X147457419Y-68428570D02*
X147409800Y-68476189D01*
X147409800Y-68476189D02*
X147362180Y-68428570D01*
X147362180Y-68428570D02*
X147457419Y-68428570D01*
X146457419Y-68047618D02*
X146457419Y-67428571D01*
X146457419Y-67428571D02*
X146838371Y-67761904D01*
X146838371Y-67761904D02*
X146838371Y-67619047D01*
X146838371Y-67619047D02*
X146885990Y-67523809D01*
X146885990Y-67523809D02*
X146933609Y-67476190D01*
X146933609Y-67476190D02*
X147028847Y-67428571D01*
X147028847Y-67428571D02*
X147266942Y-67428571D01*
X147266942Y-67428571D02*
X147362180Y-67476190D01*
X147362180Y-67476190D02*
X147409800Y-67523809D01*
X147409800Y-67523809D02*
X147457419Y-67619047D01*
X147457419Y-67619047D02*
X147457419Y-67904761D01*
X147457419Y-67904761D02*
X147409800Y-67999999D01*
X147409800Y-67999999D02*
X147362180Y-68047618D01*
X146457419Y-67142856D02*
X147457419Y-66809523D01*
X147457419Y-66809523D02*
X146457419Y-66476190D01*
X153923533Y-97714285D02*
X153923533Y-98476190D01*
X153542580Y-98095237D02*
X154304485Y-98095237D01*
X153923533Y-103523810D02*
X153923533Y-104285715D01*
X153934613Y-71285714D02*
X153934613Y-70523810D01*
X153934613Y-65476189D02*
X153934613Y-64714285D01*
X154315566Y-65095237D02*
X153553661Y-65095237D01*
X153934613Y-93785714D02*
X153934613Y-93023810D01*
X153934613Y-87976189D02*
X153934613Y-87214285D01*
X154315566Y-87595237D02*
X153553661Y-87595237D01*
D11*
X164431009Y-95238095D02*
X164478628Y-95095238D01*
X164478628Y-95095238D02*
X164526247Y-95047619D01*
X164526247Y-95047619D02*
X164621485Y-95000000D01*
X164621485Y-95000000D02*
X164764342Y-95000000D01*
X164764342Y-95000000D02*
X164859580Y-95047619D01*
X164859580Y-95047619D02*
X164907200Y-95095238D01*
X164907200Y-95095238D02*
X164954819Y-95190476D01*
X164954819Y-95190476D02*
X164954819Y-95571428D01*
X164954819Y-95571428D02*
X163954819Y-95571428D01*
X163954819Y-95571428D02*
X163954819Y-95238095D01*
X163954819Y-95238095D02*
X164002438Y-95142857D01*
X164002438Y-95142857D02*
X164050057Y-95095238D01*
X164050057Y-95095238D02*
X164145295Y-95047619D01*
X164145295Y-95047619D02*
X164240533Y-95047619D01*
X164240533Y-95047619D02*
X164335771Y-95095238D01*
X164335771Y-95095238D02*
X164383390Y-95142857D01*
X164383390Y-95142857D02*
X164431009Y-95238095D01*
X164431009Y-95238095D02*
X164431009Y-95571428D01*
X165050057Y-94809524D02*
X165050057Y-94047619D01*
X163954819Y-93952380D02*
X164954819Y-93619047D01*
X164954819Y-93619047D02*
X163954819Y-93285714D01*
X164859580Y-92380952D02*
X164907200Y-92428571D01*
X164907200Y-92428571D02*
X164954819Y-92571428D01*
X164954819Y-92571428D02*
X164954819Y-92666666D01*
X164954819Y-92666666D02*
X164907200Y-92809523D01*
X164907200Y-92809523D02*
X164811961Y-92904761D01*
X164811961Y-92904761D02*
X164716723Y-92952380D01*
X164716723Y-92952380D02*
X164526247Y-92999999D01*
X164526247Y-92999999D02*
X164383390Y-92999999D01*
X164383390Y-92999999D02*
X164192914Y-92952380D01*
X164192914Y-92952380D02*
X164097676Y-92904761D01*
X164097676Y-92904761D02*
X164002438Y-92809523D01*
X164002438Y-92809523D02*
X163954819Y-92666666D01*
X163954819Y-92666666D02*
X163954819Y-92571428D01*
X163954819Y-92571428D02*
X164002438Y-92428571D01*
X164002438Y-92428571D02*
X164050057Y-92380952D01*
X164859580Y-91380952D02*
X164907200Y-91428571D01*
X164907200Y-91428571D02*
X164954819Y-91571428D01*
X164954819Y-91571428D02*
X164954819Y-91666666D01*
X164954819Y-91666666D02*
X164907200Y-91809523D01*
X164907200Y-91809523D02*
X164811961Y-91904761D01*
X164811961Y-91904761D02*
X164716723Y-91952380D01*
X164716723Y-91952380D02*
X164526247Y-91999999D01*
X164526247Y-91999999D02*
X164383390Y-91999999D01*
X164383390Y-91999999D02*
X164192914Y-91952380D01*
X164192914Y-91952380D02*
X164097676Y-91904761D01*
X164097676Y-91904761D02*
X164002438Y-91809523D01*
X164002438Y-91809523D02*
X163954819Y-91666666D01*
X163954819Y-91666666D02*
X163954819Y-91571428D01*
X163954819Y-91571428D02*
X164002438Y-91428571D01*
X164002438Y-91428571D02*
X164050057Y-91380952D01*
D12*
%TO.C,5V#3*%
X148700000Y-98781500D02*
X148700000Y-103681500D01*
X148700000Y-101131500D02*
X149200000Y-101131500D01*
X148700000Y-101231500D02*
X149200000Y-101231500D01*
X148700000Y-103681500D02*
X152200000Y-103681500D01*
X149200000Y-101131500D02*
X149200000Y-101331500D01*
X149200000Y-101331500D02*
X148700000Y-101331500D01*
X150200000Y-98171500D02*
X150200000Y-98781500D01*
X150200000Y-104291500D02*
X150200000Y-103681500D01*
X151500000Y-98171500D02*
X151500000Y-98781500D01*
X151500000Y-104291500D02*
X151500000Y-103681500D01*
X152200000Y-98781500D02*
X148700000Y-98781500D01*
X152200000Y-100731500D02*
X152200000Y-98781500D01*
X152200000Y-101731500D02*
X152810000Y-101731500D01*
X152200000Y-103681500D02*
X152200000Y-101731500D01*
X152810000Y-99931500D02*
X153010000Y-99931500D01*
X152810000Y-100731500D02*
X152200000Y-100731500D01*
X152910000Y-99931500D02*
X152910000Y-99631500D01*
X153010000Y-99631500D02*
X152810000Y-99631500D01*
X153010000Y-99931500D02*
X153010000Y-99631500D01*
X153110000Y-97871500D02*
X151860000Y-97871500D01*
X153110000Y-99121500D02*
X153110000Y-97871500D01*
X152810000Y-98171500D02*
X148090000Y-98171500D01*
X148090000Y-104291500D01*
X152810000Y-104291500D01*
X152810000Y-98171500D01*
%TO.C,5V#1*%
X148700000Y-113550000D02*
X148700000Y-118450000D01*
X148700000Y-115900000D02*
X149200000Y-115900000D01*
X148700000Y-116000000D02*
X149200000Y-116000000D01*
X148700000Y-118450000D02*
X152200000Y-118450000D01*
X149200000Y-115900000D02*
X149200000Y-116100000D01*
X149200000Y-116100000D02*
X148700000Y-116100000D01*
X150200000Y-112940000D02*
X150200000Y-113550000D01*
X150200000Y-119060000D02*
X150200000Y-118450000D01*
X151500000Y-112940000D02*
X151500000Y-113550000D01*
X151500000Y-119060000D02*
X151500000Y-118450000D01*
X152200000Y-113550000D02*
X148700000Y-113550000D01*
X152200000Y-115500000D02*
X152200000Y-113550000D01*
X152200000Y-116500000D02*
X152810000Y-116500000D01*
X152200000Y-118450000D02*
X152200000Y-116500000D01*
X152810000Y-114700000D02*
X153010000Y-114700000D01*
X152810000Y-115500000D02*
X152200000Y-115500000D01*
X152910000Y-114700000D02*
X152910000Y-114400000D01*
X153010000Y-114400000D02*
X152810000Y-114400000D01*
X153010000Y-114700000D02*
X153010000Y-114400000D01*
X153110000Y-112640000D02*
X151860000Y-112640000D01*
X153110000Y-113890000D02*
X153110000Y-112640000D01*
X152810000Y-112940000D02*
X148090000Y-112940000D01*
X148090000Y-119060000D01*
X152810000Y-119060000D01*
X152810000Y-112940000D01*
%TO.C,3.3V#1*%
X148668100Y-88040100D02*
X148668100Y-92940100D01*
X148668100Y-90390100D02*
X149168100Y-90390100D01*
X148668100Y-90490100D02*
X149168100Y-90490100D01*
X148668100Y-92940100D02*
X152168100Y-92940100D01*
X149168100Y-90390100D02*
X149168100Y-90590100D01*
X149168100Y-90590100D02*
X148668100Y-90590100D01*
X150168100Y-87430100D02*
X150168100Y-88040100D01*
X150168100Y-93550100D02*
X150168100Y-92940100D01*
X151468100Y-87430100D02*
X151468100Y-88040100D01*
X151468100Y-93550100D02*
X151468100Y-92940100D01*
X152168100Y-88040100D02*
X148668100Y-88040100D01*
X152168100Y-89990100D02*
X152168100Y-88040100D01*
X152168100Y-90990100D02*
X152778100Y-90990100D01*
X152168100Y-92940100D02*
X152168100Y-90990100D01*
X152778100Y-89190100D02*
X152978100Y-89190100D01*
X152778100Y-89990100D02*
X152168100Y-89990100D01*
X152878100Y-89190100D02*
X152878100Y-88890100D01*
X152978100Y-88890100D02*
X152778100Y-88890100D01*
X152978100Y-89190100D02*
X152978100Y-88890100D01*
X153078100Y-87130100D02*
X151828100Y-87130100D01*
X153078100Y-88380100D02*
X153078100Y-87130100D01*
X152778100Y-87430100D02*
X148058100Y-87430100D01*
X148058100Y-93550100D01*
X152778100Y-93550100D01*
X152778100Y-87430100D01*
%TO.C,3.3V#7*%
X148662500Y-42823900D02*
X148662500Y-47723900D01*
X148662500Y-45173900D02*
X149162500Y-45173900D01*
X148662500Y-45273900D02*
X149162500Y-45273900D01*
X148662500Y-47723900D02*
X152162500Y-47723900D01*
X149162500Y-45173900D02*
X149162500Y-45373900D01*
X149162500Y-45373900D02*
X148662500Y-45373900D01*
X150162500Y-42213900D02*
X150162500Y-42823900D01*
X150162500Y-48333900D02*
X150162500Y-47723900D01*
X151462500Y-42213900D02*
X151462500Y-42823900D01*
X151462500Y-48333900D02*
X151462500Y-47723900D01*
X152162500Y-42823900D02*
X148662500Y-42823900D01*
X152162500Y-44773900D02*
X152162500Y-42823900D01*
X152162500Y-45773900D02*
X152772500Y-45773900D01*
X152162500Y-47723900D02*
X152162500Y-45773900D01*
X152772500Y-43973900D02*
X152972500Y-43973900D01*
X152772500Y-44773900D02*
X152162500Y-44773900D01*
X152872500Y-43973900D02*
X152872500Y-43673900D01*
X152972500Y-43673900D02*
X152772500Y-43673900D01*
X152972500Y-43973900D02*
X152972500Y-43673900D01*
X153072500Y-41913900D02*
X151822500Y-41913900D01*
X153072500Y-43163900D02*
X153072500Y-41913900D01*
X152772500Y-42213900D02*
X148052500Y-42213900D01*
X148052500Y-48333900D01*
X152772500Y-48333900D01*
X152772500Y-42213900D01*
%TO.C,3.3V#2*%
X148650000Y-80550000D02*
X148650000Y-85450000D01*
X148650000Y-82900000D02*
X149150000Y-82900000D01*
X148650000Y-83000000D02*
X149150000Y-83000000D01*
X148650000Y-85450000D02*
X152150000Y-85450000D01*
X149150000Y-82900000D02*
X149150000Y-83100000D01*
X149150000Y-83100000D02*
X148650000Y-83100000D01*
X150150000Y-79940000D02*
X150150000Y-80550000D01*
X150150000Y-86060000D02*
X150150000Y-85450000D01*
X151450000Y-79940000D02*
X151450000Y-80550000D01*
X151450000Y-86060000D02*
X151450000Y-85450000D01*
X152150000Y-80550000D02*
X148650000Y-80550000D01*
X152150000Y-82500000D02*
X152150000Y-80550000D01*
X152150000Y-83500000D02*
X152760000Y-83500000D01*
X152150000Y-85450000D02*
X152150000Y-83500000D01*
X152760000Y-81700000D02*
X152960000Y-81700000D01*
X152760000Y-82500000D02*
X152150000Y-82500000D01*
X152860000Y-81700000D02*
X152860000Y-81400000D01*
X152960000Y-81400000D02*
X152760000Y-81400000D01*
X152960000Y-81700000D02*
X152960000Y-81400000D01*
X153060000Y-79640000D02*
X151810000Y-79640000D01*
X153060000Y-80890000D02*
X153060000Y-79640000D01*
X152760000Y-79940000D02*
X148040000Y-79940000D01*
X148040000Y-86060000D01*
X152760000Y-86060000D01*
X152760000Y-79940000D01*
%TO.C,3.3V#4*%
X148700000Y-65550000D02*
X148700000Y-70450000D01*
X148700000Y-67900000D02*
X149200000Y-67900000D01*
X148700000Y-68000000D02*
X149200000Y-68000000D01*
X148700000Y-70450000D02*
X152200000Y-70450000D01*
X149200000Y-67900000D02*
X149200000Y-68100000D01*
X149200000Y-68100000D02*
X148700000Y-68100000D01*
X150200000Y-64940000D02*
X150200000Y-65550000D01*
X150200000Y-71060000D02*
X150200000Y-70450000D01*
X151500000Y-64940000D02*
X151500000Y-65550000D01*
X151500000Y-71060000D02*
X151500000Y-70450000D01*
X152200000Y-65550000D02*
X148700000Y-65550000D01*
X152200000Y-67500000D02*
X152200000Y-65550000D01*
X152200000Y-68500000D02*
X152810000Y-68500000D01*
X152200000Y-70450000D02*
X152200000Y-68500000D01*
X152810000Y-66700000D02*
X153010000Y-66700000D01*
X152810000Y-67500000D02*
X152200000Y-67500000D01*
X152910000Y-66700000D02*
X152910000Y-66400000D01*
X153010000Y-66400000D02*
X152810000Y-66400000D01*
X153010000Y-66700000D02*
X153010000Y-66400000D01*
X153110000Y-64640000D02*
X151860000Y-64640000D01*
X153110000Y-65890000D02*
X153110000Y-64640000D01*
X152810000Y-64940000D02*
X148090000Y-64940000D01*
X148090000Y-71060000D01*
X152810000Y-71060000D01*
X152810000Y-64940000D01*
%TO.C,5V#2*%
X148700000Y-106050000D02*
X148700000Y-110950000D01*
X148700000Y-108400000D02*
X149200000Y-108400000D01*
X148700000Y-108500000D02*
X149200000Y-108500000D01*
X148700000Y-110950000D02*
X152200000Y-110950000D01*
X149200000Y-108400000D02*
X149200000Y-108600000D01*
X149200000Y-108600000D02*
X148700000Y-108600000D01*
X150200000Y-105440000D02*
X150200000Y-106050000D01*
X150200000Y-111560000D02*
X150200000Y-110950000D01*
X151500000Y-105440000D02*
X151500000Y-106050000D01*
X151500000Y-111560000D02*
X151500000Y-110950000D01*
X152200000Y-106050000D02*
X148700000Y-106050000D01*
X152200000Y-108000000D02*
X152200000Y-106050000D01*
X152200000Y-109000000D02*
X152810000Y-109000000D01*
X152200000Y-110950000D02*
X152200000Y-109000000D01*
X152810000Y-107200000D02*
X153010000Y-107200000D01*
X152810000Y-108000000D02*
X152200000Y-108000000D01*
X152910000Y-107200000D02*
X152910000Y-106900000D01*
X153010000Y-106900000D02*
X152810000Y-106900000D01*
X153010000Y-107200000D02*
X153010000Y-106900000D01*
X153110000Y-105140000D02*
X151860000Y-105140000D01*
X153110000Y-106390000D02*
X153110000Y-105140000D01*
X152810000Y-105440000D02*
X148090000Y-105440000D01*
X148090000Y-111560000D01*
X152810000Y-111560000D01*
X152810000Y-105440000D01*
%TO.C,B_VCC*%
X158700000Y-90050000D02*
X158700000Y-96950000D01*
X158700000Y-92400000D02*
X159200000Y-92400000D01*
X158700000Y-92500000D02*
X159200000Y-92500000D01*
X158700000Y-94400000D02*
X159200000Y-94400000D01*
X158700000Y-94500000D02*
X159200000Y-94500000D01*
X158700000Y-96950000D02*
X162200000Y-96950000D01*
X159200000Y-92400000D02*
X159200000Y-92600000D01*
X159200000Y-92600000D02*
X158700000Y-92600000D01*
X159200000Y-94400000D02*
X159200000Y-94600000D01*
X159200000Y-94600000D02*
X158700000Y-94600000D01*
X160200000Y-89440000D02*
X160200000Y-90050000D01*
X160200000Y-97560000D02*
X160200000Y-96950000D01*
X161500000Y-89440000D02*
X161500000Y-90050000D01*
X161500000Y-97560000D02*
X161500000Y-96950000D01*
X162200000Y-90050000D02*
X158700000Y-90050000D01*
X162200000Y-92000000D02*
X162200000Y-90050000D01*
X162200000Y-95000000D02*
X162810000Y-95000000D01*
X162200000Y-96950000D02*
X162200000Y-95000000D01*
X162810000Y-91200000D02*
X163010000Y-91200000D01*
X162810000Y-92000000D02*
X162200000Y-92000000D01*
X162910000Y-91200000D02*
X162910000Y-90900000D01*
X163010000Y-90900000D02*
X162810000Y-90900000D01*
X163010000Y-91200000D02*
X163010000Y-90900000D01*
X163110000Y-89140000D02*
X161860000Y-89140000D01*
X163110000Y-90390000D02*
X163110000Y-89140000D01*
X162810000Y-89440000D02*
X158090000Y-89440000D01*
X158090000Y-97560000D01*
X162810000Y-97560000D01*
X162810000Y-89440000D01*
%TO.C,3.3V#6*%
X148681900Y-50481900D02*
X148681900Y-55381900D01*
X148681900Y-52831900D02*
X149181900Y-52831900D01*
X148681900Y-52931900D02*
X149181900Y-52931900D01*
X148681900Y-55381900D02*
X152181900Y-55381900D01*
X149181900Y-52831900D02*
X149181900Y-53031900D01*
X149181900Y-53031900D02*
X148681900Y-53031900D01*
X150181900Y-49871900D02*
X150181900Y-50481900D01*
X150181900Y-55991900D02*
X150181900Y-55381900D01*
X151481900Y-49871900D02*
X151481900Y-50481900D01*
X151481900Y-55991900D02*
X151481900Y-55381900D01*
X152181900Y-50481900D02*
X148681900Y-50481900D01*
X152181900Y-52431900D02*
X152181900Y-50481900D01*
X152181900Y-53431900D02*
X152791900Y-53431900D01*
X152181900Y-55381900D02*
X152181900Y-53431900D01*
X152791900Y-51631900D02*
X152991900Y-51631900D01*
X152791900Y-52431900D02*
X152181900Y-52431900D01*
X152891900Y-51631900D02*
X152891900Y-51331900D01*
X152991900Y-51331900D02*
X152791900Y-51331900D01*
X152991900Y-51631900D02*
X152991900Y-51331900D01*
X153091900Y-49571900D02*
X151841900Y-49571900D01*
X153091900Y-50821900D02*
X153091900Y-49571900D01*
X152791900Y-49871900D02*
X148071900Y-49871900D01*
X148071900Y-55991900D01*
X152791900Y-55991900D01*
X152791900Y-49871900D01*
%TO.C,3.3V#3*%
X148681900Y-73060600D02*
X148681900Y-77960600D01*
X148681900Y-75410600D02*
X149181900Y-75410600D01*
X148681900Y-75510600D02*
X149181900Y-75510600D01*
X148681900Y-77960600D02*
X152181900Y-77960600D01*
X149181900Y-75410600D02*
X149181900Y-75610600D01*
X149181900Y-75610600D02*
X148681900Y-75610600D01*
X150181900Y-72450600D02*
X150181900Y-73060600D01*
X150181900Y-78570600D02*
X150181900Y-77960600D01*
X151481900Y-72450600D02*
X151481900Y-73060600D01*
X151481900Y-78570600D02*
X151481900Y-77960600D01*
X152181900Y-73060600D02*
X148681900Y-73060600D01*
X152181900Y-75010600D02*
X152181900Y-73060600D01*
X152181900Y-76010600D02*
X152791900Y-76010600D01*
X152181900Y-77960600D02*
X152181900Y-76010600D01*
X152791900Y-74210600D02*
X152991900Y-74210600D01*
X152791900Y-75010600D02*
X152181900Y-75010600D01*
X152891900Y-74210600D02*
X152891900Y-73910600D01*
X152991900Y-73910600D02*
X152791900Y-73910600D01*
X152991900Y-74210600D02*
X152991900Y-73910600D01*
X153091900Y-72150600D02*
X151841900Y-72150600D01*
X153091900Y-73400600D02*
X153091900Y-72150600D01*
X152791900Y-72450600D02*
X148071900Y-72450600D01*
X148071900Y-78570600D01*
X152791900Y-78570600D01*
X152791900Y-72450600D01*
%TO.C,3.3V#5*%
X148700000Y-58050000D02*
X148700000Y-62950000D01*
X148700000Y-60400000D02*
X149200000Y-60400000D01*
X148700000Y-60500000D02*
X149200000Y-60500000D01*
X148700000Y-62950000D02*
X152200000Y-62950000D01*
X149200000Y-60400000D02*
X149200000Y-60600000D01*
X149200000Y-60600000D02*
X148700000Y-60600000D01*
X150200000Y-57440000D02*
X150200000Y-58050000D01*
X150200000Y-63560000D02*
X150200000Y-62950000D01*
X151500000Y-57440000D02*
X151500000Y-58050000D01*
X151500000Y-63560000D02*
X151500000Y-62950000D01*
X152200000Y-58050000D02*
X148700000Y-58050000D01*
X152200000Y-60000000D02*
X152200000Y-58050000D01*
X152200000Y-61000000D02*
X152810000Y-61000000D01*
X152200000Y-62950000D02*
X152200000Y-61000000D01*
X152810000Y-59200000D02*
X153010000Y-59200000D01*
X152810000Y-60000000D02*
X152200000Y-60000000D01*
X152910000Y-59200000D02*
X152910000Y-58900000D01*
X153010000Y-58900000D02*
X152810000Y-58900000D01*
X153010000Y-59200000D02*
X153010000Y-58900000D01*
X153110000Y-57140000D02*
X151860000Y-57140000D01*
X153110000Y-58390000D02*
X153110000Y-57140000D01*
X152810000Y-57440000D02*
X148090000Y-57440000D01*
X148090000Y-63560000D01*
X152810000Y-63560000D01*
X152810000Y-57440000D01*
%TD*%
M02*
