%TF.GenerationSoftware,KiCad,Pcbnew,9.0.7*%
%TF.CreationDate,2026-06-25T22:42:48+02:00*%
%TF.ProjectId,main-board,6d61696e-2d62-46f6-9172-642e6b696361,rev?*%
%TF.SameCoordinates,Original*%
%TF.FileFunction,Legend,Top*%
%TF.FilePolarity,Positive*%
%FSLAX46Y46*%
G04 Gerber Fmt 4.6, Leading zero omitted, Abs format (unit mm)*
G04 Created by KiCad (PCBNEW 9.0.7) date 2026-06-25 22:42:48*
%MOMM*%
%LPD*%
G01*
G04 APERTURE LIST*
%ADD10C,0.100000*%
%ADD11C,0.150000*%
%ADD12C,0.120000*%
%ADD13C,0.127000*%
%ADD14C,0.200000*%
G04 APERTURE END LIST*
D10*
X192005713Y-85113609D02*
X192148570Y-85161228D01*
X192148570Y-85161228D02*
X192196189Y-85208847D01*
X192196189Y-85208847D02*
X192243808Y-85304085D01*
X192243808Y-85304085D02*
X192243808Y-85446942D01*
X192243808Y-85446942D02*
X192196189Y-85542180D01*
X192196189Y-85542180D02*
X192148570Y-85589800D01*
X192148570Y-85589800D02*
X192053332Y-85637419D01*
X192053332Y-85637419D02*
X191672380Y-85637419D01*
X191672380Y-85637419D02*
X191672380Y-84637419D01*
X191672380Y-84637419D02*
X192005713Y-84637419D01*
X192005713Y-84637419D02*
X192100951Y-84685038D01*
X192100951Y-84685038D02*
X192148570Y-84732657D01*
X192148570Y-84732657D02*
X192196189Y-84827895D01*
X192196189Y-84827895D02*
X192196189Y-84923133D01*
X192196189Y-84923133D02*
X192148570Y-85018371D01*
X192148570Y-85018371D02*
X192100951Y-85065990D01*
X192100951Y-85065990D02*
X192005713Y-85113609D01*
X192005713Y-85113609D02*
X191672380Y-85113609D01*
X192672380Y-85637419D02*
X192672380Y-84970752D01*
X192672380Y-85161228D02*
X192719999Y-85065990D01*
X192719999Y-85065990D02*
X192767618Y-85018371D01*
X192767618Y-85018371D02*
X192862856Y-84970752D01*
X192862856Y-84970752D02*
X192958094Y-84970752D01*
X193672380Y-85589800D02*
X193577142Y-85637419D01*
X193577142Y-85637419D02*
X193386666Y-85637419D01*
X193386666Y-85637419D02*
X193291428Y-85589800D01*
X193291428Y-85589800D02*
X193243809Y-85494561D01*
X193243809Y-85494561D02*
X193243809Y-85113609D01*
X193243809Y-85113609D02*
X193291428Y-85018371D01*
X193291428Y-85018371D02*
X193386666Y-84970752D01*
X193386666Y-84970752D02*
X193577142Y-84970752D01*
X193577142Y-84970752D02*
X193672380Y-85018371D01*
X193672380Y-85018371D02*
X193719999Y-85113609D01*
X193719999Y-85113609D02*
X193719999Y-85208847D01*
X193719999Y-85208847D02*
X193243809Y-85304085D01*
X194577142Y-85637419D02*
X194577142Y-85113609D01*
X194577142Y-85113609D02*
X194529523Y-85018371D01*
X194529523Y-85018371D02*
X194434285Y-84970752D01*
X194434285Y-84970752D02*
X194243809Y-84970752D01*
X194243809Y-84970752D02*
X194148571Y-85018371D01*
X194577142Y-85589800D02*
X194481904Y-85637419D01*
X194481904Y-85637419D02*
X194243809Y-85637419D01*
X194243809Y-85637419D02*
X194148571Y-85589800D01*
X194148571Y-85589800D02*
X194100952Y-85494561D01*
X194100952Y-85494561D02*
X194100952Y-85399323D01*
X194100952Y-85399323D02*
X194148571Y-85304085D01*
X194148571Y-85304085D02*
X194243809Y-85256466D01*
X194243809Y-85256466D02*
X194481904Y-85256466D01*
X194481904Y-85256466D02*
X194577142Y-85208847D01*
X195053333Y-85637419D02*
X195053333Y-84637419D01*
X195148571Y-85256466D02*
X195434285Y-85637419D01*
X195434285Y-84970752D02*
X195053333Y-85351704D01*
X196005714Y-85637419D02*
X195910476Y-85589800D01*
X195910476Y-85589800D02*
X195862857Y-85542180D01*
X195862857Y-85542180D02*
X195815238Y-85446942D01*
X195815238Y-85446942D02*
X195815238Y-85161228D01*
X195815238Y-85161228D02*
X195862857Y-85065990D01*
X195862857Y-85065990D02*
X195910476Y-85018371D01*
X195910476Y-85018371D02*
X196005714Y-84970752D01*
X196005714Y-84970752D02*
X196148571Y-84970752D01*
X196148571Y-84970752D02*
X196243809Y-85018371D01*
X196243809Y-85018371D02*
X196291428Y-85065990D01*
X196291428Y-85065990D02*
X196339047Y-85161228D01*
X196339047Y-85161228D02*
X196339047Y-85446942D01*
X196339047Y-85446942D02*
X196291428Y-85542180D01*
X196291428Y-85542180D02*
X196243809Y-85589800D01*
X196243809Y-85589800D02*
X196148571Y-85637419D01*
X196148571Y-85637419D02*
X196005714Y-85637419D01*
X197196190Y-84970752D02*
X197196190Y-85637419D01*
X196767619Y-84970752D02*
X196767619Y-85494561D01*
X196767619Y-85494561D02*
X196815238Y-85589800D01*
X196815238Y-85589800D02*
X196910476Y-85637419D01*
X196910476Y-85637419D02*
X197053333Y-85637419D01*
X197053333Y-85637419D02*
X197148571Y-85589800D01*
X197148571Y-85589800D02*
X197196190Y-85542180D01*
X197529524Y-84970752D02*
X197910476Y-84970752D01*
X197672381Y-84637419D02*
X197672381Y-85494561D01*
X197672381Y-85494561D02*
X197720000Y-85589800D01*
X197720000Y-85589800D02*
X197815238Y-85637419D01*
X197815238Y-85637419D02*
X197910476Y-85637419D01*
X178105713Y-107113609D02*
X178248570Y-107161228D01*
X178248570Y-107161228D02*
X178296189Y-107208847D01*
X178296189Y-107208847D02*
X178343808Y-107304085D01*
X178343808Y-107304085D02*
X178343808Y-107446942D01*
X178343808Y-107446942D02*
X178296189Y-107542180D01*
X178296189Y-107542180D02*
X178248570Y-107589800D01*
X178248570Y-107589800D02*
X178153332Y-107637419D01*
X178153332Y-107637419D02*
X177772380Y-107637419D01*
X177772380Y-107637419D02*
X177772380Y-106637419D01*
X177772380Y-106637419D02*
X178105713Y-106637419D01*
X178105713Y-106637419D02*
X178200951Y-106685038D01*
X178200951Y-106685038D02*
X178248570Y-106732657D01*
X178248570Y-106732657D02*
X178296189Y-106827895D01*
X178296189Y-106827895D02*
X178296189Y-106923133D01*
X178296189Y-106923133D02*
X178248570Y-107018371D01*
X178248570Y-107018371D02*
X178200951Y-107065990D01*
X178200951Y-107065990D02*
X178105713Y-107113609D01*
X178105713Y-107113609D02*
X177772380Y-107113609D01*
X178772380Y-107637419D02*
X178772380Y-106970752D01*
X178772380Y-107161228D02*
X178819999Y-107065990D01*
X178819999Y-107065990D02*
X178867618Y-107018371D01*
X178867618Y-107018371D02*
X178962856Y-106970752D01*
X178962856Y-106970752D02*
X179058094Y-106970752D01*
X179772380Y-107589800D02*
X179677142Y-107637419D01*
X179677142Y-107637419D02*
X179486666Y-107637419D01*
X179486666Y-107637419D02*
X179391428Y-107589800D01*
X179391428Y-107589800D02*
X179343809Y-107494561D01*
X179343809Y-107494561D02*
X179343809Y-107113609D01*
X179343809Y-107113609D02*
X179391428Y-107018371D01*
X179391428Y-107018371D02*
X179486666Y-106970752D01*
X179486666Y-106970752D02*
X179677142Y-106970752D01*
X179677142Y-106970752D02*
X179772380Y-107018371D01*
X179772380Y-107018371D02*
X179819999Y-107113609D01*
X179819999Y-107113609D02*
X179819999Y-107208847D01*
X179819999Y-107208847D02*
X179343809Y-107304085D01*
X180677142Y-107637419D02*
X180677142Y-107113609D01*
X180677142Y-107113609D02*
X180629523Y-107018371D01*
X180629523Y-107018371D02*
X180534285Y-106970752D01*
X180534285Y-106970752D02*
X180343809Y-106970752D01*
X180343809Y-106970752D02*
X180248571Y-107018371D01*
X180677142Y-107589800D02*
X180581904Y-107637419D01*
X180581904Y-107637419D02*
X180343809Y-107637419D01*
X180343809Y-107637419D02*
X180248571Y-107589800D01*
X180248571Y-107589800D02*
X180200952Y-107494561D01*
X180200952Y-107494561D02*
X180200952Y-107399323D01*
X180200952Y-107399323D02*
X180248571Y-107304085D01*
X180248571Y-107304085D02*
X180343809Y-107256466D01*
X180343809Y-107256466D02*
X180581904Y-107256466D01*
X180581904Y-107256466D02*
X180677142Y-107208847D01*
X181153333Y-107637419D02*
X181153333Y-106637419D01*
X181248571Y-107256466D02*
X181534285Y-107637419D01*
X181534285Y-106970752D02*
X181153333Y-107351704D01*
X182105714Y-107637419D02*
X182010476Y-107589800D01*
X182010476Y-107589800D02*
X181962857Y-107542180D01*
X181962857Y-107542180D02*
X181915238Y-107446942D01*
X181915238Y-107446942D02*
X181915238Y-107161228D01*
X181915238Y-107161228D02*
X181962857Y-107065990D01*
X181962857Y-107065990D02*
X182010476Y-107018371D01*
X182010476Y-107018371D02*
X182105714Y-106970752D01*
X182105714Y-106970752D02*
X182248571Y-106970752D01*
X182248571Y-106970752D02*
X182343809Y-107018371D01*
X182343809Y-107018371D02*
X182391428Y-107065990D01*
X182391428Y-107065990D02*
X182439047Y-107161228D01*
X182439047Y-107161228D02*
X182439047Y-107446942D01*
X182439047Y-107446942D02*
X182391428Y-107542180D01*
X182391428Y-107542180D02*
X182343809Y-107589800D01*
X182343809Y-107589800D02*
X182248571Y-107637419D01*
X182248571Y-107637419D02*
X182105714Y-107637419D01*
X183296190Y-106970752D02*
X183296190Y-107637419D01*
X182867619Y-106970752D02*
X182867619Y-107494561D01*
X182867619Y-107494561D02*
X182915238Y-107589800D01*
X182915238Y-107589800D02*
X183010476Y-107637419D01*
X183010476Y-107637419D02*
X183153333Y-107637419D01*
X183153333Y-107637419D02*
X183248571Y-107589800D01*
X183248571Y-107589800D02*
X183296190Y-107542180D01*
X183629524Y-106970752D02*
X184010476Y-106970752D01*
X183772381Y-106637419D02*
X183772381Y-107494561D01*
X183772381Y-107494561D02*
X183820000Y-107589800D01*
X183820000Y-107589800D02*
X183915238Y-107637419D01*
X183915238Y-107637419D02*
X184010476Y-107637419D01*
X142005713Y-83646109D02*
X142148570Y-83693728D01*
X142148570Y-83693728D02*
X142196189Y-83741347D01*
X142196189Y-83741347D02*
X142243808Y-83836585D01*
X142243808Y-83836585D02*
X142243808Y-83979442D01*
X142243808Y-83979442D02*
X142196189Y-84074680D01*
X142196189Y-84074680D02*
X142148570Y-84122300D01*
X142148570Y-84122300D02*
X142053332Y-84169919D01*
X142053332Y-84169919D02*
X141672380Y-84169919D01*
X141672380Y-84169919D02*
X141672380Y-83169919D01*
X141672380Y-83169919D02*
X142005713Y-83169919D01*
X142005713Y-83169919D02*
X142100951Y-83217538D01*
X142100951Y-83217538D02*
X142148570Y-83265157D01*
X142148570Y-83265157D02*
X142196189Y-83360395D01*
X142196189Y-83360395D02*
X142196189Y-83455633D01*
X142196189Y-83455633D02*
X142148570Y-83550871D01*
X142148570Y-83550871D02*
X142100951Y-83598490D01*
X142100951Y-83598490D02*
X142005713Y-83646109D01*
X142005713Y-83646109D02*
X141672380Y-83646109D01*
X142672380Y-84169919D02*
X142672380Y-83503252D01*
X142672380Y-83693728D02*
X142719999Y-83598490D01*
X142719999Y-83598490D02*
X142767618Y-83550871D01*
X142767618Y-83550871D02*
X142862856Y-83503252D01*
X142862856Y-83503252D02*
X142958094Y-83503252D01*
X143672380Y-84122300D02*
X143577142Y-84169919D01*
X143577142Y-84169919D02*
X143386666Y-84169919D01*
X143386666Y-84169919D02*
X143291428Y-84122300D01*
X143291428Y-84122300D02*
X143243809Y-84027061D01*
X143243809Y-84027061D02*
X143243809Y-83646109D01*
X143243809Y-83646109D02*
X143291428Y-83550871D01*
X143291428Y-83550871D02*
X143386666Y-83503252D01*
X143386666Y-83503252D02*
X143577142Y-83503252D01*
X143577142Y-83503252D02*
X143672380Y-83550871D01*
X143672380Y-83550871D02*
X143719999Y-83646109D01*
X143719999Y-83646109D02*
X143719999Y-83741347D01*
X143719999Y-83741347D02*
X143243809Y-83836585D01*
X144577142Y-84169919D02*
X144577142Y-83646109D01*
X144577142Y-83646109D02*
X144529523Y-83550871D01*
X144529523Y-83550871D02*
X144434285Y-83503252D01*
X144434285Y-83503252D02*
X144243809Y-83503252D01*
X144243809Y-83503252D02*
X144148571Y-83550871D01*
X144577142Y-84122300D02*
X144481904Y-84169919D01*
X144481904Y-84169919D02*
X144243809Y-84169919D01*
X144243809Y-84169919D02*
X144148571Y-84122300D01*
X144148571Y-84122300D02*
X144100952Y-84027061D01*
X144100952Y-84027061D02*
X144100952Y-83931823D01*
X144100952Y-83931823D02*
X144148571Y-83836585D01*
X144148571Y-83836585D02*
X144243809Y-83788966D01*
X144243809Y-83788966D02*
X144481904Y-83788966D01*
X144481904Y-83788966D02*
X144577142Y-83741347D01*
X145053333Y-84169919D02*
X145053333Y-83169919D01*
X145148571Y-83788966D02*
X145434285Y-84169919D01*
X145434285Y-83503252D02*
X145053333Y-83884204D01*
X146005714Y-84169919D02*
X145910476Y-84122300D01*
X145910476Y-84122300D02*
X145862857Y-84074680D01*
X145862857Y-84074680D02*
X145815238Y-83979442D01*
X145815238Y-83979442D02*
X145815238Y-83693728D01*
X145815238Y-83693728D02*
X145862857Y-83598490D01*
X145862857Y-83598490D02*
X145910476Y-83550871D01*
X145910476Y-83550871D02*
X146005714Y-83503252D01*
X146005714Y-83503252D02*
X146148571Y-83503252D01*
X146148571Y-83503252D02*
X146243809Y-83550871D01*
X146243809Y-83550871D02*
X146291428Y-83598490D01*
X146291428Y-83598490D02*
X146339047Y-83693728D01*
X146339047Y-83693728D02*
X146339047Y-83979442D01*
X146339047Y-83979442D02*
X146291428Y-84074680D01*
X146291428Y-84074680D02*
X146243809Y-84122300D01*
X146243809Y-84122300D02*
X146148571Y-84169919D01*
X146148571Y-84169919D02*
X146005714Y-84169919D01*
X147196190Y-83503252D02*
X147196190Y-84169919D01*
X146767619Y-83503252D02*
X146767619Y-84027061D01*
X146767619Y-84027061D02*
X146815238Y-84122300D01*
X146815238Y-84122300D02*
X146910476Y-84169919D01*
X146910476Y-84169919D02*
X147053333Y-84169919D01*
X147053333Y-84169919D02*
X147148571Y-84122300D01*
X147148571Y-84122300D02*
X147196190Y-84074680D01*
X147529524Y-83503252D02*
X147910476Y-83503252D01*
X147672381Y-83169919D02*
X147672381Y-84027061D01*
X147672381Y-84027061D02*
X147720000Y-84122300D01*
X147720000Y-84122300D02*
X147815238Y-84169919D01*
X147815238Y-84169919D02*
X147910476Y-84169919D01*
X131857217Y-105088833D02*
X132000074Y-105136452D01*
X132000074Y-105136452D02*
X132047693Y-105184071D01*
X132047693Y-105184071D02*
X132095312Y-105279309D01*
X132095312Y-105279309D02*
X132095312Y-105422166D01*
X132095312Y-105422166D02*
X132047693Y-105517404D01*
X132047693Y-105517404D02*
X132000074Y-105565024D01*
X132000074Y-105565024D02*
X131904836Y-105612643D01*
X131904836Y-105612643D02*
X131523884Y-105612643D01*
X131523884Y-105612643D02*
X131523884Y-104612643D01*
X131523884Y-104612643D02*
X131857217Y-104612643D01*
X131857217Y-104612643D02*
X131952455Y-104660262D01*
X131952455Y-104660262D02*
X132000074Y-104707881D01*
X132000074Y-104707881D02*
X132047693Y-104803119D01*
X132047693Y-104803119D02*
X132047693Y-104898357D01*
X132047693Y-104898357D02*
X132000074Y-104993595D01*
X132000074Y-104993595D02*
X131952455Y-105041214D01*
X131952455Y-105041214D02*
X131857217Y-105088833D01*
X131857217Y-105088833D02*
X131523884Y-105088833D01*
X132666741Y-105612643D02*
X132571503Y-105565024D01*
X132571503Y-105565024D02*
X132523884Y-105517404D01*
X132523884Y-105517404D02*
X132476265Y-105422166D01*
X132476265Y-105422166D02*
X132476265Y-105136452D01*
X132476265Y-105136452D02*
X132523884Y-105041214D01*
X132523884Y-105041214D02*
X132571503Y-104993595D01*
X132571503Y-104993595D02*
X132666741Y-104945976D01*
X132666741Y-104945976D02*
X132809598Y-104945976D01*
X132809598Y-104945976D02*
X132904836Y-104993595D01*
X132904836Y-104993595D02*
X132952455Y-105041214D01*
X132952455Y-105041214D02*
X133000074Y-105136452D01*
X133000074Y-105136452D02*
X133000074Y-105422166D01*
X133000074Y-105422166D02*
X132952455Y-105517404D01*
X132952455Y-105517404D02*
X132904836Y-105565024D01*
X132904836Y-105565024D02*
X132809598Y-105612643D01*
X132809598Y-105612643D02*
X132666741Y-105612643D01*
X133857217Y-105612643D02*
X133857217Y-105088833D01*
X133857217Y-105088833D02*
X133809598Y-104993595D01*
X133809598Y-104993595D02*
X133714360Y-104945976D01*
X133714360Y-104945976D02*
X133523884Y-104945976D01*
X133523884Y-104945976D02*
X133428646Y-104993595D01*
X133857217Y-105565024D02*
X133761979Y-105612643D01*
X133761979Y-105612643D02*
X133523884Y-105612643D01*
X133523884Y-105612643D02*
X133428646Y-105565024D01*
X133428646Y-105565024D02*
X133381027Y-105469785D01*
X133381027Y-105469785D02*
X133381027Y-105374547D01*
X133381027Y-105374547D02*
X133428646Y-105279309D01*
X133428646Y-105279309D02*
X133523884Y-105231690D01*
X133523884Y-105231690D02*
X133761979Y-105231690D01*
X133761979Y-105231690D02*
X133857217Y-105184071D01*
X134190551Y-104945976D02*
X134571503Y-104945976D01*
X134333408Y-104612643D02*
X134333408Y-105469785D01*
X134333408Y-105469785D02*
X134381027Y-105565024D01*
X134381027Y-105565024D02*
X134476265Y-105612643D01*
X134476265Y-105612643D02*
X134571503Y-105612643D01*
X135095313Y-104612643D02*
X135285789Y-104612643D01*
X135285789Y-104612643D02*
X135381027Y-104660262D01*
X135381027Y-104660262D02*
X135476265Y-104755500D01*
X135476265Y-104755500D02*
X135523884Y-104945976D01*
X135523884Y-104945976D02*
X135523884Y-105279309D01*
X135523884Y-105279309D02*
X135476265Y-105469785D01*
X135476265Y-105469785D02*
X135381027Y-105565024D01*
X135381027Y-105565024D02*
X135285789Y-105612643D01*
X135285789Y-105612643D02*
X135095313Y-105612643D01*
X135095313Y-105612643D02*
X135000075Y-105565024D01*
X135000075Y-105565024D02*
X134904837Y-105469785D01*
X134904837Y-105469785D02*
X134857218Y-105279309D01*
X134857218Y-105279309D02*
X134857218Y-104945976D01*
X134857218Y-104945976D02*
X134904837Y-104755500D01*
X134904837Y-104755500D02*
X135000075Y-104660262D01*
X135000075Y-104660262D02*
X135095313Y-104612643D01*
X135952456Y-104945976D02*
X135952456Y-105945976D01*
X135952456Y-104993595D02*
X136047694Y-104945976D01*
X136047694Y-104945976D02*
X136238170Y-104945976D01*
X136238170Y-104945976D02*
X136333408Y-104993595D01*
X136333408Y-104993595D02*
X136381027Y-105041214D01*
X136381027Y-105041214D02*
X136428646Y-105136452D01*
X136428646Y-105136452D02*
X136428646Y-105422166D01*
X136428646Y-105422166D02*
X136381027Y-105517404D01*
X136381027Y-105517404D02*
X136333408Y-105565024D01*
X136333408Y-105565024D02*
X136238170Y-105612643D01*
X136238170Y-105612643D02*
X136047694Y-105612643D01*
X136047694Y-105612643D02*
X135952456Y-105565024D01*
X137238170Y-105565024D02*
X137142932Y-105612643D01*
X137142932Y-105612643D02*
X136952456Y-105612643D01*
X136952456Y-105612643D02*
X136857218Y-105565024D01*
X136857218Y-105565024D02*
X136809599Y-105469785D01*
X136809599Y-105469785D02*
X136809599Y-105088833D01*
X136809599Y-105088833D02*
X136857218Y-104993595D01*
X136857218Y-104993595D02*
X136952456Y-104945976D01*
X136952456Y-104945976D02*
X137142932Y-104945976D01*
X137142932Y-104945976D02*
X137238170Y-104993595D01*
X137238170Y-104993595D02*
X137285789Y-105088833D01*
X137285789Y-105088833D02*
X137285789Y-105184071D01*
X137285789Y-105184071D02*
X136809599Y-105279309D01*
X137714361Y-104945976D02*
X137714361Y-105612643D01*
X137714361Y-105041214D02*
X137761980Y-104993595D01*
X137761980Y-104993595D02*
X137857218Y-104945976D01*
X137857218Y-104945976D02*
X138000075Y-104945976D01*
X138000075Y-104945976D02*
X138095313Y-104993595D01*
X138095313Y-104993595D02*
X138142932Y-105088833D01*
X138142932Y-105088833D02*
X138142932Y-105612643D01*
X138619123Y-105612643D02*
X138619123Y-104612643D01*
X139285789Y-104612643D02*
X139476265Y-104612643D01*
X139476265Y-104612643D02*
X139571503Y-104660262D01*
X139571503Y-104660262D02*
X139666741Y-104755500D01*
X139666741Y-104755500D02*
X139714360Y-104945976D01*
X139714360Y-104945976D02*
X139714360Y-105279309D01*
X139714360Y-105279309D02*
X139666741Y-105469785D01*
X139666741Y-105469785D02*
X139571503Y-105565024D01*
X139571503Y-105565024D02*
X139476265Y-105612643D01*
X139476265Y-105612643D02*
X139285789Y-105612643D01*
X139285789Y-105612643D02*
X139190551Y-105565024D01*
X139190551Y-105565024D02*
X139095313Y-105469785D01*
X139095313Y-105469785D02*
X139047694Y-105279309D01*
X139047694Y-105279309D02*
X139047694Y-104945976D01*
X139047694Y-104945976D02*
X139095313Y-104755500D01*
X139095313Y-104755500D02*
X139190551Y-104660262D01*
X139190551Y-104660262D02*
X139285789Y-104612643D01*
X140904837Y-105231690D02*
X141666742Y-105231690D01*
X142761980Y-104612643D02*
X143095313Y-105612643D01*
X143095313Y-105612643D02*
X143428646Y-104612643D01*
X143714361Y-104707881D02*
X143761980Y-104660262D01*
X143761980Y-104660262D02*
X143857218Y-104612643D01*
X143857218Y-104612643D02*
X144095313Y-104612643D01*
X144095313Y-104612643D02*
X144190551Y-104660262D01*
X144190551Y-104660262D02*
X144238170Y-104707881D01*
X144238170Y-104707881D02*
X144285789Y-104803119D01*
X144285789Y-104803119D02*
X144285789Y-104898357D01*
X144285789Y-104898357D02*
X144238170Y-105041214D01*
X144238170Y-105041214D02*
X143666742Y-105612643D01*
X143666742Y-105612643D02*
X144285789Y-105612643D01*
X144714361Y-105517404D02*
X144761980Y-105565024D01*
X144761980Y-105565024D02*
X144714361Y-105612643D01*
X144714361Y-105612643D02*
X144666742Y-105565024D01*
X144666742Y-105565024D02*
X144714361Y-105517404D01*
X144714361Y-105517404D02*
X144714361Y-105612643D01*
X145381027Y-104612643D02*
X145476265Y-104612643D01*
X145476265Y-104612643D02*
X145571503Y-104660262D01*
X145571503Y-104660262D02*
X145619122Y-104707881D01*
X145619122Y-104707881D02*
X145666741Y-104803119D01*
X145666741Y-104803119D02*
X145714360Y-104993595D01*
X145714360Y-104993595D02*
X145714360Y-105231690D01*
X145714360Y-105231690D02*
X145666741Y-105422166D01*
X145666741Y-105422166D02*
X145619122Y-105517404D01*
X145619122Y-105517404D02*
X145571503Y-105565024D01*
X145571503Y-105565024D02*
X145476265Y-105612643D01*
X145476265Y-105612643D02*
X145381027Y-105612643D01*
X145381027Y-105612643D02*
X145285789Y-105565024D01*
X145285789Y-105565024D02*
X145238170Y-105517404D01*
X145238170Y-105517404D02*
X145190551Y-105422166D01*
X145190551Y-105422166D02*
X145142932Y-105231690D01*
X145142932Y-105231690D02*
X145142932Y-104993595D01*
X145142932Y-104993595D02*
X145190551Y-104803119D01*
X145190551Y-104803119D02*
X145238170Y-104707881D01*
X145238170Y-104707881D02*
X145285789Y-104660262D01*
X145285789Y-104660262D02*
X145381027Y-104612643D01*
X131476265Y-106317825D02*
X131523884Y-106270206D01*
X131523884Y-106270206D02*
X131619122Y-106222587D01*
X131619122Y-106222587D02*
X131857217Y-106222587D01*
X131857217Y-106222587D02*
X131952455Y-106270206D01*
X131952455Y-106270206D02*
X132000074Y-106317825D01*
X132000074Y-106317825D02*
X132047693Y-106413063D01*
X132047693Y-106413063D02*
X132047693Y-106508301D01*
X132047693Y-106508301D02*
X132000074Y-106651158D01*
X132000074Y-106651158D02*
X131428646Y-107222587D01*
X131428646Y-107222587D02*
X132047693Y-107222587D01*
X132666741Y-106222587D02*
X132761979Y-106222587D01*
X132761979Y-106222587D02*
X132857217Y-106270206D01*
X132857217Y-106270206D02*
X132904836Y-106317825D01*
X132904836Y-106317825D02*
X132952455Y-106413063D01*
X132952455Y-106413063D02*
X133000074Y-106603539D01*
X133000074Y-106603539D02*
X133000074Y-106841634D01*
X133000074Y-106841634D02*
X132952455Y-107032110D01*
X132952455Y-107032110D02*
X132904836Y-107127348D01*
X132904836Y-107127348D02*
X132857217Y-107174968D01*
X132857217Y-107174968D02*
X132761979Y-107222587D01*
X132761979Y-107222587D02*
X132666741Y-107222587D01*
X132666741Y-107222587D02*
X132571503Y-107174968D01*
X132571503Y-107174968D02*
X132523884Y-107127348D01*
X132523884Y-107127348D02*
X132476265Y-107032110D01*
X132476265Y-107032110D02*
X132428646Y-106841634D01*
X132428646Y-106841634D02*
X132428646Y-106603539D01*
X132428646Y-106603539D02*
X132476265Y-106413063D01*
X132476265Y-106413063D02*
X132523884Y-106317825D01*
X132523884Y-106317825D02*
X132571503Y-106270206D01*
X132571503Y-106270206D02*
X132666741Y-106222587D01*
X133381027Y-106317825D02*
X133428646Y-106270206D01*
X133428646Y-106270206D02*
X133523884Y-106222587D01*
X133523884Y-106222587D02*
X133761979Y-106222587D01*
X133761979Y-106222587D02*
X133857217Y-106270206D01*
X133857217Y-106270206D02*
X133904836Y-106317825D01*
X133904836Y-106317825D02*
X133952455Y-106413063D01*
X133952455Y-106413063D02*
X133952455Y-106508301D01*
X133952455Y-106508301D02*
X133904836Y-106651158D01*
X133904836Y-106651158D02*
X133333408Y-107222587D01*
X133333408Y-107222587D02*
X133952455Y-107222587D01*
X134809598Y-106222587D02*
X134619122Y-106222587D01*
X134619122Y-106222587D02*
X134523884Y-106270206D01*
X134523884Y-106270206D02*
X134476265Y-106317825D01*
X134476265Y-106317825D02*
X134381027Y-106460682D01*
X134381027Y-106460682D02*
X134333408Y-106651158D01*
X134333408Y-106651158D02*
X134333408Y-107032110D01*
X134333408Y-107032110D02*
X134381027Y-107127348D01*
X134381027Y-107127348D02*
X134428646Y-107174968D01*
X134428646Y-107174968D02*
X134523884Y-107222587D01*
X134523884Y-107222587D02*
X134714360Y-107222587D01*
X134714360Y-107222587D02*
X134809598Y-107174968D01*
X134809598Y-107174968D02*
X134857217Y-107127348D01*
X134857217Y-107127348D02*
X134904836Y-107032110D01*
X134904836Y-107032110D02*
X134904836Y-106794015D01*
X134904836Y-106794015D02*
X134857217Y-106698777D01*
X134857217Y-106698777D02*
X134809598Y-106651158D01*
X134809598Y-106651158D02*
X134714360Y-106603539D01*
X134714360Y-106603539D02*
X134523884Y-106603539D01*
X134523884Y-106603539D02*
X134428646Y-106651158D01*
X134428646Y-106651158D02*
X134381027Y-106698777D01*
X134381027Y-106698777D02*
X134333408Y-106794015D01*
X136095313Y-106841634D02*
X136857218Y-106841634D01*
X138095313Y-107222587D02*
X138095313Y-106222587D01*
X138095313Y-106603539D02*
X138190551Y-106555920D01*
X138190551Y-106555920D02*
X138381027Y-106555920D01*
X138381027Y-106555920D02*
X138476265Y-106603539D01*
X138476265Y-106603539D02*
X138523884Y-106651158D01*
X138523884Y-106651158D02*
X138571503Y-106746396D01*
X138571503Y-106746396D02*
X138571503Y-107032110D01*
X138571503Y-107032110D02*
X138523884Y-107127348D01*
X138523884Y-107127348D02*
X138476265Y-107174968D01*
X138476265Y-107174968D02*
X138381027Y-107222587D01*
X138381027Y-107222587D02*
X138190551Y-107222587D01*
X138190551Y-107222587D02*
X138095313Y-107174968D01*
X139000075Y-107222587D02*
X139000075Y-106555920D01*
X139000075Y-106222587D02*
X138952456Y-106270206D01*
X138952456Y-106270206D02*
X139000075Y-106317825D01*
X139000075Y-106317825D02*
X139047694Y-106270206D01*
X139047694Y-106270206D02*
X139000075Y-106222587D01*
X139000075Y-106222587D02*
X139000075Y-106317825D01*
X139904836Y-106555920D02*
X139904836Y-107365444D01*
X139904836Y-107365444D02*
X139857217Y-107460682D01*
X139857217Y-107460682D02*
X139809598Y-107508301D01*
X139809598Y-107508301D02*
X139714360Y-107555920D01*
X139714360Y-107555920D02*
X139571503Y-107555920D01*
X139571503Y-107555920D02*
X139476265Y-107508301D01*
X139904836Y-107174968D02*
X139809598Y-107222587D01*
X139809598Y-107222587D02*
X139619122Y-107222587D01*
X139619122Y-107222587D02*
X139523884Y-107174968D01*
X139523884Y-107174968D02*
X139476265Y-107127348D01*
X139476265Y-107127348D02*
X139428646Y-107032110D01*
X139428646Y-107032110D02*
X139428646Y-106746396D01*
X139428646Y-106746396D02*
X139476265Y-106651158D01*
X139476265Y-106651158D02*
X139523884Y-106603539D01*
X139523884Y-106603539D02*
X139619122Y-106555920D01*
X139619122Y-106555920D02*
X139809598Y-106555920D01*
X139809598Y-106555920D02*
X139904836Y-106603539D01*
X140381027Y-107222587D02*
X140381027Y-106222587D01*
X140381027Y-106603539D02*
X140476265Y-106555920D01*
X140476265Y-106555920D02*
X140666741Y-106555920D01*
X140666741Y-106555920D02*
X140761979Y-106603539D01*
X140761979Y-106603539D02*
X140809598Y-106651158D01*
X140809598Y-106651158D02*
X140857217Y-106746396D01*
X140857217Y-106746396D02*
X140857217Y-107032110D01*
X140857217Y-107032110D02*
X140809598Y-107127348D01*
X140809598Y-107127348D02*
X140761979Y-107174968D01*
X140761979Y-107174968D02*
X140666741Y-107222587D01*
X140666741Y-107222587D02*
X140476265Y-107222587D01*
X140476265Y-107222587D02*
X140381027Y-107174968D01*
X141285789Y-107222587D02*
X141285789Y-106555920D01*
X141285789Y-106746396D02*
X141333408Y-106651158D01*
X141333408Y-106651158D02*
X141381027Y-106603539D01*
X141381027Y-106603539D02*
X141476265Y-106555920D01*
X141476265Y-106555920D02*
X141571503Y-106555920D01*
X142333408Y-107222587D02*
X142333408Y-106698777D01*
X142333408Y-106698777D02*
X142285789Y-106603539D01*
X142285789Y-106603539D02*
X142190551Y-106555920D01*
X142190551Y-106555920D02*
X142000075Y-106555920D01*
X142000075Y-106555920D02*
X141904837Y-106603539D01*
X142333408Y-107174968D02*
X142238170Y-107222587D01*
X142238170Y-107222587D02*
X142000075Y-107222587D01*
X142000075Y-107222587D02*
X141904837Y-107174968D01*
X141904837Y-107174968D02*
X141857218Y-107079729D01*
X141857218Y-107079729D02*
X141857218Y-106984491D01*
X141857218Y-106984491D02*
X141904837Y-106889253D01*
X141904837Y-106889253D02*
X142000075Y-106841634D01*
X142000075Y-106841634D02*
X142238170Y-106841634D01*
X142238170Y-106841634D02*
X142333408Y-106794015D01*
X142809599Y-107222587D02*
X142809599Y-106555920D01*
X142809599Y-106222587D02*
X142761980Y-106270206D01*
X142761980Y-106270206D02*
X142809599Y-106317825D01*
X142809599Y-106317825D02*
X142857218Y-106270206D01*
X142857218Y-106270206D02*
X142809599Y-106222587D01*
X142809599Y-106222587D02*
X142809599Y-106317825D01*
X143285789Y-106555920D02*
X143285789Y-107222587D01*
X143285789Y-106651158D02*
X143333408Y-106603539D01*
X143333408Y-106603539D02*
X143428646Y-106555920D01*
X143428646Y-106555920D02*
X143571503Y-106555920D01*
X143571503Y-106555920D02*
X143666741Y-106603539D01*
X143666741Y-106603539D02*
X143714360Y-106698777D01*
X143714360Y-106698777D02*
X143714360Y-107222587D01*
X144333408Y-107222587D02*
X144238170Y-107174968D01*
X144238170Y-107174968D02*
X144190551Y-107079729D01*
X144190551Y-107079729D02*
X144190551Y-106222587D01*
X145142932Y-107222587D02*
X145142932Y-106698777D01*
X145142932Y-106698777D02*
X145095313Y-106603539D01*
X145095313Y-106603539D02*
X145000075Y-106555920D01*
X145000075Y-106555920D02*
X144809599Y-106555920D01*
X144809599Y-106555920D02*
X144714361Y-106603539D01*
X145142932Y-107174968D02*
X145047694Y-107222587D01*
X145047694Y-107222587D02*
X144809599Y-107222587D01*
X144809599Y-107222587D02*
X144714361Y-107174968D01*
X144714361Y-107174968D02*
X144666742Y-107079729D01*
X144666742Y-107079729D02*
X144666742Y-106984491D01*
X144666742Y-106984491D02*
X144714361Y-106889253D01*
X144714361Y-106889253D02*
X144809599Y-106841634D01*
X144809599Y-106841634D02*
X145047694Y-106841634D01*
X145047694Y-106841634D02*
X145142932Y-106794015D01*
X145619123Y-107222587D02*
X145619123Y-106222587D01*
X145619123Y-106603539D02*
X145714361Y-106555920D01*
X145714361Y-106555920D02*
X145904837Y-106555920D01*
X145904837Y-106555920D02*
X146000075Y-106603539D01*
X146000075Y-106603539D02*
X146047694Y-106651158D01*
X146047694Y-106651158D02*
X146095313Y-106746396D01*
X146095313Y-106746396D02*
X146095313Y-107032110D01*
X146095313Y-107032110D02*
X146047694Y-107127348D01*
X146047694Y-107127348D02*
X146000075Y-107174968D01*
X146000075Y-107174968D02*
X145904837Y-107222587D01*
X145904837Y-107222587D02*
X145714361Y-107222587D01*
X145714361Y-107222587D02*
X145619123Y-107174968D01*
X146476266Y-107174968D02*
X146571504Y-107222587D01*
X146571504Y-107222587D02*
X146761980Y-107222587D01*
X146761980Y-107222587D02*
X146857218Y-107174968D01*
X146857218Y-107174968D02*
X146904837Y-107079729D01*
X146904837Y-107079729D02*
X146904837Y-107032110D01*
X146904837Y-107032110D02*
X146857218Y-106936872D01*
X146857218Y-106936872D02*
X146761980Y-106889253D01*
X146761980Y-106889253D02*
X146619123Y-106889253D01*
X146619123Y-106889253D02*
X146523885Y-106841634D01*
X146523885Y-106841634D02*
X146476266Y-106746396D01*
X146476266Y-106746396D02*
X146476266Y-106698777D01*
X146476266Y-106698777D02*
X146523885Y-106603539D01*
X146523885Y-106603539D02*
X146619123Y-106555920D01*
X146619123Y-106555920D02*
X146761980Y-106555920D01*
X146761980Y-106555920D02*
X146857218Y-106603539D01*
X131952455Y-109775808D02*
X131952455Y-110585332D01*
X131952455Y-110585332D02*
X131904836Y-110680570D01*
X131904836Y-110680570D02*
X131857217Y-110728189D01*
X131857217Y-110728189D02*
X131761979Y-110775808D01*
X131761979Y-110775808D02*
X131619122Y-110775808D01*
X131619122Y-110775808D02*
X131523884Y-110728189D01*
X131952455Y-110394856D02*
X131857217Y-110442475D01*
X131857217Y-110442475D02*
X131666741Y-110442475D01*
X131666741Y-110442475D02*
X131571503Y-110394856D01*
X131571503Y-110394856D02*
X131523884Y-110347236D01*
X131523884Y-110347236D02*
X131476265Y-110251998D01*
X131476265Y-110251998D02*
X131476265Y-109966284D01*
X131476265Y-109966284D02*
X131523884Y-109871046D01*
X131523884Y-109871046D02*
X131571503Y-109823427D01*
X131571503Y-109823427D02*
X131666741Y-109775808D01*
X131666741Y-109775808D02*
X131857217Y-109775808D01*
X131857217Y-109775808D02*
X131952455Y-109823427D01*
X132428646Y-110442475D02*
X132428646Y-109775808D01*
X132428646Y-109442475D02*
X132381027Y-109490094D01*
X132381027Y-109490094D02*
X132428646Y-109537713D01*
X132428646Y-109537713D02*
X132476265Y-109490094D01*
X132476265Y-109490094D02*
X132428646Y-109442475D01*
X132428646Y-109442475D02*
X132428646Y-109537713D01*
X132761979Y-109775808D02*
X133142931Y-109775808D01*
X132904836Y-109442475D02*
X132904836Y-110299617D01*
X132904836Y-110299617D02*
X132952455Y-110394856D01*
X132952455Y-110394856D02*
X133047693Y-110442475D01*
X133047693Y-110442475D02*
X133142931Y-110442475D01*
X133476265Y-110442475D02*
X133476265Y-109442475D01*
X133904836Y-110442475D02*
X133904836Y-109918665D01*
X133904836Y-109918665D02*
X133857217Y-109823427D01*
X133857217Y-109823427D02*
X133761979Y-109775808D01*
X133761979Y-109775808D02*
X133619122Y-109775808D01*
X133619122Y-109775808D02*
X133523884Y-109823427D01*
X133523884Y-109823427D02*
X133476265Y-109871046D01*
X134809598Y-109775808D02*
X134809598Y-110442475D01*
X134381027Y-109775808D02*
X134381027Y-110299617D01*
X134381027Y-110299617D02*
X134428646Y-110394856D01*
X134428646Y-110394856D02*
X134523884Y-110442475D01*
X134523884Y-110442475D02*
X134666741Y-110442475D01*
X134666741Y-110442475D02*
X134761979Y-110394856D01*
X134761979Y-110394856D02*
X134809598Y-110347236D01*
X135285789Y-110442475D02*
X135285789Y-109442475D01*
X135285789Y-109823427D02*
X135381027Y-109775808D01*
X135381027Y-109775808D02*
X135571503Y-109775808D01*
X135571503Y-109775808D02*
X135666741Y-109823427D01*
X135666741Y-109823427D02*
X135714360Y-109871046D01*
X135714360Y-109871046D02*
X135761979Y-109966284D01*
X135761979Y-109966284D02*
X135761979Y-110251998D01*
X135761979Y-110251998D02*
X135714360Y-110347236D01*
X135714360Y-110347236D02*
X135666741Y-110394856D01*
X135666741Y-110394856D02*
X135571503Y-110442475D01*
X135571503Y-110442475D02*
X135381027Y-110442475D01*
X135381027Y-110442475D02*
X135285789Y-110394856D01*
X136190551Y-110347236D02*
X136238170Y-110394856D01*
X136238170Y-110394856D02*
X136190551Y-110442475D01*
X136190551Y-110442475D02*
X136142932Y-110394856D01*
X136142932Y-110394856D02*
X136190551Y-110347236D01*
X136190551Y-110347236D02*
X136190551Y-110442475D01*
X137095312Y-110394856D02*
X137000074Y-110442475D01*
X137000074Y-110442475D02*
X136809598Y-110442475D01*
X136809598Y-110442475D02*
X136714360Y-110394856D01*
X136714360Y-110394856D02*
X136666741Y-110347236D01*
X136666741Y-110347236D02*
X136619122Y-110251998D01*
X136619122Y-110251998D02*
X136619122Y-109966284D01*
X136619122Y-109966284D02*
X136666741Y-109871046D01*
X136666741Y-109871046D02*
X136714360Y-109823427D01*
X136714360Y-109823427D02*
X136809598Y-109775808D01*
X136809598Y-109775808D02*
X137000074Y-109775808D01*
X137000074Y-109775808D02*
X137095312Y-109823427D01*
X137666741Y-110442475D02*
X137571503Y-110394856D01*
X137571503Y-110394856D02*
X137523884Y-110347236D01*
X137523884Y-110347236D02*
X137476265Y-110251998D01*
X137476265Y-110251998D02*
X137476265Y-109966284D01*
X137476265Y-109966284D02*
X137523884Y-109871046D01*
X137523884Y-109871046D02*
X137571503Y-109823427D01*
X137571503Y-109823427D02*
X137666741Y-109775808D01*
X137666741Y-109775808D02*
X137809598Y-109775808D01*
X137809598Y-109775808D02*
X137904836Y-109823427D01*
X137904836Y-109823427D02*
X137952455Y-109871046D01*
X137952455Y-109871046D02*
X138000074Y-109966284D01*
X138000074Y-109966284D02*
X138000074Y-110251998D01*
X138000074Y-110251998D02*
X137952455Y-110347236D01*
X137952455Y-110347236D02*
X137904836Y-110394856D01*
X137904836Y-110394856D02*
X137809598Y-110442475D01*
X137809598Y-110442475D02*
X137666741Y-110442475D01*
X138428646Y-110442475D02*
X138428646Y-109775808D01*
X138428646Y-109871046D02*
X138476265Y-109823427D01*
X138476265Y-109823427D02*
X138571503Y-109775808D01*
X138571503Y-109775808D02*
X138714360Y-109775808D01*
X138714360Y-109775808D02*
X138809598Y-109823427D01*
X138809598Y-109823427D02*
X138857217Y-109918665D01*
X138857217Y-109918665D02*
X138857217Y-110442475D01*
X138857217Y-109918665D02*
X138904836Y-109823427D01*
X138904836Y-109823427D02*
X139000074Y-109775808D01*
X139000074Y-109775808D02*
X139142931Y-109775808D01*
X139142931Y-109775808D02*
X139238170Y-109823427D01*
X139238170Y-109823427D02*
X139285789Y-109918665D01*
X139285789Y-109918665D02*
X139285789Y-110442475D01*
X140476264Y-109394856D02*
X139619122Y-110680570D01*
X140809598Y-110442475D02*
X140809598Y-109442475D01*
X140809598Y-109823427D02*
X140904836Y-109775808D01*
X140904836Y-109775808D02*
X141095312Y-109775808D01*
X141095312Y-109775808D02*
X141190550Y-109823427D01*
X141190550Y-109823427D02*
X141238169Y-109871046D01*
X141238169Y-109871046D02*
X141285788Y-109966284D01*
X141285788Y-109966284D02*
X141285788Y-110251998D01*
X141285788Y-110251998D02*
X141238169Y-110347236D01*
X141238169Y-110347236D02*
X141190550Y-110394856D01*
X141190550Y-110394856D02*
X141095312Y-110442475D01*
X141095312Y-110442475D02*
X140904836Y-110442475D01*
X140904836Y-110442475D02*
X140809598Y-110394856D01*
X141714360Y-110442475D02*
X141714360Y-109775808D01*
X141714360Y-109442475D02*
X141666741Y-109490094D01*
X141666741Y-109490094D02*
X141714360Y-109537713D01*
X141714360Y-109537713D02*
X141761979Y-109490094D01*
X141761979Y-109490094D02*
X141714360Y-109442475D01*
X141714360Y-109442475D02*
X141714360Y-109537713D01*
X142619121Y-109775808D02*
X142619121Y-110585332D01*
X142619121Y-110585332D02*
X142571502Y-110680570D01*
X142571502Y-110680570D02*
X142523883Y-110728189D01*
X142523883Y-110728189D02*
X142428645Y-110775808D01*
X142428645Y-110775808D02*
X142285788Y-110775808D01*
X142285788Y-110775808D02*
X142190550Y-110728189D01*
X142619121Y-110394856D02*
X142523883Y-110442475D01*
X142523883Y-110442475D02*
X142333407Y-110442475D01*
X142333407Y-110442475D02*
X142238169Y-110394856D01*
X142238169Y-110394856D02*
X142190550Y-110347236D01*
X142190550Y-110347236D02*
X142142931Y-110251998D01*
X142142931Y-110251998D02*
X142142931Y-109966284D01*
X142142931Y-109966284D02*
X142190550Y-109871046D01*
X142190550Y-109871046D02*
X142238169Y-109823427D01*
X142238169Y-109823427D02*
X142333407Y-109775808D01*
X142333407Y-109775808D02*
X142523883Y-109775808D01*
X142523883Y-109775808D02*
X142619121Y-109823427D01*
X143095312Y-110442475D02*
X143095312Y-109442475D01*
X143095312Y-109823427D02*
X143190550Y-109775808D01*
X143190550Y-109775808D02*
X143381026Y-109775808D01*
X143381026Y-109775808D02*
X143476264Y-109823427D01*
X143476264Y-109823427D02*
X143523883Y-109871046D01*
X143523883Y-109871046D02*
X143571502Y-109966284D01*
X143571502Y-109966284D02*
X143571502Y-110251998D01*
X143571502Y-110251998D02*
X143523883Y-110347236D01*
X143523883Y-110347236D02*
X143476264Y-110394856D01*
X143476264Y-110394856D02*
X143381026Y-110442475D01*
X143381026Y-110442475D02*
X143190550Y-110442475D01*
X143190550Y-110442475D02*
X143095312Y-110394856D01*
X144000074Y-110442475D02*
X144000074Y-109775808D01*
X144000074Y-109966284D02*
X144047693Y-109871046D01*
X144047693Y-109871046D02*
X144095312Y-109823427D01*
X144095312Y-109823427D02*
X144190550Y-109775808D01*
X144190550Y-109775808D02*
X144285788Y-109775808D01*
X145047693Y-110442475D02*
X145047693Y-109918665D01*
X145047693Y-109918665D02*
X145000074Y-109823427D01*
X145000074Y-109823427D02*
X144904836Y-109775808D01*
X144904836Y-109775808D02*
X144714360Y-109775808D01*
X144714360Y-109775808D02*
X144619122Y-109823427D01*
X145047693Y-110394856D02*
X144952455Y-110442475D01*
X144952455Y-110442475D02*
X144714360Y-110442475D01*
X144714360Y-110442475D02*
X144619122Y-110394856D01*
X144619122Y-110394856D02*
X144571503Y-110299617D01*
X144571503Y-110299617D02*
X144571503Y-110204379D01*
X144571503Y-110204379D02*
X144619122Y-110109141D01*
X144619122Y-110109141D02*
X144714360Y-110061522D01*
X144714360Y-110061522D02*
X144952455Y-110061522D01*
X144952455Y-110061522D02*
X145047693Y-110013903D01*
X145523884Y-110442475D02*
X145523884Y-109775808D01*
X145523884Y-109442475D02*
X145476265Y-109490094D01*
X145476265Y-109490094D02*
X145523884Y-109537713D01*
X145523884Y-109537713D02*
X145571503Y-109490094D01*
X145571503Y-109490094D02*
X145523884Y-109442475D01*
X145523884Y-109442475D02*
X145523884Y-109537713D01*
X146000074Y-109775808D02*
X146000074Y-110442475D01*
X146000074Y-109871046D02*
X146047693Y-109823427D01*
X146047693Y-109823427D02*
X146142931Y-109775808D01*
X146142931Y-109775808D02*
X146285788Y-109775808D01*
X146285788Y-109775808D02*
X146381026Y-109823427D01*
X146381026Y-109823427D02*
X146428645Y-109918665D01*
X146428645Y-109918665D02*
X146428645Y-110442475D01*
X147047693Y-110442475D02*
X146952455Y-110394856D01*
X146952455Y-110394856D02*
X146904836Y-110299617D01*
X146904836Y-110299617D02*
X146904836Y-109442475D01*
X147857217Y-110442475D02*
X147857217Y-109918665D01*
X147857217Y-109918665D02*
X147809598Y-109823427D01*
X147809598Y-109823427D02*
X147714360Y-109775808D01*
X147714360Y-109775808D02*
X147523884Y-109775808D01*
X147523884Y-109775808D02*
X147428646Y-109823427D01*
X147857217Y-110394856D02*
X147761979Y-110442475D01*
X147761979Y-110442475D02*
X147523884Y-110442475D01*
X147523884Y-110442475D02*
X147428646Y-110394856D01*
X147428646Y-110394856D02*
X147381027Y-110299617D01*
X147381027Y-110299617D02*
X147381027Y-110204379D01*
X147381027Y-110204379D02*
X147428646Y-110109141D01*
X147428646Y-110109141D02*
X147523884Y-110061522D01*
X147523884Y-110061522D02*
X147761979Y-110061522D01*
X147761979Y-110061522D02*
X147857217Y-110013903D01*
X148333408Y-110442475D02*
X148333408Y-109442475D01*
X148333408Y-109823427D02*
X148428646Y-109775808D01*
X148428646Y-109775808D02*
X148619122Y-109775808D01*
X148619122Y-109775808D02*
X148714360Y-109823427D01*
X148714360Y-109823427D02*
X148761979Y-109871046D01*
X148761979Y-109871046D02*
X148809598Y-109966284D01*
X148809598Y-109966284D02*
X148809598Y-110251998D01*
X148809598Y-110251998D02*
X148761979Y-110347236D01*
X148761979Y-110347236D02*
X148714360Y-110394856D01*
X148714360Y-110394856D02*
X148619122Y-110442475D01*
X148619122Y-110442475D02*
X148428646Y-110442475D01*
X148428646Y-110442475D02*
X148333408Y-110394856D01*
X149190551Y-110394856D02*
X149285789Y-110442475D01*
X149285789Y-110442475D02*
X149476265Y-110442475D01*
X149476265Y-110442475D02*
X149571503Y-110394856D01*
X149571503Y-110394856D02*
X149619122Y-110299617D01*
X149619122Y-110299617D02*
X149619122Y-110251998D01*
X149619122Y-110251998D02*
X149571503Y-110156760D01*
X149571503Y-110156760D02*
X149476265Y-110109141D01*
X149476265Y-110109141D02*
X149333408Y-110109141D01*
X149333408Y-110109141D02*
X149238170Y-110061522D01*
X149238170Y-110061522D02*
X149190551Y-109966284D01*
X149190551Y-109966284D02*
X149190551Y-109918665D01*
X149190551Y-109918665D02*
X149238170Y-109823427D01*
X149238170Y-109823427D02*
X149333408Y-109775808D01*
X149333408Y-109775808D02*
X149476265Y-109775808D01*
X149476265Y-109775808D02*
X149571503Y-109823427D01*
X150761979Y-109394856D02*
X149904837Y-110680570D01*
X151428646Y-109918665D02*
X151571503Y-109966284D01*
X151571503Y-109966284D02*
X151619122Y-110013903D01*
X151619122Y-110013903D02*
X151666741Y-110109141D01*
X151666741Y-110109141D02*
X151666741Y-110251998D01*
X151666741Y-110251998D02*
X151619122Y-110347236D01*
X151619122Y-110347236D02*
X151571503Y-110394856D01*
X151571503Y-110394856D02*
X151476265Y-110442475D01*
X151476265Y-110442475D02*
X151095313Y-110442475D01*
X151095313Y-110442475D02*
X151095313Y-109442475D01*
X151095313Y-109442475D02*
X151428646Y-109442475D01*
X151428646Y-109442475D02*
X151523884Y-109490094D01*
X151523884Y-109490094D02*
X151571503Y-109537713D01*
X151571503Y-109537713D02*
X151619122Y-109632951D01*
X151619122Y-109632951D02*
X151619122Y-109728189D01*
X151619122Y-109728189D02*
X151571503Y-109823427D01*
X151571503Y-109823427D02*
X151523884Y-109871046D01*
X151523884Y-109871046D02*
X151428646Y-109918665D01*
X151428646Y-109918665D02*
X151095313Y-109918665D01*
X152238170Y-110442475D02*
X152142932Y-110394856D01*
X152142932Y-110394856D02*
X152095313Y-110347236D01*
X152095313Y-110347236D02*
X152047694Y-110251998D01*
X152047694Y-110251998D02*
X152047694Y-109966284D01*
X152047694Y-109966284D02*
X152095313Y-109871046D01*
X152095313Y-109871046D02*
X152142932Y-109823427D01*
X152142932Y-109823427D02*
X152238170Y-109775808D01*
X152238170Y-109775808D02*
X152381027Y-109775808D01*
X152381027Y-109775808D02*
X152476265Y-109823427D01*
X152476265Y-109823427D02*
X152523884Y-109871046D01*
X152523884Y-109871046D02*
X152571503Y-109966284D01*
X152571503Y-109966284D02*
X152571503Y-110251998D01*
X152571503Y-110251998D02*
X152523884Y-110347236D01*
X152523884Y-110347236D02*
X152476265Y-110394856D01*
X152476265Y-110394856D02*
X152381027Y-110442475D01*
X152381027Y-110442475D02*
X152238170Y-110442475D01*
X153428646Y-110442475D02*
X153428646Y-109918665D01*
X153428646Y-109918665D02*
X153381027Y-109823427D01*
X153381027Y-109823427D02*
X153285789Y-109775808D01*
X153285789Y-109775808D02*
X153095313Y-109775808D01*
X153095313Y-109775808D02*
X153000075Y-109823427D01*
X153428646Y-110394856D02*
X153333408Y-110442475D01*
X153333408Y-110442475D02*
X153095313Y-110442475D01*
X153095313Y-110442475D02*
X153000075Y-110394856D01*
X153000075Y-110394856D02*
X152952456Y-110299617D01*
X152952456Y-110299617D02*
X152952456Y-110204379D01*
X152952456Y-110204379D02*
X153000075Y-110109141D01*
X153000075Y-110109141D02*
X153095313Y-110061522D01*
X153095313Y-110061522D02*
X153333408Y-110061522D01*
X153333408Y-110061522D02*
X153428646Y-110013903D01*
X153761980Y-109775808D02*
X154142932Y-109775808D01*
X153904837Y-109442475D02*
X153904837Y-110299617D01*
X153904837Y-110299617D02*
X153952456Y-110394856D01*
X153952456Y-110394856D02*
X154047694Y-110442475D01*
X154047694Y-110442475D02*
X154142932Y-110442475D01*
X154666742Y-109442475D02*
X154857218Y-109442475D01*
X154857218Y-109442475D02*
X154952456Y-109490094D01*
X154952456Y-109490094D02*
X155047694Y-109585332D01*
X155047694Y-109585332D02*
X155095313Y-109775808D01*
X155095313Y-109775808D02*
X155095313Y-110109141D01*
X155095313Y-110109141D02*
X155047694Y-110299617D01*
X155047694Y-110299617D02*
X154952456Y-110394856D01*
X154952456Y-110394856D02*
X154857218Y-110442475D01*
X154857218Y-110442475D02*
X154666742Y-110442475D01*
X154666742Y-110442475D02*
X154571504Y-110394856D01*
X154571504Y-110394856D02*
X154476266Y-110299617D01*
X154476266Y-110299617D02*
X154428647Y-110109141D01*
X154428647Y-110109141D02*
X154428647Y-109775808D01*
X154428647Y-109775808D02*
X154476266Y-109585332D01*
X154476266Y-109585332D02*
X154571504Y-109490094D01*
X154571504Y-109490094D02*
X154666742Y-109442475D01*
X155523885Y-109775808D02*
X155523885Y-110775808D01*
X155523885Y-109823427D02*
X155619123Y-109775808D01*
X155619123Y-109775808D02*
X155809599Y-109775808D01*
X155809599Y-109775808D02*
X155904837Y-109823427D01*
X155904837Y-109823427D02*
X155952456Y-109871046D01*
X155952456Y-109871046D02*
X156000075Y-109966284D01*
X156000075Y-109966284D02*
X156000075Y-110251998D01*
X156000075Y-110251998D02*
X155952456Y-110347236D01*
X155952456Y-110347236D02*
X155904837Y-110394856D01*
X155904837Y-110394856D02*
X155809599Y-110442475D01*
X155809599Y-110442475D02*
X155619123Y-110442475D01*
X155619123Y-110442475D02*
X155523885Y-110394856D01*
X156809599Y-110394856D02*
X156714361Y-110442475D01*
X156714361Y-110442475D02*
X156523885Y-110442475D01*
X156523885Y-110442475D02*
X156428647Y-110394856D01*
X156428647Y-110394856D02*
X156381028Y-110299617D01*
X156381028Y-110299617D02*
X156381028Y-109918665D01*
X156381028Y-109918665D02*
X156428647Y-109823427D01*
X156428647Y-109823427D02*
X156523885Y-109775808D01*
X156523885Y-109775808D02*
X156714361Y-109775808D01*
X156714361Y-109775808D02*
X156809599Y-109823427D01*
X156809599Y-109823427D02*
X156857218Y-109918665D01*
X156857218Y-109918665D02*
X156857218Y-110013903D01*
X156857218Y-110013903D02*
X156381028Y-110109141D01*
X157285790Y-109775808D02*
X157285790Y-110442475D01*
X157285790Y-109871046D02*
X157333409Y-109823427D01*
X157333409Y-109823427D02*
X157428647Y-109775808D01*
X157428647Y-109775808D02*
X157571504Y-109775808D01*
X157571504Y-109775808D02*
X157666742Y-109823427D01*
X157666742Y-109823427D02*
X157714361Y-109918665D01*
X157714361Y-109918665D02*
X157714361Y-110442475D01*
X158190552Y-110442475D02*
X158190552Y-109442475D01*
X158857218Y-109442475D02*
X159047694Y-109442475D01*
X159047694Y-109442475D02*
X159142932Y-109490094D01*
X159142932Y-109490094D02*
X159238170Y-109585332D01*
X159238170Y-109585332D02*
X159285789Y-109775808D01*
X159285789Y-109775808D02*
X159285789Y-110109141D01*
X159285789Y-110109141D02*
X159238170Y-110299617D01*
X159238170Y-110299617D02*
X159142932Y-110394856D01*
X159142932Y-110394856D02*
X159047694Y-110442475D01*
X159047694Y-110442475D02*
X158857218Y-110442475D01*
X158857218Y-110442475D02*
X158761980Y-110394856D01*
X158761980Y-110394856D02*
X158666742Y-110299617D01*
X158666742Y-110299617D02*
X158619123Y-110109141D01*
X158619123Y-110109141D02*
X158619123Y-109775808D01*
X158619123Y-109775808D02*
X158666742Y-109585332D01*
X158666742Y-109585332D02*
X158761980Y-109490094D01*
X158761980Y-109490094D02*
X158857218Y-109442475D01*
X132047693Y-111100038D02*
X131952455Y-111052419D01*
X131952455Y-111052419D02*
X131809598Y-111052419D01*
X131809598Y-111052419D02*
X131666741Y-111100038D01*
X131666741Y-111100038D02*
X131571503Y-111195276D01*
X131571503Y-111195276D02*
X131523884Y-111290514D01*
X131523884Y-111290514D02*
X131476265Y-111480990D01*
X131476265Y-111480990D02*
X131476265Y-111623847D01*
X131476265Y-111623847D02*
X131523884Y-111814323D01*
X131523884Y-111814323D02*
X131571503Y-111909561D01*
X131571503Y-111909561D02*
X131666741Y-112004800D01*
X131666741Y-112004800D02*
X131809598Y-112052419D01*
X131809598Y-112052419D02*
X131904836Y-112052419D01*
X131904836Y-112052419D02*
X132047693Y-112004800D01*
X132047693Y-112004800D02*
X132095312Y-111957180D01*
X132095312Y-111957180D02*
X132095312Y-111623847D01*
X132095312Y-111623847D02*
X131904836Y-111623847D01*
X132523884Y-112052419D02*
X132523884Y-111052419D01*
X132523884Y-111052419D02*
X132904836Y-111052419D01*
X132904836Y-111052419D02*
X133000074Y-111100038D01*
X133000074Y-111100038D02*
X133047693Y-111147657D01*
X133047693Y-111147657D02*
X133095312Y-111242895D01*
X133095312Y-111242895D02*
X133095312Y-111385752D01*
X133095312Y-111385752D02*
X133047693Y-111480990D01*
X133047693Y-111480990D02*
X133000074Y-111528609D01*
X133000074Y-111528609D02*
X132904836Y-111576228D01*
X132904836Y-111576228D02*
X132523884Y-111576228D01*
X134000074Y-112052419D02*
X133523884Y-112052419D01*
X133523884Y-112052419D02*
X133523884Y-111052419D01*
X135000075Y-111385752D02*
X135238170Y-112052419D01*
X135238170Y-112052419D02*
X135476265Y-111385752D01*
X135761980Y-111052419D02*
X136381027Y-111052419D01*
X136381027Y-111052419D02*
X136047694Y-111433371D01*
X136047694Y-111433371D02*
X136190551Y-111433371D01*
X136190551Y-111433371D02*
X136285789Y-111480990D01*
X136285789Y-111480990D02*
X136333408Y-111528609D01*
X136333408Y-111528609D02*
X136381027Y-111623847D01*
X136381027Y-111623847D02*
X136381027Y-111861942D01*
X136381027Y-111861942D02*
X136333408Y-111957180D01*
X136333408Y-111957180D02*
X136285789Y-112004800D01*
X136285789Y-112004800D02*
X136190551Y-112052419D01*
X136190551Y-112052419D02*
X135904837Y-112052419D01*
X135904837Y-112052419D02*
X135809599Y-112004800D01*
X135809599Y-112004800D02*
X135761980Y-111957180D01*
X137571504Y-111671466D02*
X138333409Y-111671466D01*
X139761980Y-111052419D02*
X139952456Y-111052419D01*
X139952456Y-111052419D02*
X140047694Y-111100038D01*
X140047694Y-111100038D02*
X140142932Y-111195276D01*
X140142932Y-111195276D02*
X140190551Y-111385752D01*
X140190551Y-111385752D02*
X140190551Y-111719085D01*
X140190551Y-111719085D02*
X140142932Y-111909561D01*
X140142932Y-111909561D02*
X140047694Y-112004800D01*
X140047694Y-112004800D02*
X139952456Y-112052419D01*
X139952456Y-112052419D02*
X139761980Y-112052419D01*
X139761980Y-112052419D02*
X139666742Y-112004800D01*
X139666742Y-112004800D02*
X139571504Y-111909561D01*
X139571504Y-111909561D02*
X139523885Y-111719085D01*
X139523885Y-111719085D02*
X139523885Y-111385752D01*
X139523885Y-111385752D02*
X139571504Y-111195276D01*
X139571504Y-111195276D02*
X139666742Y-111100038D01*
X139666742Y-111100038D02*
X139761980Y-111052419D01*
X140619123Y-111385752D02*
X140619123Y-112385752D01*
X140619123Y-111433371D02*
X140714361Y-111385752D01*
X140714361Y-111385752D02*
X140904837Y-111385752D01*
X140904837Y-111385752D02*
X141000075Y-111433371D01*
X141000075Y-111433371D02*
X141047694Y-111480990D01*
X141047694Y-111480990D02*
X141095313Y-111576228D01*
X141095313Y-111576228D02*
X141095313Y-111861942D01*
X141095313Y-111861942D02*
X141047694Y-111957180D01*
X141047694Y-111957180D02*
X141000075Y-112004800D01*
X141000075Y-112004800D02*
X140904837Y-112052419D01*
X140904837Y-112052419D02*
X140714361Y-112052419D01*
X140714361Y-112052419D02*
X140619123Y-112004800D01*
X141904837Y-112004800D02*
X141809599Y-112052419D01*
X141809599Y-112052419D02*
X141619123Y-112052419D01*
X141619123Y-112052419D02*
X141523885Y-112004800D01*
X141523885Y-112004800D02*
X141476266Y-111909561D01*
X141476266Y-111909561D02*
X141476266Y-111528609D01*
X141476266Y-111528609D02*
X141523885Y-111433371D01*
X141523885Y-111433371D02*
X141619123Y-111385752D01*
X141619123Y-111385752D02*
X141809599Y-111385752D01*
X141809599Y-111385752D02*
X141904837Y-111433371D01*
X141904837Y-111433371D02*
X141952456Y-111528609D01*
X141952456Y-111528609D02*
X141952456Y-111623847D01*
X141952456Y-111623847D02*
X141476266Y-111719085D01*
X142381028Y-111385752D02*
X142381028Y-112052419D01*
X142381028Y-111480990D02*
X142428647Y-111433371D01*
X142428647Y-111433371D02*
X142523885Y-111385752D01*
X142523885Y-111385752D02*
X142666742Y-111385752D01*
X142666742Y-111385752D02*
X142761980Y-111433371D01*
X142761980Y-111433371D02*
X142809599Y-111528609D01*
X142809599Y-111528609D02*
X142809599Y-112052419D01*
X144000076Y-112004800D02*
X144142933Y-112052419D01*
X144142933Y-112052419D02*
X144381028Y-112052419D01*
X144381028Y-112052419D02*
X144476266Y-112004800D01*
X144476266Y-112004800D02*
X144523885Y-111957180D01*
X144523885Y-111957180D02*
X144571504Y-111861942D01*
X144571504Y-111861942D02*
X144571504Y-111766704D01*
X144571504Y-111766704D02*
X144523885Y-111671466D01*
X144523885Y-111671466D02*
X144476266Y-111623847D01*
X144476266Y-111623847D02*
X144381028Y-111576228D01*
X144381028Y-111576228D02*
X144190552Y-111528609D01*
X144190552Y-111528609D02*
X144095314Y-111480990D01*
X144095314Y-111480990D02*
X144047695Y-111433371D01*
X144047695Y-111433371D02*
X144000076Y-111338133D01*
X144000076Y-111338133D02*
X144000076Y-111242895D01*
X144000076Y-111242895D02*
X144047695Y-111147657D01*
X144047695Y-111147657D02*
X144095314Y-111100038D01*
X144095314Y-111100038D02*
X144190552Y-111052419D01*
X144190552Y-111052419D02*
X144428647Y-111052419D01*
X144428647Y-111052419D02*
X144571504Y-111100038D01*
X145142933Y-112052419D02*
X145047695Y-112004800D01*
X145047695Y-112004800D02*
X145000076Y-111957180D01*
X145000076Y-111957180D02*
X144952457Y-111861942D01*
X144952457Y-111861942D02*
X144952457Y-111576228D01*
X144952457Y-111576228D02*
X145000076Y-111480990D01*
X145000076Y-111480990D02*
X145047695Y-111433371D01*
X145047695Y-111433371D02*
X145142933Y-111385752D01*
X145142933Y-111385752D02*
X145285790Y-111385752D01*
X145285790Y-111385752D02*
X145381028Y-111433371D01*
X145381028Y-111433371D02*
X145428647Y-111480990D01*
X145428647Y-111480990D02*
X145476266Y-111576228D01*
X145476266Y-111576228D02*
X145476266Y-111861942D01*
X145476266Y-111861942D02*
X145428647Y-111957180D01*
X145428647Y-111957180D02*
X145381028Y-112004800D01*
X145381028Y-112004800D02*
X145285790Y-112052419D01*
X145285790Y-112052419D02*
X145142933Y-112052419D01*
X146333409Y-111385752D02*
X146333409Y-112052419D01*
X145904838Y-111385752D02*
X145904838Y-111909561D01*
X145904838Y-111909561D02*
X145952457Y-112004800D01*
X145952457Y-112004800D02*
X146047695Y-112052419D01*
X146047695Y-112052419D02*
X146190552Y-112052419D01*
X146190552Y-112052419D02*
X146285790Y-112004800D01*
X146285790Y-112004800D02*
X146333409Y-111957180D01*
X146809600Y-112052419D02*
X146809600Y-111385752D01*
X146809600Y-111576228D02*
X146857219Y-111480990D01*
X146857219Y-111480990D02*
X146904838Y-111433371D01*
X146904838Y-111433371D02*
X147000076Y-111385752D01*
X147000076Y-111385752D02*
X147095314Y-111385752D01*
X147857219Y-112004800D02*
X147761981Y-112052419D01*
X147761981Y-112052419D02*
X147571505Y-112052419D01*
X147571505Y-112052419D02*
X147476267Y-112004800D01*
X147476267Y-112004800D02*
X147428648Y-111957180D01*
X147428648Y-111957180D02*
X147381029Y-111861942D01*
X147381029Y-111861942D02*
X147381029Y-111576228D01*
X147381029Y-111576228D02*
X147428648Y-111480990D01*
X147428648Y-111480990D02*
X147476267Y-111433371D01*
X147476267Y-111433371D02*
X147571505Y-111385752D01*
X147571505Y-111385752D02*
X147761981Y-111385752D01*
X147761981Y-111385752D02*
X147857219Y-111433371D01*
X148666743Y-112004800D02*
X148571505Y-112052419D01*
X148571505Y-112052419D02*
X148381029Y-112052419D01*
X148381029Y-112052419D02*
X148285791Y-112004800D01*
X148285791Y-112004800D02*
X148238172Y-111909561D01*
X148238172Y-111909561D02*
X148238172Y-111528609D01*
X148238172Y-111528609D02*
X148285791Y-111433371D01*
X148285791Y-111433371D02*
X148381029Y-111385752D01*
X148381029Y-111385752D02*
X148571505Y-111385752D01*
X148571505Y-111385752D02*
X148666743Y-111433371D01*
X148666743Y-111433371D02*
X148714362Y-111528609D01*
X148714362Y-111528609D02*
X148714362Y-111623847D01*
X148714362Y-111623847D02*
X148238172Y-111719085D01*
X141180038Y-116392306D02*
X141132419Y-116487544D01*
X141132419Y-116487544D02*
X141132419Y-116630401D01*
X141132419Y-116630401D02*
X141180038Y-116773258D01*
X141180038Y-116773258D02*
X141275276Y-116868496D01*
X141275276Y-116868496D02*
X141370514Y-116916115D01*
X141370514Y-116916115D02*
X141560990Y-116963734D01*
X141560990Y-116963734D02*
X141703847Y-116963734D01*
X141703847Y-116963734D02*
X141894323Y-116916115D01*
X141894323Y-116916115D02*
X141989561Y-116868496D01*
X141989561Y-116868496D02*
X142084800Y-116773258D01*
X142084800Y-116773258D02*
X142132419Y-116630401D01*
X142132419Y-116630401D02*
X142132419Y-116535163D01*
X142132419Y-116535163D02*
X142084800Y-116392306D01*
X142084800Y-116392306D02*
X142037180Y-116344687D01*
X142037180Y-116344687D02*
X141703847Y-116344687D01*
X141703847Y-116344687D02*
X141703847Y-116535163D01*
X142132419Y-115916115D02*
X141132419Y-115916115D01*
X141132419Y-115916115D02*
X142132419Y-115344687D01*
X142132419Y-115344687D02*
X141132419Y-115344687D01*
X142132419Y-114868496D02*
X141132419Y-114868496D01*
X141132419Y-114868496D02*
X141132419Y-114630401D01*
X141132419Y-114630401D02*
X141180038Y-114487544D01*
X141180038Y-114487544D02*
X141275276Y-114392306D01*
X141275276Y-114392306D02*
X141370514Y-114344687D01*
X141370514Y-114344687D02*
X141560990Y-114297068D01*
X141560990Y-114297068D02*
X141703847Y-114297068D01*
X141703847Y-114297068D02*
X141894323Y-114344687D01*
X141894323Y-114344687D02*
X141989561Y-114392306D01*
X141989561Y-114392306D02*
X142084800Y-114487544D01*
X142084800Y-114487544D02*
X142132419Y-114630401D01*
X142132419Y-114630401D02*
X142132419Y-114868496D01*
D11*
X207174819Y-108060952D02*
X207889104Y-108060952D01*
X207889104Y-108060952D02*
X208031961Y-108108571D01*
X208031961Y-108108571D02*
X208127200Y-108203809D01*
X208127200Y-108203809D02*
X208174819Y-108346666D01*
X208174819Y-108346666D02*
X208174819Y-108441904D01*
X208270057Y-107822857D02*
X208270057Y-107060952D01*
X208127200Y-106870475D02*
X208174819Y-106727618D01*
X208174819Y-106727618D02*
X208174819Y-106489523D01*
X208174819Y-106489523D02*
X208127200Y-106394285D01*
X208127200Y-106394285D02*
X208079580Y-106346666D01*
X208079580Y-106346666D02*
X207984342Y-106299047D01*
X207984342Y-106299047D02*
X207889104Y-106299047D01*
X207889104Y-106299047D02*
X207793866Y-106346666D01*
X207793866Y-106346666D02*
X207746247Y-106394285D01*
X207746247Y-106394285D02*
X207698628Y-106489523D01*
X207698628Y-106489523D02*
X207651009Y-106679999D01*
X207651009Y-106679999D02*
X207603390Y-106775237D01*
X207603390Y-106775237D02*
X207555771Y-106822856D01*
X207555771Y-106822856D02*
X207460533Y-106870475D01*
X207460533Y-106870475D02*
X207365295Y-106870475D01*
X207365295Y-106870475D02*
X207270057Y-106822856D01*
X207270057Y-106822856D02*
X207222438Y-106775237D01*
X207222438Y-106775237D02*
X207174819Y-106679999D01*
X207174819Y-106679999D02*
X207174819Y-106441904D01*
X207174819Y-106441904D02*
X207222438Y-106299047D01*
X208174819Y-105870475D02*
X207174819Y-105870475D01*
X207222438Y-104870476D02*
X207174819Y-104965714D01*
X207174819Y-104965714D02*
X207174819Y-105108571D01*
X207174819Y-105108571D02*
X207222438Y-105251428D01*
X207222438Y-105251428D02*
X207317676Y-105346666D01*
X207317676Y-105346666D02*
X207412914Y-105394285D01*
X207412914Y-105394285D02*
X207603390Y-105441904D01*
X207603390Y-105441904D02*
X207746247Y-105441904D01*
X207746247Y-105441904D02*
X207936723Y-105394285D01*
X207936723Y-105394285D02*
X208031961Y-105346666D01*
X208031961Y-105346666D02*
X208127200Y-105251428D01*
X208127200Y-105251428D02*
X208174819Y-105108571D01*
X208174819Y-105108571D02*
X208174819Y-105013333D01*
X208174819Y-105013333D02*
X208127200Y-104870476D01*
X208127200Y-104870476D02*
X208079580Y-104822857D01*
X208079580Y-104822857D02*
X207746247Y-104822857D01*
X207746247Y-104822857D02*
X207746247Y-105013333D01*
X207174819Y-104203809D02*
X207174819Y-104013333D01*
X207174819Y-104013333D02*
X207222438Y-103918095D01*
X207222438Y-103918095D02*
X207317676Y-103822857D01*
X207317676Y-103822857D02*
X207508152Y-103775238D01*
X207508152Y-103775238D02*
X207841485Y-103775238D01*
X207841485Y-103775238D02*
X208031961Y-103822857D01*
X208031961Y-103822857D02*
X208127200Y-103918095D01*
X208127200Y-103918095D02*
X208174819Y-104013333D01*
X208174819Y-104013333D02*
X208174819Y-104203809D01*
X208174819Y-104203809D02*
X208127200Y-104299047D01*
X208127200Y-104299047D02*
X208031961Y-104394285D01*
X208031961Y-104394285D02*
X207841485Y-104441904D01*
X207841485Y-104441904D02*
X207508152Y-104441904D01*
X207508152Y-104441904D02*
X207317676Y-104394285D01*
X207317676Y-104394285D02*
X207222438Y-104299047D01*
X207222438Y-104299047D02*
X207174819Y-104203809D01*
X207174819Y-103346666D02*
X207984342Y-103346666D01*
X207984342Y-103346666D02*
X208079580Y-103299047D01*
X208079580Y-103299047D02*
X208127200Y-103251428D01*
X208127200Y-103251428D02*
X208174819Y-103156190D01*
X208174819Y-103156190D02*
X208174819Y-102965714D01*
X208174819Y-102965714D02*
X208127200Y-102870476D01*
X208127200Y-102870476D02*
X208079580Y-102822857D01*
X208079580Y-102822857D02*
X207984342Y-102775238D01*
X207984342Y-102775238D02*
X207174819Y-102775238D01*
X207174819Y-102441904D02*
X207174819Y-101870476D01*
X208174819Y-102156190D02*
X207174819Y-102156190D01*
X167005714Y-71134819D02*
X167005714Y-71849104D01*
X167005714Y-71849104D02*
X166958095Y-71991961D01*
X166958095Y-71991961D02*
X166862857Y-72087200D01*
X166862857Y-72087200D02*
X166720000Y-72134819D01*
X166720000Y-72134819D02*
X166624762Y-72134819D01*
X167243810Y-72230057D02*
X168005714Y-72230057D01*
X168196191Y-72087200D02*
X168339048Y-72134819D01*
X168339048Y-72134819D02*
X168577143Y-72134819D01*
X168577143Y-72134819D02*
X168672381Y-72087200D01*
X168672381Y-72087200D02*
X168720000Y-72039580D01*
X168720000Y-72039580D02*
X168767619Y-71944342D01*
X168767619Y-71944342D02*
X168767619Y-71849104D01*
X168767619Y-71849104D02*
X168720000Y-71753866D01*
X168720000Y-71753866D02*
X168672381Y-71706247D01*
X168672381Y-71706247D02*
X168577143Y-71658628D01*
X168577143Y-71658628D02*
X168386667Y-71611009D01*
X168386667Y-71611009D02*
X168291429Y-71563390D01*
X168291429Y-71563390D02*
X168243810Y-71515771D01*
X168243810Y-71515771D02*
X168196191Y-71420533D01*
X168196191Y-71420533D02*
X168196191Y-71325295D01*
X168196191Y-71325295D02*
X168243810Y-71230057D01*
X168243810Y-71230057D02*
X168291429Y-71182438D01*
X168291429Y-71182438D02*
X168386667Y-71134819D01*
X168386667Y-71134819D02*
X168624762Y-71134819D01*
X168624762Y-71134819D02*
X168767619Y-71182438D01*
X169196191Y-72134819D02*
X169196191Y-71134819D01*
X170196190Y-71182438D02*
X170100952Y-71134819D01*
X170100952Y-71134819D02*
X169958095Y-71134819D01*
X169958095Y-71134819D02*
X169815238Y-71182438D01*
X169815238Y-71182438D02*
X169720000Y-71277676D01*
X169720000Y-71277676D02*
X169672381Y-71372914D01*
X169672381Y-71372914D02*
X169624762Y-71563390D01*
X169624762Y-71563390D02*
X169624762Y-71706247D01*
X169624762Y-71706247D02*
X169672381Y-71896723D01*
X169672381Y-71896723D02*
X169720000Y-71991961D01*
X169720000Y-71991961D02*
X169815238Y-72087200D01*
X169815238Y-72087200D02*
X169958095Y-72134819D01*
X169958095Y-72134819D02*
X170053333Y-72134819D01*
X170053333Y-72134819D02*
X170196190Y-72087200D01*
X170196190Y-72087200D02*
X170243809Y-72039580D01*
X170243809Y-72039580D02*
X170243809Y-71706247D01*
X170243809Y-71706247D02*
X170053333Y-71706247D01*
X170672381Y-72134819D02*
X170672381Y-71134819D01*
X171148571Y-72134819D02*
X171148571Y-71134819D01*
X171148571Y-71134819D02*
X171719999Y-72134819D01*
X171719999Y-72134819D02*
X171719999Y-71134819D01*
X132833866Y-117005713D02*
X132833866Y-116243809D01*
X133214819Y-116624761D02*
X132452914Y-116624761D01*
X132214819Y-115291428D02*
X132214819Y-115767618D01*
X132214819Y-115767618D02*
X132691009Y-115815237D01*
X132691009Y-115815237D02*
X132643390Y-115767618D01*
X132643390Y-115767618D02*
X132595771Y-115672380D01*
X132595771Y-115672380D02*
X132595771Y-115434285D01*
X132595771Y-115434285D02*
X132643390Y-115339047D01*
X132643390Y-115339047D02*
X132691009Y-115291428D01*
X132691009Y-115291428D02*
X132786247Y-115243809D01*
X132786247Y-115243809D02*
X133024342Y-115243809D01*
X133024342Y-115243809D02*
X133119580Y-115291428D01*
X133119580Y-115291428D02*
X133167200Y-115339047D01*
X133167200Y-115339047D02*
X133214819Y-115434285D01*
X133214819Y-115434285D02*
X133214819Y-115672380D01*
X133214819Y-115672380D02*
X133167200Y-115767618D01*
X133167200Y-115767618D02*
X133119580Y-115815237D01*
X132214819Y-114958094D02*
X133214819Y-114624761D01*
X133214819Y-114624761D02*
X132214819Y-114291428D01*
X130174819Y-102846666D02*
X130889104Y-102846666D01*
X130889104Y-102846666D02*
X131031961Y-102894285D01*
X131031961Y-102894285D02*
X131127200Y-102989523D01*
X131127200Y-102989523D02*
X131174819Y-103132380D01*
X131174819Y-103132380D02*
X131174819Y-103227618D01*
X131270057Y-102608571D02*
X131270057Y-101846666D01*
X130174819Y-101751427D02*
X131174819Y-101418094D01*
X131174819Y-101418094D02*
X130174819Y-101084761D01*
X131079580Y-100179999D02*
X131127200Y-100227618D01*
X131127200Y-100227618D02*
X131174819Y-100370475D01*
X131174819Y-100370475D02*
X131174819Y-100465713D01*
X131174819Y-100465713D02*
X131127200Y-100608570D01*
X131127200Y-100608570D02*
X131031961Y-100703808D01*
X131031961Y-100703808D02*
X130936723Y-100751427D01*
X130936723Y-100751427D02*
X130746247Y-100799046D01*
X130746247Y-100799046D02*
X130603390Y-100799046D01*
X130603390Y-100799046D02*
X130412914Y-100751427D01*
X130412914Y-100751427D02*
X130317676Y-100703808D01*
X130317676Y-100703808D02*
X130222438Y-100608570D01*
X130222438Y-100608570D02*
X130174819Y-100465713D01*
X130174819Y-100465713D02*
X130174819Y-100370475D01*
X130174819Y-100370475D02*
X130222438Y-100227618D01*
X130222438Y-100227618D02*
X130270057Y-100179999D01*
X131079580Y-99179999D02*
X131127200Y-99227618D01*
X131127200Y-99227618D02*
X131174819Y-99370475D01*
X131174819Y-99370475D02*
X131174819Y-99465713D01*
X131174819Y-99465713D02*
X131127200Y-99608570D01*
X131127200Y-99608570D02*
X131031961Y-99703808D01*
X131031961Y-99703808D02*
X130936723Y-99751427D01*
X130936723Y-99751427D02*
X130746247Y-99799046D01*
X130746247Y-99799046D02*
X130603390Y-99799046D01*
X130603390Y-99799046D02*
X130412914Y-99751427D01*
X130412914Y-99751427D02*
X130317676Y-99703808D01*
X130317676Y-99703808D02*
X130222438Y-99608570D01*
X130222438Y-99608570D02*
X130174819Y-99465713D01*
X130174819Y-99465713D02*
X130174819Y-99370475D01*
X130174819Y-99370475D02*
X130222438Y-99227618D01*
X130222438Y-99227618D02*
X130270057Y-99179999D01*
X177285714Y-96002438D02*
X177190476Y-95954819D01*
X177190476Y-95954819D02*
X177047619Y-95954819D01*
X177047619Y-95954819D02*
X176904762Y-96002438D01*
X176904762Y-96002438D02*
X176809524Y-96097676D01*
X176809524Y-96097676D02*
X176761905Y-96192914D01*
X176761905Y-96192914D02*
X176714286Y-96383390D01*
X176714286Y-96383390D02*
X176714286Y-96526247D01*
X176714286Y-96526247D02*
X176761905Y-96716723D01*
X176761905Y-96716723D02*
X176809524Y-96811961D01*
X176809524Y-96811961D02*
X176904762Y-96907200D01*
X176904762Y-96907200D02*
X177047619Y-96954819D01*
X177047619Y-96954819D02*
X177142857Y-96954819D01*
X177142857Y-96954819D02*
X177285714Y-96907200D01*
X177285714Y-96907200D02*
X177333333Y-96859580D01*
X177333333Y-96859580D02*
X177333333Y-96526247D01*
X177333333Y-96526247D02*
X177142857Y-96526247D01*
X177952381Y-96478628D02*
X177952381Y-96954819D01*
X177619048Y-95954819D02*
X177952381Y-96478628D01*
X177952381Y-96478628D02*
X178285714Y-95954819D01*
X178619048Y-96573866D02*
X179380953Y-96573866D01*
X180333333Y-95954819D02*
X179857143Y-95954819D01*
X179857143Y-95954819D02*
X179809524Y-96431009D01*
X179809524Y-96431009D02*
X179857143Y-96383390D01*
X179857143Y-96383390D02*
X179952381Y-96335771D01*
X179952381Y-96335771D02*
X180190476Y-96335771D01*
X180190476Y-96335771D02*
X180285714Y-96383390D01*
X180285714Y-96383390D02*
X180333333Y-96431009D01*
X180333333Y-96431009D02*
X180380952Y-96526247D01*
X180380952Y-96526247D02*
X180380952Y-96764342D01*
X180380952Y-96764342D02*
X180333333Y-96859580D01*
X180333333Y-96859580D02*
X180285714Y-96907200D01*
X180285714Y-96907200D02*
X180190476Y-96954819D01*
X180190476Y-96954819D02*
X179952381Y-96954819D01*
X179952381Y-96954819D02*
X179857143Y-96907200D01*
X179857143Y-96907200D02*
X179809524Y-96859580D01*
X180761905Y-96050057D02*
X180809524Y-96002438D01*
X180809524Y-96002438D02*
X180904762Y-95954819D01*
X180904762Y-95954819D02*
X181142857Y-95954819D01*
X181142857Y-95954819D02*
X181238095Y-96002438D01*
X181238095Y-96002438D02*
X181285714Y-96050057D01*
X181285714Y-96050057D02*
X181333333Y-96145295D01*
X181333333Y-96145295D02*
X181333333Y-96240533D01*
X181333333Y-96240533D02*
X181285714Y-96383390D01*
X181285714Y-96383390D02*
X180714286Y-96954819D01*
X180714286Y-96954819D02*
X181333333Y-96954819D01*
X182285714Y-96954819D02*
X181714286Y-96954819D01*
X182000000Y-96954819D02*
X182000000Y-95954819D01*
X182000000Y-95954819D02*
X181904762Y-96097676D01*
X181904762Y-96097676D02*
X181809524Y-96192914D01*
X181809524Y-96192914D02*
X181714286Y-96240533D01*
X170562618Y-112079726D02*
X170562618Y-110809726D01*
X170562618Y-110809726D02*
X171046428Y-110809726D01*
X171046428Y-110809726D02*
X171167380Y-110870202D01*
X171167380Y-110870202D02*
X171227857Y-110930678D01*
X171227857Y-110930678D02*
X171288333Y-111051630D01*
X171288333Y-111051630D02*
X171288333Y-111233059D01*
X171288333Y-111233059D02*
X171227857Y-111354011D01*
X171227857Y-111354011D02*
X171167380Y-111414488D01*
X171167380Y-111414488D02*
X171046428Y-111474964D01*
X171046428Y-111474964D02*
X170562618Y-111474964D01*
X171711666Y-110809726D02*
X172497857Y-110809726D01*
X172497857Y-110809726D02*
X172074523Y-111293535D01*
X172074523Y-111293535D02*
X172255952Y-111293535D01*
X172255952Y-111293535D02*
X172376904Y-111354011D01*
X172376904Y-111354011D02*
X172437380Y-111414488D01*
X172437380Y-111414488D02*
X172497857Y-111535440D01*
X172497857Y-111535440D02*
X172497857Y-111837821D01*
X172497857Y-111837821D02*
X172437380Y-111958773D01*
X172437380Y-111958773D02*
X172376904Y-112019250D01*
X172376904Y-112019250D02*
X172255952Y-112079726D01*
X172255952Y-112079726D02*
X171893095Y-112079726D01*
X171893095Y-112079726D02*
X171772142Y-112019250D01*
X171772142Y-112019250D02*
X171711666Y-111958773D01*
X142906190Y-81739580D02*
X142858571Y-81787200D01*
X142858571Y-81787200D02*
X142715714Y-81834819D01*
X142715714Y-81834819D02*
X142620476Y-81834819D01*
X142620476Y-81834819D02*
X142477619Y-81787200D01*
X142477619Y-81787200D02*
X142382381Y-81691961D01*
X142382381Y-81691961D02*
X142334762Y-81596723D01*
X142334762Y-81596723D02*
X142287143Y-81406247D01*
X142287143Y-81406247D02*
X142287143Y-81263390D01*
X142287143Y-81263390D02*
X142334762Y-81072914D01*
X142334762Y-81072914D02*
X142382381Y-80977676D01*
X142382381Y-80977676D02*
X142477619Y-80882438D01*
X142477619Y-80882438D02*
X142620476Y-80834819D01*
X142620476Y-80834819D02*
X142715714Y-80834819D01*
X142715714Y-80834819D02*
X142858571Y-80882438D01*
X142858571Y-80882438D02*
X142906190Y-80930057D01*
X143334762Y-81834819D02*
X143334762Y-80834819D01*
X143334762Y-80834819D02*
X143572857Y-80834819D01*
X143572857Y-80834819D02*
X143715714Y-80882438D01*
X143715714Y-80882438D02*
X143810952Y-80977676D01*
X143810952Y-80977676D02*
X143858571Y-81072914D01*
X143858571Y-81072914D02*
X143906190Y-81263390D01*
X143906190Y-81263390D02*
X143906190Y-81406247D01*
X143906190Y-81406247D02*
X143858571Y-81596723D01*
X143858571Y-81596723D02*
X143810952Y-81691961D01*
X143810952Y-81691961D02*
X143715714Y-81787200D01*
X143715714Y-81787200D02*
X143572857Y-81834819D01*
X143572857Y-81834819D02*
X143334762Y-81834819D01*
X144239524Y-80834819D02*
X144906190Y-80834819D01*
X144906190Y-80834819D02*
X144477619Y-81834819D01*
X145715714Y-81168152D02*
X145715714Y-81834819D01*
X145477619Y-80787200D02*
X145239524Y-81501485D01*
X145239524Y-81501485D02*
X145858571Y-81501485D01*
X146239524Y-81834819D02*
X146239524Y-80834819D01*
X146239524Y-81311009D02*
X146810952Y-81311009D01*
X146810952Y-81834819D02*
X146810952Y-80834819D01*
X147858571Y-81739580D02*
X147810952Y-81787200D01*
X147810952Y-81787200D02*
X147668095Y-81834819D01*
X147668095Y-81834819D02*
X147572857Y-81834819D01*
X147572857Y-81834819D02*
X147430000Y-81787200D01*
X147430000Y-81787200D02*
X147334762Y-81691961D01*
X147334762Y-81691961D02*
X147287143Y-81596723D01*
X147287143Y-81596723D02*
X147239524Y-81406247D01*
X147239524Y-81406247D02*
X147239524Y-81263390D01*
X147239524Y-81263390D02*
X147287143Y-81072914D01*
X147287143Y-81072914D02*
X147334762Y-80977676D01*
X147334762Y-80977676D02*
X147430000Y-80882438D01*
X147430000Y-80882438D02*
X147572857Y-80834819D01*
X147572857Y-80834819D02*
X147668095Y-80834819D01*
X147668095Y-80834819D02*
X147810952Y-80882438D01*
X147810952Y-80882438D02*
X147858571Y-80930057D01*
X148715714Y-81168152D02*
X148715714Y-81834819D01*
X148477619Y-80787200D02*
X148239524Y-81501485D01*
X148239524Y-81501485D02*
X148858571Y-81501485D01*
X149430000Y-80834819D02*
X149525238Y-80834819D01*
X149525238Y-80834819D02*
X149620476Y-80882438D01*
X149620476Y-80882438D02*
X149668095Y-80930057D01*
X149668095Y-80930057D02*
X149715714Y-81025295D01*
X149715714Y-81025295D02*
X149763333Y-81215771D01*
X149763333Y-81215771D02*
X149763333Y-81453866D01*
X149763333Y-81453866D02*
X149715714Y-81644342D01*
X149715714Y-81644342D02*
X149668095Y-81739580D01*
X149668095Y-81739580D02*
X149620476Y-81787200D01*
X149620476Y-81787200D02*
X149525238Y-81834819D01*
X149525238Y-81834819D02*
X149430000Y-81834819D01*
X149430000Y-81834819D02*
X149334762Y-81787200D01*
X149334762Y-81787200D02*
X149287143Y-81739580D01*
X149287143Y-81739580D02*
X149239524Y-81644342D01*
X149239524Y-81644342D02*
X149191905Y-81453866D01*
X149191905Y-81453866D02*
X149191905Y-81215771D01*
X149191905Y-81215771D02*
X149239524Y-81025295D01*
X149239524Y-81025295D02*
X149287143Y-80930057D01*
X149287143Y-80930057D02*
X149334762Y-80882438D01*
X149334762Y-80882438D02*
X149430000Y-80834819D01*
X150620476Y-80834819D02*
X150430000Y-80834819D01*
X150430000Y-80834819D02*
X150334762Y-80882438D01*
X150334762Y-80882438D02*
X150287143Y-80930057D01*
X150287143Y-80930057D02*
X150191905Y-81072914D01*
X150191905Y-81072914D02*
X150144286Y-81263390D01*
X150144286Y-81263390D02*
X150144286Y-81644342D01*
X150144286Y-81644342D02*
X150191905Y-81739580D01*
X150191905Y-81739580D02*
X150239524Y-81787200D01*
X150239524Y-81787200D02*
X150334762Y-81834819D01*
X150334762Y-81834819D02*
X150525238Y-81834819D01*
X150525238Y-81834819D02*
X150620476Y-81787200D01*
X150620476Y-81787200D02*
X150668095Y-81739580D01*
X150668095Y-81739580D02*
X150715714Y-81644342D01*
X150715714Y-81644342D02*
X150715714Y-81406247D01*
X150715714Y-81406247D02*
X150668095Y-81311009D01*
X150668095Y-81311009D02*
X150620476Y-81263390D01*
X150620476Y-81263390D02*
X150525238Y-81215771D01*
X150525238Y-81215771D02*
X150334762Y-81215771D01*
X150334762Y-81215771D02*
X150239524Y-81263390D01*
X150239524Y-81263390D02*
X150191905Y-81311009D01*
X150191905Y-81311009D02*
X150144286Y-81406247D01*
X151049048Y-80834819D02*
X151715714Y-80834819D01*
X151715714Y-80834819D02*
X151287143Y-81834819D01*
X152858572Y-81453866D02*
X153620477Y-81453866D01*
X154858572Y-81834819D02*
X154858572Y-80834819D01*
X154858572Y-80834819D02*
X155191905Y-81549104D01*
X155191905Y-81549104D02*
X155525238Y-80834819D01*
X155525238Y-80834819D02*
X155525238Y-81834819D01*
X156001429Y-80834819D02*
X156001429Y-81644342D01*
X156001429Y-81644342D02*
X156049048Y-81739580D01*
X156049048Y-81739580D02*
X156096667Y-81787200D01*
X156096667Y-81787200D02*
X156191905Y-81834819D01*
X156191905Y-81834819D02*
X156382381Y-81834819D01*
X156382381Y-81834819D02*
X156477619Y-81787200D01*
X156477619Y-81787200D02*
X156525238Y-81739580D01*
X156525238Y-81739580D02*
X156572857Y-81644342D01*
X156572857Y-81644342D02*
X156572857Y-80834819D01*
X156953810Y-80834819D02*
X157620476Y-81834819D01*
X157620476Y-80834819D02*
X156953810Y-81834819D01*
X152140952Y-119634819D02*
X152140952Y-120349104D01*
X152140952Y-120349104D02*
X152093333Y-120491961D01*
X152093333Y-120491961D02*
X151998095Y-120587200D01*
X151998095Y-120587200D02*
X151855238Y-120634819D01*
X151855238Y-120634819D02*
X151760000Y-120634819D01*
X152379048Y-120730057D02*
X153140952Y-120730057D01*
X153379048Y-120111009D02*
X153712381Y-120111009D01*
X153855238Y-120634819D02*
X153379048Y-120634819D01*
X153379048Y-120634819D02*
X153379048Y-119634819D01*
X153379048Y-119634819D02*
X153855238Y-119634819D01*
X154236191Y-120587200D02*
X154379048Y-120634819D01*
X154379048Y-120634819D02*
X154617143Y-120634819D01*
X154617143Y-120634819D02*
X154712381Y-120587200D01*
X154712381Y-120587200D02*
X154760000Y-120539580D01*
X154760000Y-120539580D02*
X154807619Y-120444342D01*
X154807619Y-120444342D02*
X154807619Y-120349104D01*
X154807619Y-120349104D02*
X154760000Y-120253866D01*
X154760000Y-120253866D02*
X154712381Y-120206247D01*
X154712381Y-120206247D02*
X154617143Y-120158628D01*
X154617143Y-120158628D02*
X154426667Y-120111009D01*
X154426667Y-120111009D02*
X154331429Y-120063390D01*
X154331429Y-120063390D02*
X154283810Y-120015771D01*
X154283810Y-120015771D02*
X154236191Y-119920533D01*
X154236191Y-119920533D02*
X154236191Y-119825295D01*
X154236191Y-119825295D02*
X154283810Y-119730057D01*
X154283810Y-119730057D02*
X154331429Y-119682438D01*
X154331429Y-119682438D02*
X154426667Y-119634819D01*
X154426667Y-119634819D02*
X154664762Y-119634819D01*
X154664762Y-119634819D02*
X154807619Y-119682438D01*
X155236191Y-120634819D02*
X155236191Y-119634819D01*
X155236191Y-119634819D02*
X155617143Y-119634819D01*
X155617143Y-119634819D02*
X155712381Y-119682438D01*
X155712381Y-119682438D02*
X155760000Y-119730057D01*
X155760000Y-119730057D02*
X155807619Y-119825295D01*
X155807619Y-119825295D02*
X155807619Y-119968152D01*
X155807619Y-119968152D02*
X155760000Y-120063390D01*
X155760000Y-120063390D02*
X155712381Y-120111009D01*
X155712381Y-120111009D02*
X155617143Y-120158628D01*
X155617143Y-120158628D02*
X155236191Y-120158628D01*
X156140953Y-119634819D02*
X156760000Y-119634819D01*
X156760000Y-119634819D02*
X156426667Y-120015771D01*
X156426667Y-120015771D02*
X156569524Y-120015771D01*
X156569524Y-120015771D02*
X156664762Y-120063390D01*
X156664762Y-120063390D02*
X156712381Y-120111009D01*
X156712381Y-120111009D02*
X156760000Y-120206247D01*
X156760000Y-120206247D02*
X156760000Y-120444342D01*
X156760000Y-120444342D02*
X156712381Y-120539580D01*
X156712381Y-120539580D02*
X156664762Y-120587200D01*
X156664762Y-120587200D02*
X156569524Y-120634819D01*
X156569524Y-120634819D02*
X156283810Y-120634819D01*
X156283810Y-120634819D02*
X156188572Y-120587200D01*
X156188572Y-120587200D02*
X156140953Y-120539580D01*
X157140953Y-119730057D02*
X157188572Y-119682438D01*
X157188572Y-119682438D02*
X157283810Y-119634819D01*
X157283810Y-119634819D02*
X157521905Y-119634819D01*
X157521905Y-119634819D02*
X157617143Y-119682438D01*
X157617143Y-119682438D02*
X157664762Y-119730057D01*
X157664762Y-119730057D02*
X157712381Y-119825295D01*
X157712381Y-119825295D02*
X157712381Y-119920533D01*
X157712381Y-119920533D02*
X157664762Y-120063390D01*
X157664762Y-120063390D02*
X157093334Y-120634819D01*
X157093334Y-120634819D02*
X157712381Y-120634819D01*
X159149104Y-107285475D02*
X159149104Y-106809285D01*
X159434819Y-107380713D02*
X158434819Y-107047380D01*
X158434819Y-107047380D02*
X159434819Y-106714047D01*
X159434819Y-106380713D02*
X158434819Y-106380713D01*
X158434819Y-106380713D02*
X159149104Y-106047380D01*
X159149104Y-106047380D02*
X158434819Y-105714047D01*
X158434819Y-105714047D02*
X159434819Y-105714047D01*
X159387200Y-105285475D02*
X159434819Y-105142618D01*
X159434819Y-105142618D02*
X159434819Y-104904523D01*
X159434819Y-104904523D02*
X159387200Y-104809285D01*
X159387200Y-104809285D02*
X159339580Y-104761666D01*
X159339580Y-104761666D02*
X159244342Y-104714047D01*
X159244342Y-104714047D02*
X159149104Y-104714047D01*
X159149104Y-104714047D02*
X159053866Y-104761666D01*
X159053866Y-104761666D02*
X159006247Y-104809285D01*
X159006247Y-104809285D02*
X158958628Y-104904523D01*
X158958628Y-104904523D02*
X158911009Y-105094999D01*
X158911009Y-105094999D02*
X158863390Y-105190237D01*
X158863390Y-105190237D02*
X158815771Y-105237856D01*
X158815771Y-105237856D02*
X158720533Y-105285475D01*
X158720533Y-105285475D02*
X158625295Y-105285475D01*
X158625295Y-105285475D02*
X158530057Y-105237856D01*
X158530057Y-105237856D02*
X158482438Y-105190237D01*
X158482438Y-105190237D02*
X158434819Y-105094999D01*
X158434819Y-105094999D02*
X158434819Y-104856904D01*
X158434819Y-104856904D02*
X158482438Y-104714047D01*
X159434819Y-103761666D02*
X159434819Y-104333094D01*
X159434819Y-104047380D02*
X158434819Y-104047380D01*
X158434819Y-104047380D02*
X158577676Y-104142618D01*
X158577676Y-104142618D02*
X158672914Y-104237856D01*
X158672914Y-104237856D02*
X158720533Y-104333094D01*
X159434819Y-102809285D02*
X159434819Y-103380713D01*
X159434819Y-103094999D02*
X158434819Y-103094999D01*
X158434819Y-103094999D02*
X158577676Y-103190237D01*
X158577676Y-103190237D02*
X158672914Y-103285475D01*
X158672914Y-103285475D02*
X158720533Y-103380713D01*
X159434819Y-101856904D02*
X159434819Y-102428332D01*
X159434819Y-102142618D02*
X158434819Y-102142618D01*
X158434819Y-102142618D02*
X158577676Y-102237856D01*
X158577676Y-102237856D02*
X158672914Y-102333094D01*
X158672914Y-102333094D02*
X158720533Y-102428332D01*
X158434819Y-101523570D02*
X158434819Y-100856904D01*
X158434819Y-100856904D02*
X159434819Y-101285475D01*
X191701270Y-83349104D02*
X192177460Y-83349104D01*
X191606032Y-83634819D02*
X191939365Y-82634819D01*
X191939365Y-82634819D02*
X192272698Y-83634819D01*
X192606032Y-83634819D02*
X192606032Y-82634819D01*
X192606032Y-82634819D02*
X192844127Y-82634819D01*
X192844127Y-82634819D02*
X192986984Y-82682438D01*
X192986984Y-82682438D02*
X193082222Y-82777676D01*
X193082222Y-82777676D02*
X193129841Y-82872914D01*
X193129841Y-82872914D02*
X193177460Y-83063390D01*
X193177460Y-83063390D02*
X193177460Y-83206247D01*
X193177460Y-83206247D02*
X193129841Y-83396723D01*
X193129841Y-83396723D02*
X193082222Y-83491961D01*
X193082222Y-83491961D02*
X192986984Y-83587200D01*
X192986984Y-83587200D02*
X192844127Y-83634819D01*
X192844127Y-83634819D02*
X192606032Y-83634819D01*
X193558413Y-83587200D02*
X193701270Y-83634819D01*
X193701270Y-83634819D02*
X193939365Y-83634819D01*
X193939365Y-83634819D02*
X194034603Y-83587200D01*
X194034603Y-83587200D02*
X194082222Y-83539580D01*
X194082222Y-83539580D02*
X194129841Y-83444342D01*
X194129841Y-83444342D02*
X194129841Y-83349104D01*
X194129841Y-83349104D02*
X194082222Y-83253866D01*
X194082222Y-83253866D02*
X194034603Y-83206247D01*
X194034603Y-83206247D02*
X193939365Y-83158628D01*
X193939365Y-83158628D02*
X193748889Y-83111009D01*
X193748889Y-83111009D02*
X193653651Y-83063390D01*
X193653651Y-83063390D02*
X193606032Y-83015771D01*
X193606032Y-83015771D02*
X193558413Y-82920533D01*
X193558413Y-82920533D02*
X193558413Y-82825295D01*
X193558413Y-82825295D02*
X193606032Y-82730057D01*
X193606032Y-82730057D02*
X193653651Y-82682438D01*
X193653651Y-82682438D02*
X193748889Y-82634819D01*
X193748889Y-82634819D02*
X193986984Y-82634819D01*
X193986984Y-82634819D02*
X194129841Y-82682438D01*
X195082222Y-83634819D02*
X194510794Y-83634819D01*
X194796508Y-83634819D02*
X194796508Y-82634819D01*
X194796508Y-82634819D02*
X194701270Y-82777676D01*
X194701270Y-82777676D02*
X194606032Y-82872914D01*
X194606032Y-82872914D02*
X194510794Y-82920533D01*
X196034603Y-83634819D02*
X195463175Y-83634819D01*
X195748889Y-83634819D02*
X195748889Y-82634819D01*
X195748889Y-82634819D02*
X195653651Y-82777676D01*
X195653651Y-82777676D02*
X195558413Y-82872914D01*
X195558413Y-82872914D02*
X195463175Y-82920533D01*
X196986984Y-83634819D02*
X196415556Y-83634819D01*
X196701270Y-83634819D02*
X196701270Y-82634819D01*
X196701270Y-82634819D02*
X196606032Y-82777676D01*
X196606032Y-82777676D02*
X196510794Y-82872914D01*
X196510794Y-82872914D02*
X196415556Y-82920533D01*
X197891746Y-82634819D02*
X197415556Y-82634819D01*
X197415556Y-82634819D02*
X197367937Y-83111009D01*
X197367937Y-83111009D02*
X197415556Y-83063390D01*
X197415556Y-83063390D02*
X197510794Y-83015771D01*
X197510794Y-83015771D02*
X197748889Y-83015771D01*
X197748889Y-83015771D02*
X197844127Y-83063390D01*
X197844127Y-83063390D02*
X197891746Y-83111009D01*
X197891746Y-83111009D02*
X197939365Y-83206247D01*
X197939365Y-83206247D02*
X197939365Y-83444342D01*
X197939365Y-83444342D02*
X197891746Y-83539580D01*
X197891746Y-83539580D02*
X197844127Y-83587200D01*
X197844127Y-83587200D02*
X197748889Y-83634819D01*
X197748889Y-83634819D02*
X197510794Y-83634819D01*
X197510794Y-83634819D02*
X197415556Y-83587200D01*
X197415556Y-83587200D02*
X197367937Y-83539580D01*
D12*
%TO.C,J_SIGOUT*%
X200940000Y-98140000D02*
X202320000Y-98140000D01*
X200940000Y-99520000D02*
X200940000Y-98140000D01*
X200940000Y-100790000D02*
X200940000Y-111060000D01*
X200940000Y-100790000D02*
X203590000Y-100790000D01*
X200940000Y-111060000D02*
X206240000Y-111060000D01*
X203590000Y-98140000D02*
X206240000Y-98140000D01*
X203590000Y-100790000D02*
X203590000Y-98140000D01*
X206240000Y-98140000D02*
X206240000Y-111060000D01*
%TO.C,J_SIGIN*%
X156280000Y-64760000D02*
X181900000Y-64760000D01*
X156280000Y-67410000D02*
X156280000Y-64760000D01*
X156280000Y-70060000D02*
X156280000Y-68680000D01*
X157660000Y-70060000D02*
X156280000Y-70060000D01*
X158930000Y-67410000D02*
X156280000Y-67410000D01*
X158930000Y-70060000D02*
X158930000Y-67410000D01*
X158930000Y-70060000D02*
X181900000Y-70060000D01*
X181900000Y-70060000D02*
X181900000Y-64760000D01*
%TO.C,+5V*%
X133900000Y-113060000D02*
X133900000Y-114310000D01*
X134200000Y-114670000D02*
X134810000Y-114670000D01*
X134200000Y-115970000D02*
X134810000Y-115970000D01*
X134810000Y-113970000D02*
X134810000Y-117470000D01*
X134810000Y-117470000D02*
X139710000Y-117470000D01*
X135150000Y-113060000D02*
X133900000Y-113060000D01*
X135660000Y-113160000D02*
X135660000Y-113360000D01*
X135960000Y-113160000D02*
X135660000Y-113160000D01*
X135960000Y-113260000D02*
X135660000Y-113260000D01*
X135960000Y-113360000D02*
X135960000Y-113160000D01*
X136760000Y-113360000D02*
X136760000Y-113970000D01*
X136760000Y-113970000D02*
X134810000Y-113970000D01*
X137160000Y-116970000D02*
X137360000Y-116970000D01*
X137160000Y-117470000D02*
X137160000Y-116970000D01*
X137260000Y-117470000D02*
X137260000Y-116970000D01*
X137360000Y-116970000D02*
X137360000Y-117470000D01*
X137760000Y-113970000D02*
X137760000Y-113360000D01*
X139710000Y-113970000D02*
X137760000Y-113970000D01*
X139710000Y-117470000D02*
X139710000Y-113970000D01*
X140320000Y-114670000D02*
X139710000Y-114670000D01*
X140320000Y-115970000D02*
X139710000Y-115970000D01*
X134200000Y-113360000D02*
X140320000Y-113360000D01*
X140320000Y-118080000D01*
X134200000Y-118080000D01*
X134200000Y-113360000D01*
%TO.C,J_VCC*%
X124210000Y-104290000D02*
X124210000Y-105540000D01*
X124210000Y-105540000D02*
X125460000Y-105540000D01*
X124310000Y-103480000D02*
X124310000Y-103780000D01*
X124310000Y-103780000D02*
X124510000Y-103780000D01*
X124410000Y-103480000D02*
X124410000Y-103780000D01*
X124510000Y-102680000D02*
X125120000Y-102680000D01*
X124510000Y-103480000D02*
X124310000Y-103480000D01*
X125120000Y-97730000D02*
X125120000Y-99680000D01*
X125120000Y-99680000D02*
X124510000Y-99680000D01*
X125120000Y-102680000D02*
X125120000Y-104630000D01*
X125120000Y-104630000D02*
X128620000Y-104630000D01*
X125820000Y-97120000D02*
X125820000Y-97730000D01*
X125820000Y-105240000D02*
X125820000Y-104630000D01*
X127120000Y-97120000D02*
X127120000Y-97730000D01*
X127120000Y-105240000D02*
X127120000Y-104630000D01*
X128120000Y-100080000D02*
X128620000Y-100080000D01*
X128120000Y-100280000D02*
X128120000Y-100080000D01*
X128120000Y-102080000D02*
X128620000Y-102080000D01*
X128120000Y-102280000D02*
X128120000Y-102080000D01*
X128620000Y-97730000D02*
X125120000Y-97730000D01*
X128620000Y-100180000D02*
X128120000Y-100180000D01*
X128620000Y-100280000D02*
X128120000Y-100280000D01*
X128620000Y-102180000D02*
X128120000Y-102180000D01*
X128620000Y-102280000D02*
X128120000Y-102280000D01*
X128620000Y-104630000D02*
X128620000Y-97730000D01*
X124510000Y-105240000D02*
X129230000Y-105240000D01*
X129230000Y-97120000D01*
X124510000Y-97120000D01*
X124510000Y-105240000D01*
%TO.C,GY-521*%
X170120000Y-98480000D02*
X171520000Y-98480000D01*
X170120000Y-99980000D02*
X170120000Y-98480000D01*
X169820000Y-98180000D02*
X191820000Y-98180000D01*
X191820000Y-102180000D01*
X169820000Y-102180000D01*
X169820000Y-98180000D01*
X169820000Y-98180000D02*
X191820000Y-98180000D01*
X191820000Y-113180000D01*
X169820000Y-113180000D01*
X169820000Y-98180000D01*
D13*
%TO.C,CD74HC4067 - MUX*%
X129680000Y-74110000D02*
X129680000Y-91890000D01*
X129680000Y-91890000D02*
X170320000Y-91890000D01*
X170320000Y-74110000D02*
X129680000Y-74110000D01*
X170320000Y-91890000D02*
X170320000Y-74110000D01*
D14*
X141210000Y-93000000D02*
G75*
G02*
X141010000Y-93000000I-100000J0D01*
G01*
X141010000Y-93000000D02*
G75*
G02*
X141210000Y-93000000I100000J0D01*
G01*
D12*
%TO.C,J_ESP32*%
X144260000Y-113300000D02*
X164800000Y-113300000D01*
X144260000Y-115950000D02*
X144260000Y-113300000D01*
X144260000Y-118600000D02*
X144260000Y-117220000D01*
X145640000Y-118600000D02*
X144260000Y-118600000D01*
X146910000Y-115950000D02*
X144260000Y-115950000D01*
X146910000Y-118600000D02*
X146910000Y-115950000D01*
X146910000Y-118600000D02*
X164800000Y-118600000D01*
X164800000Y-118600000D02*
X164800000Y-113300000D01*
%TO.C,AMS1117*%
X150140000Y-102715000D02*
X150140000Y-105475000D01*
X155330000Y-102715000D02*
X150140000Y-102715000D01*
X155330000Y-102715000D02*
X155330000Y-105475000D01*
X155330000Y-105475000D02*
X150140000Y-105475000D01*
X156600000Y-102715000D02*
X157980000Y-102715000D01*
X157980000Y-102715000D02*
X157980000Y-104095000D01*
D13*
%TO.C,ADS1115*%
X180780000Y-89745000D02*
X180780000Y-77680000D01*
X183320000Y-75140000D02*
X206180000Y-75140000D01*
X206180000Y-92285000D02*
X183320000Y-92285000D01*
X208720000Y-77680000D02*
X208720000Y-89745000D01*
X180780000Y-77680000D02*
G75*
G02*
X183320000Y-75140000I2540001J-1D01*
G01*
X183320000Y-92285000D02*
G75*
G02*
X180780000Y-89745000I1J2540001D01*
G01*
X206180000Y-75140000D02*
G75*
G02*
X208720000Y-77680000I0J-2540000D01*
G01*
X208720000Y-89745000D02*
G75*
G02*
X206180000Y-92285000I-2540000J0D01*
G01*
D14*
X209752000Y-90599500D02*
G75*
G02*
X209552000Y-90599500I-100000J0D01*
G01*
X209552000Y-90599500D02*
G75*
G02*
X209752000Y-90599500I100000J0D01*
G01*
%TD*%
M02*
