M48
; DRILL file {KiCad 9.0.7} date 2026-06-25T22:42:54+0200
; FORMAT={-:-/ absolute / metric / decimal}
; #@! TF.CreationDate,2026-06-25T22:42:54+02:00
; #@! TF.GenerationSoftware,Kicad,Pcbnew,9.0.7
; #@! TF.FileFunction,Plated,1,2,PTH
FMAT,2
METRIC
; #@! TA.AperFunction,Plated,PTH,ViaDrill
T1C0.300
; #@! TA.AperFunction,Plated,PTH,ComponentDrill
T2C0.750
; #@! TA.AperFunction,Plated,PTH,ComponentDrill
T3C1.000
; #@! TA.AperFunction,Plated,PTH,ComponentDrill
T4C1.020
; #@! TA.AperFunction,Plated,PTH,ComponentDrill
T5C2.500
%
G90
G05
T1
X156.5Y-99.5
X163.0Y-99.5
X183.521Y-97.155
T2
X126.32Y-99.18
X126.32Y-101.18
X126.32Y-103.18
X136.26Y-115.17
X138.26Y-115.17
T3
X145.64Y-114.68
X145.64Y-117.22
X148.18Y-114.68
X148.18Y-117.22
X150.72Y-114.68
X150.72Y-117.22
X151.52Y-104.095
X153.26Y-114.68
X153.26Y-117.22
X154.06Y-104.095
X155.8Y-114.68
X155.8Y-117.22
X156.6Y-104.095
X157.66Y-66.14
X157.66Y-68.68
X158.34Y-114.68
X158.34Y-117.22
X160.2Y-66.14
X160.2Y-68.68
X160.88Y-114.68
X160.88Y-117.22
X162.74Y-66.14
X162.74Y-68.68
X163.42Y-114.68
X163.42Y-117.22
X165.28Y-66.14
X165.28Y-68.68
X167.82Y-66.14
X167.82Y-68.68
X170.36Y-66.14
X170.36Y-68.68
X171.82Y-100.18
X172.9Y-66.14
X172.9Y-68.68
X174.36Y-100.18
X175.44Y-66.14
X175.44Y-68.68
X176.9Y-100.18
X177.98Y-66.14
X177.98Y-68.68
X179.44Y-100.18
X180.52Y-66.14
X180.52Y-68.68
X181.98Y-100.18
X183.32Y-90.38
X184.52Y-100.18
X185.86Y-90.38
X187.06Y-100.18
X188.4Y-90.38
X189.6Y-100.18
X190.94Y-90.38
X193.48Y-90.38
X196.02Y-90.38
X198.56Y-90.38
X201.1Y-90.38
X202.32Y-99.52
X202.32Y-102.06
X202.32Y-104.6
X202.32Y-107.14
X202.32Y-109.68
X203.64Y-90.38
X204.86Y-99.52
X204.86Y-102.06
X204.86Y-104.6
X204.86Y-107.14
X204.86Y-109.68
X206.18Y-90.38
T4
X130.95Y-75.38
X133.49Y-75.38
X136.03Y-75.38
X138.57Y-75.38
X141.11Y-75.38
X141.11Y-90.62
X143.65Y-75.38
X143.65Y-90.62
X146.19Y-75.38
X146.19Y-90.62
X148.73Y-75.38
X148.73Y-90.62
X151.27Y-75.38
X151.27Y-90.62
X153.81Y-75.38
X153.81Y-90.62
X156.35Y-75.38
X156.35Y-90.62
X158.89Y-75.38
X158.89Y-90.62
X161.43Y-75.38
X163.97Y-75.38
X166.51Y-75.38
X169.05Y-75.38
T5
X171.5Y-111.5
X183.32Y-77.68
X190.0Y-111.5
X206.18Y-77.68
M30
