M48
; DRILL file {KiCad 9.0.7} date 2026-07-28T11:35:20+0200
; FORMAT={-:-/ absolute / metric / decimal}
; #@! TF.CreationDate,2026-07-28T11:35:20+02:00
; #@! TF.GenerationSoftware,Kicad,Pcbnew,9.0.7
; #@! TF.FileFunction,Plated,1,2,PTH
FMAT,2
METRIC
; #@! TA.AperFunction,Plated,PTH,ViaDrill
T1C0.300
; #@! TA.AperFunction,Plated,PTH,ComponentDrill
T2C0.750
; #@! TA.AperFunction,Plated,PTH,ComponentDrill
T3C1.000
; #@! TA.AperFunction,Plated,PTH,ComponentDrill
T4C1.300
%
G90
G05
T1
X105.25Y-51.0
X105.5Y-62.5
X105.5Y-85.25
X115.5Y-44.25
X155.75Y-44.25
X162.903Y-84.719
X167.0Y-84.75
X169.25Y-82.75
X186.5Y-84.75
X190.0Y-81.0
X194.0Y-83.75
X202.5Y-44.25
X210.5Y-64.25
X210.5Y-84.75
X210.75Y-51.5
T2
X109.5Y-59.75
X109.5Y-61.75
X109.5Y-63.75
X116.0Y-59.75
X116.0Y-61.75
X116.0Y-63.75
X122.5Y-59.75
X122.5Y-61.75
X122.5Y-63.75
X129.0Y-59.75
X129.0Y-61.75
X129.0Y-63.75
X135.5Y-59.75
X135.5Y-61.75
X135.5Y-63.75
X142.0Y-59.75
X142.0Y-61.75
X142.0Y-63.75
X148.5Y-59.75
X148.5Y-61.75
X148.5Y-63.75
X155.0Y-59.75
X155.0Y-61.75
X155.0Y-63.75
X161.5Y-59.75
X161.5Y-61.75
X161.5Y-63.75
X168.0Y-59.75
X168.0Y-61.75
X168.0Y-63.75
X174.5Y-59.75
X174.5Y-61.75
X174.5Y-63.75
X181.0Y-59.75
X181.0Y-61.75
X181.0Y-63.75
X187.5Y-59.75
X187.5Y-61.75
X187.5Y-63.75
X194.0Y-59.75
X194.0Y-61.75
X194.0Y-63.75
X200.5Y-59.75
X200.5Y-61.75
X200.5Y-63.75
X207.0Y-59.75
X207.0Y-61.75
X207.0Y-63.75
T3
X141.26Y-83.46
X141.26Y-86.0
X143.8Y-83.46
X143.8Y-86.0
X146.34Y-83.46
X146.34Y-86.0
X148.88Y-83.46
X148.88Y-86.0
X151.42Y-83.46
X151.42Y-86.0
X153.96Y-83.46
X153.96Y-86.0
X156.5Y-83.46
X156.5Y-86.0
X159.04Y-83.46
X159.04Y-86.0
X161.58Y-83.46
X161.58Y-86.0
X164.12Y-83.46
X164.12Y-86.0
T4
X119.67Y-49.25
X124.75Y-49.25
X129.83Y-49.25
X134.91Y-49.25
X139.99Y-49.25
X145.07Y-49.25
X150.15Y-49.25
X155.23Y-49.25
X160.31Y-49.25
X165.39Y-49.25
X170.47Y-49.25
X175.55Y-49.25
X180.63Y-49.25
X185.71Y-49.25
X190.79Y-49.25
X195.87Y-49.25
M30
