%TF.GenerationSoftware,KiCad,Pcbnew,9.0.7*%
%TF.CreationDate,2026-06-25T22:35:30+02:00*%
%TF.ProjectId,input-board,696e7075-742d-4626-9f61-72642e6b6963,rev?*%
%TF.SameCoordinates,Original*%
%TF.FileFunction,Copper,L1,Top*%
%TF.FilePolarity,Positive*%
%FSLAX46Y46*%
G04 Gerber Fmt 4.6, Leading zero omitted, Abs format (unit mm)*
G04 Created by KiCad (PCBNEW 9.0.7) date 2026-06-25 22:35:30*
%MOMM*%
%LPD*%
G01*
G04 APERTURE LIST*
G04 Aperture macros list*
%AMRoundRect*
0 Rectangle with rounded corners*
0 $1 Rounding radius*
0 $2 $3 $4 $5 $6 $7 $8 $9 X,Y pos of 4 corners*
0 Add a 4 corners polygon primitive as box body*
4,1,4,$2,$3,$4,$5,$6,$7,$8,$9,$2,$3,0*
0 Add four circle primitives for the rounded corners*
1,1,$1+$1,$2,$3*
1,1,$1+$1,$4,$5*
1,1,$1+$1,$6,$7*
1,1,$1+$1,$8,$9*
0 Add four rect primitives between the rounded corners*
20,1,$1+$1,$2,$3,$4,$5,0*
20,1,$1+$1,$4,$5,$6,$7,0*
20,1,$1+$1,$6,$7,$8,$9,0*
20,1,$1+$1,$8,$9,$2,$3,0*%
G04 Aperture macros list end*
%TA.AperFunction,ComponentPad*%
%ADD10R,1.700000X1.700000*%
%TD*%
%TA.AperFunction,ComponentPad*%
%ADD11C,1.700000*%
%TD*%
%TA.AperFunction,ComponentPad*%
%ADD12RoundRect,0.250000X-0.625000X0.350000X-0.625000X-0.350000X0.625000X-0.350000X0.625000X0.350000X0*%
%TD*%
%TA.AperFunction,ComponentPad*%
%ADD13O,1.750000X1.200000*%
%TD*%
%TA.AperFunction,SMDPad,CuDef*%
%ADD14RoundRect,0.250000X-0.600000X-0.250000X0.600000X-0.250000X0.600000X0.250000X-0.600000X0.250000X0*%
%TD*%
%TA.AperFunction,SMDPad,CuDef*%
%ADD15RoundRect,0.150000X-0.700000X-0.150000X0.700000X-0.150000X0.700000X0.150000X-0.700000X0.150000X0*%
%TD*%
%TA.AperFunction,ComponentPad*%
%ADD16C,1.625600*%
%TD*%
%TA.AperFunction,SMDPad,CuDef*%
%ADD17RoundRect,0.250000X0.600000X0.250000X-0.600000X0.250000X-0.600000X-0.250000X0.600000X-0.250000X0*%
%TD*%
%TA.AperFunction,SMDPad,CuDef*%
%ADD18RoundRect,0.150000X0.700000X0.150000X-0.700000X0.150000X-0.700000X-0.150000X0.700000X-0.150000X0*%
%TD*%
%TA.AperFunction,ComponentPad*%
%ADD19RoundRect,0.250000X1.050000X1.050000X-1.050000X1.050000X-1.050000X-1.050000X1.050000X-1.050000X0*%
%TD*%
%TA.AperFunction,ComponentPad*%
%ADD20C,2.600000*%
%TD*%
%TA.AperFunction,ViaPad*%
%ADD21C,0.600000*%
%TD*%
%TA.AperFunction,Conductor*%
%ADD22C,0.200000*%
%TD*%
G04 APERTURE END LIST*
D10*
%TO.P,B_SIGIN,1,Pin_1*%
%TO.N,Net-(J29-Pin_1)*%
X141300000Y-85540000D03*
D11*
%TO.P,B_SIGIN,2,Pin_2*%
%TO.N,Net-(J29-Pin_2)*%
X141300000Y-83000000D03*
%TO.P,B_SIGIN,3,Pin_3*%
%TO.N,Net-(J29-Pin_3)*%
X143840000Y-85540000D03*
%TO.P,B_SIGIN,4,Pin_4*%
%TO.N,Net-(J29-Pin_4)*%
X143840000Y-83000000D03*
%TO.P,B_SIGIN,5,Pin_5*%
%TO.N,Net-(J29-Pin_5)*%
X146380000Y-85540000D03*
%TO.P,B_SIGIN,6,Pin_6*%
%TO.N,Net-(J29-Pin_6)*%
X146380000Y-83000000D03*
%TO.P,B_SIGIN,7,Pin_7*%
%TO.N,Net-(J29-Pin_7)*%
X148920000Y-85540000D03*
%TO.P,B_SIGIN,8,Pin_8*%
%TO.N,Net-(J29-Pin_8)*%
X148920000Y-83000000D03*
%TO.P,B_SIGIN,9,Pin_9*%
%TO.N,Net-(J29-Pin_9)*%
X151460000Y-85540000D03*
%TO.P,B_SIGIN,10,Pin_10*%
%TO.N,Net-(J29-Pin_10)*%
X151460000Y-83000000D03*
%TO.P,B_SIGIN,11,Pin_11*%
%TO.N,Net-(J29-Pin_11)*%
X154000000Y-85540000D03*
%TO.P,B_SIGIN,12,Pin_12*%
%TO.N,Net-(J29-Pin_12)*%
X154000000Y-83000000D03*
%TO.P,B_SIGIN,13,Pin_13*%
%TO.N,Net-(J29-Pin_13)*%
X156540000Y-85540000D03*
%TO.P,B_SIGIN,14,Pin_14*%
%TO.N,Net-(J29-Pin_14)*%
X156540000Y-83000000D03*
%TO.P,B_SIGIN,15,Pin_15*%
%TO.N,Net-(J29-Pin_15)*%
X159080000Y-85540000D03*
%TO.P,B_SIGIN,16,Pin_16*%
%TO.N,Net-(J29-Pin_16)*%
X159080000Y-83000000D03*
%TO.P,B_SIGIN,17,Pin_17*%
%TO.N,unconnected-(J29-Pin_17-Pad17)*%
X161620000Y-85540000D03*
%TO.P,B_SIGIN,18,Pin_18*%
%TO.N,unconnected-(J29-Pin_18-Pad18)*%
X161620000Y-83000000D03*
%TO.P,B_SIGIN,19,Pin_19*%
%TO.N,unconnected-(J29-Pin_19-Pad19)*%
X164160000Y-85540000D03*
%TO.P,B_SIGIN,20,Pin_20*%
%TO.N,GND*%
X164160000Y-83000000D03*
%TD*%
D12*
%TO.P,CH09,1,Pin_1*%
%TO.N,Net-(J27-Pin_8)*%
X161900000Y-60500000D03*
D13*
%TO.P,CH09,2,Pin_2*%
%TO.N,GND*%
X161900000Y-62500000D03*
%TO.P,CH09,3,Pin_3*%
%TO.N,Net-(J8-Pin_3)*%
X161900000Y-64500000D03*
%TD*%
D14*
%TO.P,D1,1*%
%TO.N,GND*%
X115310000Y-72510000D03*
D15*
%TO.P,D1,2*%
%TO.N,Net-(J29-Pin_3)*%
X115310000Y-74210000D03*
%TO.P,D1,3*%
%TO.N,Net-(J29-Pin_2)*%
X118310000Y-74210000D03*
%TO.P,D1,4*%
%TO.N,Net-(J29-Pin_1)*%
X118310000Y-72310000D03*
%TD*%
D12*
%TO.P,CH11,1,Pin_1*%
%TO.N,Net-(J27-Pin_6)*%
X175000000Y-60500000D03*
D13*
%TO.P,CH11,2,Pin_2*%
%TO.N,GND*%
X175000000Y-62500000D03*
%TO.P,CH11,3,Pin_3*%
%TO.N,Net-(J6-Pin_3)*%
X175000000Y-64500000D03*
%TD*%
D12*
%TO.P,CH12,1,Pin_1*%
%TO.N,Net-(J27-Pin_5)*%
X181550000Y-60500000D03*
D13*
%TO.P,CH12,2,Pin_2*%
%TO.N,GND*%
X181550000Y-62500000D03*
%TO.P,CH12,3,Pin_3*%
%TO.N,Net-(J5-Pin_3)*%
X181550000Y-64500000D03*
%TD*%
D14*
%TO.P,D3,1*%
%TO.N,GND*%
X126260000Y-72510000D03*
D15*
%TO.P,D3,2*%
%TO.N,Net-(J29-Pin_6)*%
X126260000Y-74210000D03*
%TO.P,D3,3*%
%TO.N,Net-(J29-Pin_5)*%
X129260000Y-74210000D03*
%TO.P,D3,4*%
%TO.N,Net-(J29-Pin_9)*%
X129260000Y-72310000D03*
%TD*%
D12*
%TO.P,CH05,1,Pin_1*%
%TO.N,Net-(J12-Pin_1)*%
X135850000Y-60500000D03*
D13*
%TO.P,CH05,2,Pin_2*%
%TO.N,GND*%
X135850000Y-62500000D03*
%TO.P,CH05,3,Pin_3*%
%TO.N,Net-(J12-Pin_3)*%
X135850000Y-64500000D03*
%TD*%
D12*
%TO.P,CH03,1,Pin_1*%
%TO.N,Net-(J14-Pin_1)*%
X123000000Y-60500000D03*
D13*
%TO.P,CH03,2,Pin_2*%
%TO.N,GND*%
X123000000Y-62500000D03*
%TO.P,CH03,3,Pin_3*%
%TO.N,Net-(J14-Pin_3)*%
X123000000Y-64500000D03*
%TD*%
D16*
%TO.P,R_Pack08#1,1,R1.1*%
%TO.N,Net-(J29-Pin_9)*%
X135300000Y-77500000D03*
%TO.P,R_Pack08#1,2,R2.1*%
%TO.N,Net-(J29-Pin_10)*%
X137840000Y-77500000D03*
%TO.P,R_Pack08#1,3,R3.1*%
%TO.N,Net-(J29-Pin_11)*%
X140380000Y-77500000D03*
%TO.P,R_Pack08#1,4,R4.1*%
%TO.N,Net-(J29-Pin_12)*%
X142920000Y-77500000D03*
%TO.P,R_Pack08#1,5,R5.1*%
%TO.N,Net-(J29-Pin_13)*%
X145460000Y-77500000D03*
%TO.P,R_Pack08#1,6,R6.1*%
%TO.N,Net-(J29-Pin_14)*%
X148000000Y-77500000D03*
%TO.P,R_Pack08#1,7,R7.1*%
%TO.N,Net-(J29-Pin_15)*%
X150540000Y-77500000D03*
%TO.P,R_Pack08#1,8,R8.1*%
%TO.N,Net-(J29-Pin_16)*%
X153080000Y-77500000D03*
%TO.P,R_Pack08#1,9,R8.2*%
%TO.N,Net-(J16-Pin_3)*%
X153080000Y-69880000D03*
%TO.P,R_Pack08#1,10,R7.2*%
%TO.N,Net-(J15-Pin_3)*%
X150540000Y-69880000D03*
%TO.P,R_Pack08#1,11,R6.2*%
%TO.N,Net-(J14-Pin_3)*%
X148000000Y-69880000D03*
%TO.P,R_Pack08#1,12,R5.2*%
%TO.N,Net-(J13-Pin_3)*%
X145460000Y-69880000D03*
%TO.P,R_Pack08#1,13,R4.2*%
%TO.N,Net-(J12-Pin_3)*%
X142920000Y-69880000D03*
%TO.P,R_Pack08#1,14,R3.2*%
%TO.N,Net-(J11-Pin_3)*%
X140380000Y-69880000D03*
%TO.P,R_Pack08#1,15,R2.2*%
%TO.N,Net-(J10-Pin_3)*%
X137840000Y-69880000D03*
%TO.P,R_Pack08#1,16,R1.2*%
%TO.N,Net-(J9-Pin_3)*%
X135300000Y-69880000D03*
%TD*%
D12*
%TO.P,CH06,1,Pin_1*%
%TO.N,Net-(J11-Pin_1)*%
X142400000Y-60500000D03*
D13*
%TO.P,CH06,2,Pin_2*%
%TO.N,GND*%
X142400000Y-62500000D03*
%TO.P,CH06,3,Pin_3*%
%TO.N,Net-(J11-Pin_3)*%
X142400000Y-64500000D03*
%TD*%
D12*
%TO.P,CH16,1,Pin_1*%
%TO.N,Net-(J1-Pin_1)*%
X207500000Y-60500000D03*
D13*
%TO.P,CH16,2,Pin_2*%
%TO.N,GND*%
X207500000Y-62500000D03*
%TO.P,CH16,3,Pin_3*%
%TO.N,Net-(J1-Pin_3)*%
X207500000Y-64500000D03*
%TD*%
D17*
%TO.P,D5,1*%
%TO.N,GND*%
X193310000Y-74510000D03*
D18*
%TO.P,D5,2*%
%TO.N,unconnected-(D5-Pad2)*%
X193310000Y-72810000D03*
%TO.P,D5,3*%
%TO.N,Net-(J29-Pin_14)*%
X190310000Y-72810000D03*
%TO.P,D5,4*%
%TO.N,unconnected-(D5-Pad4)*%
X190310000Y-74710000D03*
%TD*%
D12*
%TO.P,CH13,1,Pin_1*%
%TO.N,Net-(J27-Pin_4)*%
X187850000Y-60500000D03*
D13*
%TO.P,CH13,2,Pin_2*%
%TO.N,GND*%
X187850000Y-62500000D03*
%TO.P,CH13,3,Pin_3*%
%TO.N,Net-(J4-Pin_3)*%
X187850000Y-64500000D03*
%TD*%
D12*
%TO.P,CH08,1,Pin_1*%
%TO.N,Net-(J27-Pin_9)*%
X155500000Y-60500000D03*
D13*
%TO.P,CH08,2,Pin_2*%
%TO.N,GND*%
X155500000Y-62500000D03*
%TO.P,CH08,3,Pin_3*%
%TO.N,Net-(J9-Pin_3)*%
X155500000Y-64500000D03*
%TD*%
D17*
%TO.P,D6,1*%
%TO.N,GND*%
X198760000Y-74510000D03*
D18*
%TO.P,D6,2*%
%TO.N,Net-(J29-Pin_16)*%
X198760000Y-72810000D03*
%TO.P,D6,3*%
%TO.N,Net-(J29-Pin_15)*%
X195760000Y-72810000D03*
%TO.P,D6,4*%
%TO.N,Net-(J29-Pin_12)*%
X195760000Y-74710000D03*
%TD*%
D12*
%TO.P,CH01,1,Pin_1*%
%TO.N,Net-(J16-Pin_1)*%
X109900000Y-60500000D03*
D13*
%TO.P,CH01,2,Pin_2*%
%TO.N,GND*%
X109900000Y-62500000D03*
%TO.P,CH01,3,Pin_3*%
%TO.N,Net-(J16-Pin_3)*%
X109900000Y-64500000D03*
%TD*%
D12*
%TO.P,CH04,1,Pin_1*%
%TO.N,Net-(J13-Pin_1)*%
X129550000Y-60500000D03*
D13*
%TO.P,CH04,2,Pin_2*%
%TO.N,GND*%
X129550000Y-62500000D03*
%TO.P,CH04,3,Pin_3*%
%TO.N,Net-(J13-Pin_3)*%
X129550000Y-64500000D03*
%TD*%
D12*
%TO.P,CH02,1,Pin_1*%
%TO.N,Net-(J15-Pin_1)*%
X116450000Y-60500000D03*
D13*
%TO.P,CH02,2,Pin_2*%
%TO.N,GND*%
X116450000Y-62500000D03*
%TO.P,CH02,3,Pin_3*%
%TO.N,Net-(J15-Pin_3)*%
X116450000Y-64500000D03*
%TD*%
D19*
%TO.P,J27,1,Pin_1*%
%TO.N,Net-(J1-Pin_1)*%
X195500000Y-50500000D03*
D20*
%TO.P,J27,2,Pin_2*%
%TO.N,Net-(J2-Pin_1)*%
X190420000Y-50500000D03*
%TO.P,J27,3,Pin_3*%
%TO.N,Net-(J27-Pin_3)*%
X185340000Y-50500000D03*
%TO.P,J27,4,Pin_4*%
%TO.N,Net-(J27-Pin_4)*%
X180260000Y-50500000D03*
%TO.P,J27,5,Pin_5*%
%TO.N,Net-(J27-Pin_5)*%
X175180000Y-50500000D03*
%TO.P,J27,6,Pin_6*%
%TO.N,Net-(J27-Pin_6)*%
X170100000Y-50500000D03*
%TO.P,J27,7,Pin_7*%
%TO.N,Net-(J27-Pin_7)*%
X165020000Y-50500000D03*
%TO.P,J27,8,Pin_8*%
%TO.N,Net-(J27-Pin_8)*%
X159940000Y-50500000D03*
%TO.P,J27,9,Pin_9*%
%TO.N,Net-(J27-Pin_9)*%
X154860000Y-50500000D03*
%TO.P,J27,10,Pin_10*%
%TO.N,Net-(J10-Pin_1)*%
X149780000Y-50500000D03*
%TO.P,J27,11,Pin_11*%
%TO.N,Net-(J11-Pin_1)*%
X144700000Y-50500000D03*
%TO.P,J27,12,Pin_12*%
%TO.N,Net-(J12-Pin_1)*%
X139620000Y-50500000D03*
%TO.P,J27,13,Pin_13*%
%TO.N,Net-(J13-Pin_1)*%
X134540000Y-50500000D03*
%TO.P,J27,14,Pin_14*%
%TO.N,Net-(J14-Pin_1)*%
X129460000Y-50500000D03*
%TO.P,J27,15,Pin_15*%
%TO.N,Net-(J15-Pin_1)*%
X124380000Y-50500000D03*
%TO.P,J27,16,Pin_16*%
%TO.N,Net-(J16-Pin_1)*%
X119300000Y-50500000D03*
%TD*%
D17*
%TO.P,D4,1*%
%TO.N,GND*%
X187180000Y-74390000D03*
D18*
%TO.P,D4,2*%
%TO.N,Net-(J29-Pin_13)*%
X187180000Y-72690000D03*
%TO.P,D4,3*%
%TO.N,Net-(J29-Pin_10)*%
X184180000Y-72690000D03*
%TO.P,D4,4*%
%TO.N,Net-(J29-Pin_11)*%
X184180000Y-74590000D03*
%TD*%
D14*
%TO.P,D2,1*%
%TO.N,GND*%
X120810000Y-72510000D03*
D15*
%TO.P,D2,2*%
%TO.N,Net-(J29-Pin_8)*%
X120810000Y-74210000D03*
%TO.P,D2,3*%
%TO.N,Net-(J29-Pin_7)*%
X123810000Y-74210000D03*
%TO.P,D2,4*%
%TO.N,Net-(J29-Pin_4)*%
X123810000Y-72310000D03*
%TD*%
D12*
%TO.P,CH15,1,Pin_1*%
%TO.N,Net-(J2-Pin_1)*%
X200950000Y-60500000D03*
D13*
%TO.P,CH15,2,Pin_2*%
%TO.N,GND*%
X200950000Y-62500000D03*
%TO.P,CH15,3,Pin_3*%
%TO.N,Net-(J2-Pin_3)*%
X200950000Y-64500000D03*
%TD*%
D16*
%TO.P,R_Pack08#2,1,R1.1*%
%TO.N,Net-(J29-Pin_1)*%
X159800000Y-77500000D03*
%TO.P,R_Pack08#2,2,R2.1*%
%TO.N,Net-(J29-Pin_2)*%
X162340000Y-77500000D03*
%TO.P,R_Pack08#2,3,R3.1*%
%TO.N,Net-(J29-Pin_3)*%
X164880000Y-77500000D03*
%TO.P,R_Pack08#2,4,R4.1*%
%TO.N,Net-(J29-Pin_4)*%
X167420000Y-77500000D03*
%TO.P,R_Pack08#2,5,R5.1*%
%TO.N,Net-(J29-Pin_5)*%
X169960000Y-77500000D03*
%TO.P,R_Pack08#2,6,R6.1*%
%TO.N,Net-(J29-Pin_6)*%
X172500000Y-77500000D03*
%TO.P,R_Pack08#2,7,R7.1*%
%TO.N,Net-(J29-Pin_7)*%
X175040000Y-77500000D03*
%TO.P,R_Pack08#2,8,R8.1*%
%TO.N,Net-(J29-Pin_8)*%
X177580000Y-77500000D03*
%TO.P,R_Pack08#2,9,R8.2*%
%TO.N,Net-(J8-Pin_3)*%
X177580000Y-69880000D03*
%TO.P,R_Pack08#2,10,R7.2*%
%TO.N,Net-(J7-Pin_3)*%
X175040000Y-69880000D03*
%TO.P,R_Pack08#2,11,R6.2*%
%TO.N,Net-(J6-Pin_3)*%
X172500000Y-69880000D03*
%TO.P,R_Pack08#2,12,R5.2*%
%TO.N,Net-(J5-Pin_3)*%
X169960000Y-69880000D03*
%TO.P,R_Pack08#2,13,R4.2*%
%TO.N,Net-(J4-Pin_3)*%
X167420000Y-69880000D03*
%TO.P,R_Pack08#2,14,R3.2*%
%TO.N,Net-(J3-Pin_3)*%
X164880000Y-69880000D03*
%TO.P,R_Pack08#2,15,R2.2*%
%TO.N,Net-(J2-Pin_3)*%
X162340000Y-69880000D03*
%TO.P,R_Pack08#2,16,R1.2*%
%TO.N,Net-(J1-Pin_3)*%
X159800000Y-69880000D03*
%TD*%
D12*
%TO.P,CH07,1,Pin_1*%
%TO.N,Net-(J10-Pin_1)*%
X148950000Y-60500000D03*
D13*
%TO.P,CH07,2,Pin_2*%
%TO.N,GND*%
X148950000Y-62500000D03*
%TO.P,CH07,3,Pin_3*%
%TO.N,Net-(J10-Pin_3)*%
X148950000Y-64500000D03*
%TD*%
D12*
%TO.P,CH14,1,Pin_1*%
%TO.N,Net-(J27-Pin_3)*%
X194400000Y-60500000D03*
D13*
%TO.P,CH14,2,Pin_2*%
%TO.N,GND*%
X194400000Y-62500000D03*
%TO.P,CH14,3,Pin_3*%
%TO.N,Net-(J3-Pin_3)*%
X194400000Y-64500000D03*
%TD*%
D12*
%TO.P,CH10,1,Pin_1*%
%TO.N,Net-(J27-Pin_7)*%
X168450000Y-60500000D03*
D13*
%TO.P,CH10,2,Pin_2*%
%TO.N,GND*%
X168450000Y-62500000D03*
%TO.P,CH10,3,Pin_3*%
%TO.N,Net-(J7-Pin_3)*%
X168450000Y-64500000D03*
%TD*%
D21*
%TO.N,GND*%
X168000000Y-85500000D03*
X168000000Y-83000000D03*
X122177300Y-72592200D03*
X113942600Y-72636300D03*
X191951800Y-74542400D03*
X127615200Y-72850300D03*
X188555900Y-74306600D03*
X200143500Y-74513100D03*
%TO.N,Net-(J29-Pin_7)*%
X125098200Y-75941400D03*
%TO.N,Net-(J29-Pin_4)*%
X125090000Y-71697200D03*
%TO.N,Net-(J29-Pin_1)*%
X139545400Y-82384700D03*
%TO.N,Net-(J29-Pin_6)*%
X128001000Y-76059500D03*
%TO.N,Net-(J29-Pin_3)*%
X144832400Y-81872000D03*
%TO.N,Net-(J29-Pin_5)*%
X167711700Y-79748300D03*
%TO.N,Net-(J29-Pin_11)*%
X160108200Y-84358500D03*
X158000400Y-74614400D03*
%TD*%
D22*
%TO.N,GND*%
X168000000Y-83000000D02*
X168000000Y-85500000D01*
%TO.N,Net-(J1-Pin_3)*%
X207500000Y-64500000D02*
X207500000Y-63598300D01*
X166081700Y-63598300D02*
X207500000Y-63598300D01*
X159800000Y-69880000D02*
X166081700Y-63598300D01*
%TO.N,Net-(J2-Pin_3)*%
X173770000Y-70201000D02*
X173770000Y-69530000D01*
X173770000Y-69530000D02*
X177496600Y-65803400D01*
X200548300Y-65803400D02*
X200950000Y-65401700D01*
X163486500Y-71026500D02*
X172944500Y-71026500D01*
X177496600Y-65803400D02*
X200548300Y-65803400D01*
X172944500Y-71026500D02*
X173770000Y-70201000D01*
X200950000Y-64500000D02*
X200950000Y-65401700D01*
X162340000Y-69880000D02*
X163486500Y-71026500D01*
%TO.N,Net-(J4-Pin_3)*%
X171898300Y-65401700D02*
X167420000Y-69880000D01*
X187850000Y-65401700D02*
X171898300Y-65401700D01*
X187850000Y-64500000D02*
X187850000Y-65401700D01*
%TO.N,Net-(J9-Pin_3)*%
X155500000Y-64500000D02*
X155500000Y-63598300D01*
X155500000Y-63598300D02*
X141581700Y-63598300D01*
X141581700Y-63598300D02*
X135300000Y-69880000D01*
%TO.N,Net-(J10-Pin_3)*%
X142318300Y-65401700D02*
X148950000Y-65401700D01*
X137840000Y-69880000D02*
X142318300Y-65401700D01*
X148950000Y-64500000D02*
X148950000Y-65401700D01*
%TO.N,Net-(J16-Pin_3)*%
X115493800Y-70995500D02*
X109900000Y-65401700D01*
X109900000Y-64500000D02*
X109900000Y-65401700D01*
X153080000Y-69880000D02*
X151964500Y-70995500D01*
X151964500Y-70995500D02*
X115493800Y-70995500D01*
%TO.N,GND*%
X191951800Y-74542400D02*
X193277600Y-74542400D01*
X188472500Y-74390000D02*
X188555900Y-74306600D01*
X187180000Y-74390000D02*
X188472500Y-74390000D01*
X193277600Y-74542400D02*
X193310000Y-74510000D01*
X200143500Y-74513100D02*
X198763100Y-74513100D01*
X127615200Y-72850300D02*
X126600300Y-72850300D01*
X120892200Y-72592200D02*
X120810000Y-72510000D01*
X126600300Y-72850300D02*
X126260000Y-72510000D01*
X115183700Y-72636300D02*
X115310000Y-72510000D01*
X113942600Y-72636300D02*
X115183700Y-72636300D01*
X198763100Y-74513100D02*
X198760000Y-74510000D01*
X122177300Y-72592200D02*
X120892200Y-72592200D01*
%TO.N,Net-(J29-Pin_7)*%
X125098200Y-75498200D02*
X125098200Y-75941400D01*
X123810000Y-74210000D02*
X125098200Y-75498200D01*
%TO.N,Net-(J29-Pin_2)*%
X127135800Y-73573300D02*
X128024000Y-74461500D01*
X128024000Y-74538200D02*
X136485800Y-83000000D01*
X128024000Y-74461500D02*
X128024000Y-74538200D01*
X136485800Y-83000000D02*
X141300000Y-83000000D01*
X155483600Y-78634300D02*
X161205700Y-78634300D01*
X144152700Y-80147300D02*
X146202200Y-80147300D01*
X118946700Y-73573300D02*
X127135800Y-73573300D01*
X146911800Y-79437700D02*
X154680200Y-79437700D01*
X118310000Y-74210000D02*
X118946700Y-73573300D01*
X146202200Y-80147300D02*
X146911800Y-79437700D01*
X154680200Y-79437700D02*
X155483600Y-78634300D01*
X141300000Y-83000000D02*
X144152700Y-80147300D01*
X161205700Y-78634300D02*
X162340000Y-77500000D01*
%TO.N,Net-(J29-Pin_4)*%
X155012800Y-80241100D02*
X155816200Y-79437700D01*
X124422800Y-71697200D02*
X123810000Y-72310000D01*
X143840000Y-83000000D02*
X144556400Y-83000000D01*
X164262700Y-78634300D02*
X166285700Y-78634300D01*
X166285700Y-78634300D02*
X167420000Y-77500000D01*
X155816200Y-79437700D02*
X163459300Y-79437700D01*
X147315300Y-80241100D02*
X155012800Y-80241100D01*
X125090000Y-71697200D02*
X124422800Y-71697200D01*
X144556400Y-83000000D02*
X147315300Y-80241100D01*
X163459300Y-79437700D02*
X164262700Y-78634300D01*
%TO.N,Net-(J29-Pin_1)*%
X128106800Y-85540000D02*
X141300000Y-85540000D01*
X154513800Y-79036000D02*
X156049800Y-77500000D01*
X146745500Y-79036000D02*
X154513800Y-79036000D01*
X117145000Y-73475000D02*
X117145000Y-74578200D01*
X146035900Y-79745600D02*
X146745500Y-79036000D01*
X139545400Y-82384700D02*
X142184500Y-79745600D01*
X156049800Y-77500000D02*
X159800000Y-77500000D01*
X117145000Y-74578200D02*
X128106800Y-85540000D01*
X118310000Y-72310000D02*
X117145000Y-73475000D01*
X142184500Y-79745600D02*
X146035900Y-79745600D01*
%TO.N,Net-(J29-Pin_8)*%
X167156200Y-79146600D02*
X175933400Y-79146600D01*
X175933400Y-79146600D02*
X177580000Y-77500000D01*
X166061700Y-80241100D02*
X167156200Y-79146600D01*
X150875500Y-81044500D02*
X155345400Y-81044500D01*
X156148800Y-80241100D02*
X166061700Y-80241100D01*
X147721300Y-84198700D02*
X130798700Y-84198700D01*
X148920000Y-83000000D02*
X147721300Y-84198700D01*
X148920000Y-83000000D02*
X150875500Y-81044500D01*
X130798700Y-84198700D02*
X120810000Y-74210000D01*
X155345400Y-81044500D02*
X156148800Y-80241100D01*
%TO.N,Net-(J29-Pin_6)*%
X164409200Y-79055900D02*
X166678900Y-79055900D01*
X146380000Y-83000000D02*
X148737200Y-80642800D01*
X155982500Y-79839400D02*
X163625700Y-79839400D01*
X171255100Y-78744900D02*
X172500000Y-77500000D01*
X166989900Y-78744900D02*
X171255100Y-78744900D01*
X166678900Y-79055900D02*
X166989900Y-78744900D01*
X163625700Y-79839400D02*
X164409200Y-79055900D01*
X155179100Y-80642800D02*
X155982500Y-79839400D01*
X148737200Y-80642800D02*
X155179100Y-80642800D01*
X128001000Y-76059500D02*
X126260000Y-74318500D01*
X126260000Y-74318500D02*
X126260000Y-74210000D01*
%TO.N,Net-(J29-Pin_3)*%
X145045600Y-81871900D02*
X144832400Y-81871900D01*
X164880000Y-77500000D02*
X164607700Y-77500000D01*
X155649900Y-79036000D02*
X154846500Y-79839400D01*
X144832400Y-81871900D02*
X144832400Y-81872000D01*
X115310000Y-74210000D02*
X127791700Y-86691700D01*
X142688300Y-86691700D02*
X143840000Y-85540000D01*
X127791700Y-86691700D02*
X142688300Y-86691700D01*
X147078100Y-79839400D02*
X145045600Y-81871900D01*
X164607700Y-77500000D02*
X163071700Y-79036000D01*
X163071700Y-79036000D02*
X155649900Y-79036000D01*
X154846500Y-79839400D02*
X147078100Y-79839400D01*
%TO.N,Net-(J29-Pin_5)*%
X146579200Y-78634300D02*
X154064800Y-78634300D01*
X158748500Y-76421200D02*
X158798200Y-76371500D01*
X153900800Y-81446200D02*
X155511700Y-81446200D01*
X151725300Y-84388300D02*
X152730000Y-83383600D01*
X156277900Y-76421200D02*
X158748500Y-76421200D01*
X166817200Y-80642800D02*
X167711700Y-79748300D01*
X145869600Y-79343900D02*
X146579200Y-78634300D01*
X154064800Y-78634300D02*
X156277900Y-76421200D01*
X146380000Y-85540000D02*
X146981700Y-85540000D01*
X158798200Y-76371500D02*
X168132800Y-76371500D01*
X148133400Y-84388300D02*
X151725300Y-84388300D01*
X168132800Y-76371500D02*
X169261300Y-77500000D01*
X169261300Y-77500000D02*
X169960000Y-77500000D01*
X134393900Y-79343900D02*
X145869600Y-79343900D01*
X152730000Y-82617000D02*
X153900800Y-81446200D01*
X155511700Y-81446200D02*
X156315100Y-80642800D01*
X152730000Y-83383600D02*
X152730000Y-82617000D01*
X146981700Y-85540000D02*
X148133400Y-84388300D01*
X129260000Y-74210000D02*
X134393900Y-79343900D01*
X156315100Y-80642800D02*
X166817200Y-80642800D01*
%TO.N,Net-(J29-Pin_15)*%
X168927500Y-75830000D02*
X187884700Y-75830000D01*
X189911900Y-73618400D02*
X194951600Y-73618400D01*
X168665600Y-75568100D02*
X168927500Y-75830000D01*
X158465600Y-75568100D02*
X168665600Y-75568100D01*
X194951600Y-73618400D02*
X195760000Y-72810000D01*
X152422200Y-75617800D02*
X158415900Y-75617800D01*
X187884700Y-75830000D02*
X189157700Y-74557000D01*
X189157700Y-74372600D02*
X189911900Y-73618400D01*
X158415900Y-75617800D02*
X158465600Y-75568100D01*
X189157700Y-74557000D02*
X189157700Y-74372600D01*
X150540000Y-77500000D02*
X152422200Y-75617800D01*
%TO.N,Net-(J29-Pin_16)*%
X154560500Y-76019500D02*
X158582200Y-76019500D01*
X153080000Y-77500000D02*
X154560500Y-76019500D01*
X168499300Y-75969800D02*
X168800600Y-76271100D01*
X158631900Y-75969800D02*
X168499300Y-75969800D01*
X197477400Y-74092600D02*
X198760000Y-72810000D01*
X194827900Y-74092600D02*
X197477400Y-74092600D01*
X168800600Y-76271100D02*
X193209800Y-76271100D01*
X193209800Y-76271100D02*
X194505900Y-74975000D01*
X194505900Y-74414600D02*
X194827900Y-74092600D01*
X158582200Y-76019500D02*
X158631900Y-75969800D01*
X194505900Y-74975000D02*
X194505900Y-74414600D01*
%TO.N,Net-(J29-Pin_10)*%
X142650000Y-72690000D02*
X184180000Y-72690000D01*
X137840000Y-77500000D02*
X142650000Y-72690000D01*
%TO.N,Net-(J29-Pin_11)*%
X160108200Y-84358500D02*
X155181500Y-84358500D01*
X149221500Y-74614400D02*
X146885500Y-76950400D01*
X158024800Y-74590000D02*
X158000400Y-74614400D01*
X155181500Y-84358500D02*
X154000000Y-85540000D01*
X146885500Y-76950400D02*
X146885500Y-77720000D01*
X145951400Y-78654100D02*
X141534100Y-78654100D01*
X158000400Y-74614400D02*
X149221500Y-74614400D01*
X141534100Y-78654100D02*
X140380000Y-77500000D01*
X146885500Y-77720000D02*
X145951400Y-78654100D01*
X184180000Y-74590000D02*
X158024800Y-74590000D01*
%TO.N,Net-(J29-Pin_12)*%
X189425500Y-81044500D02*
X195760000Y-74710000D01*
X156481400Y-81044500D02*
X189425500Y-81044500D01*
X154000000Y-83000000D02*
X154525900Y-83000000D01*
X154525900Y-83000000D02*
X156481400Y-81044500D01*
%TO.N,Net-(J29-Pin_9)*%
X135300000Y-77500000D02*
X130110000Y-72310000D01*
X130110000Y-72310000D02*
X129260000Y-72310000D01*
%TO.N,Net-(J29-Pin_13)*%
X186038200Y-72690000D02*
X184946700Y-73781500D01*
X187180000Y-72690000D02*
X186038200Y-72690000D01*
X149178500Y-73781500D02*
X145460000Y-77500000D01*
X184946700Y-73781500D02*
X149178500Y-73781500D01*
%TO.N,Net-(J29-Pin_14)*%
X185709200Y-74555400D02*
X185709200Y-74160800D01*
X158299300Y-75166400D02*
X168831900Y-75166400D01*
X168831900Y-75166400D02*
X169093800Y-75428300D01*
X148000000Y-77500000D02*
X150283900Y-75216100D01*
X186465700Y-73404300D02*
X188956900Y-73404300D01*
X169093800Y-75428300D02*
X184836300Y-75428300D01*
X158249600Y-75216100D02*
X158299300Y-75166400D01*
X189551200Y-72810000D02*
X190310000Y-72810000D01*
X188956900Y-73404300D02*
X189551200Y-72810000D01*
X184836300Y-75428300D02*
X185709200Y-74555400D01*
X185709200Y-74160800D02*
X186465700Y-73404300D01*
X150283900Y-75216100D02*
X158249600Y-75216100D01*
%TD*%
M02*
