%TF.GenerationSoftware,KiCad,Pcbnew,9.0.7*%
%TF.CreationDate,2026-06-25T22:35:30+02:00*%
%TF.ProjectId,input-board,696e7075-742d-4626-9f61-72642e6b6963,rev?*%
%TF.SameCoordinates,Original*%
%TF.FileFunction,Copper,L2,Bot*%
%TF.FilePolarity,Positive*%
%FSLAX46Y46*%
G04 Gerber Fmt 4.6, Leading zero omitted, Abs format (unit mm)*
G04 Created by KiCad (PCBNEW 9.0.7) date 2026-06-25 22:35:30*
%MOMM*%
%LPD*%
G01*
G04 APERTURE LIST*
G04 Aperture macros list*
%AMRoundRect*
0 Rectangle with rounded corners*
0 $1 Rounding radius*
0 $2 $3 $4 $5 $6 $7 $8 $9 X,Y pos of 4 corners*
0 Add a 4 corners polygon primitive as box body*
4,1,4,$2,$3,$4,$5,$6,$7,$8,$9,$2,$3,0*
0 Add four circle primitives for the rounded corners*
1,1,$1+$1,$2,$3*
1,1,$1+$1,$4,$5*
1,1,$1+$1,$6,$7*
1,1,$1+$1,$8,$9*
0 Add four rect primitives between the rounded corners*
20,1,$1+$1,$2,$3,$4,$5,0*
20,1,$1+$1,$4,$5,$6,$7,0*
20,1,$1+$1,$6,$7,$8,$9,0*
20,1,$1+$1,$8,$9,$2,$3,0*%
G04 Aperture macros list end*
%TA.AperFunction,ComponentPad*%
%ADD10R,1.700000X1.700000*%
%TD*%
%TA.AperFunction,ComponentPad*%
%ADD11C,1.700000*%
%TD*%
%TA.AperFunction,ComponentPad*%
%ADD12RoundRect,0.250000X-0.625000X0.350000X-0.625000X-0.350000X0.625000X-0.350000X0.625000X0.350000X0*%
%TD*%
%TA.AperFunction,ComponentPad*%
%ADD13O,1.750000X1.200000*%
%TD*%
%TA.AperFunction,ComponentPad*%
%ADD14C,1.625600*%
%TD*%
%TA.AperFunction,ComponentPad*%
%ADD15RoundRect,0.250000X1.050000X1.050000X-1.050000X1.050000X-1.050000X-1.050000X1.050000X-1.050000X0*%
%TD*%
%TA.AperFunction,ComponentPad*%
%ADD16C,2.600000*%
%TD*%
%TA.AperFunction,ViaPad*%
%ADD17C,0.600000*%
%TD*%
%TA.AperFunction,Conductor*%
%ADD18C,0.200000*%
%TD*%
G04 APERTURE END LIST*
D10*
%TO.P,B_SIGIN,1,Pin_1*%
%TO.N,Net-(J29-Pin_1)*%
X141300000Y-85540000D03*
D11*
%TO.P,B_SIGIN,2,Pin_2*%
%TO.N,Net-(J29-Pin_2)*%
X141300000Y-83000000D03*
%TO.P,B_SIGIN,3,Pin_3*%
%TO.N,Net-(J29-Pin_3)*%
X143840000Y-85540000D03*
%TO.P,B_SIGIN,4,Pin_4*%
%TO.N,Net-(J29-Pin_4)*%
X143840000Y-83000000D03*
%TO.P,B_SIGIN,5,Pin_5*%
%TO.N,Net-(J29-Pin_5)*%
X146380000Y-85540000D03*
%TO.P,B_SIGIN,6,Pin_6*%
%TO.N,Net-(J29-Pin_6)*%
X146380000Y-83000000D03*
%TO.P,B_SIGIN,7,Pin_7*%
%TO.N,Net-(J29-Pin_7)*%
X148920000Y-85540000D03*
%TO.P,B_SIGIN,8,Pin_8*%
%TO.N,Net-(J29-Pin_8)*%
X148920000Y-83000000D03*
%TO.P,B_SIGIN,9,Pin_9*%
%TO.N,Net-(J29-Pin_9)*%
X151460000Y-85540000D03*
%TO.P,B_SIGIN,10,Pin_10*%
%TO.N,Net-(J29-Pin_10)*%
X151460000Y-83000000D03*
%TO.P,B_SIGIN,11,Pin_11*%
%TO.N,Net-(J29-Pin_11)*%
X154000000Y-85540000D03*
%TO.P,B_SIGIN,12,Pin_12*%
%TO.N,Net-(J29-Pin_12)*%
X154000000Y-83000000D03*
%TO.P,B_SIGIN,13,Pin_13*%
%TO.N,Net-(J29-Pin_13)*%
X156540000Y-85540000D03*
%TO.P,B_SIGIN,14,Pin_14*%
%TO.N,Net-(J29-Pin_14)*%
X156540000Y-83000000D03*
%TO.P,B_SIGIN,15,Pin_15*%
%TO.N,Net-(J29-Pin_15)*%
X159080000Y-85540000D03*
%TO.P,B_SIGIN,16,Pin_16*%
%TO.N,Net-(J29-Pin_16)*%
X159080000Y-83000000D03*
%TO.P,B_SIGIN,17,Pin_17*%
%TO.N,unconnected-(J29-Pin_17-Pad17)*%
X161620000Y-85540000D03*
%TO.P,B_SIGIN,18,Pin_18*%
%TO.N,unconnected-(J29-Pin_18-Pad18)*%
X161620000Y-83000000D03*
%TO.P,B_SIGIN,19,Pin_19*%
%TO.N,unconnected-(J29-Pin_19-Pad19)*%
X164160000Y-85540000D03*
%TO.P,B_SIGIN,20,Pin_20*%
%TO.N,GND*%
X164160000Y-83000000D03*
%TD*%
D12*
%TO.P,CH09,1,Pin_1*%
%TO.N,Net-(J27-Pin_8)*%
X161900000Y-60500000D03*
D13*
%TO.P,CH09,2,Pin_2*%
%TO.N,GND*%
X161900000Y-62500000D03*
%TO.P,CH09,3,Pin_3*%
%TO.N,Net-(J8-Pin_3)*%
X161900000Y-64500000D03*
%TD*%
D12*
%TO.P,CH11,1,Pin_1*%
%TO.N,Net-(J27-Pin_6)*%
X175000000Y-60500000D03*
D13*
%TO.P,CH11,2,Pin_2*%
%TO.N,GND*%
X175000000Y-62500000D03*
%TO.P,CH11,3,Pin_3*%
%TO.N,Net-(J6-Pin_3)*%
X175000000Y-64500000D03*
%TD*%
D12*
%TO.P,CH12,1,Pin_1*%
%TO.N,Net-(J27-Pin_5)*%
X181550000Y-60500000D03*
D13*
%TO.P,CH12,2,Pin_2*%
%TO.N,GND*%
X181550000Y-62500000D03*
%TO.P,CH12,3,Pin_3*%
%TO.N,Net-(J5-Pin_3)*%
X181550000Y-64500000D03*
%TD*%
D12*
%TO.P,CH05,1,Pin_1*%
%TO.N,Net-(J12-Pin_1)*%
X135850000Y-60500000D03*
D13*
%TO.P,CH05,2,Pin_2*%
%TO.N,GND*%
X135850000Y-62500000D03*
%TO.P,CH05,3,Pin_3*%
%TO.N,Net-(J12-Pin_3)*%
X135850000Y-64500000D03*
%TD*%
D12*
%TO.P,CH03,1,Pin_1*%
%TO.N,Net-(J14-Pin_1)*%
X123000000Y-60500000D03*
D13*
%TO.P,CH03,2,Pin_2*%
%TO.N,GND*%
X123000000Y-62500000D03*
%TO.P,CH03,3,Pin_3*%
%TO.N,Net-(J14-Pin_3)*%
X123000000Y-64500000D03*
%TD*%
D14*
%TO.P,R_Pack08#1,1,R1.1*%
%TO.N,Net-(J29-Pin_9)*%
X135300000Y-77500000D03*
%TO.P,R_Pack08#1,2,R2.1*%
%TO.N,Net-(J29-Pin_10)*%
X137840000Y-77500000D03*
%TO.P,R_Pack08#1,3,R3.1*%
%TO.N,Net-(J29-Pin_11)*%
X140380000Y-77500000D03*
%TO.P,R_Pack08#1,4,R4.1*%
%TO.N,Net-(J29-Pin_12)*%
X142920000Y-77500000D03*
%TO.P,R_Pack08#1,5,R5.1*%
%TO.N,Net-(J29-Pin_13)*%
X145460000Y-77500000D03*
%TO.P,R_Pack08#1,6,R6.1*%
%TO.N,Net-(J29-Pin_14)*%
X148000000Y-77500000D03*
%TO.P,R_Pack08#1,7,R7.1*%
%TO.N,Net-(J29-Pin_15)*%
X150540000Y-77500000D03*
%TO.P,R_Pack08#1,8,R8.1*%
%TO.N,Net-(J29-Pin_16)*%
X153080000Y-77500000D03*
%TO.P,R_Pack08#1,9,R8.2*%
%TO.N,Net-(J16-Pin_3)*%
X153080000Y-69880000D03*
%TO.P,R_Pack08#1,10,R7.2*%
%TO.N,Net-(J15-Pin_3)*%
X150540000Y-69880000D03*
%TO.P,R_Pack08#1,11,R6.2*%
%TO.N,Net-(J14-Pin_3)*%
X148000000Y-69880000D03*
%TO.P,R_Pack08#1,12,R5.2*%
%TO.N,Net-(J13-Pin_3)*%
X145460000Y-69880000D03*
%TO.P,R_Pack08#1,13,R4.2*%
%TO.N,Net-(J12-Pin_3)*%
X142920000Y-69880000D03*
%TO.P,R_Pack08#1,14,R3.2*%
%TO.N,Net-(J11-Pin_3)*%
X140380000Y-69880000D03*
%TO.P,R_Pack08#1,15,R2.2*%
%TO.N,Net-(J10-Pin_3)*%
X137840000Y-69880000D03*
%TO.P,R_Pack08#1,16,R1.2*%
%TO.N,Net-(J9-Pin_3)*%
X135300000Y-69880000D03*
%TD*%
D12*
%TO.P,CH06,1,Pin_1*%
%TO.N,Net-(J11-Pin_1)*%
X142400000Y-60500000D03*
D13*
%TO.P,CH06,2,Pin_2*%
%TO.N,GND*%
X142400000Y-62500000D03*
%TO.P,CH06,3,Pin_3*%
%TO.N,Net-(J11-Pin_3)*%
X142400000Y-64500000D03*
%TD*%
D12*
%TO.P,CH16,1,Pin_1*%
%TO.N,Net-(J1-Pin_1)*%
X207500000Y-60500000D03*
D13*
%TO.P,CH16,2,Pin_2*%
%TO.N,GND*%
X207500000Y-62500000D03*
%TO.P,CH16,3,Pin_3*%
%TO.N,Net-(J1-Pin_3)*%
X207500000Y-64500000D03*
%TD*%
D12*
%TO.P,CH13,1,Pin_1*%
%TO.N,Net-(J27-Pin_4)*%
X187850000Y-60500000D03*
D13*
%TO.P,CH13,2,Pin_2*%
%TO.N,GND*%
X187850000Y-62500000D03*
%TO.P,CH13,3,Pin_3*%
%TO.N,Net-(J4-Pin_3)*%
X187850000Y-64500000D03*
%TD*%
D12*
%TO.P,CH08,1,Pin_1*%
%TO.N,Net-(J27-Pin_9)*%
X155500000Y-60500000D03*
D13*
%TO.P,CH08,2,Pin_2*%
%TO.N,GND*%
X155500000Y-62500000D03*
%TO.P,CH08,3,Pin_3*%
%TO.N,Net-(J9-Pin_3)*%
X155500000Y-64500000D03*
%TD*%
D12*
%TO.P,CH01,1,Pin_1*%
%TO.N,Net-(J16-Pin_1)*%
X109900000Y-60500000D03*
D13*
%TO.P,CH01,2,Pin_2*%
%TO.N,GND*%
X109900000Y-62500000D03*
%TO.P,CH01,3,Pin_3*%
%TO.N,Net-(J16-Pin_3)*%
X109900000Y-64500000D03*
%TD*%
D12*
%TO.P,CH04,1,Pin_1*%
%TO.N,Net-(J13-Pin_1)*%
X129550000Y-60500000D03*
D13*
%TO.P,CH04,2,Pin_2*%
%TO.N,GND*%
X129550000Y-62500000D03*
%TO.P,CH04,3,Pin_3*%
%TO.N,Net-(J13-Pin_3)*%
X129550000Y-64500000D03*
%TD*%
D12*
%TO.P,CH02,1,Pin_1*%
%TO.N,Net-(J15-Pin_1)*%
X116450000Y-60500000D03*
D13*
%TO.P,CH02,2,Pin_2*%
%TO.N,GND*%
X116450000Y-62500000D03*
%TO.P,CH02,3,Pin_3*%
%TO.N,Net-(J15-Pin_3)*%
X116450000Y-64500000D03*
%TD*%
D15*
%TO.P,J27,1,Pin_1*%
%TO.N,Net-(J1-Pin_1)*%
X195500000Y-50500000D03*
D16*
%TO.P,J27,2,Pin_2*%
%TO.N,Net-(J2-Pin_1)*%
X190420000Y-50500000D03*
%TO.P,J27,3,Pin_3*%
%TO.N,Net-(J27-Pin_3)*%
X185340000Y-50500000D03*
%TO.P,J27,4,Pin_4*%
%TO.N,Net-(J27-Pin_4)*%
X180260000Y-50500000D03*
%TO.P,J27,5,Pin_5*%
%TO.N,Net-(J27-Pin_5)*%
X175180000Y-50500000D03*
%TO.P,J27,6,Pin_6*%
%TO.N,Net-(J27-Pin_6)*%
X170100000Y-50500000D03*
%TO.P,J27,7,Pin_7*%
%TO.N,Net-(J27-Pin_7)*%
X165020000Y-50500000D03*
%TO.P,J27,8,Pin_8*%
%TO.N,Net-(J27-Pin_8)*%
X159940000Y-50500000D03*
%TO.P,J27,9,Pin_9*%
%TO.N,Net-(J27-Pin_9)*%
X154860000Y-50500000D03*
%TO.P,J27,10,Pin_10*%
%TO.N,Net-(J10-Pin_1)*%
X149780000Y-50500000D03*
%TO.P,J27,11,Pin_11*%
%TO.N,Net-(J11-Pin_1)*%
X144700000Y-50500000D03*
%TO.P,J27,12,Pin_12*%
%TO.N,Net-(J12-Pin_1)*%
X139620000Y-50500000D03*
%TO.P,J27,13,Pin_13*%
%TO.N,Net-(J13-Pin_1)*%
X134540000Y-50500000D03*
%TO.P,J27,14,Pin_14*%
%TO.N,Net-(J14-Pin_1)*%
X129460000Y-50500000D03*
%TO.P,J27,15,Pin_15*%
%TO.N,Net-(J15-Pin_1)*%
X124380000Y-50500000D03*
%TO.P,J27,16,Pin_16*%
%TO.N,Net-(J16-Pin_1)*%
X119300000Y-50500000D03*
%TD*%
D12*
%TO.P,CH15,1,Pin_1*%
%TO.N,Net-(J2-Pin_1)*%
X200950000Y-60500000D03*
D13*
%TO.P,CH15,2,Pin_2*%
%TO.N,GND*%
X200950000Y-62500000D03*
%TO.P,CH15,3,Pin_3*%
%TO.N,Net-(J2-Pin_3)*%
X200950000Y-64500000D03*
%TD*%
D14*
%TO.P,R_Pack08#2,1,R1.1*%
%TO.N,Net-(J29-Pin_1)*%
X159800000Y-77500000D03*
%TO.P,R_Pack08#2,2,R2.1*%
%TO.N,Net-(J29-Pin_2)*%
X162340000Y-77500000D03*
%TO.P,R_Pack08#2,3,R3.1*%
%TO.N,Net-(J29-Pin_3)*%
X164880000Y-77500000D03*
%TO.P,R_Pack08#2,4,R4.1*%
%TO.N,Net-(J29-Pin_4)*%
X167420000Y-77500000D03*
%TO.P,R_Pack08#2,5,R5.1*%
%TO.N,Net-(J29-Pin_5)*%
X169960000Y-77500000D03*
%TO.P,R_Pack08#2,6,R6.1*%
%TO.N,Net-(J29-Pin_6)*%
X172500000Y-77500000D03*
%TO.P,R_Pack08#2,7,R7.1*%
%TO.N,Net-(J29-Pin_7)*%
X175040000Y-77500000D03*
%TO.P,R_Pack08#2,8,R8.1*%
%TO.N,Net-(J29-Pin_8)*%
X177580000Y-77500000D03*
%TO.P,R_Pack08#2,9,R8.2*%
%TO.N,Net-(J8-Pin_3)*%
X177580000Y-69880000D03*
%TO.P,R_Pack08#2,10,R7.2*%
%TO.N,Net-(J7-Pin_3)*%
X175040000Y-69880000D03*
%TO.P,R_Pack08#2,11,R6.2*%
%TO.N,Net-(J6-Pin_3)*%
X172500000Y-69880000D03*
%TO.P,R_Pack08#2,12,R5.2*%
%TO.N,Net-(J5-Pin_3)*%
X169960000Y-69880000D03*
%TO.P,R_Pack08#2,13,R4.2*%
%TO.N,Net-(J4-Pin_3)*%
X167420000Y-69880000D03*
%TO.P,R_Pack08#2,14,R3.2*%
%TO.N,Net-(J3-Pin_3)*%
X164880000Y-69880000D03*
%TO.P,R_Pack08#2,15,R2.2*%
%TO.N,Net-(J2-Pin_3)*%
X162340000Y-69880000D03*
%TO.P,R_Pack08#2,16,R1.2*%
%TO.N,Net-(J1-Pin_3)*%
X159800000Y-69880000D03*
%TD*%
D12*
%TO.P,CH07,1,Pin_1*%
%TO.N,Net-(J10-Pin_1)*%
X148950000Y-60500000D03*
D13*
%TO.P,CH07,2,Pin_2*%
%TO.N,GND*%
X148950000Y-62500000D03*
%TO.P,CH07,3,Pin_3*%
%TO.N,Net-(J10-Pin_3)*%
X148950000Y-64500000D03*
%TD*%
D12*
%TO.P,CH14,1,Pin_1*%
%TO.N,Net-(J27-Pin_3)*%
X194400000Y-60500000D03*
D13*
%TO.P,CH14,2,Pin_2*%
%TO.N,GND*%
X194400000Y-62500000D03*
%TO.P,CH14,3,Pin_3*%
%TO.N,Net-(J3-Pin_3)*%
X194400000Y-64500000D03*
%TD*%
D12*
%TO.P,CH10,1,Pin_1*%
%TO.N,Net-(J27-Pin_7)*%
X168450000Y-60500000D03*
D13*
%TO.P,CH10,2,Pin_2*%
%TO.N,GND*%
X168450000Y-62500000D03*
%TO.P,CH10,3,Pin_3*%
%TO.N,Net-(J7-Pin_3)*%
X168450000Y-64500000D03*
%TD*%
D17*
%TO.N,GND*%
X168000000Y-85500000D03*
X168000000Y-83000000D03*
X122177300Y-72592200D03*
X113942600Y-72636300D03*
X191951800Y-74542400D03*
X127615200Y-72850300D03*
X188555900Y-74306600D03*
X200143500Y-74513100D03*
%TO.N,Net-(J29-Pin_7)*%
X125098200Y-75941400D03*
%TO.N,Net-(J29-Pin_4)*%
X125090000Y-71697200D03*
%TO.N,Net-(J29-Pin_1)*%
X139545400Y-82384700D03*
%TO.N,Net-(J29-Pin_6)*%
X128001000Y-76059500D03*
%TO.N,Net-(J29-Pin_3)*%
X144832400Y-81872000D03*
%TO.N,Net-(J29-Pin_5)*%
X167711700Y-79748300D03*
%TO.N,Net-(J29-Pin_11)*%
X160108200Y-84358500D03*
X158000400Y-74614400D03*
%TD*%
D18*
%TO.N,Net-(J1-Pin_1)*%
X195500000Y-50500000D02*
X197500000Y-50500000D01*
X197500000Y-50500000D02*
X207500000Y-60500000D01*
%TO.N,Net-(J2-Pin_1)*%
X190420000Y-50500000D02*
X200420000Y-60500000D01*
X200420000Y-60500000D02*
X200950000Y-60500000D01*
%TO.N,Net-(J27-Pin_3)*%
X194400000Y-59560000D02*
X194400000Y-60500000D01*
X185340000Y-50500000D02*
X194400000Y-59560000D01*
%TO.N,Net-(J3-Pin_3)*%
X194400000Y-65401700D02*
X188352800Y-71448900D01*
X166448900Y-71448900D02*
X164880000Y-69880000D01*
X188352800Y-71448900D02*
X166448900Y-71448900D01*
X194400000Y-64500000D02*
X194400000Y-65401700D01*
%TO.N,Net-(J27-Pin_4)*%
X187850000Y-58090000D02*
X187850000Y-60500000D01*
X180260000Y-50500000D02*
X187850000Y-58090000D01*
%TO.N,Net-(J27-Pin_5)*%
X175180000Y-50500000D02*
X175180000Y-54130000D01*
X175180000Y-54130000D02*
X181550000Y-60500000D01*
%TO.N,Net-(J5-Pin_3)*%
X171075500Y-70995500D02*
X169960000Y-69880000D01*
X178057400Y-70995500D02*
X171075500Y-70995500D01*
X181550000Y-67502900D02*
X178057400Y-70995500D01*
X181550000Y-64500000D02*
X181550000Y-67502900D01*
%TO.N,Net-(J27-Pin_6)*%
X170100000Y-55600000D02*
X175000000Y-60500000D01*
X170100000Y-50500000D02*
X170100000Y-55600000D01*
%TO.N,Net-(J6-Pin_3)*%
X175000000Y-67380000D02*
X175000000Y-64500000D01*
X172500000Y-69880000D02*
X175000000Y-67380000D01*
%TO.N,Net-(J7-Pin_3)*%
X175660400Y-63598300D02*
X168450000Y-63598300D01*
X176183300Y-68736700D02*
X176183300Y-64121200D01*
X168450000Y-64500000D02*
X168450000Y-63598300D01*
X176183300Y-64121200D02*
X175660400Y-63598300D01*
X175040000Y-69880000D02*
X176183300Y-68736700D01*
%TO.N,Net-(J27-Pin_7)*%
X165020000Y-50500000D02*
X165020000Y-57070000D01*
X165020000Y-57070000D02*
X168450000Y-60500000D01*
%TO.N,Net-(J8-Pin_3)*%
X162801700Y-63598300D02*
X161900000Y-63598300D01*
X161900000Y-64500000D02*
X161900000Y-63598300D01*
X175626500Y-61568200D02*
X164831800Y-61568200D01*
X177580000Y-63521700D02*
X175626500Y-61568200D01*
X164831800Y-61568200D02*
X162801700Y-63598300D01*
X177580000Y-69880000D02*
X177580000Y-63521700D01*
%TO.N,Net-(J27-Pin_8)*%
X159940000Y-58540000D02*
X161900000Y-60500000D01*
X159940000Y-50500000D02*
X159940000Y-58540000D01*
%TO.N,Net-(J27-Pin_9)*%
X154860000Y-59860000D02*
X155500000Y-60500000D01*
X154860000Y-50500000D02*
X154860000Y-59860000D01*
%TO.N,Net-(J10-Pin_1)*%
X149780000Y-59670000D02*
X148950000Y-60500000D01*
X149780000Y-50500000D02*
X149780000Y-59670000D01*
%TO.N,Net-(J11-Pin_3)*%
X140380000Y-67421700D02*
X142400000Y-65401700D01*
X142400000Y-64500000D02*
X142400000Y-65401700D01*
X140380000Y-69880000D02*
X140380000Y-67421700D01*
%TO.N,Net-(J11-Pin_1)*%
X144700000Y-50500000D02*
X144700000Y-58200000D01*
X144700000Y-58200000D02*
X142400000Y-60500000D01*
%TO.N,Net-(J12-Pin_1)*%
X139620000Y-50500000D02*
X139620000Y-56730000D01*
X139620000Y-56730000D02*
X135850000Y-60500000D01*
%TO.N,Net-(J12-Pin_3)*%
X139110000Y-70255100D02*
X139110000Y-68661700D01*
X139889100Y-71034200D02*
X139110000Y-70255100D01*
X142920000Y-69880000D02*
X141765800Y-71034200D01*
X139110000Y-68661700D02*
X135850000Y-65401700D01*
X135850000Y-64500000D02*
X135850000Y-65401700D01*
X141765800Y-71034200D02*
X139889100Y-71034200D01*
%TO.N,Net-(J13-Pin_1)*%
X134540000Y-50500000D02*
X129550000Y-55490000D01*
X129550000Y-55490000D02*
X129550000Y-60500000D01*
%TO.N,Net-(J13-Pin_3)*%
X135288600Y-71445400D02*
X129550000Y-65706800D01*
X145460000Y-69880000D02*
X143894600Y-71445400D01*
X129550000Y-65706800D02*
X129550000Y-64500000D01*
X143894600Y-71445400D02*
X135288600Y-71445400D01*
%TO.N,Net-(J14-Pin_3)*%
X129495200Y-71896900D02*
X123000000Y-65401700D01*
X148000000Y-69880000D02*
X145983100Y-71896900D01*
X123000000Y-64500000D02*
X123000000Y-65401700D01*
X145983100Y-71896900D02*
X129495200Y-71896900D01*
%TO.N,Net-(J14-Pin_1)*%
X129460000Y-50500000D02*
X129460000Y-54040000D01*
X129460000Y-54040000D02*
X123000000Y-60500000D01*
%TO.N,Net-(J15-Pin_3)*%
X116450000Y-64500000D02*
X116450000Y-63598300D01*
X150540000Y-69880000D02*
X144258300Y-63598300D01*
X144258300Y-63598300D02*
X116450000Y-63598300D01*
%TO.N,Net-(J15-Pin_1)*%
X116450000Y-58430000D02*
X116450000Y-60500000D01*
X124380000Y-50500000D02*
X116450000Y-58430000D01*
%TO.N,Net-(J16-Pin_1)*%
X109900000Y-59900000D02*
X109900000Y-60500000D01*
X119300000Y-50500000D02*
X109900000Y-59900000D01*
%TO.N,Net-(J29-Pin_7)*%
X159533700Y-86717500D02*
X150097500Y-86717500D01*
X125098200Y-75941400D02*
X135848500Y-86691700D01*
X135848500Y-86691700D02*
X147768300Y-86691700D01*
X150097500Y-86717500D02*
X148920000Y-85540000D01*
X175040000Y-77500000D02*
X168270000Y-84270000D01*
X168270000Y-84270000D02*
X161216300Y-84270000D01*
X161216300Y-84270000D02*
X160233100Y-85253200D01*
X147768300Y-86691700D02*
X148920000Y-85540000D01*
X160233100Y-86018100D02*
X159533700Y-86717500D01*
X160233100Y-85253200D02*
X160233100Y-86018100D01*
%TO.N,Net-(J29-Pin_4)*%
X142623000Y-81783000D02*
X132852100Y-81783000D01*
X143840000Y-83000000D02*
X142623000Y-81783000D01*
X132852100Y-81783000D02*
X125090000Y-74020900D01*
X125090000Y-74020900D02*
X125090000Y-71697200D01*
%TO.N,Net-(J29-Pin_1)*%
X139545400Y-82384700D02*
X139545400Y-82921600D01*
X141012100Y-84388300D02*
X141300000Y-84388300D01*
X141300000Y-85540000D02*
X141300000Y-84388300D01*
X139545400Y-82921600D02*
X141012100Y-84388300D01*
%TO.N,Net-(J29-Pin_6)*%
X143991000Y-80179700D02*
X132121200Y-80179700D01*
X146380000Y-82568700D02*
X143991000Y-80179700D01*
X146380000Y-83000000D02*
X146380000Y-82568700D01*
X132121200Y-80179700D02*
X128001000Y-76059500D01*
%TO.N,Net-(J29-Pin_3)*%
X145005100Y-84374900D02*
X143840000Y-85540000D01*
X145005100Y-82044700D02*
X145005100Y-84374900D01*
X144832400Y-81872000D02*
X145005100Y-82044700D01*
%TO.N,Net-(J29-Pin_5)*%
X169960000Y-77500000D02*
X167711700Y-79748300D01*
%TO.N,Net-(J29-Pin_15)*%
X156114000Y-84270000D02*
X157810000Y-84270000D01*
X155270100Y-82230100D02*
X155270100Y-83426100D01*
X150540000Y-77500000D02*
X155270100Y-82230100D01*
X155270100Y-83426100D02*
X156114000Y-84270000D01*
X157810000Y-84270000D02*
X159080000Y-85540000D01*
%TO.N,Net-(J29-Pin_16)*%
X153080000Y-77500000D02*
X158580000Y-83000000D01*
X158580000Y-83000000D02*
X159080000Y-83000000D01*
%TO.N,Net-(J29-Pin_10)*%
X138994700Y-76345300D02*
X137840000Y-77500000D01*
X146060900Y-78694000D02*
X142493000Y-78694000D01*
X142493000Y-78694000D02*
X141805500Y-78006500D01*
X149775800Y-81315800D02*
X148682700Y-81315800D01*
X151460000Y-83000000D02*
X149775800Y-81315800D01*
X141805500Y-77308900D02*
X140841900Y-76345300D01*
X141805500Y-78006500D02*
X141805500Y-77308900D01*
X148682700Y-81315800D02*
X146060900Y-78694000D01*
X140841900Y-76345300D02*
X138994700Y-76345300D01*
%TO.N,Net-(J29-Pin_11)*%
X160273300Y-84193400D02*
X160108200Y-84358500D01*
X158000400Y-74614400D02*
X158000400Y-78912100D01*
X158000400Y-78912100D02*
X160273300Y-81185000D01*
X160273300Y-81185000D02*
X160273300Y-84193400D01*
%TO.N,Net-(J29-Pin_12)*%
X151121700Y-80121700D02*
X154000000Y-83000000D01*
X149040900Y-80121700D02*
X151121700Y-80121700D01*
X144058200Y-76361800D02*
X145912100Y-76361800D01*
X146885500Y-77966300D02*
X149040900Y-80121700D01*
X145912100Y-76361800D02*
X146885500Y-77335200D01*
X142920000Y-77500000D02*
X144058200Y-76361800D01*
X146885500Y-77335200D02*
X146885500Y-77966300D01*
%TO.N,Net-(J29-Pin_9)*%
X137475600Y-79675600D02*
X144689600Y-79675600D01*
X150130000Y-84210000D02*
X151460000Y-85540000D01*
X147650000Y-82636000D02*
X147650000Y-83393200D01*
X144689600Y-79675600D02*
X147650000Y-82636000D01*
X147650000Y-83393200D02*
X148466800Y-84210000D01*
X135300000Y-77500000D02*
X137475600Y-79675600D01*
X148466800Y-84210000D02*
X150130000Y-84210000D01*
%TO.N,Net-(J29-Pin_13)*%
X153614600Y-84270000D02*
X155270000Y-84270000D01*
X152730000Y-82636100D02*
X152730000Y-83385400D01*
X152730000Y-83385400D02*
X153614600Y-84270000D01*
X155270000Y-84270000D02*
X156540000Y-85540000D01*
X148624900Y-80664900D02*
X150758800Y-80664900D01*
X150758800Y-80664900D02*
X152730000Y-82636100D01*
X145460000Y-77500000D02*
X148624900Y-80664900D01*
%TO.N,Net-(J29-Pin_14)*%
X151032700Y-76351100D02*
X151965500Y-77283900D01*
X149148900Y-76351100D02*
X151032700Y-76351100D01*
X151965500Y-78033400D02*
X156540000Y-82607900D01*
X156540000Y-82607900D02*
X156540000Y-83000000D01*
X148000000Y-77500000D02*
X149148900Y-76351100D01*
X151965500Y-77283900D02*
X151965500Y-78033400D01*
%TD*%
%TA.AperFunction,Conductor*%
%TO.N,GND*%
G36*
X171247227Y-78053585D02*
G01*
X171259808Y-78053046D01*
X171279673Y-78064641D01*
X171301445Y-78072061D01*
X171310718Y-78082763D01*
X171320149Y-78088268D01*
X171340484Y-78117113D01*
X171376765Y-78188319D01*
X171498271Y-78355558D01*
X171644442Y-78501729D01*
X171811681Y-78623235D01*
X171995868Y-78717083D01*
X171995870Y-78717084D01*
X172192464Y-78780961D01*
X172192465Y-78780961D01*
X172192468Y-78780962D01*
X172396641Y-78813300D01*
X172396642Y-78813300D01*
X172578102Y-78813300D01*
X172645141Y-78832985D01*
X172690896Y-78885789D01*
X172700840Y-78954947D01*
X172671815Y-79018503D01*
X172665783Y-79024981D01*
X168057584Y-83633181D01*
X167996261Y-83666666D01*
X167969903Y-83669500D01*
X162993137Y-83669500D01*
X162926098Y-83649815D01*
X162880343Y-83597011D01*
X162870399Y-83527853D01*
X162875206Y-83507182D01*
X162890000Y-83461650D01*
X162937246Y-83316243D01*
X162970500Y-83106287D01*
X162970500Y-82893713D01*
X162937246Y-82683757D01*
X162871557Y-82481588D01*
X162775051Y-82292184D01*
X162775049Y-82292181D01*
X162775048Y-82292179D01*
X162650109Y-82120213D01*
X162499786Y-81969890D01*
X162327820Y-81844951D01*
X162138414Y-81748444D01*
X162138413Y-81748443D01*
X162138412Y-81748443D01*
X161936243Y-81682754D01*
X161936241Y-81682753D01*
X161936240Y-81682753D01*
X161772428Y-81656808D01*
X161726287Y-81649500D01*
X161513713Y-81649500D01*
X161467572Y-81656808D01*
X161303760Y-81682753D01*
X161101582Y-81748445D01*
X161054094Y-81772641D01*
X160985424Y-81785537D01*
X160920684Y-81759260D01*
X160880428Y-81702153D01*
X160873800Y-81662156D01*
X160873800Y-81274059D01*
X160873801Y-81274046D01*
X160873801Y-81105945D01*
X160873801Y-81105943D01*
X160832877Y-80953215D01*
X160800239Y-80896685D01*
X160753820Y-80816284D01*
X160642016Y-80704480D01*
X160642015Y-80704479D01*
X160637685Y-80700149D01*
X160637674Y-80700139D01*
X158637219Y-78699684D01*
X158622515Y-78672756D01*
X158605923Y-78646938D01*
X158605031Y-78640737D01*
X158603734Y-78638361D01*
X158600900Y-78612003D01*
X158600900Y-78457549D01*
X158620585Y-78390510D01*
X158673389Y-78344755D01*
X158742547Y-78334811D01*
X158806103Y-78363836D01*
X158812581Y-78369868D01*
X158944442Y-78501729D01*
X159111681Y-78623235D01*
X159295868Y-78717083D01*
X159295870Y-78717084D01*
X159492464Y-78780961D01*
X159492465Y-78780961D01*
X159492468Y-78780962D01*
X159696641Y-78813300D01*
X159696642Y-78813300D01*
X159903358Y-78813300D01*
X159903359Y-78813300D01*
X160107532Y-78780962D01*
X160107535Y-78780961D01*
X160107536Y-78780961D01*
X160304129Y-78717084D01*
X160304129Y-78717083D01*
X160304132Y-78717083D01*
X160488319Y-78623235D01*
X160655558Y-78501729D01*
X160801729Y-78355558D01*
X160923235Y-78188319D01*
X160959515Y-78117114D01*
X161007489Y-78066319D01*
X161075310Y-78049524D01*
X161141445Y-78072061D01*
X161180484Y-78117114D01*
X161216765Y-78188319D01*
X161338271Y-78355558D01*
X161484442Y-78501729D01*
X161651681Y-78623235D01*
X161835868Y-78717083D01*
X161835870Y-78717084D01*
X162032464Y-78780961D01*
X162032465Y-78780961D01*
X162032468Y-78780962D01*
X162236641Y-78813300D01*
X162236642Y-78813300D01*
X162443358Y-78813300D01*
X162443359Y-78813300D01*
X162647532Y-78780962D01*
X162647535Y-78780961D01*
X162647536Y-78780961D01*
X162844129Y-78717084D01*
X162844129Y-78717083D01*
X162844132Y-78717083D01*
X163028319Y-78623235D01*
X163195558Y-78501729D01*
X163341729Y-78355558D01*
X163463235Y-78188319D01*
X163499515Y-78117114D01*
X163547489Y-78066319D01*
X163615310Y-78049524D01*
X163681445Y-78072061D01*
X163720484Y-78117114D01*
X163756765Y-78188319D01*
X163878271Y-78355558D01*
X164024442Y-78501729D01*
X164191681Y-78623235D01*
X164375868Y-78717083D01*
X164375870Y-78717084D01*
X164572464Y-78780961D01*
X164572465Y-78780961D01*
X164572468Y-78780962D01*
X164776641Y-78813300D01*
X164776642Y-78813300D01*
X164983358Y-78813300D01*
X164983359Y-78813300D01*
X165187532Y-78780962D01*
X165187535Y-78780961D01*
X165187536Y-78780961D01*
X165384129Y-78717084D01*
X165384129Y-78717083D01*
X165384132Y-78717083D01*
X165568319Y-78623235D01*
X165735558Y-78501729D01*
X165881729Y-78355558D01*
X166003235Y-78188319D01*
X166039515Y-78117114D01*
X166087489Y-78066319D01*
X166155310Y-78049524D01*
X166221445Y-78072061D01*
X166260484Y-78117114D01*
X166296765Y-78188319D01*
X166418271Y-78355558D01*
X166564442Y-78501729D01*
X166731681Y-78623235D01*
X166915868Y-78717083D01*
X166915870Y-78717084D01*
X167112464Y-78780961D01*
X167112465Y-78780961D01*
X167112468Y-78780962D01*
X167289778Y-78809045D01*
X167352912Y-78838974D01*
X167389844Y-78898285D01*
X167388846Y-78968148D01*
X167350236Y-79026381D01*
X167337323Y-79035127D01*
X167337586Y-79035521D01*
X167201411Y-79126510D01*
X167201407Y-79126513D01*
X167089913Y-79238007D01*
X167089910Y-79238011D01*
X167002309Y-79369114D01*
X167002302Y-79369127D01*
X166941964Y-79514798D01*
X166941961Y-79514810D01*
X166911200Y-79669453D01*
X166911200Y-79827146D01*
X166941961Y-79981789D01*
X166941964Y-79981801D01*
X167002302Y-80127472D01*
X167002309Y-80127485D01*
X167089910Y-80258588D01*
X167089913Y-80258592D01*
X167201407Y-80370086D01*
X167201411Y-80370089D01*
X167332514Y-80457690D01*
X167332527Y-80457697D01*
X167478198Y-80518035D01*
X167478203Y-80518037D01*
X167632853Y-80548799D01*
X167632856Y-80548800D01*
X167632858Y-80548800D01*
X167790544Y-80548800D01*
X167790545Y-80548799D01*
X167945197Y-80518037D01*
X168090879Y-80457694D01*
X168221989Y-80370089D01*
X168333489Y-80258589D01*
X168421094Y-80127479D01*
X168481437Y-79981797D01*
X168500813Y-79884385D01*
X168512338Y-79826450D01*
X168544723Y-79764539D01*
X168546220Y-79763014D01*
X169505000Y-78804233D01*
X169566321Y-78770750D01*
X169630995Y-78773984D01*
X169652468Y-78780962D01*
X169856641Y-78813300D01*
X169856642Y-78813300D01*
X170063358Y-78813300D01*
X170063359Y-78813300D01*
X170267532Y-78780962D01*
X170267535Y-78780961D01*
X170267536Y-78780961D01*
X170464129Y-78717084D01*
X170464129Y-78717083D01*
X170464132Y-78717083D01*
X170648319Y-78623235D01*
X170815558Y-78501729D01*
X170961729Y-78355558D01*
X171083235Y-78188319D01*
X171119515Y-78117114D01*
X171128159Y-78107961D01*
X171132895Y-78096295D01*
X171151694Y-78083042D01*
X171167489Y-78066319D01*
X171179711Y-78063292D01*
X171190002Y-78056038D01*
X171212982Y-78055052D01*
X171235310Y-78049524D01*
X171247227Y-78053585D01*
G37*
%TD.AperFunction*%
%TA.AperFunction,Conductor*%
G36*
X212442539Y-43020185D02*
G01*
X212488294Y-43072989D01*
X212499500Y-43124500D01*
X212499500Y-87875500D01*
X212479815Y-87942539D01*
X212427011Y-87988294D01*
X212375500Y-87999500D01*
X103624500Y-87999500D01*
X103557461Y-87979815D01*
X103511706Y-87927011D01*
X103500500Y-87875500D01*
X103500500Y-83878711D01*
X115149500Y-83878711D01*
X115149500Y-84121288D01*
X115181161Y-84361785D01*
X115243947Y-84596104D01*
X115325877Y-84793899D01*
X115336776Y-84820212D01*
X115458064Y-85030289D01*
X115458066Y-85030292D01*
X115458067Y-85030293D01*
X115605733Y-85222736D01*
X115605739Y-85222743D01*
X115777256Y-85394260D01*
X115777262Y-85394265D01*
X115969711Y-85541936D01*
X116179788Y-85663224D01*
X116403900Y-85756054D01*
X116638211Y-85818838D01*
X116818586Y-85842584D01*
X116878711Y-85850500D01*
X116878712Y-85850500D01*
X117121289Y-85850500D01*
X117169388Y-85844167D01*
X117361789Y-85818838D01*
X117596100Y-85756054D01*
X117820212Y-85663224D01*
X118030289Y-85541936D01*
X118222738Y-85394265D01*
X118394265Y-85222738D01*
X118541936Y-85030289D01*
X118663224Y-84820212D01*
X118756054Y-84596100D01*
X118818838Y-84361789D01*
X118850500Y-84121288D01*
X118850500Y-83878712D01*
X118818838Y-83638211D01*
X118756054Y-83403900D01*
X118663224Y-83179788D01*
X118541936Y-82969711D01*
X118394265Y-82777262D01*
X118394260Y-82777256D01*
X118222743Y-82605739D01*
X118222736Y-82605733D01*
X118030293Y-82458067D01*
X118030292Y-82458066D01*
X118030289Y-82458064D01*
X117820212Y-82336776D01*
X117820205Y-82336773D01*
X117596104Y-82243947D01*
X117361785Y-82181161D01*
X117121289Y-82149500D01*
X117121288Y-82149500D01*
X116878712Y-82149500D01*
X116878711Y-82149500D01*
X116638214Y-82181161D01*
X116403895Y-82243947D01*
X116179794Y-82336773D01*
X116179785Y-82336777D01*
X115969706Y-82458067D01*
X115777263Y-82605733D01*
X115777256Y-82605739D01*
X115605739Y-82777256D01*
X115605733Y-82777263D01*
X115458067Y-82969706D01*
X115336777Y-83179785D01*
X115336773Y-83179794D01*
X115243947Y-83403895D01*
X115181161Y-83638214D01*
X115149500Y-83878711D01*
X103500500Y-83878711D01*
X103500500Y-71618353D01*
X124289500Y-71618353D01*
X124289500Y-71776046D01*
X124320261Y-71930689D01*
X124320264Y-71930701D01*
X124380602Y-72076372D01*
X124380609Y-72076385D01*
X124468602Y-72208074D01*
X124489480Y-72274751D01*
X124489500Y-72276965D01*
X124489500Y-73934230D01*
X124489499Y-73934248D01*
X124489499Y-74099954D01*
X124489498Y-74099954D01*
X124530423Y-74252685D01*
X124559358Y-74302800D01*
X124559359Y-74302804D01*
X124559360Y-74302804D01*
X124609479Y-74389614D01*
X124609481Y-74389617D01*
X124728349Y-74508485D01*
X124728355Y-74508490D01*
X125149084Y-74929219D01*
X125182569Y-74990542D01*
X125177585Y-75060234D01*
X125135713Y-75116167D01*
X125070249Y-75140584D01*
X125061403Y-75140900D01*
X125019355Y-75140900D01*
X124864710Y-75171661D01*
X124864698Y-75171664D01*
X124719027Y-75232002D01*
X124719014Y-75232009D01*
X124587911Y-75319610D01*
X124587907Y-75319613D01*
X124476413Y-75431107D01*
X124476410Y-75431111D01*
X124388809Y-75562214D01*
X124388802Y-75562227D01*
X124328464Y-75707898D01*
X124328461Y-75707910D01*
X124297700Y-75862553D01*
X124297700Y-76020246D01*
X124328461Y-76174889D01*
X124328464Y-76174901D01*
X124388802Y-76320572D01*
X124388809Y-76320585D01*
X124476410Y-76451688D01*
X124476413Y-76451692D01*
X124587907Y-76563186D01*
X124587911Y-76563189D01*
X124719014Y-76650790D01*
X124719027Y-76650797D01*
X124864698Y-76711135D01*
X124864703Y-76711137D01*
X124929347Y-76723995D01*
X125020049Y-76742038D01*
X125081960Y-76774423D01*
X125083539Y-76775974D01*
X135363639Y-87056074D01*
X135363649Y-87056085D01*
X135367979Y-87060415D01*
X135367980Y-87060416D01*
X135479784Y-87172220D01*
X135566595Y-87222339D01*
X135566597Y-87222341D01*
X135604651Y-87244311D01*
X135616715Y-87251277D01*
X135769443Y-87292200D01*
X147681631Y-87292200D01*
X147681647Y-87292201D01*
X147689243Y-87292201D01*
X147847354Y-87292201D01*
X147847357Y-87292201D01*
X148000085Y-87251277D01*
X148050204Y-87222339D01*
X148137016Y-87172220D01*
X148248820Y-87060416D01*
X148248820Y-87060414D01*
X148259028Y-87050207D01*
X148259030Y-87050204D01*
X148435478Y-86873755D01*
X148496799Y-86840272D01*
X148561473Y-86843506D01*
X148603757Y-86857246D01*
X148813713Y-86890500D01*
X148813714Y-86890500D01*
X149026286Y-86890500D01*
X149026287Y-86890500D01*
X149236243Y-86857246D01*
X149278523Y-86843507D01*
X149348362Y-86841511D01*
X149404522Y-86873757D01*
X149612639Y-87081874D01*
X149612649Y-87081885D01*
X149616979Y-87086215D01*
X149616980Y-87086216D01*
X149728784Y-87198020D01*
X149728786Y-87198021D01*
X149728790Y-87198024D01*
X149865709Y-87277073D01*
X149865716Y-87277077D01*
X149977519Y-87307034D01*
X150018442Y-87318000D01*
X150018443Y-87318000D01*
X159447031Y-87318000D01*
X159447047Y-87318001D01*
X159454643Y-87318001D01*
X159612754Y-87318001D01*
X159612757Y-87318001D01*
X159765485Y-87277077D01*
X159815604Y-87248139D01*
X159902416Y-87198020D01*
X160014220Y-87086216D01*
X160014220Y-87086214D01*
X160024428Y-87076007D01*
X160024430Y-87076004D01*
X160547588Y-86552846D01*
X160608911Y-86519361D01*
X160678603Y-86524345D01*
X160722950Y-86552846D01*
X160740213Y-86570109D01*
X160912179Y-86695048D01*
X160912181Y-86695049D01*
X160912184Y-86695051D01*
X161101588Y-86791557D01*
X161303757Y-86857246D01*
X161513713Y-86890500D01*
X161513714Y-86890500D01*
X161726286Y-86890500D01*
X161726287Y-86890500D01*
X161936243Y-86857246D01*
X162138412Y-86791557D01*
X162327816Y-86695051D01*
X162349789Y-86679086D01*
X162499786Y-86570109D01*
X162499788Y-86570106D01*
X162499792Y-86570104D01*
X162650104Y-86419792D01*
X162650106Y-86419788D01*
X162650109Y-86419786D01*
X162775048Y-86247820D01*
X162775047Y-86247820D01*
X162775051Y-86247816D01*
X162779514Y-86239054D01*
X162827488Y-86188259D01*
X162895308Y-86171463D01*
X162961444Y-86193999D01*
X163000486Y-86239056D01*
X163004951Y-86247820D01*
X163129890Y-86419786D01*
X163280213Y-86570109D01*
X163452179Y-86695048D01*
X163452181Y-86695049D01*
X163452184Y-86695051D01*
X163641588Y-86791557D01*
X163843757Y-86857246D01*
X164053713Y-86890500D01*
X164053714Y-86890500D01*
X164266286Y-86890500D01*
X164266287Y-86890500D01*
X164476243Y-86857246D01*
X164678412Y-86791557D01*
X164867816Y-86695051D01*
X164889789Y-86679086D01*
X165039786Y-86570109D01*
X165039788Y-86570106D01*
X165039792Y-86570104D01*
X165190104Y-86419792D01*
X165190106Y-86419788D01*
X165190109Y-86419786D01*
X165315048Y-86247820D01*
X165315047Y-86247820D01*
X165315051Y-86247816D01*
X165411557Y-86058412D01*
X165477246Y-85856243D01*
X165510500Y-85646287D01*
X165510500Y-85433713D01*
X165477246Y-85223757D01*
X165415206Y-85032818D01*
X165413211Y-84962977D01*
X165449291Y-84903144D01*
X165511992Y-84872316D01*
X165533137Y-84870500D01*
X168183331Y-84870500D01*
X168183347Y-84870501D01*
X168190943Y-84870501D01*
X168349054Y-84870501D01*
X168349057Y-84870501D01*
X168501785Y-84829577D01*
X168563579Y-84793900D01*
X168638716Y-84750520D01*
X168750520Y-84638716D01*
X168750520Y-84638714D01*
X168760724Y-84628511D01*
X168760728Y-84628506D01*
X169510523Y-83878711D01*
X197149500Y-83878711D01*
X197149500Y-84121288D01*
X197181161Y-84361785D01*
X197243947Y-84596104D01*
X197325877Y-84793899D01*
X197336776Y-84820212D01*
X197458064Y-85030289D01*
X197458066Y-85030292D01*
X197458067Y-85030293D01*
X197605733Y-85222736D01*
X197605739Y-85222743D01*
X197777256Y-85394260D01*
X197777262Y-85394265D01*
X197969711Y-85541936D01*
X198179788Y-85663224D01*
X198403900Y-85756054D01*
X198638211Y-85818838D01*
X198818586Y-85842584D01*
X198878711Y-85850500D01*
X198878712Y-85850500D01*
X199121289Y-85850500D01*
X199169388Y-85844167D01*
X199361789Y-85818838D01*
X199596100Y-85756054D01*
X199820212Y-85663224D01*
X200030289Y-85541936D01*
X200222738Y-85394265D01*
X200394265Y-85222738D01*
X200541936Y-85030289D01*
X200663224Y-84820212D01*
X200756054Y-84596100D01*
X200818838Y-84361789D01*
X200850500Y-84121288D01*
X200850500Y-83878712D01*
X200818838Y-83638211D01*
X200756054Y-83403900D01*
X200663224Y-83179788D01*
X200541936Y-82969711D01*
X200394265Y-82777262D01*
X200394260Y-82777256D01*
X200222743Y-82605739D01*
X200222736Y-82605733D01*
X200030293Y-82458067D01*
X200030292Y-82458066D01*
X200030289Y-82458064D01*
X199820212Y-82336776D01*
X199820205Y-82336773D01*
X199596104Y-82243947D01*
X199361785Y-82181161D01*
X199121289Y-82149500D01*
X199121288Y-82149500D01*
X198878712Y-82149500D01*
X198878711Y-82149500D01*
X198638214Y-82181161D01*
X198403895Y-82243947D01*
X198179794Y-82336773D01*
X198179785Y-82336777D01*
X197969706Y-82458067D01*
X197777263Y-82605733D01*
X197777256Y-82605739D01*
X197605739Y-82777256D01*
X197605733Y-82777263D01*
X197458067Y-82969706D01*
X197336777Y-83179785D01*
X197336773Y-83179794D01*
X197243947Y-83403895D01*
X197181161Y-83638214D01*
X197149500Y-83878711D01*
X169510523Y-83878711D01*
X174585000Y-78804233D01*
X174646321Y-78770750D01*
X174710995Y-78773984D01*
X174732468Y-78780962D01*
X174936641Y-78813300D01*
X174936642Y-78813300D01*
X175143358Y-78813300D01*
X175143359Y-78813300D01*
X175347532Y-78780962D01*
X175347535Y-78780961D01*
X175347536Y-78780961D01*
X175544129Y-78717084D01*
X175544129Y-78717083D01*
X175544132Y-78717083D01*
X175728319Y-78623235D01*
X175895558Y-78501729D01*
X176041729Y-78355558D01*
X176163235Y-78188319D01*
X176199515Y-78117114D01*
X176247489Y-78066319D01*
X176315310Y-78049524D01*
X176381445Y-78072061D01*
X176420484Y-78117114D01*
X176456765Y-78188319D01*
X176578271Y-78355558D01*
X176724442Y-78501729D01*
X176891681Y-78623235D01*
X177075868Y-78717083D01*
X177075870Y-78717084D01*
X177272464Y-78780961D01*
X177272465Y-78780961D01*
X177272468Y-78780962D01*
X177476641Y-78813300D01*
X177476642Y-78813300D01*
X177683358Y-78813300D01*
X177683359Y-78813300D01*
X177887532Y-78780962D01*
X177887535Y-78780961D01*
X177887536Y-78780961D01*
X178084129Y-78717084D01*
X178084129Y-78717083D01*
X178084132Y-78717083D01*
X178268319Y-78623235D01*
X178435558Y-78501729D01*
X178581729Y-78355558D01*
X178703235Y-78188319D01*
X178797083Y-78004132D01*
X178860962Y-77807532D01*
X178893300Y-77603359D01*
X178893300Y-77396641D01*
X178860962Y-77192468D01*
X178860961Y-77192464D01*
X178860961Y-77192463D01*
X178797084Y-76995870D01*
X178773954Y-76950475D01*
X178703235Y-76811681D01*
X178581729Y-76644442D01*
X178435558Y-76498271D01*
X178268319Y-76376765D01*
X178158048Y-76320579D01*
X178084129Y-76282915D01*
X177887535Y-76219038D01*
X177734402Y-76194784D01*
X177683359Y-76186700D01*
X177476641Y-76186700D01*
X177419420Y-76195763D01*
X177272466Y-76219038D01*
X177272463Y-76219038D01*
X177075870Y-76282915D01*
X176891680Y-76376765D01*
X176724439Y-76498273D01*
X176578273Y-76644439D01*
X176456765Y-76811680D01*
X176420485Y-76882884D01*
X176372510Y-76933680D01*
X176304689Y-76950475D01*
X176238554Y-76927937D01*
X176199515Y-76882884D01*
X176163234Y-76811680D01*
X176137292Y-76775974D01*
X176041729Y-76644442D01*
X175895558Y-76498271D01*
X175728319Y-76376765D01*
X175618048Y-76320579D01*
X175544129Y-76282915D01*
X175347535Y-76219038D01*
X175194402Y-76194784D01*
X175143359Y-76186700D01*
X174936641Y-76186700D01*
X174879420Y-76195763D01*
X174732466Y-76219038D01*
X174732463Y-76219038D01*
X174535870Y-76282915D01*
X174351680Y-76376765D01*
X174184439Y-76498273D01*
X174038273Y-76644439D01*
X173916765Y-76811680D01*
X173880485Y-76882884D01*
X173832510Y-76933680D01*
X173764689Y-76950475D01*
X173698554Y-76927937D01*
X173659515Y-76882884D01*
X173623234Y-76811680D01*
X173597292Y-76775974D01*
X173501729Y-76644442D01*
X173355558Y-76498271D01*
X173188319Y-76376765D01*
X173078048Y-76320579D01*
X173004129Y-76282915D01*
X172807535Y-76219038D01*
X172654402Y-76194784D01*
X172603359Y-76186700D01*
X172396641Y-76186700D01*
X172339420Y-76195763D01*
X172192466Y-76219038D01*
X172192463Y-76219038D01*
X171995870Y-76282915D01*
X171811680Y-76376765D01*
X171644439Y-76498273D01*
X171498273Y-76644439D01*
X171376765Y-76811680D01*
X171340485Y-76882884D01*
X171292510Y-76933680D01*
X171224689Y-76950475D01*
X171158554Y-76927937D01*
X171119515Y-76882884D01*
X171083234Y-76811680D01*
X171057292Y-76775974D01*
X170961729Y-76644442D01*
X170815558Y-76498271D01*
X170648319Y-76376765D01*
X170538048Y-76320579D01*
X170464129Y-76282915D01*
X170267535Y-76219038D01*
X170114402Y-76194784D01*
X170063359Y-76186700D01*
X169856641Y-76186700D01*
X169799420Y-76195763D01*
X169652466Y-76219038D01*
X169652463Y-76219038D01*
X169455870Y-76282915D01*
X169271680Y-76376765D01*
X169104439Y-76498273D01*
X168958273Y-76644439D01*
X168836765Y-76811680D01*
X168800485Y-76882884D01*
X168752510Y-76933680D01*
X168684689Y-76950475D01*
X168618554Y-76927937D01*
X168579515Y-76882884D01*
X168543234Y-76811680D01*
X168517292Y-76775974D01*
X168421729Y-76644442D01*
X168275558Y-76498271D01*
X168108319Y-76376765D01*
X167998048Y-76320579D01*
X167924129Y-76282915D01*
X167727535Y-76219038D01*
X167574402Y-76194784D01*
X167523359Y-76186700D01*
X167316641Y-76186700D01*
X167259420Y-76195763D01*
X167112466Y-76219038D01*
X167112463Y-76219038D01*
X166915870Y-76282915D01*
X166731680Y-76376765D01*
X166564439Y-76498273D01*
X166418273Y-76644439D01*
X166296765Y-76811680D01*
X166260485Y-76882884D01*
X166212510Y-76933680D01*
X166144689Y-76950475D01*
X166078554Y-76927937D01*
X166039515Y-76882884D01*
X166003234Y-76811680D01*
X165977292Y-76775974D01*
X165881729Y-76644442D01*
X165735558Y-76498271D01*
X165568319Y-76376765D01*
X165458048Y-76320579D01*
X165384129Y-76282915D01*
X165187535Y-76219038D01*
X165034402Y-76194784D01*
X164983359Y-76186700D01*
X164776641Y-76186700D01*
X164719420Y-76195763D01*
X164572466Y-76219038D01*
X164572463Y-76219038D01*
X164375870Y-76282915D01*
X164191680Y-76376765D01*
X164024439Y-76498273D01*
X163878273Y-76644439D01*
X163756765Y-76811680D01*
X163720485Y-76882884D01*
X163672510Y-76933680D01*
X163604689Y-76950475D01*
X163538554Y-76927937D01*
X163499515Y-76882884D01*
X163463234Y-76811680D01*
X163437292Y-76775974D01*
X163341729Y-76644442D01*
X163195558Y-76498271D01*
X163028319Y-76376765D01*
X162918048Y-76320579D01*
X162844129Y-76282915D01*
X162647535Y-76219038D01*
X162494402Y-76194784D01*
X162443359Y-76186700D01*
X162236641Y-76186700D01*
X162179420Y-76195763D01*
X162032466Y-76219038D01*
X162032463Y-76219038D01*
X161835870Y-76282915D01*
X161651680Y-76376765D01*
X161484439Y-76498273D01*
X161338273Y-76644439D01*
X161216765Y-76811680D01*
X161180485Y-76882884D01*
X161132510Y-76933680D01*
X161064689Y-76950475D01*
X160998554Y-76927937D01*
X160959515Y-76882884D01*
X160923234Y-76811680D01*
X160897292Y-76775974D01*
X160801729Y-76644442D01*
X160655558Y-76498271D01*
X160488319Y-76376765D01*
X160378048Y-76320579D01*
X160304129Y-76282915D01*
X160107535Y-76219038D01*
X159954402Y-76194784D01*
X159903359Y-76186700D01*
X159696641Y-76186700D01*
X159639420Y-76195763D01*
X159492466Y-76219038D01*
X159492463Y-76219038D01*
X159295870Y-76282915D01*
X159111680Y-76376765D01*
X158944439Y-76498273D01*
X158812581Y-76630132D01*
X158751258Y-76663617D01*
X158681566Y-76658633D01*
X158625633Y-76616761D01*
X158601216Y-76551297D01*
X158600900Y-76542451D01*
X158600900Y-75194165D01*
X158620585Y-75127126D01*
X158621798Y-75125274D01*
X158665257Y-75060234D01*
X158709794Y-74993579D01*
X158770137Y-74847897D01*
X158800900Y-74693242D01*
X158800900Y-74535558D01*
X158800900Y-74535555D01*
X158800899Y-74535553D01*
X158771870Y-74389616D01*
X158770137Y-74380903D01*
X158717028Y-74252685D01*
X158709797Y-74235227D01*
X158709790Y-74235214D01*
X158622189Y-74104111D01*
X158622186Y-74104107D01*
X158510692Y-73992613D01*
X158510688Y-73992610D01*
X158379585Y-73905009D01*
X158379572Y-73905002D01*
X158233901Y-73844664D01*
X158233889Y-73844661D01*
X158079245Y-73813900D01*
X158079242Y-73813900D01*
X157921558Y-73813900D01*
X157921555Y-73813900D01*
X157766910Y-73844661D01*
X157766898Y-73844664D01*
X157621227Y-73905002D01*
X157621214Y-73905009D01*
X157490111Y-73992610D01*
X157490107Y-73992613D01*
X157378613Y-74104107D01*
X157378610Y-74104111D01*
X157291009Y-74235214D01*
X157291002Y-74235227D01*
X157230664Y-74380898D01*
X157230661Y-74380910D01*
X157199900Y-74535553D01*
X157199900Y-74693246D01*
X157230661Y-74847889D01*
X157230664Y-74847901D01*
X157291002Y-74993572D01*
X157291009Y-74993585D01*
X157379002Y-75125274D01*
X157399880Y-75191951D01*
X157399900Y-75194165D01*
X157399900Y-78825430D01*
X157399899Y-78825448D01*
X157399899Y-78991154D01*
X157399898Y-78991154D01*
X157440823Y-79143885D01*
X157469758Y-79194000D01*
X157469759Y-79194004D01*
X157469760Y-79194004D01*
X157519879Y-79280814D01*
X157519881Y-79280817D01*
X157638749Y-79399685D01*
X157638755Y-79399690D01*
X159636481Y-81397416D01*
X159651184Y-81424343D01*
X159667777Y-81450162D01*
X159668668Y-81456362D01*
X159669966Y-81458739D01*
X159672800Y-81485097D01*
X159672800Y-81601942D01*
X159653115Y-81668981D01*
X159600311Y-81714736D01*
X159531153Y-81724680D01*
X159510485Y-81719873D01*
X159396243Y-81682754D01*
X159396241Y-81682753D01*
X159396240Y-81682753D01*
X159232428Y-81656808D01*
X159186287Y-81649500D01*
X158973713Y-81649500D01*
X158927572Y-81656808D01*
X158763760Y-81682753D01*
X158561585Y-81748444D01*
X158387535Y-81837127D01*
X158318865Y-81850023D01*
X158254125Y-81823747D01*
X158243559Y-81814323D01*
X154384235Y-77955000D01*
X154350750Y-77893677D01*
X154353985Y-77829001D01*
X154360962Y-77807532D01*
X154393300Y-77603359D01*
X154393300Y-77396641D01*
X154360962Y-77192468D01*
X154360961Y-77192464D01*
X154360961Y-77192463D01*
X154297084Y-76995870D01*
X154273954Y-76950475D01*
X154203235Y-76811681D01*
X154081729Y-76644442D01*
X153935558Y-76498271D01*
X153768319Y-76376765D01*
X153658048Y-76320579D01*
X153584129Y-76282915D01*
X153387535Y-76219038D01*
X153234402Y-76194784D01*
X153183359Y-76186700D01*
X152976641Y-76186700D01*
X152919420Y-76195763D01*
X152772466Y-76219038D01*
X152772463Y-76219038D01*
X152575870Y-76282915D01*
X152391680Y-76376765D01*
X152224439Y-76498273D01*
X152214455Y-76508258D01*
X152153132Y-76541743D01*
X152083440Y-76536759D01*
X152039093Y-76508258D01*
X151520290Y-75989455D01*
X151520288Y-75989452D01*
X151401417Y-75870581D01*
X151401416Y-75870580D01*
X151314604Y-75820460D01*
X151314604Y-75820459D01*
X151314600Y-75820458D01*
X151264485Y-75791523D01*
X151111757Y-75750599D01*
X150953643Y-75750599D01*
X150946047Y-75750599D01*
X150946031Y-75750600D01*
X149235569Y-75750600D01*
X149235553Y-75750599D01*
X149227957Y-75750599D01*
X149069843Y-75750599D01*
X148962487Y-75779365D01*
X148917110Y-75791524D01*
X148917109Y-75791525D01*
X148866996Y-75820459D01*
X148866995Y-75820460D01*
X148823589Y-75845520D01*
X148780185Y-75870579D01*
X148780182Y-75870581D01*
X148668378Y-75982386D01*
X148455000Y-76195763D01*
X148393677Y-76229248D01*
X148329001Y-76226013D01*
X148307535Y-76219038D01*
X148154402Y-76194784D01*
X148103359Y-76186700D01*
X147896641Y-76186700D01*
X147839420Y-76195763D01*
X147692466Y-76219038D01*
X147692463Y-76219038D01*
X147495870Y-76282915D01*
X147311680Y-76376765D01*
X147144439Y-76498273D01*
X147108805Y-76533908D01*
X147047482Y-76567393D01*
X146977790Y-76562409D01*
X146933443Y-76533908D01*
X146399690Y-76000155D01*
X146399688Y-76000152D01*
X146280817Y-75881281D01*
X146280812Y-75881277D01*
X146185073Y-75826003D01*
X146185072Y-75826002D01*
X146143890Y-75802225D01*
X146143889Y-75802224D01*
X146103956Y-75791524D01*
X145991157Y-75761299D01*
X145833043Y-75761299D01*
X145825447Y-75761299D01*
X145825431Y-75761300D01*
X144144869Y-75761300D01*
X144144853Y-75761299D01*
X144137257Y-75761299D01*
X143979143Y-75761299D01*
X143887993Y-75785723D01*
X143826410Y-75802224D01*
X143826409Y-75802225D01*
X143785228Y-75826002D01*
X143785227Y-75826003D01*
X143689487Y-75881277D01*
X143689482Y-75881281D01*
X143577678Y-75993086D01*
X143375000Y-76195763D01*
X143313677Y-76229248D01*
X143249001Y-76226013D01*
X143227535Y-76219038D01*
X143074402Y-76194784D01*
X143023359Y-76186700D01*
X142816641Y-76186700D01*
X142759420Y-76195763D01*
X142612466Y-76219038D01*
X142612463Y-76219038D01*
X142415870Y-76282915D01*
X142231680Y-76376765D01*
X142064439Y-76498273D01*
X142041955Y-76520758D01*
X141980632Y-76554243D01*
X141910940Y-76549259D01*
X141866593Y-76520758D01*
X141329490Y-75983655D01*
X141329488Y-75983652D01*
X141210617Y-75864781D01*
X141210616Y-75864780D01*
X141123804Y-75814660D01*
X141123804Y-75814659D01*
X141123800Y-75814658D01*
X141073685Y-75785723D01*
X140920957Y-75744799D01*
X140762843Y-75744799D01*
X140755247Y-75744799D01*
X140755231Y-75744800D01*
X138915641Y-75744800D01*
X138893996Y-75750599D01*
X138893997Y-75750600D01*
X138762914Y-75785723D01*
X138762909Y-75785726D01*
X138625990Y-75864775D01*
X138625982Y-75864781D01*
X138514178Y-75976586D01*
X138295000Y-76195763D01*
X138233677Y-76229248D01*
X138169001Y-76226013D01*
X138147535Y-76219038D01*
X137994402Y-76194784D01*
X137943359Y-76186700D01*
X137736641Y-76186700D01*
X137679420Y-76195763D01*
X137532466Y-76219038D01*
X137532463Y-76219038D01*
X137335870Y-76282915D01*
X137151680Y-76376765D01*
X136984439Y-76498273D01*
X136838273Y-76644439D01*
X136716765Y-76811680D01*
X136680485Y-76882884D01*
X136632510Y-76933680D01*
X136564689Y-76950475D01*
X136498554Y-76927937D01*
X136459515Y-76882884D01*
X136423234Y-76811680D01*
X136397292Y-76775974D01*
X136301729Y-76644442D01*
X136155558Y-76498271D01*
X135988319Y-76376765D01*
X135878048Y-76320579D01*
X135804129Y-76282915D01*
X135607535Y-76219038D01*
X135454402Y-76194784D01*
X135403359Y-76186700D01*
X135196641Y-76186700D01*
X135139420Y-76195763D01*
X134992466Y-76219038D01*
X134992463Y-76219038D01*
X134795870Y-76282915D01*
X134611680Y-76376765D01*
X134444439Y-76498273D01*
X134298273Y-76644439D01*
X134176765Y-76811680D01*
X134082915Y-76995870D01*
X134019038Y-77192463D01*
X134019038Y-77192466D01*
X133986700Y-77396641D01*
X133986700Y-77603358D01*
X134019038Y-77807533D01*
X134019038Y-77807536D01*
X134082915Y-78004129D01*
X134140485Y-78117115D01*
X134176765Y-78188319D01*
X134298271Y-78355558D01*
X134444442Y-78501729D01*
X134611681Y-78623235D01*
X134795868Y-78717083D01*
X134795870Y-78717084D01*
X134992464Y-78780961D01*
X134992465Y-78780961D01*
X134992468Y-78780962D01*
X135196641Y-78813300D01*
X135196642Y-78813300D01*
X135403358Y-78813300D01*
X135403359Y-78813300D01*
X135607532Y-78780962D01*
X135629001Y-78773985D01*
X135698838Y-78771989D01*
X135755000Y-78804235D01*
X136318284Y-79367519D01*
X136351769Y-79428842D01*
X136346785Y-79498534D01*
X136304913Y-79554467D01*
X136239449Y-79578884D01*
X136230603Y-79579200D01*
X132421298Y-79579200D01*
X132354259Y-79559515D01*
X132333617Y-79542881D01*
X128835573Y-76044837D01*
X128802088Y-75983514D01*
X128801637Y-75981347D01*
X128770737Y-75826003D01*
X128770735Y-75825998D01*
X128710397Y-75680327D01*
X128710390Y-75680314D01*
X128622789Y-75549211D01*
X128622786Y-75549207D01*
X128511292Y-75437713D01*
X128511288Y-75437710D01*
X128380185Y-75350109D01*
X128380172Y-75350102D01*
X128234501Y-75289764D01*
X128234489Y-75289761D01*
X128079845Y-75259000D01*
X128079842Y-75259000D01*
X127922158Y-75259000D01*
X127922155Y-75259000D01*
X127767510Y-75289761D01*
X127767498Y-75289764D01*
X127621827Y-75350102D01*
X127621816Y-75350108D01*
X127494597Y-75435113D01*
X127427920Y-75455990D01*
X127360540Y-75437505D01*
X127338026Y-75419691D01*
X125726819Y-73808484D01*
X125693334Y-73747161D01*
X125690500Y-73720803D01*
X125690500Y-72276965D01*
X125710185Y-72209926D01*
X125711398Y-72208074D01*
X125799390Y-72076385D01*
X125799390Y-72076384D01*
X125799394Y-72076379D01*
X125859737Y-71930697D01*
X125890500Y-71776042D01*
X125890500Y-71618358D01*
X125890500Y-71618355D01*
X125890499Y-71618353D01*
X125859738Y-71463710D01*
X125859737Y-71463703D01*
X125859735Y-71463698D01*
X125799397Y-71318027D01*
X125799390Y-71318014D01*
X125711789Y-71186911D01*
X125711786Y-71186907D01*
X125600292Y-71075413D01*
X125600288Y-71075410D01*
X125469185Y-70987809D01*
X125469172Y-70987802D01*
X125323501Y-70927464D01*
X125323489Y-70927461D01*
X125168845Y-70896700D01*
X125168842Y-70896700D01*
X125011158Y-70896700D01*
X125011155Y-70896700D01*
X124856510Y-70927461D01*
X124856498Y-70927464D01*
X124710827Y-70987802D01*
X124710814Y-70987809D01*
X124579711Y-71075410D01*
X124579707Y-71075413D01*
X124468213Y-71186907D01*
X124468210Y-71186911D01*
X124380609Y-71318014D01*
X124380602Y-71318027D01*
X124320264Y-71463698D01*
X124320261Y-71463710D01*
X124289500Y-71618353D01*
X103500500Y-71618353D01*
X103500500Y-64413389D01*
X108524500Y-64413389D01*
X108524500Y-64586611D01*
X108551598Y-64757701D01*
X108605127Y-64922445D01*
X108683768Y-65076788D01*
X108785586Y-65216928D01*
X108908072Y-65339414D01*
X109048212Y-65441232D01*
X109202555Y-65519873D01*
X109367299Y-65573402D01*
X109538389Y-65600500D01*
X109538390Y-65600500D01*
X110261610Y-65600500D01*
X110261611Y-65600500D01*
X110432701Y-65573402D01*
X110597445Y-65519873D01*
X110751788Y-65441232D01*
X110891928Y-65339414D01*
X111014414Y-65216928D01*
X111116232Y-65076788D01*
X111194873Y-64922445D01*
X111248402Y-64757701D01*
X111275500Y-64586611D01*
X111275500Y-64413389D01*
X115074500Y-64413389D01*
X115074500Y-64586611D01*
X115101598Y-64757701D01*
X115155127Y-64922445D01*
X115233768Y-65076788D01*
X115335586Y-65216928D01*
X115458072Y-65339414D01*
X115598212Y-65441232D01*
X115752555Y-65519873D01*
X115917299Y-65573402D01*
X116088389Y-65600500D01*
X116088390Y-65600500D01*
X116811610Y-65600500D01*
X116811611Y-65600500D01*
X116982701Y-65573402D01*
X117147445Y-65519873D01*
X117301788Y-65441232D01*
X117441928Y-65339414D01*
X117564414Y-65216928D01*
X117666232Y-65076788D01*
X117744873Y-64922445D01*
X117798402Y-64757701D01*
X117825500Y-64586611D01*
X117825500Y-64413389D01*
X117814224Y-64342196D01*
X117823178Y-64272905D01*
X117868174Y-64219453D01*
X117934926Y-64198813D01*
X117936697Y-64198800D01*
X121513303Y-64198800D01*
X121580342Y-64218485D01*
X121626097Y-64271289D01*
X121636041Y-64340447D01*
X121635785Y-64342133D01*
X121624500Y-64413389D01*
X121624500Y-64586611D01*
X121651598Y-64757701D01*
X121705127Y-64922445D01*
X121783768Y-65076788D01*
X121885586Y-65216928D01*
X122008072Y-65339414D01*
X122113177Y-65415777D01*
X122148213Y-65441233D01*
X122302555Y-65519873D01*
X122302559Y-65519875D01*
X122356192Y-65537301D01*
X122413868Y-65576738D01*
X122429315Y-65600853D01*
X122434558Y-65611599D01*
X122440423Y-65633485D01*
X122469360Y-65683604D01*
X122471514Y-65687335D01*
X122471518Y-65687343D01*
X122519479Y-65770414D01*
X122519481Y-65770417D01*
X122638349Y-65889285D01*
X122638355Y-65889290D01*
X129010339Y-72261274D01*
X129010349Y-72261285D01*
X129014679Y-72265615D01*
X129014680Y-72265616D01*
X129126484Y-72377420D01*
X129213295Y-72427539D01*
X129213297Y-72427541D01*
X129251351Y-72449511D01*
X129263415Y-72456477D01*
X129416143Y-72497401D01*
X129416146Y-72497401D01*
X129581853Y-72497401D01*
X129581869Y-72497400D01*
X145896431Y-72497400D01*
X145896447Y-72497401D01*
X145904043Y-72497401D01*
X146062154Y-72497401D01*
X146062157Y-72497401D01*
X146214885Y-72456477D01*
X146265004Y-72427539D01*
X146351816Y-72377420D01*
X146463620Y-72265616D01*
X146463620Y-72265614D01*
X146473828Y-72255407D01*
X146473830Y-72255404D01*
X147545000Y-71184233D01*
X147606321Y-71150750D01*
X147670995Y-71153984D01*
X147692468Y-71160962D01*
X147896641Y-71193300D01*
X147896642Y-71193300D01*
X148103358Y-71193300D01*
X148103359Y-71193300D01*
X148307532Y-71160962D01*
X148307535Y-71160961D01*
X148307536Y-71160961D01*
X148504129Y-71097084D01*
X148504129Y-71097083D01*
X148504132Y-71097083D01*
X148688319Y-71003235D01*
X148855558Y-70881729D01*
X149001729Y-70735558D01*
X149123235Y-70568319D01*
X149159515Y-70497114D01*
X149207489Y-70446319D01*
X149275310Y-70429524D01*
X149341445Y-70452061D01*
X149380484Y-70497114D01*
X149416765Y-70568319D01*
X149538271Y-70735558D01*
X149684442Y-70881729D01*
X149851681Y-71003235D01*
X149993338Y-71075413D01*
X150035870Y-71097084D01*
X150232464Y-71160961D01*
X150232465Y-71160961D01*
X150232468Y-71160962D01*
X150436641Y-71193300D01*
X150436642Y-71193300D01*
X150643358Y-71193300D01*
X150643359Y-71193300D01*
X150847532Y-71160962D01*
X150847535Y-71160961D01*
X150847536Y-71160961D01*
X151044129Y-71097084D01*
X151044129Y-71097083D01*
X151044132Y-71097083D01*
X151228319Y-71003235D01*
X151395558Y-70881729D01*
X151541729Y-70735558D01*
X151663235Y-70568319D01*
X151699515Y-70497114D01*
X151747489Y-70446319D01*
X151815310Y-70429524D01*
X151881445Y-70452061D01*
X151920484Y-70497114D01*
X151956765Y-70568319D01*
X152078271Y-70735558D01*
X152224442Y-70881729D01*
X152391681Y-71003235D01*
X152533338Y-71075413D01*
X152575870Y-71097084D01*
X152772464Y-71160961D01*
X152772465Y-71160961D01*
X152772468Y-71160962D01*
X152976641Y-71193300D01*
X152976642Y-71193300D01*
X153183358Y-71193300D01*
X153183359Y-71193300D01*
X153387532Y-71160962D01*
X153387535Y-71160961D01*
X153387536Y-71160961D01*
X153584129Y-71097084D01*
X153584129Y-71097083D01*
X153584132Y-71097083D01*
X153768319Y-71003235D01*
X153935558Y-70881729D01*
X154081729Y-70735558D01*
X154203235Y-70568319D01*
X154297083Y-70384132D01*
X154360962Y-70187532D01*
X154393300Y-69983359D01*
X154393300Y-69776641D01*
X158486700Y-69776641D01*
X158486700Y-69983358D01*
X158519038Y-70187533D01*
X158519038Y-70187536D01*
X158582915Y-70384129D01*
X158640485Y-70497115D01*
X158676765Y-70568319D01*
X158798271Y-70735558D01*
X158944442Y-70881729D01*
X159111681Y-71003235D01*
X159253338Y-71075413D01*
X159295870Y-71097084D01*
X159492464Y-71160961D01*
X159492465Y-71160961D01*
X159492468Y-71160962D01*
X159696641Y-71193300D01*
X159696642Y-71193300D01*
X159903358Y-71193300D01*
X159903359Y-71193300D01*
X160107532Y-71160962D01*
X160107535Y-71160961D01*
X160107536Y-71160961D01*
X160304129Y-71097084D01*
X160304129Y-71097083D01*
X160304132Y-71097083D01*
X160488319Y-71003235D01*
X160655558Y-70881729D01*
X160801729Y-70735558D01*
X160923235Y-70568319D01*
X160959515Y-70497114D01*
X161007489Y-70446319D01*
X161075310Y-70429524D01*
X161141445Y-70452061D01*
X161180484Y-70497114D01*
X161216765Y-70568319D01*
X161338271Y-70735558D01*
X161484442Y-70881729D01*
X161651681Y-71003235D01*
X161793338Y-71075413D01*
X161835870Y-71097084D01*
X162032464Y-71160961D01*
X162032465Y-71160961D01*
X162032468Y-71160962D01*
X162236641Y-71193300D01*
X162236642Y-71193300D01*
X162443358Y-71193300D01*
X162443359Y-71193300D01*
X162647532Y-71160962D01*
X162647535Y-71160961D01*
X162647536Y-71160961D01*
X162844129Y-71097084D01*
X162844129Y-71097083D01*
X162844132Y-71097083D01*
X163028319Y-71003235D01*
X163195558Y-70881729D01*
X163341729Y-70735558D01*
X163463235Y-70568319D01*
X163499515Y-70497114D01*
X163547489Y-70446319D01*
X163615310Y-70429524D01*
X163681445Y-70452061D01*
X163720484Y-70497114D01*
X163756765Y-70568319D01*
X163878271Y-70735558D01*
X164024442Y-70881729D01*
X164191681Y-71003235D01*
X164333338Y-71075413D01*
X164375870Y-71097084D01*
X164572464Y-71160961D01*
X164572465Y-71160961D01*
X164572468Y-71160962D01*
X164776641Y-71193300D01*
X164776642Y-71193300D01*
X164983358Y-71193300D01*
X164983359Y-71193300D01*
X165187532Y-71160962D01*
X165209001Y-71153985D01*
X165278838Y-71151989D01*
X165334999Y-71184234D01*
X166080184Y-71929420D01*
X166080186Y-71929421D01*
X166080190Y-71929424D01*
X166217109Y-72008473D01*
X166217112Y-72008475D01*
X166217116Y-72008477D01*
X166369843Y-72049401D01*
X166369845Y-72049401D01*
X166535554Y-72049401D01*
X166535570Y-72049400D01*
X188266131Y-72049400D01*
X188266147Y-72049401D01*
X188273743Y-72049401D01*
X188431854Y-72049401D01*
X188431857Y-72049401D01*
X188584585Y-72008477D01*
X188640911Y-71975957D01*
X188721516Y-71929420D01*
X188833320Y-71817616D01*
X188833320Y-71817614D01*
X188843524Y-71807411D01*
X188843528Y-71807406D01*
X194768713Y-65882221D01*
X194768716Y-65882220D01*
X194880520Y-65770416D01*
X194930639Y-65683604D01*
X194959577Y-65633485D01*
X194965443Y-65611590D01*
X194970683Y-65600853D01*
X194986497Y-65583517D01*
X194998709Y-65563482D01*
X195011608Y-65555993D01*
X195017773Y-65549236D01*
X195027877Y-65546547D01*
X195043804Y-65537301D01*
X195097445Y-65519873D01*
X195251788Y-65441232D01*
X195391928Y-65339414D01*
X195514414Y-65216928D01*
X195616232Y-65076788D01*
X195694873Y-64922445D01*
X195748402Y-64757701D01*
X195775500Y-64586611D01*
X195775500Y-64413389D01*
X199574500Y-64413389D01*
X199574500Y-64586611D01*
X199601598Y-64757701D01*
X199655127Y-64922445D01*
X199733768Y-65076788D01*
X199835586Y-65216928D01*
X199958072Y-65339414D01*
X200098212Y-65441232D01*
X200252555Y-65519873D01*
X200417299Y-65573402D01*
X200588389Y-65600500D01*
X200588390Y-65600500D01*
X201311610Y-65600500D01*
X201311611Y-65600500D01*
X201482701Y-65573402D01*
X201647445Y-65519873D01*
X201801788Y-65441232D01*
X201941928Y-65339414D01*
X202064414Y-65216928D01*
X202166232Y-65076788D01*
X202244873Y-64922445D01*
X202298402Y-64757701D01*
X202325500Y-64586611D01*
X202325500Y-64413389D01*
X206124500Y-64413389D01*
X206124500Y-64586611D01*
X206151598Y-64757701D01*
X206205127Y-64922445D01*
X206283768Y-65076788D01*
X206385586Y-65216928D01*
X206508072Y-65339414D01*
X206648212Y-65441232D01*
X206802555Y-65519873D01*
X206967299Y-65573402D01*
X207138389Y-65600500D01*
X207138390Y-65600500D01*
X207861610Y-65600500D01*
X207861611Y-65600500D01*
X208032701Y-65573402D01*
X208197445Y-65519873D01*
X208351788Y-65441232D01*
X208491928Y-65339414D01*
X208614414Y-65216928D01*
X208716232Y-65076788D01*
X208794873Y-64922445D01*
X208848402Y-64757701D01*
X208875500Y-64586611D01*
X208875500Y-64413389D01*
X208848402Y-64242299D01*
X208794873Y-64077555D01*
X208716232Y-63923212D01*
X208614414Y-63783072D01*
X208491928Y-63660586D01*
X208351788Y-63558768D01*
X208197445Y-63480127D01*
X208032701Y-63426598D01*
X208032699Y-63426597D01*
X208032698Y-63426597D01*
X207901271Y-63405781D01*
X207861611Y-63399500D01*
X207138389Y-63399500D01*
X207098728Y-63405781D01*
X206967302Y-63426597D01*
X206802552Y-63480128D01*
X206648211Y-63558768D01*
X206568256Y-63616859D01*
X206508072Y-63660586D01*
X206508070Y-63660588D01*
X206508069Y-63660588D01*
X206385588Y-63783069D01*
X206385588Y-63783070D01*
X206385586Y-63783072D01*
X206341859Y-63843256D01*
X206283768Y-63923211D01*
X206205128Y-64077552D01*
X206151597Y-64242302D01*
X206124500Y-64413389D01*
X202325500Y-64413389D01*
X202298402Y-64242299D01*
X202244873Y-64077555D01*
X202166232Y-63923212D01*
X202064414Y-63783072D01*
X201941928Y-63660586D01*
X201801788Y-63558768D01*
X201647445Y-63480127D01*
X201482701Y-63426598D01*
X201482699Y-63426597D01*
X201482698Y-63426597D01*
X201351271Y-63405781D01*
X201311611Y-63399500D01*
X200588389Y-63399500D01*
X200548728Y-63405781D01*
X200417302Y-63426597D01*
X200252552Y-63480128D01*
X200098211Y-63558768D01*
X200018256Y-63616859D01*
X199958072Y-63660586D01*
X199958070Y-63660588D01*
X199958069Y-63660588D01*
X199835588Y-63783069D01*
X199835588Y-63783070D01*
X199835586Y-63783072D01*
X199791859Y-63843256D01*
X199733768Y-63923211D01*
X199655128Y-64077552D01*
X199601597Y-64242302D01*
X199574500Y-64413389D01*
X195775500Y-64413389D01*
X195748402Y-64242299D01*
X195694873Y-64077555D01*
X195616232Y-63923212D01*
X195514414Y-63783072D01*
X195391928Y-63660586D01*
X195251788Y-63558768D01*
X195097445Y-63480127D01*
X194932701Y-63426598D01*
X194932699Y-63426597D01*
X194932698Y-63426597D01*
X194801271Y-63405781D01*
X194761611Y-63399500D01*
X194038389Y-63399500D01*
X193998728Y-63405781D01*
X193867302Y-63426597D01*
X193702552Y-63480128D01*
X193548211Y-63558768D01*
X193468256Y-63616859D01*
X193408072Y-63660586D01*
X193408070Y-63660588D01*
X193408069Y-63660588D01*
X193285588Y-63783069D01*
X193285588Y-63783070D01*
X193285586Y-63783072D01*
X193241859Y-63843256D01*
X193183768Y-63923211D01*
X193105128Y-64077552D01*
X193051597Y-64242302D01*
X193024500Y-64413389D01*
X193024500Y-64586611D01*
X193051598Y-64757701D01*
X193105127Y-64922445D01*
X193183768Y-65076788D01*
X193285586Y-65216928D01*
X193285588Y-65216930D01*
X193408075Y-65339417D01*
X193409340Y-65340336D01*
X193409704Y-65340808D01*
X193411785Y-65342586D01*
X193411411Y-65343022D01*
X193452003Y-65395668D01*
X193457979Y-65465282D01*
X193425371Y-65527075D01*
X193424131Y-65528332D01*
X188140384Y-70812081D01*
X188079061Y-70845566D01*
X188052703Y-70848400D01*
X179353097Y-70848400D01*
X179286058Y-70828715D01*
X179240303Y-70775911D01*
X179230359Y-70706753D01*
X179259384Y-70643197D01*
X179265416Y-70636719D01*
X179918777Y-69983358D01*
X181908506Y-67993627D01*
X181908511Y-67993624D01*
X181918714Y-67983420D01*
X181918716Y-67983420D01*
X182030520Y-67871616D01*
X182101476Y-67748716D01*
X182109577Y-67734685D01*
X182150500Y-67581958D01*
X182150500Y-67423843D01*
X182150500Y-65641463D01*
X182170185Y-65574424D01*
X182222989Y-65528669D01*
X182236178Y-65523533D01*
X182247445Y-65519873D01*
X182401788Y-65441232D01*
X182541928Y-65339414D01*
X182664414Y-65216928D01*
X182766232Y-65076788D01*
X182844873Y-64922445D01*
X182898402Y-64757701D01*
X182925500Y-64586611D01*
X182925500Y-64413389D01*
X186474500Y-64413389D01*
X186474500Y-64586611D01*
X186501598Y-64757701D01*
X186555127Y-64922445D01*
X186633768Y-65076788D01*
X186735586Y-65216928D01*
X186858072Y-65339414D01*
X186998212Y-65441232D01*
X187152555Y-65519873D01*
X187317299Y-65573402D01*
X187488389Y-65600500D01*
X187488390Y-65600500D01*
X188211610Y-65600500D01*
X188211611Y-65600500D01*
X188382701Y-65573402D01*
X188547445Y-65519873D01*
X188701788Y-65441232D01*
X188841928Y-65339414D01*
X188964414Y-65216928D01*
X189066232Y-65076788D01*
X189144873Y-64922445D01*
X189198402Y-64757701D01*
X189225500Y-64586611D01*
X189225500Y-64413389D01*
X189198402Y-64242299D01*
X189144873Y-64077555D01*
X189066232Y-63923212D01*
X188964414Y-63783072D01*
X188841928Y-63660586D01*
X188701788Y-63558768D01*
X188547445Y-63480127D01*
X188382701Y-63426598D01*
X188382699Y-63426597D01*
X188382698Y-63426597D01*
X188251271Y-63405781D01*
X188211611Y-63399500D01*
X187488389Y-63399500D01*
X187448728Y-63405781D01*
X187317302Y-63426597D01*
X187152552Y-63480128D01*
X186998211Y-63558768D01*
X186918256Y-63616859D01*
X186858072Y-63660586D01*
X186858070Y-63660588D01*
X186858069Y-63660588D01*
X186735588Y-63783069D01*
X186735588Y-63783070D01*
X186735586Y-63783072D01*
X186691859Y-63843256D01*
X186633768Y-63923211D01*
X186555128Y-64077552D01*
X186501597Y-64242302D01*
X186474500Y-64413389D01*
X182925500Y-64413389D01*
X182898402Y-64242299D01*
X182844873Y-64077555D01*
X182766232Y-63923212D01*
X182664414Y-63783072D01*
X182541928Y-63660586D01*
X182401788Y-63558768D01*
X182247445Y-63480127D01*
X182082701Y-63426598D01*
X182082699Y-63426597D01*
X182082698Y-63426597D01*
X181951271Y-63405781D01*
X181911611Y-63399500D01*
X181188389Y-63399500D01*
X181148728Y-63405781D01*
X181017302Y-63426597D01*
X180852552Y-63480128D01*
X180698211Y-63558768D01*
X180618256Y-63616859D01*
X180558072Y-63660586D01*
X180558070Y-63660588D01*
X180558069Y-63660588D01*
X180435588Y-63783069D01*
X180435588Y-63783070D01*
X180435586Y-63783072D01*
X180391859Y-63843256D01*
X180333768Y-63923211D01*
X180255128Y-64077552D01*
X180201597Y-64242302D01*
X180174500Y-64413389D01*
X180174500Y-64586611D01*
X180201598Y-64757701D01*
X180255127Y-64922445D01*
X180333768Y-65076788D01*
X180435586Y-65216928D01*
X180558072Y-65339414D01*
X180663177Y-65415777D01*
X180698213Y-65441233D01*
X180775383Y-65480552D01*
X180852555Y-65519873D01*
X180863813Y-65523531D01*
X180921489Y-65562964D01*
X180948691Y-65627322D01*
X180949500Y-65641463D01*
X180949500Y-67202802D01*
X180929815Y-67269841D01*
X180913181Y-67290483D01*
X178928132Y-69275531D01*
X178866809Y-69309016D01*
X178797117Y-69304032D01*
X178741184Y-69262160D01*
X178729966Y-69244144D01*
X178703236Y-69191682D01*
X178672858Y-69149871D01*
X178581729Y-69024442D01*
X178435558Y-68878271D01*
X178268319Y-68756765D01*
X178248203Y-68746515D01*
X178197408Y-68698540D01*
X178180500Y-68636031D01*
X178180500Y-63442645D01*
X178180500Y-63442643D01*
X178139577Y-63289916D01*
X178139577Y-63289915D01*
X178104745Y-63229584D01*
X178060520Y-63152984D01*
X177948716Y-63041180D01*
X177948715Y-63041179D01*
X177944385Y-63036849D01*
X177944374Y-63036839D01*
X176290275Y-61382740D01*
X176256790Y-61321417D01*
X176261774Y-61251725D01*
X176272415Y-61229966D01*
X176309814Y-61169334D01*
X176364999Y-61002797D01*
X176375500Y-60900009D01*
X176375499Y-60099992D01*
X176364999Y-59997203D01*
X176309814Y-59830666D01*
X176217712Y-59681344D01*
X176093656Y-59557288D01*
X175944334Y-59465186D01*
X175777797Y-59410001D01*
X175777795Y-59410000D01*
X175675016Y-59399500D01*
X175675009Y-59399500D01*
X174800097Y-59399500D01*
X174733058Y-59379815D01*
X174712416Y-59363181D01*
X170736819Y-55387584D01*
X170703334Y-55326261D01*
X170700500Y-55299903D01*
X170700500Y-52282965D01*
X170720185Y-52215926D01*
X170772989Y-52170171D01*
X170777048Y-52168404D01*
X170898037Y-52118289D01*
X170898037Y-52118288D01*
X170898049Y-52118284D01*
X171102450Y-52000273D01*
X171289699Y-51856592D01*
X171456592Y-51689699D01*
X171600273Y-51502450D01*
X171718284Y-51298049D01*
X171808606Y-51079993D01*
X171869693Y-50852014D01*
X171900500Y-50618011D01*
X171900500Y-50381995D01*
X173379500Y-50381995D01*
X173379500Y-50618004D01*
X173379501Y-50618020D01*
X173410306Y-50852010D01*
X173471394Y-51079993D01*
X173561714Y-51298045D01*
X173561719Y-51298056D01*
X173598300Y-51361415D01*
X173679727Y-51502450D01*
X173679729Y-51502453D01*
X173679730Y-51502454D01*
X173823406Y-51689697D01*
X173823412Y-51689704D01*
X173990295Y-51856587D01*
X173990302Y-51856593D01*
X174006909Y-51869336D01*
X174177550Y-52000273D01*
X174381951Y-52118284D01*
X174381956Y-52118286D01*
X174381962Y-52118289D01*
X174502952Y-52168404D01*
X174557356Y-52212244D01*
X174579421Y-52278538D01*
X174579500Y-52282965D01*
X174579500Y-54043330D01*
X174579499Y-54043348D01*
X174579499Y-54209054D01*
X174579498Y-54209054D01*
X174620423Y-54361785D01*
X174647518Y-54408715D01*
X174647520Y-54408717D01*
X174699479Y-54498714D01*
X174699481Y-54498717D01*
X174818349Y-54617585D01*
X174818355Y-54617590D01*
X180144537Y-59943772D01*
X180178022Y-60005095D01*
X180180214Y-60044055D01*
X180174500Y-60099981D01*
X180174500Y-60900001D01*
X180174501Y-60900019D01*
X180185000Y-61002796D01*
X180185001Y-61002799D01*
X180240185Y-61169331D01*
X180240187Y-61169336D01*
X180258784Y-61199486D01*
X180332288Y-61318656D01*
X180456344Y-61442712D01*
X180605666Y-61534814D01*
X180772203Y-61589999D01*
X180874991Y-61600500D01*
X182225008Y-61600499D01*
X182327797Y-61589999D01*
X182494334Y-61534814D01*
X182643656Y-61442712D01*
X182767712Y-61318656D01*
X182859814Y-61169334D01*
X182914999Y-61002797D01*
X182925500Y-60900009D01*
X182925499Y-60099992D01*
X182914999Y-59997203D01*
X182859814Y-59830666D01*
X182767712Y-59681344D01*
X182643656Y-59557288D01*
X182494334Y-59465186D01*
X182327797Y-59410001D01*
X182327795Y-59410000D01*
X182225016Y-59399500D01*
X182225009Y-59399500D01*
X181350097Y-59399500D01*
X181283058Y-59379815D01*
X181262416Y-59363181D01*
X175816819Y-53917584D01*
X175783334Y-53856261D01*
X175780500Y-53829903D01*
X175780500Y-52282965D01*
X175800185Y-52215926D01*
X175852989Y-52170171D01*
X175857048Y-52168404D01*
X175978037Y-52118289D01*
X175978037Y-52118288D01*
X175978049Y-52118284D01*
X176182450Y-52000273D01*
X176369699Y-51856592D01*
X176536592Y-51689699D01*
X176680273Y-51502450D01*
X176798284Y-51298049D01*
X176888606Y-51079993D01*
X176949693Y-50852014D01*
X176980500Y-50618011D01*
X176980500Y-50381995D01*
X178459500Y-50381995D01*
X178459500Y-50618004D01*
X178459501Y-50618020D01*
X178490306Y-50852010D01*
X178551394Y-51079993D01*
X178641714Y-51298045D01*
X178641719Y-51298056D01*
X178678300Y-51361415D01*
X178759727Y-51502450D01*
X178759729Y-51502453D01*
X178759730Y-51502454D01*
X178903406Y-51689697D01*
X178903412Y-51689704D01*
X179070295Y-51856587D01*
X179070302Y-51856593D01*
X179086909Y-51869336D01*
X179257550Y-52000273D01*
X179388918Y-52076118D01*
X179461943Y-52118280D01*
X179461948Y-52118282D01*
X179461951Y-52118284D01*
X179680007Y-52208606D01*
X179907986Y-52269693D01*
X180141989Y-52300500D01*
X180141996Y-52300500D01*
X180378004Y-52300500D01*
X180378011Y-52300500D01*
X180612014Y-52269693D01*
X180839993Y-52208606D01*
X180960996Y-52158483D01*
X181030464Y-52151015D01*
X181092943Y-52182289D01*
X181096129Y-52185364D01*
X187213181Y-58302416D01*
X187246666Y-58363739D01*
X187249500Y-58390097D01*
X187249500Y-59279911D01*
X187229815Y-59346950D01*
X187177011Y-59392705D01*
X187138102Y-59403269D01*
X187072202Y-59410001D01*
X187072200Y-59410001D01*
X186905668Y-59465185D01*
X186905663Y-59465187D01*
X186756342Y-59557289D01*
X186632289Y-59681342D01*
X186540187Y-59830663D01*
X186540186Y-59830666D01*
X186485001Y-59997203D01*
X186485001Y-59997204D01*
X186485000Y-59997204D01*
X186474500Y-60099983D01*
X186474500Y-60900001D01*
X186474501Y-60900019D01*
X186485000Y-61002796D01*
X186485001Y-61002799D01*
X186540185Y-61169331D01*
X186540187Y-61169336D01*
X186558784Y-61199486D01*
X186632288Y-61318656D01*
X186756344Y-61442712D01*
X186905666Y-61534814D01*
X187072203Y-61589999D01*
X187174991Y-61600500D01*
X188525008Y-61600499D01*
X188627797Y-61589999D01*
X188794334Y-61534814D01*
X188943656Y-61442712D01*
X189067712Y-61318656D01*
X189159814Y-61169334D01*
X189214999Y-61002797D01*
X189225500Y-60900009D01*
X189225499Y-60099992D01*
X189214999Y-59997203D01*
X189159814Y-59830666D01*
X189067712Y-59681344D01*
X188943656Y-59557288D01*
X188794334Y-59465186D01*
X188627797Y-59410001D01*
X188627794Y-59410000D01*
X188561897Y-59403268D01*
X188497205Y-59376871D01*
X188457054Y-59319690D01*
X188450500Y-59279910D01*
X188450500Y-58179059D01*
X188450501Y-58179046D01*
X188450501Y-58010945D01*
X188450501Y-58010943D01*
X188409577Y-57858215D01*
X188380639Y-57808095D01*
X188330520Y-57721284D01*
X188218716Y-57609480D01*
X188218715Y-57609479D01*
X188214385Y-57605149D01*
X188214374Y-57605139D01*
X181945364Y-51336129D01*
X181911879Y-51274806D01*
X181916863Y-51205114D01*
X181918468Y-51201033D01*
X181968606Y-51079993D01*
X182029693Y-50852014D01*
X182060500Y-50618011D01*
X182060500Y-50381995D01*
X183539500Y-50381995D01*
X183539500Y-50618004D01*
X183539501Y-50618020D01*
X183570306Y-50852010D01*
X183631394Y-51079993D01*
X183721714Y-51298045D01*
X183721719Y-51298056D01*
X183758300Y-51361415D01*
X183839727Y-51502450D01*
X183839729Y-51502453D01*
X183839730Y-51502454D01*
X183983406Y-51689697D01*
X183983412Y-51689704D01*
X184150295Y-51856587D01*
X184150302Y-51856593D01*
X184166909Y-51869336D01*
X184337550Y-52000273D01*
X184468918Y-52076118D01*
X184541943Y-52118280D01*
X184541948Y-52118282D01*
X184541951Y-52118284D01*
X184760007Y-52208606D01*
X184987986Y-52269693D01*
X185221989Y-52300500D01*
X185221996Y-52300500D01*
X185458004Y-52300500D01*
X185458011Y-52300500D01*
X185692014Y-52269693D01*
X185919993Y-52208606D01*
X186040996Y-52158483D01*
X186110464Y-52151015D01*
X186172943Y-52182289D01*
X186176129Y-52185364D01*
X193344950Y-59354185D01*
X193378435Y-59415508D01*
X193373451Y-59485200D01*
X193331579Y-59541133D01*
X193322369Y-59547402D01*
X193306349Y-59557283D01*
X193306343Y-59557288D01*
X193182289Y-59681342D01*
X193090187Y-59830663D01*
X193090186Y-59830666D01*
X193035001Y-59997203D01*
X193035001Y-59997204D01*
X193035000Y-59997204D01*
X193024500Y-60099983D01*
X193024500Y-60900001D01*
X193024501Y-60900019D01*
X193035000Y-61002796D01*
X193035001Y-61002799D01*
X193090185Y-61169331D01*
X193090187Y-61169336D01*
X193108784Y-61199486D01*
X193182288Y-61318656D01*
X193306344Y-61442712D01*
X193455666Y-61534814D01*
X193622203Y-61589999D01*
X193724991Y-61600500D01*
X195075008Y-61600499D01*
X195177797Y-61589999D01*
X195344334Y-61534814D01*
X195493656Y-61442712D01*
X195617712Y-61318656D01*
X195709814Y-61169334D01*
X195764999Y-61002797D01*
X195775500Y-60900009D01*
X195775499Y-60099992D01*
X195764999Y-59997203D01*
X195709814Y-59830666D01*
X195617712Y-59681344D01*
X195493656Y-59557288D01*
X195344334Y-59465186D01*
X195177797Y-59410001D01*
X195177795Y-59410000D01*
X195075016Y-59399500D01*
X195075009Y-59399500D01*
X195071958Y-59399500D01*
X195060166Y-59396037D01*
X195047928Y-59397149D01*
X195027270Y-59386378D01*
X195004919Y-59379815D01*
X194995353Y-59369736D01*
X194985974Y-59364846D01*
X194973870Y-59347101D01*
X194964285Y-59337002D01*
X194959851Y-59329240D01*
X194959577Y-59328215D01*
X194930639Y-59278095D01*
X194880520Y-59191284D01*
X194768716Y-59079480D01*
X194768715Y-59079479D01*
X194764385Y-59075149D01*
X194764374Y-59075139D01*
X187025364Y-51336129D01*
X186991879Y-51274806D01*
X186996863Y-51205114D01*
X186998468Y-51201033D01*
X187048606Y-51079993D01*
X187109693Y-50852014D01*
X187140500Y-50618011D01*
X187140500Y-50381995D01*
X188619500Y-50381995D01*
X188619500Y-50618004D01*
X188619501Y-50618020D01*
X188650306Y-50852010D01*
X188711394Y-51079993D01*
X188801714Y-51298045D01*
X188801719Y-51298056D01*
X188838300Y-51361415D01*
X188919727Y-51502450D01*
X188919729Y-51502453D01*
X188919730Y-51502454D01*
X189063406Y-51689697D01*
X189063412Y-51689704D01*
X189230295Y-51856587D01*
X189230302Y-51856593D01*
X189246909Y-51869336D01*
X189417550Y-52000273D01*
X189548918Y-52076118D01*
X189621943Y-52118280D01*
X189621948Y-52118282D01*
X189621951Y-52118284D01*
X189840007Y-52208606D01*
X190067986Y-52269693D01*
X190301989Y-52300500D01*
X190301996Y-52300500D01*
X190538004Y-52300500D01*
X190538011Y-52300500D01*
X190772014Y-52269693D01*
X190999993Y-52208606D01*
X191120996Y-52158483D01*
X191190464Y-52151015D01*
X191252943Y-52182289D01*
X191256129Y-52185364D01*
X199538181Y-60467417D01*
X199571666Y-60528740D01*
X199574500Y-60555098D01*
X199574500Y-60900001D01*
X199574501Y-60900019D01*
X199585000Y-61002796D01*
X199585001Y-61002799D01*
X199640185Y-61169331D01*
X199640187Y-61169336D01*
X199658784Y-61199486D01*
X199732288Y-61318656D01*
X199856344Y-61442712D01*
X200005666Y-61534814D01*
X200172203Y-61589999D01*
X200274991Y-61600500D01*
X201625008Y-61600499D01*
X201727797Y-61589999D01*
X201894334Y-61534814D01*
X202043656Y-61442712D01*
X202167712Y-61318656D01*
X202259814Y-61169334D01*
X202314999Y-61002797D01*
X202325500Y-60900009D01*
X202325499Y-60099992D01*
X202314999Y-59997203D01*
X202259814Y-59830666D01*
X202167712Y-59681344D01*
X202043656Y-59557288D01*
X201894334Y-59465186D01*
X201727797Y-59410001D01*
X201727795Y-59410000D01*
X201625010Y-59399500D01*
X200274998Y-59399500D01*
X200274980Y-59399501D01*
X200237202Y-59403361D01*
X200168509Y-59390591D01*
X200136920Y-59367684D01*
X196156820Y-55387584D01*
X192105363Y-51336128D01*
X192071879Y-51274806D01*
X192076863Y-51205114D01*
X192078468Y-51201033D01*
X192128606Y-51079993D01*
X192189693Y-50852014D01*
X192220500Y-50618011D01*
X192220500Y-50381989D01*
X192189693Y-50147986D01*
X192128606Y-49920007D01*
X192038284Y-49701951D01*
X192038282Y-49701948D01*
X192038280Y-49701943D01*
X191982510Y-49605348D01*
X191920273Y-49497550D01*
X191845414Y-49399992D01*
X191845407Y-49399983D01*
X193699500Y-49399983D01*
X193699500Y-51600001D01*
X193699501Y-51600018D01*
X193710000Y-51702796D01*
X193710001Y-51702799D01*
X193760962Y-51856587D01*
X193765186Y-51869334D01*
X193857288Y-52018656D01*
X193981344Y-52142712D01*
X194130666Y-52234814D01*
X194297203Y-52289999D01*
X194399991Y-52300500D01*
X196600008Y-52300499D01*
X196702797Y-52289999D01*
X196869334Y-52234814D01*
X197018656Y-52142712D01*
X197142712Y-52018656D01*
X197234814Y-51869334D01*
X197289999Y-51702797D01*
X197300500Y-51600009D01*
X197300499Y-51449094D01*
X197320183Y-51382057D01*
X197372987Y-51336302D01*
X197442145Y-51326358D01*
X197505701Y-51355383D01*
X197512179Y-51361414D01*
X201829818Y-55679054D01*
X206094537Y-59943773D01*
X206128022Y-60005096D01*
X206130214Y-60044056D01*
X206124500Y-60099981D01*
X206124500Y-60900001D01*
X206124501Y-60900019D01*
X206135000Y-61002796D01*
X206135001Y-61002799D01*
X206190185Y-61169331D01*
X206190187Y-61169336D01*
X206208784Y-61199486D01*
X206282288Y-61318656D01*
X206406344Y-61442712D01*
X206555666Y-61534814D01*
X206722203Y-61589999D01*
X206824991Y-61600500D01*
X208175008Y-61600499D01*
X208277797Y-61589999D01*
X208444334Y-61534814D01*
X208593656Y-61442712D01*
X208717712Y-61318656D01*
X208809814Y-61169334D01*
X208864999Y-61002797D01*
X208875500Y-60900009D01*
X208875499Y-60099992D01*
X208864999Y-59997203D01*
X208809814Y-59830666D01*
X208717712Y-59681344D01*
X208593656Y-59557288D01*
X208444334Y-59465186D01*
X208277797Y-59410001D01*
X208277795Y-59410000D01*
X208175016Y-59399500D01*
X208175009Y-59399500D01*
X207300098Y-59399500D01*
X207233059Y-59379815D01*
X207212417Y-59363181D01*
X197987590Y-50138355D01*
X197987588Y-50138352D01*
X197868717Y-50019481D01*
X197868716Y-50019480D01*
X197781904Y-49969360D01*
X197781904Y-49969359D01*
X197781900Y-49969358D01*
X197731785Y-49940423D01*
X197579057Y-49899499D01*
X197424499Y-49899499D01*
X197357460Y-49879814D01*
X197311705Y-49827010D01*
X197300499Y-49775499D01*
X197300499Y-49399998D01*
X197300498Y-49399981D01*
X197289999Y-49297203D01*
X197289998Y-49297200D01*
X197234814Y-49130666D01*
X197142712Y-48981344D01*
X197018656Y-48857288D01*
X196869334Y-48765186D01*
X196702797Y-48710001D01*
X196702795Y-48710000D01*
X196600010Y-48699500D01*
X194399998Y-48699500D01*
X194399981Y-48699501D01*
X194297203Y-48710000D01*
X194297200Y-48710001D01*
X194130668Y-48765185D01*
X194130663Y-48765187D01*
X193981342Y-48857289D01*
X193857289Y-48981342D01*
X193765187Y-49130663D01*
X193765185Y-49130668D01*
X193760962Y-49143412D01*
X193710001Y-49297203D01*
X193710001Y-49297204D01*
X193710000Y-49297204D01*
X193699500Y-49399983D01*
X191845407Y-49399983D01*
X191776593Y-49310302D01*
X191776587Y-49310295D01*
X191609704Y-49143412D01*
X191609697Y-49143406D01*
X191422454Y-48999730D01*
X191422453Y-48999729D01*
X191422450Y-48999727D01*
X191340957Y-48952677D01*
X191218056Y-48881719D01*
X191218045Y-48881714D01*
X190999993Y-48791394D01*
X190772010Y-48730306D01*
X190538020Y-48699501D01*
X190538017Y-48699500D01*
X190538011Y-48699500D01*
X190301989Y-48699500D01*
X190301983Y-48699500D01*
X190301979Y-48699501D01*
X190067989Y-48730306D01*
X189840006Y-48791394D01*
X189621954Y-48881714D01*
X189621943Y-48881719D01*
X189417545Y-48999730D01*
X189230302Y-49143406D01*
X189230295Y-49143412D01*
X189063412Y-49310295D01*
X189063406Y-49310302D01*
X188919730Y-49497545D01*
X188801719Y-49701943D01*
X188801714Y-49701954D01*
X188711394Y-49920006D01*
X188650306Y-50147989D01*
X188619501Y-50381979D01*
X188619500Y-50381995D01*
X187140500Y-50381995D01*
X187140500Y-50381989D01*
X187109693Y-50147986D01*
X187048606Y-49920007D01*
X186958284Y-49701951D01*
X186958282Y-49701948D01*
X186958280Y-49701943D01*
X186916118Y-49628918D01*
X186840273Y-49497550D01*
X186696592Y-49310301D01*
X186696587Y-49310295D01*
X186529704Y-49143412D01*
X186529697Y-49143406D01*
X186342454Y-48999730D01*
X186342453Y-48999729D01*
X186342450Y-48999727D01*
X186260957Y-48952677D01*
X186138056Y-48881719D01*
X186138045Y-48881714D01*
X185919993Y-48791394D01*
X185692010Y-48730306D01*
X185458020Y-48699501D01*
X185458017Y-48699500D01*
X185458011Y-48699500D01*
X185221989Y-48699500D01*
X185221983Y-48699500D01*
X185221979Y-48699501D01*
X184987989Y-48730306D01*
X184760006Y-48791394D01*
X184541954Y-48881714D01*
X184541943Y-48881719D01*
X184337545Y-48999730D01*
X184150302Y-49143406D01*
X184150295Y-49143412D01*
X183983412Y-49310295D01*
X183983406Y-49310302D01*
X183839730Y-49497545D01*
X183721719Y-49701943D01*
X183721714Y-49701954D01*
X183631394Y-49920006D01*
X183570306Y-50147989D01*
X183539501Y-50381979D01*
X183539500Y-50381995D01*
X182060500Y-50381995D01*
X182060500Y-50381989D01*
X182029693Y-50147986D01*
X181968606Y-49920007D01*
X181878284Y-49701951D01*
X181878282Y-49701948D01*
X181878280Y-49701943D01*
X181836118Y-49628918D01*
X181760273Y-49497550D01*
X181616592Y-49310301D01*
X181616587Y-49310295D01*
X181449704Y-49143412D01*
X181449697Y-49143406D01*
X181262454Y-48999730D01*
X181262453Y-48999729D01*
X181262450Y-48999727D01*
X181180957Y-48952677D01*
X181058056Y-48881719D01*
X181058045Y-48881714D01*
X180839993Y-48791394D01*
X180612010Y-48730306D01*
X180378020Y-48699501D01*
X180378017Y-48699500D01*
X180378011Y-48699500D01*
X180141989Y-48699500D01*
X180141983Y-48699500D01*
X180141979Y-48699501D01*
X179907989Y-48730306D01*
X179680006Y-48791394D01*
X179461954Y-48881714D01*
X179461943Y-48881719D01*
X179257545Y-48999730D01*
X179070302Y-49143406D01*
X179070295Y-49143412D01*
X178903412Y-49310295D01*
X178903406Y-49310302D01*
X178759730Y-49497545D01*
X178641719Y-49701943D01*
X178641714Y-49701954D01*
X178551394Y-49920006D01*
X178490306Y-50147989D01*
X178459501Y-50381979D01*
X178459500Y-50381995D01*
X176980500Y-50381995D01*
X176980500Y-50381989D01*
X176949693Y-50147986D01*
X176888606Y-49920007D01*
X176798284Y-49701951D01*
X176798282Y-49701948D01*
X176798280Y-49701943D01*
X176756118Y-49628918D01*
X176680273Y-49497550D01*
X176536592Y-49310301D01*
X176536587Y-49310295D01*
X176369704Y-49143412D01*
X176369697Y-49143406D01*
X176182454Y-48999730D01*
X176182453Y-48999729D01*
X176182450Y-48999727D01*
X176100957Y-48952677D01*
X175978056Y-48881719D01*
X175978045Y-48881714D01*
X175759993Y-48791394D01*
X175532010Y-48730306D01*
X175298020Y-48699501D01*
X175298017Y-48699500D01*
X175298011Y-48699500D01*
X175061989Y-48699500D01*
X175061983Y-48699500D01*
X175061979Y-48699501D01*
X174827989Y-48730306D01*
X174600006Y-48791394D01*
X174381954Y-48881714D01*
X174381943Y-48881719D01*
X174177545Y-48999730D01*
X173990302Y-49143406D01*
X173990295Y-49143412D01*
X173823412Y-49310295D01*
X173823406Y-49310302D01*
X173679730Y-49497545D01*
X173561719Y-49701943D01*
X173561714Y-49701954D01*
X173471394Y-49920006D01*
X173410306Y-50147989D01*
X173379501Y-50381979D01*
X173379500Y-50381995D01*
X171900500Y-50381995D01*
X171900500Y-50381989D01*
X171869693Y-50147986D01*
X171808606Y-49920007D01*
X171718284Y-49701951D01*
X171718282Y-49701948D01*
X171718280Y-49701943D01*
X171676118Y-49628918D01*
X171600273Y-49497550D01*
X171456592Y-49310301D01*
X171456587Y-49310295D01*
X171289704Y-49143412D01*
X171289697Y-49143406D01*
X171102454Y-48999730D01*
X171102453Y-48999729D01*
X171102450Y-48999727D01*
X171020957Y-48952677D01*
X170898056Y-48881719D01*
X170898045Y-48881714D01*
X170679993Y-48791394D01*
X170452010Y-48730306D01*
X170218020Y-48699501D01*
X170218017Y-48699500D01*
X170218011Y-48699500D01*
X169981989Y-48699500D01*
X169981983Y-48699500D01*
X169981979Y-48699501D01*
X169747989Y-48730306D01*
X169520006Y-48791394D01*
X169301954Y-48881714D01*
X169301943Y-48881719D01*
X169097545Y-48999730D01*
X168910302Y-49143406D01*
X168910295Y-49143412D01*
X168743412Y-49310295D01*
X168743406Y-49310302D01*
X168599730Y-49497545D01*
X168481719Y-49701943D01*
X168481714Y-49701954D01*
X168391394Y-49920006D01*
X168330306Y-50147989D01*
X168299501Y-50381979D01*
X168299500Y-50381995D01*
X168299500Y-50618004D01*
X168299501Y-50618020D01*
X168330306Y-50852010D01*
X168391394Y-51079993D01*
X168481714Y-51298045D01*
X168481719Y-51298056D01*
X168518300Y-51361415D01*
X168599727Y-51502450D01*
X168599729Y-51502453D01*
X168599730Y-51502454D01*
X168743406Y-51689697D01*
X168743412Y-51689704D01*
X168910295Y-51856587D01*
X168910302Y-51856593D01*
X168926909Y-51869336D01*
X169097550Y-52000273D01*
X169301951Y-52118284D01*
X169301956Y-52118286D01*
X169301962Y-52118289D01*
X169422952Y-52168404D01*
X169477356Y-52212244D01*
X169499421Y-52278538D01*
X169499500Y-52282965D01*
X169499500Y-55513330D01*
X169499499Y-55513348D01*
X169499499Y-55679054D01*
X169499498Y-55679054D01*
X169505758Y-55702416D01*
X169540423Y-55831785D01*
X169540424Y-55831786D01*
X169555971Y-55858714D01*
X169555971Y-55858717D01*
X169555973Y-55858717D01*
X169619479Y-55968714D01*
X169619481Y-55968717D01*
X169738349Y-56087585D01*
X169738355Y-56087590D01*
X173594537Y-59943772D01*
X173628022Y-60005095D01*
X173630214Y-60044055D01*
X173624500Y-60099981D01*
X173624500Y-60099996D01*
X173624501Y-60843700D01*
X173604817Y-60910739D01*
X173552013Y-60956494D01*
X173500501Y-60967700D01*
X169949500Y-60967700D01*
X169882461Y-60948015D01*
X169836706Y-60895211D01*
X169825500Y-60843700D01*
X169825499Y-60099998D01*
X169825498Y-60099980D01*
X169814999Y-59997203D01*
X169814998Y-59997200D01*
X169797294Y-59943773D01*
X169759814Y-59830666D01*
X169667712Y-59681344D01*
X169543656Y-59557288D01*
X169394334Y-59465186D01*
X169227797Y-59410001D01*
X169227795Y-59410000D01*
X169125016Y-59399500D01*
X169125009Y-59399500D01*
X168250098Y-59399500D01*
X168183059Y-59379815D01*
X168162417Y-59363181D01*
X165656819Y-56857583D01*
X165623334Y-56796260D01*
X165620500Y-56769902D01*
X165620500Y-52282965D01*
X165640185Y-52215926D01*
X165692989Y-52170171D01*
X165697048Y-52168404D01*
X165818037Y-52118289D01*
X165818037Y-52118288D01*
X165818049Y-52118284D01*
X166022450Y-52000273D01*
X166209699Y-51856592D01*
X166376592Y-51689699D01*
X166520273Y-51502450D01*
X166638284Y-51298049D01*
X166728606Y-51079993D01*
X166789693Y-50852014D01*
X166820500Y-50618011D01*
X166820500Y-50381989D01*
X166789693Y-50147986D01*
X166728606Y-49920007D01*
X166638284Y-49701951D01*
X166638282Y-49701948D01*
X166638280Y-49701943D01*
X166596118Y-49628918D01*
X166520273Y-49497550D01*
X166376592Y-49310301D01*
X166376587Y-49310295D01*
X166209704Y-49143412D01*
X166209697Y-49143406D01*
X166022454Y-48999730D01*
X166022453Y-48999729D01*
X166022450Y-48999727D01*
X165940957Y-48952677D01*
X165818056Y-48881719D01*
X165818045Y-48881714D01*
X165599993Y-48791394D01*
X165372010Y-48730306D01*
X165138020Y-48699501D01*
X165138017Y-48699500D01*
X165138011Y-48699500D01*
X164901989Y-48699500D01*
X164901983Y-48699500D01*
X164901979Y-48699501D01*
X164667989Y-48730306D01*
X164440006Y-48791394D01*
X164221954Y-48881714D01*
X164221943Y-48881719D01*
X164017545Y-48999730D01*
X163830302Y-49143406D01*
X163830295Y-49143412D01*
X163663412Y-49310295D01*
X163663406Y-49310302D01*
X163519730Y-49497545D01*
X163401719Y-49701943D01*
X163401714Y-49701954D01*
X163311394Y-49920006D01*
X163250306Y-50147989D01*
X163219501Y-50381979D01*
X163219500Y-50381995D01*
X163219500Y-50618004D01*
X163219501Y-50618020D01*
X163250306Y-50852010D01*
X163311394Y-51079993D01*
X163401714Y-51298045D01*
X163401719Y-51298056D01*
X163438300Y-51361415D01*
X163519727Y-51502450D01*
X163519729Y-51502453D01*
X163519730Y-51502454D01*
X163663406Y-51689697D01*
X163663412Y-51689704D01*
X163830295Y-51856587D01*
X163830302Y-51856593D01*
X163846909Y-51869336D01*
X164017550Y-52000273D01*
X164221951Y-52118284D01*
X164221956Y-52118286D01*
X164221962Y-52118289D01*
X164342952Y-52168404D01*
X164397356Y-52212244D01*
X164419421Y-52278538D01*
X164419500Y-52282965D01*
X164419500Y-56983330D01*
X164419499Y-56983348D01*
X164419499Y-57149054D01*
X164419498Y-57149054D01*
X164460422Y-57301783D01*
X164477001Y-57330498D01*
X164477003Y-57330501D01*
X164539479Y-57438714D01*
X164539481Y-57438717D01*
X164658349Y-57557585D01*
X164658355Y-57557590D01*
X167044537Y-59943772D01*
X167078022Y-60005095D01*
X167080214Y-60044055D01*
X167074500Y-60099981D01*
X167074500Y-60099996D01*
X167074501Y-60843700D01*
X167054817Y-60910739D01*
X167002013Y-60956494D01*
X166950501Y-60967700D01*
X164918469Y-60967700D01*
X164918453Y-60967699D01*
X164910857Y-60967699D01*
X164752743Y-60967699D01*
X164645387Y-60996465D01*
X164600010Y-61008624D01*
X164600009Y-61008625D01*
X164549896Y-61037559D01*
X164549895Y-61037560D01*
X164506489Y-61062620D01*
X164463085Y-61087679D01*
X164463082Y-61087681D01*
X164351278Y-61199486D01*
X162589284Y-62961481D01*
X162527961Y-62994966D01*
X162501603Y-62997800D01*
X161820943Y-62997800D01*
X161668216Y-63038723D01*
X161668209Y-63038726D01*
X161531290Y-63117775D01*
X161531282Y-63117781D01*
X161419481Y-63229582D01*
X161419475Y-63229590D01*
X161340426Y-63366509D01*
X161340421Y-63366520D01*
X161337650Y-63376863D01*
X161301284Y-63436523D01*
X161256196Y-63462697D01*
X161202554Y-63480126D01*
X161048211Y-63558768D01*
X160968256Y-63616859D01*
X160908072Y-63660586D01*
X160908070Y-63660588D01*
X160908069Y-63660588D01*
X160785588Y-63783069D01*
X160785588Y-63783070D01*
X160785586Y-63783072D01*
X160741859Y-63843256D01*
X160683768Y-63923211D01*
X160605128Y-64077552D01*
X160551597Y-64242302D01*
X160524500Y-64413389D01*
X160524500Y-64586611D01*
X160551598Y-64757701D01*
X160605127Y-64922445D01*
X160683768Y-65076788D01*
X160785586Y-65216928D01*
X160908072Y-65339414D01*
X161048212Y-65441232D01*
X161202555Y-65519873D01*
X161367299Y-65573402D01*
X161538389Y-65600500D01*
X161538390Y-65600500D01*
X162261610Y-65600500D01*
X162261611Y-65600500D01*
X162432701Y-65573402D01*
X162597445Y-65519873D01*
X162751788Y-65441232D01*
X162891928Y-65339414D01*
X163014414Y-65216928D01*
X163116232Y-65076788D01*
X163194873Y-64922445D01*
X163248402Y-64757701D01*
X163275500Y-64586611D01*
X163275500Y-64413389D01*
X163248402Y-64242299D01*
X163212665Y-64132315D01*
X163212231Y-64117107D01*
X163206913Y-64102849D01*
X163211254Y-64082891D01*
X163210671Y-64062478D01*
X163218758Y-64048392D01*
X163221764Y-64034575D01*
X163242910Y-64006326D01*
X163242911Y-64006323D01*
X163282220Y-63967016D01*
X163282221Y-63967013D01*
X165044216Y-62205019D01*
X165105539Y-62171534D01*
X165131897Y-62168700D01*
X175326403Y-62168700D01*
X175393442Y-62188385D01*
X175414084Y-62205019D01*
X176067548Y-62858483D01*
X176101033Y-62919806D01*
X176096049Y-62989498D01*
X176054177Y-63045431D01*
X175988713Y-63069848D01*
X175920440Y-63054996D01*
X175917865Y-63053550D01*
X175896440Y-63041180D01*
X175892185Y-63038723D01*
X175739457Y-62997799D01*
X175581343Y-62997799D01*
X175573747Y-62997799D01*
X175573731Y-62997800D01*
X168370943Y-62997800D01*
X168218216Y-63038723D01*
X168218209Y-63038726D01*
X168081290Y-63117775D01*
X168081282Y-63117781D01*
X167969481Y-63229582D01*
X167969475Y-63229590D01*
X167890426Y-63366509D01*
X167890421Y-63366520D01*
X167887650Y-63376863D01*
X167851284Y-63436523D01*
X167806196Y-63462697D01*
X167752554Y-63480126D01*
X167598211Y-63558768D01*
X167518256Y-63616859D01*
X167458072Y-63660586D01*
X167458070Y-63660588D01*
X167458069Y-63660588D01*
X167335588Y-63783069D01*
X167335588Y-63783070D01*
X167335586Y-63783072D01*
X167291859Y-63843256D01*
X167233768Y-63923211D01*
X167155128Y-64077552D01*
X167101597Y-64242302D01*
X167074500Y-64413389D01*
X167074500Y-64586611D01*
X167101598Y-64757701D01*
X167155127Y-64922445D01*
X167233768Y-65076788D01*
X167335586Y-65216928D01*
X167458072Y-65339414D01*
X167598212Y-65441232D01*
X167752555Y-65519873D01*
X167917299Y-65573402D01*
X168088389Y-65600500D01*
X168088390Y-65600500D01*
X168811610Y-65600500D01*
X168811611Y-65600500D01*
X168982701Y-65573402D01*
X169147445Y-65519873D01*
X169301788Y-65441232D01*
X169441928Y-65339414D01*
X169564414Y-65216928D01*
X169666232Y-65076788D01*
X169744873Y-64922445D01*
X169798402Y-64757701D01*
X169825500Y-64586611D01*
X169825500Y-64413389D01*
X169814224Y-64342196D01*
X169823178Y-64272905D01*
X169868174Y-64219453D01*
X169934926Y-64198813D01*
X169936697Y-64198800D01*
X173513303Y-64198800D01*
X173580342Y-64218485D01*
X173626097Y-64271289D01*
X173636041Y-64340447D01*
X173635785Y-64342133D01*
X173624500Y-64413389D01*
X173624500Y-64586611D01*
X173651598Y-64757701D01*
X173705127Y-64922445D01*
X173783768Y-65076788D01*
X173885586Y-65216928D01*
X174008072Y-65339414D01*
X174113177Y-65415777D01*
X174148213Y-65441233D01*
X174225383Y-65480552D01*
X174302555Y-65519873D01*
X174313813Y-65523531D01*
X174371489Y-65562964D01*
X174398691Y-65627322D01*
X174399500Y-65641463D01*
X174399500Y-67079902D01*
X174379815Y-67146941D01*
X174363181Y-67167583D01*
X172955000Y-68575763D01*
X172893677Y-68609248D01*
X172829001Y-68606013D01*
X172807535Y-68599038D01*
X172654402Y-68574784D01*
X172603359Y-68566700D01*
X172396641Y-68566700D01*
X172339420Y-68575763D01*
X172192466Y-68599038D01*
X172192463Y-68599038D01*
X171995870Y-68662915D01*
X171811680Y-68756765D01*
X171644439Y-68878273D01*
X171498273Y-69024439D01*
X171376765Y-69191680D01*
X171340485Y-69262884D01*
X171292510Y-69313680D01*
X171224689Y-69330475D01*
X171158554Y-69307937D01*
X171119515Y-69262884D01*
X171104533Y-69233481D01*
X171083235Y-69191681D01*
X170961729Y-69024442D01*
X170815558Y-68878271D01*
X170648319Y-68756765D01*
X170628202Y-68746515D01*
X170464129Y-68662915D01*
X170267535Y-68599038D01*
X170114402Y-68574784D01*
X170063359Y-68566700D01*
X169856641Y-68566700D01*
X169799420Y-68575763D01*
X169652466Y-68599038D01*
X169652463Y-68599038D01*
X169455870Y-68662915D01*
X169271680Y-68756765D01*
X169104439Y-68878273D01*
X168958273Y-69024439D01*
X168836765Y-69191680D01*
X168800485Y-69262884D01*
X168752510Y-69313680D01*
X168684689Y-69330475D01*
X168618554Y-69307937D01*
X168579515Y-69262884D01*
X168564533Y-69233481D01*
X168543235Y-69191681D01*
X168421729Y-69024442D01*
X168275558Y-68878271D01*
X168108319Y-68756765D01*
X168088202Y-68746515D01*
X167924129Y-68662915D01*
X167727535Y-68599038D01*
X167574402Y-68574784D01*
X167523359Y-68566700D01*
X167316641Y-68566700D01*
X167259420Y-68575763D01*
X167112466Y-68599038D01*
X167112463Y-68599038D01*
X166915870Y-68662915D01*
X166731680Y-68756765D01*
X166564439Y-68878273D01*
X166418273Y-69024439D01*
X166296765Y-69191680D01*
X166260485Y-69262884D01*
X166212510Y-69313680D01*
X166144689Y-69330475D01*
X166078554Y-69307937D01*
X166039515Y-69262884D01*
X166024533Y-69233481D01*
X166003235Y-69191681D01*
X165881729Y-69024442D01*
X165735558Y-68878271D01*
X165568319Y-68756765D01*
X165548202Y-68746515D01*
X165384129Y-68662915D01*
X165187535Y-68599038D01*
X165034402Y-68574784D01*
X164983359Y-68566700D01*
X164776641Y-68566700D01*
X164719420Y-68575763D01*
X164572466Y-68599038D01*
X164572463Y-68599038D01*
X164375870Y-68662915D01*
X164191680Y-68756765D01*
X164024439Y-68878273D01*
X163878273Y-69024439D01*
X163756765Y-69191680D01*
X163720485Y-69262884D01*
X163672510Y-69313680D01*
X163604689Y-69330475D01*
X163538554Y-69307937D01*
X163499515Y-69262884D01*
X163484533Y-69233481D01*
X163463235Y-69191681D01*
X163341729Y-69024442D01*
X163195558Y-68878271D01*
X163028319Y-68756765D01*
X163008202Y-68746515D01*
X162844129Y-68662915D01*
X162647535Y-68599038D01*
X162494402Y-68574784D01*
X162443359Y-68566700D01*
X162236641Y-68566700D01*
X162179420Y-68575763D01*
X162032466Y-68599038D01*
X162032463Y-68599038D01*
X161835870Y-68662915D01*
X161651680Y-68756765D01*
X161484439Y-68878273D01*
X161338273Y-69024439D01*
X161216765Y-69191680D01*
X161180485Y-69262884D01*
X161132510Y-69313680D01*
X161064689Y-69330475D01*
X160998554Y-69307937D01*
X160959515Y-69262884D01*
X160944533Y-69233481D01*
X160923235Y-69191681D01*
X160801729Y-69024442D01*
X160655558Y-68878271D01*
X160488319Y-68756765D01*
X160468202Y-68746515D01*
X160304129Y-68662915D01*
X160107535Y-68599038D01*
X159954402Y-68574784D01*
X159903359Y-68566700D01*
X159696641Y-68566700D01*
X159639420Y-68575763D01*
X159492466Y-68599038D01*
X159492463Y-68599038D01*
X159295870Y-68662915D01*
X159111680Y-68756765D01*
X158944439Y-68878273D01*
X158798273Y-69024439D01*
X158676765Y-69191680D01*
X158582915Y-69375870D01*
X158519038Y-69572463D01*
X158519038Y-69572466D01*
X158486700Y-69776641D01*
X154393300Y-69776641D01*
X154360962Y-69572468D01*
X154360961Y-69572464D01*
X154360961Y-69572463D01*
X154297084Y-69375870D01*
X154273954Y-69330475D01*
X154203235Y-69191681D01*
X154081729Y-69024442D01*
X153935558Y-68878271D01*
X153768319Y-68756765D01*
X153748202Y-68746515D01*
X153584129Y-68662915D01*
X153387535Y-68599038D01*
X153234402Y-68574784D01*
X153183359Y-68566700D01*
X152976641Y-68566700D01*
X152919420Y-68575763D01*
X152772466Y-68599038D01*
X152772463Y-68599038D01*
X152575870Y-68662915D01*
X152391680Y-68756765D01*
X152224439Y-68878273D01*
X152078273Y-69024439D01*
X151956765Y-69191680D01*
X151920485Y-69262884D01*
X151872510Y-69313680D01*
X151804689Y-69330475D01*
X151738554Y-69307937D01*
X151699515Y-69262884D01*
X151684533Y-69233481D01*
X151663235Y-69191681D01*
X151541729Y-69024442D01*
X151395558Y-68878271D01*
X151228319Y-68756765D01*
X151208202Y-68746515D01*
X151044129Y-68662915D01*
X150847535Y-68599038D01*
X150694402Y-68574784D01*
X150643359Y-68566700D01*
X150436641Y-68566700D01*
X150395806Y-68573167D01*
X150232464Y-68599038D01*
X150232463Y-68599038D01*
X150210993Y-68606014D01*
X150141152Y-68608007D01*
X150084998Y-68575763D01*
X145922624Y-64413389D01*
X147574500Y-64413389D01*
X147574500Y-64586611D01*
X147601598Y-64757701D01*
X147655127Y-64922445D01*
X147733768Y-65076788D01*
X147835586Y-65216928D01*
X147958072Y-65339414D01*
X148098212Y-65441232D01*
X148252555Y-65519873D01*
X148417299Y-65573402D01*
X148588389Y-65600500D01*
X148588390Y-65600500D01*
X149311610Y-65600500D01*
X149311611Y-65600500D01*
X149482701Y-65573402D01*
X149647445Y-65519873D01*
X149801788Y-65441232D01*
X149941928Y-65339414D01*
X150064414Y-65216928D01*
X150166232Y-65076788D01*
X150244873Y-64922445D01*
X150298402Y-64757701D01*
X150325500Y-64586611D01*
X150325500Y-64413389D01*
X154124500Y-64413389D01*
X154124500Y-64586611D01*
X154151598Y-64757701D01*
X154205127Y-64922445D01*
X154283768Y-65076788D01*
X154385586Y-65216928D01*
X154508072Y-65339414D01*
X154648212Y-65441232D01*
X154802555Y-65519873D01*
X154967299Y-65573402D01*
X155138389Y-65600500D01*
X155138390Y-65600500D01*
X155861610Y-65600500D01*
X155861611Y-65600500D01*
X156032701Y-65573402D01*
X156197445Y-65519873D01*
X156351788Y-65441232D01*
X156491928Y-65339414D01*
X156614414Y-65216928D01*
X156716232Y-65076788D01*
X156794873Y-64922445D01*
X156848402Y-64757701D01*
X156875500Y-64586611D01*
X156875500Y-64413389D01*
X156848402Y-64242299D01*
X156794873Y-64077555D01*
X156716232Y-63923212D01*
X156614414Y-63783072D01*
X156491928Y-63660586D01*
X156351788Y-63558768D01*
X156197445Y-63480127D01*
X156032701Y-63426598D01*
X156032699Y-63426597D01*
X156032698Y-63426597D01*
X155901271Y-63405781D01*
X155861611Y-63399500D01*
X155138389Y-63399500D01*
X155098728Y-63405781D01*
X154967302Y-63426597D01*
X154802552Y-63480128D01*
X154648211Y-63558768D01*
X154568256Y-63616859D01*
X154508072Y-63660586D01*
X154508070Y-63660588D01*
X154508069Y-63660588D01*
X154385588Y-63783069D01*
X154385588Y-63783070D01*
X154385586Y-63783072D01*
X154341859Y-63843256D01*
X154283768Y-63923211D01*
X154205128Y-64077552D01*
X154151597Y-64242302D01*
X154124500Y-64413389D01*
X150325500Y-64413389D01*
X150298402Y-64242299D01*
X150244873Y-64077555D01*
X150166232Y-63923212D01*
X150064414Y-63783072D01*
X149941928Y-63660586D01*
X149801788Y-63558768D01*
X149647445Y-63480127D01*
X149482701Y-63426598D01*
X149482699Y-63426597D01*
X149482698Y-63426597D01*
X149351271Y-63405781D01*
X149311611Y-63399500D01*
X148588389Y-63399500D01*
X148548728Y-63405781D01*
X148417302Y-63426597D01*
X148252552Y-63480128D01*
X148098211Y-63558768D01*
X148018256Y-63616859D01*
X147958072Y-63660586D01*
X147958070Y-63660588D01*
X147958069Y-63660588D01*
X147835588Y-63783069D01*
X147835588Y-63783070D01*
X147835586Y-63783072D01*
X147791859Y-63843256D01*
X147733768Y-63923211D01*
X147655128Y-64077552D01*
X147601597Y-64242302D01*
X147574500Y-64413389D01*
X145922624Y-64413389D01*
X144745890Y-63236655D01*
X144745888Y-63236652D01*
X144627017Y-63117781D01*
X144627016Y-63117780D01*
X144540204Y-63067660D01*
X144540204Y-63067659D01*
X144540200Y-63067658D01*
X144490085Y-63038723D01*
X144337357Y-62997799D01*
X144179243Y-62997799D01*
X144171647Y-62997799D01*
X144171631Y-62997800D01*
X116370943Y-62997800D01*
X116218216Y-63038723D01*
X116218209Y-63038726D01*
X116081290Y-63117775D01*
X116081282Y-63117781D01*
X115969481Y-63229582D01*
X115969475Y-63229590D01*
X115890426Y-63366509D01*
X115890421Y-63366520D01*
X115887650Y-63376863D01*
X115851284Y-63436523D01*
X115806196Y-63462697D01*
X115752554Y-63480126D01*
X115598211Y-63558768D01*
X115518256Y-63616859D01*
X115458072Y-63660586D01*
X115458070Y-63660588D01*
X115458069Y-63660588D01*
X115335588Y-63783069D01*
X115335588Y-63783070D01*
X115335586Y-63783072D01*
X115291859Y-63843256D01*
X115233768Y-63923211D01*
X115155128Y-64077552D01*
X115101597Y-64242302D01*
X115074500Y-64413389D01*
X111275500Y-64413389D01*
X111248402Y-64242299D01*
X111194873Y-64077555D01*
X111116232Y-63923212D01*
X111014414Y-63783072D01*
X110891928Y-63660586D01*
X110751788Y-63558768D01*
X110597445Y-63480127D01*
X110432701Y-63426598D01*
X110432699Y-63426597D01*
X110432698Y-63426597D01*
X110301271Y-63405781D01*
X110261611Y-63399500D01*
X109538389Y-63399500D01*
X109498728Y-63405781D01*
X109367302Y-63426597D01*
X109202552Y-63480128D01*
X109048211Y-63558768D01*
X108968256Y-63616859D01*
X108908072Y-63660586D01*
X108908070Y-63660588D01*
X108908069Y-63660588D01*
X108785588Y-63783069D01*
X108785588Y-63783070D01*
X108785586Y-63783072D01*
X108741859Y-63843256D01*
X108683768Y-63923211D01*
X108605128Y-64077552D01*
X108551597Y-64242302D01*
X108524500Y-64413389D01*
X103500500Y-64413389D01*
X103500500Y-60099983D01*
X108524500Y-60099983D01*
X108524500Y-60900001D01*
X108524501Y-60900019D01*
X108535000Y-61002796D01*
X108535001Y-61002799D01*
X108590185Y-61169331D01*
X108590187Y-61169336D01*
X108608784Y-61199486D01*
X108682288Y-61318656D01*
X108806344Y-61442712D01*
X108955666Y-61534814D01*
X109122203Y-61589999D01*
X109224991Y-61600500D01*
X110575008Y-61600499D01*
X110677797Y-61589999D01*
X110844334Y-61534814D01*
X110993656Y-61442712D01*
X111117712Y-61318656D01*
X111209814Y-61169334D01*
X111264999Y-61002797D01*
X111275500Y-60900009D01*
X111275499Y-60099992D01*
X111275498Y-60099983D01*
X115074500Y-60099983D01*
X115074500Y-60900001D01*
X115074501Y-60900019D01*
X115085000Y-61002796D01*
X115085001Y-61002799D01*
X115140185Y-61169331D01*
X115140187Y-61169336D01*
X115158784Y-61199486D01*
X115232288Y-61318656D01*
X115356344Y-61442712D01*
X115505666Y-61534814D01*
X115672203Y-61589999D01*
X115774991Y-61600500D01*
X117125008Y-61600499D01*
X117227797Y-61589999D01*
X117394334Y-61534814D01*
X117543656Y-61442712D01*
X117667712Y-61318656D01*
X117759814Y-61169334D01*
X117814999Y-61002797D01*
X117825500Y-60900009D01*
X117825499Y-60099992D01*
X117825498Y-60099983D01*
X121624500Y-60099983D01*
X121624500Y-60900001D01*
X121624501Y-60900019D01*
X121635000Y-61002796D01*
X121635001Y-61002799D01*
X121690185Y-61169331D01*
X121690187Y-61169336D01*
X121708784Y-61199486D01*
X121782288Y-61318656D01*
X121906344Y-61442712D01*
X122055666Y-61534814D01*
X122222203Y-61589999D01*
X122324991Y-61600500D01*
X123675008Y-61600499D01*
X123777797Y-61589999D01*
X123944334Y-61534814D01*
X124093656Y-61442712D01*
X124217712Y-61318656D01*
X124309814Y-61169334D01*
X124364999Y-61002797D01*
X124375500Y-60900009D01*
X124375499Y-60099992D01*
X124369785Y-60044053D01*
X124382555Y-59975360D01*
X124405461Y-59943773D01*
X128737821Y-55611413D01*
X128799142Y-55577930D01*
X128868834Y-55582914D01*
X128924767Y-55624786D01*
X128949184Y-55690250D01*
X128949500Y-55699096D01*
X128949500Y-59279911D01*
X128929815Y-59346950D01*
X128877011Y-59392705D01*
X128838102Y-59403269D01*
X128772202Y-59410001D01*
X128772200Y-59410001D01*
X128605668Y-59465185D01*
X128605663Y-59465187D01*
X128456342Y-59557289D01*
X128332289Y-59681342D01*
X128240187Y-59830663D01*
X128240186Y-59830666D01*
X128185001Y-59997203D01*
X128185001Y-59997204D01*
X128185000Y-59997204D01*
X128174500Y-60099983D01*
X128174500Y-60900001D01*
X128174501Y-60900019D01*
X128185000Y-61002796D01*
X128185001Y-61002799D01*
X128240185Y-61169331D01*
X128240187Y-61169336D01*
X128258784Y-61199486D01*
X128332288Y-61318656D01*
X128456344Y-61442712D01*
X128605666Y-61534814D01*
X128772203Y-61589999D01*
X128874991Y-61600500D01*
X130225008Y-61600499D01*
X130327797Y-61589999D01*
X130494334Y-61534814D01*
X130643656Y-61442712D01*
X130767712Y-61318656D01*
X130859814Y-61169334D01*
X130914999Y-61002797D01*
X130925500Y-60900009D01*
X130925499Y-60099992D01*
X130925498Y-60099983D01*
X134474500Y-60099983D01*
X134474500Y-60900001D01*
X134474501Y-60900019D01*
X134485000Y-61002796D01*
X134485001Y-61002799D01*
X134540185Y-61169331D01*
X134540187Y-61169336D01*
X134558784Y-61199486D01*
X134632288Y-61318656D01*
X134756344Y-61442712D01*
X134905666Y-61534814D01*
X135072203Y-61589999D01*
X135174991Y-61600500D01*
X136525008Y-61600499D01*
X136627797Y-61589999D01*
X136794334Y-61534814D01*
X136943656Y-61442712D01*
X137067712Y-61318656D01*
X137159814Y-61169334D01*
X137214999Y-61002797D01*
X137225500Y-60900009D01*
X137225499Y-60099992D01*
X137225498Y-60099983D01*
X141024500Y-60099983D01*
X141024500Y-60900001D01*
X141024501Y-60900019D01*
X141035000Y-61002796D01*
X141035001Y-61002799D01*
X141090185Y-61169331D01*
X141090187Y-61169336D01*
X141108784Y-61199486D01*
X141182288Y-61318656D01*
X141306344Y-61442712D01*
X141455666Y-61534814D01*
X141622203Y-61589999D01*
X141724991Y-61600500D01*
X143075008Y-61600499D01*
X143177797Y-61589999D01*
X143344334Y-61534814D01*
X143493656Y-61442712D01*
X143617712Y-61318656D01*
X143709814Y-61169334D01*
X143764999Y-61002797D01*
X143775500Y-60900009D01*
X143775499Y-60099992D01*
X143775498Y-60099983D01*
X147574500Y-60099983D01*
X147574500Y-60900001D01*
X147574501Y-60900019D01*
X147585000Y-61002796D01*
X147585001Y-61002799D01*
X147640185Y-61169331D01*
X147640187Y-61169336D01*
X147658784Y-61199486D01*
X147732288Y-61318656D01*
X147856344Y-61442712D01*
X148005666Y-61534814D01*
X148172203Y-61589999D01*
X148274991Y-61600500D01*
X149625008Y-61600499D01*
X149727797Y-61589999D01*
X149894334Y-61534814D01*
X150043656Y-61442712D01*
X150167712Y-61318656D01*
X150259814Y-61169334D01*
X150314999Y-61002797D01*
X150325500Y-60900009D01*
X150325499Y-60099992D01*
X150314999Y-59997203D01*
X150314486Y-59992180D01*
X150327256Y-59923487D01*
X150330446Y-59917599D01*
X150339577Y-59901785D01*
X150380500Y-59749058D01*
X150380500Y-59590943D01*
X150380500Y-52282965D01*
X150400185Y-52215926D01*
X150452989Y-52170171D01*
X150457048Y-52168404D01*
X150578037Y-52118289D01*
X150578037Y-52118288D01*
X150578049Y-52118284D01*
X150782450Y-52000273D01*
X150969699Y-51856592D01*
X151136592Y-51689699D01*
X151280273Y-51502450D01*
X151398284Y-51298049D01*
X151488606Y-51079993D01*
X151549693Y-50852014D01*
X151580500Y-50618011D01*
X151580500Y-50381995D01*
X153059500Y-50381995D01*
X153059500Y-50618004D01*
X153059501Y-50618020D01*
X153090306Y-50852010D01*
X153151394Y-51079993D01*
X153241714Y-51298045D01*
X153241719Y-51298056D01*
X153278300Y-51361415D01*
X153359727Y-51502450D01*
X153359729Y-51502453D01*
X153359730Y-51502454D01*
X153503406Y-51689697D01*
X153503412Y-51689704D01*
X153670295Y-51856587D01*
X153670302Y-51856593D01*
X153686909Y-51869336D01*
X153857550Y-52000273D01*
X154061951Y-52118284D01*
X154061956Y-52118286D01*
X154061962Y-52118289D01*
X154182952Y-52168404D01*
X154237356Y-52212244D01*
X154259421Y-52278538D01*
X154259500Y-52282965D01*
X154259500Y-59683123D01*
X154241039Y-59748219D01*
X154190189Y-59830659D01*
X154190186Y-59830666D01*
X154135001Y-59997203D01*
X154135001Y-59997204D01*
X154135000Y-59997204D01*
X154124500Y-60099983D01*
X154124500Y-60900001D01*
X154124501Y-60900019D01*
X154135000Y-61002796D01*
X154135001Y-61002799D01*
X154190185Y-61169331D01*
X154190187Y-61169336D01*
X154208784Y-61199486D01*
X154282288Y-61318656D01*
X154406344Y-61442712D01*
X154555666Y-61534814D01*
X154722203Y-61589999D01*
X154824991Y-61600500D01*
X156175008Y-61600499D01*
X156277797Y-61589999D01*
X156444334Y-61534814D01*
X156593656Y-61442712D01*
X156717712Y-61318656D01*
X156809814Y-61169334D01*
X156864999Y-61002797D01*
X156875500Y-60900009D01*
X156875499Y-60099992D01*
X156864999Y-59997203D01*
X156809814Y-59830666D01*
X156717712Y-59681344D01*
X156593656Y-59557288D01*
X156444334Y-59465186D01*
X156277797Y-59410001D01*
X156277795Y-59410000D01*
X156175016Y-59399500D01*
X156175009Y-59399500D01*
X155584500Y-59399500D01*
X155517461Y-59379815D01*
X155471706Y-59327011D01*
X155460500Y-59275500D01*
X155460500Y-52282965D01*
X155480185Y-52215926D01*
X155532989Y-52170171D01*
X155537048Y-52168404D01*
X155658037Y-52118289D01*
X155658037Y-52118288D01*
X155658049Y-52118284D01*
X155862450Y-52000273D01*
X156049699Y-51856592D01*
X156216592Y-51689699D01*
X156360273Y-51502450D01*
X156478284Y-51298049D01*
X156568606Y-51079993D01*
X156629693Y-50852014D01*
X156660500Y-50618011D01*
X156660500Y-50381995D01*
X158139500Y-50381995D01*
X158139500Y-50618004D01*
X158139501Y-50618020D01*
X158170306Y-50852010D01*
X158231394Y-51079993D01*
X158321714Y-51298045D01*
X158321719Y-51298056D01*
X158358300Y-51361415D01*
X158439727Y-51502450D01*
X158439729Y-51502453D01*
X158439730Y-51502454D01*
X158583406Y-51689697D01*
X158583412Y-51689704D01*
X158750295Y-51856587D01*
X158750302Y-51856593D01*
X158766909Y-51869336D01*
X158937550Y-52000273D01*
X159141951Y-52118284D01*
X159141956Y-52118286D01*
X159141962Y-52118289D01*
X159262952Y-52168404D01*
X159317356Y-52212244D01*
X159339421Y-52278538D01*
X159339500Y-52282965D01*
X159339500Y-58453330D01*
X159339499Y-58453348D01*
X159339499Y-58619054D01*
X159339498Y-58619054D01*
X159339499Y-58619057D01*
X159380423Y-58771785D01*
X159380424Y-58771786D01*
X159395971Y-58798714D01*
X159395971Y-58798717D01*
X159395973Y-58798717D01*
X159459479Y-58908714D01*
X159459481Y-58908717D01*
X159578349Y-59027585D01*
X159578355Y-59027590D01*
X160494537Y-59943772D01*
X160528022Y-60005095D01*
X160530214Y-60044055D01*
X160524500Y-60099981D01*
X160524500Y-60900001D01*
X160524501Y-60900019D01*
X160535000Y-61002796D01*
X160535001Y-61002799D01*
X160590185Y-61169331D01*
X160590187Y-61169336D01*
X160608784Y-61199486D01*
X160682288Y-61318656D01*
X160806344Y-61442712D01*
X160955666Y-61534814D01*
X161122203Y-61589999D01*
X161224991Y-61600500D01*
X162575008Y-61600499D01*
X162677797Y-61589999D01*
X162844334Y-61534814D01*
X162993656Y-61442712D01*
X163117712Y-61318656D01*
X163209814Y-61169334D01*
X163264999Y-61002797D01*
X163275500Y-60900009D01*
X163275499Y-60099992D01*
X163264999Y-59997203D01*
X163209814Y-59830666D01*
X163117712Y-59681344D01*
X162993656Y-59557288D01*
X162844334Y-59465186D01*
X162677797Y-59410001D01*
X162677795Y-59410000D01*
X162575016Y-59399500D01*
X162575009Y-59399500D01*
X161700098Y-59399500D01*
X161633059Y-59379815D01*
X161612417Y-59363181D01*
X160576819Y-58327583D01*
X160543334Y-58266260D01*
X160540500Y-58239902D01*
X160540500Y-52282965D01*
X160560185Y-52215926D01*
X160612989Y-52170171D01*
X160617048Y-52168404D01*
X160738037Y-52118289D01*
X160738037Y-52118288D01*
X160738049Y-52118284D01*
X160942450Y-52000273D01*
X161129699Y-51856592D01*
X161296592Y-51689699D01*
X161440273Y-51502450D01*
X161558284Y-51298049D01*
X161648606Y-51079993D01*
X161709693Y-50852014D01*
X161740500Y-50618011D01*
X161740500Y-50381989D01*
X161709693Y-50147986D01*
X161648606Y-49920007D01*
X161558284Y-49701951D01*
X161558282Y-49701948D01*
X161558280Y-49701943D01*
X161516118Y-49628918D01*
X161440273Y-49497550D01*
X161296592Y-49310301D01*
X161296587Y-49310295D01*
X161129704Y-49143412D01*
X161129697Y-49143406D01*
X160942454Y-48999730D01*
X160942453Y-48999729D01*
X160942450Y-48999727D01*
X160860957Y-48952677D01*
X160738056Y-48881719D01*
X160738045Y-48881714D01*
X160519993Y-48791394D01*
X160292010Y-48730306D01*
X160058020Y-48699501D01*
X160058017Y-48699500D01*
X160058011Y-48699500D01*
X159821989Y-48699500D01*
X159821983Y-48699500D01*
X159821979Y-48699501D01*
X159587989Y-48730306D01*
X159360006Y-48791394D01*
X159141954Y-48881714D01*
X159141943Y-48881719D01*
X158937545Y-48999730D01*
X158750302Y-49143406D01*
X158750295Y-49143412D01*
X158583412Y-49310295D01*
X158583406Y-49310302D01*
X158439730Y-49497545D01*
X158321719Y-49701943D01*
X158321714Y-49701954D01*
X158231394Y-49920006D01*
X158170306Y-50147989D01*
X158139501Y-50381979D01*
X158139500Y-50381995D01*
X156660500Y-50381995D01*
X156660500Y-50381989D01*
X156629693Y-50147986D01*
X156568606Y-49920007D01*
X156478284Y-49701951D01*
X156478282Y-49701948D01*
X156478280Y-49701943D01*
X156436118Y-49628918D01*
X156360273Y-49497550D01*
X156216592Y-49310301D01*
X156216587Y-49310295D01*
X156049704Y-49143412D01*
X156049697Y-49143406D01*
X155862454Y-48999730D01*
X155862453Y-48999729D01*
X155862450Y-48999727D01*
X155780957Y-48952677D01*
X155658056Y-48881719D01*
X155658045Y-48881714D01*
X155439993Y-48791394D01*
X155212010Y-48730306D01*
X154978020Y-48699501D01*
X154978017Y-48699500D01*
X154978011Y-48699500D01*
X154741989Y-48699500D01*
X154741983Y-48699500D01*
X154741979Y-48699501D01*
X154507989Y-48730306D01*
X154280006Y-48791394D01*
X154061954Y-48881714D01*
X154061943Y-48881719D01*
X153857545Y-48999730D01*
X153670302Y-49143406D01*
X153670295Y-49143412D01*
X153503412Y-49310295D01*
X153503406Y-49310302D01*
X153359730Y-49497545D01*
X153241719Y-49701943D01*
X153241714Y-49701954D01*
X153151394Y-49920006D01*
X153090306Y-50147989D01*
X153059501Y-50381979D01*
X153059500Y-50381995D01*
X151580500Y-50381995D01*
X151580500Y-50381989D01*
X151549693Y-50147986D01*
X151488606Y-49920007D01*
X151398284Y-49701951D01*
X151398282Y-49701948D01*
X151398280Y-49701943D01*
X151356118Y-49628918D01*
X151280273Y-49497550D01*
X151136592Y-49310301D01*
X151136587Y-49310295D01*
X150969704Y-49143412D01*
X150969697Y-49143406D01*
X150782454Y-48999730D01*
X150782453Y-48999729D01*
X150782450Y-48999727D01*
X150700957Y-48952677D01*
X150578056Y-48881719D01*
X150578045Y-48881714D01*
X150359993Y-48791394D01*
X150132010Y-48730306D01*
X149898020Y-48699501D01*
X149898017Y-48699500D01*
X149898011Y-48699500D01*
X149661989Y-48699500D01*
X149661983Y-48699500D01*
X149661979Y-48699501D01*
X149427989Y-48730306D01*
X149200006Y-48791394D01*
X148981954Y-48881714D01*
X148981943Y-48881719D01*
X148777545Y-48999730D01*
X148590302Y-49143406D01*
X148590295Y-49143412D01*
X148423412Y-49310295D01*
X148423406Y-49310302D01*
X148279730Y-49497545D01*
X148161719Y-49701943D01*
X148161714Y-49701954D01*
X148071394Y-49920006D01*
X148010306Y-50147989D01*
X147979501Y-50381979D01*
X147979500Y-50381995D01*
X147979500Y-50618004D01*
X147979501Y-50618020D01*
X148010306Y-50852010D01*
X148071394Y-51079993D01*
X148161714Y-51298045D01*
X148161719Y-51298056D01*
X148198300Y-51361415D01*
X148279727Y-51502450D01*
X148279729Y-51502453D01*
X148279730Y-51502454D01*
X148423406Y-51689697D01*
X148423412Y-51689704D01*
X148590295Y-51856587D01*
X148590302Y-51856593D01*
X148606909Y-51869336D01*
X148777550Y-52000273D01*
X148981951Y-52118284D01*
X148981956Y-52118286D01*
X148981962Y-52118289D01*
X149102952Y-52168404D01*
X149157356Y-52212244D01*
X149179421Y-52278538D01*
X149179500Y-52282965D01*
X149179500Y-59275500D01*
X149159815Y-59342539D01*
X149107011Y-59388294D01*
X149055500Y-59399500D01*
X148274998Y-59399500D01*
X148274980Y-59399501D01*
X148172203Y-59410000D01*
X148172200Y-59410001D01*
X148005668Y-59465185D01*
X148005663Y-59465187D01*
X147856342Y-59557289D01*
X147732289Y-59681342D01*
X147640187Y-59830663D01*
X147640186Y-59830666D01*
X147585001Y-59997203D01*
X147585001Y-59997204D01*
X147585000Y-59997204D01*
X147574500Y-60099983D01*
X143775498Y-60099983D01*
X143769785Y-60044053D01*
X143782555Y-59975360D01*
X143805461Y-59943773D01*
X145058506Y-58690728D01*
X145058511Y-58690724D01*
X145068714Y-58680520D01*
X145068716Y-58680520D01*
X145180520Y-58568716D01*
X145244028Y-58458716D01*
X145259577Y-58431785D01*
X145300500Y-58279058D01*
X145300500Y-58120943D01*
X145300500Y-52282965D01*
X145320185Y-52215926D01*
X145372989Y-52170171D01*
X145377048Y-52168404D01*
X145498037Y-52118289D01*
X145498037Y-52118288D01*
X145498049Y-52118284D01*
X145702450Y-52000273D01*
X145889699Y-51856592D01*
X146056592Y-51689699D01*
X146200273Y-51502450D01*
X146318284Y-51298049D01*
X146408606Y-51079993D01*
X146469693Y-50852014D01*
X146500500Y-50618011D01*
X146500500Y-50381989D01*
X146469693Y-50147986D01*
X146408606Y-49920007D01*
X146318284Y-49701951D01*
X146318282Y-49701948D01*
X146318280Y-49701943D01*
X146276118Y-49628918D01*
X146200273Y-49497550D01*
X146056592Y-49310301D01*
X146056587Y-49310295D01*
X145889704Y-49143412D01*
X145889697Y-49143406D01*
X145702454Y-48999730D01*
X145702453Y-48999729D01*
X145702450Y-48999727D01*
X145620957Y-48952677D01*
X145498056Y-48881719D01*
X145498045Y-48881714D01*
X145279993Y-48791394D01*
X145052010Y-48730306D01*
X144818020Y-48699501D01*
X144818017Y-48699500D01*
X144818011Y-48699500D01*
X144581989Y-48699500D01*
X144581983Y-48699500D01*
X144581979Y-48699501D01*
X144347989Y-48730306D01*
X144120006Y-48791394D01*
X143901954Y-48881714D01*
X143901943Y-48881719D01*
X143697545Y-48999730D01*
X143510302Y-49143406D01*
X143510295Y-49143412D01*
X143343412Y-49310295D01*
X143343406Y-49310302D01*
X143199730Y-49497545D01*
X143081719Y-49701943D01*
X143081714Y-49701954D01*
X142991394Y-49920006D01*
X142930306Y-50147989D01*
X142899501Y-50381979D01*
X142899500Y-50381995D01*
X142899500Y-50618004D01*
X142899501Y-50618020D01*
X142930306Y-50852010D01*
X142991394Y-51079993D01*
X143081714Y-51298045D01*
X143081719Y-51298056D01*
X143118300Y-51361415D01*
X143199727Y-51502450D01*
X143199729Y-51502453D01*
X143199730Y-51502454D01*
X143343406Y-51689697D01*
X143343412Y-51689704D01*
X143510295Y-51856587D01*
X143510302Y-51856593D01*
X143526909Y-51869336D01*
X143697550Y-52000273D01*
X143901951Y-52118284D01*
X143901956Y-52118286D01*
X143901962Y-52118289D01*
X144022952Y-52168404D01*
X144077356Y-52212244D01*
X144099421Y-52278538D01*
X144099500Y-52282965D01*
X144099500Y-57899902D01*
X144079815Y-57966941D01*
X144063181Y-57987583D01*
X142687582Y-59363181D01*
X142626259Y-59396666D01*
X142599901Y-59399500D01*
X141724998Y-59399500D01*
X141724980Y-59399501D01*
X141622203Y-59410000D01*
X141622200Y-59410001D01*
X141455668Y-59465185D01*
X141455663Y-59465187D01*
X141306342Y-59557289D01*
X141182289Y-59681342D01*
X141090187Y-59830663D01*
X141090186Y-59830666D01*
X141035001Y-59997203D01*
X141035001Y-59997204D01*
X141035000Y-59997204D01*
X141024500Y-60099983D01*
X137225498Y-60099983D01*
X137219785Y-60044053D01*
X137232555Y-59975360D01*
X137255461Y-59943773D01*
X139978506Y-57220728D01*
X139978511Y-57220724D01*
X139988714Y-57210520D01*
X139988716Y-57210520D01*
X140100520Y-57098716D01*
X140162742Y-56990943D01*
X140162745Y-56990939D01*
X140168353Y-56981223D01*
X140179577Y-56961785D01*
X140220500Y-56809057D01*
X140220500Y-56650943D01*
X140220500Y-52282965D01*
X140240185Y-52215926D01*
X140292989Y-52170171D01*
X140297048Y-52168404D01*
X140418037Y-52118289D01*
X140418037Y-52118288D01*
X140418049Y-52118284D01*
X140622450Y-52000273D01*
X140809699Y-51856592D01*
X140976592Y-51689699D01*
X141120273Y-51502450D01*
X141238284Y-51298049D01*
X141328606Y-51079993D01*
X141389693Y-50852014D01*
X141420500Y-50618011D01*
X141420500Y-50381989D01*
X141389693Y-50147986D01*
X141328606Y-49920007D01*
X141238284Y-49701951D01*
X141238282Y-49701948D01*
X141238280Y-49701943D01*
X141196118Y-49628918D01*
X141120273Y-49497550D01*
X140976592Y-49310301D01*
X140976587Y-49310295D01*
X140809704Y-49143412D01*
X140809697Y-49143406D01*
X140622454Y-48999730D01*
X140622453Y-48999729D01*
X140622450Y-48999727D01*
X140540957Y-48952677D01*
X140418056Y-48881719D01*
X140418045Y-48881714D01*
X140199993Y-48791394D01*
X139972010Y-48730306D01*
X139738020Y-48699501D01*
X139738017Y-48699500D01*
X139738011Y-48699500D01*
X139501989Y-48699500D01*
X139501983Y-48699500D01*
X139501979Y-48699501D01*
X139267989Y-48730306D01*
X139040006Y-48791394D01*
X138821954Y-48881714D01*
X138821943Y-48881719D01*
X138617545Y-48999730D01*
X138430302Y-49143406D01*
X138430295Y-49143412D01*
X138263412Y-49310295D01*
X138263406Y-49310302D01*
X138119730Y-49497545D01*
X138001719Y-49701943D01*
X138001714Y-49701954D01*
X137911394Y-49920006D01*
X137850306Y-50147989D01*
X137819501Y-50381979D01*
X137819500Y-50381995D01*
X137819500Y-50618004D01*
X137819501Y-50618020D01*
X137850306Y-50852010D01*
X137911394Y-51079993D01*
X138001714Y-51298045D01*
X138001719Y-51298056D01*
X138038300Y-51361415D01*
X138119727Y-51502450D01*
X138119729Y-51502453D01*
X138119730Y-51502454D01*
X138263406Y-51689697D01*
X138263412Y-51689704D01*
X138430295Y-51856587D01*
X138430302Y-51856593D01*
X138446909Y-51869336D01*
X138617550Y-52000273D01*
X138821951Y-52118284D01*
X138821956Y-52118286D01*
X138821962Y-52118289D01*
X138942952Y-52168404D01*
X138997356Y-52212244D01*
X139019421Y-52278538D01*
X139019500Y-52282965D01*
X139019500Y-56429902D01*
X138999815Y-56496941D01*
X138983181Y-56517583D01*
X136137582Y-59363181D01*
X136076259Y-59396666D01*
X136049901Y-59399500D01*
X135174998Y-59399500D01*
X135174980Y-59399501D01*
X135072203Y-59410000D01*
X135072200Y-59410001D01*
X134905668Y-59465185D01*
X134905663Y-59465187D01*
X134756342Y-59557289D01*
X134632289Y-59681342D01*
X134540187Y-59830663D01*
X134540186Y-59830666D01*
X134485001Y-59997203D01*
X134485001Y-59997204D01*
X134485000Y-59997204D01*
X134474500Y-60099983D01*
X130925498Y-60099983D01*
X130914999Y-59997203D01*
X130859814Y-59830666D01*
X130767712Y-59681344D01*
X130643656Y-59557288D01*
X130494334Y-59465186D01*
X130327797Y-59410001D01*
X130327794Y-59410000D01*
X130261897Y-59403268D01*
X130197205Y-59376871D01*
X130157054Y-59319690D01*
X130150500Y-59279910D01*
X130150500Y-55790097D01*
X130170185Y-55723058D01*
X130186819Y-55702416D01*
X131942152Y-53947083D01*
X133703872Y-52185362D01*
X133765193Y-52151879D01*
X133834885Y-52156863D01*
X133838962Y-52158467D01*
X133960007Y-52208606D01*
X134187986Y-52269693D01*
X134421989Y-52300500D01*
X134421996Y-52300500D01*
X134658004Y-52300500D01*
X134658011Y-52300500D01*
X134892014Y-52269693D01*
X135119993Y-52208606D01*
X135338049Y-52118284D01*
X135542450Y-52000273D01*
X135729699Y-51856592D01*
X135896592Y-51689699D01*
X136040273Y-51502450D01*
X136158284Y-51298049D01*
X136248606Y-51079993D01*
X136309693Y-50852014D01*
X136340500Y-50618011D01*
X136340500Y-50381989D01*
X136309693Y-50147986D01*
X136248606Y-49920007D01*
X136158284Y-49701951D01*
X136158282Y-49701948D01*
X136158280Y-49701943D01*
X136116118Y-49628918D01*
X136040273Y-49497550D01*
X135896592Y-49310301D01*
X135896587Y-49310295D01*
X135729704Y-49143412D01*
X135729697Y-49143406D01*
X135542454Y-48999730D01*
X135542453Y-48999729D01*
X135542450Y-48999727D01*
X135460957Y-48952677D01*
X135338056Y-48881719D01*
X135338045Y-48881714D01*
X135119993Y-48791394D01*
X134892010Y-48730306D01*
X134658020Y-48699501D01*
X134658017Y-48699500D01*
X134658011Y-48699500D01*
X134421989Y-48699500D01*
X134421983Y-48699500D01*
X134421979Y-48699501D01*
X134187989Y-48730306D01*
X133960006Y-48791394D01*
X133741954Y-48881714D01*
X133741943Y-48881719D01*
X133537545Y-48999730D01*
X133350302Y-49143406D01*
X133350295Y-49143412D01*
X133183412Y-49310295D01*
X133183406Y-49310302D01*
X133039730Y-49497545D01*
X132921719Y-49701943D01*
X132921714Y-49701954D01*
X132831394Y-49920006D01*
X132770306Y-50147989D01*
X132739501Y-50381979D01*
X132739500Y-50381995D01*
X132739500Y-50618004D01*
X132739501Y-50618020D01*
X132770306Y-50852010D01*
X132831395Y-51079997D01*
X132881514Y-51200994D01*
X132888983Y-51270464D01*
X132857708Y-51332943D01*
X132854634Y-51336128D01*
X130272181Y-53918582D01*
X130210858Y-53952067D01*
X130141166Y-53947083D01*
X130085233Y-53905211D01*
X130060816Y-53839747D01*
X130060500Y-53830901D01*
X130060500Y-52282965D01*
X130080185Y-52215926D01*
X130132989Y-52170171D01*
X130137048Y-52168404D01*
X130258037Y-52118289D01*
X130258037Y-52118288D01*
X130258049Y-52118284D01*
X130462450Y-52000273D01*
X130649699Y-51856592D01*
X130816592Y-51689699D01*
X130960273Y-51502450D01*
X131078284Y-51298049D01*
X131168606Y-51079993D01*
X131229693Y-50852014D01*
X131260500Y-50618011D01*
X131260500Y-50381989D01*
X131229693Y-50147986D01*
X131168606Y-49920007D01*
X131078284Y-49701951D01*
X131078282Y-49701948D01*
X131078280Y-49701943D01*
X131036118Y-49628918D01*
X130960273Y-49497550D01*
X130816592Y-49310301D01*
X130816587Y-49310295D01*
X130649704Y-49143412D01*
X130649697Y-49143406D01*
X130462454Y-48999730D01*
X130462453Y-48999729D01*
X130462450Y-48999727D01*
X130380957Y-48952677D01*
X130258056Y-48881719D01*
X130258045Y-48881714D01*
X130039993Y-48791394D01*
X129812010Y-48730306D01*
X129578020Y-48699501D01*
X129578017Y-48699500D01*
X129578011Y-48699500D01*
X129341989Y-48699500D01*
X129341983Y-48699500D01*
X129341979Y-48699501D01*
X129107989Y-48730306D01*
X128880006Y-48791394D01*
X128661954Y-48881714D01*
X128661943Y-48881719D01*
X128457545Y-48999730D01*
X128270302Y-49143406D01*
X128270295Y-49143412D01*
X128103412Y-49310295D01*
X128103406Y-49310302D01*
X127959730Y-49497545D01*
X127841719Y-49701943D01*
X127841714Y-49701954D01*
X127751394Y-49920006D01*
X127690306Y-50147989D01*
X127659501Y-50381979D01*
X127659500Y-50381995D01*
X127659500Y-50618004D01*
X127659501Y-50618020D01*
X127690306Y-50852010D01*
X127751394Y-51079993D01*
X127841714Y-51298045D01*
X127841719Y-51298056D01*
X127878300Y-51361415D01*
X127959727Y-51502450D01*
X127959729Y-51502453D01*
X127959730Y-51502454D01*
X128103406Y-51689697D01*
X128103412Y-51689704D01*
X128270295Y-51856587D01*
X128270302Y-51856593D01*
X128286909Y-51869336D01*
X128457550Y-52000273D01*
X128661951Y-52118284D01*
X128661956Y-52118286D01*
X128661962Y-52118289D01*
X128782952Y-52168404D01*
X128837356Y-52212244D01*
X128859421Y-52278538D01*
X128859500Y-52282965D01*
X128859500Y-53739902D01*
X128839815Y-53806941D01*
X128823181Y-53827583D01*
X123287582Y-59363181D01*
X123226259Y-59396666D01*
X123199901Y-59399500D01*
X122324998Y-59399500D01*
X122324980Y-59399501D01*
X122222203Y-59410000D01*
X122222200Y-59410001D01*
X122055668Y-59465185D01*
X122055663Y-59465187D01*
X121906342Y-59557289D01*
X121782289Y-59681342D01*
X121690187Y-59830663D01*
X121690186Y-59830666D01*
X121635001Y-59997203D01*
X121635001Y-59997204D01*
X121635000Y-59997204D01*
X121624500Y-60099983D01*
X117825498Y-60099983D01*
X117814999Y-59997203D01*
X117759814Y-59830666D01*
X117667712Y-59681344D01*
X117543656Y-59557288D01*
X117394334Y-59465186D01*
X117227797Y-59410001D01*
X117227794Y-59410000D01*
X117161897Y-59403268D01*
X117097205Y-59376871D01*
X117057054Y-59319690D01*
X117050500Y-59279910D01*
X117050500Y-58730097D01*
X117070185Y-58663058D01*
X117086819Y-58642416D01*
X120215905Y-55513330D01*
X123543872Y-52185362D01*
X123605193Y-52151879D01*
X123674885Y-52156863D01*
X123678962Y-52158467D01*
X123800007Y-52208606D01*
X124027986Y-52269693D01*
X124261989Y-52300500D01*
X124261996Y-52300500D01*
X124498004Y-52300500D01*
X124498011Y-52300500D01*
X124732014Y-52269693D01*
X124959993Y-52208606D01*
X125178049Y-52118284D01*
X125382450Y-52000273D01*
X125569699Y-51856592D01*
X125736592Y-51689699D01*
X125880273Y-51502450D01*
X125998284Y-51298049D01*
X126088606Y-51079993D01*
X126149693Y-50852014D01*
X126180500Y-50618011D01*
X126180500Y-50381989D01*
X126149693Y-50147986D01*
X126088606Y-49920007D01*
X125998284Y-49701951D01*
X125998282Y-49701948D01*
X125998280Y-49701943D01*
X125956118Y-49628918D01*
X125880273Y-49497550D01*
X125736592Y-49310301D01*
X125736587Y-49310295D01*
X125569704Y-49143412D01*
X125569697Y-49143406D01*
X125382454Y-48999730D01*
X125382453Y-48999729D01*
X125382450Y-48999727D01*
X125300957Y-48952677D01*
X125178056Y-48881719D01*
X125178045Y-48881714D01*
X124959993Y-48791394D01*
X124732010Y-48730306D01*
X124498020Y-48699501D01*
X124498017Y-48699500D01*
X124498011Y-48699500D01*
X124261989Y-48699500D01*
X124261983Y-48699500D01*
X124261979Y-48699501D01*
X124027989Y-48730306D01*
X123800006Y-48791394D01*
X123581954Y-48881714D01*
X123581943Y-48881719D01*
X123377545Y-48999730D01*
X123190302Y-49143406D01*
X123190295Y-49143412D01*
X123023412Y-49310295D01*
X123023406Y-49310302D01*
X122879730Y-49497545D01*
X122761719Y-49701943D01*
X122761714Y-49701954D01*
X122671394Y-49920006D01*
X122610306Y-50147989D01*
X122579501Y-50381979D01*
X122579500Y-50381995D01*
X122579500Y-50618004D01*
X122579501Y-50618020D01*
X122610306Y-50852010D01*
X122671395Y-51079997D01*
X122721514Y-51200994D01*
X122728983Y-51270464D01*
X122697708Y-51332943D01*
X122694634Y-51336128D01*
X116081286Y-57949478D01*
X115969481Y-58061282D01*
X115969480Y-58061284D01*
X115935036Y-58120943D01*
X115890423Y-58198215D01*
X115849499Y-58350943D01*
X115849499Y-58350945D01*
X115849499Y-58519046D01*
X115849500Y-58519059D01*
X115849500Y-59279911D01*
X115829815Y-59346950D01*
X115777011Y-59392705D01*
X115738102Y-59403269D01*
X115672202Y-59410001D01*
X115672200Y-59410001D01*
X115505668Y-59465185D01*
X115505663Y-59465187D01*
X115356342Y-59557289D01*
X115232289Y-59681342D01*
X115140187Y-59830663D01*
X115140186Y-59830666D01*
X115085001Y-59997203D01*
X115085001Y-59997204D01*
X115085000Y-59997204D01*
X115074500Y-60099983D01*
X111275498Y-60099983D01*
X111264999Y-59997203D01*
X111209814Y-59830666D01*
X111117712Y-59681344D01*
X111117710Y-59681342D01*
X111113920Y-59675197D01*
X111115869Y-59673994D01*
X111093861Y-59619446D01*
X111106899Y-59550804D01*
X111129583Y-59519650D01*
X118463871Y-52185362D01*
X118525192Y-52151879D01*
X118594884Y-52156863D01*
X118599003Y-52158484D01*
X118720007Y-52208606D01*
X118947986Y-52269693D01*
X119181989Y-52300500D01*
X119181996Y-52300500D01*
X119418004Y-52300500D01*
X119418011Y-52300500D01*
X119652014Y-52269693D01*
X119879993Y-52208606D01*
X120098049Y-52118284D01*
X120302450Y-52000273D01*
X120489699Y-51856592D01*
X120656592Y-51689699D01*
X120800273Y-51502450D01*
X120918284Y-51298049D01*
X121008606Y-51079993D01*
X121069693Y-50852014D01*
X121100500Y-50618011D01*
X121100500Y-50381989D01*
X121069693Y-50147986D01*
X121008606Y-49920007D01*
X120918284Y-49701951D01*
X120918282Y-49701948D01*
X120918280Y-49701943D01*
X120876118Y-49628918D01*
X120800273Y-49497550D01*
X120656592Y-49310301D01*
X120656587Y-49310295D01*
X120489704Y-49143412D01*
X120489697Y-49143406D01*
X120302454Y-48999730D01*
X120302453Y-48999729D01*
X120302450Y-48999727D01*
X120220957Y-48952677D01*
X120098056Y-48881719D01*
X120098045Y-48881714D01*
X119879993Y-48791394D01*
X119652010Y-48730306D01*
X119418020Y-48699501D01*
X119418017Y-48699500D01*
X119418011Y-48699500D01*
X119181989Y-48699500D01*
X119181983Y-48699500D01*
X119181979Y-48699501D01*
X118947989Y-48730306D01*
X118720006Y-48791394D01*
X118501954Y-48881714D01*
X118501943Y-48881719D01*
X118297545Y-48999730D01*
X118110302Y-49143406D01*
X118110295Y-49143412D01*
X117943412Y-49310295D01*
X117943406Y-49310302D01*
X117799730Y-49497545D01*
X117681719Y-49701943D01*
X117681714Y-49701954D01*
X117591394Y-49920006D01*
X117530306Y-50147989D01*
X117499501Y-50381979D01*
X117499500Y-50381995D01*
X117499500Y-50618004D01*
X117499501Y-50618020D01*
X117530306Y-50852010D01*
X117591394Y-51079993D01*
X117641515Y-51200994D01*
X117648984Y-51270463D01*
X117617709Y-51332943D01*
X117614635Y-51336128D01*
X109587582Y-59363181D01*
X109526259Y-59396666D01*
X109499901Y-59399500D01*
X109224999Y-59399500D01*
X109224980Y-59399501D01*
X109122203Y-59410000D01*
X109122200Y-59410001D01*
X108955668Y-59465185D01*
X108955663Y-59465187D01*
X108806342Y-59557289D01*
X108682289Y-59681342D01*
X108590187Y-59830663D01*
X108590186Y-59830666D01*
X108535001Y-59997203D01*
X108535001Y-59997204D01*
X108535000Y-59997204D01*
X108524500Y-60099983D01*
X103500500Y-60099983D01*
X103500500Y-46939111D01*
X106218800Y-46939111D01*
X106218800Y-47181688D01*
X106250461Y-47422185D01*
X106313247Y-47656504D01*
X106351933Y-47749900D01*
X106406076Y-47880612D01*
X106527364Y-48090689D01*
X106527366Y-48090692D01*
X106527367Y-48090693D01*
X106675033Y-48283136D01*
X106675039Y-48283143D01*
X106846556Y-48454660D01*
X106846562Y-48454665D01*
X107039011Y-48602336D01*
X107249088Y-48723624D01*
X107473200Y-48816454D01*
X107707511Y-48879238D01*
X107887886Y-48902984D01*
X107948011Y-48910900D01*
X107948012Y-48910900D01*
X108190589Y-48910900D01*
X108238688Y-48904567D01*
X108431089Y-48879238D01*
X108665400Y-48816454D01*
X108889512Y-48723624D01*
X109099589Y-48602336D01*
X109292038Y-48454665D01*
X109463565Y-48283138D01*
X109611236Y-48090689D01*
X109732524Y-47880612D01*
X109825354Y-47656500D01*
X109888138Y-47422189D01*
X109919800Y-47181688D01*
X109919800Y-47032511D01*
X206523800Y-47032511D01*
X206523800Y-47275088D01*
X206555461Y-47515585D01*
X206618247Y-47749904D01*
X206672389Y-47880614D01*
X206711076Y-47974012D01*
X206832364Y-48184089D01*
X206832366Y-48184092D01*
X206832367Y-48184093D01*
X206980033Y-48376536D01*
X206980039Y-48376543D01*
X207151556Y-48548060D01*
X207151562Y-48548065D01*
X207344011Y-48695736D01*
X207554088Y-48817024D01*
X207778200Y-48909854D01*
X208012511Y-48972638D01*
X208192886Y-48996384D01*
X208253011Y-49004300D01*
X208253012Y-49004300D01*
X208495589Y-49004300D01*
X208543688Y-48997967D01*
X208736089Y-48972638D01*
X208970400Y-48909854D01*
X209194512Y-48817024D01*
X209404589Y-48695736D01*
X209597038Y-48548065D01*
X209768565Y-48376538D01*
X209916236Y-48184089D01*
X210037524Y-47974012D01*
X210130354Y-47749900D01*
X210193138Y-47515589D01*
X210224800Y-47275088D01*
X210224800Y-47032512D01*
X210193138Y-46792011D01*
X210130354Y-46557700D01*
X210037524Y-46333588D01*
X209916236Y-46123511D01*
X209768565Y-45931062D01*
X209768560Y-45931056D01*
X209597043Y-45759539D01*
X209597036Y-45759533D01*
X209404593Y-45611867D01*
X209404592Y-45611866D01*
X209404589Y-45611864D01*
X209194512Y-45490576D01*
X209194505Y-45490573D01*
X208970404Y-45397747D01*
X208736085Y-45334961D01*
X208495589Y-45303300D01*
X208495588Y-45303300D01*
X208253012Y-45303300D01*
X208253011Y-45303300D01*
X208012514Y-45334961D01*
X207778195Y-45397747D01*
X207554094Y-45490573D01*
X207554085Y-45490577D01*
X207344006Y-45611867D01*
X207151563Y-45759533D01*
X207151556Y-45759539D01*
X206980039Y-45931056D01*
X206980033Y-45931063D01*
X206832367Y-46123506D01*
X206711077Y-46333585D01*
X206711073Y-46333594D01*
X206618247Y-46557695D01*
X206555461Y-46792014D01*
X206523800Y-47032511D01*
X109919800Y-47032511D01*
X109919800Y-46939112D01*
X109888138Y-46698611D01*
X109825354Y-46464300D01*
X109732524Y-46240188D01*
X109611236Y-46030111D01*
X109463565Y-45837662D01*
X109463560Y-45837656D01*
X109292043Y-45666139D01*
X109292036Y-45666133D01*
X109099593Y-45518467D01*
X109099592Y-45518466D01*
X109099589Y-45518464D01*
X108890501Y-45397747D01*
X108889514Y-45397177D01*
X108889505Y-45397173D01*
X108665404Y-45304347D01*
X108431085Y-45241561D01*
X108190589Y-45209900D01*
X108190588Y-45209900D01*
X107948012Y-45209900D01*
X107948011Y-45209900D01*
X107707514Y-45241561D01*
X107473195Y-45304347D01*
X107249094Y-45397173D01*
X107249085Y-45397177D01*
X107039006Y-45518467D01*
X106846563Y-45666133D01*
X106846556Y-45666139D01*
X106675039Y-45837656D01*
X106675033Y-45837663D01*
X106527367Y-46030106D01*
X106406077Y-46240185D01*
X106406073Y-46240194D01*
X106313247Y-46464295D01*
X106250461Y-46698614D01*
X106218800Y-46939111D01*
X103500500Y-46939111D01*
X103500500Y-43124500D01*
X103520185Y-43057461D01*
X103572989Y-43011706D01*
X103624500Y-43000500D01*
X212375500Y-43000500D01*
X212442539Y-43020185D01*
G37*
%TD.AperFunction*%
%TD*%
M02*
