M48
; DRILL file {KiCad 9.0.7} date 2026-06-25T22:35:36+0200
; FORMAT={-:-/ absolute / metric / decimal}
; #@! TF.CreationDate,2026-06-25T22:35:36+02:00
; #@! TF.GenerationSoftware,Kicad,Pcbnew,9.0.7
; #@! TF.FileFunction,Plated,1,2,PTH
FMAT,2
METRIC
; #@! TA.AperFunction,Plated,PTH,ViaDrill
T1C0.300
; #@! TA.AperFunction,Plated,PTH,ComponentDrill
T2C0.750
; #@! TA.AperFunction,Plated,PTH,ComponentDrill
T3C0.813
; #@! TA.AperFunction,Plated,PTH,ComponentDrill
T4C1.000
; #@! TA.AperFunction,Plated,PTH,ComponentDrill
T5C1.300
%
G90
G05
T1
X113.943Y-72.636
X122.177Y-72.592
X125.09Y-71.697
X125.098Y-75.941
X127.615Y-72.85
X128.001Y-76.059
X139.545Y-82.385
X144.832Y-81.872
X158.0Y-74.614
X160.108Y-84.358
X167.712Y-79.748
X168.0Y-83.0
X168.0Y-85.5
X188.556Y-74.307
X191.952Y-74.542
X200.143Y-74.513
T2
X109.9Y-60.5
X109.9Y-62.5
X109.9Y-64.5
X116.45Y-60.5
X116.45Y-62.5
X116.45Y-64.5
X123.0Y-60.5
X123.0Y-62.5
X123.0Y-64.5
X129.55Y-60.5
X129.55Y-62.5
X129.55Y-64.5
X135.85Y-60.5
X135.85Y-62.5
X135.85Y-64.5
X142.4Y-60.5
X142.4Y-62.5
X142.4Y-64.5
X148.95Y-60.5
X148.95Y-62.5
X148.95Y-64.5
X155.5Y-60.5
X155.5Y-62.5
X155.5Y-64.5
X161.9Y-60.5
X161.9Y-62.5
X161.9Y-64.5
X168.45Y-60.5
X168.45Y-62.5
X168.45Y-64.5
X175.0Y-60.5
X175.0Y-62.5
X175.0Y-64.5
X181.55Y-60.5
X181.55Y-62.5
X181.55Y-64.5
X187.85Y-60.5
X187.85Y-62.5
X187.85Y-64.5
X194.4Y-60.5
X194.4Y-62.5
X194.4Y-64.5
X200.95Y-60.5
X200.95Y-62.5
X200.95Y-64.5
X207.5Y-60.5
X207.5Y-62.5
X207.5Y-64.5
T3
X135.3Y-69.88
X135.3Y-77.5
X137.84Y-69.88
X137.84Y-77.5
X140.38Y-69.88
X140.38Y-77.5
X142.92Y-69.88
X142.92Y-77.5
X145.46Y-69.88
X145.46Y-77.5
X148.0Y-69.88
X148.0Y-77.5
X150.54Y-69.88
X150.54Y-77.5
X153.08Y-69.88
X153.08Y-77.5
X159.8Y-69.88
X159.8Y-77.5
X162.34Y-69.88
X162.34Y-77.5
X164.88Y-69.88
X164.88Y-77.5
X167.42Y-69.88
X167.42Y-77.5
X169.96Y-69.88
X169.96Y-77.5
X172.5Y-69.88
X172.5Y-77.5
X175.04Y-69.88
X175.04Y-77.5
X177.58Y-69.88
X177.58Y-77.5
T4
X141.3Y-83.0
X141.3Y-85.54
X143.84Y-83.0
X143.84Y-85.54
X146.38Y-83.0
X146.38Y-85.54
X148.92Y-83.0
X148.92Y-85.54
X151.46Y-83.0
X151.46Y-85.54
X154.0Y-83.0
X154.0Y-85.54
X156.54Y-83.0
X156.54Y-85.54
X159.08Y-83.0
X159.08Y-85.54
X161.62Y-83.0
X161.62Y-85.54
X164.16Y-83.0
X164.16Y-85.54
T5
X119.3Y-50.5
X124.38Y-50.5
X129.46Y-50.5
X134.54Y-50.5
X139.62Y-50.5
X144.7Y-50.5
X149.78Y-50.5
X154.86Y-50.5
X159.94Y-50.5
X165.02Y-50.5
X170.1Y-50.5
X175.18Y-50.5
X180.26Y-50.5
X185.34Y-50.5
X190.42Y-50.5
X195.5Y-50.5
M30
