%TF.GenerationSoftware,KiCad,Pcbnew,9.0.7*%
%TF.CreationDate,2026-06-25T22:35:30+02:00*%
%TF.ProjectId,input-board,696e7075-742d-4626-9f61-72642e6b6963,rev?*%
%TF.SameCoordinates,Original*%
%TF.FileFunction,Soldermask,Bot*%
%TF.FilePolarity,Negative*%
%FSLAX46Y46*%
G04 Gerber Fmt 4.6, Leading zero omitted, Abs format (unit mm)*
G04 Created by KiCad (PCBNEW 9.0.7) date 2026-06-25 22:35:30*
%MOMM*%
%LPD*%
G01*
G04 APERTURE LIST*
G04 Aperture macros list*
%AMRoundRect*
0 Rectangle with rounded corners*
0 $1 Rounding radius*
0 $2 $3 $4 $5 $6 $7 $8 $9 X,Y pos of 4 corners*
0 Add a 4 corners polygon primitive as box body*
4,1,4,$2,$3,$4,$5,$6,$7,$8,$9,$2,$3,0*
0 Add four circle primitives for the rounded corners*
1,1,$1+$1,$2,$3*
1,1,$1+$1,$4,$5*
1,1,$1+$1,$6,$7*
1,1,$1+$1,$8,$9*
0 Add four rect primitives between the rounded corners*
20,1,$1+$1,$2,$3,$4,$5,0*
20,1,$1+$1,$4,$5,$6,$7,0*
20,1,$1+$1,$6,$7,$8,$9,0*
20,1,$1+$1,$8,$9,$2,$3,0*%
G04 Aperture macros list end*
%ADD10R,1.700000X1.700000*%
%ADD11C,1.700000*%
%ADD12RoundRect,0.250000X-0.625000X0.350000X-0.625000X-0.350000X0.625000X-0.350000X0.625000X0.350000X0*%
%ADD13O,1.750000X1.200000*%
%ADD14C,1.625600*%
%ADD15C,3.200000*%
%ADD16RoundRect,0.250000X1.050000X1.050000X-1.050000X1.050000X-1.050000X-1.050000X1.050000X-1.050000X0*%
%ADD17C,2.600000*%
G04 APERTURE END LIST*
D10*
%TO.C,B_SIGIN*%
X141300000Y-85540000D03*
D11*
X141300000Y-83000000D03*
X143840000Y-85540000D03*
X143840000Y-83000000D03*
X146380000Y-85540000D03*
X146380000Y-83000000D03*
X148920000Y-85540000D03*
X148920000Y-83000000D03*
X151460000Y-85540000D03*
X151460000Y-83000000D03*
X154000000Y-85540000D03*
X154000000Y-83000000D03*
X156540000Y-85540000D03*
X156540000Y-83000000D03*
X159080000Y-85540000D03*
X159080000Y-83000000D03*
X161620000Y-85540000D03*
X161620000Y-83000000D03*
X164160000Y-85540000D03*
X164160000Y-83000000D03*
%TD*%
D12*
%TO.C,CH09*%
X161900000Y-60500000D03*
D13*
X161900000Y-62500000D03*
X161900000Y-64500000D03*
%TD*%
D12*
%TO.C,CH11*%
X175000000Y-60500000D03*
D13*
X175000000Y-62500000D03*
X175000000Y-64500000D03*
%TD*%
D12*
%TO.C,CH12*%
X181550000Y-60500000D03*
D13*
X181550000Y-62500000D03*
X181550000Y-64500000D03*
%TD*%
D12*
%TO.C,CH05*%
X135850000Y-60500000D03*
D13*
X135850000Y-62500000D03*
X135850000Y-64500000D03*
%TD*%
D12*
%TO.C,CH03*%
X123000000Y-60500000D03*
D13*
X123000000Y-62500000D03*
X123000000Y-64500000D03*
%TD*%
D14*
%TO.C,R_Pack08#1*%
X135300000Y-77500000D03*
X137840000Y-77500000D03*
X140380000Y-77500000D03*
X142920000Y-77500000D03*
X145460000Y-77500000D03*
X148000000Y-77500000D03*
X150540000Y-77500000D03*
X153080000Y-77500000D03*
X153080000Y-69880000D03*
X150540000Y-69880000D03*
X148000000Y-69880000D03*
X145460000Y-69880000D03*
X142920000Y-69880000D03*
X140380000Y-69880000D03*
X137840000Y-69880000D03*
X135300000Y-69880000D03*
%TD*%
D12*
%TO.C,CH06*%
X142400000Y-60500000D03*
D13*
X142400000Y-62500000D03*
X142400000Y-64500000D03*
%TD*%
D12*
%TO.C,CH16*%
X207500000Y-60500000D03*
D13*
X207500000Y-62500000D03*
X207500000Y-64500000D03*
%TD*%
D15*
%TO.C,B11*%
X199000000Y-84000000D03*
%TD*%
%TO.C,B12*%
X117000000Y-84000000D03*
%TD*%
D12*
%TO.C,CH13*%
X187850000Y-60500000D03*
D13*
X187850000Y-62500000D03*
X187850000Y-64500000D03*
%TD*%
D12*
%TO.C,CH08*%
X155500000Y-60500000D03*
D13*
X155500000Y-62500000D03*
X155500000Y-64500000D03*
%TD*%
D12*
%TO.C,CH01*%
X109900000Y-60500000D03*
D13*
X109900000Y-62500000D03*
X109900000Y-64500000D03*
%TD*%
D12*
%TO.C,CH04*%
X129550000Y-60500000D03*
D13*
X129550000Y-62500000D03*
X129550000Y-64500000D03*
%TD*%
D12*
%TO.C,CH02*%
X116450000Y-60500000D03*
D13*
X116450000Y-62500000D03*
X116450000Y-64500000D03*
%TD*%
D16*
%TO.C,J27*%
X195500000Y-50500000D03*
D17*
X190420000Y-50500000D03*
X185340000Y-50500000D03*
X180260000Y-50500000D03*
X175180000Y-50500000D03*
X170100000Y-50500000D03*
X165020000Y-50500000D03*
X159940000Y-50500000D03*
X154860000Y-50500000D03*
X149780000Y-50500000D03*
X144700000Y-50500000D03*
X139620000Y-50500000D03*
X134540000Y-50500000D03*
X129460000Y-50500000D03*
X124380000Y-50500000D03*
X119300000Y-50500000D03*
%TD*%
D15*
%TO.C,B13*%
X208374300Y-47153800D03*
%TD*%
D12*
%TO.C,CH15*%
X200950000Y-60500000D03*
D13*
X200950000Y-62500000D03*
X200950000Y-64500000D03*
%TD*%
D15*
%TO.C,B14*%
X108069300Y-47060400D03*
%TD*%
D14*
%TO.C,R_Pack08#2*%
X159800000Y-77500000D03*
X162340000Y-77500000D03*
X164880000Y-77500000D03*
X167420000Y-77500000D03*
X169960000Y-77500000D03*
X172500000Y-77500000D03*
X175040000Y-77500000D03*
X177580000Y-77500000D03*
X177580000Y-69880000D03*
X175040000Y-69880000D03*
X172500000Y-69880000D03*
X169960000Y-69880000D03*
X167420000Y-69880000D03*
X164880000Y-69880000D03*
X162340000Y-69880000D03*
X159800000Y-69880000D03*
%TD*%
D12*
%TO.C,CH07*%
X148950000Y-60500000D03*
D13*
X148950000Y-62500000D03*
X148950000Y-64500000D03*
%TD*%
D12*
%TO.C,CH14*%
X194400000Y-60500000D03*
D13*
X194400000Y-62500000D03*
X194400000Y-64500000D03*
%TD*%
D12*
%TO.C,CH10*%
X168450000Y-60500000D03*
D13*
X168450000Y-62500000D03*
X168450000Y-64500000D03*
%TD*%
M02*
