# Alias OBJ Model File
# Exported from SketchUp, (c) 2000-2012 Trimble Navigation Limited
# File units = millimeters

mtllib dinrail.mtl

g Mesh1 Model

usemtl FrontColor
v 205.269 7.5 -54.9808
vt 8.08148 0.0102125
vn 0 0 1
v 205.269 7.88823 -54.9297
vt 8.08148 0.0256289
vn 0 -0.258819 0.965926
v 201.449 7.88823 -54.9297
vt 7.93108 0.0256289
v 201.449 7.5 -54.9808
vt 7.93108 0.0102125
f 1/1/1 2/2/2 3/3/2 4/4/1 

v 205.269 15 -69.3078
vt 2.72865 0.590551
vn 1 0 -0
vt 2.16259 0.31056
vt 2.1646 0.295276
f 5/5/3 2/6/3 1/7/3

v 205.269 8.25 -54.7799
vt 2.15669 0.324803
f 5/5/3 6/8/3 2/6/3

v 205.269 8.56066 -54.5415
vt 2.1473 0.337034
f 5/5/3 7/9/3 6/8/3

v 205.269 8.79904 -54.2308
vt 2.13507 0.346419
f 5/5/3 8/10/3 7/9/3

v 205.269 8.94889 -53.8691
vt 2.12083 0.352318
f 5/5/3 9/11/3 8/10/3

v 205.269 9 -53.4808
vt 2.10554 0.354331
f 5/5/3 10/12/3 9/11/3

v 205.269 8.94889 -53.0926
vt 2.09026 0.352318
f 5/5/3 11/13/3 10/12/3

v 205.269 15 -35.2198
vt 1.38661 0.590551
f 12/14/3 11/13/3 5/5/3

v 205.269 8.79904 -52.7308
vt 2.07602 0.346419
f 11/13/3 12/14/3 13/15/3

v 205.269 8.56066 -52.4202
vt 2.06379 0.337034
f 13/15/3 12/14/3 14/16/3

v 205.269 8.25 -52.1818
vt 2.0544 0.324803
f 14/16/3 12/14/3 15/17/3

v 205.269 7.88823 -52.032
vt 2.0485 0.31056
f 15/17/3 12/14/3 16/18/3

v 205.269 7.5 -51.9808
vt 2.04649 0.295276
f 16/18/3 12/14/3 17/19/3

v 205.269 7.11177 -52.032
vt 2.0485 0.279991
f 12/14/3 18/20/3 17/19/3

v 205.269 6.75 -52.1818
vt 2.0544 0.265748
f 12/14/3 19/21/3 18/20/3

v 205.269 6.43934 -52.4202
vt 2.06379 0.253517
f 12/14/3 20/22/3 19/21/3

v 205.269 6.20096 -52.7308
vt 2.07602 0.244132
f 12/14/3 21/23/3 20/22/3

v 205.269 0 -35.2198
vt 1.38661 0
f 22/24/3 21/23/3 12/14/3

v 205.269 6.05111 -53.0926
vt 2.09026 0.238233
f 21/23/3 22/24/3 23/25/3

v 205.269 0 -69.3078
vt 2.72865 0
f 23/25/3 22/24/3 24/26/3

vt -8.08148 1.38661
vn 0 -1 -0
v 205.257 0 -35.0665
vt -8.081 1.38057
vt -8.08148 2.72865
f 22/27/4 25/28/4 24/29/4

vt 2.01037 0
vn 0.996917 0 0.0784624
vt 2.01642 0
vt 2.01642 0.590551
v 205.257 15 -35.0665
vt 2.01037 0.590551
f 25/30/5 22/31/5 12/32/5 26/33/5 

vt 8.08148 2.72865
vn 0 1 -0
vt 8.081 1.38057
vt 8.08148 1.38661
f 5/34/6 26/35/6 12/36/6

v 205.222 15 -34.9169
vt 8.07959 1.37468
f 5/34/6 27/37/6 26/35/6

v 205.163 15 -34.7749
vt 8.07727 1.36909
f 5/34/6 28/38/6 27/37/6

v 205.082 15 -34.6437
vt 8.07411 1.36393
f 5/34/6 29/39/6 28/38/6

v 204.982 15 -34.5268
vt 8.07017 1.35932
f 5/34/6 30/40/6 29/39/6

v 204.866 15 -34.4269
vt 8.06557 1.35539
f 5/34/6 31/41/6 30/40/6

v 204.734 15 -34.3466
vt 8.06041 1.35223
f 5/34/6 32/42/6 31/41/6

v 204.592 15 -34.2877
vt 8.05482 1.34991
f 5/34/6 33/43/6 32/42/6

v 204.443 15 -34.2518
vt 8.04893 1.3485
f 5/34/6 34/44/6 33/43/6

v 204.289 15 -34.2398
vt 8.04289 1.34802
f 5/34/6 35/45/6 34/44/6

v 201.449 15 -56.1808
vt 7.93108 2.21184
f 5/34/6 36/46/6 35/45/6

v 206.729 15 -76.4832
vt 8.13896 3.01115
f 37/47/6 36/46/6 5/34/6

v 199.089 15 -56.1808
vt 7.83817 2.21184
f 37/47/6 38/48/6 36/46/6

v 195.255 15 -76.4832
vt 7.68719 3.01115
f 39/49/6 38/48/6 37/47/6

v 198.717 15 -33.7811
vt 7.8235 1.32996
f 38/48/6 39/49/6 40/50/6

v 198.717 15 -33.6985
vt 7.8235 1.32671
f 40/50/6 39/49/6 41/51/6

v 195.255 15 -30.4785
vt 7.68719 1.19994
f 42/52/6 41/51/6 39/49/6

v 198.73 15 -33.617
vt 7.82403 1.32351
f 41/51/6 42/52/6 43/53/6

v 198.757 15 -33.5389
vt 7.82509 1.32043
f 43/53/6 42/52/6 44/54/6

v 198.797 15 -33.4663
vt 7.82664 1.31757
f 44/54/6 42/52/6 45/55/6

v 198.847 15 -33.4011
vt 7.82863 1.31501
f 45/55/6 42/52/6 46/56/6

v 198.908 15 -33.3452
vt 7.83103 1.3128
f 46/56/6 42/52/6 47/57/6

v 198.977 15 -33.3
vt 7.83375 1.31103
f 47/57/6 42/52/6 48/58/6

v 199.053 15 -33.2669
vt 7.83673 1.30972
f 48/58/6 42/52/6 49/59/6

v 199.133 15 -33.2466
vt 7.83988 1.30892
f 49/59/6 42/52/6 50/60/6

v 211.628 15 -30.4785
vt 8.33182 1.19994
f 50/60/6 42/52/6 51/61/6

v 195.255 0 -30.4785
vt 7.68719 0
v 211.628 0 -30.4785
vt 8.33182 0
vt 8.33182 0.590551
vt 7.68719 0.590551
f 52/62/1 53/63/1 51/64/1 42/65/1 

vt -7.68719 1.19994
v 199.133 0 -33.2466
vt -7.83988 1.30892
vt -8.33182 1.19994
f 52/66/4 54/67/4 53/68/4

v 199.053 0 -33.2669
vt -7.83673 1.30972
f 54/67/4 52/66/4 55/69/4

v 198.977 0 -33.3
vt -7.83375 1.31103
f 55/69/4 52/66/4 56/70/4

v 198.908 0 -33.3452
vt -7.83103 1.3128
f 56/70/4 52/66/4 57/71/4

v 198.847 0 -33.4011
vt -7.82863 1.31501
f 57/71/4 52/66/4 58/72/4

v 198.797 0 -33.4663
vt -7.82664 1.31757
f 58/72/4 52/66/4 59/73/4

v 198.757 0 -33.5389
vt -7.82509 1.32043
f 59/73/4 52/66/4 60/74/4

v 198.73 0 -33.617
vt -7.82403 1.32351
f 60/74/4 52/66/4 61/75/4

v 198.717 0 -33.6985
vt -7.8235 1.32671
f 61/75/4 52/66/4 62/76/4

v 198.717 0 -33.7811
vt -7.8235 1.32996
f 62/76/4 52/66/4 63/77/4

v 199.089 5.63993e-15 -56.1808
vt -7.83817 2.21184
f 52/66/4 64/78/4 63/77/4

v 195.255 0 -76.4832
vt -7.68719 3.01115
f 65/79/4 64/78/4 52/66/4

v 206.729 0 -76.4832
vt -8.13896 3.01115
f 64/78/4 65/79/4 66/80/4

vt -8.13896 0
vn 0 0 -1
vt -7.68719 0
vt -7.68719 0.590551
vt -8.13896 0.590551
f 66/81/7 65/82/7 39/83/7 37/84/7 

vt -3.01115 0
vn -1 0 -0
v 195.255 7.5 -54.9808
vt -2.1646 0.295276
vt -3.01115 0.590551
f 65/85/8 67/86/8 39/87/8

v 195.255 7.11177 -54.9297
vt -2.16259 0.279991
f 65/85/8 68/88/8 67/86/8

v 195.255 6.75 -54.7799
vt -2.15669 0.265748
f 65/85/8 69/89/8 68/88/8

v 195.255 6.43934 -54.5415
vt -2.1473 0.253517
f 65/85/8 70/90/8 69/89/8

v 195.255 6.20096 -54.2308
vt -2.13507 0.244132
f 65/85/8 71/91/8 70/90/8

v 195.255 6.05111 -53.8691
vt -2.12083 0.238233
f 65/85/8 72/92/8 71/91/8

v 195.255 6 -53.4808
vt -2.10554 0.23622
f 65/85/8 73/93/8 72/92/8

v 195.255 6.05111 -53.0926
vt -2.09026 0.238233
f 65/85/8 74/94/8 73/93/8

vt -1.19994 0
f 52/95/8 74/94/8 65/85/8

v 195.255 6.20096 -52.7308
vt -2.07602 0.244132
f 74/94/8 52/95/8 75/96/8

v 195.255 6.43934 -52.4202
vt -2.06379 0.253517
f 75/96/8 52/95/8 76/97/8

v 195.255 6.75 -52.1818
vt -2.0544 0.265748
f 76/97/8 52/95/8 77/98/8

v 195.255 7.11177 -52.032
vt -2.0485 0.279991
f 77/98/8 52/95/8 78/99/8

v 195.255 7.5 -51.9808
vt -2.04649 0.295276
f 78/99/8 52/95/8 79/100/8

v 195.255 7.88823 -52.032
vt -2.0485 0.31056
f 52/95/8 80/101/8 79/100/8

v 195.255 8.25 -52.1818
vt -2.0544 0.324803
f 52/95/8 81/102/8 80/101/8

v 195.255 8.56066 -52.4202
vt -2.06379 0.337034
f 52/95/8 82/103/8 81/102/8

v 195.255 8.79904 -52.7308
vt -2.07602 0.346419
f 52/95/8 83/104/8 82/103/8

v 195.255 8.94889 -53.0926
vt -2.09026 0.352318
f 52/95/8 84/105/8 83/104/8

vt -1.19994 0.590551
f 42/106/8 84/105/8 52/95/8

f 84/105/8 42/106/8 39/87/8

v 195.255 9 -53.4808
vt -2.10554 0.354331
f 84/105/8 39/87/8 85/107/8

v 195.255 8.94889 -53.8691
vt -2.12083 0.352318
f 85/107/8 39/87/8 86/108/8

v 195.255 8.79904 -54.2308
vt -2.13507 0.346419
f 86/108/8 39/87/8 87/109/8

v 195.255 8.56066 -54.5415
vt -2.1473 0.337034
f 87/109/8 39/87/8 88/110/8

v 195.255 8.25 -54.7799
vt -2.15669 0.324803
f 88/110/8 39/87/8 89/111/8

v 195.255 7.88823 -54.9297
vt -2.16259 0.31056
f 89/111/8 39/87/8 90/112/8

f 90/112/8 39/87/8 67/86/8

vt 7.68719 0.0256289
vt 7.68719 0.0102125
vn 0 -4.75916e-16 1
v 199.089 7.5 -54.9808
vt 7.83817 0.0102125
v 199.089 7.88823 -54.9297
vt 7.83817 0.0256289
f 90/113/2 67/114/9 91/115/9 92/116/2 

vt 7.68719 0.575286
vt 7.68719 0.55987
vn 0 0.258819 0.965926
v 199.089 7.11177 -54.9297
vt 7.83817 0.55987
vt 7.83817 0.575286
f 67/117/9 68/118/10 93/119/10 91/120/9 

vt 7.68719 1.08626
vt 7.68719 1.07085
vn 0 0.5 0.866025
v 199.089 6.75 -54.7799
vt 7.83817 1.07085
vt 7.83817 1.08626
f 68/121/10 69/122/11 94/123/11 93/124/10 

vt 7.68719 1.52374
vt 7.68719 1.50832
vn 0 0.707107 0.707107
v 199.089 6.43934 -54.5415
vt 7.83817 1.50832
vt 7.83817 1.52374
f 69/125/11 70/126/12 95/127/12 94/128/11 

vt 7.68719 1.8579
vt 7.68719 1.84249
vn 0 0.866025 0.5
v 199.089 6.20096 -54.2308
vt 7.83817 1.84249
vt 7.83817 1.8579
f 70/129/12 71/130/13 96/131/13 95/132/12 

vt 7.68719 2.06598
vt 7.68719 2.05056
vn 0 0.965926 0.258819
v 199.089 6.05111 -53.8691
vt 7.83817 2.05056
vt 7.83817 2.06598
f 71/133/13 72/134/14 97/135/14 96/136/13 

vt 7.68719 2.13378
vt 7.68719 2.11836
v 199.089 6 -53.4808
vt 7.83817 2.11836
vt 7.83817 2.13378
f 72/137/14 73/138/6 98/139/6 97/140/14 

vt -7.68719 -2.0567
vt -7.68719 -2.04128
vn 0 0.965926 -0.258819
v 199.089 6.05111 -53.0926
vt -7.83817 -2.04128
vt -7.83817 -2.0567
f 73/141/6 74/142/15 99/143/15 98/144/6 

vt -7.68719 -1.83998
vt -7.68719 -1.82456
vn 0 0.866025 -0.5
v 199.089 6.20096 -52.7308
vt -7.83817 -1.82456
vt -7.83817 -1.83998
f 74/145/15 75/146/16 100/147/16 99/148/15 

vt -7.68719 -1.4984
vt -7.68719 -1.48298
vn 0 0.707107 -0.707107
v 199.089 6.43934 -52.4202
vt -7.83817 -1.48298
vt -7.83817 -1.4984
f 75/149/16 76/150/17 101/151/17 100/152/16 

vt -7.68719 -1.05522
vt -7.68719 -1.03981
vn 0 0.5 -0.866025
v 199.089 6.75 -52.1818
vt -7.83817 -1.03981
vt -7.83817 -1.05522
f 76/153/17 77/154/18 102/155/18 101/156/17 

vt -7.68719 -0.540666
vt -7.68719 -0.52525
vn 0 0.258819 -0.965926
v 199.089 7.11177 -52.032
vt -7.83817 -0.52525
vt -7.83817 -0.540666
f 77/157/18 78/158/19 103/159/19 102/160/18 

vt -7.68719 0.0102125
vt -7.68719 0.0256289
v 199.089 7.5 -51.9808
vt -7.83817 0.0256289
vt -7.83817 0.0102125
f 78/161/19 79/162/7 104/163/7 103/164/19 

vt -7.68719 0.55987
vt -7.68719 0.575286
vn 0 -0.258819 -0.965926
v 199.089 7.88823 -52.032
vt -7.83817 0.575286
vt -7.83817 0.55987
f 79/165/7 80/166/20 105/167/20 104/168/7 

vt -7.68719 1.07085
vt -7.68719 1.08626
vn 0 -0.5 -0.866025
v 199.089 8.25 -52.1818
vt -7.83817 1.08626
vt -7.83817 1.07085
f 80/169/20 81/170/21 106/171/21 105/172/20 

vt -7.68719 1.50832
vt -7.68719 1.52374
vn 0 -0.707107 -0.707107
v 199.089 8.56066 -52.4202
vt -7.83817 1.52374
vt -7.83817 1.50832
f 81/173/21 82/174/22 107/175/22 106/176/21 

vt -7.68719 1.84249
vt -7.68719 1.8579
vn 0 -0.866025 -0.5
v 199.089 8.79904 -52.7308
vt -7.83817 1.8579
vt -7.83817 1.84249
f 82/177/22 83/178/23 108/179/23 107/180/22 

vt -7.68719 2.05056
vt -7.68719 2.06598
vn 0 -0.965926 -0.258819
v 199.089 8.94889 -53.0926
vt -7.83817 2.06598
vt -7.83817 2.05056
f 83/181/23 84/182/24 109/183/24 108/184/23 

vt -7.68719 2.11836
vt -7.68719 2.13378
v 199.089 9 -53.4808
vt -7.83817 2.13378
vt -7.83817 2.11836
f 84/185/24 85/186/4 110/187/4 109/188/24 

vt 7.68719 -2.04128
vt 7.68719 -2.0567
vn 0 -0.965926 0.258819
v 199.089 8.94889 -53.8691
vt 7.83817 -2.0567
vt 7.83817 -2.04128
f 85/189/4 86/190/25 111/191/25 110/192/4 

vt 7.68719 -1.82456
vt 7.68719 -1.83998
vn 0 -0.866025 0.5
v 199.089 8.79904 -54.2308
vt 7.83817 -1.83998
vt 7.83817 -1.82456
f 86/193/25 87/194/26 112/195/26 111/196/25 

vt 7.68719 -1.48298
vt 7.68719 -1.4984
vn 0 -0.707107 0.707107
v 199.089 8.56066 -54.5415
vt 7.83817 -1.4984
vt 7.83817 -1.48298
f 87/197/26 88/198/27 113/199/27 112/200/26 

vt 7.68719 -1.03981
vt 7.68719 -1.05522
vn 0 -0.5 0.866025
v 199.089 8.25 -54.7799
vt 7.83817 -1.05522
vt 7.83817 -1.03981
f 88/201/27 89/202/28 114/203/28 113/204/27 

vt 7.68719 -0.52525
vt 7.68719 -0.540666
vt 7.83817 -0.540666
vt 7.83817 -0.52525
f 89/205/28 90/206/2 92/207/2 114/208/28 

vt 2.21184 0.590551
f 38/209/3 114/8/3 92/6/3

f 38/209/3 113/9/3 114/8/3

f 38/209/3 112/10/3 113/9/3

f 38/209/3 111/11/3 112/10/3

f 38/209/3 110/12/3 111/11/3

f 38/209/3 109/13/3 110/12/3

f 38/209/3 108/15/3 109/13/3

f 38/209/3 107/16/3 108/15/3

f 38/209/3 106/17/3 107/16/3

v 199.089 15 -50.7808
vt 1.99925 0.590551
f 115/210/3 106/17/3 38/209/3

f 106/17/3 115/210/3 105/18/3

f 105/18/3 115/210/3 104/19/3

f 115/210/3 103/20/3 104/19/3

v 199.089 5.63993e-15 -50.7808
vt 1.99925 2.22045e-16
f 116/211/3 103/20/3 115/210/3

f 103/20/3 116/211/3 102/21/3

vt 2.21184 2.22045e-16
f 102/21/3 116/211/3 64/212/3

vt -7.83817 1.99925
v 199.053 0 -34.2127
vt -7.83673 1.34696
f 116/213/4 117/214/4 64/78/4

v 199.133 0 -34.233
vt -7.83988 1.34775
f 117/214/4 116/213/4 118/215/4

v 201.449 5.63993e-15 -50.7808
vt -7.93108 1.99925
f 118/215/4 116/213/4 119/216/4

vt -7.83817 0.590551
v 201.449 15 -50.7808
vt -7.93108 0.590551
vt -7.93108 2.22045e-16
vt -7.83817 2.22045e-16
f 115/217/7 120/218/7 119/219/7 116/220/7 

vt 7.83817 1.99925
v 199.133 15 -34.233
vt 7.83988 1.34775
vt 7.93108 1.99925
f 115/221/6 121/222/6 120/223/6

v 199.053 15 -34.2127
vt 7.83673 1.34696
f 121/222/6 115/221/6 122/224/6

f 38/48/6 122/224/6 115/221/6

v 198.977 15 -34.1795
vt 7.83375 1.34565
f 38/48/6 123/225/6 122/224/6

v 198.908 15 -34.1343
vt 7.83103 1.34387
f 38/48/6 124/226/6 123/225/6

v 198.847 15 -34.0784
vt 7.82863 1.34167
f 38/48/6 125/227/6 124/226/6

v 198.797 15 -34.0133
vt 7.82664 1.3391
f 38/48/6 126/228/6 125/227/6

v 198.757 15 -33.9406
vt 7.82509 1.33624
f 38/48/6 127/229/6 126/228/6

v 198.73 15 -33.8625
vt 7.82403 1.33317
f 38/48/6 128/230/6 127/229/6

f 38/48/6 40/50/6 128/230/6

vt 2.59952 0
vn 0.986361 0 0.164594
v 198.73 0 -33.8625
vt 2.60277 0
vt 2.60277 0.590551
vt 2.59952 0.590551
f 63/231/29 129/232/29 128/233/29 40/234/29 

vt -7.82403 1.33317
f 63/77/4 64/78/4 129/235/4

v 198.757 0 -33.9406
vt -7.82509 1.33624
f 129/235/4 64/78/4 130/236/4

v 198.797 0 -34.0133
vt -7.82664 1.3391
f 130/236/4 64/78/4 131/237/4

v 198.847 0 -34.0784
vt -7.82863 1.34167
f 131/237/4 64/78/4 132/238/4

v 198.908 0 -34.1343
vt -7.83103 1.34387
f 132/238/4 64/78/4 133/239/4

v 198.977 0 -34.1795
vt -7.83375 1.34565
f 133/239/4 64/78/4 134/240/4

f 134/240/4 64/78/4 117/214/4

vt 7.71446 0
vn 0.401704 0 0.91577
vt 7.71771 0
vt 7.71771 0.590551
vt 7.71446 0.590551
f 134/241/30 117/242/30 122/243/30 123/244/30 

vt 7.92756 0
vn 0.245522 0 0.969391
vt 7.93081 0
vt 7.93081 0.590551
vt 7.92756 0.590551
f 117/245/31 118/246/31 121/247/31 122/248/31 

vt 7.92438 0
vn 0.0825494 0 0.996587
v 199.215 0 -34.2398
vt 7.92763 0
v 199.215 15 -34.2398
vt 7.92763 0.590551
vt 7.92438 0.590551
f 118/249/32 135/250/32 136/251/32 121/252/32 

vt -7.84312 1.34802
f 118/215/4 119/216/4 135/253/4

v 204.289 0 -34.2398
vt -8.04289 1.34802
f 135/253/4 119/216/4 137/254/4

f 119/216/4 24/29/4 137/254/4

f 119/216/4 66/80/4 24/29/4

v 201.449 5.63993e-15 -56.1808
vt -7.93108 2.21184
f 138/255/4 66/80/4 119/216/4

f 64/78/4 66/80/4 138/255/4

vt 7.93108 0.590551
vt 7.83817 0.590551
vt 7.83817 2.22045e-16
vt 7.93108 2.22045e-16
f 36/256/1 38/257/1 64/258/1 138/259/1 

f 38/209/3 91/7/3 64/212/3

f 38/209/3 92/6/3 91/7/3

vt 2.16259 0.279991
f 93/260/3 64/212/3 91/7/3

vt 2.15669 0.265748
f 94/261/3 64/212/3 93/260/3

vt 2.1473 0.253517
f 95/262/3 64/212/3 94/261/3

vt 2.13507 0.244132
f 96/263/3 64/212/3 95/262/3

vt 2.12083 0.238233
f 97/264/3 64/212/3 96/263/3

vt 2.10554 0.23622
f 98/265/3 64/212/3 97/264/3

f 99/25/3 64/212/3 98/265/3

f 100/23/3 64/212/3 99/25/3

f 101/22/3 64/212/3 100/23/3

f 102/21/3 64/212/3 101/22/3

vt -2.21184 2.22045e-16
vt -2.21184 0.590551
f 138/266/8 4/86/8 36/267/8

v 201.449 7.11177 -54.9297
f 138/266/8 139/88/8 4/86/8

v 201.449 6.75 -54.7799
f 138/266/8 140/89/8 139/88/8

v 201.449 6.43934 -54.5415
f 138/266/8 141/90/8 140/89/8

v 201.449 6.20096 -54.2308
f 138/266/8 142/91/8 141/90/8

v 201.449 6.05111 -53.8691
f 138/266/8 143/92/8 142/91/8

v 201.449 6 -53.4808
f 138/266/8 144/93/8 143/92/8

v 201.449 6.05111 -53.0926
f 138/266/8 145/94/8 144/93/8

v 201.449 6.20096 -52.7308
f 138/266/8 146/96/8 145/94/8

v 201.449 6.43934 -52.4202
f 138/266/8 147/97/8 146/96/8

v 201.449 6.75 -52.1818
f 138/266/8 148/98/8 147/97/8

vt -1.99925 2.22045e-16
f 119/268/8 148/98/8 138/266/8

v 201.449 7.11177 -52.032
f 148/98/8 119/268/8 149/99/8

v 201.449 7.5 -51.9808
f 149/99/8 119/268/8 150/100/8

v 201.449 7.88823 -52.032
f 119/268/8 151/101/8 150/100/8

vt -1.99925 0.590551
f 120/269/8 151/101/8 119/268/8

v 201.449 8.25 -52.1818
f 151/101/8 120/269/8 152/102/8

f 152/102/8 120/269/8 36/267/8

f 120/223/6 35/45/6 36/46/6

vt 7.84312 1.34802
f 120/223/6 136/270/6 35/45/6

f 120/223/6 121/222/6 136/270/6

vt 7.84312 0
vt 8.04289 0
vt 8.04289 0.590551
vt 7.84312 0.590551
f 135/271/1 137/272/1 35/273/1 136/274/1 

vt 8.12387 0
vn 0.0784615 0 0.996917
v 204.443 0 -34.2518
vt 8.12992 0
vt 8.12992 0.590551
vt 8.12387 0.590551
f 137/275/33 153/276/33 34/277/33 35/278/33 

vt -8.04893 1.3485
f 137/254/4 24/29/4 153/279/4

v 204.592 0 -34.2877
vt -8.05482 1.34991
f 153/279/4 24/29/4 154/280/4

v 204.734 0 -34.3466
vt -8.06041 1.35223
f 154/280/4 24/29/4 155/281/4

v 204.866 0 -34.4269
vt -8.06557 1.35539
f 155/281/4 24/29/4 156/282/4

v 204.982 0 -34.5268
vt -8.07017 1.35932
f 156/282/4 24/29/4 157/283/4

v 205.082 0 -34.6437
vt -8.07411 1.36393
f 157/283/4 24/29/4 158/284/4

v 205.163 0 -34.7749
vt -8.07727 1.36909
f 158/284/4 24/29/4 159/285/4

v 205.222 0 -34.9169
vt -8.07959 1.37468
f 159/285/4 24/29/4 160/286/4

f 160/286/4 24/29/4 25/28/4

vt 3.22287 0
vn 0.972369 0 0.233449
vt 3.22892 0
vt 3.22892 0.590551
vt 3.22287 0.590551
f 160/287/34 25/288/34 26/289/34 27/290/34 

vt 4.35584 0
vn 0.923884 0 0.382673
vt 4.36189 0
vt 4.36189 0.590551
vt 4.35584 0.590551
f 159/291/35 160/292/35 27/293/35 28/294/35 

vt 5.38169 0
vn 0.852637 0 0.522504
vt 5.38774 0
vt 5.38774 0.590551
vt 5.38169 0.590551
f 158/295/36 159/296/36 28/297/36 29/298/36 

vt 6.27483 0
vn 0.760401 0 0.649453
vt 6.28089 0
vt 6.28089 0.590551
vt 6.27483 0.590551
f 157/299/37 158/300/37 29/301/37 30/302/37 

vt 7.01328 0
vn 0.649463 0 0.760394
vt 7.01934 0
vt 7.01934 0.590551
vt 7.01328 0.590551
f 156/303/38 157/304/38 30/305/38 31/306/38 

vt 7.57924 0
vn 0.522477 0 0.852653
vt 7.5853 0
vt 7.5853 0.590551
vt 7.57924 0.590551
f 155/307/39 156/308/39 31/309/39 32/310/39 

vt 7.95827 0
vn 0.382684 0 0.923879
vt 7.96432 0
vt 7.96432 0.590551
vt 7.95827 0.590551
f 154/311/40 155/312/40 32/313/40 33/314/40 

vt 8.14133 0
vn 0.233452 0 0.972368
vt 8.14739 0
vt 8.14739 0.590551
vt 8.14133 0.590551
f 153/315/41 154/316/41 33/317/41 34/318/41 

v 201.449 8.56066 -52.4202
f 152/102/8 36/267/8 161/103/8

v 201.449 8.79904 -52.7308
f 161/103/8 36/267/8 162/104/8

v 201.449 8.94889 -53.0926
f 162/104/8 36/267/8 163/105/8

v 201.449 9 -53.4808
f 163/105/8 36/267/8 164/107/8

v 201.449 8.94889 -53.8691
f 164/107/8 36/267/8 165/108/8

v 201.449 8.79904 -54.2308
f 165/108/8 36/267/8 166/109/8

v 201.449 8.56066 -54.5415
f 166/109/8 36/267/8 167/110/8

v 201.449 8.25 -54.7799
f 167/110/8 36/267/8 168/111/8

f 168/111/8 36/267/8 3/112/8

f 3/112/8 36/267/8 4/86/8

vt 8.08148 -0.540666
vt 8.08148 -0.52525
vt 7.93108 -0.52525
vt 7.93108 -0.540666
f 2/319/2 6/320/28 168/321/28 3/322/2 

vt 8.08148 -1.05522
vt 8.08148 -1.03981
vt 7.93108 -1.03981
vt 7.93108 -1.05522
f 6/323/28 7/324/27 167/325/27 168/326/28 

vt 8.08148 -1.4984
vt 8.08148 -1.48298
vt 7.93108 -1.48298
vt 7.93108 -1.4984
f 7/327/27 8/328/26 166/329/26 167/330/27 

vt 8.08148 -1.83998
vt 8.08148 -1.82456
vt 7.93108 -1.82456
vt 7.93108 -1.83998
f 8/331/26 9/332/25 165/333/25 166/334/26 

vt 8.08148 -2.0567
vt 8.08148 -2.04128
vt 7.93108 -2.04128
vt 7.93108 -2.0567
f 9/335/25 10/336/4 164/337/4 165/338/25 

vt -8.08148 2.13378
vt -8.08148 2.11836
vt -7.93108 2.11836
vt -7.93108 2.13378
f 10/339/4 11/340/24 163/341/24 164/342/4 

vt -8.08148 2.06598
vt -8.08148 2.05056
vt -7.93108 2.05056
vt -7.93108 2.06598
f 11/343/24 13/344/23 162/345/23 163/346/24 

vt -8.08148 1.8579
vt -8.08148 1.84249
vt -7.93108 1.84249
vt -7.93108 1.8579
f 13/347/23 14/348/22 161/349/22 162/350/23 

vt -8.08148 1.52374
vt -8.08148 1.50832
vt -7.93108 1.50832
vt -7.93108 1.52374
f 14/351/22 15/352/21 152/353/21 161/354/22 

vt -8.08148 1.08626
vt -8.08148 1.07085
vt -7.93108 1.07085
vt -7.93108 1.08626
f 15/355/21 16/356/20 151/357/20 152/358/21 

vt -8.08148 0.575286
vt -8.08148 0.55987
vn 0 -4.75916e-16 -1
vt -7.93108 0.55987
vt -7.93108 0.575286
f 16/359/20 17/360/42 150/361/42 151/362/20 

vt -8.08148 0.0256289
vt -8.08148 0.0102125
vt -7.93108 0.0102125
vt -7.93108 0.0256289
f 17/363/42 18/364/19 149/365/19 150/366/42 

vt -8.08148 -0.52525
vt -8.08148 -0.540666
vt -7.93108 -0.540666
vt -7.93108 -0.52525
f 18/367/19 19/368/18 148/369/18 149/370/19 

vt -8.08148 -1.03981
vt -8.08148 -1.05522
vt -7.93108 -1.05522
vt -7.93108 -1.03981
f 19/371/18 20/372/17 147/373/17 148/374/18 

vt -8.08148 -1.48298
vt -8.08148 -1.4984
vt -7.93108 -1.4984
vt -7.93108 -1.48298
f 20/375/17 21/376/16 146/377/16 147/378/17 

vt -8.08148 -1.82456
vt -8.08148 -1.83998
vt -7.93108 -1.83998
vt -7.93108 -1.82456
f 21/379/16 23/380/15 145/381/15 146/382/16 

vt -8.08148 -2.04128
v 205.269 6 -53.4808
vt -8.08148 -2.0567
vt -7.93108 -2.0567
vt -7.93108 -2.04128
f 23/383/15 169/384/6 144/385/6 145/386/15 

f 23/25/3 24/26/3 169/265/3

v 205.269 6.05111 -53.8691
f 169/265/3 24/26/3 170/264/3

v 205.269 6.20096 -54.2308
f 170/264/3 24/26/3 171/263/3

v 205.269 6.43934 -54.5415
f 171/263/3 24/26/3 172/262/3

v 205.269 6.75 -54.7799
f 172/262/3 24/26/3 173/261/3

v 205.269 7.11177 -54.9297
f 173/261/3 24/26/3 174/260/3

f 174/260/3 24/26/3 1/7/3

f 5/5/3 1/7/3 24/26/3

vt 8.08148 0
v 206.269 0 -69.3078
vt 8.12085 0
v 206.269 15 -69.3078
vt 8.12085 0.590551
vt 8.08148 0.590551
f 24/387/1 175/388/1 176/389/1 5/390/1 

vt -8.12085 2.72865
f 24/29/4 66/80/4 175/391/4

v 207.531 0 -66.6642
vt -8.17053 2.62458
f 175/391/4 66/80/4 177/392/4

v 207.127 0 -76.4519
vt -8.1546 3.00992
f 177/392/4 66/80/4 178/393/4

vt -7.89329 0
vn 0.0784624 0 -0.996917
vt -7.8776 0
vt -7.8776 0.590551
v 207.127 15 -76.4519
vt -7.89329 0.590551
f 178/394/43 66/395/43 37/396/43 179/397/43 

v 207.531 15 -66.6642
vt 8.17053 2.62458
vt 8.1546 3.00992
f 37/47/6 180/398/6 179/399/6

vt 8.12085 2.72865
f 37/47/6 176/400/6 180/398/6

f 37/47/6 5/34/6 176/400/6

vt 1.03584 0
vn -0.902456 0 0.430783
vt 1.15116 0
vt 1.15116 0.590551
vt 1.03584 0.590551
f 175/401/44 177/402/44 180/403/44 176/404/44 

vt 1.86256 0
vn -0.863013 0 0.505181
v 207.609 0 -66.5315
vt 1.86861 0
v 207.609 15 -66.5315
vt 1.86861 0.590551
vt 1.86256 0.590551
f 177/405/45 181/406/45 182/407/45 180/408/45 

v 207.883 0 -76.2064
vt -8.18435 3.00025
vt -8.17358 2.61935
f 177/392/4 183/409/4 181/410/4

v 207.514 0 -76.3589
vt -8.16986 3.00626
f 177/392/4 184/411/4 183/409/4

f 177/392/4 178/393/4 184/411/4

vt -7.24238 0
vn 0.233435 0 -0.972372
vt -7.22669 0
vt -7.22669 0.590551
v 207.514 15 -76.3589
vt -7.24238 0.590551
f 184/412/46 178/413/46 179/414/46 185/415/46 

vt 8.16986 3.00626
f 179/399/6 180/398/6 185/416/6

v 207.883 15 -76.2064
vt 8.18435 3.00025
f 185/416/6 180/398/6 186/417/6

vt 8.17358 2.61935
f 186/417/6 180/398/6 182/418/6

v 207.708 15 -66.4137
vt 8.17748 2.61471
f 186/417/6 182/418/6 187/419/6

vt 3.24753 0
vn -0.766029 0 0.642806
v 207.708 0 -66.4137
vt 3.25359 0
vt 3.25359 0.590551
vt 3.24753 0.590551
f 181/420/47 188/421/47 187/422/47 182/423/47 

vt -8.17748 2.61471
f 181/410/4 183/409/4 188/424/4

v 207.825 0 -66.3141
vt -8.18209 2.61079
f 188/424/4 183/409/4 189/425/4

v 207.957 0 -66.2357
vt -8.1873 2.6077
f 189/425/4 183/409/4 190/426/4

v 208.222 0 -75.9981
vt -8.19773 2.99205
f 190/426/4 183/409/4 191/427/4

vt -5.42641 0
vn 0.522495 0 -0.852643
vt -5.41072 0
vt -5.41072 0.590551
v 208.222 15 -75.9981
vt -5.42641 0.590551
f 191/428/48 183/429/48 186/430/48 192/431/48 

vt -6.41321 0
vn 0.382683 0 -0.92388
vt -6.39752 0
vt -6.39752 0.590551
vt -6.41321 0.590551
f 183/432/49 184/433/49 185/434/49 186/435/49 

v 207.957 15 -66.2357
vt 8.1873 2.6077
vt 8.19773 2.99205
f 186/417/6 193/436/6 192/437/6

v 207.825 15 -66.3141
vt 8.18209 2.61079
f 186/417/6 194/438/6 193/436/6

f 186/417/6 187/419/6 194/438/6

vt 4.53972 0
vn -0.647398 0 0.762152
vt 4.54578 0
vt 4.54578 0.590551
vt 4.53972 0.590551
f 188/439/50 189/440/50 194/441/50 187/442/50 

vt 5.70368 0
vn -0.51038 0 0.859949
vt 5.70974 0
vt 5.70974 0.590551
vt 5.70368 0.590551
f 189/443/51 190/444/51 193/445/51 194/446/51 

vt 6.70586 0
vn -0.358911 0 0.933372
v 208.101 0 -66.1805
vt 6.71191 0
v 208.101 15 -66.1805
vt 6.71191 0.590551
vt 6.70586 0.590551
f 190/447/52 195/448/52 196/449/52 193/450/52 

vt -8.19295 2.60553
f 190/426/4 191/427/4 195/451/4

v 208.252 0 -66.1501
vt -8.19888 2.60434
f 195/451/4 191/427/4 197/452/4

v 208.526 0 -75.7393
vt -8.20967 2.98186
f 197/452/4 191/427/4 198/453/4

vt -4.30602 0
vn 0.649458 0 -0.760398
vt -4.29033 0
vt -4.29033 0.590551
v 208.526 15 -75.7393
vt -4.30602 0.590551
f 198/454/53 191/455/53 192/456/53 199/457/53 

v 208.252 15 -66.1501
vt 8.19888 2.60434
vt 8.20967 2.98186
f 192/437/6 200/458/6 199/459/6

vt 8.19295 2.60553
f 192/437/6 196/460/6 200/458/6

f 192/437/6 193/436/6 196/460/6

vt 7.51776 0
vn -0.197316 0 0.98034
vt 7.52382 0
vt 7.52382 0.590551
vt 7.51776 0.590551
f 195/461/54 197/462/54 200/463/54 196/464/54 

vt 8.11687 0
vn -0.0300661 0 0.999548
v 208.405 0 -66.1455
vt 8.12293 0
v 208.405 15 -66.1455
vt 8.12293 0.590551
vt 8.11687 0.590551
f 197/465/55 201/466/55 202/467/55 200/468/55 

vt -8.20493 2.60415
f 197/452/4 198/453/4 201/469/4

v 208.558 0 -66.1667
vt -8.21093 2.60499
f 201/469/4 198/453/4 203/470/4

v 208.784 0 -75.4362
vt -8.21986 2.96993
f 203/470/4 198/453/4 204/471/4

vt -3.08011 0
vn 0.760399 0 -0.649456
vt -3.06442 0
vt -3.06442 0.590551
v 208.784 15 -75.4362
vt -3.08011 0.590551
f 204/472/56 198/473/56 199/474/56 205/475/56 

v 208.558 15 -66.1667
vt 8.21093 2.60499
vt 8.21986 2.96993
f 199/459/6 206/476/6 205/477/6

vt 8.20493 2.60415
f 199/459/6 202/478/6 206/476/6

f 199/459/6 200/458/6 202/478/6

vt 8.48577 0
vn 0.137977 0 0.990435
vt 8.49182 0
vt 8.49182 0.590551
vt 8.48577 0.590551
f 201/479/57 203/480/57 206/481/57 202/482/57 

vt 8.61425 0
vn 0.302146 0 0.953262
v 208.704 0 -66.2132
vt 8.62031 0
v 208.704 15 -66.2132
vt 8.62031 0.590551
vt 8.61425 0.590551
f 203/483/58 207/484/58 208/485/58 206/486/58 

vt -8.2167 2.60682
f 203/470/4 204/471/4 207/487/4

v 208.841 0 -66.2836
vt -8.22208 2.60959
f 207/487/4 204/471/4 209/488/4

v 208.993 0 -75.0963
vt -8.22806 2.95655
f 209/488/4 204/471/4 210/489/4

vt -1.77823 0
vn 0.852643 0 -0.522494
vt -1.76253 0
vt -1.76253 0.590551
v 208.993 15 -75.0963
vt -1.77823 0.590551
f 210/490/59 204/491/59 205/492/59 211/493/59 

v 208.841 15 -66.2836
vt 8.22208 2.60959
vt 8.22806 2.95655
f 205/477/6 212/494/6 211/495/6

vt 8.2167 2.60682
f 205/477/6 208/496/6 212/494/6

f 205/477/6 206/476/6 208/496/6

vt 8.49866 0
vn 0.457706 0 0.889104
vt 8.50471 0
vt 8.50471 0.590551
vt 8.49866 0.590551
f 207/497/60 209/498/60 212/499/60 208/500/60 

vt 8.14209 0
vn 0.600373 0 0.79972
v 208.964 0 -66.3759
vt 8.14815 0
v 208.964 15 -66.3759
vt 8.14815 0.590551
vt 8.14209 0.590551
f 209/501/61 213/502/61 214/503/61 212/504/61 

vt -8.22693 2.61322
f 209/488/4 210/489/4 213/505/4

v 209.07 0 -66.4875
vt -8.23109 2.61762
f 213/505/4 210/489/4 215/506/4

v 209.145 0 -74.7281
vt -8.23406 2.94205
f 215/506/4 210/489/4 216/507/4

vt -0.432896 0
vn 0.923881 0 -0.382679
vt -0.417204 0
vt -0.417204 0.590551
v 209.145 15 -74.7281
vt -0.432896 0.590551
f 216/508/62 210/509/62 211/510/62 217/511/62 

v 209.07 15 -66.4875
vt 8.23109 2.61762
vt 8.23406 2.94205
f 211/495/6 218/512/6 217/513/6

vt 8.22693 2.61322
f 211/495/6 214/514/6 218/512/6

f 211/495/6 212/494/6 214/514/6

vt 7.55479 0
vn 0.726005 0 0.68769
vt 7.56084 0
vt 7.56084 0.590551
vt 7.55479 0.590551
f 213/515/63 215/516/63 218/517/63 214/518/63 

vt 6.75338 0
vn 0.831061 0 0.556182
v 209.155 0 -66.6153
vt 6.75944 0
v 209.155 15 -66.6153
vt 6.75944 0.590551
vt 6.75338 0.590551
f 215/519/64 219/520/64 220/521/64 218/522/64 

vt -8.23446 2.62265
f 215/506/4 216/507/4 219/523/4

v 209.238 0 -74.3406
vt -8.23772 2.92679
f 219/523/4 216/507/4 221/524/4

vt 0.92279 0
vn 0.972368 0 -0.233454
vt 0.938482 0
vt 0.938482 0.590551
v 209.238 15 -74.3406
vt 0.92279 0.590551
f 221/525/65 216/526/65 217/527/65 222/528/65 

vt 8.23446 2.62265
vt 8.23772 2.92679
f 217/513/6 220/529/6 222/530/6

f 217/513/6 218/512/6 220/529/6

v 209.218 15 -66.7557
vt 8.23693 2.62818
f 222/530/6 220/529/6 223/531/6

vt 5.76091 0
vn 0.91255 0 0.408965
v 209.218 0 -66.7557
vt 5.76696 0
vt 5.76696 0.590551
vt 5.76091 0.590551
f 219/532/66 224/533/66 223/534/66 220/535/66 

vt -8.23693 2.62818
f 219/523/4 221/524/4 224/536/4

v 209.257 0 -66.9045
vt -8.23845 2.63404
f 224/536/4 221/524/4 225/537/4

v 209.269 0 -73.9432
vt -8.23896 2.91115
f 225/537/4 221/524/4 226/538/4

vt 2.25581 0
vn 0.996918 0 -0.0784522
vt 2.27151 0
vt 2.27151 0.590551
v 209.269 15 -73.9432
vt 2.25581 0.590551
f 226/539/67 221/540/67 222/541/67 227/542/67 

v 209.257 15 -66.9045
vt 8.23845 2.63404
vt 8.23896 2.91115
f 222/530/6 228/543/6 227/544/6

f 222/530/6 223/531/6 228/543/6

vt 4.60456 0
vn 0.968225 0 0.250081
vt 4.61062 0
vt 4.61062 0.590551
vt 4.60456 0.590551
f 224/545/68 225/546/68 228/547/68 223/548/68 

vt 3.31793 0
vn 0.996453 0 0.0841458
v 209.269 0 -67.0578
vt 3.32398 0
v 209.269 15 -67.0578
vt 3.32398 0.590551
vt 3.31793 0.590551
f 225/549/69 229/550/69 230/551/69 228/552/69 

vt -8.23896 2.64007
f 225/537/4 226/538/4 229/553/4

vt 2.64007 0
vt 2.91115 0
vt 2.91115 0.590551
vt 2.64007 0.590551
f 229/554/3 226/555/3 227/556/3 230/557/3 

vt 8.23896 2.64007
f 227/544/6 228/543/6 230/558/6

vt 8.08148 0.55987
vt 8.08148 0.575286
vt 7.93108 0.575286
vt 7.93108 0.55987
f 174/559/10 1/560/1 4/561/1 139/562/10 

vt 8.08148 1.07085
vt 8.08148 1.08626
vt 7.93108 1.08626
vt 7.93108 1.07085
f 173/563/11 174/564/10 139/565/10 140/566/11 

vt 8.08148 1.50832
vt 8.08148 1.52374
vt 7.93108 1.52374
vt 7.93108 1.50832
f 172/567/12 173/568/11 140/569/11 141/570/12 

vt 8.08148 1.84249
vt 8.08148 1.8579
vt 7.93108 1.8579
vt 7.93108 1.84249
f 171/571/13 172/572/12 141/573/12 142/574/13 

vt 8.08148 2.05056
vt 8.08148 2.06598
vt 7.93108 2.06598
vt 7.93108 2.05056
f 170/575/14 171/576/13 142/577/13 143/578/14 

vt 8.08148 2.11836
vt 8.08148 2.13378
vt 7.93108 2.13378
vt 7.93108 2.11836
f 169/579/6 170/580/14 143/581/14 144/582/6 

vt 7.29091 0
vn 0.546945 0 0.837169
vt 7.29416 0
vt 7.29416 0.590551
vt 7.29091 0.590551
f 133/583/70 134/584/70 123/585/70 124/586/70 

vt 6.66849 0
vn 0.677266 0 0.735738
vt 6.67174 0
vt 6.67174 0.590551
vt 6.66849 0.590551
f 132/587/71 133/588/71 124/589/71 125/590/71 

vt 5.86394 0
vn 0.789143 0 0.61421
vt 5.86719 0
vt 5.86719 0.590551
vt 5.86394 0.590551
f 131/591/72 132/592/72 125/593/72 126/594/72 

vt 4.89949 0
vn 0.879476 0 0.475942
vt 4.90274 0
vt 4.90274 0.590551
vt 4.89949 0.590551
f 130/595/73 131/596/73 126/597/73 127/598/73 

vt 3.80137 0
vn 0.945818 0 0.324696
vt 3.80462 0
vt 3.80462 0.590551
vt 3.80137 0.590551
f 129/599/74 130/600/74 127/601/74 128/602/74 

vt 1.32671 0
vt 1.32996 0
vt 1.32996 0.590551
vt 1.32671 0.590551
f 62/603/3 63/604/3 40/605/3 41/606/3 

vt 0.0176674 0
vn 0.986361 0 -0.164594
vt 0.0209185 0
vt 0.0209185 0.590551
vt 0.0176674 0.590551
f 61/607/75 62/608/75 41/609/75 43/610/75 

vt -1.29189 0
vn 0.945818 0 -0.324696
vt -1.28864 0
vt -1.28864 0.590551
vt -1.29189 0.590551
f 60/611/76 61/612/76 43/613/76 44/614/76 

vt -2.56642 0
vn 0.879466 0 -0.475962
vt -2.56317 0
vt -2.56317 0.590551
vt -2.56642 0.590551
f 59/615/77 60/616/77 44/617/77 45/618/77 

vt -3.7707 0
vn 0.789143 0 -0.61421
vt -3.76744 0
vt -3.76744 0.590551
vt -3.7707 0.590551
f 58/619/78 59/620/78 45/621/78 46/622/78 

vt -4.87225 0
vn 0.677291 0 -0.735715
vt -4.869 0
vt -4.869 0.590551
vt -4.87225 0.590551
f 57/623/79 58/624/79 46/625/79 47/626/79 

vt -5.84111 0
vn 0.546945 0 -0.837169
vt -5.83786 0
vt -5.83786 0.590551
vt -5.84111 0.590551
f 56/627/80 57/628/80 47/629/80 48/630/80 

vt -6.65051 0
vn 0.401704 0 -0.91577
vt -6.64726 0
vt -6.64726 0.590551
vt -6.65051 0.590551
f 55/631/81 56/632/81 48/633/81 49/634/81 

vt -7.27868 0
vn 0.245479 0 -0.969402
vt -7.27543 0
vt -7.27543 0.590551
vt -7.27868 0.590551
f 54/635/82 55/636/82 49/637/82 50/638/82 

v 199.215 0 -33.2398
vt -7.70823 0
vn 0.0825953 0 -0.996583
vt -7.70498 0
vt -7.70498 0.590551
v 199.215 15 -33.2398
vt -7.70823 0.590551
f 231/639/83 54/640/83 50/641/83 232/642/83 

vt -7.84312 1.30865
f 53/68/4 54/67/4 231/643/4

v 206.539 0 -33.2398
vt -8.13148 1.30865
f 53/68/4 231/643/4 233/644/4

vt -8.13148 0
vt -7.84312 0
vt -7.84312 0.590551
v 206.539 15 -33.2398
vt -8.13148 0.590551
f 233/645/7 231/646/7 232/647/7 234/648/7 

vt 7.84312 1.30865
vt 8.13148 1.30865
f 232/649/6 51/61/6 234/650/6

f 50/60/6 51/61/6 232/649/6

v 206.539 15 -35.1696
vt 8.13148 1.38463
f 234/650/6 51/61/6 235/651/6

v 206.785 15 -35.4196
vt 8.14116 1.39447
f 235/651/6 51/61/6 236/652/6

v 206.828 15 -35.4166
vt 8.14285 1.39435
f 236/652/6 51/61/6 237/653/6

v 206.87 15 -35.4062
vt 8.1445 1.39394
f 237/653/6 51/61/6 238/654/6

v 206.91 15 -35.3888
vt 8.14605 1.39326
f 238/654/6 51/61/6 239/655/6

v 206.946 15 -35.3648
vt 8.14747 1.39232
f 239/655/6 51/61/6 240/656/6

v 211.941 15 -31.3689
vt 8.34412 1.235
f 240/656/6 51/61/6 241/657/6

v 211.71 15 -30.4852
vt 8.33504 1.20021
f 241/657/6 51/61/6 242/658/6

vt 8.40223 0
vn 0.0821364 0 0.996621
v 211.71 0 -30.4852
vt 8.40546 0
vt 8.40546 0.590551
vt 8.40223 0.590551
f 53/659/84 243/660/84 242/661/84 51/662/84 

v 211.941 0 -31.3689
vt -8.34412 1.235
vt -8.33504 1.20021
f 53/68/4 244/663/4 243/664/4

v 206.946 0 -35.3648
vt -8.14747 1.39232
f 53/68/4 245/665/4 244/663/4

v 206.91 0 -35.3888
vt -8.14605 1.39326
f 53/68/4 246/666/4 245/665/4

v 206.87 0 -35.4062
vt -8.1445 1.39394
f 53/68/4 247/667/4 246/666/4

v 206.828 0 -35.4166
vt -8.14285 1.39435
f 53/68/4 248/668/4 247/667/4

v 206.785 0 -35.4196
vt -8.14116 1.39447
f 53/68/4 249/669/4 248/668/4

f 53/68/4 233/644/4 249/669/4

v 206.539 0 -35.1696
vt -8.13148 1.38463
f 249/669/4 233/644/4 250/670/4

vt -1.38463 0
vt -1.30865 0
vt -1.30865 0.590551
vt -1.38463 0.590551
f 250/671/8 233/672/8 234/673/8 235/674/8 

vt -6.70388 0
vn -0.712806 0 -0.701362
vt -6.69008 0
vt -6.69008 0.590551
vt -6.70388 0.590551
f 249/675/85 250/676/85 235/677/85 236/678/85 

vt -8.025 0
vn 0.0701407 0 -0.997537
vt -8.0233 0
vt -8.0233 0.590551
vt -8.025 0.590551
f 248/679/86 249/680/86 236/681/86 237/682/86 

vt -7.57026 0
vn 0.240485 0 -0.970653
vt -7.56856 0
vt -7.56856 0.590551
vt -7.57026 0.590551
f 247/683/87 248/684/87 237/685/87 238/686/87 

vt -6.88997 0
vn 0.403765 0 -0.914863
vt -6.88827 0
vt -6.88827 0.590551
vt -6.88997 0.590551
f 246/687/88 247/688/88 238/689/88 239/690/88 

vt -6.00469 0
vn 0.555006 0 -0.831846
vt -6.003 0
vt -6.003 0.590551
vt -6.00469 0.590551
f 245/691/89 246/692/89 239/693/89 240/694/89 

vt -5.74417 0
vn 0.624695 0 -0.780869
vt -5.49233 0
vt -5.49233 0.590551
vt -5.74417 0.590551
f 244/695/90 245/696/90 240/697/90 241/698/90 

v 212.127 0 -31.0153
vt -2.81255 0
vn 0.884716 0 -0.46613
vt -2.79682 0
vt -2.79682 0.590551
v 212.127 15 -31.0153
vt -2.81255 0.590551
f 251/699/91 244/700/91 241/701/91 252/702/91 

v 211.995 0 -30.6382
vt -8.34624 1.20623
vt -8.35145 1.22108
f 253/703/4 244/663/4 251/704/4

v 211.934 0 -30.5828
vt -8.34385 1.20405
f 254/705/4 244/663/4 253/703/4

v 211.865 0 -30.5381
vt -8.34114 1.20229
f 255/706/4 244/663/4 254/705/4

v 211.79 0 -30.5053
vt -8.33818 1.201
f 256/707/4 244/663/4 255/706/4

f 243/664/4 244/663/4 256/707/4

vt 8.37581 0
vn 0.24418 0 0.96973
vt 8.37904 0
v 211.79 15 -30.5053
vt 8.37904 0.590551
vt 8.37581 0.590551
f 243/708/92 256/709/92 257/710/92 242/711/92 

vt 8.12329 0
vn 0.399662 0 0.916662
vt 8.12652 0
v 211.865 15 -30.5381
vt 8.12652 0.590551
vt 8.12329 0.590551
f 256/712/93 255/713/93 258/714/93 257/715/93 

vt 7.65154 0
vn 0.544342 0 0.838864
vt 7.65477 0
v 211.934 15 -30.5828
vt 7.65477 0.590551
vt 7.65154 0.590551
f 255/716/94 254/717/94 259/718/94 258/719/94 

vt 6.97325 0
vn 0.674334 0 0.738426
vt 6.97648 0
v 211.995 15 -30.6382
vt 6.97648 0.590551
vt 6.97325 0.590551
f 254/720/95 253/721/95 260/722/95 259/723/95 

vt 6.10688 0
vn 0.786115 0 0.61808
v 212.045 0 -30.7028
vt 6.11011 0
v 212.045 15 -30.7028
vt 6.11011 0.590551
vt 6.10688 0.590551
f 253/724/96 261/725/96 262/726/96 260/727/96 

vt -8.34824 1.20877
f 253/703/4 251/704/4 261/728/4

v 212.085 0 -30.7748
vt -8.3498 1.21161
f 261/728/4 251/704/4 263/729/4

v 212.112 0 -30.8523
vt -8.35087 1.21466
f 263/729/4 251/704/4 264/730/4

v 212.126 0 -30.9332
vt -8.35142 1.21784
f 264/730/4 251/704/4 265/731/4

vt 1.28839 0
vn 0.999964 0 0.00845282
vt 1.29163 0
vt 1.29163 0.590551
v 212.126 15 -30.9332
vt 1.28839 0.590551
f 265/732/97 251/733/97 252/734/97 266/735/97 

vt 8.35145 1.22108
v 212.112 15 -30.8523
vt 8.35087 1.21466
vt 8.35142 1.21784
f 252/736/6 267/737/6 266/738/6

v 212.085 15 -30.7748
vt 8.3498 1.21161
f 252/736/6 268/739/6 267/737/6

vt 8.34824 1.20877
f 252/736/6 262/740/6 268/739/6

vt 8.34624 1.20623
f 252/736/6 260/741/6 262/740/6

f 241/657/6 260/741/6 252/736/6

vt 8.34385 1.20405
f 241/657/6 259/742/6 260/741/6

vt 8.34114 1.20229
f 241/657/6 258/743/6 259/742/6

vt 8.33818 1.201
f 241/657/6 257/744/6 258/743/6

f 241/657/6 242/658/6 257/744/6

vt 5.07537 0
vn 0.876713 0 0.481015
vt 5.0786 0
vt 5.0786 0.590551
vt 5.07537 0.590551
f 261/745/98 263/746/98 268/747/98 262/748/98 

vt 3.90731 0
vn 0.943621 0 0.331028
vt 3.91055 0
vt 3.91055 0.590551
vt 3.90731 0.590551
f 263/749/99 264/750/99 267/751/99 268/752/99 

vt 2.63312 0
vn 0.985092 0 0.172027
vt 2.63636 0
vt 2.63636 0.590551
vt 2.63312 0.590551
f 264/753/100 265/754/100 266/755/100 267/756/100 

