%TF.GenerationSoftware,KiCad,Pcbnew,9.0.7*%
%TF.CreationDate,2026-07-21T13:24:13+02:00*%
%TF.ProjectId,MotorCombo_THT,4d6f746f-7243-46f6-9d62-6f5f5448542e,rev?*%
%TF.SameCoordinates,Original*%
%TF.FileFunction,Copper,L2,Bot*%
%TF.FilePolarity,Positive*%
%FSLAX46Y46*%
G04 Gerber Fmt 4.6, Leading zero omitted, Abs format (unit mm)*
G04 Created by KiCad (PCBNEW 9.0.7) date 2026-07-21 13:24:13*
%MOMM*%
%LPD*%
G01*
G04 APERTURE LIST*
G04 Aperture macros list*
%AMRoundRect*
0 Rectangle with rounded corners*
0 $1 Rounding radius*
0 $2 $3 $4 $5 $6 $7 $8 $9 X,Y pos of 4 corners*
0 Add a 4 corners polygon primitive as box body*
4,1,4,$2,$3,$4,$5,$6,$7,$8,$9,$2,$3,0*
0 Add four circle primitives for the rounded corners*
1,1,$1+$1,$2,$3*
1,1,$1+$1,$4,$5*
1,1,$1+$1,$6,$7*
1,1,$1+$1,$8,$9*
0 Add four rect primitives between the rounded corners*
20,1,$1+$1,$2,$3,$4,$5,0*
20,1,$1+$1,$4,$5,$6,$7,0*
20,1,$1+$1,$6,$7,$8,$9,0*
20,1,$1+$1,$8,$9,$2,$3,0*%
G04 Aperture macros list end*
%TA.AperFunction,ComponentPad*%
%ADD10RoundRect,0.250000X0.625000X-0.350000X0.625000X0.350000X-0.625000X0.350000X-0.625000X-0.350000X0*%
%TD*%
%TA.AperFunction,ComponentPad*%
%ADD11O,1.750000X1.200000*%
%TD*%
%TA.AperFunction,ComponentPad*%
%ADD12C,1.600000*%
%TD*%
%TA.AperFunction,ComponentPad*%
%ADD13RoundRect,0.250000X-0.350000X-0.625000X0.350000X-0.625000X0.350000X0.625000X-0.350000X0.625000X0*%
%TD*%
%TA.AperFunction,ComponentPad*%
%ADD14O,1.200000X1.750000*%
%TD*%
%TA.AperFunction,ComponentPad*%
%ADD15C,1.400000*%
%TD*%
%TA.AperFunction,ComponentPad*%
%ADD16RoundRect,0.250000X-0.950000X-0.550000X0.950000X-0.550000X0.950000X0.550000X-0.950000X0.550000X0*%
%TD*%
%TA.AperFunction,ComponentPad*%
%ADD17O,2.400000X1.600000*%
%TD*%
%TA.AperFunction,ComponentPad*%
%ADD18C,1.500000*%
%TD*%
%TA.AperFunction,ComponentPad*%
%ADD19RoundRect,0.250000X-1.050000X-1.050000X1.050000X-1.050000X1.050000X1.050000X-1.050000X1.050000X0*%
%TD*%
%TA.AperFunction,ComponentPad*%
%ADD20C,2.600000*%
%TD*%
%TA.AperFunction,Conductor*%
%ADD21C,0.200000*%
%TD*%
G04 APERTURE END LIST*
D10*
%TO.P,Temp1,1,1*%
%TO.N,Net-(C4-Pad2)*%
X81800000Y-79000000D03*
D11*
%TO.P,Temp1,2,2*%
%TO.N,GND*%
X81800000Y-77000000D03*
%TO.P,Temp1,3,3*%
%TO.N,Net-(C4-Pad2)*%
X81800000Y-75000000D03*
%TD*%
D12*
%TO.P,C3,1*%
%TO.N,GND*%
X82500000Y-100500000D03*
%TO.P,C3,2*%
%TO.N,Net-(C3-Pad2)*%
X82500000Y-95500000D03*
%TD*%
D13*
%TO.P,3V3 IN,1,Pin_1*%
%TO.N,GND*%
X68000000Y-114000000D03*
D14*
%TO.P,3V3 IN,2,Pin_2*%
%TO.N,Net-(ESP-01-CH_PD)*%
X70000000Y-114000000D03*
%TD*%
D12*
%TO.P,C5,1*%
%TO.N,GND*%
X93500000Y-100500000D03*
%TO.P,C5,2*%
%TO.N,Net-(C5-Pad2)*%
X93500000Y-95500000D03*
%TD*%
D15*
%TO.P,R5,1*%
%TO.N,Net-(ESP-01-CH_PD)*%
X82500000Y-92310000D03*
%TO.P,R5,2*%
%TO.N,Net-(C3-Pad2)*%
X82500000Y-84690000D03*
%TD*%
D12*
%TO.P,C1,1*%
%TO.N,GND*%
X64000000Y-104000000D03*
%TO.P,C1,2*%
%TO.N,Net-(Batt1-Pad3)*%
X64000000Y-99000000D03*
%TD*%
D15*
%TO.P,R3,1*%
%TO.N,Net-(Batt2-Pad1)*%
X73000000Y-92270000D03*
%TO.P,R3,2*%
%TO.N,Net-(Batt2-Pad3)*%
X73000000Y-84650000D03*
%TD*%
D16*
%TO.P,PC817,1*%
%TO.N,Net-(PC817-Pad1)*%
X109940000Y-74975000D03*
D17*
%TO.P,PC817,2*%
%TO.N,GND*%
X109940000Y-77515000D03*
%TO.P,PC817,3*%
X117560000Y-77515000D03*
%TO.P,PC817,4*%
%TO.N,Net-(ESP-01-GPIO0)*%
X117560000Y-74975000D03*
%TD*%
D15*
%TO.P,R4,1*%
%TO.N,Net-(Batt2-Pad3)*%
X73000000Y-98000000D03*
%TO.P,R4,2*%
%TO.N,GND*%
X73000000Y-105620000D03*
%TD*%
%TO.P,R10,1*%
%TO.N,Net-(C6-Pad1)*%
X110690000Y-87000000D03*
%TO.P,R10,2*%
%TO.N,Net-(ESP-01-GPIO2)*%
X118310000Y-87000000D03*
%TD*%
%TO.P,R9,1*%
%TO.N,Net-(ESP-01-GPIO0)*%
X122000000Y-74940000D03*
%TO.P,R9,2*%
%TO.N,Net-(ESP-01-CH_PD)*%
X122000000Y-82560000D03*
%TD*%
D12*
%TO.P,C6,1*%
%TO.N,Net-(C6-Pad1)*%
X105750000Y-87000000D03*
%TO.P,C6,2*%
%TO.N,GND*%
X100750000Y-87000000D03*
%TD*%
D10*
%TO.P,Batt2,1,1*%
%TO.N,Net-(Batt2-Pad1)*%
X70100000Y-79000000D03*
D11*
%TO.P,Batt2,2,2*%
%TO.N,GND*%
X70100000Y-77000000D03*
%TO.P,Batt2,3,3*%
%TO.N,Net-(Batt2-Pad3)*%
X70100000Y-75000000D03*
%TD*%
D10*
%TO.P,Oil1,1,1*%
%TO.N,Net-(C5-Pad2)*%
X87650000Y-79000000D03*
D11*
%TO.P,Oil1,2,2*%
%TO.N,GND*%
X87650000Y-77000000D03*
%TO.P,Oil1,3,3*%
%TO.N,Net-(C5-Pad2)*%
X87650000Y-75000000D03*
%TD*%
D18*
%TO.P,ESP-01,1,UTXD*%
%TO.N,GND*%
X119580000Y-98000000D03*
%TO.P,ESP-01,2,GND*%
%TO.N,Net-(ESP-01-GPIO2)*%
X117040000Y-98000000D03*
%TO.P,ESP-01,3,CH_PD*%
%TO.N,Net-(ESP-01-GPIO0)*%
X114500000Y-98000000D03*
%TO.P,ESP-01,4,GPIO2*%
%TO.N,unconnected-(ESP-01-URXD-Pad8)*%
X111960000Y-98000000D03*
%TO.P,ESP-01,5,RST*%
%TO.N,unconnected-(ESP-01-RST-Pad5)*%
X119580000Y-95460000D03*
%TO.P,ESP-01,6,GPIO0*%
%TO.N,Net-(ESP-01-CH_PD)*%
X117040000Y-95460000D03*
%TO.P,ESP-01,7,VCC*%
%TO.N,unconnected-(ESP-01-RST-Pad5)*%
X114500000Y-95460000D03*
%TO.P,ESP-01,8,URXD*%
%TO.N,unconnected-(ESP-01-URXD-Pad8)*%
X111960000Y-95460000D03*
%TD*%
D15*
%TO.P,R6,1*%
%TO.N,Net-(ESP-01-CH_PD)*%
X87690000Y-92310000D03*
%TO.P,R6,2*%
%TO.N,Net-(C4-Pad2)*%
X87690000Y-84690000D03*
%TD*%
D19*
%TO.P,GND_Collector1,1,Pin_1*%
%TO.N,GND*%
X79680000Y-114000000D03*
D20*
%TO.P,GND_Collector1,2,Pin_2*%
X84760000Y-114000000D03*
%TO.P,GND_Collector1,3,Pin_3*%
X89840000Y-114000000D03*
%TO.P,GND_Collector1,4,Pin_4*%
X94920000Y-114000000D03*
%TO.P,GND_Collector1,5,Pin_5*%
X100000000Y-114000000D03*
%TD*%
D10*
%TO.P,Tank1,1,1*%
%TO.N,Net-(C3-Pad2)*%
X75950000Y-79000000D03*
D11*
%TO.P,Tank1,2,2*%
%TO.N,GND*%
X75950000Y-77000000D03*
%TO.P,Tank1,3,3*%
%TO.N,Net-(C3-Pad2)*%
X75950000Y-75000000D03*
%TD*%
D12*
%TO.P,C2,1*%
%TO.N,GND*%
X76000000Y-104000000D03*
%TO.P,C2,2*%
%TO.N,Net-(Batt2-Pad3)*%
X76000000Y-99000000D03*
%TD*%
D15*
%TO.P,R8,1*%
%TO.N,Net-(R8-Pad1)*%
X98690000Y-75000000D03*
%TO.P,R8,2*%
%TO.N,Net-(PC817-Pad1)*%
X106310000Y-75000000D03*
%TD*%
D10*
%TO.P,Batt1,1,1*%
%TO.N,Net-(Batt1-Pad1)*%
X64250000Y-79000000D03*
D11*
%TO.P,Batt1,2,2*%
%TO.N,GND*%
X64250000Y-77000000D03*
%TO.P,Batt1,3,3*%
%TO.N,Net-(Batt1-Pad3)*%
X64250000Y-75000000D03*
%TD*%
D15*
%TO.P,R2,1*%
%TO.N,Net-(Batt1-Pad3)*%
X67000000Y-98000000D03*
%TO.P,R2,2*%
%TO.N,GND*%
X67000000Y-105620000D03*
%TD*%
D10*
%TO.P,RPM1,1,1*%
%TO.N,Net-(R8-Pad1)*%
X93500000Y-79000000D03*
D11*
%TO.P,RPM1,2,2*%
%TO.N,GND*%
X93500000Y-77000000D03*
%TO.P,RPM1,3,3*%
%TO.N,Net-(C6-Pad1)*%
X93500000Y-75000000D03*
%TD*%
D12*
%TO.P,C4,1*%
%TO.N,GND*%
X87750000Y-100500000D03*
%TO.P,C4,2*%
%TO.N,Net-(C4-Pad2)*%
X87750000Y-95500000D03*
%TD*%
D15*
%TO.P,R1,1*%
%TO.N,Net-(Batt1-Pad1)*%
X67000000Y-92270000D03*
%TO.P,R1,2*%
%TO.N,Net-(Batt1-Pad3)*%
X67000000Y-84650000D03*
%TD*%
%TO.P,R7,1*%
%TO.N,Net-(ESP-01-CH_PD)*%
X93500000Y-92270000D03*
%TO.P,R7,2*%
%TO.N,Net-(C5-Pad2)*%
X93500000Y-84650000D03*
%TD*%
D21*
%TO.N,GND*%
X79680000Y-107680000D02*
X77500000Y-105500000D01*
X116940000Y-81000000D02*
X104750000Y-81000000D01*
X79625000Y-107625000D02*
X82500000Y-104750000D01*
X68000000Y-106620000D02*
X67000000Y-105620000D01*
X93500000Y-100500000D02*
X98250000Y-100500000D01*
X109940000Y-77515000D02*
X109455000Y-78000000D01*
X82500000Y-104750000D02*
X82500000Y-100500000D01*
X109455000Y-78000000D02*
X106250000Y-78000000D01*
X82500000Y-100500000D02*
X93500000Y-100500000D01*
X104750000Y-81000000D02*
X100750000Y-85000000D01*
X100750000Y-87000000D02*
X100750000Y-85000000D01*
X117560000Y-77515000D02*
X117560000Y-80380000D01*
X100750000Y-83500000D02*
X94250000Y-77000000D01*
X117560000Y-80380000D02*
X116940000Y-81000000D01*
X77500000Y-105500000D02*
X79625000Y-107625000D01*
X100750000Y-98000000D02*
X100750000Y-87000000D01*
X98250000Y-100500000D02*
X100750000Y-98000000D01*
X106250000Y-78000000D02*
X100750000Y-83500000D01*
X77500000Y-105500000D02*
X76000000Y-104000000D01*
X79680000Y-114000000D02*
X79680000Y-107680000D01*
X68000000Y-114000000D02*
X68000000Y-106620000D01*
X94250000Y-77000000D02*
X93500000Y-77000000D01*
X100750000Y-85000000D02*
X100750000Y-83500000D01*
%TO.N,Net-(Batt1-Pad3)*%
X67000000Y-98000000D02*
X67000000Y-92000000D01*
X66250000Y-75000000D02*
X64250000Y-75000000D01*
X67000000Y-84650000D02*
X67000000Y-75750000D01*
X67000000Y-75750000D02*
X66250000Y-75000000D01*
%TO.N,Net-(Batt1-Pad1)*%
X64250000Y-92500000D02*
X64250000Y-79000000D01*
X67000000Y-92270000D02*
X67000000Y-92250000D01*
X67000000Y-95250000D02*
X64250000Y-92500000D01*
%TO.N,Net-(C3-Pad2)*%
X80250000Y-92250000D02*
X82500000Y-92250000D01*
X75950000Y-81100000D02*
X77500000Y-82650000D01*
X82500000Y-84690000D02*
X82070000Y-85120000D01*
X79250000Y-95500000D02*
X82500000Y-95500000D01*
X75950000Y-79000000D02*
X75950000Y-81100000D01*
X77500000Y-82650000D02*
X77500000Y-93750000D01*
X77500000Y-93750000D02*
X79250000Y-95500000D01*
X79000000Y-91000000D02*
X80250000Y-92250000D01*
X79000000Y-78050000D02*
X79000000Y-91000000D01*
X75950000Y-75000000D02*
X79000000Y-78050000D01*
%TO.N,Net-(C4-Pad2)*%
X81800000Y-75000000D02*
X83750000Y-75000000D01*
X82000000Y-79250000D02*
X84500000Y-81750000D01*
X82000000Y-79000000D02*
X81800000Y-79000000D01*
X84500000Y-81750000D02*
X84500000Y-92250000D01*
X87250000Y-92000000D02*
X87250000Y-92500000D01*
X85250000Y-90000000D02*
X87250000Y-92000000D01*
X85250000Y-76500000D02*
X85250000Y-90000000D01*
X84500000Y-92250000D02*
X87750000Y-95500000D01*
X83750000Y-75000000D02*
X85250000Y-76500000D01*
X82000000Y-79000000D02*
X82000000Y-79250000D01*
%TO.N,Net-(C5-Pad2)*%
X91250000Y-76000000D02*
X91250000Y-90500000D01*
X93500000Y-84650000D02*
X93300000Y-84650000D01*
X93500000Y-95500000D02*
X90250000Y-92250000D01*
X90250000Y-92250000D02*
X90250000Y-81600000D01*
X90250000Y-81600000D02*
X87650000Y-79000000D01*
X91250000Y-90500000D02*
X93000000Y-92250000D01*
X93100000Y-84650000D02*
X93300000Y-84650000D01*
X87650000Y-75000000D02*
X90250000Y-75000000D01*
X90250000Y-75000000D02*
X91250000Y-76000000D01*
%TO.N,Net-(Batt2-Pad1)*%
X70100000Y-92100000D02*
X70100000Y-79000000D01*
X73000000Y-95000000D02*
X70100000Y-92100000D01*
%TO.N,Net-(Batt2-Pad3)*%
X73000000Y-93000000D02*
X73250000Y-92750000D01*
X73000000Y-98000000D02*
X73000000Y-93000000D01*
X73000000Y-84650000D02*
X73000000Y-75750000D01*
X73000000Y-75750000D02*
X72250000Y-75000000D01*
X72250000Y-75000000D02*
X70100000Y-75000000D01*
%TO.N,unconnected-(ESP-01-UTXD-Pad1)*%
X119580000Y-100420000D02*
X119580000Y-98000000D01*
X82500000Y-104750000D02*
X115250000Y-104750000D01*
X115250000Y-104750000D02*
X119580000Y-100420000D01*
%TO.N,Net-(R8-Pad1)*%
X98250000Y-75000000D02*
X98500000Y-74750000D01*
%TO.N,Net-(ESP-01-CH_PD)*%
X93500000Y-92270000D02*
X93500000Y-100250000D01*
X87690000Y-92310000D02*
X87690000Y-100060000D01*
X87690000Y-100060000D02*
X87500000Y-100250000D01*
X82500000Y-92310000D02*
X82500000Y-100750000D01*
X93500000Y-100250000D02*
X93750000Y-100500000D01*
%TD*%
M02*
