%TF.GenerationSoftware,KiCad,Pcbnew,9.0.7*%
%TF.CreationDate,2026-07-29T06:04:00+02:00*%
%TF.ProjectId,MotorCombo_THT,4d6f746f-7243-46f6-9d62-6f5f5448542e,rev?*%
%TF.SameCoordinates,Original*%
%TF.FileFunction,Legend,Top*%
%TF.FilePolarity,Positive*%
%FSLAX46Y46*%
G04 Gerber Fmt 4.6, Leading zero omitted, Abs format (unit mm)*
G04 Created by KiCad (PCBNEW 9.0.7) date 2026-07-29 06:04:00*
%MOMM*%
%LPD*%
G01*
G04 APERTURE LIST*
%ADD10C,0.100000*%
%ADD11C,0.150000*%
%ADD12C,0.120000*%
%ADD13C,0.152400*%
G04 APERTURE END LIST*
D10*
X51902447Y-108738096D02*
X51902447Y-108928572D01*
X51902447Y-108928572D02*
X51950066Y-109023810D01*
X51950066Y-109023810D02*
X51997685Y-109071429D01*
X51997685Y-109071429D02*
X52140542Y-109166667D01*
X52140542Y-109166667D02*
X52331018Y-109214286D01*
X52331018Y-109214286D02*
X52711970Y-109214286D01*
X52711970Y-109214286D02*
X52807208Y-109166667D01*
X52807208Y-109166667D02*
X52854828Y-109119048D01*
X52854828Y-109119048D02*
X52902447Y-109023810D01*
X52902447Y-109023810D02*
X52902447Y-108833334D01*
X52902447Y-108833334D02*
X52854828Y-108738096D01*
X52854828Y-108738096D02*
X52807208Y-108690477D01*
X52807208Y-108690477D02*
X52711970Y-108642858D01*
X52711970Y-108642858D02*
X52473875Y-108642858D01*
X52473875Y-108642858D02*
X52378637Y-108690477D01*
X52378637Y-108690477D02*
X52331018Y-108738096D01*
X52331018Y-108738096D02*
X52283399Y-108833334D01*
X52283399Y-108833334D02*
X52283399Y-109023810D01*
X52283399Y-109023810D02*
X52331018Y-109119048D01*
X52331018Y-109119048D02*
X52378637Y-109166667D01*
X52378637Y-109166667D02*
X52473875Y-109214286D01*
X52807208Y-106880953D02*
X52854828Y-106928572D01*
X52854828Y-106928572D02*
X52902447Y-107071429D01*
X52902447Y-107071429D02*
X52902447Y-107166667D01*
X52902447Y-107166667D02*
X52854828Y-107309524D01*
X52854828Y-107309524D02*
X52759589Y-107404762D01*
X52759589Y-107404762D02*
X52664351Y-107452381D01*
X52664351Y-107452381D02*
X52473875Y-107500000D01*
X52473875Y-107500000D02*
X52331018Y-107500000D01*
X52331018Y-107500000D02*
X52140542Y-107452381D01*
X52140542Y-107452381D02*
X52045304Y-107404762D01*
X52045304Y-107404762D02*
X51950066Y-107309524D01*
X51950066Y-107309524D02*
X51902447Y-107166667D01*
X51902447Y-107166667D02*
X51902447Y-107071429D01*
X51902447Y-107071429D02*
X51950066Y-106928572D01*
X51950066Y-106928572D02*
X51997685Y-106880953D01*
X52902447Y-106452381D02*
X51902447Y-106452381D01*
X52902447Y-106023810D02*
X52378637Y-106023810D01*
X52378637Y-106023810D02*
X52283399Y-106071429D01*
X52283399Y-106071429D02*
X52235780Y-106166667D01*
X52235780Y-106166667D02*
X52235780Y-106309524D01*
X52235780Y-106309524D02*
X52283399Y-106404762D01*
X52283399Y-106404762D02*
X52331018Y-106452381D01*
X52902447Y-105119048D02*
X52378637Y-105119048D01*
X52378637Y-105119048D02*
X52283399Y-105166667D01*
X52283399Y-105166667D02*
X52235780Y-105261905D01*
X52235780Y-105261905D02*
X52235780Y-105452381D01*
X52235780Y-105452381D02*
X52283399Y-105547619D01*
X52854828Y-105119048D02*
X52902447Y-105214286D01*
X52902447Y-105214286D02*
X52902447Y-105452381D01*
X52902447Y-105452381D02*
X52854828Y-105547619D01*
X52854828Y-105547619D02*
X52759589Y-105595238D01*
X52759589Y-105595238D02*
X52664351Y-105595238D01*
X52664351Y-105595238D02*
X52569113Y-105547619D01*
X52569113Y-105547619D02*
X52521494Y-105452381D01*
X52521494Y-105452381D02*
X52521494Y-105214286D01*
X52521494Y-105214286D02*
X52473875Y-105119048D01*
X52235780Y-104642857D02*
X52902447Y-104642857D01*
X52331018Y-104642857D02*
X52283399Y-104595238D01*
X52283399Y-104595238D02*
X52235780Y-104500000D01*
X52235780Y-104500000D02*
X52235780Y-104357143D01*
X52235780Y-104357143D02*
X52283399Y-104261905D01*
X52283399Y-104261905D02*
X52378637Y-104214286D01*
X52378637Y-104214286D02*
X52902447Y-104214286D01*
X52235780Y-103738095D02*
X52902447Y-103738095D01*
X52331018Y-103738095D02*
X52283399Y-103690476D01*
X52283399Y-103690476D02*
X52235780Y-103595238D01*
X52235780Y-103595238D02*
X52235780Y-103452381D01*
X52235780Y-103452381D02*
X52283399Y-103357143D01*
X52283399Y-103357143D02*
X52378637Y-103309524D01*
X52378637Y-103309524D02*
X52902447Y-103309524D01*
X52854828Y-102452381D02*
X52902447Y-102547619D01*
X52902447Y-102547619D02*
X52902447Y-102738095D01*
X52902447Y-102738095D02*
X52854828Y-102833333D01*
X52854828Y-102833333D02*
X52759589Y-102880952D01*
X52759589Y-102880952D02*
X52378637Y-102880952D01*
X52378637Y-102880952D02*
X52283399Y-102833333D01*
X52283399Y-102833333D02*
X52235780Y-102738095D01*
X52235780Y-102738095D02*
X52235780Y-102547619D01*
X52235780Y-102547619D02*
X52283399Y-102452381D01*
X52283399Y-102452381D02*
X52378637Y-102404762D01*
X52378637Y-102404762D02*
X52473875Y-102404762D01*
X52473875Y-102404762D02*
X52569113Y-102880952D01*
X52902447Y-101833333D02*
X52854828Y-101928571D01*
X52854828Y-101928571D02*
X52759589Y-101976190D01*
X52759589Y-101976190D02*
X51902447Y-101976190D01*
X51902447Y-100833332D02*
X51902447Y-100261904D01*
X52902447Y-100547618D02*
X51902447Y-100547618D01*
X52902447Y-99928570D02*
X51902447Y-99928570D01*
X52378637Y-99928570D02*
X52378637Y-99357142D01*
X52902447Y-99357142D02*
X51902447Y-99357142D01*
X51902447Y-99023808D02*
X51902447Y-98452380D01*
X52902447Y-98738094D02*
X51902447Y-98738094D01*
X52902447Y-97357141D02*
X51902447Y-97357141D01*
X51902447Y-97357141D02*
X52616732Y-97023808D01*
X52616732Y-97023808D02*
X51902447Y-96690475D01*
X51902447Y-96690475D02*
X52902447Y-96690475D01*
X52902447Y-96071427D02*
X52854828Y-96166665D01*
X52854828Y-96166665D02*
X52807208Y-96214284D01*
X52807208Y-96214284D02*
X52711970Y-96261903D01*
X52711970Y-96261903D02*
X52426256Y-96261903D01*
X52426256Y-96261903D02*
X52331018Y-96214284D01*
X52331018Y-96214284D02*
X52283399Y-96166665D01*
X52283399Y-96166665D02*
X52235780Y-96071427D01*
X52235780Y-96071427D02*
X52235780Y-95928570D01*
X52235780Y-95928570D02*
X52283399Y-95833332D01*
X52283399Y-95833332D02*
X52331018Y-95785713D01*
X52331018Y-95785713D02*
X52426256Y-95738094D01*
X52426256Y-95738094D02*
X52711970Y-95738094D01*
X52711970Y-95738094D02*
X52807208Y-95785713D01*
X52807208Y-95785713D02*
X52854828Y-95833332D01*
X52854828Y-95833332D02*
X52902447Y-95928570D01*
X52902447Y-95928570D02*
X52902447Y-96071427D01*
X52235780Y-95452379D02*
X52235780Y-95071427D01*
X51902447Y-95309522D02*
X52759589Y-95309522D01*
X52759589Y-95309522D02*
X52854828Y-95261903D01*
X52854828Y-95261903D02*
X52902447Y-95166665D01*
X52902447Y-95166665D02*
X52902447Y-95071427D01*
X52902447Y-94595236D02*
X52854828Y-94690474D01*
X52854828Y-94690474D02*
X52807208Y-94738093D01*
X52807208Y-94738093D02*
X52711970Y-94785712D01*
X52711970Y-94785712D02*
X52426256Y-94785712D01*
X52426256Y-94785712D02*
X52331018Y-94738093D01*
X52331018Y-94738093D02*
X52283399Y-94690474D01*
X52283399Y-94690474D02*
X52235780Y-94595236D01*
X52235780Y-94595236D02*
X52235780Y-94452379D01*
X52235780Y-94452379D02*
X52283399Y-94357141D01*
X52283399Y-94357141D02*
X52331018Y-94309522D01*
X52331018Y-94309522D02*
X52426256Y-94261903D01*
X52426256Y-94261903D02*
X52711970Y-94261903D01*
X52711970Y-94261903D02*
X52807208Y-94309522D01*
X52807208Y-94309522D02*
X52854828Y-94357141D01*
X52854828Y-94357141D02*
X52902447Y-94452379D01*
X52902447Y-94452379D02*
X52902447Y-94595236D01*
X52902447Y-93833331D02*
X52235780Y-93833331D01*
X52426256Y-93833331D02*
X52331018Y-93785712D01*
X52331018Y-93785712D02*
X52283399Y-93738093D01*
X52283399Y-93738093D02*
X52235780Y-93642855D01*
X52235780Y-93642855D02*
X52235780Y-93547617D01*
X52807208Y-92642855D02*
X52854828Y-92690474D01*
X52854828Y-92690474D02*
X52902447Y-92833331D01*
X52902447Y-92833331D02*
X52902447Y-92928569D01*
X52902447Y-92928569D02*
X52854828Y-93071426D01*
X52854828Y-93071426D02*
X52759589Y-93166664D01*
X52759589Y-93166664D02*
X52664351Y-93214283D01*
X52664351Y-93214283D02*
X52473875Y-93261902D01*
X52473875Y-93261902D02*
X52331018Y-93261902D01*
X52331018Y-93261902D02*
X52140542Y-93214283D01*
X52140542Y-93214283D02*
X52045304Y-93166664D01*
X52045304Y-93166664D02*
X51950066Y-93071426D01*
X51950066Y-93071426D02*
X51902447Y-92928569D01*
X51902447Y-92928569D02*
X51902447Y-92833331D01*
X51902447Y-92833331D02*
X51950066Y-92690474D01*
X51950066Y-92690474D02*
X51997685Y-92642855D01*
X52902447Y-92071426D02*
X52854828Y-92166664D01*
X52854828Y-92166664D02*
X52807208Y-92214283D01*
X52807208Y-92214283D02*
X52711970Y-92261902D01*
X52711970Y-92261902D02*
X52426256Y-92261902D01*
X52426256Y-92261902D02*
X52331018Y-92214283D01*
X52331018Y-92214283D02*
X52283399Y-92166664D01*
X52283399Y-92166664D02*
X52235780Y-92071426D01*
X52235780Y-92071426D02*
X52235780Y-91928569D01*
X52235780Y-91928569D02*
X52283399Y-91833331D01*
X52283399Y-91833331D02*
X52331018Y-91785712D01*
X52331018Y-91785712D02*
X52426256Y-91738093D01*
X52426256Y-91738093D02*
X52711970Y-91738093D01*
X52711970Y-91738093D02*
X52807208Y-91785712D01*
X52807208Y-91785712D02*
X52854828Y-91833331D01*
X52854828Y-91833331D02*
X52902447Y-91928569D01*
X52902447Y-91928569D02*
X52902447Y-92071426D01*
X52902447Y-91309521D02*
X52235780Y-91309521D01*
X52331018Y-91309521D02*
X52283399Y-91261902D01*
X52283399Y-91261902D02*
X52235780Y-91166664D01*
X52235780Y-91166664D02*
X52235780Y-91023807D01*
X52235780Y-91023807D02*
X52283399Y-90928569D01*
X52283399Y-90928569D02*
X52378637Y-90880950D01*
X52378637Y-90880950D02*
X52902447Y-90880950D01*
X52378637Y-90880950D02*
X52283399Y-90833331D01*
X52283399Y-90833331D02*
X52235780Y-90738093D01*
X52235780Y-90738093D02*
X52235780Y-90595236D01*
X52235780Y-90595236D02*
X52283399Y-90499997D01*
X52283399Y-90499997D02*
X52378637Y-90452378D01*
X52378637Y-90452378D02*
X52902447Y-90452378D01*
X52902447Y-89976188D02*
X51902447Y-89976188D01*
X52283399Y-89976188D02*
X52235780Y-89880950D01*
X52235780Y-89880950D02*
X52235780Y-89690474D01*
X52235780Y-89690474D02*
X52283399Y-89595236D01*
X52283399Y-89595236D02*
X52331018Y-89547617D01*
X52331018Y-89547617D02*
X52426256Y-89499998D01*
X52426256Y-89499998D02*
X52711970Y-89499998D01*
X52711970Y-89499998D02*
X52807208Y-89547617D01*
X52807208Y-89547617D02*
X52854828Y-89595236D01*
X52854828Y-89595236D02*
X52902447Y-89690474D01*
X52902447Y-89690474D02*
X52902447Y-89880950D01*
X52902447Y-89880950D02*
X52854828Y-89976188D01*
X52902447Y-88928569D02*
X52854828Y-89023807D01*
X52854828Y-89023807D02*
X52807208Y-89071426D01*
X52807208Y-89071426D02*
X52711970Y-89119045D01*
X52711970Y-89119045D02*
X52426256Y-89119045D01*
X52426256Y-89119045D02*
X52331018Y-89071426D01*
X52331018Y-89071426D02*
X52283399Y-89023807D01*
X52283399Y-89023807D02*
X52235780Y-88928569D01*
X52235780Y-88928569D02*
X52235780Y-88785712D01*
X52235780Y-88785712D02*
X52283399Y-88690474D01*
X52283399Y-88690474D02*
X52331018Y-88642855D01*
X52331018Y-88642855D02*
X52426256Y-88595236D01*
X52426256Y-88595236D02*
X52711970Y-88595236D01*
X52711970Y-88595236D02*
X52807208Y-88642855D01*
X52807208Y-88642855D02*
X52854828Y-88690474D01*
X52854828Y-88690474D02*
X52902447Y-88785712D01*
X52902447Y-88785712D02*
X52902447Y-88928569D01*
X52902447Y-86833331D02*
X52426256Y-87166664D01*
X52902447Y-87404759D02*
X51902447Y-87404759D01*
X51902447Y-87404759D02*
X51902447Y-87023807D01*
X51902447Y-87023807D02*
X51950066Y-86928569D01*
X51950066Y-86928569D02*
X51997685Y-86880950D01*
X51997685Y-86880950D02*
X52092923Y-86833331D01*
X52092923Y-86833331D02*
X52235780Y-86833331D01*
X52235780Y-86833331D02*
X52331018Y-86880950D01*
X52331018Y-86880950D02*
X52378637Y-86928569D01*
X52378637Y-86928569D02*
X52426256Y-87023807D01*
X52426256Y-87023807D02*
X52426256Y-87404759D01*
X52854828Y-86023807D02*
X52902447Y-86119045D01*
X52902447Y-86119045D02*
X52902447Y-86309521D01*
X52902447Y-86309521D02*
X52854828Y-86404759D01*
X52854828Y-86404759D02*
X52759589Y-86452378D01*
X52759589Y-86452378D02*
X52378637Y-86452378D01*
X52378637Y-86452378D02*
X52283399Y-86404759D01*
X52283399Y-86404759D02*
X52235780Y-86309521D01*
X52235780Y-86309521D02*
X52235780Y-86119045D01*
X52235780Y-86119045D02*
X52283399Y-86023807D01*
X52283399Y-86023807D02*
X52378637Y-85976188D01*
X52378637Y-85976188D02*
X52473875Y-85976188D01*
X52473875Y-85976188D02*
X52569113Y-86452378D01*
X52235780Y-85642854D02*
X52902447Y-85404759D01*
X52902447Y-85404759D02*
X52235780Y-85166664D01*
X52807208Y-84785711D02*
X52854828Y-84738092D01*
X52854828Y-84738092D02*
X52902447Y-84785711D01*
X52902447Y-84785711D02*
X52854828Y-84833330D01*
X52854828Y-84833330D02*
X52807208Y-84785711D01*
X52807208Y-84785711D02*
X52902447Y-84785711D01*
X52902447Y-83785712D02*
X52902447Y-84357140D01*
X52902447Y-84071426D02*
X51902447Y-84071426D01*
X51902447Y-84071426D02*
X52045304Y-84166664D01*
X52045304Y-84166664D02*
X52140542Y-84261902D01*
X52140542Y-84261902D02*
X52188161Y-84357140D01*
X53607629Y-109738095D02*
X53560010Y-109690476D01*
X53560010Y-109690476D02*
X53512391Y-109595238D01*
X53512391Y-109595238D02*
X53512391Y-109357143D01*
X53512391Y-109357143D02*
X53560010Y-109261905D01*
X53560010Y-109261905D02*
X53607629Y-109214286D01*
X53607629Y-109214286D02*
X53702867Y-109166667D01*
X53702867Y-109166667D02*
X53798105Y-109166667D01*
X53798105Y-109166667D02*
X53940962Y-109214286D01*
X53940962Y-109214286D02*
X54512391Y-109785714D01*
X54512391Y-109785714D02*
X54512391Y-109166667D01*
X53512391Y-108547619D02*
X53512391Y-108452381D01*
X53512391Y-108452381D02*
X53560010Y-108357143D01*
X53560010Y-108357143D02*
X53607629Y-108309524D01*
X53607629Y-108309524D02*
X53702867Y-108261905D01*
X53702867Y-108261905D02*
X53893343Y-108214286D01*
X53893343Y-108214286D02*
X54131438Y-108214286D01*
X54131438Y-108214286D02*
X54321914Y-108261905D01*
X54321914Y-108261905D02*
X54417152Y-108309524D01*
X54417152Y-108309524D02*
X54464772Y-108357143D01*
X54464772Y-108357143D02*
X54512391Y-108452381D01*
X54512391Y-108452381D02*
X54512391Y-108547619D01*
X54512391Y-108547619D02*
X54464772Y-108642857D01*
X54464772Y-108642857D02*
X54417152Y-108690476D01*
X54417152Y-108690476D02*
X54321914Y-108738095D01*
X54321914Y-108738095D02*
X54131438Y-108785714D01*
X54131438Y-108785714D02*
X53893343Y-108785714D01*
X53893343Y-108785714D02*
X53702867Y-108738095D01*
X53702867Y-108738095D02*
X53607629Y-108690476D01*
X53607629Y-108690476D02*
X53560010Y-108642857D01*
X53560010Y-108642857D02*
X53512391Y-108547619D01*
X53607629Y-107833333D02*
X53560010Y-107785714D01*
X53560010Y-107785714D02*
X53512391Y-107690476D01*
X53512391Y-107690476D02*
X53512391Y-107452381D01*
X53512391Y-107452381D02*
X53560010Y-107357143D01*
X53560010Y-107357143D02*
X53607629Y-107309524D01*
X53607629Y-107309524D02*
X53702867Y-107261905D01*
X53702867Y-107261905D02*
X53798105Y-107261905D01*
X53798105Y-107261905D02*
X53940962Y-107309524D01*
X53940962Y-107309524D02*
X54512391Y-107880952D01*
X54512391Y-107880952D02*
X54512391Y-107261905D01*
X53512391Y-106404762D02*
X53512391Y-106595238D01*
X53512391Y-106595238D02*
X53560010Y-106690476D01*
X53560010Y-106690476D02*
X53607629Y-106738095D01*
X53607629Y-106738095D02*
X53750486Y-106833333D01*
X53750486Y-106833333D02*
X53940962Y-106880952D01*
X53940962Y-106880952D02*
X54321914Y-106880952D01*
X54321914Y-106880952D02*
X54417152Y-106833333D01*
X54417152Y-106833333D02*
X54464772Y-106785714D01*
X54464772Y-106785714D02*
X54512391Y-106690476D01*
X54512391Y-106690476D02*
X54512391Y-106500000D01*
X54512391Y-106500000D02*
X54464772Y-106404762D01*
X54464772Y-106404762D02*
X54417152Y-106357143D01*
X54417152Y-106357143D02*
X54321914Y-106309524D01*
X54321914Y-106309524D02*
X54083819Y-106309524D01*
X54083819Y-106309524D02*
X53988581Y-106357143D01*
X53988581Y-106357143D02*
X53940962Y-106404762D01*
X53940962Y-106404762D02*
X53893343Y-106500000D01*
X53893343Y-106500000D02*
X53893343Y-106690476D01*
X53893343Y-106690476D02*
X53940962Y-106785714D01*
X53940962Y-106785714D02*
X53988581Y-106833333D01*
X53988581Y-106833333D02*
X54083819Y-106880952D01*
X54131438Y-105119047D02*
X54131438Y-104357143D01*
X54512391Y-103119047D02*
X53512391Y-103119047D01*
X53893343Y-103119047D02*
X53845724Y-103023809D01*
X53845724Y-103023809D02*
X53845724Y-102833333D01*
X53845724Y-102833333D02*
X53893343Y-102738095D01*
X53893343Y-102738095D02*
X53940962Y-102690476D01*
X53940962Y-102690476D02*
X54036200Y-102642857D01*
X54036200Y-102642857D02*
X54321914Y-102642857D01*
X54321914Y-102642857D02*
X54417152Y-102690476D01*
X54417152Y-102690476D02*
X54464772Y-102738095D01*
X54464772Y-102738095D02*
X54512391Y-102833333D01*
X54512391Y-102833333D02*
X54512391Y-103023809D01*
X54512391Y-103023809D02*
X54464772Y-103119047D01*
X54512391Y-102214285D02*
X53845724Y-102214285D01*
X53512391Y-102214285D02*
X53560010Y-102261904D01*
X53560010Y-102261904D02*
X53607629Y-102214285D01*
X53607629Y-102214285D02*
X53560010Y-102166666D01*
X53560010Y-102166666D02*
X53512391Y-102214285D01*
X53512391Y-102214285D02*
X53607629Y-102214285D01*
X53845724Y-101309524D02*
X54655248Y-101309524D01*
X54655248Y-101309524D02*
X54750486Y-101357143D01*
X54750486Y-101357143D02*
X54798105Y-101404762D01*
X54798105Y-101404762D02*
X54845724Y-101500000D01*
X54845724Y-101500000D02*
X54845724Y-101642857D01*
X54845724Y-101642857D02*
X54798105Y-101738095D01*
X54464772Y-101309524D02*
X54512391Y-101404762D01*
X54512391Y-101404762D02*
X54512391Y-101595238D01*
X54512391Y-101595238D02*
X54464772Y-101690476D01*
X54464772Y-101690476D02*
X54417152Y-101738095D01*
X54417152Y-101738095D02*
X54321914Y-101785714D01*
X54321914Y-101785714D02*
X54036200Y-101785714D01*
X54036200Y-101785714D02*
X53940962Y-101738095D01*
X53940962Y-101738095D02*
X53893343Y-101690476D01*
X53893343Y-101690476D02*
X53845724Y-101595238D01*
X53845724Y-101595238D02*
X53845724Y-101404762D01*
X53845724Y-101404762D02*
X53893343Y-101309524D01*
X54512391Y-100833333D02*
X53512391Y-100833333D01*
X53893343Y-100833333D02*
X53845724Y-100738095D01*
X53845724Y-100738095D02*
X53845724Y-100547619D01*
X53845724Y-100547619D02*
X53893343Y-100452381D01*
X53893343Y-100452381D02*
X53940962Y-100404762D01*
X53940962Y-100404762D02*
X54036200Y-100357143D01*
X54036200Y-100357143D02*
X54321914Y-100357143D01*
X54321914Y-100357143D02*
X54417152Y-100404762D01*
X54417152Y-100404762D02*
X54464772Y-100452381D01*
X54464772Y-100452381D02*
X54512391Y-100547619D01*
X54512391Y-100547619D02*
X54512391Y-100738095D01*
X54512391Y-100738095D02*
X54464772Y-100833333D01*
X54512391Y-99928571D02*
X53845724Y-99928571D01*
X54036200Y-99928571D02*
X53940962Y-99880952D01*
X53940962Y-99880952D02*
X53893343Y-99833333D01*
X53893343Y-99833333D02*
X53845724Y-99738095D01*
X53845724Y-99738095D02*
X53845724Y-99642857D01*
X54512391Y-98880952D02*
X53988581Y-98880952D01*
X53988581Y-98880952D02*
X53893343Y-98928571D01*
X53893343Y-98928571D02*
X53845724Y-99023809D01*
X53845724Y-99023809D02*
X53845724Y-99214285D01*
X53845724Y-99214285D02*
X53893343Y-99309523D01*
X54464772Y-98880952D02*
X54512391Y-98976190D01*
X54512391Y-98976190D02*
X54512391Y-99214285D01*
X54512391Y-99214285D02*
X54464772Y-99309523D01*
X54464772Y-99309523D02*
X54369533Y-99357142D01*
X54369533Y-99357142D02*
X54274295Y-99357142D01*
X54274295Y-99357142D02*
X54179057Y-99309523D01*
X54179057Y-99309523D02*
X54131438Y-99214285D01*
X54131438Y-99214285D02*
X54131438Y-98976190D01*
X54131438Y-98976190D02*
X54083819Y-98880952D01*
X54512391Y-98404761D02*
X53845724Y-98404761D01*
X53512391Y-98404761D02*
X53560010Y-98452380D01*
X53560010Y-98452380D02*
X53607629Y-98404761D01*
X53607629Y-98404761D02*
X53560010Y-98357142D01*
X53560010Y-98357142D02*
X53512391Y-98404761D01*
X53512391Y-98404761D02*
X53607629Y-98404761D01*
X53845724Y-97928571D02*
X54512391Y-97928571D01*
X53940962Y-97928571D02*
X53893343Y-97880952D01*
X53893343Y-97880952D02*
X53845724Y-97785714D01*
X53845724Y-97785714D02*
X53845724Y-97642857D01*
X53845724Y-97642857D02*
X53893343Y-97547619D01*
X53893343Y-97547619D02*
X53988581Y-97500000D01*
X53988581Y-97500000D02*
X54512391Y-97500000D01*
X54512391Y-96880952D02*
X54464772Y-96976190D01*
X54464772Y-96976190D02*
X54369533Y-97023809D01*
X54369533Y-97023809D02*
X53512391Y-97023809D01*
X54512391Y-96071428D02*
X53988581Y-96071428D01*
X53988581Y-96071428D02*
X53893343Y-96119047D01*
X53893343Y-96119047D02*
X53845724Y-96214285D01*
X53845724Y-96214285D02*
X53845724Y-96404761D01*
X53845724Y-96404761D02*
X53893343Y-96499999D01*
X54464772Y-96071428D02*
X54512391Y-96166666D01*
X54512391Y-96166666D02*
X54512391Y-96404761D01*
X54512391Y-96404761D02*
X54464772Y-96499999D01*
X54464772Y-96499999D02*
X54369533Y-96547618D01*
X54369533Y-96547618D02*
X54274295Y-96547618D01*
X54274295Y-96547618D02*
X54179057Y-96499999D01*
X54179057Y-96499999D02*
X54131438Y-96404761D01*
X54131438Y-96404761D02*
X54131438Y-96166666D01*
X54131438Y-96166666D02*
X54083819Y-96071428D01*
X54512391Y-95595237D02*
X53512391Y-95595237D01*
X53893343Y-95595237D02*
X53845724Y-95499999D01*
X53845724Y-95499999D02*
X53845724Y-95309523D01*
X53845724Y-95309523D02*
X53893343Y-95214285D01*
X53893343Y-95214285D02*
X53940962Y-95166666D01*
X53940962Y-95166666D02*
X54036200Y-95119047D01*
X54036200Y-95119047D02*
X54321914Y-95119047D01*
X54321914Y-95119047D02*
X54417152Y-95166666D01*
X54417152Y-95166666D02*
X54464772Y-95214285D01*
X54464772Y-95214285D02*
X54512391Y-95309523D01*
X54512391Y-95309523D02*
X54512391Y-95499999D01*
X54512391Y-95499999D02*
X54464772Y-95595237D01*
X54464772Y-94738094D02*
X54512391Y-94642856D01*
X54512391Y-94642856D02*
X54512391Y-94452380D01*
X54512391Y-94452380D02*
X54464772Y-94357142D01*
X54464772Y-94357142D02*
X54369533Y-94309523D01*
X54369533Y-94309523D02*
X54321914Y-94309523D01*
X54321914Y-94309523D02*
X54226676Y-94357142D01*
X54226676Y-94357142D02*
X54179057Y-94452380D01*
X54179057Y-94452380D02*
X54179057Y-94595237D01*
X54179057Y-94595237D02*
X54131438Y-94690475D01*
X54131438Y-94690475D02*
X54036200Y-94738094D01*
X54036200Y-94738094D02*
X53988581Y-94738094D01*
X53988581Y-94738094D02*
X53893343Y-94690475D01*
X53893343Y-94690475D02*
X53845724Y-94595237D01*
X53845724Y-94595237D02*
X53845724Y-94452380D01*
X53845724Y-94452380D02*
X53893343Y-94357142D01*
X53464772Y-92404761D02*
X54750486Y-93261903D01*
X53988581Y-90976189D02*
X54036200Y-90833332D01*
X54036200Y-90833332D02*
X54083819Y-90785713D01*
X54083819Y-90785713D02*
X54179057Y-90738094D01*
X54179057Y-90738094D02*
X54321914Y-90738094D01*
X54321914Y-90738094D02*
X54417152Y-90785713D01*
X54417152Y-90785713D02*
X54464772Y-90833332D01*
X54464772Y-90833332D02*
X54512391Y-90928570D01*
X54512391Y-90928570D02*
X54512391Y-91309522D01*
X54512391Y-91309522D02*
X53512391Y-91309522D01*
X53512391Y-91309522D02*
X53512391Y-90976189D01*
X53512391Y-90976189D02*
X53560010Y-90880951D01*
X53560010Y-90880951D02*
X53607629Y-90833332D01*
X53607629Y-90833332D02*
X53702867Y-90785713D01*
X53702867Y-90785713D02*
X53798105Y-90785713D01*
X53798105Y-90785713D02*
X53893343Y-90833332D01*
X53893343Y-90833332D02*
X53940962Y-90880951D01*
X53940962Y-90880951D02*
X53988581Y-90976189D01*
X53988581Y-90976189D02*
X53988581Y-91309522D01*
X54512391Y-90166665D02*
X54464772Y-90261903D01*
X54464772Y-90261903D02*
X54417152Y-90309522D01*
X54417152Y-90309522D02*
X54321914Y-90357141D01*
X54321914Y-90357141D02*
X54036200Y-90357141D01*
X54036200Y-90357141D02*
X53940962Y-90309522D01*
X53940962Y-90309522D02*
X53893343Y-90261903D01*
X53893343Y-90261903D02*
X53845724Y-90166665D01*
X53845724Y-90166665D02*
X53845724Y-90023808D01*
X53845724Y-90023808D02*
X53893343Y-89928570D01*
X53893343Y-89928570D02*
X53940962Y-89880951D01*
X53940962Y-89880951D02*
X54036200Y-89833332D01*
X54036200Y-89833332D02*
X54321914Y-89833332D01*
X54321914Y-89833332D02*
X54417152Y-89880951D01*
X54417152Y-89880951D02*
X54464772Y-89928570D01*
X54464772Y-89928570D02*
X54512391Y-90023808D01*
X54512391Y-90023808D02*
X54512391Y-90166665D01*
X54512391Y-88976189D02*
X53988581Y-88976189D01*
X53988581Y-88976189D02*
X53893343Y-89023808D01*
X53893343Y-89023808D02*
X53845724Y-89119046D01*
X53845724Y-89119046D02*
X53845724Y-89309522D01*
X53845724Y-89309522D02*
X53893343Y-89404760D01*
X54464772Y-88976189D02*
X54512391Y-89071427D01*
X54512391Y-89071427D02*
X54512391Y-89309522D01*
X54512391Y-89309522D02*
X54464772Y-89404760D01*
X54464772Y-89404760D02*
X54369533Y-89452379D01*
X54369533Y-89452379D02*
X54274295Y-89452379D01*
X54274295Y-89452379D02*
X54179057Y-89404760D01*
X54179057Y-89404760D02*
X54131438Y-89309522D01*
X54131438Y-89309522D02*
X54131438Y-89071427D01*
X54131438Y-89071427D02*
X54083819Y-88976189D01*
X53845724Y-88642855D02*
X53845724Y-88261903D01*
X53512391Y-88499998D02*
X54369533Y-88499998D01*
X54369533Y-88499998D02*
X54464772Y-88452379D01*
X54464772Y-88452379D02*
X54512391Y-88357141D01*
X54512391Y-88357141D02*
X54512391Y-88261903D01*
X54512391Y-87785712D02*
X54464772Y-87880950D01*
X54464772Y-87880950D02*
X54417152Y-87928569D01*
X54417152Y-87928569D02*
X54321914Y-87976188D01*
X54321914Y-87976188D02*
X54036200Y-87976188D01*
X54036200Y-87976188D02*
X53940962Y-87928569D01*
X53940962Y-87928569D02*
X53893343Y-87880950D01*
X53893343Y-87880950D02*
X53845724Y-87785712D01*
X53845724Y-87785712D02*
X53845724Y-87642855D01*
X53845724Y-87642855D02*
X53893343Y-87547617D01*
X53893343Y-87547617D02*
X53940962Y-87499998D01*
X53940962Y-87499998D02*
X54036200Y-87452379D01*
X54036200Y-87452379D02*
X54321914Y-87452379D01*
X54321914Y-87452379D02*
X54417152Y-87499998D01*
X54417152Y-87499998D02*
X54464772Y-87547617D01*
X54464772Y-87547617D02*
X54512391Y-87642855D01*
X54512391Y-87642855D02*
X54512391Y-87785712D01*
X53845724Y-87023807D02*
X54845724Y-87023807D01*
X53893343Y-87023807D02*
X53845724Y-86928569D01*
X53845724Y-86928569D02*
X53845724Y-86738093D01*
X53845724Y-86738093D02*
X53893343Y-86642855D01*
X53893343Y-86642855D02*
X53940962Y-86595236D01*
X53940962Y-86595236D02*
X54036200Y-86547617D01*
X54036200Y-86547617D02*
X54321914Y-86547617D01*
X54321914Y-86547617D02*
X54417152Y-86595236D01*
X54417152Y-86595236D02*
X54464772Y-86642855D01*
X54464772Y-86642855D02*
X54512391Y-86738093D01*
X54512391Y-86738093D02*
X54512391Y-86928569D01*
X54512391Y-86928569D02*
X54464772Y-87023807D01*
X54464772Y-85738093D02*
X54512391Y-85833331D01*
X54512391Y-85833331D02*
X54512391Y-86023807D01*
X54512391Y-86023807D02*
X54464772Y-86119045D01*
X54464772Y-86119045D02*
X54369533Y-86166664D01*
X54369533Y-86166664D02*
X53988581Y-86166664D01*
X53988581Y-86166664D02*
X53893343Y-86119045D01*
X53893343Y-86119045D02*
X53845724Y-86023807D01*
X53845724Y-86023807D02*
X53845724Y-85833331D01*
X53845724Y-85833331D02*
X53893343Y-85738093D01*
X53893343Y-85738093D02*
X53988581Y-85690474D01*
X53988581Y-85690474D02*
X54083819Y-85690474D01*
X54083819Y-85690474D02*
X54179057Y-86166664D01*
X53845724Y-85261902D02*
X54512391Y-85261902D01*
X53940962Y-85261902D02*
X53893343Y-85214283D01*
X53893343Y-85214283D02*
X53845724Y-85119045D01*
X53845724Y-85119045D02*
X53845724Y-84976188D01*
X53845724Y-84976188D02*
X53893343Y-84880950D01*
X53893343Y-84880950D02*
X53988581Y-84833331D01*
X53988581Y-84833331D02*
X54512391Y-84833331D01*
X54512391Y-84357140D02*
X53512391Y-84357140D01*
X53512391Y-83690474D02*
X53512391Y-83499998D01*
X53512391Y-83499998D02*
X53560010Y-83404760D01*
X53560010Y-83404760D02*
X53655248Y-83309522D01*
X53655248Y-83309522D02*
X53845724Y-83261903D01*
X53845724Y-83261903D02*
X54179057Y-83261903D01*
X54179057Y-83261903D02*
X54369533Y-83309522D01*
X54369533Y-83309522D02*
X54464772Y-83404760D01*
X54464772Y-83404760D02*
X54512391Y-83499998D01*
X54512391Y-83499998D02*
X54512391Y-83690474D01*
X54512391Y-83690474D02*
X54464772Y-83785712D01*
X54464772Y-83785712D02*
X54369533Y-83880950D01*
X54369533Y-83880950D02*
X54179057Y-83928569D01*
X54179057Y-83928569D02*
X53845724Y-83928569D01*
X53845724Y-83928569D02*
X53655248Y-83880950D01*
X53655248Y-83880950D02*
X53560010Y-83785712D01*
X53560010Y-83785712D02*
X53512391Y-83690474D01*
D11*
X85249998Y-108982438D02*
X85154760Y-108934819D01*
X85154760Y-108934819D02*
X85011903Y-108934819D01*
X85011903Y-108934819D02*
X84869046Y-108982438D01*
X84869046Y-108982438D02*
X84773808Y-109077676D01*
X84773808Y-109077676D02*
X84726189Y-109172914D01*
X84726189Y-109172914D02*
X84678570Y-109363390D01*
X84678570Y-109363390D02*
X84678570Y-109506247D01*
X84678570Y-109506247D02*
X84726189Y-109696723D01*
X84726189Y-109696723D02*
X84773808Y-109791961D01*
X84773808Y-109791961D02*
X84869046Y-109887200D01*
X84869046Y-109887200D02*
X85011903Y-109934819D01*
X85011903Y-109934819D02*
X85107141Y-109934819D01*
X85107141Y-109934819D02*
X85249998Y-109887200D01*
X85249998Y-109887200D02*
X85297617Y-109839580D01*
X85297617Y-109839580D02*
X85297617Y-109506247D01*
X85297617Y-109506247D02*
X85107141Y-109506247D01*
X85726189Y-109934819D02*
X85726189Y-108934819D01*
X85726189Y-108934819D02*
X86297617Y-109934819D01*
X86297617Y-109934819D02*
X86297617Y-108934819D01*
X86773808Y-109934819D02*
X86773808Y-108934819D01*
X86773808Y-108934819D02*
X87011903Y-108934819D01*
X87011903Y-108934819D02*
X87154760Y-108982438D01*
X87154760Y-108982438D02*
X87249998Y-109077676D01*
X87249998Y-109077676D02*
X87297617Y-109172914D01*
X87297617Y-109172914D02*
X87345236Y-109363390D01*
X87345236Y-109363390D02*
X87345236Y-109506247D01*
X87345236Y-109506247D02*
X87297617Y-109696723D01*
X87297617Y-109696723D02*
X87249998Y-109791961D01*
X87249998Y-109791961D02*
X87154760Y-109887200D01*
X87154760Y-109887200D02*
X87011903Y-109934819D01*
X87011903Y-109934819D02*
X86773808Y-109934819D01*
X87535713Y-110030057D02*
X88297617Y-110030057D01*
X89107141Y-109839580D02*
X89059522Y-109887200D01*
X89059522Y-109887200D02*
X88916665Y-109934819D01*
X88916665Y-109934819D02*
X88821427Y-109934819D01*
X88821427Y-109934819D02*
X88678570Y-109887200D01*
X88678570Y-109887200D02*
X88583332Y-109791961D01*
X88583332Y-109791961D02*
X88535713Y-109696723D01*
X88535713Y-109696723D02*
X88488094Y-109506247D01*
X88488094Y-109506247D02*
X88488094Y-109363390D01*
X88488094Y-109363390D02*
X88535713Y-109172914D01*
X88535713Y-109172914D02*
X88583332Y-109077676D01*
X88583332Y-109077676D02*
X88678570Y-108982438D01*
X88678570Y-108982438D02*
X88821427Y-108934819D01*
X88821427Y-108934819D02*
X88916665Y-108934819D01*
X88916665Y-108934819D02*
X89059522Y-108982438D01*
X89059522Y-108982438D02*
X89107141Y-109030057D01*
X89678570Y-109934819D02*
X89583332Y-109887200D01*
X89583332Y-109887200D02*
X89535713Y-109839580D01*
X89535713Y-109839580D02*
X89488094Y-109744342D01*
X89488094Y-109744342D02*
X89488094Y-109458628D01*
X89488094Y-109458628D02*
X89535713Y-109363390D01*
X89535713Y-109363390D02*
X89583332Y-109315771D01*
X89583332Y-109315771D02*
X89678570Y-109268152D01*
X89678570Y-109268152D02*
X89821427Y-109268152D01*
X89821427Y-109268152D02*
X89916665Y-109315771D01*
X89916665Y-109315771D02*
X89964284Y-109363390D01*
X89964284Y-109363390D02*
X90011903Y-109458628D01*
X90011903Y-109458628D02*
X90011903Y-109744342D01*
X90011903Y-109744342D02*
X89964284Y-109839580D01*
X89964284Y-109839580D02*
X89916665Y-109887200D01*
X89916665Y-109887200D02*
X89821427Y-109934819D01*
X89821427Y-109934819D02*
X89678570Y-109934819D01*
X90583332Y-109934819D02*
X90488094Y-109887200D01*
X90488094Y-109887200D02*
X90440475Y-109791961D01*
X90440475Y-109791961D02*
X90440475Y-108934819D01*
X91107142Y-109934819D02*
X91011904Y-109887200D01*
X91011904Y-109887200D02*
X90964285Y-109791961D01*
X90964285Y-109791961D02*
X90964285Y-108934819D01*
X91869047Y-109887200D02*
X91773809Y-109934819D01*
X91773809Y-109934819D02*
X91583333Y-109934819D01*
X91583333Y-109934819D02*
X91488095Y-109887200D01*
X91488095Y-109887200D02*
X91440476Y-109791961D01*
X91440476Y-109791961D02*
X91440476Y-109411009D01*
X91440476Y-109411009D02*
X91488095Y-109315771D01*
X91488095Y-109315771D02*
X91583333Y-109268152D01*
X91583333Y-109268152D02*
X91773809Y-109268152D01*
X91773809Y-109268152D02*
X91869047Y-109315771D01*
X91869047Y-109315771D02*
X91916666Y-109411009D01*
X91916666Y-109411009D02*
X91916666Y-109506247D01*
X91916666Y-109506247D02*
X91440476Y-109601485D01*
X92773809Y-109887200D02*
X92678571Y-109934819D01*
X92678571Y-109934819D02*
X92488095Y-109934819D01*
X92488095Y-109934819D02*
X92392857Y-109887200D01*
X92392857Y-109887200D02*
X92345238Y-109839580D01*
X92345238Y-109839580D02*
X92297619Y-109744342D01*
X92297619Y-109744342D02*
X92297619Y-109458628D01*
X92297619Y-109458628D02*
X92345238Y-109363390D01*
X92345238Y-109363390D02*
X92392857Y-109315771D01*
X92392857Y-109315771D02*
X92488095Y-109268152D01*
X92488095Y-109268152D02*
X92678571Y-109268152D01*
X92678571Y-109268152D02*
X92773809Y-109315771D01*
X93059524Y-109268152D02*
X93440476Y-109268152D01*
X93202381Y-108934819D02*
X93202381Y-109791961D01*
X93202381Y-109791961D02*
X93250000Y-109887200D01*
X93250000Y-109887200D02*
X93345238Y-109934819D01*
X93345238Y-109934819D02*
X93440476Y-109934819D01*
X93916667Y-109934819D02*
X93821429Y-109887200D01*
X93821429Y-109887200D02*
X93773810Y-109839580D01*
X93773810Y-109839580D02*
X93726191Y-109744342D01*
X93726191Y-109744342D02*
X93726191Y-109458628D01*
X93726191Y-109458628D02*
X93773810Y-109363390D01*
X93773810Y-109363390D02*
X93821429Y-109315771D01*
X93821429Y-109315771D02*
X93916667Y-109268152D01*
X93916667Y-109268152D02*
X94059524Y-109268152D01*
X94059524Y-109268152D02*
X94154762Y-109315771D01*
X94154762Y-109315771D02*
X94202381Y-109363390D01*
X94202381Y-109363390D02*
X94250000Y-109458628D01*
X94250000Y-109458628D02*
X94250000Y-109744342D01*
X94250000Y-109744342D02*
X94202381Y-109839580D01*
X94202381Y-109839580D02*
X94154762Y-109887200D01*
X94154762Y-109887200D02*
X94059524Y-109934819D01*
X94059524Y-109934819D02*
X93916667Y-109934819D01*
X94678572Y-109934819D02*
X94678572Y-109268152D01*
X94678572Y-109458628D02*
X94726191Y-109363390D01*
X94726191Y-109363390D02*
X94773810Y-109315771D01*
X94773810Y-109315771D02*
X94869048Y-109268152D01*
X94869048Y-109268152D02*
X94964286Y-109268152D01*
X95821429Y-109934819D02*
X95250001Y-109934819D01*
X95535715Y-109934819D02*
X95535715Y-108934819D01*
X95535715Y-108934819D02*
X95440477Y-109077676D01*
X95440477Y-109077676D02*
X95345239Y-109172914D01*
X95345239Y-109172914D02*
X95250001Y-109220533D01*
X89607142Y-106954819D02*
X89273809Y-106478628D01*
X89035714Y-106954819D02*
X89035714Y-105954819D01*
X89035714Y-105954819D02*
X89416666Y-105954819D01*
X89416666Y-105954819D02*
X89511904Y-106002438D01*
X89511904Y-106002438D02*
X89559523Y-106050057D01*
X89559523Y-106050057D02*
X89607142Y-106145295D01*
X89607142Y-106145295D02*
X89607142Y-106288152D01*
X89607142Y-106288152D02*
X89559523Y-106383390D01*
X89559523Y-106383390D02*
X89511904Y-106431009D01*
X89511904Y-106431009D02*
X89416666Y-106478628D01*
X89416666Y-106478628D02*
X89035714Y-106478628D01*
X90559523Y-106954819D02*
X89988095Y-106954819D01*
X90273809Y-106954819D02*
X90273809Y-105954819D01*
X90273809Y-105954819D02*
X90178571Y-106097676D01*
X90178571Y-106097676D02*
X90083333Y-106192914D01*
X90083333Y-106192914D02*
X89988095Y-106240533D01*
X91178571Y-105954819D02*
X91273809Y-105954819D01*
X91273809Y-105954819D02*
X91369047Y-106002438D01*
X91369047Y-106002438D02*
X91416666Y-106050057D01*
X91416666Y-106050057D02*
X91464285Y-106145295D01*
X91464285Y-106145295D02*
X91511904Y-106335771D01*
X91511904Y-106335771D02*
X91511904Y-106573866D01*
X91511904Y-106573866D02*
X91464285Y-106764342D01*
X91464285Y-106764342D02*
X91416666Y-106859580D01*
X91416666Y-106859580D02*
X91369047Y-106907200D01*
X91369047Y-106907200D02*
X91273809Y-106954819D01*
X91273809Y-106954819D02*
X91178571Y-106954819D01*
X91178571Y-106954819D02*
X91083333Y-106907200D01*
X91083333Y-106907200D02*
X91035714Y-106859580D01*
X91035714Y-106859580D02*
X90988095Y-106764342D01*
X90988095Y-106764342D02*
X90940476Y-106573866D01*
X90940476Y-106573866D02*
X90940476Y-106335771D01*
X90940476Y-106335771D02*
X90988095Y-106145295D01*
X90988095Y-106145295D02*
X91035714Y-106050057D01*
X91035714Y-106050057D02*
X91083333Y-106002438D01*
X91083333Y-106002438D02*
X91178571Y-105954819D01*
X90083333Y-92204819D02*
X89750000Y-91728628D01*
X89511905Y-92204819D02*
X89511905Y-91204819D01*
X89511905Y-91204819D02*
X89892857Y-91204819D01*
X89892857Y-91204819D02*
X89988095Y-91252438D01*
X89988095Y-91252438D02*
X90035714Y-91300057D01*
X90035714Y-91300057D02*
X90083333Y-91395295D01*
X90083333Y-91395295D02*
X90083333Y-91538152D01*
X90083333Y-91538152D02*
X90035714Y-91633390D01*
X90035714Y-91633390D02*
X89988095Y-91681009D01*
X89988095Y-91681009D02*
X89892857Y-91728628D01*
X89892857Y-91728628D02*
X89511905Y-91728628D01*
X90559524Y-92204819D02*
X90750000Y-92204819D01*
X90750000Y-92204819D02*
X90845238Y-92157200D01*
X90845238Y-92157200D02*
X90892857Y-92109580D01*
X90892857Y-92109580D02*
X90988095Y-91966723D01*
X90988095Y-91966723D02*
X91035714Y-91776247D01*
X91035714Y-91776247D02*
X91035714Y-91395295D01*
X91035714Y-91395295D02*
X90988095Y-91300057D01*
X90988095Y-91300057D02*
X90940476Y-91252438D01*
X90940476Y-91252438D02*
X90845238Y-91204819D01*
X90845238Y-91204819D02*
X90654762Y-91204819D01*
X90654762Y-91204819D02*
X90559524Y-91252438D01*
X90559524Y-91252438D02*
X90511905Y-91300057D01*
X90511905Y-91300057D02*
X90464286Y-91395295D01*
X90464286Y-91395295D02*
X90464286Y-91633390D01*
X90464286Y-91633390D02*
X90511905Y-91728628D01*
X90511905Y-91728628D02*
X90559524Y-91776247D01*
X90559524Y-91776247D02*
X90654762Y-91823866D01*
X90654762Y-91823866D02*
X90845238Y-91823866D01*
X90845238Y-91823866D02*
X90940476Y-91776247D01*
X90940476Y-91776247D02*
X90988095Y-91728628D01*
X90988095Y-91728628D02*
X91035714Y-91633390D01*
X84083333Y-106954819D02*
X83750000Y-106478628D01*
X83511905Y-106954819D02*
X83511905Y-105954819D01*
X83511905Y-105954819D02*
X83892857Y-105954819D01*
X83892857Y-105954819D02*
X83988095Y-106002438D01*
X83988095Y-106002438D02*
X84035714Y-106050057D01*
X84035714Y-106050057D02*
X84083333Y-106145295D01*
X84083333Y-106145295D02*
X84083333Y-106288152D01*
X84083333Y-106288152D02*
X84035714Y-106383390D01*
X84035714Y-106383390D02*
X83988095Y-106431009D01*
X83988095Y-106431009D02*
X83892857Y-106478628D01*
X83892857Y-106478628D02*
X83511905Y-106478628D01*
X84654762Y-106383390D02*
X84559524Y-106335771D01*
X84559524Y-106335771D02*
X84511905Y-106288152D01*
X84511905Y-106288152D02*
X84464286Y-106192914D01*
X84464286Y-106192914D02*
X84464286Y-106145295D01*
X84464286Y-106145295D02*
X84511905Y-106050057D01*
X84511905Y-106050057D02*
X84559524Y-106002438D01*
X84559524Y-106002438D02*
X84654762Y-105954819D01*
X84654762Y-105954819D02*
X84845238Y-105954819D01*
X84845238Y-105954819D02*
X84940476Y-106002438D01*
X84940476Y-106002438D02*
X84988095Y-106050057D01*
X84988095Y-106050057D02*
X85035714Y-106145295D01*
X85035714Y-106145295D02*
X85035714Y-106192914D01*
X85035714Y-106192914D02*
X84988095Y-106288152D01*
X84988095Y-106288152D02*
X84940476Y-106335771D01*
X84940476Y-106335771D02*
X84845238Y-106383390D01*
X84845238Y-106383390D02*
X84654762Y-106383390D01*
X84654762Y-106383390D02*
X84559524Y-106431009D01*
X84559524Y-106431009D02*
X84511905Y-106478628D01*
X84511905Y-106478628D02*
X84464286Y-106573866D01*
X84464286Y-106573866D02*
X84464286Y-106764342D01*
X84464286Y-106764342D02*
X84511905Y-106859580D01*
X84511905Y-106859580D02*
X84559524Y-106907200D01*
X84559524Y-106907200D02*
X84654762Y-106954819D01*
X84654762Y-106954819D02*
X84845238Y-106954819D01*
X84845238Y-106954819D02*
X84940476Y-106907200D01*
X84940476Y-106907200D02*
X84988095Y-106859580D01*
X84988095Y-106859580D02*
X85035714Y-106764342D01*
X85035714Y-106764342D02*
X85035714Y-106573866D01*
X85035714Y-106573866D02*
X84988095Y-106478628D01*
X84988095Y-106478628D02*
X84940476Y-106431009D01*
X84940476Y-106431009D02*
X84845238Y-106383390D01*
X84208333Y-92204819D02*
X83875000Y-91728628D01*
X83636905Y-92204819D02*
X83636905Y-91204819D01*
X83636905Y-91204819D02*
X84017857Y-91204819D01*
X84017857Y-91204819D02*
X84113095Y-91252438D01*
X84113095Y-91252438D02*
X84160714Y-91300057D01*
X84160714Y-91300057D02*
X84208333Y-91395295D01*
X84208333Y-91395295D02*
X84208333Y-91538152D01*
X84208333Y-91538152D02*
X84160714Y-91633390D01*
X84160714Y-91633390D02*
X84113095Y-91681009D01*
X84113095Y-91681009D02*
X84017857Y-91728628D01*
X84017857Y-91728628D02*
X83636905Y-91728628D01*
X84541667Y-91204819D02*
X85208333Y-91204819D01*
X85208333Y-91204819D02*
X84779762Y-92204819D01*
X78333333Y-106954819D02*
X78000000Y-106478628D01*
X77761905Y-106954819D02*
X77761905Y-105954819D01*
X77761905Y-105954819D02*
X78142857Y-105954819D01*
X78142857Y-105954819D02*
X78238095Y-106002438D01*
X78238095Y-106002438D02*
X78285714Y-106050057D01*
X78285714Y-106050057D02*
X78333333Y-106145295D01*
X78333333Y-106145295D02*
X78333333Y-106288152D01*
X78333333Y-106288152D02*
X78285714Y-106383390D01*
X78285714Y-106383390D02*
X78238095Y-106431009D01*
X78238095Y-106431009D02*
X78142857Y-106478628D01*
X78142857Y-106478628D02*
X77761905Y-106478628D01*
X79190476Y-105954819D02*
X79000000Y-105954819D01*
X79000000Y-105954819D02*
X78904762Y-106002438D01*
X78904762Y-106002438D02*
X78857143Y-106050057D01*
X78857143Y-106050057D02*
X78761905Y-106192914D01*
X78761905Y-106192914D02*
X78714286Y-106383390D01*
X78714286Y-106383390D02*
X78714286Y-106764342D01*
X78714286Y-106764342D02*
X78761905Y-106859580D01*
X78761905Y-106859580D02*
X78809524Y-106907200D01*
X78809524Y-106907200D02*
X78904762Y-106954819D01*
X78904762Y-106954819D02*
X79095238Y-106954819D01*
X79095238Y-106954819D02*
X79190476Y-106907200D01*
X79190476Y-106907200D02*
X79238095Y-106859580D01*
X79238095Y-106859580D02*
X79285714Y-106764342D01*
X79285714Y-106764342D02*
X79285714Y-106526247D01*
X79285714Y-106526247D02*
X79238095Y-106431009D01*
X79238095Y-106431009D02*
X79190476Y-106383390D01*
X79190476Y-106383390D02*
X79095238Y-106335771D01*
X79095238Y-106335771D02*
X78904762Y-106335771D01*
X78904762Y-106335771D02*
X78809524Y-106383390D01*
X78809524Y-106383390D02*
X78761905Y-106431009D01*
X78761905Y-106431009D02*
X78714286Y-106526247D01*
X78333333Y-92204819D02*
X78000000Y-91728628D01*
X77761905Y-92204819D02*
X77761905Y-91204819D01*
X77761905Y-91204819D02*
X78142857Y-91204819D01*
X78142857Y-91204819D02*
X78238095Y-91252438D01*
X78238095Y-91252438D02*
X78285714Y-91300057D01*
X78285714Y-91300057D02*
X78333333Y-91395295D01*
X78333333Y-91395295D02*
X78333333Y-91538152D01*
X78333333Y-91538152D02*
X78285714Y-91633390D01*
X78285714Y-91633390D02*
X78238095Y-91681009D01*
X78238095Y-91681009D02*
X78142857Y-91728628D01*
X78142857Y-91728628D02*
X77761905Y-91728628D01*
X79238095Y-91204819D02*
X78761905Y-91204819D01*
X78761905Y-91204819D02*
X78714286Y-91681009D01*
X78714286Y-91681009D02*
X78761905Y-91633390D01*
X78761905Y-91633390D02*
X78857143Y-91585771D01*
X78857143Y-91585771D02*
X79095238Y-91585771D01*
X79095238Y-91585771D02*
X79190476Y-91633390D01*
X79190476Y-91633390D02*
X79238095Y-91681009D01*
X79238095Y-91681009D02*
X79285714Y-91776247D01*
X79285714Y-91776247D02*
X79285714Y-92014342D01*
X79285714Y-92014342D02*
X79238095Y-92109580D01*
X79238095Y-92109580D02*
X79190476Y-92157200D01*
X79190476Y-92157200D02*
X79095238Y-92204819D01*
X79095238Y-92204819D02*
X78857143Y-92204819D01*
X78857143Y-92204819D02*
X78761905Y-92157200D01*
X78761905Y-92157200D02*
X78714286Y-92109580D01*
X72333333Y-106954819D02*
X72000000Y-106478628D01*
X71761905Y-106954819D02*
X71761905Y-105954819D01*
X71761905Y-105954819D02*
X72142857Y-105954819D01*
X72142857Y-105954819D02*
X72238095Y-106002438D01*
X72238095Y-106002438D02*
X72285714Y-106050057D01*
X72285714Y-106050057D02*
X72333333Y-106145295D01*
X72333333Y-106145295D02*
X72333333Y-106288152D01*
X72333333Y-106288152D02*
X72285714Y-106383390D01*
X72285714Y-106383390D02*
X72238095Y-106431009D01*
X72238095Y-106431009D02*
X72142857Y-106478628D01*
X72142857Y-106478628D02*
X71761905Y-106478628D01*
X73190476Y-106288152D02*
X73190476Y-106954819D01*
X72952381Y-105907200D02*
X72714286Y-106621485D01*
X72714286Y-106621485D02*
X73333333Y-106621485D01*
X72458333Y-92204819D02*
X72125000Y-91728628D01*
X71886905Y-92204819D02*
X71886905Y-91204819D01*
X71886905Y-91204819D02*
X72267857Y-91204819D01*
X72267857Y-91204819D02*
X72363095Y-91252438D01*
X72363095Y-91252438D02*
X72410714Y-91300057D01*
X72410714Y-91300057D02*
X72458333Y-91395295D01*
X72458333Y-91395295D02*
X72458333Y-91538152D01*
X72458333Y-91538152D02*
X72410714Y-91633390D01*
X72410714Y-91633390D02*
X72363095Y-91681009D01*
X72363095Y-91681009D02*
X72267857Y-91728628D01*
X72267857Y-91728628D02*
X71886905Y-91728628D01*
X72791667Y-91204819D02*
X73410714Y-91204819D01*
X73410714Y-91204819D02*
X73077381Y-91585771D01*
X73077381Y-91585771D02*
X73220238Y-91585771D01*
X73220238Y-91585771D02*
X73315476Y-91633390D01*
X73315476Y-91633390D02*
X73363095Y-91681009D01*
X73363095Y-91681009D02*
X73410714Y-91776247D01*
X73410714Y-91776247D02*
X73410714Y-92014342D01*
X73410714Y-92014342D02*
X73363095Y-92109580D01*
X73363095Y-92109580D02*
X73315476Y-92157200D01*
X73315476Y-92157200D02*
X73220238Y-92204819D01*
X73220238Y-92204819D02*
X72934524Y-92204819D01*
X72934524Y-92204819D02*
X72839286Y-92157200D01*
X72839286Y-92157200D02*
X72791667Y-92109580D01*
X114261905Y-69454819D02*
X114261905Y-68454819D01*
X114261905Y-68454819D02*
X114500000Y-68454819D01*
X114500000Y-68454819D02*
X114642857Y-68502438D01*
X114642857Y-68502438D02*
X114738095Y-68597676D01*
X114738095Y-68597676D02*
X114785714Y-68692914D01*
X114785714Y-68692914D02*
X114833333Y-68883390D01*
X114833333Y-68883390D02*
X114833333Y-69026247D01*
X114833333Y-69026247D02*
X114785714Y-69216723D01*
X114785714Y-69216723D02*
X114738095Y-69311961D01*
X114738095Y-69311961D02*
X114642857Y-69407200D01*
X114642857Y-69407200D02*
X114500000Y-69454819D01*
X114500000Y-69454819D02*
X114261905Y-69454819D01*
X115785714Y-69454819D02*
X115214286Y-69454819D01*
X115500000Y-69454819D02*
X115500000Y-68454819D01*
X115500000Y-68454819D02*
X115404762Y-68597676D01*
X115404762Y-68597676D02*
X115309524Y-68692914D01*
X115309524Y-68692914D02*
X115214286Y-68740533D01*
X118298095Y-73254819D02*
X118298095Y-72254819D01*
X118869523Y-73254819D02*
X118440952Y-72683390D01*
X118869523Y-72254819D02*
X118298095Y-72826247D01*
X87433046Y-97117139D02*
X87385427Y-97164759D01*
X87385427Y-97164759D02*
X87242570Y-97212378D01*
X87242570Y-97212378D02*
X87147332Y-97212378D01*
X87147332Y-97212378D02*
X87004475Y-97164759D01*
X87004475Y-97164759D02*
X86909237Y-97069520D01*
X86909237Y-97069520D02*
X86861618Y-96974282D01*
X86861618Y-96974282D02*
X86813999Y-96783806D01*
X86813999Y-96783806D02*
X86813999Y-96640949D01*
X86813999Y-96640949D02*
X86861618Y-96450473D01*
X86861618Y-96450473D02*
X86909237Y-96355235D01*
X86909237Y-96355235D02*
X87004475Y-96259997D01*
X87004475Y-96259997D02*
X87147332Y-96212378D01*
X87147332Y-96212378D02*
X87242570Y-96212378D01*
X87242570Y-96212378D02*
X87385427Y-96259997D01*
X87385427Y-96259997D02*
X87433046Y-96307616D01*
X88337808Y-96212378D02*
X87861618Y-96212378D01*
X87861618Y-96212378D02*
X87813999Y-96688568D01*
X87813999Y-96688568D02*
X87861618Y-96640949D01*
X87861618Y-96640949D02*
X87956856Y-96593330D01*
X87956856Y-96593330D02*
X88194951Y-96593330D01*
X88194951Y-96593330D02*
X88290189Y-96640949D01*
X88290189Y-96640949D02*
X88337808Y-96688568D01*
X88337808Y-96688568D02*
X88385427Y-96783806D01*
X88385427Y-96783806D02*
X88385427Y-97021901D01*
X88385427Y-97021901D02*
X88337808Y-97117139D01*
X88337808Y-97117139D02*
X88290189Y-97164759D01*
X88290189Y-97164759D02*
X88194951Y-97212378D01*
X88194951Y-97212378D02*
X87956856Y-97212378D01*
X87956856Y-97212378D02*
X87861618Y-97164759D01*
X87861618Y-97164759D02*
X87813999Y-97117139D01*
X81509666Y-97117139D02*
X81462047Y-97164759D01*
X81462047Y-97164759D02*
X81319190Y-97212378D01*
X81319190Y-97212378D02*
X81223952Y-97212378D01*
X81223952Y-97212378D02*
X81081095Y-97164759D01*
X81081095Y-97164759D02*
X80985857Y-97069520D01*
X80985857Y-97069520D02*
X80938238Y-96974282D01*
X80938238Y-96974282D02*
X80890619Y-96783806D01*
X80890619Y-96783806D02*
X80890619Y-96640949D01*
X80890619Y-96640949D02*
X80938238Y-96450473D01*
X80938238Y-96450473D02*
X80985857Y-96355235D01*
X80985857Y-96355235D02*
X81081095Y-96259997D01*
X81081095Y-96259997D02*
X81223952Y-96212378D01*
X81223952Y-96212378D02*
X81319190Y-96212378D01*
X81319190Y-96212378D02*
X81462047Y-96259997D01*
X81462047Y-96259997D02*
X81509666Y-96307616D01*
X82366809Y-96545711D02*
X82366809Y-97212378D01*
X82128714Y-96164759D02*
X81890619Y-96879044D01*
X81890619Y-96879044D02*
X82509666Y-96879044D01*
X75586285Y-97117139D02*
X75538666Y-97164759D01*
X75538666Y-97164759D02*
X75395809Y-97212378D01*
X75395809Y-97212378D02*
X75300571Y-97212378D01*
X75300571Y-97212378D02*
X75157714Y-97164759D01*
X75157714Y-97164759D02*
X75062476Y-97069520D01*
X75062476Y-97069520D02*
X75014857Y-96974282D01*
X75014857Y-96974282D02*
X74967238Y-96783806D01*
X74967238Y-96783806D02*
X74967238Y-96640949D01*
X74967238Y-96640949D02*
X75014857Y-96450473D01*
X75014857Y-96450473D02*
X75062476Y-96355235D01*
X75062476Y-96355235D02*
X75157714Y-96259997D01*
X75157714Y-96259997D02*
X75300571Y-96212378D01*
X75300571Y-96212378D02*
X75395809Y-96212378D01*
X75395809Y-96212378D02*
X75538666Y-96259997D01*
X75538666Y-96259997D02*
X75586285Y-96307616D01*
X75919619Y-96212378D02*
X76538666Y-96212378D01*
X76538666Y-96212378D02*
X76205333Y-96593330D01*
X76205333Y-96593330D02*
X76348190Y-96593330D01*
X76348190Y-96593330D02*
X76443428Y-96640949D01*
X76443428Y-96640949D02*
X76491047Y-96688568D01*
X76491047Y-96688568D02*
X76538666Y-96783806D01*
X76538666Y-96783806D02*
X76538666Y-97021901D01*
X76538666Y-97021901D02*
X76491047Y-97117139D01*
X76491047Y-97117139D02*
X76443428Y-97164759D01*
X76443428Y-97164759D02*
X76348190Y-97212378D01*
X76348190Y-97212378D02*
X76062476Y-97212378D01*
X76062476Y-97212378D02*
X75967238Y-97164759D01*
X75967238Y-97164759D02*
X75919619Y-97117139D01*
X69662905Y-97117139D02*
X69615286Y-97164759D01*
X69615286Y-97164759D02*
X69472429Y-97212378D01*
X69472429Y-97212378D02*
X69377191Y-97212378D01*
X69377191Y-97212378D02*
X69234334Y-97164759D01*
X69234334Y-97164759D02*
X69139096Y-97069520D01*
X69139096Y-97069520D02*
X69091477Y-96974282D01*
X69091477Y-96974282D02*
X69043858Y-96783806D01*
X69043858Y-96783806D02*
X69043858Y-96640949D01*
X69043858Y-96640949D02*
X69091477Y-96450473D01*
X69091477Y-96450473D02*
X69139096Y-96355235D01*
X69139096Y-96355235D02*
X69234334Y-96259997D01*
X69234334Y-96259997D02*
X69377191Y-96212378D01*
X69377191Y-96212378D02*
X69472429Y-96212378D01*
X69472429Y-96212378D02*
X69615286Y-96259997D01*
X69615286Y-96259997D02*
X69662905Y-96307616D01*
X70043858Y-96307616D02*
X70091477Y-96259997D01*
X70091477Y-96259997D02*
X70186715Y-96212378D01*
X70186715Y-96212378D02*
X70424810Y-96212378D01*
X70424810Y-96212378D02*
X70520048Y-96259997D01*
X70520048Y-96259997D02*
X70567667Y-96307616D01*
X70567667Y-96307616D02*
X70615286Y-96402854D01*
X70615286Y-96402854D02*
X70615286Y-96498092D01*
X70615286Y-96498092D02*
X70567667Y-96640949D01*
X70567667Y-96640949D02*
X69996239Y-97212378D01*
X69996239Y-97212378D02*
X70615286Y-97212378D01*
D10*
X82652380Y-77564895D02*
X83109523Y-77564895D01*
X82880951Y-78364895D02*
X82880951Y-77564895D01*
X83680952Y-78326800D02*
X83604761Y-78364895D01*
X83604761Y-78364895D02*
X83452380Y-78364895D01*
X83452380Y-78364895D02*
X83376190Y-78326800D01*
X83376190Y-78326800D02*
X83338094Y-78250609D01*
X83338094Y-78250609D02*
X83338094Y-77945847D01*
X83338094Y-77945847D02*
X83376190Y-77869657D01*
X83376190Y-77869657D02*
X83452380Y-77831561D01*
X83452380Y-77831561D02*
X83604761Y-77831561D01*
X83604761Y-77831561D02*
X83680952Y-77869657D01*
X83680952Y-77869657D02*
X83719047Y-77945847D01*
X83719047Y-77945847D02*
X83719047Y-78022038D01*
X83719047Y-78022038D02*
X83338094Y-78098228D01*
X84061904Y-78364895D02*
X84061904Y-77831561D01*
X84061904Y-77907752D02*
X84099999Y-77869657D01*
X84099999Y-77869657D02*
X84176189Y-77831561D01*
X84176189Y-77831561D02*
X84290475Y-77831561D01*
X84290475Y-77831561D02*
X84366666Y-77869657D01*
X84366666Y-77869657D02*
X84404761Y-77945847D01*
X84404761Y-77945847D02*
X84404761Y-78364895D01*
X84404761Y-77945847D02*
X84442856Y-77869657D01*
X84442856Y-77869657D02*
X84519047Y-77831561D01*
X84519047Y-77831561D02*
X84633332Y-77831561D01*
X84633332Y-77831561D02*
X84709523Y-77869657D01*
X84709523Y-77869657D02*
X84747618Y-77945847D01*
X84747618Y-77945847D02*
X84747618Y-78364895D01*
X85128571Y-77831561D02*
X85128571Y-78631561D01*
X85128571Y-77869657D02*
X85204761Y-77831561D01*
X85204761Y-77831561D02*
X85357142Y-77831561D01*
X85357142Y-77831561D02*
X85433333Y-77869657D01*
X85433333Y-77869657D02*
X85471428Y-77907752D01*
X85471428Y-77907752D02*
X85509523Y-77983942D01*
X85509523Y-77983942D02*
X85509523Y-78212514D01*
X85509523Y-78212514D02*
X85471428Y-78288704D01*
X85471428Y-78288704D02*
X85433333Y-78326800D01*
X85433333Y-78326800D02*
X85357142Y-78364895D01*
X85357142Y-78364895D02*
X85204761Y-78364895D01*
X85204761Y-78364895D02*
X85128571Y-78326800D01*
X86271428Y-78364895D02*
X85814285Y-78364895D01*
X86042857Y-78364895D02*
X86042857Y-77564895D01*
X86042857Y-77564895D02*
X85966666Y-77679180D01*
X85966666Y-77679180D02*
X85890476Y-77755371D01*
X85890476Y-77755371D02*
X85814285Y-77793466D01*
D11*
X64940476Y-120154819D02*
X65273809Y-121154819D01*
X65273809Y-121154819D02*
X65607142Y-120154819D01*
X66511904Y-121059580D02*
X66464285Y-121107200D01*
X66464285Y-121107200D02*
X66321428Y-121154819D01*
X66321428Y-121154819D02*
X66226190Y-121154819D01*
X66226190Y-121154819D02*
X66083333Y-121107200D01*
X66083333Y-121107200D02*
X65988095Y-121011961D01*
X65988095Y-121011961D02*
X65940476Y-120916723D01*
X65940476Y-120916723D02*
X65892857Y-120726247D01*
X65892857Y-120726247D02*
X65892857Y-120583390D01*
X65892857Y-120583390D02*
X65940476Y-120392914D01*
X65940476Y-120392914D02*
X65988095Y-120297676D01*
X65988095Y-120297676D02*
X66083333Y-120202438D01*
X66083333Y-120202438D02*
X66226190Y-120154819D01*
X66226190Y-120154819D02*
X66321428Y-120154819D01*
X66321428Y-120154819D02*
X66464285Y-120202438D01*
X66464285Y-120202438D02*
X66511904Y-120250057D01*
X67511904Y-121059580D02*
X67464285Y-121107200D01*
X67464285Y-121107200D02*
X67321428Y-121154819D01*
X67321428Y-121154819D02*
X67226190Y-121154819D01*
X67226190Y-121154819D02*
X67083333Y-121107200D01*
X67083333Y-121107200D02*
X66988095Y-121011961D01*
X66988095Y-121011961D02*
X66940476Y-120916723D01*
X66940476Y-120916723D02*
X66892857Y-120726247D01*
X66892857Y-120726247D02*
X66892857Y-120583390D01*
X66892857Y-120583390D02*
X66940476Y-120392914D01*
X66940476Y-120392914D02*
X66988095Y-120297676D01*
X66988095Y-120297676D02*
X67083333Y-120202438D01*
X67083333Y-120202438D02*
X67226190Y-120154819D01*
X67226190Y-120154819D02*
X67321428Y-120154819D01*
X67321428Y-120154819D02*
X67464285Y-120202438D01*
X67464285Y-120202438D02*
X67511904Y-120250057D01*
X68464285Y-121154819D02*
X67892857Y-121154819D01*
X68178571Y-121154819D02*
X68178571Y-120154819D01*
X68178571Y-120154819D02*
X68083333Y-120297676D01*
X68083333Y-120297676D02*
X67988095Y-120392914D01*
X67988095Y-120392914D02*
X67892857Y-120440533D01*
X63739524Y-97117139D02*
X63691905Y-97164759D01*
X63691905Y-97164759D02*
X63549048Y-97212378D01*
X63549048Y-97212378D02*
X63453810Y-97212378D01*
X63453810Y-97212378D02*
X63310953Y-97164759D01*
X63310953Y-97164759D02*
X63215715Y-97069520D01*
X63215715Y-97069520D02*
X63168096Y-96974282D01*
X63168096Y-96974282D02*
X63120477Y-96783806D01*
X63120477Y-96783806D02*
X63120477Y-96640949D01*
X63120477Y-96640949D02*
X63168096Y-96450473D01*
X63168096Y-96450473D02*
X63215715Y-96355235D01*
X63215715Y-96355235D02*
X63310953Y-96259997D01*
X63310953Y-96259997D02*
X63453810Y-96212378D01*
X63453810Y-96212378D02*
X63549048Y-96212378D01*
X63549048Y-96212378D02*
X63691905Y-96259997D01*
X63691905Y-96259997D02*
X63739524Y-96307616D01*
X64691905Y-97212378D02*
X64120477Y-97212378D01*
X64406191Y-97212378D02*
X64406191Y-96212378D01*
X64406191Y-96212378D02*
X64310953Y-96355235D01*
X64310953Y-96355235D02*
X64215715Y-96450473D01*
X64215715Y-96450473D02*
X64120477Y-96498092D01*
X123309524Y-69099819D02*
X123309524Y-68099819D01*
X123309524Y-68099819D02*
X123690476Y-68099819D01*
X123690476Y-68099819D02*
X123785714Y-68147438D01*
X123785714Y-68147438D02*
X123833333Y-68195057D01*
X123833333Y-68195057D02*
X123880952Y-68290295D01*
X123880952Y-68290295D02*
X123880952Y-68433152D01*
X123880952Y-68433152D02*
X123833333Y-68528390D01*
X123833333Y-68528390D02*
X123785714Y-68576009D01*
X123785714Y-68576009D02*
X123690476Y-68623628D01*
X123690476Y-68623628D02*
X123309524Y-68623628D01*
X124880952Y-69004580D02*
X124833333Y-69052200D01*
X124833333Y-69052200D02*
X124690476Y-69099819D01*
X124690476Y-69099819D02*
X124595238Y-69099819D01*
X124595238Y-69099819D02*
X124452381Y-69052200D01*
X124452381Y-69052200D02*
X124357143Y-68956961D01*
X124357143Y-68956961D02*
X124309524Y-68861723D01*
X124309524Y-68861723D02*
X124261905Y-68671247D01*
X124261905Y-68671247D02*
X124261905Y-68528390D01*
X124261905Y-68528390D02*
X124309524Y-68337914D01*
X124309524Y-68337914D02*
X124357143Y-68242676D01*
X124357143Y-68242676D02*
X124452381Y-68147438D01*
X124452381Y-68147438D02*
X124595238Y-68099819D01*
X124595238Y-68099819D02*
X124690476Y-68099819D01*
X124690476Y-68099819D02*
X124833333Y-68147438D01*
X124833333Y-68147438D02*
X124880952Y-68195057D01*
X125452381Y-68528390D02*
X125357143Y-68480771D01*
X125357143Y-68480771D02*
X125309524Y-68433152D01*
X125309524Y-68433152D02*
X125261905Y-68337914D01*
X125261905Y-68337914D02*
X125261905Y-68290295D01*
X125261905Y-68290295D02*
X125309524Y-68195057D01*
X125309524Y-68195057D02*
X125357143Y-68147438D01*
X125357143Y-68147438D02*
X125452381Y-68099819D01*
X125452381Y-68099819D02*
X125642857Y-68099819D01*
X125642857Y-68099819D02*
X125738095Y-68147438D01*
X125738095Y-68147438D02*
X125785714Y-68195057D01*
X125785714Y-68195057D02*
X125833333Y-68290295D01*
X125833333Y-68290295D02*
X125833333Y-68337914D01*
X125833333Y-68337914D02*
X125785714Y-68433152D01*
X125785714Y-68433152D02*
X125738095Y-68480771D01*
X125738095Y-68480771D02*
X125642857Y-68528390D01*
X125642857Y-68528390D02*
X125452381Y-68528390D01*
X125452381Y-68528390D02*
X125357143Y-68576009D01*
X125357143Y-68576009D02*
X125309524Y-68623628D01*
X125309524Y-68623628D02*
X125261905Y-68718866D01*
X125261905Y-68718866D02*
X125261905Y-68909342D01*
X125261905Y-68909342D02*
X125309524Y-69004580D01*
X125309524Y-69004580D02*
X125357143Y-69052200D01*
X125357143Y-69052200D02*
X125452381Y-69099819D01*
X125452381Y-69099819D02*
X125642857Y-69099819D01*
X125642857Y-69099819D02*
X125738095Y-69052200D01*
X125738095Y-69052200D02*
X125785714Y-69004580D01*
X125785714Y-69004580D02*
X125833333Y-68909342D01*
X125833333Y-68909342D02*
X125833333Y-68718866D01*
X125833333Y-68718866D02*
X125785714Y-68623628D01*
X125785714Y-68623628D02*
X125738095Y-68576009D01*
X125738095Y-68576009D02*
X125642857Y-68528390D01*
X126785714Y-69099819D02*
X126214286Y-69099819D01*
X126500000Y-69099819D02*
X126500000Y-68099819D01*
X126500000Y-68099819D02*
X126404762Y-68242676D01*
X126404762Y-68242676D02*
X126309524Y-68337914D01*
X126309524Y-68337914D02*
X126214286Y-68385533D01*
X127119048Y-68099819D02*
X127785714Y-68099819D01*
X127785714Y-68099819D02*
X127357143Y-69099819D01*
X131874819Y-82642857D02*
X131398628Y-82976190D01*
X131874819Y-83214285D02*
X130874819Y-83214285D01*
X130874819Y-83214285D02*
X130874819Y-82833333D01*
X130874819Y-82833333D02*
X130922438Y-82738095D01*
X130922438Y-82738095D02*
X130970057Y-82690476D01*
X130970057Y-82690476D02*
X131065295Y-82642857D01*
X131065295Y-82642857D02*
X131208152Y-82642857D01*
X131208152Y-82642857D02*
X131303390Y-82690476D01*
X131303390Y-82690476D02*
X131351009Y-82738095D01*
X131351009Y-82738095D02*
X131398628Y-82833333D01*
X131398628Y-82833333D02*
X131398628Y-83214285D01*
X131874819Y-81690476D02*
X131874819Y-82261904D01*
X131874819Y-81976190D02*
X130874819Y-81976190D01*
X130874819Y-81976190D02*
X131017676Y-82071428D01*
X131017676Y-82071428D02*
X131112914Y-82166666D01*
X131112914Y-82166666D02*
X131160533Y-82261904D01*
X130874819Y-81357142D02*
X130874819Y-80738095D01*
X130874819Y-80738095D02*
X131255771Y-81071428D01*
X131255771Y-81071428D02*
X131255771Y-80928571D01*
X131255771Y-80928571D02*
X131303390Y-80833333D01*
X131303390Y-80833333D02*
X131351009Y-80785714D01*
X131351009Y-80785714D02*
X131446247Y-80738095D01*
X131446247Y-80738095D02*
X131684342Y-80738095D01*
X131684342Y-80738095D02*
X131779580Y-80785714D01*
X131779580Y-80785714D02*
X131827200Y-80833333D01*
X131827200Y-80833333D02*
X131874819Y-80928571D01*
X131874819Y-80928571D02*
X131874819Y-81214285D01*
X131874819Y-81214285D02*
X131827200Y-81309523D01*
X131827200Y-81309523D02*
X131779580Y-81357142D01*
X118167142Y-87454819D02*
X117833809Y-86978628D01*
X117595714Y-87454819D02*
X117595714Y-86454819D01*
X117595714Y-86454819D02*
X117976666Y-86454819D01*
X117976666Y-86454819D02*
X118071904Y-86502438D01*
X118071904Y-86502438D02*
X118119523Y-86550057D01*
X118119523Y-86550057D02*
X118167142Y-86645295D01*
X118167142Y-86645295D02*
X118167142Y-86788152D01*
X118167142Y-86788152D02*
X118119523Y-86883390D01*
X118119523Y-86883390D02*
X118071904Y-86931009D01*
X118071904Y-86931009D02*
X117976666Y-86978628D01*
X117976666Y-86978628D02*
X117595714Y-86978628D01*
X119119523Y-87454819D02*
X118548095Y-87454819D01*
X118833809Y-87454819D02*
X118833809Y-86454819D01*
X118833809Y-86454819D02*
X118738571Y-86597676D01*
X118738571Y-86597676D02*
X118643333Y-86692914D01*
X118643333Y-86692914D02*
X118548095Y-86740533D01*
X119500476Y-86550057D02*
X119548095Y-86502438D01*
X119548095Y-86502438D02*
X119643333Y-86454819D01*
X119643333Y-86454819D02*
X119881428Y-86454819D01*
X119881428Y-86454819D02*
X119976666Y-86502438D01*
X119976666Y-86502438D02*
X120024285Y-86550057D01*
X120024285Y-86550057D02*
X120071904Y-86645295D01*
X120071904Y-86645295D02*
X120071904Y-86740533D01*
X120071904Y-86740533D02*
X120024285Y-86883390D01*
X120024285Y-86883390D02*
X119452857Y-87454819D01*
X119452857Y-87454819D02*
X120071904Y-87454819D01*
X112833333Y-82859580D02*
X112785714Y-82907200D01*
X112785714Y-82907200D02*
X112642857Y-82954819D01*
X112642857Y-82954819D02*
X112547619Y-82954819D01*
X112547619Y-82954819D02*
X112404762Y-82907200D01*
X112404762Y-82907200D02*
X112309524Y-82811961D01*
X112309524Y-82811961D02*
X112261905Y-82716723D01*
X112261905Y-82716723D02*
X112214286Y-82526247D01*
X112214286Y-82526247D02*
X112214286Y-82383390D01*
X112214286Y-82383390D02*
X112261905Y-82192914D01*
X112261905Y-82192914D02*
X112309524Y-82097676D01*
X112309524Y-82097676D02*
X112404762Y-82002438D01*
X112404762Y-82002438D02*
X112547619Y-81954819D01*
X112547619Y-81954819D02*
X112642857Y-81954819D01*
X112642857Y-81954819D02*
X112785714Y-82002438D01*
X112785714Y-82002438D02*
X112833333Y-82050057D01*
X113690476Y-81954819D02*
X113500000Y-81954819D01*
X113500000Y-81954819D02*
X113404762Y-82002438D01*
X113404762Y-82002438D02*
X113357143Y-82050057D01*
X113357143Y-82050057D02*
X113261905Y-82192914D01*
X113261905Y-82192914D02*
X113214286Y-82383390D01*
X113214286Y-82383390D02*
X113214286Y-82764342D01*
X113214286Y-82764342D02*
X113261905Y-82859580D01*
X113261905Y-82859580D02*
X113309524Y-82907200D01*
X113309524Y-82907200D02*
X113404762Y-82954819D01*
X113404762Y-82954819D02*
X113595238Y-82954819D01*
X113595238Y-82954819D02*
X113690476Y-82907200D01*
X113690476Y-82907200D02*
X113738095Y-82859580D01*
X113738095Y-82859580D02*
X113785714Y-82764342D01*
X113785714Y-82764342D02*
X113785714Y-82526247D01*
X113785714Y-82526247D02*
X113738095Y-82431009D01*
X113738095Y-82431009D02*
X113690476Y-82383390D01*
X113690476Y-82383390D02*
X113595238Y-82335771D01*
X113595238Y-82335771D02*
X113404762Y-82335771D01*
X113404762Y-82335771D02*
X113309524Y-82383390D01*
X113309524Y-82383390D02*
X113261905Y-82431009D01*
X113261905Y-82431009D02*
X113214286Y-82526247D01*
D10*
X71457142Y-77945847D02*
X71571428Y-77983942D01*
X71571428Y-77983942D02*
X71609523Y-78022038D01*
X71609523Y-78022038D02*
X71647619Y-78098228D01*
X71647619Y-78098228D02*
X71647619Y-78212514D01*
X71647619Y-78212514D02*
X71609523Y-78288704D01*
X71609523Y-78288704D02*
X71571428Y-78326800D01*
X71571428Y-78326800D02*
X71495238Y-78364895D01*
X71495238Y-78364895D02*
X71190476Y-78364895D01*
X71190476Y-78364895D02*
X71190476Y-77564895D01*
X71190476Y-77564895D02*
X71457142Y-77564895D01*
X71457142Y-77564895D02*
X71533333Y-77602990D01*
X71533333Y-77602990D02*
X71571428Y-77641085D01*
X71571428Y-77641085D02*
X71609523Y-77717276D01*
X71609523Y-77717276D02*
X71609523Y-77793466D01*
X71609523Y-77793466D02*
X71571428Y-77869657D01*
X71571428Y-77869657D02*
X71533333Y-77907752D01*
X71533333Y-77907752D02*
X71457142Y-77945847D01*
X71457142Y-77945847D02*
X71190476Y-77945847D01*
X72333333Y-78364895D02*
X72333333Y-77945847D01*
X72333333Y-77945847D02*
X72295238Y-77869657D01*
X72295238Y-77869657D02*
X72219047Y-77831561D01*
X72219047Y-77831561D02*
X72066666Y-77831561D01*
X72066666Y-77831561D02*
X71990476Y-77869657D01*
X72333333Y-78326800D02*
X72257142Y-78364895D01*
X72257142Y-78364895D02*
X72066666Y-78364895D01*
X72066666Y-78364895D02*
X71990476Y-78326800D01*
X71990476Y-78326800D02*
X71952380Y-78250609D01*
X71952380Y-78250609D02*
X71952380Y-78174419D01*
X71952380Y-78174419D02*
X71990476Y-78098228D01*
X71990476Y-78098228D02*
X72066666Y-78060133D01*
X72066666Y-78060133D02*
X72257142Y-78060133D01*
X72257142Y-78060133D02*
X72333333Y-78022038D01*
X72600000Y-77831561D02*
X72904762Y-77831561D01*
X72714286Y-77564895D02*
X72714286Y-78250609D01*
X72714286Y-78250609D02*
X72752381Y-78326800D01*
X72752381Y-78326800D02*
X72828571Y-78364895D01*
X72828571Y-78364895D02*
X72904762Y-78364895D01*
X73057143Y-77831561D02*
X73361905Y-77831561D01*
X73171429Y-77564895D02*
X73171429Y-78250609D01*
X73171429Y-78250609D02*
X73209524Y-78326800D01*
X73209524Y-78326800D02*
X73285714Y-78364895D01*
X73285714Y-78364895D02*
X73361905Y-78364895D01*
X73590476Y-77641085D02*
X73628572Y-77602990D01*
X73628572Y-77602990D02*
X73704762Y-77564895D01*
X73704762Y-77564895D02*
X73895238Y-77564895D01*
X73895238Y-77564895D02*
X73971429Y-77602990D01*
X73971429Y-77602990D02*
X74009524Y-77641085D01*
X74009524Y-77641085D02*
X74047619Y-77717276D01*
X74047619Y-77717276D02*
X74047619Y-77793466D01*
X74047619Y-77793466D02*
X74009524Y-77907752D01*
X74009524Y-77907752D02*
X73552381Y-78364895D01*
X73552381Y-78364895D02*
X74047619Y-78364895D01*
X89342857Y-77564895D02*
X89495238Y-77564895D01*
X89495238Y-77564895D02*
X89571428Y-77602990D01*
X89571428Y-77602990D02*
X89647619Y-77679180D01*
X89647619Y-77679180D02*
X89685714Y-77831561D01*
X89685714Y-77831561D02*
X89685714Y-78098228D01*
X89685714Y-78098228D02*
X89647619Y-78250609D01*
X89647619Y-78250609D02*
X89571428Y-78326800D01*
X89571428Y-78326800D02*
X89495238Y-78364895D01*
X89495238Y-78364895D02*
X89342857Y-78364895D01*
X89342857Y-78364895D02*
X89266666Y-78326800D01*
X89266666Y-78326800D02*
X89190476Y-78250609D01*
X89190476Y-78250609D02*
X89152380Y-78098228D01*
X89152380Y-78098228D02*
X89152380Y-77831561D01*
X89152380Y-77831561D02*
X89190476Y-77679180D01*
X89190476Y-77679180D02*
X89266666Y-77602990D01*
X89266666Y-77602990D02*
X89342857Y-77564895D01*
X90028571Y-78364895D02*
X90028571Y-77831561D01*
X90028571Y-77564895D02*
X89990475Y-77602990D01*
X89990475Y-77602990D02*
X90028571Y-77641085D01*
X90028571Y-77641085D02*
X90066666Y-77602990D01*
X90066666Y-77602990D02*
X90028571Y-77564895D01*
X90028571Y-77564895D02*
X90028571Y-77641085D01*
X90523808Y-78364895D02*
X90447618Y-78326800D01*
X90447618Y-78326800D02*
X90409523Y-78250609D01*
X90409523Y-78250609D02*
X90409523Y-77564895D01*
X91247618Y-78364895D02*
X90790475Y-78364895D01*
X91019047Y-78364895D02*
X91019047Y-77564895D01*
X91019047Y-77564895D02*
X90942856Y-77679180D01*
X90942856Y-77679180D02*
X90866666Y-77755371D01*
X90866666Y-77755371D02*
X90790475Y-77793466D01*
D11*
X113118095Y-106241009D02*
X113451428Y-106241009D01*
X113594285Y-106764819D02*
X113118095Y-106764819D01*
X113118095Y-106764819D02*
X113118095Y-105764819D01*
X113118095Y-105764819D02*
X113594285Y-105764819D01*
X113975238Y-106717200D02*
X114118095Y-106764819D01*
X114118095Y-106764819D02*
X114356190Y-106764819D01*
X114356190Y-106764819D02*
X114451428Y-106717200D01*
X114451428Y-106717200D02*
X114499047Y-106669580D01*
X114499047Y-106669580D02*
X114546666Y-106574342D01*
X114546666Y-106574342D02*
X114546666Y-106479104D01*
X114546666Y-106479104D02*
X114499047Y-106383866D01*
X114499047Y-106383866D02*
X114451428Y-106336247D01*
X114451428Y-106336247D02*
X114356190Y-106288628D01*
X114356190Y-106288628D02*
X114165714Y-106241009D01*
X114165714Y-106241009D02*
X114070476Y-106193390D01*
X114070476Y-106193390D02*
X114022857Y-106145771D01*
X114022857Y-106145771D02*
X113975238Y-106050533D01*
X113975238Y-106050533D02*
X113975238Y-105955295D01*
X113975238Y-105955295D02*
X114022857Y-105860057D01*
X114022857Y-105860057D02*
X114070476Y-105812438D01*
X114070476Y-105812438D02*
X114165714Y-105764819D01*
X114165714Y-105764819D02*
X114403809Y-105764819D01*
X114403809Y-105764819D02*
X114546666Y-105812438D01*
X114975238Y-106764819D02*
X114975238Y-105764819D01*
X114975238Y-105764819D02*
X115356190Y-105764819D01*
X115356190Y-105764819D02*
X115451428Y-105812438D01*
X115451428Y-105812438D02*
X115499047Y-105860057D01*
X115499047Y-105860057D02*
X115546666Y-105955295D01*
X115546666Y-105955295D02*
X115546666Y-106098152D01*
X115546666Y-106098152D02*
X115499047Y-106193390D01*
X115499047Y-106193390D02*
X115451428Y-106241009D01*
X115451428Y-106241009D02*
X115356190Y-106288628D01*
X115356190Y-106288628D02*
X114975238Y-106288628D01*
X115975238Y-106383866D02*
X116737143Y-106383866D01*
X117403809Y-105764819D02*
X117499047Y-105764819D01*
X117499047Y-105764819D02*
X117594285Y-105812438D01*
X117594285Y-105812438D02*
X117641904Y-105860057D01*
X117641904Y-105860057D02*
X117689523Y-105955295D01*
X117689523Y-105955295D02*
X117737142Y-106145771D01*
X117737142Y-106145771D02*
X117737142Y-106383866D01*
X117737142Y-106383866D02*
X117689523Y-106574342D01*
X117689523Y-106574342D02*
X117641904Y-106669580D01*
X117641904Y-106669580D02*
X117594285Y-106717200D01*
X117594285Y-106717200D02*
X117499047Y-106764819D01*
X117499047Y-106764819D02*
X117403809Y-106764819D01*
X117403809Y-106764819D02*
X117308571Y-106717200D01*
X117308571Y-106717200D02*
X117260952Y-106669580D01*
X117260952Y-106669580D02*
X117213333Y-106574342D01*
X117213333Y-106574342D02*
X117165714Y-106383866D01*
X117165714Y-106383866D02*
X117165714Y-106145771D01*
X117165714Y-106145771D02*
X117213333Y-105955295D01*
X117213333Y-105955295D02*
X117260952Y-105860057D01*
X117260952Y-105860057D02*
X117308571Y-105812438D01*
X117308571Y-105812438D02*
X117403809Y-105764819D01*
X118689523Y-106764819D02*
X118118095Y-106764819D01*
X118403809Y-106764819D02*
X118403809Y-105764819D01*
X118403809Y-105764819D02*
X118308571Y-105907676D01*
X118308571Y-105907676D02*
X118213333Y-106002914D01*
X118213333Y-106002914D02*
X118118095Y-106050533D01*
D10*
X76642856Y-77564895D02*
X77099999Y-77564895D01*
X76871427Y-78364895D02*
X76871427Y-77564895D01*
X77709523Y-78364895D02*
X77709523Y-77945847D01*
X77709523Y-77945847D02*
X77671428Y-77869657D01*
X77671428Y-77869657D02*
X77595237Y-77831561D01*
X77595237Y-77831561D02*
X77442856Y-77831561D01*
X77442856Y-77831561D02*
X77366666Y-77869657D01*
X77709523Y-78326800D02*
X77633332Y-78364895D01*
X77633332Y-78364895D02*
X77442856Y-78364895D01*
X77442856Y-78364895D02*
X77366666Y-78326800D01*
X77366666Y-78326800D02*
X77328570Y-78250609D01*
X77328570Y-78250609D02*
X77328570Y-78174419D01*
X77328570Y-78174419D02*
X77366666Y-78098228D01*
X77366666Y-78098228D02*
X77442856Y-78060133D01*
X77442856Y-78060133D02*
X77633332Y-78060133D01*
X77633332Y-78060133D02*
X77709523Y-78022038D01*
X78090476Y-77831561D02*
X78090476Y-78364895D01*
X78090476Y-77907752D02*
X78128571Y-77869657D01*
X78128571Y-77869657D02*
X78204761Y-77831561D01*
X78204761Y-77831561D02*
X78319047Y-77831561D01*
X78319047Y-77831561D02*
X78395238Y-77869657D01*
X78395238Y-77869657D02*
X78433333Y-77945847D01*
X78433333Y-77945847D02*
X78433333Y-78364895D01*
X78814286Y-78364895D02*
X78814286Y-77564895D01*
X78890476Y-78060133D02*
X79119048Y-78364895D01*
X79119048Y-77831561D02*
X78814286Y-78136323D01*
X79880952Y-78364895D02*
X79423809Y-78364895D01*
X79652381Y-78364895D02*
X79652381Y-77564895D01*
X79652381Y-77564895D02*
X79576190Y-77679180D01*
X79576190Y-77679180D02*
X79500000Y-77755371D01*
X79500000Y-77755371D02*
X79423809Y-77793466D01*
D11*
X103607142Y-69534819D02*
X103273809Y-69058628D01*
X103035714Y-69534819D02*
X103035714Y-68534819D01*
X103035714Y-68534819D02*
X103416666Y-68534819D01*
X103416666Y-68534819D02*
X103511904Y-68582438D01*
X103511904Y-68582438D02*
X103559523Y-68630057D01*
X103559523Y-68630057D02*
X103607142Y-68725295D01*
X103607142Y-68725295D02*
X103607142Y-68868152D01*
X103607142Y-68868152D02*
X103559523Y-68963390D01*
X103559523Y-68963390D02*
X103511904Y-69011009D01*
X103511904Y-69011009D02*
X103416666Y-69058628D01*
X103416666Y-69058628D02*
X103035714Y-69058628D01*
X104559523Y-69534819D02*
X103988095Y-69534819D01*
X104273809Y-69534819D02*
X104273809Y-68534819D01*
X104273809Y-68534819D02*
X104178571Y-68677676D01*
X104178571Y-68677676D02*
X104083333Y-68772914D01*
X104083333Y-68772914D02*
X103988095Y-68820533D01*
X105511904Y-69534819D02*
X104940476Y-69534819D01*
X105226190Y-69534819D02*
X105226190Y-68534819D01*
X105226190Y-68534819D02*
X105130952Y-68677676D01*
X105130952Y-68677676D02*
X105035714Y-68772914D01*
X105035714Y-68772914D02*
X104940476Y-68820533D01*
D10*
X65257142Y-77945847D02*
X65371428Y-77983942D01*
X65371428Y-77983942D02*
X65409523Y-78022038D01*
X65409523Y-78022038D02*
X65447619Y-78098228D01*
X65447619Y-78098228D02*
X65447619Y-78212514D01*
X65447619Y-78212514D02*
X65409523Y-78288704D01*
X65409523Y-78288704D02*
X65371428Y-78326800D01*
X65371428Y-78326800D02*
X65295238Y-78364895D01*
X65295238Y-78364895D02*
X64990476Y-78364895D01*
X64990476Y-78364895D02*
X64990476Y-77564895D01*
X64990476Y-77564895D02*
X65257142Y-77564895D01*
X65257142Y-77564895D02*
X65333333Y-77602990D01*
X65333333Y-77602990D02*
X65371428Y-77641085D01*
X65371428Y-77641085D02*
X65409523Y-77717276D01*
X65409523Y-77717276D02*
X65409523Y-77793466D01*
X65409523Y-77793466D02*
X65371428Y-77869657D01*
X65371428Y-77869657D02*
X65333333Y-77907752D01*
X65333333Y-77907752D02*
X65257142Y-77945847D01*
X65257142Y-77945847D02*
X64990476Y-77945847D01*
X66133333Y-78364895D02*
X66133333Y-77945847D01*
X66133333Y-77945847D02*
X66095238Y-77869657D01*
X66095238Y-77869657D02*
X66019047Y-77831561D01*
X66019047Y-77831561D02*
X65866666Y-77831561D01*
X65866666Y-77831561D02*
X65790476Y-77869657D01*
X66133333Y-78326800D02*
X66057142Y-78364895D01*
X66057142Y-78364895D02*
X65866666Y-78364895D01*
X65866666Y-78364895D02*
X65790476Y-78326800D01*
X65790476Y-78326800D02*
X65752380Y-78250609D01*
X65752380Y-78250609D02*
X65752380Y-78174419D01*
X65752380Y-78174419D02*
X65790476Y-78098228D01*
X65790476Y-78098228D02*
X65866666Y-78060133D01*
X65866666Y-78060133D02*
X66057142Y-78060133D01*
X66057142Y-78060133D02*
X66133333Y-78022038D01*
X66400000Y-77831561D02*
X66704762Y-77831561D01*
X66514286Y-77564895D02*
X66514286Y-78250609D01*
X66514286Y-78250609D02*
X66552381Y-78326800D01*
X66552381Y-78326800D02*
X66628571Y-78364895D01*
X66628571Y-78364895D02*
X66704762Y-78364895D01*
X66857143Y-77831561D02*
X67161905Y-77831561D01*
X66971429Y-77564895D02*
X66971429Y-78250609D01*
X66971429Y-78250609D02*
X67009524Y-78326800D01*
X67009524Y-78326800D02*
X67085714Y-78364895D01*
X67085714Y-78364895D02*
X67161905Y-78364895D01*
X67847619Y-78364895D02*
X67390476Y-78364895D01*
X67619048Y-78364895D02*
X67619048Y-77564895D01*
X67619048Y-77564895D02*
X67542857Y-77679180D01*
X67542857Y-77679180D02*
X67466667Y-77755371D01*
X67466667Y-77755371D02*
X67390476Y-77793466D01*
D11*
X66333333Y-106954819D02*
X66000000Y-106478628D01*
X65761905Y-106954819D02*
X65761905Y-105954819D01*
X65761905Y-105954819D02*
X66142857Y-105954819D01*
X66142857Y-105954819D02*
X66238095Y-106002438D01*
X66238095Y-106002438D02*
X66285714Y-106050057D01*
X66285714Y-106050057D02*
X66333333Y-106145295D01*
X66333333Y-106145295D02*
X66333333Y-106288152D01*
X66333333Y-106288152D02*
X66285714Y-106383390D01*
X66285714Y-106383390D02*
X66238095Y-106431009D01*
X66238095Y-106431009D02*
X66142857Y-106478628D01*
X66142857Y-106478628D02*
X65761905Y-106478628D01*
X66714286Y-106050057D02*
X66761905Y-106002438D01*
X66761905Y-106002438D02*
X66857143Y-105954819D01*
X66857143Y-105954819D02*
X67095238Y-105954819D01*
X67095238Y-105954819D02*
X67190476Y-106002438D01*
X67190476Y-106002438D02*
X67238095Y-106050057D01*
X67238095Y-106050057D02*
X67285714Y-106145295D01*
X67285714Y-106145295D02*
X67285714Y-106240533D01*
X67285714Y-106240533D02*
X67238095Y-106383390D01*
X67238095Y-106383390D02*
X66666667Y-106954819D01*
X66666667Y-106954819D02*
X67285714Y-106954819D01*
D10*
X94909524Y-78364895D02*
X94642857Y-77983942D01*
X94452381Y-78364895D02*
X94452381Y-77564895D01*
X94452381Y-77564895D02*
X94757143Y-77564895D01*
X94757143Y-77564895D02*
X94833333Y-77602990D01*
X94833333Y-77602990D02*
X94871428Y-77641085D01*
X94871428Y-77641085D02*
X94909524Y-77717276D01*
X94909524Y-77717276D02*
X94909524Y-77831561D01*
X94909524Y-77831561D02*
X94871428Y-77907752D01*
X94871428Y-77907752D02*
X94833333Y-77945847D01*
X94833333Y-77945847D02*
X94757143Y-77983942D01*
X94757143Y-77983942D02*
X94452381Y-77983942D01*
X95252381Y-78364895D02*
X95252381Y-77564895D01*
X95252381Y-77564895D02*
X95557143Y-77564895D01*
X95557143Y-77564895D02*
X95633333Y-77602990D01*
X95633333Y-77602990D02*
X95671428Y-77641085D01*
X95671428Y-77641085D02*
X95709524Y-77717276D01*
X95709524Y-77717276D02*
X95709524Y-77831561D01*
X95709524Y-77831561D02*
X95671428Y-77907752D01*
X95671428Y-77907752D02*
X95633333Y-77945847D01*
X95633333Y-77945847D02*
X95557143Y-77983942D01*
X95557143Y-77983942D02*
X95252381Y-77983942D01*
X96052381Y-78364895D02*
X96052381Y-77564895D01*
X96052381Y-77564895D02*
X96319047Y-78136323D01*
X96319047Y-78136323D02*
X96585714Y-77564895D01*
X96585714Y-77564895D02*
X96585714Y-78364895D01*
X97385714Y-78364895D02*
X96928571Y-78364895D01*
X97157143Y-78364895D02*
X97157143Y-77564895D01*
X97157143Y-77564895D02*
X97080952Y-77679180D01*
X97080952Y-77679180D02*
X97004762Y-77755371D01*
X97004762Y-77755371D02*
X96928571Y-77793466D01*
D11*
X66583333Y-92204819D02*
X66250000Y-91728628D01*
X66011905Y-92204819D02*
X66011905Y-91204819D01*
X66011905Y-91204819D02*
X66392857Y-91204819D01*
X66392857Y-91204819D02*
X66488095Y-91252438D01*
X66488095Y-91252438D02*
X66535714Y-91300057D01*
X66535714Y-91300057D02*
X66583333Y-91395295D01*
X66583333Y-91395295D02*
X66583333Y-91538152D01*
X66583333Y-91538152D02*
X66535714Y-91633390D01*
X66535714Y-91633390D02*
X66488095Y-91681009D01*
X66488095Y-91681009D02*
X66392857Y-91728628D01*
X66392857Y-91728628D02*
X66011905Y-91728628D01*
X67535714Y-92204819D02*
X66964286Y-92204819D01*
X67250000Y-92204819D02*
X67250000Y-91204819D01*
X67250000Y-91204819D02*
X67154762Y-91347676D01*
X67154762Y-91347676D02*
X67059524Y-91442914D01*
X67059524Y-91442914D02*
X66964286Y-91490533D01*
D12*
%TO.C,GND_Collector1*%
X74890000Y-110480000D02*
X105610000Y-110480000D01*
X74890000Y-112600000D02*
X105610000Y-112600000D01*
X74890000Y-118800000D02*
X105610000Y-118800000D01*
X74890000Y-121300000D02*
X105610000Y-121300000D01*
X74890000Y-121920000D02*
X74890000Y-110480000D01*
X77250000Y-121920000D02*
X74890000Y-121920000D01*
X105610000Y-110480000D02*
X105610000Y-121920000D01*
X105610000Y-121920000D02*
X77850000Y-121920000D01*
X77990000Y-122530000D02*
X77110000Y-122530000D01*
X77550000Y-121920000D01*
X77990000Y-122530000D01*
G36*
X77990000Y-122530000D02*
G01*
X77110000Y-122530000D01*
X77550000Y-121920000D01*
X77990000Y-122530000D01*
G37*
%TO.C,R10*%
X90250000Y-97880000D02*
X90250000Y-98830000D01*
X90250000Y-103620000D02*
X90250000Y-102670000D01*
X91170000Y-98830000D02*
X89330000Y-98830000D01*
X89330000Y-102670000D01*
X91170000Y-102670000D01*
X91170000Y-98830000D01*
%TO.C,R9*%
X90250000Y-83130000D02*
X90250000Y-84080000D01*
X90250000Y-88870000D02*
X90250000Y-87920000D01*
X91170000Y-84080000D02*
X89330000Y-84080000D01*
X89330000Y-87920000D01*
X91170000Y-87920000D01*
X91170000Y-84080000D01*
%TO.C,R8*%
X84312500Y-97880000D02*
X84312500Y-98830000D01*
X84312500Y-103620000D02*
X84312500Y-102670000D01*
X85232500Y-98830000D02*
X83392500Y-98830000D01*
X83392500Y-102670000D01*
X85232500Y-102670000D01*
X85232500Y-98830000D01*
%TO.C,R7*%
X84375000Y-83130000D02*
X84375000Y-84080000D01*
X84375000Y-88870000D02*
X84375000Y-87920000D01*
X85295000Y-84080000D02*
X83455000Y-84080000D01*
X83455000Y-87920000D01*
X85295000Y-87920000D01*
X85295000Y-84080000D01*
%TO.C,R6*%
X78375000Y-97880000D02*
X78375000Y-98830000D01*
X78375000Y-103620000D02*
X78375000Y-102670000D01*
X79295000Y-98830000D02*
X77455000Y-98830000D01*
X77455000Y-102670000D01*
X79295000Y-102670000D01*
X79295000Y-98830000D01*
%TO.C,R5*%
X78500000Y-83130000D02*
X78500000Y-84080000D01*
X78500000Y-88870000D02*
X78500000Y-87920000D01*
X79420000Y-84080000D02*
X77580000Y-84080000D01*
X77580000Y-87920000D01*
X79420000Y-87920000D01*
X79420000Y-84080000D01*
%TO.C,R4*%
X72437500Y-97880000D02*
X72437500Y-98830000D01*
X72437500Y-103620000D02*
X72437500Y-102670000D01*
X73357500Y-98830000D02*
X71517500Y-98830000D01*
X71517500Y-102670000D01*
X73357500Y-102670000D01*
X73357500Y-98830000D01*
%TO.C,R3*%
X72625000Y-83130000D02*
X72625000Y-84080000D01*
X72625000Y-88870000D02*
X72625000Y-87920000D01*
X73545000Y-84080000D02*
X71705000Y-84080000D01*
X71705000Y-87920000D01*
X73545000Y-87920000D01*
X73545000Y-84080000D01*
D13*
%TO.C,JP10*%
X93762000Y-83617600D02*
X92238000Y-83617600D01*
X91984000Y-83363600D02*
X91984000Y-81636400D01*
X94016000Y-81636400D02*
X94016000Y-83363600D01*
X93762000Y-81382400D02*
X92238000Y-81382400D01*
X92238000Y-83617600D02*
G75*
G02*
X91984000Y-83363600I0J254000D01*
G01*
X94016000Y-83363600D02*
G75*
G02*
X93762000Y-83617600I-254000J0D01*
G01*
X91984000Y-81636400D02*
G75*
G02*
X92238000Y-81382400I254000J0D01*
G01*
X93762000Y-81382400D02*
G75*
G02*
X94016000Y-81636400I0J-254000D01*
G01*
%TO.C,JP8*%
X87887000Y-83617600D02*
X86363000Y-83617600D01*
X86109000Y-83363600D02*
X86109000Y-81636400D01*
X88141000Y-81636400D02*
X88141000Y-83363600D01*
X87887000Y-81382400D02*
X86363000Y-81382400D01*
X86363000Y-83617600D02*
G75*
G02*
X86109000Y-83363600I0J254000D01*
G01*
X88141000Y-83363600D02*
G75*
G02*
X87887000Y-83617600I-254000J0D01*
G01*
X86109000Y-81636400D02*
G75*
G02*
X86363000Y-81382400I254000J0D01*
G01*
X87887000Y-81382400D02*
G75*
G02*
X88141000Y-81636400I0J-254000D01*
G01*
%TO.C,JP6*%
X82012000Y-83617600D02*
X80488000Y-83617600D01*
X80234000Y-83363600D02*
X80234000Y-81636400D01*
X82266000Y-81636400D02*
X82266000Y-83363600D01*
X82012000Y-81382400D02*
X80488000Y-81382400D01*
X80488000Y-83617600D02*
G75*
G02*
X80234000Y-83363600I0J254000D01*
G01*
X82266000Y-83363600D02*
G75*
G02*
X82012000Y-83617600I-254000J0D01*
G01*
X80234000Y-81636400D02*
G75*
G02*
X80488000Y-81382400I254000J0D01*
G01*
X82012000Y-81382400D02*
G75*
G02*
X82266000Y-81636400I0J-254000D01*
G01*
%TO.C,JP4*%
X76137000Y-83617600D02*
X74613000Y-83617600D01*
X74359000Y-83363600D02*
X74359000Y-81636400D01*
X76391000Y-81636400D02*
X76391000Y-83363600D01*
X76137000Y-81382400D02*
X74613000Y-81382400D01*
X74613000Y-83617600D02*
G75*
G02*
X74359000Y-83363600I0J254000D01*
G01*
X76391000Y-83363600D02*
G75*
G02*
X76137000Y-83617600I-254000J0D01*
G01*
X74359000Y-81636400D02*
G75*
G02*
X74613000Y-81382400I254000J0D01*
G01*
X76137000Y-81382400D02*
G75*
G02*
X76391000Y-81636400I0J-254000D01*
G01*
%TO.C,JP2*%
X70262000Y-83617600D02*
X68738000Y-83617600D01*
X68484000Y-83363600D02*
X68484000Y-81636400D01*
X70516000Y-81636400D02*
X70516000Y-83363600D01*
X70262000Y-81382400D02*
X68738000Y-81382400D01*
X68738000Y-83617600D02*
G75*
G02*
X68484000Y-83363600I0J254000D01*
G01*
X70516000Y-83363600D02*
G75*
G02*
X70262000Y-83617600I-254000J0D01*
G01*
X68484000Y-81636400D02*
G75*
G02*
X68738000Y-81382400I254000J0D01*
G01*
X70262000Y-81382400D02*
G75*
G02*
X70516000Y-81636400I0J-254000D01*
G01*
D12*
%TO.C,D1*%
X117520000Y-71000000D02*
X116870000Y-71000000D01*
X116909000Y-71000000D02*
X115512000Y-71000000D01*
X111980000Y-71000000D02*
X112630000Y-71000000D01*
X112630000Y-69880000D02*
X112630000Y-72120000D01*
X112630000Y-71000000D02*
X113924500Y-71000000D01*
X115512000Y-71889000D02*
X115512000Y-70111000D01*
X112630000Y-72120000D02*
X116870000Y-72120000D01*
X116870000Y-72120000D02*
X116870000Y-69880000D01*
X116870000Y-69880000D02*
X112630000Y-69880000D01*
D10*
X115512000Y-71000000D02*
X113988000Y-71889000D01*
X113988000Y-70111000D01*
X115512000Y-71000000D01*
G36*
X115512000Y-71000000D02*
G01*
X113988000Y-71889000D01*
X113988000Y-70111000D01*
X115512000Y-71000000D01*
G37*
D12*
%TO.C,C5*%
X87656191Y-102357456D02*
X87656191Y-101357456D01*
X87656191Y-101357456D02*
X86656191Y-101357456D01*
X87656191Y-101357456D02*
X88656191Y-101357456D01*
X87656191Y-100757456D02*
X87656191Y-99757456D01*
X86656191Y-100757456D02*
X88656191Y-100757456D01*
X86660367Y-103296100D02*
G75*
G02*
X86640191Y-98921956I6075824J2215144D01*
G01*
X88525014Y-98929312D02*
G75*
G02*
X88545190Y-103303456I-6075823J-2215144D01*
G01*
%TO.C,C4*%
X81718691Y-102357456D02*
X81718691Y-101357456D01*
X81718691Y-101357456D02*
X80718691Y-101357456D01*
X81718691Y-101357456D02*
X82718691Y-101357456D01*
X81718691Y-100757456D02*
X81718691Y-99757456D01*
X80718691Y-100757456D02*
X82718691Y-100757456D01*
X80722867Y-103296100D02*
G75*
G02*
X80702691Y-98921956I6075824J2215144D01*
G01*
X82587514Y-98929312D02*
G75*
G02*
X82607690Y-103303456I-6075823J-2215144D01*
G01*
%TO.C,C3*%
X75781191Y-102357456D02*
X75781191Y-101357456D01*
X75781191Y-101357456D02*
X74781191Y-101357456D01*
X75781191Y-101357456D02*
X76781191Y-101357456D01*
X75781191Y-100757456D02*
X75781191Y-99757456D01*
X74781191Y-100757456D02*
X76781191Y-100757456D01*
X74785367Y-103296100D02*
G75*
G02*
X74765191Y-98921956I6075824J2215144D01*
G01*
X76650014Y-98929312D02*
G75*
G02*
X76670190Y-103303456I-6075823J-2215144D01*
G01*
%TO.C,C2*%
X69843691Y-102357456D02*
X69843691Y-101357456D01*
X69843691Y-101357456D02*
X68843691Y-101357456D01*
X69843691Y-101357456D02*
X70843691Y-101357456D01*
X69843691Y-100757456D02*
X69843691Y-99757456D01*
X68843691Y-100757456D02*
X70843691Y-100757456D01*
X68847867Y-103296100D02*
G75*
G02*
X68827691Y-98921956I6075824J2215144D01*
G01*
X70712514Y-98929312D02*
G75*
G02*
X70732690Y-103303456I-6075823J-2215144D01*
G01*
%TO.C,Temp1*%
X86810000Y-69890000D02*
X86810000Y-68640000D01*
X86810000Y-68640000D02*
X85560000Y-68640000D01*
X86710000Y-70700000D02*
X86710000Y-70400000D01*
X86710000Y-70400000D02*
X86510000Y-70400000D01*
X86610000Y-70700000D02*
X86610000Y-70400000D01*
X86510000Y-71500000D02*
X85900000Y-71500000D01*
X86510000Y-70700000D02*
X86710000Y-70700000D01*
X85900000Y-76450000D02*
X85900000Y-74500000D01*
X85900000Y-74500000D02*
X86510000Y-74500000D01*
X85900000Y-71500000D02*
X85900000Y-69550000D01*
X85900000Y-69550000D02*
X82400000Y-69550000D01*
X85200000Y-77060000D02*
X85200000Y-76450000D01*
X85200000Y-68940000D02*
X85200000Y-69550000D01*
X83900000Y-77060000D02*
X83900000Y-76450000D01*
X83900000Y-68940000D02*
X83900000Y-69550000D01*
X82900000Y-74100000D02*
X82400000Y-74100000D01*
X82900000Y-73900000D02*
X82900000Y-74100000D01*
X82900000Y-72100000D02*
X82400000Y-72100000D01*
X82900000Y-71900000D02*
X82900000Y-72100000D01*
X82400000Y-76450000D02*
X85900000Y-76450000D01*
X82400000Y-74000000D02*
X82900000Y-74000000D01*
X82400000Y-73900000D02*
X82900000Y-73900000D01*
X82400000Y-72000000D02*
X82900000Y-72000000D01*
X82400000Y-71900000D02*
X82900000Y-71900000D01*
X82400000Y-69550000D02*
X82400000Y-76450000D01*
X86510000Y-68940000D02*
X81790000Y-68940000D01*
X81790000Y-77060000D01*
X86510000Y-77060000D01*
X86510000Y-68940000D01*
%TO.C,VCC1*%
X63640000Y-114090000D02*
X63640000Y-115340000D01*
X63940000Y-115700000D02*
X64550000Y-115700000D01*
X63940000Y-117000000D02*
X64550000Y-117000000D01*
X64550000Y-115000000D02*
X64550000Y-118500000D01*
X64550000Y-118500000D02*
X69450000Y-118500000D01*
X64890000Y-114090000D02*
X63640000Y-114090000D01*
X65400000Y-114190000D02*
X65400000Y-114390000D01*
X65700000Y-114190000D02*
X65400000Y-114190000D01*
X65700000Y-114290000D02*
X65400000Y-114290000D01*
X65700000Y-114390000D02*
X65700000Y-114190000D01*
X66500000Y-114390000D02*
X66500000Y-115000000D01*
X66500000Y-115000000D02*
X64550000Y-115000000D01*
X66900000Y-118000000D02*
X67100000Y-118000000D01*
X66900000Y-118500000D02*
X66900000Y-118000000D01*
X67000000Y-118500000D02*
X67000000Y-118000000D01*
X67100000Y-118000000D02*
X67100000Y-118500000D01*
X67500000Y-115000000D02*
X67500000Y-114390000D01*
X69450000Y-115000000D02*
X67500000Y-115000000D01*
X69450000Y-118500000D02*
X69450000Y-115000000D01*
X70060000Y-115700000D02*
X69450000Y-115700000D01*
X70060000Y-117000000D02*
X69450000Y-117000000D01*
X63940000Y-114390000D02*
X70060000Y-114390000D01*
X70060000Y-119110000D01*
X63940000Y-119110000D01*
X63940000Y-114390000D01*
%TO.C,C1*%
X62906191Y-100757456D02*
X64906191Y-100757456D01*
X63906191Y-100757456D02*
X63906191Y-99757456D01*
X63906191Y-101357456D02*
X62906191Y-101357456D01*
X63906191Y-101357456D02*
X64906191Y-101357456D01*
X63906191Y-102357456D02*
X63906191Y-101357456D01*
X62910367Y-103296100D02*
G75*
G02*
X62890191Y-98921956I6075824J2215144D01*
G01*
X64775014Y-98929312D02*
G75*
G02*
X64795190Y-103303456I-6075823J-2215144D01*
G01*
%TO.C,PC817*%
X123250000Y-69645000D02*
X123250000Y-74845000D01*
X123250000Y-74845000D02*
X127750000Y-74845000D01*
X124500000Y-69645000D02*
X123250000Y-69645000D01*
X127750000Y-69645000D02*
X126500000Y-69645000D01*
X127750000Y-74845000D02*
X127750000Y-69645000D01*
X126500000Y-69645000D02*
G75*
G02*
X124500000Y-69645000I-1000000J0D01*
G01*
%TO.C,R13*%
X129500000Y-79130000D02*
X129500000Y-80080000D01*
X129500000Y-84870000D02*
X129500000Y-83920000D01*
X130420000Y-80080000D02*
X128580000Y-80080000D01*
X128580000Y-83920000D01*
X130420000Y-83920000D01*
X130420000Y-80080000D01*
%TO.C,R12*%
X121680000Y-89000000D02*
X120730000Y-89000000D01*
X115940000Y-89000000D02*
X116890000Y-89000000D01*
X120730000Y-89920000D02*
X116890000Y-89920000D01*
X116890000Y-88080000D01*
X120730000Y-88080000D01*
X120730000Y-89920000D01*
%TO.C,C6*%
X113300000Y-80000000D02*
X114300000Y-80000000D01*
X113300000Y-79000000D02*
X113300000Y-81000000D01*
X112700000Y-80000000D02*
X112700000Y-81000000D01*
X112700000Y-80000000D02*
X112700000Y-79000000D01*
X111700000Y-80000000D02*
X112700000Y-80000000D01*
X115128144Y-80868823D02*
G75*
G02*
X110754000Y-80888999I-2215144J6075823D01*
G01*
X110761356Y-79004176D02*
G75*
G02*
X115135500Y-78984000I2215144J-6075824D01*
G01*
%TO.C,Batt2*%
X75110000Y-69890000D02*
X75110000Y-68640000D01*
X75110000Y-68640000D02*
X73860000Y-68640000D01*
X75010000Y-70700000D02*
X75010000Y-70400000D01*
X75010000Y-70400000D02*
X74810000Y-70400000D01*
X74910000Y-70700000D02*
X74910000Y-70400000D01*
X74810000Y-71500000D02*
X74200000Y-71500000D01*
X74810000Y-70700000D02*
X75010000Y-70700000D01*
X74200000Y-76450000D02*
X74200000Y-74500000D01*
X74200000Y-74500000D02*
X74810000Y-74500000D01*
X74200000Y-71500000D02*
X74200000Y-69550000D01*
X74200000Y-69550000D02*
X70700000Y-69550000D01*
X73500000Y-77060000D02*
X73500000Y-76450000D01*
X73500000Y-68940000D02*
X73500000Y-69550000D01*
X72200000Y-77060000D02*
X72200000Y-76450000D01*
X72200000Y-68940000D02*
X72200000Y-69550000D01*
X71200000Y-74100000D02*
X70700000Y-74100000D01*
X71200000Y-73900000D02*
X71200000Y-74100000D01*
X71200000Y-72100000D02*
X70700000Y-72100000D01*
X71200000Y-71900000D02*
X71200000Y-72100000D01*
X70700000Y-76450000D02*
X74200000Y-76450000D01*
X70700000Y-74000000D02*
X71200000Y-74000000D01*
X70700000Y-73900000D02*
X71200000Y-73900000D01*
X70700000Y-72000000D02*
X71200000Y-72000000D01*
X70700000Y-71900000D02*
X71200000Y-71900000D01*
X70700000Y-69550000D02*
X70700000Y-76450000D01*
X74810000Y-68940000D02*
X70090000Y-68940000D01*
X70090000Y-77060000D01*
X74810000Y-77060000D01*
X74810000Y-68940000D01*
%TO.C,Oil1*%
X92660000Y-69890000D02*
X92660000Y-68640000D01*
X92660000Y-68640000D02*
X91410000Y-68640000D01*
X92560000Y-70700000D02*
X92560000Y-70400000D01*
X92560000Y-70400000D02*
X92360000Y-70400000D01*
X92460000Y-70700000D02*
X92460000Y-70400000D01*
X92360000Y-71500000D02*
X91750000Y-71500000D01*
X92360000Y-70700000D02*
X92560000Y-70700000D01*
X91750000Y-76450000D02*
X91750000Y-74500000D01*
X91750000Y-74500000D02*
X92360000Y-74500000D01*
X91750000Y-71500000D02*
X91750000Y-69550000D01*
X91750000Y-69550000D02*
X88250000Y-69550000D01*
X91050000Y-77060000D02*
X91050000Y-76450000D01*
X91050000Y-68940000D02*
X91050000Y-69550000D01*
X89750000Y-77060000D02*
X89750000Y-76450000D01*
X89750000Y-68940000D02*
X89750000Y-69550000D01*
X88750000Y-74100000D02*
X88250000Y-74100000D01*
X88750000Y-73900000D02*
X88750000Y-74100000D01*
X88750000Y-72100000D02*
X88250000Y-72100000D01*
X88750000Y-71900000D02*
X88750000Y-72100000D01*
X88250000Y-76450000D02*
X91750000Y-76450000D01*
X88250000Y-74000000D02*
X88750000Y-74000000D01*
X88250000Y-73900000D02*
X88750000Y-73900000D01*
X88250000Y-72000000D02*
X88750000Y-72000000D01*
X88250000Y-71900000D02*
X88750000Y-71900000D01*
X88250000Y-69550000D02*
X88250000Y-76450000D01*
X92360000Y-68940000D02*
X87640000Y-68940000D01*
X87640000Y-77060000D01*
X92360000Y-77060000D01*
X92360000Y-68940000D01*
%TO.C,ESP-01*%
X120880000Y-99300000D02*
X110560000Y-99300000D01*
X110560000Y-94160000D01*
X120880000Y-94160000D01*
X120880000Y-99300000D01*
X123190000Y-118770000D02*
X108570000Y-118770000D01*
X108570000Y-93850000D01*
X123190000Y-93850000D01*
X123190000Y-118770000D01*
X120060921Y-100449755D02*
X119060921Y-100449755D01*
X119560921Y-99449755D01*
X120060921Y-100449755D01*
G36*
X120060921Y-100449755D02*
G01*
X119060921Y-100449755D01*
X119560921Y-99449755D01*
X120060921Y-100449755D01*
G37*
%TO.C,Tank1*%
X80960000Y-69890000D02*
X80960000Y-68640000D01*
X80960000Y-68640000D02*
X79710000Y-68640000D01*
X80860000Y-70700000D02*
X80860000Y-70400000D01*
X80860000Y-70400000D02*
X80660000Y-70400000D01*
X80760000Y-70700000D02*
X80760000Y-70400000D01*
X80660000Y-71500000D02*
X80050000Y-71500000D01*
X80660000Y-70700000D02*
X80860000Y-70700000D01*
X80050000Y-76450000D02*
X80050000Y-74500000D01*
X80050000Y-74500000D02*
X80660000Y-74500000D01*
X80050000Y-71500000D02*
X80050000Y-69550000D01*
X80050000Y-69550000D02*
X76550000Y-69550000D01*
X79350000Y-77060000D02*
X79350000Y-76450000D01*
X79350000Y-68940000D02*
X79350000Y-69550000D01*
X78050000Y-77060000D02*
X78050000Y-76450000D01*
X78050000Y-68940000D02*
X78050000Y-69550000D01*
X77050000Y-74100000D02*
X76550000Y-74100000D01*
X77050000Y-73900000D02*
X77050000Y-74100000D01*
X77050000Y-72100000D02*
X76550000Y-72100000D01*
X77050000Y-71900000D02*
X77050000Y-72100000D01*
X76550000Y-76450000D02*
X80050000Y-76450000D01*
X76550000Y-74000000D02*
X77050000Y-74000000D01*
X76550000Y-73900000D02*
X77050000Y-73900000D01*
X76550000Y-72000000D02*
X77050000Y-72000000D01*
X76550000Y-71900000D02*
X77050000Y-71900000D01*
X76550000Y-69550000D02*
X76550000Y-76450000D01*
X80660000Y-68940000D02*
X75940000Y-68940000D01*
X75940000Y-77060000D01*
X80660000Y-77060000D01*
X80660000Y-68940000D01*
%TO.C,R11*%
X101380000Y-71000000D02*
X102330000Y-71000000D01*
X107120000Y-71000000D02*
X106170000Y-71000000D01*
X102330000Y-70080000D02*
X106170000Y-70080000D01*
X106170000Y-71920000D01*
X102330000Y-71920000D01*
X102330000Y-70080000D01*
%TO.C,Batt1*%
X69260000Y-69890000D02*
X69260000Y-68640000D01*
X69260000Y-68640000D02*
X68010000Y-68640000D01*
X69160000Y-70700000D02*
X69160000Y-70400000D01*
X69160000Y-70400000D02*
X68960000Y-70400000D01*
X69060000Y-70700000D02*
X69060000Y-70400000D01*
X68960000Y-71500000D02*
X68350000Y-71500000D01*
X68960000Y-70700000D02*
X69160000Y-70700000D01*
X68350000Y-76450000D02*
X68350000Y-74500000D01*
X68350000Y-74500000D02*
X68960000Y-74500000D01*
X68350000Y-71500000D02*
X68350000Y-69550000D01*
X68350000Y-69550000D02*
X64850000Y-69550000D01*
X67650000Y-77060000D02*
X67650000Y-76450000D01*
X67650000Y-68940000D02*
X67650000Y-69550000D01*
X66350000Y-77060000D02*
X66350000Y-76450000D01*
X66350000Y-68940000D02*
X66350000Y-69550000D01*
X65350000Y-74100000D02*
X64850000Y-74100000D01*
X65350000Y-73900000D02*
X65350000Y-74100000D01*
X65350000Y-72100000D02*
X64850000Y-72100000D01*
X65350000Y-71900000D02*
X65350000Y-72100000D01*
X64850000Y-76450000D02*
X68350000Y-76450000D01*
X64850000Y-74000000D02*
X65350000Y-74000000D01*
X64850000Y-73900000D02*
X65350000Y-73900000D01*
X64850000Y-72000000D02*
X65350000Y-72000000D01*
X64850000Y-71900000D02*
X65350000Y-71900000D01*
X64850000Y-69550000D02*
X64850000Y-76450000D01*
X68960000Y-68940000D02*
X64240000Y-68940000D01*
X64240000Y-77060000D01*
X68960000Y-77060000D01*
X68960000Y-68940000D01*
%TO.C,R2*%
X66500000Y-97880000D02*
X66500000Y-98830000D01*
X66500000Y-103620000D02*
X66500000Y-102670000D01*
X67420000Y-98830000D02*
X65580000Y-98830000D01*
X65580000Y-102670000D01*
X67420000Y-102670000D01*
X67420000Y-98830000D01*
%TO.C,RPM1*%
X98510000Y-69890000D02*
X98510000Y-68640000D01*
X98510000Y-68640000D02*
X97260000Y-68640000D01*
X98410000Y-70700000D02*
X98410000Y-70400000D01*
X98410000Y-70400000D02*
X98210000Y-70400000D01*
X98310000Y-70700000D02*
X98310000Y-70400000D01*
X98210000Y-71500000D02*
X97600000Y-71500000D01*
X98210000Y-70700000D02*
X98410000Y-70700000D01*
X97600000Y-76450000D02*
X97600000Y-74500000D01*
X97600000Y-74500000D02*
X98210000Y-74500000D01*
X97600000Y-71500000D02*
X97600000Y-69550000D01*
X97600000Y-69550000D02*
X94100000Y-69550000D01*
X96900000Y-77060000D02*
X96900000Y-76450000D01*
X96900000Y-68940000D02*
X96900000Y-69550000D01*
X95600000Y-77060000D02*
X95600000Y-76450000D01*
X95600000Y-68940000D02*
X95600000Y-69550000D01*
X94600000Y-74100000D02*
X94100000Y-74100000D01*
X94600000Y-73900000D02*
X94600000Y-74100000D01*
X94600000Y-72100000D02*
X94100000Y-72100000D01*
X94600000Y-71900000D02*
X94600000Y-72100000D01*
X94100000Y-76450000D02*
X97600000Y-76450000D01*
X94100000Y-74000000D02*
X94600000Y-74000000D01*
X94100000Y-73900000D02*
X94600000Y-73900000D01*
X94100000Y-72000000D02*
X94600000Y-72000000D01*
X94100000Y-71900000D02*
X94600000Y-71900000D01*
X94100000Y-69550000D02*
X94100000Y-76450000D01*
X98210000Y-68940000D02*
X93490000Y-68940000D01*
X93490000Y-77060000D01*
X98210000Y-77060000D01*
X98210000Y-68940000D01*
%TO.C,R1*%
X66750000Y-88870000D02*
X66750000Y-87920000D01*
X66750000Y-83130000D02*
X66750000Y-84080000D01*
X67670000Y-84080000D02*
X65830000Y-84080000D01*
X65830000Y-87920000D01*
X67670000Y-87920000D01*
X67670000Y-84080000D01*
%TD*%
M02*
