M48
; DRILL file {KiCad 9.0.7} date 2026-07-21T13:24:23+0200
; FORMAT={-:-/ absolute / metric / decimal}
; #@! TF.CreationDate,2026-07-21T13:24:23+02:00
; #@! TF.GenerationSoftware,Kicad,Pcbnew,9.0.7
; #@! TF.FileFunction,Plated,1,2,PTH
FMAT,2
METRIC
; #@! TA.AperFunction,Plated,PTH,ComponentDrill
T1C0.700
; #@! TA.AperFunction,Plated,PTH,ComponentDrill
T2C0.750
; #@! TA.AperFunction,Plated,PTH,ComponentDrill
T3C0.800
; #@! TA.AperFunction,Plated,PTH,ComponentDrill
T4C1.300
%
G90
G05
T1
X67.0Y-84.65
X67.0Y-92.27
X67.0Y-98.0
X67.0Y-105.62
X73.0Y-84.65
X73.0Y-92.27
X73.0Y-98.0
X73.0Y-105.62
X82.5Y-84.69
X82.5Y-92.31
X87.69Y-84.69
X87.69Y-92.31
X93.5Y-84.65
X93.5Y-92.27
X98.69Y-75.0
X106.31Y-75.0
X110.69Y-87.0
X118.31Y-87.0
X122.0Y-74.94
X122.0Y-82.56
T2
X64.25Y-75.0
X64.25Y-77.0
X64.25Y-79.0
X68.0Y-114.0
X70.0Y-114.0
X70.1Y-75.0
X70.1Y-77.0
X70.1Y-79.0
X75.95Y-75.0
X75.95Y-77.0
X75.95Y-79.0
X81.8Y-75.0
X81.8Y-77.0
X81.8Y-79.0
X87.65Y-75.0
X87.65Y-77.0
X87.65Y-79.0
X93.5Y-75.0
X93.5Y-77.0
X93.5Y-79.0
T3
X64.0Y-99.0
X64.0Y-104.0
X76.0Y-99.0
X76.0Y-104.0
X82.5Y-95.5
X82.5Y-100.5
X87.75Y-95.5
X87.75Y-100.5
X93.5Y-95.5
X93.5Y-100.5
X100.75Y-87.0
X105.75Y-87.0
X109.94Y-74.975
X109.94Y-77.515
X111.96Y-95.46
X111.96Y-98.0
X114.5Y-95.46
X114.5Y-98.0
X117.04Y-95.46
X117.04Y-98.0
X117.56Y-74.975
X117.56Y-77.515
X119.58Y-95.46
X119.58Y-98.0
T4
X79.68Y-114.0
X84.76Y-114.0
X89.84Y-114.0
X94.92Y-114.0
X100.0Y-114.0
M30
