%TF.GenerationSoftware,KiCad,Pcbnew,9.0.7*%
%TF.CreationDate,2026-07-30T21:23:00+02:00*%
%TF.ProjectId,MotorCombo_THT,4d6f746f-7243-46f6-9d62-6f5f5448542e,rev?*%
%TF.SameCoordinates,Original*%
%TF.FileFunction,Legend,Top*%
%TF.FilePolarity,Positive*%
%FSLAX46Y46*%
G04 Gerber Fmt 4.6, Leading zero omitted, Abs format (unit mm)*
G04 Created by KiCad (PCBNEW 9.0.7) date 2026-07-30 21:23:00*
%MOMM*%
%LPD*%
G01*
G04 APERTURE LIST*
%ADD10C,0.100000*%
%ADD11C,0.000000*%
%ADD12C,0.150000*%
%ADD13C,0.120000*%
%ADD14C,0.152400*%
G04 APERTURE END LIST*
D10*
X53166994Y-104949159D02*
X53205089Y-104872968D01*
X53205089Y-104872968D02*
X53205089Y-104720587D01*
X53205089Y-104720587D02*
X53166994Y-104644397D01*
X53166994Y-104644397D02*
X53090803Y-104606301D01*
X53090803Y-104606301D02*
X53052708Y-104606301D01*
X53052708Y-104606301D02*
X52976517Y-104644397D01*
X52976517Y-104644397D02*
X52938422Y-104720587D01*
X52938422Y-104720587D02*
X52938422Y-104834873D01*
X52938422Y-104834873D02*
X52900327Y-104911063D01*
X52900327Y-104911063D02*
X52824136Y-104949159D01*
X52824136Y-104949159D02*
X52786041Y-104949159D01*
X52786041Y-104949159D02*
X52709851Y-104911063D01*
X52709851Y-104911063D02*
X52671755Y-104834873D01*
X52671755Y-104834873D02*
X52671755Y-104720587D01*
X52671755Y-104720587D02*
X52709851Y-104644397D01*
X52671755Y-104263444D02*
X53471755Y-104263444D01*
X52709851Y-104263444D02*
X52671755Y-104187254D01*
X52671755Y-104187254D02*
X52671755Y-104034873D01*
X52671755Y-104034873D02*
X52709851Y-103958682D01*
X52709851Y-103958682D02*
X52747946Y-103920587D01*
X52747946Y-103920587D02*
X52824136Y-103882492D01*
X52824136Y-103882492D02*
X53052708Y-103882492D01*
X53052708Y-103882492D02*
X53128898Y-103920587D01*
X53128898Y-103920587D02*
X53166994Y-103958682D01*
X53166994Y-103958682D02*
X53205089Y-104034873D01*
X53205089Y-104034873D02*
X53205089Y-104187254D01*
X53205089Y-104187254D02*
X53166994Y-104263444D01*
X53205089Y-103425349D02*
X53166994Y-103501539D01*
X53166994Y-103501539D02*
X53128898Y-103539634D01*
X53128898Y-103539634D02*
X53052708Y-103577730D01*
X53052708Y-103577730D02*
X52824136Y-103577730D01*
X52824136Y-103577730D02*
X52747946Y-103539634D01*
X52747946Y-103539634D02*
X52709851Y-103501539D01*
X52709851Y-103501539D02*
X52671755Y-103425349D01*
X52671755Y-103425349D02*
X52671755Y-103311063D01*
X52671755Y-103311063D02*
X52709851Y-103234872D01*
X52709851Y-103234872D02*
X52747946Y-103196777D01*
X52747946Y-103196777D02*
X52824136Y-103158682D01*
X52824136Y-103158682D02*
X53052708Y-103158682D01*
X53052708Y-103158682D02*
X53128898Y-103196777D01*
X53128898Y-103196777D02*
X53166994Y-103234872D01*
X53166994Y-103234872D02*
X53205089Y-103311063D01*
X53205089Y-103311063D02*
X53205089Y-103425349D01*
X52671755Y-102815824D02*
X53205089Y-102815824D01*
X52747946Y-102815824D02*
X52709851Y-102777729D01*
X52709851Y-102777729D02*
X52671755Y-102701539D01*
X52671755Y-102701539D02*
X52671755Y-102587253D01*
X52671755Y-102587253D02*
X52709851Y-102511062D01*
X52709851Y-102511062D02*
X52786041Y-102472967D01*
X52786041Y-102472967D02*
X53205089Y-102472967D01*
X53166994Y-102130110D02*
X53205089Y-102053919D01*
X53205089Y-102053919D02*
X53205089Y-101901538D01*
X53205089Y-101901538D02*
X53166994Y-101825348D01*
X53166994Y-101825348D02*
X53090803Y-101787252D01*
X53090803Y-101787252D02*
X53052708Y-101787252D01*
X53052708Y-101787252D02*
X52976517Y-101825348D01*
X52976517Y-101825348D02*
X52938422Y-101901538D01*
X52938422Y-101901538D02*
X52938422Y-102015824D01*
X52938422Y-102015824D02*
X52900327Y-102092014D01*
X52900327Y-102092014D02*
X52824136Y-102130110D01*
X52824136Y-102130110D02*
X52786041Y-102130110D01*
X52786041Y-102130110D02*
X52709851Y-102092014D01*
X52709851Y-102092014D02*
X52671755Y-102015824D01*
X52671755Y-102015824D02*
X52671755Y-101901538D01*
X52671755Y-101901538D02*
X52709851Y-101825348D01*
X53205089Y-101330110D02*
X53166994Y-101406300D01*
X53166994Y-101406300D02*
X53128898Y-101444395D01*
X53128898Y-101444395D02*
X53052708Y-101482491D01*
X53052708Y-101482491D02*
X52824136Y-101482491D01*
X52824136Y-101482491D02*
X52747946Y-101444395D01*
X52747946Y-101444395D02*
X52709851Y-101406300D01*
X52709851Y-101406300D02*
X52671755Y-101330110D01*
X52671755Y-101330110D02*
X52671755Y-101215824D01*
X52671755Y-101215824D02*
X52709851Y-101139633D01*
X52709851Y-101139633D02*
X52747946Y-101101538D01*
X52747946Y-101101538D02*
X52824136Y-101063443D01*
X52824136Y-101063443D02*
X53052708Y-101063443D01*
X53052708Y-101063443D02*
X53128898Y-101101538D01*
X53128898Y-101101538D02*
X53166994Y-101139633D01*
X53166994Y-101139633D02*
X53205089Y-101215824D01*
X53205089Y-101215824D02*
X53205089Y-101330110D01*
X53205089Y-100720585D02*
X52671755Y-100720585D01*
X52824136Y-100720585D02*
X52747946Y-100682490D01*
X52747946Y-100682490D02*
X52709851Y-100644395D01*
X52709851Y-100644395D02*
X52671755Y-100568204D01*
X52671755Y-100568204D02*
X52671755Y-100492014D01*
X53166994Y-99920585D02*
X53205089Y-99996776D01*
X53205089Y-99996776D02*
X53205089Y-100149157D01*
X53205089Y-100149157D02*
X53166994Y-100225347D01*
X53166994Y-100225347D02*
X53090803Y-100263443D01*
X53090803Y-100263443D02*
X52786041Y-100263443D01*
X52786041Y-100263443D02*
X52709851Y-100225347D01*
X52709851Y-100225347D02*
X52671755Y-100149157D01*
X52671755Y-100149157D02*
X52671755Y-99996776D01*
X52671755Y-99996776D02*
X52709851Y-99920585D01*
X52709851Y-99920585D02*
X52786041Y-99882490D01*
X52786041Y-99882490D02*
X52862232Y-99882490D01*
X52862232Y-99882490D02*
X52938422Y-100263443D01*
X53205089Y-99196776D02*
X52405089Y-99196776D01*
X53166994Y-99196776D02*
X53205089Y-99272967D01*
X53205089Y-99272967D02*
X53205089Y-99425348D01*
X53205089Y-99425348D02*
X53166994Y-99501538D01*
X53166994Y-99501538D02*
X53128898Y-99539633D01*
X53128898Y-99539633D02*
X53052708Y-99577729D01*
X53052708Y-99577729D02*
X52824136Y-99577729D01*
X52824136Y-99577729D02*
X52747946Y-99539633D01*
X52747946Y-99539633D02*
X52709851Y-99501538D01*
X52709851Y-99501538D02*
X52671755Y-99425348D01*
X52671755Y-99425348D02*
X52671755Y-99272967D01*
X52671755Y-99272967D02*
X52709851Y-99196776D01*
X53205089Y-98206299D02*
X52405089Y-98206299D01*
X52709851Y-98206299D02*
X52671755Y-98130109D01*
X52671755Y-98130109D02*
X52671755Y-97977728D01*
X52671755Y-97977728D02*
X52709851Y-97901537D01*
X52709851Y-97901537D02*
X52747946Y-97863442D01*
X52747946Y-97863442D02*
X52824136Y-97825347D01*
X52824136Y-97825347D02*
X53052708Y-97825347D01*
X53052708Y-97825347D02*
X53128898Y-97863442D01*
X53128898Y-97863442D02*
X53166994Y-97901537D01*
X53166994Y-97901537D02*
X53205089Y-97977728D01*
X53205089Y-97977728D02*
X53205089Y-98130109D01*
X53205089Y-98130109D02*
X53166994Y-98206299D01*
X52671755Y-97558680D02*
X53205089Y-97368204D01*
X52671755Y-97177727D02*
X53205089Y-97368204D01*
X53205089Y-97368204D02*
X53395565Y-97444394D01*
X53395565Y-97444394D02*
X53433660Y-97482489D01*
X53433660Y-97482489D02*
X53471755Y-97558680D01*
X52671755Y-96339632D02*
X53205089Y-96187251D01*
X53205089Y-96187251D02*
X52824136Y-96034870D01*
X52824136Y-96034870D02*
X53205089Y-95882489D01*
X53205089Y-95882489D02*
X52671755Y-95730108D01*
X52671755Y-95501537D02*
X53205089Y-95349156D01*
X53205089Y-95349156D02*
X52824136Y-95196775D01*
X52824136Y-95196775D02*
X53205089Y-95044394D01*
X53205089Y-95044394D02*
X52671755Y-94892013D01*
X52671755Y-94663442D02*
X53205089Y-94511061D01*
X53205089Y-94511061D02*
X52824136Y-94358680D01*
X52824136Y-94358680D02*
X53205089Y-94206299D01*
X53205089Y-94206299D02*
X52671755Y-94053918D01*
X53128898Y-93749156D02*
X53166994Y-93711061D01*
X53166994Y-93711061D02*
X53205089Y-93749156D01*
X53205089Y-93749156D02*
X53166994Y-93787252D01*
X53166994Y-93787252D02*
X53128898Y-93749156D01*
X53128898Y-93749156D02*
X53205089Y-93749156D01*
X52671755Y-93368204D02*
X53471755Y-93368204D01*
X52709851Y-93368204D02*
X52671755Y-93292014D01*
X52671755Y-93292014D02*
X52671755Y-93139633D01*
X52671755Y-93139633D02*
X52709851Y-93063442D01*
X52709851Y-93063442D02*
X52747946Y-93025347D01*
X52747946Y-93025347D02*
X52824136Y-92987252D01*
X52824136Y-92987252D02*
X53052708Y-92987252D01*
X53052708Y-92987252D02*
X53128898Y-93025347D01*
X53128898Y-93025347D02*
X53166994Y-93063442D01*
X53166994Y-93063442D02*
X53205089Y-93139633D01*
X53205089Y-93139633D02*
X53205089Y-93292014D01*
X53205089Y-93292014D02*
X53166994Y-93368204D01*
X53166994Y-92301537D02*
X53205089Y-92377728D01*
X53205089Y-92377728D02*
X53205089Y-92530109D01*
X53205089Y-92530109D02*
X53166994Y-92606299D01*
X53166994Y-92606299D02*
X53128898Y-92644394D01*
X53128898Y-92644394D02*
X53052708Y-92682490D01*
X53052708Y-92682490D02*
X52824136Y-92682490D01*
X52824136Y-92682490D02*
X52747946Y-92644394D01*
X52747946Y-92644394D02*
X52709851Y-92606299D01*
X52709851Y-92606299D02*
X52671755Y-92530109D01*
X52671755Y-92530109D02*
X52671755Y-92377728D01*
X52671755Y-92377728D02*
X52709851Y-92301537D01*
X53205089Y-91958680D02*
X52405089Y-91958680D01*
X52709851Y-91958680D02*
X52671755Y-91882490D01*
X52671755Y-91882490D02*
X52671755Y-91730109D01*
X52671755Y-91730109D02*
X52709851Y-91653918D01*
X52709851Y-91653918D02*
X52747946Y-91615823D01*
X52747946Y-91615823D02*
X52824136Y-91577728D01*
X52824136Y-91577728D02*
X53052708Y-91577728D01*
X53052708Y-91577728D02*
X53128898Y-91615823D01*
X53128898Y-91615823D02*
X53166994Y-91653918D01*
X53166994Y-91653918D02*
X53205089Y-91730109D01*
X53205089Y-91730109D02*
X53205089Y-91882490D01*
X53205089Y-91882490D02*
X53166994Y-91958680D01*
X52671755Y-91311061D02*
X53205089Y-91158680D01*
X53205089Y-91158680D02*
X52824136Y-91006299D01*
X52824136Y-91006299D02*
X53205089Y-90853918D01*
X53205089Y-90853918D02*
X52671755Y-90701537D01*
X53205089Y-90053918D02*
X52786041Y-90053918D01*
X52786041Y-90053918D02*
X52709851Y-90092013D01*
X52709851Y-90092013D02*
X52671755Y-90168204D01*
X52671755Y-90168204D02*
X52671755Y-90320585D01*
X52671755Y-90320585D02*
X52709851Y-90396775D01*
X53166994Y-90053918D02*
X53205089Y-90130109D01*
X53205089Y-90130109D02*
X53205089Y-90320585D01*
X53205089Y-90320585D02*
X53166994Y-90396775D01*
X53166994Y-90396775D02*
X53090803Y-90434871D01*
X53090803Y-90434871D02*
X53014613Y-90434871D01*
X53014613Y-90434871D02*
X52938422Y-90396775D01*
X52938422Y-90396775D02*
X52900327Y-90320585D01*
X52900327Y-90320585D02*
X52900327Y-90130109D01*
X52900327Y-90130109D02*
X52862232Y-90053918D01*
X52671755Y-89749156D02*
X53205089Y-89558680D01*
X52671755Y-89368203D02*
X53205089Y-89558680D01*
X53205089Y-89558680D02*
X53395565Y-89634870D01*
X53395565Y-89634870D02*
X53433660Y-89672965D01*
X53433660Y-89672965D02*
X53471755Y-89749156D01*
X53128898Y-89063441D02*
X53166994Y-89025346D01*
X53166994Y-89025346D02*
X53205089Y-89063441D01*
X53205089Y-89063441D02*
X53166994Y-89101537D01*
X53166994Y-89101537D02*
X53128898Y-89063441D01*
X53128898Y-89063441D02*
X53205089Y-89063441D01*
X53166994Y-88339632D02*
X53205089Y-88415823D01*
X53205089Y-88415823D02*
X53205089Y-88568204D01*
X53205089Y-88568204D02*
X53166994Y-88644394D01*
X53166994Y-88644394D02*
X53128898Y-88682489D01*
X53128898Y-88682489D02*
X53052708Y-88720585D01*
X53052708Y-88720585D02*
X52824136Y-88720585D01*
X52824136Y-88720585D02*
X52747946Y-88682489D01*
X52747946Y-88682489D02*
X52709851Y-88644394D01*
X52709851Y-88644394D02*
X52671755Y-88568204D01*
X52671755Y-88568204D02*
X52671755Y-88415823D01*
X52671755Y-88415823D02*
X52709851Y-88339632D01*
X53205089Y-87882490D02*
X53166994Y-87958680D01*
X53166994Y-87958680D02*
X53128898Y-87996775D01*
X53128898Y-87996775D02*
X53052708Y-88034871D01*
X53052708Y-88034871D02*
X52824136Y-88034871D01*
X52824136Y-88034871D02*
X52747946Y-87996775D01*
X52747946Y-87996775D02*
X52709851Y-87958680D01*
X52709851Y-87958680D02*
X52671755Y-87882490D01*
X52671755Y-87882490D02*
X52671755Y-87768204D01*
X52671755Y-87768204D02*
X52709851Y-87692013D01*
X52709851Y-87692013D02*
X52747946Y-87653918D01*
X52747946Y-87653918D02*
X52824136Y-87615823D01*
X52824136Y-87615823D02*
X53052708Y-87615823D01*
X53052708Y-87615823D02*
X53128898Y-87653918D01*
X53128898Y-87653918D02*
X53166994Y-87692013D01*
X53166994Y-87692013D02*
X53205089Y-87768204D01*
X53205089Y-87768204D02*
X53205089Y-87882490D01*
X53205089Y-87272965D02*
X52671755Y-87272965D01*
X52747946Y-87272965D02*
X52709851Y-87234870D01*
X52709851Y-87234870D02*
X52671755Y-87158680D01*
X52671755Y-87158680D02*
X52671755Y-87044394D01*
X52671755Y-87044394D02*
X52709851Y-86968203D01*
X52709851Y-86968203D02*
X52786041Y-86930108D01*
X52786041Y-86930108D02*
X53205089Y-86930108D01*
X52786041Y-86930108D02*
X52709851Y-86892013D01*
X52709851Y-86892013D02*
X52671755Y-86815822D01*
X52671755Y-86815822D02*
X52671755Y-86701537D01*
X52671755Y-86701537D02*
X52709851Y-86625346D01*
X52709851Y-86625346D02*
X52786041Y-86587251D01*
X52786041Y-86587251D02*
X53205089Y-86587251D01*
D11*
G36*
X57431646Y-92549233D02*
G01*
X57431646Y-93495118D01*
X55309687Y-94046112D01*
X57431646Y-94578585D01*
X57431646Y-95525796D01*
X54000000Y-96394291D01*
X54000000Y-95500000D01*
X56299890Y-95027057D01*
X54000000Y-94450928D01*
X54000000Y-93595663D01*
X56303198Y-93049960D01*
X54000000Y-92549233D01*
X54000000Y-91680738D01*
X57431646Y-92549233D01*
G37*
G36*
X55092068Y-102464495D02*
G01*
X55125997Y-102463898D01*
X55159872Y-102464346D01*
X55193669Y-102465836D01*
X55227365Y-102468361D01*
X55260936Y-102471916D01*
X55294358Y-102476498D01*
X55327609Y-102482099D01*
X55360665Y-102488717D01*
X55393503Y-102496344D01*
X55426098Y-102504977D01*
X55458429Y-102514610D01*
X55490471Y-102525239D01*
X55522200Y-102536857D01*
X55553594Y-102549461D01*
X55584630Y-102563045D01*
X55615283Y-102577604D01*
X55639744Y-102590686D01*
X55663764Y-102604473D01*
X55687331Y-102618953D01*
X55710429Y-102634112D01*
X55733045Y-102649939D01*
X55755165Y-102666423D01*
X55776775Y-102683550D01*
X55797861Y-102701310D01*
X55818408Y-102719689D01*
X55838404Y-102738675D01*
X55857835Y-102758258D01*
X55876685Y-102778423D01*
X55894942Y-102799160D01*
X55912591Y-102820456D01*
X55929619Y-102842300D01*
X55946011Y-102864678D01*
X55960166Y-102884644D01*
X55973790Y-102904942D01*
X55986880Y-102925561D01*
X55999428Y-102946490D01*
X56011432Y-102967718D01*
X56022886Y-102989235D01*
X56033784Y-103011030D01*
X56044123Y-103033092D01*
X56053896Y-103055410D01*
X56063100Y-103077973D01*
X56071729Y-103100770D01*
X56079779Y-103123791D01*
X56087244Y-103147025D01*
X56094120Y-103170460D01*
X56100401Y-103194086D01*
X56106083Y-103217893D01*
X56119521Y-103305726D01*
X56130872Y-103393816D01*
X56140135Y-103482125D01*
X56147307Y-103570616D01*
X56152385Y-103659252D01*
X56155367Y-103747995D01*
X56156250Y-103836809D01*
X56155032Y-103925656D01*
X56155032Y-104370156D01*
X57429000Y-104370156D01*
X57431646Y-105055426D01*
X54628385Y-105055426D01*
X54052917Y-105055426D01*
X54052917Y-103981919D01*
X54625367Y-103981919D01*
X54626403Y-104043393D01*
X54628385Y-104372800D01*
X55586177Y-104372800D01*
X55586177Y-104000399D01*
X55585369Y-103903603D01*
X55582942Y-103815139D01*
X55578886Y-103735032D01*
X55573196Y-103663304D01*
X55565861Y-103599978D01*
X55556876Y-103545078D01*
X55546232Y-103498627D01*
X55540286Y-103478578D01*
X55533922Y-103460649D01*
X55527582Y-103444571D01*
X55520650Y-103428788D01*
X55513138Y-103413315D01*
X55505058Y-103398165D01*
X55496420Y-103383354D01*
X55487237Y-103368897D01*
X55477519Y-103354808D01*
X55467278Y-103341101D01*
X55456526Y-103327792D01*
X55445274Y-103314896D01*
X55433532Y-103302426D01*
X55421314Y-103290398D01*
X55408629Y-103278827D01*
X55395490Y-103267726D01*
X55381909Y-103257112D01*
X55367895Y-103246997D01*
X55353066Y-103237519D01*
X55337923Y-103228640D01*
X55322485Y-103220367D01*
X55306770Y-103212703D01*
X55290797Y-103205654D01*
X55274585Y-103199227D01*
X55258151Y-103193425D01*
X55241514Y-103188255D01*
X55224692Y-103183722D01*
X55207704Y-103179831D01*
X55190568Y-103176587D01*
X55173302Y-103173997D01*
X55155925Y-103172064D01*
X55138456Y-103170795D01*
X55120912Y-103170194D01*
X55103313Y-103170268D01*
X55082399Y-103170033D01*
X55061581Y-103170788D01*
X55040892Y-103172521D01*
X55020363Y-103175219D01*
X55000028Y-103178872D01*
X54979919Y-103183468D01*
X54960067Y-103188996D01*
X54940507Y-103195443D01*
X54921269Y-103202798D01*
X54902387Y-103211051D01*
X54883893Y-103220188D01*
X54865820Y-103230199D01*
X54848199Y-103241072D01*
X54831064Y-103252795D01*
X54814447Y-103265358D01*
X54798380Y-103278748D01*
X54783850Y-103292514D01*
X54769953Y-103306834D01*
X54756702Y-103321683D01*
X54744110Y-103337039D01*
X54732188Y-103352880D01*
X54720950Y-103369183D01*
X54710408Y-103385924D01*
X54700574Y-103403082D01*
X54691461Y-103420633D01*
X54683081Y-103438554D01*
X54675446Y-103456824D01*
X54668569Y-103475418D01*
X54662463Y-103494315D01*
X54657139Y-103513492D01*
X54652611Y-103532925D01*
X54648890Y-103552593D01*
X54642237Y-103613715D01*
X54636681Y-103674932D01*
X54632221Y-103736228D01*
X54628859Y-103797590D01*
X54626596Y-103859003D01*
X54625431Y-103920450D01*
X54625367Y-103981919D01*
X54052917Y-103981919D01*
X54052917Y-103960713D01*
X54053749Y-103811949D01*
X54056224Y-103676710D01*
X54060312Y-103555006D01*
X54065981Y-103446843D01*
X54073200Y-103352230D01*
X54081938Y-103271174D01*
X54092165Y-103203683D01*
X54103849Y-103149765D01*
X54114295Y-103113453D01*
X54126235Y-103077732D01*
X54139642Y-103042644D01*
X54154488Y-103008229D01*
X54170744Y-102974530D01*
X54188382Y-102941588D01*
X54207374Y-102909445D01*
X54227692Y-102878141D01*
X54249308Y-102847719D01*
X54272192Y-102818220D01*
X54296318Y-102789686D01*
X54321657Y-102762157D01*
X54348181Y-102735676D01*
X54375861Y-102710284D01*
X54404670Y-102686022D01*
X54434578Y-102662932D01*
X54470791Y-102637826D01*
X54507911Y-102614337D01*
X54545881Y-102592480D01*
X54584649Y-102572274D01*
X54624158Y-102553733D01*
X54664355Y-102536876D01*
X54705184Y-102521718D01*
X54746591Y-102508276D01*
X54788521Y-102496566D01*
X54830919Y-102486605D01*
X54873730Y-102478410D01*
X54916900Y-102471997D01*
X54960373Y-102467382D01*
X55004095Y-102464582D01*
X55048012Y-102463615D01*
X55092068Y-102464495D01*
G37*
G36*
X56622846Y-96433810D02*
G01*
X56651545Y-96435086D01*
X56679703Y-96437283D01*
X56707292Y-96440566D01*
X56734281Y-96445097D01*
X56760643Y-96451038D01*
X56786348Y-96458553D01*
X56811366Y-96467805D01*
X56835670Y-96478955D01*
X56858927Y-96490769D01*
X56881808Y-96503220D01*
X56904300Y-96516298D01*
X56926391Y-96529993D01*
X56948069Y-96544295D01*
X56969322Y-96559196D01*
X56990138Y-96574684D01*
X57010505Y-96590750D01*
X57030410Y-96607384D01*
X57049842Y-96624576D01*
X57068789Y-96642317D01*
X57087238Y-96660597D01*
X57105177Y-96679405D01*
X57122594Y-96698733D01*
X57139477Y-96718570D01*
X57155815Y-96738906D01*
X57174161Y-96762810D01*
X57191892Y-96787134D01*
X57209002Y-96811865D01*
X57225486Y-96836991D01*
X57241336Y-96862501D01*
X57256546Y-96888380D01*
X57271110Y-96914619D01*
X57285023Y-96941204D01*
X57298278Y-96968123D01*
X57310868Y-96995364D01*
X57322788Y-97022914D01*
X57334031Y-97050762D01*
X57344591Y-97078896D01*
X57354462Y-97107303D01*
X57363637Y-97135971D01*
X57372112Y-97164887D01*
X57388900Y-97237218D01*
X57403268Y-97310005D01*
X57415209Y-97383190D01*
X57424715Y-97456709D01*
X57431780Y-97530503D01*
X57436396Y-97604511D01*
X57438558Y-97678672D01*
X57438259Y-97752925D01*
X57438259Y-99126775D01*
X56811198Y-99126775D01*
X55365250Y-99126775D01*
X54007937Y-99126775D01*
X54007937Y-98208670D01*
X54637646Y-98208670D01*
X54637646Y-98268863D01*
X55365250Y-98268863D01*
X55365250Y-98159723D01*
X55365103Y-98112098D01*
X55951303Y-98112098D01*
X55951303Y-98271510D01*
X56811198Y-98271510D01*
X56811198Y-98224547D01*
X56810041Y-97940781D01*
X56808594Y-97838090D01*
X56806568Y-97761526D01*
X56805593Y-97744429D01*
X56804223Y-97727375D01*
X56802459Y-97710372D01*
X56800302Y-97693426D01*
X56797755Y-97676543D01*
X56794818Y-97659730D01*
X56791494Y-97642995D01*
X56787784Y-97626343D01*
X56783689Y-97609781D01*
X56779211Y-97593317D01*
X56774352Y-97576956D01*
X56769113Y-97560705D01*
X56763496Y-97544572D01*
X56757502Y-97528563D01*
X56751133Y-97512684D01*
X56744391Y-97496943D01*
X56738747Y-97483508D01*
X56732556Y-97470369D01*
X56725831Y-97457540D01*
X56718583Y-97445035D01*
X56710827Y-97432869D01*
X56702575Y-97421056D01*
X56693838Y-97409613D01*
X56684632Y-97398552D01*
X56674967Y-97387890D01*
X56664857Y-97377639D01*
X56654314Y-97367817D01*
X56643352Y-97358436D01*
X56631983Y-97349511D01*
X56620220Y-97341058D01*
X56608076Y-97333091D01*
X56595562Y-97325625D01*
X56582728Y-97318914D01*
X56569708Y-97312633D01*
X56556513Y-97306786D01*
X56543152Y-97301374D01*
X56529639Y-97296400D01*
X56515982Y-97291867D01*
X56502194Y-97287779D01*
X56488285Y-97284136D01*
X56474266Y-97280942D01*
X56460148Y-97278201D01*
X56445942Y-97275913D01*
X56431659Y-97274083D01*
X56417310Y-97272712D01*
X56402905Y-97271804D01*
X56388456Y-97271360D01*
X56373974Y-97271385D01*
X56373312Y-97269401D01*
X56356863Y-97268854D01*
X56340449Y-97268953D01*
X56324089Y-97269694D01*
X56307802Y-97271073D01*
X56291606Y-97273083D01*
X56275518Y-97275721D01*
X56259557Y-97278982D01*
X56243741Y-97282860D01*
X56228088Y-97287351D01*
X56212616Y-97292451D01*
X56197343Y-97298154D01*
X56182288Y-97304455D01*
X56167468Y-97311350D01*
X56152902Y-97318834D01*
X56138608Y-97326902D01*
X56124603Y-97335549D01*
X56112836Y-97345041D01*
X56101460Y-97354942D01*
X56090484Y-97365240D01*
X56079918Y-97375921D01*
X56069771Y-97386972D01*
X56060051Y-97398382D01*
X56050767Y-97410137D01*
X56041929Y-97422224D01*
X56033546Y-97434631D01*
X56025626Y-97447345D01*
X56018179Y-97460353D01*
X56011213Y-97473642D01*
X56004737Y-97487199D01*
X55998761Y-97501012D01*
X55993294Y-97515068D01*
X55988344Y-97529353D01*
X55980358Y-97555602D01*
X55973438Y-97582117D01*
X55967590Y-97608866D01*
X55962820Y-97635817D01*
X55959132Y-97662938D01*
X55956531Y-97690195D01*
X55955022Y-97717557D01*
X55954610Y-97744990D01*
X55951303Y-98112098D01*
X55365103Y-98112098D01*
X55364671Y-97971951D01*
X55363296Y-97902716D01*
X55362147Y-97874342D01*
X55360619Y-97850161D01*
X55359662Y-97838257D01*
X55358424Y-97826390D01*
X55356907Y-97814566D01*
X55355112Y-97802790D01*
X55353040Y-97791066D01*
X55350692Y-97779399D01*
X55348070Y-97767794D01*
X55345175Y-97756256D01*
X55342007Y-97744789D01*
X55338570Y-97733399D01*
X55334863Y-97722090D01*
X55330888Y-97710868D01*
X55326646Y-97699736D01*
X55322139Y-97688701D01*
X55317367Y-97677766D01*
X55312333Y-97666936D01*
X55307352Y-97655418D01*
X55301873Y-97644179D01*
X55295908Y-97633234D01*
X55289470Y-97622598D01*
X55282572Y-97612283D01*
X55275227Y-97602304D01*
X55267448Y-97592674D01*
X55259247Y-97583409D01*
X55250639Y-97574522D01*
X55241636Y-97566026D01*
X55232250Y-97557936D01*
X55222495Y-97550266D01*
X55212384Y-97543030D01*
X55201929Y-97536242D01*
X55191144Y-97529915D01*
X55180041Y-97524065D01*
X55168240Y-97519176D01*
X55156328Y-97514607D01*
X55144312Y-97510360D01*
X55132198Y-97506437D01*
X55119993Y-97502838D01*
X55107704Y-97499565D01*
X55095336Y-97496619D01*
X55082897Y-97494002D01*
X55070393Y-97491714D01*
X55057831Y-97489757D01*
X55045218Y-97488133D01*
X55032559Y-97486842D01*
X55019861Y-97485885D01*
X55007132Y-97485265D01*
X54994377Y-97484983D01*
X54981604Y-97485039D01*
X54978958Y-97485697D01*
X54967837Y-97486008D01*
X54956745Y-97486638D01*
X54945690Y-97487586D01*
X54934677Y-97488849D01*
X54923715Y-97490426D01*
X54912808Y-97492316D01*
X54901965Y-97494516D01*
X54891191Y-97497026D01*
X54880493Y-97499843D01*
X54869879Y-97502965D01*
X54859353Y-97506392D01*
X54848924Y-97510122D01*
X54838598Y-97514152D01*
X54828382Y-97518481D01*
X54818281Y-97523108D01*
X54808304Y-97528031D01*
X54797764Y-97533333D01*
X54787518Y-97539091D01*
X54777578Y-97545294D01*
X54767957Y-97551928D01*
X54758667Y-97558979D01*
X54749721Y-97566435D01*
X54741132Y-97574282D01*
X54732912Y-97582507D01*
X54725074Y-97591096D01*
X54717631Y-97600037D01*
X54710595Y-97609316D01*
X54703978Y-97618921D01*
X54697794Y-97628837D01*
X54692055Y-97639051D01*
X54686774Y-97649551D01*
X54681963Y-97660323D01*
X54677099Y-97672360D01*
X54672536Y-97684501D01*
X54668275Y-97696738D01*
X54664318Y-97709066D01*
X54660667Y-97721481D01*
X54657321Y-97733975D01*
X54654283Y-97746544D01*
X54651553Y-97759181D01*
X54649132Y-97771882D01*
X54647022Y-97784639D01*
X54645224Y-97797448D01*
X54643739Y-97810303D01*
X54642569Y-97823198D01*
X54641713Y-97836127D01*
X54641174Y-97849086D01*
X54640953Y-97862067D01*
X54640436Y-97927294D01*
X54639299Y-98006844D01*
X54638162Y-98100657D01*
X54637646Y-98208670D01*
X54007937Y-98208670D01*
X54007937Y-97914323D01*
X54007323Y-97842559D01*
X54007925Y-97770810D01*
X54009744Y-97699091D01*
X54012777Y-97627419D01*
X54017024Y-97555808D01*
X54022484Y-97484274D01*
X54029157Y-97412833D01*
X54037041Y-97341500D01*
X54040853Y-97317608D01*
X54045172Y-97293823D01*
X54049995Y-97270151D01*
X54055321Y-97246602D01*
X54061145Y-97223182D01*
X54067466Y-97199900D01*
X54074282Y-97176763D01*
X54081589Y-97153780D01*
X54089384Y-97130957D01*
X54097666Y-97108304D01*
X54106432Y-97085828D01*
X54115679Y-97063536D01*
X54125405Y-97041438D01*
X54135606Y-97019539D01*
X54146281Y-96997849D01*
X54157427Y-96976375D01*
X54168992Y-96954971D01*
X54181296Y-96934048D01*
X54194324Y-96913623D01*
X54208057Y-96893714D01*
X54222481Y-96874337D01*
X54237578Y-96855511D01*
X54253333Y-96837250D01*
X54269729Y-96819573D01*
X54286750Y-96802497D01*
X54304379Y-96786039D01*
X54322600Y-96770215D01*
X54341396Y-96755043D01*
X54360752Y-96740539D01*
X54380650Y-96726721D01*
X54401075Y-96713606D01*
X54422010Y-96701211D01*
X54444264Y-96689859D01*
X54466826Y-96679239D01*
X54489680Y-96669357D01*
X54512807Y-96660216D01*
X54536189Y-96651820D01*
X54559808Y-96644175D01*
X54583645Y-96637284D01*
X54607682Y-96631151D01*
X54631901Y-96625782D01*
X54656283Y-96621180D01*
X54680811Y-96617350D01*
X54705466Y-96614296D01*
X54730230Y-96612022D01*
X54755085Y-96610533D01*
X54780012Y-96609833D01*
X54804993Y-96609927D01*
X54834600Y-96610008D01*
X54864115Y-96611162D01*
X54893511Y-96613381D01*
X54922760Y-96616657D01*
X54951833Y-96620983D01*
X54980704Y-96626351D01*
X55009345Y-96632753D01*
X55037727Y-96640181D01*
X55065823Y-96648627D01*
X55093604Y-96658084D01*
X55121044Y-96668543D01*
X55148114Y-96679997D01*
X55174787Y-96692438D01*
X55201034Y-96705859D01*
X55226828Y-96720251D01*
X55252141Y-96735606D01*
X55276130Y-96751608D01*
X55299425Y-96768479D01*
X55322003Y-96786193D01*
X55343846Y-96804726D01*
X55364933Y-96824054D01*
X55385243Y-96844154D01*
X55404757Y-96865000D01*
X55423454Y-96886568D01*
X55441314Y-96908834D01*
X55458316Y-96931774D01*
X55474441Y-96955364D01*
X55489669Y-96979579D01*
X55503978Y-97004395D01*
X55517350Y-97029788D01*
X55529762Y-97055734D01*
X55541197Y-97082207D01*
X55559056Y-97082207D01*
X55566327Y-97045960D01*
X55574999Y-97010126D01*
X55585051Y-96974744D01*
X55596464Y-96939851D01*
X55609217Y-96905484D01*
X55623291Y-96871681D01*
X55638665Y-96838478D01*
X55655320Y-96805915D01*
X55673234Y-96774027D01*
X55692389Y-96742853D01*
X55712764Y-96712429D01*
X55734340Y-96682794D01*
X55757095Y-96653984D01*
X55781010Y-96626038D01*
X55806064Y-96598992D01*
X55832239Y-96572883D01*
X55845254Y-96561321D01*
X55858505Y-96550431D01*
X55871994Y-96540196D01*
X55885724Y-96530594D01*
X55899699Y-96521605D01*
X55913920Y-96513209D01*
X55943116Y-96498118D01*
X55973335Y-96485158D01*
X56004601Y-96474168D01*
X56036936Y-96464989D01*
X56070364Y-96457459D01*
X56104908Y-96451417D01*
X56140592Y-96446703D01*
X56177439Y-96443155D01*
X56215471Y-96440613D01*
X56254713Y-96438916D01*
X56295187Y-96437903D01*
X56379926Y-96437285D01*
X56377280Y-96437283D01*
X56440927Y-96436415D01*
X56503226Y-96434679D01*
X56563943Y-96433376D01*
X56622846Y-96433810D01*
G37*
G36*
X57428337Y-90248017D02*
G01*
X57153832Y-90248017D01*
X57155818Y-90250664D01*
X57222129Y-90329212D01*
X57280832Y-90399492D01*
X57296877Y-90420011D01*
X57312301Y-90440980D01*
X57327094Y-90462385D01*
X57341249Y-90484211D01*
X57354755Y-90506444D01*
X57367605Y-90529069D01*
X57379788Y-90552073D01*
X57391297Y-90575440D01*
X57406012Y-90604334D01*
X57419698Y-90633655D01*
X57432348Y-90663377D01*
X57443956Y-90693470D01*
X57454515Y-90723907D01*
X57464021Y-90754661D01*
X57472467Y-90785704D01*
X57479846Y-90817008D01*
X57486153Y-90848545D01*
X57491382Y-90880289D01*
X57495527Y-90912210D01*
X57498582Y-90944282D01*
X57500540Y-90976476D01*
X57501396Y-91008766D01*
X57501144Y-91041122D01*
X57499777Y-91073519D01*
X57499812Y-91113540D01*
X57497788Y-91153320D01*
X57493735Y-91192786D01*
X57487680Y-91231865D01*
X57479655Y-91270486D01*
X57469686Y-91308576D01*
X57457805Y-91346062D01*
X57444039Y-91382873D01*
X57428419Y-91418936D01*
X57410973Y-91454178D01*
X57391730Y-91488528D01*
X57370720Y-91521912D01*
X57347972Y-91554260D01*
X57323515Y-91585497D01*
X57297378Y-91615553D01*
X57269590Y-91644355D01*
X57239978Y-91671972D01*
X57209143Y-91697928D01*
X57177155Y-91722195D01*
X57144086Y-91744743D01*
X57110006Y-91765547D01*
X57074988Y-91784577D01*
X57039102Y-91801807D01*
X57002419Y-91817207D01*
X56965011Y-91830751D01*
X56926949Y-91842411D01*
X56888304Y-91852158D01*
X56849147Y-91859965D01*
X56809550Y-91865804D01*
X56769584Y-91869648D01*
X56729319Y-91871468D01*
X56688828Y-91871237D01*
X56658418Y-91872023D01*
X56628071Y-91871706D01*
X56607419Y-91870741D01*
X56597814Y-91870293D01*
X56567676Y-91867792D01*
X56537687Y-91864209D01*
X56507875Y-91859552D01*
X56478268Y-91853828D01*
X56448897Y-91847045D01*
X56419788Y-91839208D01*
X56390971Y-91830326D01*
X56362475Y-91820406D01*
X56334328Y-91809455D01*
X56306559Y-91797480D01*
X56279197Y-91784487D01*
X56252270Y-91770486D01*
X56225808Y-91755481D01*
X56203091Y-91739759D01*
X56180985Y-91723288D01*
X56159506Y-91706087D01*
X56138670Y-91688176D01*
X56118493Y-91669574D01*
X56098992Y-91650299D01*
X56080182Y-91630371D01*
X56062081Y-91609808D01*
X56044703Y-91588630D01*
X56028065Y-91566856D01*
X56012184Y-91544504D01*
X55997075Y-91521594D01*
X55982754Y-91498145D01*
X55969239Y-91474176D01*
X55956544Y-91449705D01*
X55944687Y-91424752D01*
X55917380Y-91362048D01*
X55892564Y-91298399D01*
X55870262Y-91233882D01*
X55850494Y-91168570D01*
X55833280Y-91102539D01*
X55818644Y-91035863D01*
X55806604Y-90968618D01*
X55797183Y-90900877D01*
X55776802Y-90745723D01*
X55759149Y-90584865D01*
X55743977Y-90418302D01*
X55731186Y-90248017D01*
X56215885Y-90248017D01*
X56235233Y-90433722D01*
X56251603Y-90578747D01*
X56255843Y-90610584D01*
X56260983Y-90642269D01*
X56267018Y-90673783D01*
X56273945Y-90705106D01*
X56281758Y-90736219D01*
X56290453Y-90767105D01*
X56300026Y-90797743D01*
X56310472Y-90828115D01*
X56314523Y-90840140D01*
X56318998Y-90851981D01*
X56323890Y-90863630D01*
X56329192Y-90875075D01*
X56334897Y-90886306D01*
X56340998Y-90897314D01*
X56347488Y-90908087D01*
X56354360Y-90918616D01*
X56361607Y-90928890D01*
X56369223Y-90938899D01*
X56377200Y-90948633D01*
X56385531Y-90958082D01*
X56394210Y-90967235D01*
X56403228Y-90976082D01*
X56412581Y-90984613D01*
X56422260Y-90992818D01*
X56433205Y-91000342D01*
X56444422Y-91007377D01*
X56455895Y-91013917D01*
X56467606Y-91019957D01*
X56479538Y-91025493D01*
X56491677Y-91030520D01*
X56504003Y-91035033D01*
X56516502Y-91039026D01*
X56529157Y-91042495D01*
X56541950Y-91045435D01*
X56554866Y-91047841D01*
X56567887Y-91049708D01*
X56580998Y-91051032D01*
X56594181Y-91051806D01*
X56607419Y-91052027D01*
X56620697Y-91051689D01*
X56642959Y-91051301D01*
X56664350Y-91050140D01*
X56684866Y-91048205D01*
X56704506Y-91045498D01*
X56723266Y-91042020D01*
X56741143Y-91037771D01*
X56758135Y-91032753D01*
X56774238Y-91026967D01*
X56789450Y-91020413D01*
X56803768Y-91013093D01*
X56817188Y-91005008D01*
X56829708Y-90996158D01*
X56841325Y-90986544D01*
X56852036Y-90976168D01*
X56861838Y-90965031D01*
X56870728Y-90953132D01*
X56879824Y-90936591D01*
X56888279Y-90919765D01*
X56896087Y-90902672D01*
X56903246Y-90885331D01*
X56909750Y-90867761D01*
X56915595Y-90849981D01*
X56920777Y-90832009D01*
X56925293Y-90813864D01*
X56929136Y-90795565D01*
X56932304Y-90777131D01*
X56934791Y-90758581D01*
X56936594Y-90739933D01*
X56937708Y-90721205D01*
X56938129Y-90702418D01*
X56937852Y-90683589D01*
X56936874Y-90664737D01*
X56936495Y-90650714D01*
X56935758Y-90636721D01*
X56934663Y-90622765D01*
X56933212Y-90608853D01*
X56931407Y-90594991D01*
X56929249Y-90581187D01*
X56926740Y-90567448D01*
X56923880Y-90553779D01*
X56920672Y-90540187D01*
X56917118Y-90526680D01*
X56913218Y-90513263D01*
X56908974Y-90499945D01*
X56904387Y-90486731D01*
X56899460Y-90473627D01*
X56894193Y-90460642D01*
X56888588Y-90447781D01*
X56882434Y-90434084D01*
X56875984Y-90420539D01*
X56869241Y-90407149D01*
X56862208Y-90393920D01*
X56854888Y-90380855D01*
X56847284Y-90367961D01*
X56839399Y-90355240D01*
X56831236Y-90342698D01*
X56822798Y-90330339D01*
X56814089Y-90318168D01*
X56805111Y-90306189D01*
X56795867Y-90294408D01*
X56786361Y-90282828D01*
X56776595Y-90271453D01*
X56766572Y-90260290D01*
X56756296Y-90249342D01*
X56756957Y-90248017D01*
X56215885Y-90248017D01*
X55731186Y-90248017D01*
X55731037Y-90246033D01*
X55717145Y-90246033D01*
X55705766Y-90245167D01*
X55694425Y-90244729D01*
X55683132Y-90244712D01*
X55671897Y-90245111D01*
X55660731Y-90245922D01*
X55649642Y-90247139D01*
X55638640Y-90248756D01*
X55627736Y-90250769D01*
X55616939Y-90253173D01*
X55606260Y-90255962D01*
X55595707Y-90259130D01*
X55585291Y-90262673D01*
X55575021Y-90266586D01*
X55564908Y-90270862D01*
X55554961Y-90275497D01*
X55545190Y-90280486D01*
X55535605Y-90285824D01*
X55526215Y-90291504D01*
X55517031Y-90297522D01*
X55508062Y-90303873D01*
X55499319Y-90310552D01*
X55490810Y-90317552D01*
X55482547Y-90324869D01*
X55474538Y-90332498D01*
X55466793Y-90340434D01*
X55459323Y-90348670D01*
X55452137Y-90357203D01*
X55445245Y-90366026D01*
X55438657Y-90375135D01*
X55432382Y-90384523D01*
X55426431Y-90394187D01*
X55420813Y-90404120D01*
X55409495Y-90432329D01*
X55398994Y-90460806D01*
X55389312Y-90489535D01*
X55380454Y-90518496D01*
X55372421Y-90547672D01*
X55365218Y-90577046D01*
X55358847Y-90606600D01*
X55353311Y-90636315D01*
X55348613Y-90666175D01*
X55344756Y-90696160D01*
X55341744Y-90726254D01*
X55339579Y-90756439D01*
X55338264Y-90786696D01*
X55337803Y-90817009D01*
X55338199Y-90847358D01*
X55339454Y-90877727D01*
X55341142Y-90920180D01*
X55344201Y-90962523D01*
X55348625Y-91004723D01*
X55354409Y-91046748D01*
X55361549Y-91088563D01*
X55370038Y-91130136D01*
X55379873Y-91171435D01*
X55391047Y-91212427D01*
X55404596Y-91260154D01*
X55419006Y-91307616D01*
X55434275Y-91354799D01*
X55450397Y-91401694D01*
X55467368Y-91448288D01*
X55485185Y-91494569D01*
X55503844Y-91540526D01*
X55523339Y-91586148D01*
X55523339Y-91652294D01*
X54898922Y-91652294D01*
X54890026Y-91619986D01*
X54880711Y-91583089D01*
X54870993Y-91541603D01*
X54860888Y-91495528D01*
X54839576Y-91389612D01*
X54816900Y-91265339D01*
X54805830Y-91198409D01*
X54796241Y-91131277D01*
X54788136Y-91063965D01*
X54781516Y-90996500D01*
X54776384Y-90928905D01*
X54772742Y-90861205D01*
X54770593Y-90793425D01*
X54769937Y-90725590D01*
X54770883Y-90643417D01*
X54773555Y-90564080D01*
X54777952Y-90487581D01*
X54784076Y-90413919D01*
X54791925Y-90343094D01*
X54801501Y-90275106D01*
X54812803Y-90209955D01*
X54825830Y-90147641D01*
X54840584Y-90088164D01*
X54857064Y-90031524D01*
X54875269Y-89977721D01*
X54895201Y-89926755D01*
X54916858Y-89878626D01*
X54940242Y-89833334D01*
X54965352Y-89790879D01*
X54992187Y-89751261D01*
X55020808Y-89714256D01*
X55051274Y-89679638D01*
X55083585Y-89647407D01*
X55117740Y-89617564D01*
X55153741Y-89590108D01*
X55191586Y-89565040D01*
X55231276Y-89542359D01*
X55272811Y-89522066D01*
X55316191Y-89504160D01*
X55361416Y-89488642D01*
X55408485Y-89475511D01*
X55457400Y-89464767D01*
X55508159Y-89456411D01*
X55560763Y-89450443D01*
X55615211Y-89446862D01*
X55671505Y-89445668D01*
X57428337Y-89445668D01*
X57428337Y-90248017D01*
G37*
G36*
X58381500Y-88057931D02*
G01*
X58381500Y-88925105D01*
X57372115Y-88532199D01*
X54843360Y-89482713D01*
X54843360Y-88634724D01*
X56469225Y-88090344D01*
X54843360Y-87580359D01*
X54843359Y-86751549D01*
X58381500Y-88057931D01*
G37*
G36*
X55105297Y-99700920D02*
G01*
X55051150Y-99755144D01*
X55000497Y-99810164D01*
X54953337Y-99865980D01*
X54909671Y-99922591D01*
X54869497Y-99979999D01*
X54832818Y-100038202D01*
X54799631Y-100097201D01*
X54769938Y-100156996D01*
X54743738Y-100217586D01*
X54721031Y-100278973D01*
X54701818Y-100341155D01*
X54686098Y-100404133D01*
X54673871Y-100467907D01*
X54665138Y-100532476D01*
X54659898Y-100597842D01*
X54658152Y-100664003D01*
X54658300Y-100717228D01*
X54661145Y-100770131D01*
X54666648Y-100822619D01*
X54674772Y-100874598D01*
X54685480Y-100925976D01*
X54698735Y-100976658D01*
X54714498Y-101026552D01*
X54732733Y-101075563D01*
X54753401Y-101123599D01*
X54776466Y-101170566D01*
X54801890Y-101216370D01*
X54829636Y-101260918D01*
X54859666Y-101304116D01*
X54891942Y-101345872D01*
X54926427Y-101386091D01*
X54963084Y-101424680D01*
X55000854Y-101461676D01*
X55040305Y-101496492D01*
X55081340Y-101529088D01*
X55123863Y-101559426D01*
X55167778Y-101587464D01*
X55212988Y-101613166D01*
X55259398Y-101636490D01*
X55306910Y-101657397D01*
X55355429Y-101675848D01*
X55404858Y-101691804D01*
X55455101Y-101705224D01*
X55506063Y-101716071D01*
X55557646Y-101724303D01*
X55609754Y-101729882D01*
X55662291Y-101732768D01*
X55715162Y-101732922D01*
X55751304Y-101733234D01*
X55787369Y-101732371D01*
X55823331Y-101730340D01*
X55859161Y-101727148D01*
X55894832Y-101722800D01*
X55930315Y-101717304D01*
X55965585Y-101710666D01*
X56000612Y-101702892D01*
X56035370Y-101693990D01*
X56069830Y-101683967D01*
X56103965Y-101672827D01*
X56137748Y-101660579D01*
X56171151Y-101647228D01*
X56204146Y-101632782D01*
X56236705Y-101617246D01*
X56268802Y-101600629D01*
X56298613Y-101583122D01*
X56327710Y-101564598D01*
X56356069Y-101545080D01*
X56383667Y-101524592D01*
X56410482Y-101503158D01*
X56436491Y-101480801D01*
X56461670Y-101457546D01*
X56485997Y-101433415D01*
X56509448Y-101408432D01*
X56532000Y-101382621D01*
X56553631Y-101356006D01*
X56574317Y-101328610D01*
X56594036Y-101300457D01*
X56612764Y-101271570D01*
X56630478Y-101241973D01*
X56647156Y-101211691D01*
X56663748Y-101179643D01*
X56679292Y-101147145D01*
X56693784Y-101114223D01*
X56707215Y-101080902D01*
X56719581Y-101047208D01*
X56730874Y-101013167D01*
X56741089Y-100978805D01*
X56750218Y-100944148D01*
X56758255Y-100909221D01*
X56765195Y-100874051D01*
X56771030Y-100838664D01*
X56775754Y-100803085D01*
X56779362Y-100767340D01*
X56781845Y-100731456D01*
X56783199Y-100695457D01*
X56783416Y-100659371D01*
X56783436Y-100628496D01*
X56782645Y-100597669D01*
X56781047Y-100566905D01*
X56778643Y-100536219D01*
X56775438Y-100505629D01*
X56771435Y-100475148D01*
X56766636Y-100444792D01*
X56761045Y-100414578D01*
X56754665Y-100384521D01*
X56747499Y-100354635D01*
X56739549Y-100324938D01*
X56730820Y-100295444D01*
X56721314Y-100266169D01*
X56711035Y-100237129D01*
X56699984Y-100208340D01*
X56688166Y-100179816D01*
X56671305Y-100146791D01*
X56653757Y-100114159D01*
X56635531Y-100081929D01*
X56616634Y-100050113D01*
X56597074Y-100018720D01*
X56576858Y-99987761D01*
X56555993Y-99957245D01*
X56534486Y-99927182D01*
X56512346Y-99897583D01*
X56489580Y-99868458D01*
X56466194Y-99839817D01*
X56442197Y-99811670D01*
X56417595Y-99784027D01*
X56392397Y-99756899D01*
X56366609Y-99730296D01*
X56340239Y-99704227D01*
X56758943Y-99302061D01*
X56795118Y-99337701D01*
X56830417Y-99374141D01*
X56864828Y-99411364D01*
X56898339Y-99449354D01*
X56930938Y-99488094D01*
X56962614Y-99527566D01*
X56993354Y-99567754D01*
X57023146Y-99608641D01*
X57051979Y-99650211D01*
X57079840Y-99692446D01*
X57106717Y-99735330D01*
X57132599Y-99778845D01*
X57157473Y-99822976D01*
X57181328Y-99867704D01*
X57204152Y-99913014D01*
X57225932Y-99958889D01*
X57242440Y-100001250D01*
X57257868Y-100043964D01*
X57272212Y-100087009D01*
X57285467Y-100130365D01*
X57297629Y-100174011D01*
X57308696Y-100217926D01*
X57318663Y-100262090D01*
X57327526Y-100306481D01*
X57335281Y-100351079D01*
X57341924Y-100395863D01*
X57347452Y-100440813D01*
X57351861Y-100485907D01*
X57355146Y-100531124D01*
X57357304Y-100576445D01*
X57358332Y-100621848D01*
X57358224Y-100667312D01*
X57356431Y-100757254D01*
X57351051Y-100845182D01*
X57342085Y-100931093D01*
X57329533Y-101014990D01*
X57313394Y-101096871D01*
X57293670Y-101176737D01*
X57270358Y-101254587D01*
X57243461Y-101330422D01*
X57212977Y-101404242D01*
X57178906Y-101476046D01*
X57141250Y-101545835D01*
X57100007Y-101613609D01*
X57055177Y-101679367D01*
X57006762Y-101743110D01*
X56954760Y-101804838D01*
X56899171Y-101864550D01*
X56840741Y-101921417D01*
X56780212Y-101974610D01*
X56717586Y-102024129D01*
X56652861Y-102069974D01*
X56586038Y-102112145D01*
X56517117Y-102150641D01*
X56446098Y-102185463D01*
X56372981Y-102216611D01*
X56297766Y-102244085D01*
X56220453Y-102267885D01*
X56141042Y-102288010D01*
X56059533Y-102304461D01*
X55975925Y-102317238D01*
X55890220Y-102326341D01*
X55802417Y-102331769D01*
X55712515Y-102333524D01*
X55658234Y-102333548D01*
X55604092Y-102331742D01*
X55550135Y-102328115D01*
X55496406Y-102322679D01*
X55442950Y-102315445D01*
X55389811Y-102306426D01*
X55337035Y-102295633D01*
X55284666Y-102283076D01*
X55232747Y-102268768D01*
X55181325Y-102252720D01*
X55130442Y-102234943D01*
X55080145Y-102215450D01*
X55030476Y-102194250D01*
X54981482Y-102171357D01*
X54933206Y-102146781D01*
X54885692Y-102120534D01*
X54840011Y-102092357D01*
X54795410Y-102062698D01*
X54751920Y-102031592D01*
X54709574Y-101999071D01*
X54668404Y-101965169D01*
X54628441Y-101929919D01*
X54589719Y-101893356D01*
X54552268Y-101855511D01*
X54516121Y-101816420D01*
X54481310Y-101776115D01*
X54447866Y-101734629D01*
X54415823Y-101691997D01*
X54385211Y-101648251D01*
X54356063Y-101603425D01*
X54328411Y-101557553D01*
X54302287Y-101510667D01*
X54275949Y-101461486D01*
X54251249Y-101411576D01*
X54228197Y-101360978D01*
X54206804Y-101309733D01*
X54187080Y-101257882D01*
X54169036Y-101205468D01*
X54152684Y-101152530D01*
X54138032Y-101099110D01*
X54125093Y-101045250D01*
X54113876Y-100990992D01*
X54104392Y-100936375D01*
X54096652Y-100881442D01*
X54090667Y-100826234D01*
X54086447Y-100770792D01*
X54084002Y-100715158D01*
X54083344Y-100659373D01*
X54083931Y-100610775D01*
X54085815Y-100562272D01*
X54088992Y-100513888D01*
X54093455Y-100465649D01*
X54099200Y-100417580D01*
X54106221Y-100369707D01*
X54114512Y-100322055D01*
X54124068Y-100274648D01*
X54134884Y-100227513D01*
X54146954Y-100180675D01*
X54160272Y-100134159D01*
X54174833Y-100087990D01*
X54190633Y-100042194D01*
X54207664Y-99996796D01*
X54225923Y-99951821D01*
X54245402Y-99907295D01*
X54265874Y-99862609D01*
X54287554Y-99818572D01*
X54310425Y-99775206D01*
X54334469Y-99732533D01*
X54359671Y-99690577D01*
X54386013Y-99649360D01*
X54413479Y-99608905D01*
X54442050Y-99569236D01*
X54471711Y-99530374D01*
X54502445Y-99492343D01*
X54534234Y-99455165D01*
X54567062Y-99418864D01*
X54600912Y-99383462D01*
X54635766Y-99348982D01*
X54671609Y-99315446D01*
X54708422Y-99282878D01*
X55105297Y-99700920D01*
G37*
G36*
X58273021Y-86561711D02*
G01*
X57987105Y-89922333D01*
X57932331Y-90735107D01*
X57894811Y-91586428D01*
X57879833Y-92501048D01*
X57892682Y-93503717D01*
X57960449Y-95167968D01*
X58068951Y-96769348D01*
X58213651Y-98314435D01*
X58390016Y-99809813D01*
X58593512Y-101262062D01*
X58819603Y-102677762D01*
X59063754Y-104063494D01*
X59321432Y-105425841D01*
X58824016Y-105322654D01*
X58604123Y-104101369D01*
X58406566Y-102876585D01*
X58231381Y-101648609D01*
X58078603Y-100417747D01*
X57948267Y-99184308D01*
X57840409Y-97948597D01*
X57755063Y-96710923D01*
X57692264Y-95471592D01*
X57692264Y-95471587D01*
X57692264Y-95471583D01*
X57692263Y-95471574D01*
X57692262Y-95471565D01*
X57692261Y-95471560D01*
X57692261Y-95471555D01*
X57666363Y-94183785D01*
X57669998Y-92980390D01*
X57700888Y-91841812D01*
X57756753Y-90748495D01*
X57835314Y-89680882D01*
X57934292Y-88619416D01*
X58184386Y-86436696D01*
X58273021Y-86561711D01*
G37*
D10*
X46652447Y-106738096D02*
X46652447Y-106928572D01*
X46652447Y-106928572D02*
X46700066Y-107023810D01*
X46700066Y-107023810D02*
X46747685Y-107071429D01*
X46747685Y-107071429D02*
X46890542Y-107166667D01*
X46890542Y-107166667D02*
X47081018Y-107214286D01*
X47081018Y-107214286D02*
X47461970Y-107214286D01*
X47461970Y-107214286D02*
X47557208Y-107166667D01*
X47557208Y-107166667D02*
X47604828Y-107119048D01*
X47604828Y-107119048D02*
X47652447Y-107023810D01*
X47652447Y-107023810D02*
X47652447Y-106833334D01*
X47652447Y-106833334D02*
X47604828Y-106738096D01*
X47604828Y-106738096D02*
X47557208Y-106690477D01*
X47557208Y-106690477D02*
X47461970Y-106642858D01*
X47461970Y-106642858D02*
X47223875Y-106642858D01*
X47223875Y-106642858D02*
X47128637Y-106690477D01*
X47128637Y-106690477D02*
X47081018Y-106738096D01*
X47081018Y-106738096D02*
X47033399Y-106833334D01*
X47033399Y-106833334D02*
X47033399Y-107023810D01*
X47033399Y-107023810D02*
X47081018Y-107119048D01*
X47081018Y-107119048D02*
X47128637Y-107166667D01*
X47128637Y-107166667D02*
X47223875Y-107214286D01*
X47557208Y-104880953D02*
X47604828Y-104928572D01*
X47604828Y-104928572D02*
X47652447Y-105071429D01*
X47652447Y-105071429D02*
X47652447Y-105166667D01*
X47652447Y-105166667D02*
X47604828Y-105309524D01*
X47604828Y-105309524D02*
X47509589Y-105404762D01*
X47509589Y-105404762D02*
X47414351Y-105452381D01*
X47414351Y-105452381D02*
X47223875Y-105500000D01*
X47223875Y-105500000D02*
X47081018Y-105500000D01*
X47081018Y-105500000D02*
X46890542Y-105452381D01*
X46890542Y-105452381D02*
X46795304Y-105404762D01*
X46795304Y-105404762D02*
X46700066Y-105309524D01*
X46700066Y-105309524D02*
X46652447Y-105166667D01*
X46652447Y-105166667D02*
X46652447Y-105071429D01*
X46652447Y-105071429D02*
X46700066Y-104928572D01*
X46700066Y-104928572D02*
X46747685Y-104880953D01*
X47652447Y-104452381D02*
X46652447Y-104452381D01*
X47652447Y-104023810D02*
X47128637Y-104023810D01*
X47128637Y-104023810D02*
X47033399Y-104071429D01*
X47033399Y-104071429D02*
X46985780Y-104166667D01*
X46985780Y-104166667D02*
X46985780Y-104309524D01*
X46985780Y-104309524D02*
X47033399Y-104404762D01*
X47033399Y-104404762D02*
X47081018Y-104452381D01*
X47652447Y-103119048D02*
X47128637Y-103119048D01*
X47128637Y-103119048D02*
X47033399Y-103166667D01*
X47033399Y-103166667D02*
X46985780Y-103261905D01*
X46985780Y-103261905D02*
X46985780Y-103452381D01*
X46985780Y-103452381D02*
X47033399Y-103547619D01*
X47604828Y-103119048D02*
X47652447Y-103214286D01*
X47652447Y-103214286D02*
X47652447Y-103452381D01*
X47652447Y-103452381D02*
X47604828Y-103547619D01*
X47604828Y-103547619D02*
X47509589Y-103595238D01*
X47509589Y-103595238D02*
X47414351Y-103595238D01*
X47414351Y-103595238D02*
X47319113Y-103547619D01*
X47319113Y-103547619D02*
X47271494Y-103452381D01*
X47271494Y-103452381D02*
X47271494Y-103214286D01*
X47271494Y-103214286D02*
X47223875Y-103119048D01*
X46985780Y-102642857D02*
X47652447Y-102642857D01*
X47081018Y-102642857D02*
X47033399Y-102595238D01*
X47033399Y-102595238D02*
X46985780Y-102500000D01*
X46985780Y-102500000D02*
X46985780Y-102357143D01*
X46985780Y-102357143D02*
X47033399Y-102261905D01*
X47033399Y-102261905D02*
X47128637Y-102214286D01*
X47128637Y-102214286D02*
X47652447Y-102214286D01*
X46985780Y-101738095D02*
X47652447Y-101738095D01*
X47081018Y-101738095D02*
X47033399Y-101690476D01*
X47033399Y-101690476D02*
X46985780Y-101595238D01*
X46985780Y-101595238D02*
X46985780Y-101452381D01*
X46985780Y-101452381D02*
X47033399Y-101357143D01*
X47033399Y-101357143D02*
X47128637Y-101309524D01*
X47128637Y-101309524D02*
X47652447Y-101309524D01*
X47604828Y-100452381D02*
X47652447Y-100547619D01*
X47652447Y-100547619D02*
X47652447Y-100738095D01*
X47652447Y-100738095D02*
X47604828Y-100833333D01*
X47604828Y-100833333D02*
X47509589Y-100880952D01*
X47509589Y-100880952D02*
X47128637Y-100880952D01*
X47128637Y-100880952D02*
X47033399Y-100833333D01*
X47033399Y-100833333D02*
X46985780Y-100738095D01*
X46985780Y-100738095D02*
X46985780Y-100547619D01*
X46985780Y-100547619D02*
X47033399Y-100452381D01*
X47033399Y-100452381D02*
X47128637Y-100404762D01*
X47128637Y-100404762D02*
X47223875Y-100404762D01*
X47223875Y-100404762D02*
X47319113Y-100880952D01*
X47652447Y-99833333D02*
X47604828Y-99928571D01*
X47604828Y-99928571D02*
X47509589Y-99976190D01*
X47509589Y-99976190D02*
X46652447Y-99976190D01*
X46652447Y-98833332D02*
X46652447Y-98261904D01*
X47652447Y-98547618D02*
X46652447Y-98547618D01*
X47652447Y-97928570D02*
X46652447Y-97928570D01*
X47128637Y-97928570D02*
X47128637Y-97357142D01*
X47652447Y-97357142D02*
X46652447Y-97357142D01*
X46652447Y-97023808D02*
X46652447Y-96452380D01*
X47652447Y-96738094D02*
X46652447Y-96738094D01*
X47652447Y-95357141D02*
X46652447Y-95357141D01*
X46652447Y-95357141D02*
X47366732Y-95023808D01*
X47366732Y-95023808D02*
X46652447Y-94690475D01*
X46652447Y-94690475D02*
X47652447Y-94690475D01*
X47652447Y-94071427D02*
X47604828Y-94166665D01*
X47604828Y-94166665D02*
X47557208Y-94214284D01*
X47557208Y-94214284D02*
X47461970Y-94261903D01*
X47461970Y-94261903D02*
X47176256Y-94261903D01*
X47176256Y-94261903D02*
X47081018Y-94214284D01*
X47081018Y-94214284D02*
X47033399Y-94166665D01*
X47033399Y-94166665D02*
X46985780Y-94071427D01*
X46985780Y-94071427D02*
X46985780Y-93928570D01*
X46985780Y-93928570D02*
X47033399Y-93833332D01*
X47033399Y-93833332D02*
X47081018Y-93785713D01*
X47081018Y-93785713D02*
X47176256Y-93738094D01*
X47176256Y-93738094D02*
X47461970Y-93738094D01*
X47461970Y-93738094D02*
X47557208Y-93785713D01*
X47557208Y-93785713D02*
X47604828Y-93833332D01*
X47604828Y-93833332D02*
X47652447Y-93928570D01*
X47652447Y-93928570D02*
X47652447Y-94071427D01*
X46985780Y-93452379D02*
X46985780Y-93071427D01*
X46652447Y-93309522D02*
X47509589Y-93309522D01*
X47509589Y-93309522D02*
X47604828Y-93261903D01*
X47604828Y-93261903D02*
X47652447Y-93166665D01*
X47652447Y-93166665D02*
X47652447Y-93071427D01*
X47652447Y-92595236D02*
X47604828Y-92690474D01*
X47604828Y-92690474D02*
X47557208Y-92738093D01*
X47557208Y-92738093D02*
X47461970Y-92785712D01*
X47461970Y-92785712D02*
X47176256Y-92785712D01*
X47176256Y-92785712D02*
X47081018Y-92738093D01*
X47081018Y-92738093D02*
X47033399Y-92690474D01*
X47033399Y-92690474D02*
X46985780Y-92595236D01*
X46985780Y-92595236D02*
X46985780Y-92452379D01*
X46985780Y-92452379D02*
X47033399Y-92357141D01*
X47033399Y-92357141D02*
X47081018Y-92309522D01*
X47081018Y-92309522D02*
X47176256Y-92261903D01*
X47176256Y-92261903D02*
X47461970Y-92261903D01*
X47461970Y-92261903D02*
X47557208Y-92309522D01*
X47557208Y-92309522D02*
X47604828Y-92357141D01*
X47604828Y-92357141D02*
X47652447Y-92452379D01*
X47652447Y-92452379D02*
X47652447Y-92595236D01*
X47652447Y-91833331D02*
X46985780Y-91833331D01*
X47176256Y-91833331D02*
X47081018Y-91785712D01*
X47081018Y-91785712D02*
X47033399Y-91738093D01*
X47033399Y-91738093D02*
X46985780Y-91642855D01*
X46985780Y-91642855D02*
X46985780Y-91547617D01*
X47557208Y-90642855D02*
X47604828Y-90690474D01*
X47604828Y-90690474D02*
X47652447Y-90833331D01*
X47652447Y-90833331D02*
X47652447Y-90928569D01*
X47652447Y-90928569D02*
X47604828Y-91071426D01*
X47604828Y-91071426D02*
X47509589Y-91166664D01*
X47509589Y-91166664D02*
X47414351Y-91214283D01*
X47414351Y-91214283D02*
X47223875Y-91261902D01*
X47223875Y-91261902D02*
X47081018Y-91261902D01*
X47081018Y-91261902D02*
X46890542Y-91214283D01*
X46890542Y-91214283D02*
X46795304Y-91166664D01*
X46795304Y-91166664D02*
X46700066Y-91071426D01*
X46700066Y-91071426D02*
X46652447Y-90928569D01*
X46652447Y-90928569D02*
X46652447Y-90833331D01*
X46652447Y-90833331D02*
X46700066Y-90690474D01*
X46700066Y-90690474D02*
X46747685Y-90642855D01*
X47652447Y-90071426D02*
X47604828Y-90166664D01*
X47604828Y-90166664D02*
X47557208Y-90214283D01*
X47557208Y-90214283D02*
X47461970Y-90261902D01*
X47461970Y-90261902D02*
X47176256Y-90261902D01*
X47176256Y-90261902D02*
X47081018Y-90214283D01*
X47081018Y-90214283D02*
X47033399Y-90166664D01*
X47033399Y-90166664D02*
X46985780Y-90071426D01*
X46985780Y-90071426D02*
X46985780Y-89928569D01*
X46985780Y-89928569D02*
X47033399Y-89833331D01*
X47033399Y-89833331D02*
X47081018Y-89785712D01*
X47081018Y-89785712D02*
X47176256Y-89738093D01*
X47176256Y-89738093D02*
X47461970Y-89738093D01*
X47461970Y-89738093D02*
X47557208Y-89785712D01*
X47557208Y-89785712D02*
X47604828Y-89833331D01*
X47604828Y-89833331D02*
X47652447Y-89928569D01*
X47652447Y-89928569D02*
X47652447Y-90071426D01*
X47652447Y-89309521D02*
X46985780Y-89309521D01*
X47081018Y-89309521D02*
X47033399Y-89261902D01*
X47033399Y-89261902D02*
X46985780Y-89166664D01*
X46985780Y-89166664D02*
X46985780Y-89023807D01*
X46985780Y-89023807D02*
X47033399Y-88928569D01*
X47033399Y-88928569D02*
X47128637Y-88880950D01*
X47128637Y-88880950D02*
X47652447Y-88880950D01*
X47128637Y-88880950D02*
X47033399Y-88833331D01*
X47033399Y-88833331D02*
X46985780Y-88738093D01*
X46985780Y-88738093D02*
X46985780Y-88595236D01*
X46985780Y-88595236D02*
X47033399Y-88499997D01*
X47033399Y-88499997D02*
X47128637Y-88452378D01*
X47128637Y-88452378D02*
X47652447Y-88452378D01*
X47652447Y-87976188D02*
X46652447Y-87976188D01*
X47033399Y-87976188D02*
X46985780Y-87880950D01*
X46985780Y-87880950D02*
X46985780Y-87690474D01*
X46985780Y-87690474D02*
X47033399Y-87595236D01*
X47033399Y-87595236D02*
X47081018Y-87547617D01*
X47081018Y-87547617D02*
X47176256Y-87499998D01*
X47176256Y-87499998D02*
X47461970Y-87499998D01*
X47461970Y-87499998D02*
X47557208Y-87547617D01*
X47557208Y-87547617D02*
X47604828Y-87595236D01*
X47604828Y-87595236D02*
X47652447Y-87690474D01*
X47652447Y-87690474D02*
X47652447Y-87880950D01*
X47652447Y-87880950D02*
X47604828Y-87976188D01*
X47652447Y-86928569D02*
X47604828Y-87023807D01*
X47604828Y-87023807D02*
X47557208Y-87071426D01*
X47557208Y-87071426D02*
X47461970Y-87119045D01*
X47461970Y-87119045D02*
X47176256Y-87119045D01*
X47176256Y-87119045D02*
X47081018Y-87071426D01*
X47081018Y-87071426D02*
X47033399Y-87023807D01*
X47033399Y-87023807D02*
X46985780Y-86928569D01*
X46985780Y-86928569D02*
X46985780Y-86785712D01*
X46985780Y-86785712D02*
X47033399Y-86690474D01*
X47033399Y-86690474D02*
X47081018Y-86642855D01*
X47081018Y-86642855D02*
X47176256Y-86595236D01*
X47176256Y-86595236D02*
X47461970Y-86595236D01*
X47461970Y-86595236D02*
X47557208Y-86642855D01*
X47557208Y-86642855D02*
X47604828Y-86690474D01*
X47604828Y-86690474D02*
X47652447Y-86785712D01*
X47652447Y-86785712D02*
X47652447Y-86928569D01*
X47652447Y-84833331D02*
X47176256Y-85166664D01*
X47652447Y-85404759D02*
X46652447Y-85404759D01*
X46652447Y-85404759D02*
X46652447Y-85023807D01*
X46652447Y-85023807D02*
X46700066Y-84928569D01*
X46700066Y-84928569D02*
X46747685Y-84880950D01*
X46747685Y-84880950D02*
X46842923Y-84833331D01*
X46842923Y-84833331D02*
X46985780Y-84833331D01*
X46985780Y-84833331D02*
X47081018Y-84880950D01*
X47081018Y-84880950D02*
X47128637Y-84928569D01*
X47128637Y-84928569D02*
X47176256Y-85023807D01*
X47176256Y-85023807D02*
X47176256Y-85404759D01*
X47604828Y-84023807D02*
X47652447Y-84119045D01*
X47652447Y-84119045D02*
X47652447Y-84309521D01*
X47652447Y-84309521D02*
X47604828Y-84404759D01*
X47604828Y-84404759D02*
X47509589Y-84452378D01*
X47509589Y-84452378D02*
X47128637Y-84452378D01*
X47128637Y-84452378D02*
X47033399Y-84404759D01*
X47033399Y-84404759D02*
X46985780Y-84309521D01*
X46985780Y-84309521D02*
X46985780Y-84119045D01*
X46985780Y-84119045D02*
X47033399Y-84023807D01*
X47033399Y-84023807D02*
X47128637Y-83976188D01*
X47128637Y-83976188D02*
X47223875Y-83976188D01*
X47223875Y-83976188D02*
X47319113Y-84452378D01*
X46985780Y-83642854D02*
X47652447Y-83404759D01*
X47652447Y-83404759D02*
X46985780Y-83166664D01*
X47557208Y-82785711D02*
X47604828Y-82738092D01*
X47604828Y-82738092D02*
X47652447Y-82785711D01*
X47652447Y-82785711D02*
X47604828Y-82833330D01*
X47604828Y-82833330D02*
X47557208Y-82785711D01*
X47557208Y-82785711D02*
X47652447Y-82785711D01*
X47652447Y-81785712D02*
X47652447Y-82357140D01*
X47652447Y-82071426D02*
X46652447Y-82071426D01*
X46652447Y-82071426D02*
X46795304Y-82166664D01*
X46795304Y-82166664D02*
X46890542Y-82261902D01*
X46890542Y-82261902D02*
X46938161Y-82357140D01*
X48357629Y-107738095D02*
X48310010Y-107690476D01*
X48310010Y-107690476D02*
X48262391Y-107595238D01*
X48262391Y-107595238D02*
X48262391Y-107357143D01*
X48262391Y-107357143D02*
X48310010Y-107261905D01*
X48310010Y-107261905D02*
X48357629Y-107214286D01*
X48357629Y-107214286D02*
X48452867Y-107166667D01*
X48452867Y-107166667D02*
X48548105Y-107166667D01*
X48548105Y-107166667D02*
X48690962Y-107214286D01*
X48690962Y-107214286D02*
X49262391Y-107785714D01*
X49262391Y-107785714D02*
X49262391Y-107166667D01*
X48262391Y-106547619D02*
X48262391Y-106452381D01*
X48262391Y-106452381D02*
X48310010Y-106357143D01*
X48310010Y-106357143D02*
X48357629Y-106309524D01*
X48357629Y-106309524D02*
X48452867Y-106261905D01*
X48452867Y-106261905D02*
X48643343Y-106214286D01*
X48643343Y-106214286D02*
X48881438Y-106214286D01*
X48881438Y-106214286D02*
X49071914Y-106261905D01*
X49071914Y-106261905D02*
X49167152Y-106309524D01*
X49167152Y-106309524D02*
X49214772Y-106357143D01*
X49214772Y-106357143D02*
X49262391Y-106452381D01*
X49262391Y-106452381D02*
X49262391Y-106547619D01*
X49262391Y-106547619D02*
X49214772Y-106642857D01*
X49214772Y-106642857D02*
X49167152Y-106690476D01*
X49167152Y-106690476D02*
X49071914Y-106738095D01*
X49071914Y-106738095D02*
X48881438Y-106785714D01*
X48881438Y-106785714D02*
X48643343Y-106785714D01*
X48643343Y-106785714D02*
X48452867Y-106738095D01*
X48452867Y-106738095D02*
X48357629Y-106690476D01*
X48357629Y-106690476D02*
X48310010Y-106642857D01*
X48310010Y-106642857D02*
X48262391Y-106547619D01*
X48357629Y-105833333D02*
X48310010Y-105785714D01*
X48310010Y-105785714D02*
X48262391Y-105690476D01*
X48262391Y-105690476D02*
X48262391Y-105452381D01*
X48262391Y-105452381D02*
X48310010Y-105357143D01*
X48310010Y-105357143D02*
X48357629Y-105309524D01*
X48357629Y-105309524D02*
X48452867Y-105261905D01*
X48452867Y-105261905D02*
X48548105Y-105261905D01*
X48548105Y-105261905D02*
X48690962Y-105309524D01*
X48690962Y-105309524D02*
X49262391Y-105880952D01*
X49262391Y-105880952D02*
X49262391Y-105261905D01*
X48262391Y-104404762D02*
X48262391Y-104595238D01*
X48262391Y-104595238D02*
X48310010Y-104690476D01*
X48310010Y-104690476D02*
X48357629Y-104738095D01*
X48357629Y-104738095D02*
X48500486Y-104833333D01*
X48500486Y-104833333D02*
X48690962Y-104880952D01*
X48690962Y-104880952D02*
X49071914Y-104880952D01*
X49071914Y-104880952D02*
X49167152Y-104833333D01*
X49167152Y-104833333D02*
X49214772Y-104785714D01*
X49214772Y-104785714D02*
X49262391Y-104690476D01*
X49262391Y-104690476D02*
X49262391Y-104500000D01*
X49262391Y-104500000D02*
X49214772Y-104404762D01*
X49214772Y-104404762D02*
X49167152Y-104357143D01*
X49167152Y-104357143D02*
X49071914Y-104309524D01*
X49071914Y-104309524D02*
X48833819Y-104309524D01*
X48833819Y-104309524D02*
X48738581Y-104357143D01*
X48738581Y-104357143D02*
X48690962Y-104404762D01*
X48690962Y-104404762D02*
X48643343Y-104500000D01*
X48643343Y-104500000D02*
X48643343Y-104690476D01*
X48643343Y-104690476D02*
X48690962Y-104785714D01*
X48690962Y-104785714D02*
X48738581Y-104833333D01*
X48738581Y-104833333D02*
X48833819Y-104880952D01*
X48881438Y-103119047D02*
X48881438Y-102357143D01*
X49262391Y-101119047D02*
X48262391Y-101119047D01*
X48643343Y-101119047D02*
X48595724Y-101023809D01*
X48595724Y-101023809D02*
X48595724Y-100833333D01*
X48595724Y-100833333D02*
X48643343Y-100738095D01*
X48643343Y-100738095D02*
X48690962Y-100690476D01*
X48690962Y-100690476D02*
X48786200Y-100642857D01*
X48786200Y-100642857D02*
X49071914Y-100642857D01*
X49071914Y-100642857D02*
X49167152Y-100690476D01*
X49167152Y-100690476D02*
X49214772Y-100738095D01*
X49214772Y-100738095D02*
X49262391Y-100833333D01*
X49262391Y-100833333D02*
X49262391Y-101023809D01*
X49262391Y-101023809D02*
X49214772Y-101119047D01*
X49262391Y-100214285D02*
X48595724Y-100214285D01*
X48262391Y-100214285D02*
X48310010Y-100261904D01*
X48310010Y-100261904D02*
X48357629Y-100214285D01*
X48357629Y-100214285D02*
X48310010Y-100166666D01*
X48310010Y-100166666D02*
X48262391Y-100214285D01*
X48262391Y-100214285D02*
X48357629Y-100214285D01*
X48595724Y-99309524D02*
X49405248Y-99309524D01*
X49405248Y-99309524D02*
X49500486Y-99357143D01*
X49500486Y-99357143D02*
X49548105Y-99404762D01*
X49548105Y-99404762D02*
X49595724Y-99500000D01*
X49595724Y-99500000D02*
X49595724Y-99642857D01*
X49595724Y-99642857D02*
X49548105Y-99738095D01*
X49214772Y-99309524D02*
X49262391Y-99404762D01*
X49262391Y-99404762D02*
X49262391Y-99595238D01*
X49262391Y-99595238D02*
X49214772Y-99690476D01*
X49214772Y-99690476D02*
X49167152Y-99738095D01*
X49167152Y-99738095D02*
X49071914Y-99785714D01*
X49071914Y-99785714D02*
X48786200Y-99785714D01*
X48786200Y-99785714D02*
X48690962Y-99738095D01*
X48690962Y-99738095D02*
X48643343Y-99690476D01*
X48643343Y-99690476D02*
X48595724Y-99595238D01*
X48595724Y-99595238D02*
X48595724Y-99404762D01*
X48595724Y-99404762D02*
X48643343Y-99309524D01*
X49262391Y-98833333D02*
X48262391Y-98833333D01*
X48643343Y-98833333D02*
X48595724Y-98738095D01*
X48595724Y-98738095D02*
X48595724Y-98547619D01*
X48595724Y-98547619D02*
X48643343Y-98452381D01*
X48643343Y-98452381D02*
X48690962Y-98404762D01*
X48690962Y-98404762D02*
X48786200Y-98357143D01*
X48786200Y-98357143D02*
X49071914Y-98357143D01*
X49071914Y-98357143D02*
X49167152Y-98404762D01*
X49167152Y-98404762D02*
X49214772Y-98452381D01*
X49214772Y-98452381D02*
X49262391Y-98547619D01*
X49262391Y-98547619D02*
X49262391Y-98738095D01*
X49262391Y-98738095D02*
X49214772Y-98833333D01*
X49262391Y-97928571D02*
X48595724Y-97928571D01*
X48786200Y-97928571D02*
X48690962Y-97880952D01*
X48690962Y-97880952D02*
X48643343Y-97833333D01*
X48643343Y-97833333D02*
X48595724Y-97738095D01*
X48595724Y-97738095D02*
X48595724Y-97642857D01*
X49262391Y-96880952D02*
X48738581Y-96880952D01*
X48738581Y-96880952D02*
X48643343Y-96928571D01*
X48643343Y-96928571D02*
X48595724Y-97023809D01*
X48595724Y-97023809D02*
X48595724Y-97214285D01*
X48595724Y-97214285D02*
X48643343Y-97309523D01*
X49214772Y-96880952D02*
X49262391Y-96976190D01*
X49262391Y-96976190D02*
X49262391Y-97214285D01*
X49262391Y-97214285D02*
X49214772Y-97309523D01*
X49214772Y-97309523D02*
X49119533Y-97357142D01*
X49119533Y-97357142D02*
X49024295Y-97357142D01*
X49024295Y-97357142D02*
X48929057Y-97309523D01*
X48929057Y-97309523D02*
X48881438Y-97214285D01*
X48881438Y-97214285D02*
X48881438Y-96976190D01*
X48881438Y-96976190D02*
X48833819Y-96880952D01*
X49262391Y-96404761D02*
X48595724Y-96404761D01*
X48262391Y-96404761D02*
X48310010Y-96452380D01*
X48310010Y-96452380D02*
X48357629Y-96404761D01*
X48357629Y-96404761D02*
X48310010Y-96357142D01*
X48310010Y-96357142D02*
X48262391Y-96404761D01*
X48262391Y-96404761D02*
X48357629Y-96404761D01*
X48595724Y-95928571D02*
X49262391Y-95928571D01*
X48690962Y-95928571D02*
X48643343Y-95880952D01*
X48643343Y-95880952D02*
X48595724Y-95785714D01*
X48595724Y-95785714D02*
X48595724Y-95642857D01*
X48595724Y-95642857D02*
X48643343Y-95547619D01*
X48643343Y-95547619D02*
X48738581Y-95500000D01*
X48738581Y-95500000D02*
X49262391Y-95500000D01*
X49262391Y-94880952D02*
X49214772Y-94976190D01*
X49214772Y-94976190D02*
X49119533Y-95023809D01*
X49119533Y-95023809D02*
X48262391Y-95023809D01*
X49262391Y-94071428D02*
X48738581Y-94071428D01*
X48738581Y-94071428D02*
X48643343Y-94119047D01*
X48643343Y-94119047D02*
X48595724Y-94214285D01*
X48595724Y-94214285D02*
X48595724Y-94404761D01*
X48595724Y-94404761D02*
X48643343Y-94499999D01*
X49214772Y-94071428D02*
X49262391Y-94166666D01*
X49262391Y-94166666D02*
X49262391Y-94404761D01*
X49262391Y-94404761D02*
X49214772Y-94499999D01*
X49214772Y-94499999D02*
X49119533Y-94547618D01*
X49119533Y-94547618D02*
X49024295Y-94547618D01*
X49024295Y-94547618D02*
X48929057Y-94499999D01*
X48929057Y-94499999D02*
X48881438Y-94404761D01*
X48881438Y-94404761D02*
X48881438Y-94166666D01*
X48881438Y-94166666D02*
X48833819Y-94071428D01*
X49262391Y-93595237D02*
X48262391Y-93595237D01*
X48643343Y-93595237D02*
X48595724Y-93499999D01*
X48595724Y-93499999D02*
X48595724Y-93309523D01*
X48595724Y-93309523D02*
X48643343Y-93214285D01*
X48643343Y-93214285D02*
X48690962Y-93166666D01*
X48690962Y-93166666D02*
X48786200Y-93119047D01*
X48786200Y-93119047D02*
X49071914Y-93119047D01*
X49071914Y-93119047D02*
X49167152Y-93166666D01*
X49167152Y-93166666D02*
X49214772Y-93214285D01*
X49214772Y-93214285D02*
X49262391Y-93309523D01*
X49262391Y-93309523D02*
X49262391Y-93499999D01*
X49262391Y-93499999D02*
X49214772Y-93595237D01*
X49214772Y-92738094D02*
X49262391Y-92642856D01*
X49262391Y-92642856D02*
X49262391Y-92452380D01*
X49262391Y-92452380D02*
X49214772Y-92357142D01*
X49214772Y-92357142D02*
X49119533Y-92309523D01*
X49119533Y-92309523D02*
X49071914Y-92309523D01*
X49071914Y-92309523D02*
X48976676Y-92357142D01*
X48976676Y-92357142D02*
X48929057Y-92452380D01*
X48929057Y-92452380D02*
X48929057Y-92595237D01*
X48929057Y-92595237D02*
X48881438Y-92690475D01*
X48881438Y-92690475D02*
X48786200Y-92738094D01*
X48786200Y-92738094D02*
X48738581Y-92738094D01*
X48738581Y-92738094D02*
X48643343Y-92690475D01*
X48643343Y-92690475D02*
X48595724Y-92595237D01*
X48595724Y-92595237D02*
X48595724Y-92452380D01*
X48595724Y-92452380D02*
X48643343Y-92357142D01*
X48214772Y-90404761D02*
X49500486Y-91261903D01*
X48738581Y-88976189D02*
X48786200Y-88833332D01*
X48786200Y-88833332D02*
X48833819Y-88785713D01*
X48833819Y-88785713D02*
X48929057Y-88738094D01*
X48929057Y-88738094D02*
X49071914Y-88738094D01*
X49071914Y-88738094D02*
X49167152Y-88785713D01*
X49167152Y-88785713D02*
X49214772Y-88833332D01*
X49214772Y-88833332D02*
X49262391Y-88928570D01*
X49262391Y-88928570D02*
X49262391Y-89309522D01*
X49262391Y-89309522D02*
X48262391Y-89309522D01*
X48262391Y-89309522D02*
X48262391Y-88976189D01*
X48262391Y-88976189D02*
X48310010Y-88880951D01*
X48310010Y-88880951D02*
X48357629Y-88833332D01*
X48357629Y-88833332D02*
X48452867Y-88785713D01*
X48452867Y-88785713D02*
X48548105Y-88785713D01*
X48548105Y-88785713D02*
X48643343Y-88833332D01*
X48643343Y-88833332D02*
X48690962Y-88880951D01*
X48690962Y-88880951D02*
X48738581Y-88976189D01*
X48738581Y-88976189D02*
X48738581Y-89309522D01*
X49262391Y-88166665D02*
X49214772Y-88261903D01*
X49214772Y-88261903D02*
X49167152Y-88309522D01*
X49167152Y-88309522D02*
X49071914Y-88357141D01*
X49071914Y-88357141D02*
X48786200Y-88357141D01*
X48786200Y-88357141D02*
X48690962Y-88309522D01*
X48690962Y-88309522D02*
X48643343Y-88261903D01*
X48643343Y-88261903D02*
X48595724Y-88166665D01*
X48595724Y-88166665D02*
X48595724Y-88023808D01*
X48595724Y-88023808D02*
X48643343Y-87928570D01*
X48643343Y-87928570D02*
X48690962Y-87880951D01*
X48690962Y-87880951D02*
X48786200Y-87833332D01*
X48786200Y-87833332D02*
X49071914Y-87833332D01*
X49071914Y-87833332D02*
X49167152Y-87880951D01*
X49167152Y-87880951D02*
X49214772Y-87928570D01*
X49214772Y-87928570D02*
X49262391Y-88023808D01*
X49262391Y-88023808D02*
X49262391Y-88166665D01*
X49262391Y-86976189D02*
X48738581Y-86976189D01*
X48738581Y-86976189D02*
X48643343Y-87023808D01*
X48643343Y-87023808D02*
X48595724Y-87119046D01*
X48595724Y-87119046D02*
X48595724Y-87309522D01*
X48595724Y-87309522D02*
X48643343Y-87404760D01*
X49214772Y-86976189D02*
X49262391Y-87071427D01*
X49262391Y-87071427D02*
X49262391Y-87309522D01*
X49262391Y-87309522D02*
X49214772Y-87404760D01*
X49214772Y-87404760D02*
X49119533Y-87452379D01*
X49119533Y-87452379D02*
X49024295Y-87452379D01*
X49024295Y-87452379D02*
X48929057Y-87404760D01*
X48929057Y-87404760D02*
X48881438Y-87309522D01*
X48881438Y-87309522D02*
X48881438Y-87071427D01*
X48881438Y-87071427D02*
X48833819Y-86976189D01*
X48595724Y-86642855D02*
X48595724Y-86261903D01*
X48262391Y-86499998D02*
X49119533Y-86499998D01*
X49119533Y-86499998D02*
X49214772Y-86452379D01*
X49214772Y-86452379D02*
X49262391Y-86357141D01*
X49262391Y-86357141D02*
X49262391Y-86261903D01*
X49262391Y-85785712D02*
X49214772Y-85880950D01*
X49214772Y-85880950D02*
X49167152Y-85928569D01*
X49167152Y-85928569D02*
X49071914Y-85976188D01*
X49071914Y-85976188D02*
X48786200Y-85976188D01*
X48786200Y-85976188D02*
X48690962Y-85928569D01*
X48690962Y-85928569D02*
X48643343Y-85880950D01*
X48643343Y-85880950D02*
X48595724Y-85785712D01*
X48595724Y-85785712D02*
X48595724Y-85642855D01*
X48595724Y-85642855D02*
X48643343Y-85547617D01*
X48643343Y-85547617D02*
X48690962Y-85499998D01*
X48690962Y-85499998D02*
X48786200Y-85452379D01*
X48786200Y-85452379D02*
X49071914Y-85452379D01*
X49071914Y-85452379D02*
X49167152Y-85499998D01*
X49167152Y-85499998D02*
X49214772Y-85547617D01*
X49214772Y-85547617D02*
X49262391Y-85642855D01*
X49262391Y-85642855D02*
X49262391Y-85785712D01*
X48595724Y-85023807D02*
X49595724Y-85023807D01*
X48643343Y-85023807D02*
X48595724Y-84928569D01*
X48595724Y-84928569D02*
X48595724Y-84738093D01*
X48595724Y-84738093D02*
X48643343Y-84642855D01*
X48643343Y-84642855D02*
X48690962Y-84595236D01*
X48690962Y-84595236D02*
X48786200Y-84547617D01*
X48786200Y-84547617D02*
X49071914Y-84547617D01*
X49071914Y-84547617D02*
X49167152Y-84595236D01*
X49167152Y-84595236D02*
X49214772Y-84642855D01*
X49214772Y-84642855D02*
X49262391Y-84738093D01*
X49262391Y-84738093D02*
X49262391Y-84928569D01*
X49262391Y-84928569D02*
X49214772Y-85023807D01*
X49214772Y-83738093D02*
X49262391Y-83833331D01*
X49262391Y-83833331D02*
X49262391Y-84023807D01*
X49262391Y-84023807D02*
X49214772Y-84119045D01*
X49214772Y-84119045D02*
X49119533Y-84166664D01*
X49119533Y-84166664D02*
X48738581Y-84166664D01*
X48738581Y-84166664D02*
X48643343Y-84119045D01*
X48643343Y-84119045D02*
X48595724Y-84023807D01*
X48595724Y-84023807D02*
X48595724Y-83833331D01*
X48595724Y-83833331D02*
X48643343Y-83738093D01*
X48643343Y-83738093D02*
X48738581Y-83690474D01*
X48738581Y-83690474D02*
X48833819Y-83690474D01*
X48833819Y-83690474D02*
X48929057Y-84166664D01*
X48595724Y-83261902D02*
X49262391Y-83261902D01*
X48690962Y-83261902D02*
X48643343Y-83214283D01*
X48643343Y-83214283D02*
X48595724Y-83119045D01*
X48595724Y-83119045D02*
X48595724Y-82976188D01*
X48595724Y-82976188D02*
X48643343Y-82880950D01*
X48643343Y-82880950D02*
X48738581Y-82833331D01*
X48738581Y-82833331D02*
X49262391Y-82833331D01*
X49262391Y-82357140D02*
X48262391Y-82357140D01*
X48262391Y-81690474D02*
X48262391Y-81499998D01*
X48262391Y-81499998D02*
X48310010Y-81404760D01*
X48310010Y-81404760D02*
X48405248Y-81309522D01*
X48405248Y-81309522D02*
X48595724Y-81261903D01*
X48595724Y-81261903D02*
X48929057Y-81261903D01*
X48929057Y-81261903D02*
X49119533Y-81309522D01*
X49119533Y-81309522D02*
X49214772Y-81404760D01*
X49214772Y-81404760D02*
X49262391Y-81499998D01*
X49262391Y-81499998D02*
X49262391Y-81690474D01*
X49262391Y-81690474D02*
X49214772Y-81785712D01*
X49214772Y-81785712D02*
X49119533Y-81880950D01*
X49119533Y-81880950D02*
X48929057Y-81928569D01*
X48929057Y-81928569D02*
X48595724Y-81928569D01*
X48595724Y-81928569D02*
X48405248Y-81880950D01*
X48405248Y-81880950D02*
X48310010Y-81785712D01*
X48310010Y-81785712D02*
X48262391Y-81690474D01*
X82652380Y-77564895D02*
X83109523Y-77564895D01*
X82880951Y-78364895D02*
X82880951Y-77564895D01*
X83680952Y-78326800D02*
X83604761Y-78364895D01*
X83604761Y-78364895D02*
X83452380Y-78364895D01*
X83452380Y-78364895D02*
X83376190Y-78326800D01*
X83376190Y-78326800D02*
X83338094Y-78250609D01*
X83338094Y-78250609D02*
X83338094Y-77945847D01*
X83338094Y-77945847D02*
X83376190Y-77869657D01*
X83376190Y-77869657D02*
X83452380Y-77831561D01*
X83452380Y-77831561D02*
X83604761Y-77831561D01*
X83604761Y-77831561D02*
X83680952Y-77869657D01*
X83680952Y-77869657D02*
X83719047Y-77945847D01*
X83719047Y-77945847D02*
X83719047Y-78022038D01*
X83719047Y-78022038D02*
X83338094Y-78098228D01*
X84061904Y-78364895D02*
X84061904Y-77831561D01*
X84061904Y-77907752D02*
X84099999Y-77869657D01*
X84099999Y-77869657D02*
X84176189Y-77831561D01*
X84176189Y-77831561D02*
X84290475Y-77831561D01*
X84290475Y-77831561D02*
X84366666Y-77869657D01*
X84366666Y-77869657D02*
X84404761Y-77945847D01*
X84404761Y-77945847D02*
X84404761Y-78364895D01*
X84404761Y-77945847D02*
X84442856Y-77869657D01*
X84442856Y-77869657D02*
X84519047Y-77831561D01*
X84519047Y-77831561D02*
X84633332Y-77831561D01*
X84633332Y-77831561D02*
X84709523Y-77869657D01*
X84709523Y-77869657D02*
X84747618Y-77945847D01*
X84747618Y-77945847D02*
X84747618Y-78364895D01*
X85128571Y-77831561D02*
X85128571Y-78631561D01*
X85128571Y-77869657D02*
X85204761Y-77831561D01*
X85204761Y-77831561D02*
X85357142Y-77831561D01*
X85357142Y-77831561D02*
X85433333Y-77869657D01*
X85433333Y-77869657D02*
X85471428Y-77907752D01*
X85471428Y-77907752D02*
X85509523Y-77983942D01*
X85509523Y-77983942D02*
X85509523Y-78212514D01*
X85509523Y-78212514D02*
X85471428Y-78288704D01*
X85471428Y-78288704D02*
X85433333Y-78326800D01*
X85433333Y-78326800D02*
X85357142Y-78364895D01*
X85357142Y-78364895D02*
X85204761Y-78364895D01*
X85204761Y-78364895D02*
X85128571Y-78326800D01*
X86271428Y-78364895D02*
X85814285Y-78364895D01*
X86042857Y-78364895D02*
X86042857Y-77564895D01*
X86042857Y-77564895D02*
X85966666Y-77679180D01*
X85966666Y-77679180D02*
X85890476Y-77755371D01*
X85890476Y-77755371D02*
X85814285Y-77793466D01*
D12*
X64940476Y-120154819D02*
X65273809Y-121154819D01*
X65273809Y-121154819D02*
X65607142Y-120154819D01*
X66511904Y-121059580D02*
X66464285Y-121107200D01*
X66464285Y-121107200D02*
X66321428Y-121154819D01*
X66321428Y-121154819D02*
X66226190Y-121154819D01*
X66226190Y-121154819D02*
X66083333Y-121107200D01*
X66083333Y-121107200D02*
X65988095Y-121011961D01*
X65988095Y-121011961D02*
X65940476Y-120916723D01*
X65940476Y-120916723D02*
X65892857Y-120726247D01*
X65892857Y-120726247D02*
X65892857Y-120583390D01*
X65892857Y-120583390D02*
X65940476Y-120392914D01*
X65940476Y-120392914D02*
X65988095Y-120297676D01*
X65988095Y-120297676D02*
X66083333Y-120202438D01*
X66083333Y-120202438D02*
X66226190Y-120154819D01*
X66226190Y-120154819D02*
X66321428Y-120154819D01*
X66321428Y-120154819D02*
X66464285Y-120202438D01*
X66464285Y-120202438D02*
X66511904Y-120250057D01*
X67511904Y-121059580D02*
X67464285Y-121107200D01*
X67464285Y-121107200D02*
X67321428Y-121154819D01*
X67321428Y-121154819D02*
X67226190Y-121154819D01*
X67226190Y-121154819D02*
X67083333Y-121107200D01*
X67083333Y-121107200D02*
X66988095Y-121011961D01*
X66988095Y-121011961D02*
X66940476Y-120916723D01*
X66940476Y-120916723D02*
X66892857Y-120726247D01*
X66892857Y-120726247D02*
X66892857Y-120583390D01*
X66892857Y-120583390D02*
X66940476Y-120392914D01*
X66940476Y-120392914D02*
X66988095Y-120297676D01*
X66988095Y-120297676D02*
X67083333Y-120202438D01*
X67083333Y-120202438D02*
X67226190Y-120154819D01*
X67226190Y-120154819D02*
X67321428Y-120154819D01*
X67321428Y-120154819D02*
X67464285Y-120202438D01*
X67464285Y-120202438D02*
X67511904Y-120250057D01*
X68464285Y-121154819D02*
X67892857Y-121154819D01*
X68178571Y-121154819D02*
X68178571Y-120154819D01*
X68178571Y-120154819D02*
X68083333Y-120297676D01*
X68083333Y-120297676D02*
X67988095Y-120392914D01*
X67988095Y-120392914D02*
X67892857Y-120440533D01*
X69662905Y-97117139D02*
X69615286Y-97164759D01*
X69615286Y-97164759D02*
X69472429Y-97212378D01*
X69472429Y-97212378D02*
X69377191Y-97212378D01*
X69377191Y-97212378D02*
X69234334Y-97164759D01*
X69234334Y-97164759D02*
X69139096Y-97069520D01*
X69139096Y-97069520D02*
X69091477Y-96974282D01*
X69091477Y-96974282D02*
X69043858Y-96783806D01*
X69043858Y-96783806D02*
X69043858Y-96640949D01*
X69043858Y-96640949D02*
X69091477Y-96450473D01*
X69091477Y-96450473D02*
X69139096Y-96355235D01*
X69139096Y-96355235D02*
X69234334Y-96259997D01*
X69234334Y-96259997D02*
X69377191Y-96212378D01*
X69377191Y-96212378D02*
X69472429Y-96212378D01*
X69472429Y-96212378D02*
X69615286Y-96259997D01*
X69615286Y-96259997D02*
X69662905Y-96307616D01*
X70043858Y-96307616D02*
X70091477Y-96259997D01*
X70091477Y-96259997D02*
X70186715Y-96212378D01*
X70186715Y-96212378D02*
X70424810Y-96212378D01*
X70424810Y-96212378D02*
X70520048Y-96259997D01*
X70520048Y-96259997D02*
X70567667Y-96307616D01*
X70567667Y-96307616D02*
X70615286Y-96402854D01*
X70615286Y-96402854D02*
X70615286Y-96498092D01*
X70615286Y-96498092D02*
X70567667Y-96640949D01*
X70567667Y-96640949D02*
X69996239Y-97212378D01*
X69996239Y-97212378D02*
X70615286Y-97212378D01*
X63739524Y-97117139D02*
X63691905Y-97164759D01*
X63691905Y-97164759D02*
X63549048Y-97212378D01*
X63549048Y-97212378D02*
X63453810Y-97212378D01*
X63453810Y-97212378D02*
X63310953Y-97164759D01*
X63310953Y-97164759D02*
X63215715Y-97069520D01*
X63215715Y-97069520D02*
X63168096Y-96974282D01*
X63168096Y-96974282D02*
X63120477Y-96783806D01*
X63120477Y-96783806D02*
X63120477Y-96640949D01*
X63120477Y-96640949D02*
X63168096Y-96450473D01*
X63168096Y-96450473D02*
X63215715Y-96355235D01*
X63215715Y-96355235D02*
X63310953Y-96259997D01*
X63310953Y-96259997D02*
X63453810Y-96212378D01*
X63453810Y-96212378D02*
X63549048Y-96212378D01*
X63549048Y-96212378D02*
X63691905Y-96259997D01*
X63691905Y-96259997D02*
X63739524Y-96307616D01*
X64691905Y-97212378D02*
X64120477Y-97212378D01*
X64406191Y-97212378D02*
X64406191Y-96212378D01*
X64406191Y-96212378D02*
X64310953Y-96355235D01*
X64310953Y-96355235D02*
X64215715Y-96450473D01*
X64215715Y-96450473D02*
X64120477Y-96498092D01*
X84208333Y-92204819D02*
X83875000Y-91728628D01*
X83636905Y-92204819D02*
X83636905Y-91204819D01*
X83636905Y-91204819D02*
X84017857Y-91204819D01*
X84017857Y-91204819D02*
X84113095Y-91252438D01*
X84113095Y-91252438D02*
X84160714Y-91300057D01*
X84160714Y-91300057D02*
X84208333Y-91395295D01*
X84208333Y-91395295D02*
X84208333Y-91538152D01*
X84208333Y-91538152D02*
X84160714Y-91633390D01*
X84160714Y-91633390D02*
X84113095Y-91681009D01*
X84113095Y-91681009D02*
X84017857Y-91728628D01*
X84017857Y-91728628D02*
X83636905Y-91728628D01*
X84541667Y-91204819D02*
X85208333Y-91204819D01*
X85208333Y-91204819D02*
X84779762Y-92204819D01*
X123309524Y-69099819D02*
X123309524Y-68099819D01*
X123309524Y-68099819D02*
X123690476Y-68099819D01*
X123690476Y-68099819D02*
X123785714Y-68147438D01*
X123785714Y-68147438D02*
X123833333Y-68195057D01*
X123833333Y-68195057D02*
X123880952Y-68290295D01*
X123880952Y-68290295D02*
X123880952Y-68433152D01*
X123880952Y-68433152D02*
X123833333Y-68528390D01*
X123833333Y-68528390D02*
X123785714Y-68576009D01*
X123785714Y-68576009D02*
X123690476Y-68623628D01*
X123690476Y-68623628D02*
X123309524Y-68623628D01*
X124880952Y-69004580D02*
X124833333Y-69052200D01*
X124833333Y-69052200D02*
X124690476Y-69099819D01*
X124690476Y-69099819D02*
X124595238Y-69099819D01*
X124595238Y-69099819D02*
X124452381Y-69052200D01*
X124452381Y-69052200D02*
X124357143Y-68956961D01*
X124357143Y-68956961D02*
X124309524Y-68861723D01*
X124309524Y-68861723D02*
X124261905Y-68671247D01*
X124261905Y-68671247D02*
X124261905Y-68528390D01*
X124261905Y-68528390D02*
X124309524Y-68337914D01*
X124309524Y-68337914D02*
X124357143Y-68242676D01*
X124357143Y-68242676D02*
X124452381Y-68147438D01*
X124452381Y-68147438D02*
X124595238Y-68099819D01*
X124595238Y-68099819D02*
X124690476Y-68099819D01*
X124690476Y-68099819D02*
X124833333Y-68147438D01*
X124833333Y-68147438D02*
X124880952Y-68195057D01*
X125452381Y-68528390D02*
X125357143Y-68480771D01*
X125357143Y-68480771D02*
X125309524Y-68433152D01*
X125309524Y-68433152D02*
X125261905Y-68337914D01*
X125261905Y-68337914D02*
X125261905Y-68290295D01*
X125261905Y-68290295D02*
X125309524Y-68195057D01*
X125309524Y-68195057D02*
X125357143Y-68147438D01*
X125357143Y-68147438D02*
X125452381Y-68099819D01*
X125452381Y-68099819D02*
X125642857Y-68099819D01*
X125642857Y-68099819D02*
X125738095Y-68147438D01*
X125738095Y-68147438D02*
X125785714Y-68195057D01*
X125785714Y-68195057D02*
X125833333Y-68290295D01*
X125833333Y-68290295D02*
X125833333Y-68337914D01*
X125833333Y-68337914D02*
X125785714Y-68433152D01*
X125785714Y-68433152D02*
X125738095Y-68480771D01*
X125738095Y-68480771D02*
X125642857Y-68528390D01*
X125642857Y-68528390D02*
X125452381Y-68528390D01*
X125452381Y-68528390D02*
X125357143Y-68576009D01*
X125357143Y-68576009D02*
X125309524Y-68623628D01*
X125309524Y-68623628D02*
X125261905Y-68718866D01*
X125261905Y-68718866D02*
X125261905Y-68909342D01*
X125261905Y-68909342D02*
X125309524Y-69004580D01*
X125309524Y-69004580D02*
X125357143Y-69052200D01*
X125357143Y-69052200D02*
X125452381Y-69099819D01*
X125452381Y-69099819D02*
X125642857Y-69099819D01*
X125642857Y-69099819D02*
X125738095Y-69052200D01*
X125738095Y-69052200D02*
X125785714Y-69004580D01*
X125785714Y-69004580D02*
X125833333Y-68909342D01*
X125833333Y-68909342D02*
X125833333Y-68718866D01*
X125833333Y-68718866D02*
X125785714Y-68623628D01*
X125785714Y-68623628D02*
X125738095Y-68576009D01*
X125738095Y-68576009D02*
X125642857Y-68528390D01*
X126785714Y-69099819D02*
X126214286Y-69099819D01*
X126500000Y-69099819D02*
X126500000Y-68099819D01*
X126500000Y-68099819D02*
X126404762Y-68242676D01*
X126404762Y-68242676D02*
X126309524Y-68337914D01*
X126309524Y-68337914D02*
X126214286Y-68385533D01*
X127119048Y-68099819D02*
X127785714Y-68099819D01*
X127785714Y-68099819D02*
X127357143Y-69099819D01*
X131874819Y-82642857D02*
X131398628Y-82976190D01*
X131874819Y-83214285D02*
X130874819Y-83214285D01*
X130874819Y-83214285D02*
X130874819Y-82833333D01*
X130874819Y-82833333D02*
X130922438Y-82738095D01*
X130922438Y-82738095D02*
X130970057Y-82690476D01*
X130970057Y-82690476D02*
X131065295Y-82642857D01*
X131065295Y-82642857D02*
X131208152Y-82642857D01*
X131208152Y-82642857D02*
X131303390Y-82690476D01*
X131303390Y-82690476D02*
X131351009Y-82738095D01*
X131351009Y-82738095D02*
X131398628Y-82833333D01*
X131398628Y-82833333D02*
X131398628Y-83214285D01*
X131874819Y-81690476D02*
X131874819Y-82261904D01*
X131874819Y-81976190D02*
X130874819Y-81976190D01*
X130874819Y-81976190D02*
X131017676Y-82071428D01*
X131017676Y-82071428D02*
X131112914Y-82166666D01*
X131112914Y-82166666D02*
X131160533Y-82261904D01*
X130874819Y-81357142D02*
X130874819Y-80738095D01*
X130874819Y-80738095D02*
X131255771Y-81071428D01*
X131255771Y-81071428D02*
X131255771Y-80928571D01*
X131255771Y-80928571D02*
X131303390Y-80833333D01*
X131303390Y-80833333D02*
X131351009Y-80785714D01*
X131351009Y-80785714D02*
X131446247Y-80738095D01*
X131446247Y-80738095D02*
X131684342Y-80738095D01*
X131684342Y-80738095D02*
X131779580Y-80785714D01*
X131779580Y-80785714D02*
X131827200Y-80833333D01*
X131827200Y-80833333D02*
X131874819Y-80928571D01*
X131874819Y-80928571D02*
X131874819Y-81214285D01*
X131874819Y-81214285D02*
X131827200Y-81309523D01*
X131827200Y-81309523D02*
X131779580Y-81357142D01*
X118167142Y-87454819D02*
X117833809Y-86978628D01*
X117595714Y-87454819D02*
X117595714Y-86454819D01*
X117595714Y-86454819D02*
X117976666Y-86454819D01*
X117976666Y-86454819D02*
X118071904Y-86502438D01*
X118071904Y-86502438D02*
X118119523Y-86550057D01*
X118119523Y-86550057D02*
X118167142Y-86645295D01*
X118167142Y-86645295D02*
X118167142Y-86788152D01*
X118167142Y-86788152D02*
X118119523Y-86883390D01*
X118119523Y-86883390D02*
X118071904Y-86931009D01*
X118071904Y-86931009D02*
X117976666Y-86978628D01*
X117976666Y-86978628D02*
X117595714Y-86978628D01*
X119119523Y-87454819D02*
X118548095Y-87454819D01*
X118833809Y-87454819D02*
X118833809Y-86454819D01*
X118833809Y-86454819D02*
X118738571Y-86597676D01*
X118738571Y-86597676D02*
X118643333Y-86692914D01*
X118643333Y-86692914D02*
X118548095Y-86740533D01*
X119500476Y-86550057D02*
X119548095Y-86502438D01*
X119548095Y-86502438D02*
X119643333Y-86454819D01*
X119643333Y-86454819D02*
X119881428Y-86454819D01*
X119881428Y-86454819D02*
X119976666Y-86502438D01*
X119976666Y-86502438D02*
X120024285Y-86550057D01*
X120024285Y-86550057D02*
X120071904Y-86645295D01*
X120071904Y-86645295D02*
X120071904Y-86740533D01*
X120071904Y-86740533D02*
X120024285Y-86883390D01*
X120024285Y-86883390D02*
X119452857Y-87454819D01*
X119452857Y-87454819D02*
X120071904Y-87454819D01*
X112833333Y-82859580D02*
X112785714Y-82907200D01*
X112785714Y-82907200D02*
X112642857Y-82954819D01*
X112642857Y-82954819D02*
X112547619Y-82954819D01*
X112547619Y-82954819D02*
X112404762Y-82907200D01*
X112404762Y-82907200D02*
X112309524Y-82811961D01*
X112309524Y-82811961D02*
X112261905Y-82716723D01*
X112261905Y-82716723D02*
X112214286Y-82526247D01*
X112214286Y-82526247D02*
X112214286Y-82383390D01*
X112214286Y-82383390D02*
X112261905Y-82192914D01*
X112261905Y-82192914D02*
X112309524Y-82097676D01*
X112309524Y-82097676D02*
X112404762Y-82002438D01*
X112404762Y-82002438D02*
X112547619Y-81954819D01*
X112547619Y-81954819D02*
X112642857Y-81954819D01*
X112642857Y-81954819D02*
X112785714Y-82002438D01*
X112785714Y-82002438D02*
X112833333Y-82050057D01*
X113690476Y-81954819D02*
X113500000Y-81954819D01*
X113500000Y-81954819D02*
X113404762Y-82002438D01*
X113404762Y-82002438D02*
X113357143Y-82050057D01*
X113357143Y-82050057D02*
X113261905Y-82192914D01*
X113261905Y-82192914D02*
X113214286Y-82383390D01*
X113214286Y-82383390D02*
X113214286Y-82764342D01*
X113214286Y-82764342D02*
X113261905Y-82859580D01*
X113261905Y-82859580D02*
X113309524Y-82907200D01*
X113309524Y-82907200D02*
X113404762Y-82954819D01*
X113404762Y-82954819D02*
X113595238Y-82954819D01*
X113595238Y-82954819D02*
X113690476Y-82907200D01*
X113690476Y-82907200D02*
X113738095Y-82859580D01*
X113738095Y-82859580D02*
X113785714Y-82764342D01*
X113785714Y-82764342D02*
X113785714Y-82526247D01*
X113785714Y-82526247D02*
X113738095Y-82431009D01*
X113738095Y-82431009D02*
X113690476Y-82383390D01*
X113690476Y-82383390D02*
X113595238Y-82335771D01*
X113595238Y-82335771D02*
X113404762Y-82335771D01*
X113404762Y-82335771D02*
X113309524Y-82383390D01*
X113309524Y-82383390D02*
X113261905Y-82431009D01*
X113261905Y-82431009D02*
X113214286Y-82526247D01*
X78333333Y-106954819D02*
X78000000Y-106478628D01*
X77761905Y-106954819D02*
X77761905Y-105954819D01*
X77761905Y-105954819D02*
X78142857Y-105954819D01*
X78142857Y-105954819D02*
X78238095Y-106002438D01*
X78238095Y-106002438D02*
X78285714Y-106050057D01*
X78285714Y-106050057D02*
X78333333Y-106145295D01*
X78333333Y-106145295D02*
X78333333Y-106288152D01*
X78333333Y-106288152D02*
X78285714Y-106383390D01*
X78285714Y-106383390D02*
X78238095Y-106431009D01*
X78238095Y-106431009D02*
X78142857Y-106478628D01*
X78142857Y-106478628D02*
X77761905Y-106478628D01*
X79190476Y-105954819D02*
X79000000Y-105954819D01*
X79000000Y-105954819D02*
X78904762Y-106002438D01*
X78904762Y-106002438D02*
X78857143Y-106050057D01*
X78857143Y-106050057D02*
X78761905Y-106192914D01*
X78761905Y-106192914D02*
X78714286Y-106383390D01*
X78714286Y-106383390D02*
X78714286Y-106764342D01*
X78714286Y-106764342D02*
X78761905Y-106859580D01*
X78761905Y-106859580D02*
X78809524Y-106907200D01*
X78809524Y-106907200D02*
X78904762Y-106954819D01*
X78904762Y-106954819D02*
X79095238Y-106954819D01*
X79095238Y-106954819D02*
X79190476Y-106907200D01*
X79190476Y-106907200D02*
X79238095Y-106859580D01*
X79238095Y-106859580D02*
X79285714Y-106764342D01*
X79285714Y-106764342D02*
X79285714Y-106526247D01*
X79285714Y-106526247D02*
X79238095Y-106431009D01*
X79238095Y-106431009D02*
X79190476Y-106383390D01*
X79190476Y-106383390D02*
X79095238Y-106335771D01*
X79095238Y-106335771D02*
X78904762Y-106335771D01*
X78904762Y-106335771D02*
X78809524Y-106383390D01*
X78809524Y-106383390D02*
X78761905Y-106431009D01*
X78761905Y-106431009D02*
X78714286Y-106526247D01*
D10*
X71457142Y-77945847D02*
X71571428Y-77983942D01*
X71571428Y-77983942D02*
X71609523Y-78022038D01*
X71609523Y-78022038D02*
X71647619Y-78098228D01*
X71647619Y-78098228D02*
X71647619Y-78212514D01*
X71647619Y-78212514D02*
X71609523Y-78288704D01*
X71609523Y-78288704D02*
X71571428Y-78326800D01*
X71571428Y-78326800D02*
X71495238Y-78364895D01*
X71495238Y-78364895D02*
X71190476Y-78364895D01*
X71190476Y-78364895D02*
X71190476Y-77564895D01*
X71190476Y-77564895D02*
X71457142Y-77564895D01*
X71457142Y-77564895D02*
X71533333Y-77602990D01*
X71533333Y-77602990D02*
X71571428Y-77641085D01*
X71571428Y-77641085D02*
X71609523Y-77717276D01*
X71609523Y-77717276D02*
X71609523Y-77793466D01*
X71609523Y-77793466D02*
X71571428Y-77869657D01*
X71571428Y-77869657D02*
X71533333Y-77907752D01*
X71533333Y-77907752D02*
X71457142Y-77945847D01*
X71457142Y-77945847D02*
X71190476Y-77945847D01*
X72333333Y-78364895D02*
X72333333Y-77945847D01*
X72333333Y-77945847D02*
X72295238Y-77869657D01*
X72295238Y-77869657D02*
X72219047Y-77831561D01*
X72219047Y-77831561D02*
X72066666Y-77831561D01*
X72066666Y-77831561D02*
X71990476Y-77869657D01*
X72333333Y-78326800D02*
X72257142Y-78364895D01*
X72257142Y-78364895D02*
X72066666Y-78364895D01*
X72066666Y-78364895D02*
X71990476Y-78326800D01*
X71990476Y-78326800D02*
X71952380Y-78250609D01*
X71952380Y-78250609D02*
X71952380Y-78174419D01*
X71952380Y-78174419D02*
X71990476Y-78098228D01*
X71990476Y-78098228D02*
X72066666Y-78060133D01*
X72066666Y-78060133D02*
X72257142Y-78060133D01*
X72257142Y-78060133D02*
X72333333Y-78022038D01*
X72600000Y-77831561D02*
X72904762Y-77831561D01*
X72714286Y-77564895D02*
X72714286Y-78250609D01*
X72714286Y-78250609D02*
X72752381Y-78326800D01*
X72752381Y-78326800D02*
X72828571Y-78364895D01*
X72828571Y-78364895D02*
X72904762Y-78364895D01*
X73057143Y-77831561D02*
X73361905Y-77831561D01*
X73171429Y-77564895D02*
X73171429Y-78250609D01*
X73171429Y-78250609D02*
X73209524Y-78326800D01*
X73209524Y-78326800D02*
X73285714Y-78364895D01*
X73285714Y-78364895D02*
X73361905Y-78364895D01*
X73590476Y-77641085D02*
X73628572Y-77602990D01*
X73628572Y-77602990D02*
X73704762Y-77564895D01*
X73704762Y-77564895D02*
X73895238Y-77564895D01*
X73895238Y-77564895D02*
X73971429Y-77602990D01*
X73971429Y-77602990D02*
X74009524Y-77641085D01*
X74009524Y-77641085D02*
X74047619Y-77717276D01*
X74047619Y-77717276D02*
X74047619Y-77793466D01*
X74047619Y-77793466D02*
X74009524Y-77907752D01*
X74009524Y-77907752D02*
X73552381Y-78364895D01*
X73552381Y-78364895D02*
X74047619Y-78364895D01*
D12*
X72458333Y-92204819D02*
X72125000Y-91728628D01*
X71886905Y-92204819D02*
X71886905Y-91204819D01*
X71886905Y-91204819D02*
X72267857Y-91204819D01*
X72267857Y-91204819D02*
X72363095Y-91252438D01*
X72363095Y-91252438D02*
X72410714Y-91300057D01*
X72410714Y-91300057D02*
X72458333Y-91395295D01*
X72458333Y-91395295D02*
X72458333Y-91538152D01*
X72458333Y-91538152D02*
X72410714Y-91633390D01*
X72410714Y-91633390D02*
X72363095Y-91681009D01*
X72363095Y-91681009D02*
X72267857Y-91728628D01*
X72267857Y-91728628D02*
X71886905Y-91728628D01*
X72791667Y-91204819D02*
X73410714Y-91204819D01*
X73410714Y-91204819D02*
X73077381Y-91585771D01*
X73077381Y-91585771D02*
X73220238Y-91585771D01*
X73220238Y-91585771D02*
X73315476Y-91633390D01*
X73315476Y-91633390D02*
X73363095Y-91681009D01*
X73363095Y-91681009D02*
X73410714Y-91776247D01*
X73410714Y-91776247D02*
X73410714Y-92014342D01*
X73410714Y-92014342D02*
X73363095Y-92109580D01*
X73363095Y-92109580D02*
X73315476Y-92157200D01*
X73315476Y-92157200D02*
X73220238Y-92204819D01*
X73220238Y-92204819D02*
X72934524Y-92204819D01*
X72934524Y-92204819D02*
X72839286Y-92157200D01*
X72839286Y-92157200D02*
X72791667Y-92109580D01*
D10*
X89342857Y-77564895D02*
X89495238Y-77564895D01*
X89495238Y-77564895D02*
X89571428Y-77602990D01*
X89571428Y-77602990D02*
X89647619Y-77679180D01*
X89647619Y-77679180D02*
X89685714Y-77831561D01*
X89685714Y-77831561D02*
X89685714Y-78098228D01*
X89685714Y-78098228D02*
X89647619Y-78250609D01*
X89647619Y-78250609D02*
X89571428Y-78326800D01*
X89571428Y-78326800D02*
X89495238Y-78364895D01*
X89495238Y-78364895D02*
X89342857Y-78364895D01*
X89342857Y-78364895D02*
X89266666Y-78326800D01*
X89266666Y-78326800D02*
X89190476Y-78250609D01*
X89190476Y-78250609D02*
X89152380Y-78098228D01*
X89152380Y-78098228D02*
X89152380Y-77831561D01*
X89152380Y-77831561D02*
X89190476Y-77679180D01*
X89190476Y-77679180D02*
X89266666Y-77602990D01*
X89266666Y-77602990D02*
X89342857Y-77564895D01*
X90028571Y-78364895D02*
X90028571Y-77831561D01*
X90028571Y-77564895D02*
X89990475Y-77602990D01*
X89990475Y-77602990D02*
X90028571Y-77641085D01*
X90028571Y-77641085D02*
X90066666Y-77602990D01*
X90066666Y-77602990D02*
X90028571Y-77564895D01*
X90028571Y-77564895D02*
X90028571Y-77641085D01*
X90523808Y-78364895D02*
X90447618Y-78326800D01*
X90447618Y-78326800D02*
X90409523Y-78250609D01*
X90409523Y-78250609D02*
X90409523Y-77564895D01*
X91247618Y-78364895D02*
X90790475Y-78364895D01*
X91019047Y-78364895D02*
X91019047Y-77564895D01*
X91019047Y-77564895D02*
X90942856Y-77679180D01*
X90942856Y-77679180D02*
X90866666Y-77755371D01*
X90866666Y-77755371D02*
X90790475Y-77793466D01*
D12*
X120238095Y-106241009D02*
X120571428Y-106241009D01*
X120714285Y-106764819D02*
X120238095Y-106764819D01*
X120238095Y-106764819D02*
X120238095Y-105764819D01*
X120238095Y-105764819D02*
X120714285Y-105764819D01*
X121095238Y-106717200D02*
X121238095Y-106764819D01*
X121238095Y-106764819D02*
X121476190Y-106764819D01*
X121476190Y-106764819D02*
X121571428Y-106717200D01*
X121571428Y-106717200D02*
X121619047Y-106669580D01*
X121619047Y-106669580D02*
X121666666Y-106574342D01*
X121666666Y-106574342D02*
X121666666Y-106479104D01*
X121666666Y-106479104D02*
X121619047Y-106383866D01*
X121619047Y-106383866D02*
X121571428Y-106336247D01*
X121571428Y-106336247D02*
X121476190Y-106288628D01*
X121476190Y-106288628D02*
X121285714Y-106241009D01*
X121285714Y-106241009D02*
X121190476Y-106193390D01*
X121190476Y-106193390D02*
X121142857Y-106145771D01*
X121142857Y-106145771D02*
X121095238Y-106050533D01*
X121095238Y-106050533D02*
X121095238Y-105955295D01*
X121095238Y-105955295D02*
X121142857Y-105860057D01*
X121142857Y-105860057D02*
X121190476Y-105812438D01*
X121190476Y-105812438D02*
X121285714Y-105764819D01*
X121285714Y-105764819D02*
X121523809Y-105764819D01*
X121523809Y-105764819D02*
X121666666Y-105812438D01*
X122095238Y-106764819D02*
X122095238Y-105764819D01*
X122095238Y-105764819D02*
X122476190Y-105764819D01*
X122476190Y-105764819D02*
X122571428Y-105812438D01*
X122571428Y-105812438D02*
X122619047Y-105860057D01*
X122619047Y-105860057D02*
X122666666Y-105955295D01*
X122666666Y-105955295D02*
X122666666Y-106098152D01*
X122666666Y-106098152D02*
X122619047Y-106193390D01*
X122619047Y-106193390D02*
X122571428Y-106241009D01*
X122571428Y-106241009D02*
X122476190Y-106288628D01*
X122476190Y-106288628D02*
X122095238Y-106288628D01*
X123095238Y-106383866D02*
X123857143Y-106383866D01*
X124523809Y-105764819D02*
X124619047Y-105764819D01*
X124619047Y-105764819D02*
X124714285Y-105812438D01*
X124714285Y-105812438D02*
X124761904Y-105860057D01*
X124761904Y-105860057D02*
X124809523Y-105955295D01*
X124809523Y-105955295D02*
X124857142Y-106145771D01*
X124857142Y-106145771D02*
X124857142Y-106383866D01*
X124857142Y-106383866D02*
X124809523Y-106574342D01*
X124809523Y-106574342D02*
X124761904Y-106669580D01*
X124761904Y-106669580D02*
X124714285Y-106717200D01*
X124714285Y-106717200D02*
X124619047Y-106764819D01*
X124619047Y-106764819D02*
X124523809Y-106764819D01*
X124523809Y-106764819D02*
X124428571Y-106717200D01*
X124428571Y-106717200D02*
X124380952Y-106669580D01*
X124380952Y-106669580D02*
X124333333Y-106574342D01*
X124333333Y-106574342D02*
X124285714Y-106383866D01*
X124285714Y-106383866D02*
X124285714Y-106145771D01*
X124285714Y-106145771D02*
X124333333Y-105955295D01*
X124333333Y-105955295D02*
X124380952Y-105860057D01*
X124380952Y-105860057D02*
X124428571Y-105812438D01*
X124428571Y-105812438D02*
X124523809Y-105764819D01*
X125809523Y-106764819D02*
X125238095Y-106764819D01*
X125523809Y-106764819D02*
X125523809Y-105764819D01*
X125523809Y-105764819D02*
X125428571Y-105907676D01*
X125428571Y-105907676D02*
X125333333Y-106002914D01*
X125333333Y-106002914D02*
X125238095Y-106050533D01*
X78333333Y-92204819D02*
X78000000Y-91728628D01*
X77761905Y-92204819D02*
X77761905Y-91204819D01*
X77761905Y-91204819D02*
X78142857Y-91204819D01*
X78142857Y-91204819D02*
X78238095Y-91252438D01*
X78238095Y-91252438D02*
X78285714Y-91300057D01*
X78285714Y-91300057D02*
X78333333Y-91395295D01*
X78333333Y-91395295D02*
X78333333Y-91538152D01*
X78333333Y-91538152D02*
X78285714Y-91633390D01*
X78285714Y-91633390D02*
X78238095Y-91681009D01*
X78238095Y-91681009D02*
X78142857Y-91728628D01*
X78142857Y-91728628D02*
X77761905Y-91728628D01*
X79238095Y-91204819D02*
X78761905Y-91204819D01*
X78761905Y-91204819D02*
X78714286Y-91681009D01*
X78714286Y-91681009D02*
X78761905Y-91633390D01*
X78761905Y-91633390D02*
X78857143Y-91585771D01*
X78857143Y-91585771D02*
X79095238Y-91585771D01*
X79095238Y-91585771D02*
X79190476Y-91633390D01*
X79190476Y-91633390D02*
X79238095Y-91681009D01*
X79238095Y-91681009D02*
X79285714Y-91776247D01*
X79285714Y-91776247D02*
X79285714Y-92014342D01*
X79285714Y-92014342D02*
X79238095Y-92109580D01*
X79238095Y-92109580D02*
X79190476Y-92157200D01*
X79190476Y-92157200D02*
X79095238Y-92204819D01*
X79095238Y-92204819D02*
X78857143Y-92204819D01*
X78857143Y-92204819D02*
X78761905Y-92157200D01*
X78761905Y-92157200D02*
X78714286Y-92109580D01*
X90083333Y-92204819D02*
X89750000Y-91728628D01*
X89511905Y-92204819D02*
X89511905Y-91204819D01*
X89511905Y-91204819D02*
X89892857Y-91204819D01*
X89892857Y-91204819D02*
X89988095Y-91252438D01*
X89988095Y-91252438D02*
X90035714Y-91300057D01*
X90035714Y-91300057D02*
X90083333Y-91395295D01*
X90083333Y-91395295D02*
X90083333Y-91538152D01*
X90083333Y-91538152D02*
X90035714Y-91633390D01*
X90035714Y-91633390D02*
X89988095Y-91681009D01*
X89988095Y-91681009D02*
X89892857Y-91728628D01*
X89892857Y-91728628D02*
X89511905Y-91728628D01*
X90559524Y-92204819D02*
X90750000Y-92204819D01*
X90750000Y-92204819D02*
X90845238Y-92157200D01*
X90845238Y-92157200D02*
X90892857Y-92109580D01*
X90892857Y-92109580D02*
X90988095Y-91966723D01*
X90988095Y-91966723D02*
X91035714Y-91776247D01*
X91035714Y-91776247D02*
X91035714Y-91395295D01*
X91035714Y-91395295D02*
X90988095Y-91300057D01*
X90988095Y-91300057D02*
X90940476Y-91252438D01*
X90940476Y-91252438D02*
X90845238Y-91204819D01*
X90845238Y-91204819D02*
X90654762Y-91204819D01*
X90654762Y-91204819D02*
X90559524Y-91252438D01*
X90559524Y-91252438D02*
X90511905Y-91300057D01*
X90511905Y-91300057D02*
X90464286Y-91395295D01*
X90464286Y-91395295D02*
X90464286Y-91633390D01*
X90464286Y-91633390D02*
X90511905Y-91728628D01*
X90511905Y-91728628D02*
X90559524Y-91776247D01*
X90559524Y-91776247D02*
X90654762Y-91823866D01*
X90654762Y-91823866D02*
X90845238Y-91823866D01*
X90845238Y-91823866D02*
X90940476Y-91776247D01*
X90940476Y-91776247D02*
X90988095Y-91728628D01*
X90988095Y-91728628D02*
X91035714Y-91633390D01*
X85249998Y-108982438D02*
X85154760Y-108934819D01*
X85154760Y-108934819D02*
X85011903Y-108934819D01*
X85011903Y-108934819D02*
X84869046Y-108982438D01*
X84869046Y-108982438D02*
X84773808Y-109077676D01*
X84773808Y-109077676D02*
X84726189Y-109172914D01*
X84726189Y-109172914D02*
X84678570Y-109363390D01*
X84678570Y-109363390D02*
X84678570Y-109506247D01*
X84678570Y-109506247D02*
X84726189Y-109696723D01*
X84726189Y-109696723D02*
X84773808Y-109791961D01*
X84773808Y-109791961D02*
X84869046Y-109887200D01*
X84869046Y-109887200D02*
X85011903Y-109934819D01*
X85011903Y-109934819D02*
X85107141Y-109934819D01*
X85107141Y-109934819D02*
X85249998Y-109887200D01*
X85249998Y-109887200D02*
X85297617Y-109839580D01*
X85297617Y-109839580D02*
X85297617Y-109506247D01*
X85297617Y-109506247D02*
X85107141Y-109506247D01*
X85726189Y-109934819D02*
X85726189Y-108934819D01*
X85726189Y-108934819D02*
X86297617Y-109934819D01*
X86297617Y-109934819D02*
X86297617Y-108934819D01*
X86773808Y-109934819D02*
X86773808Y-108934819D01*
X86773808Y-108934819D02*
X87011903Y-108934819D01*
X87011903Y-108934819D02*
X87154760Y-108982438D01*
X87154760Y-108982438D02*
X87249998Y-109077676D01*
X87249998Y-109077676D02*
X87297617Y-109172914D01*
X87297617Y-109172914D02*
X87345236Y-109363390D01*
X87345236Y-109363390D02*
X87345236Y-109506247D01*
X87345236Y-109506247D02*
X87297617Y-109696723D01*
X87297617Y-109696723D02*
X87249998Y-109791961D01*
X87249998Y-109791961D02*
X87154760Y-109887200D01*
X87154760Y-109887200D02*
X87011903Y-109934819D01*
X87011903Y-109934819D02*
X86773808Y-109934819D01*
X87535713Y-110030057D02*
X88297617Y-110030057D01*
X89107141Y-109839580D02*
X89059522Y-109887200D01*
X89059522Y-109887200D02*
X88916665Y-109934819D01*
X88916665Y-109934819D02*
X88821427Y-109934819D01*
X88821427Y-109934819D02*
X88678570Y-109887200D01*
X88678570Y-109887200D02*
X88583332Y-109791961D01*
X88583332Y-109791961D02*
X88535713Y-109696723D01*
X88535713Y-109696723D02*
X88488094Y-109506247D01*
X88488094Y-109506247D02*
X88488094Y-109363390D01*
X88488094Y-109363390D02*
X88535713Y-109172914D01*
X88535713Y-109172914D02*
X88583332Y-109077676D01*
X88583332Y-109077676D02*
X88678570Y-108982438D01*
X88678570Y-108982438D02*
X88821427Y-108934819D01*
X88821427Y-108934819D02*
X88916665Y-108934819D01*
X88916665Y-108934819D02*
X89059522Y-108982438D01*
X89059522Y-108982438D02*
X89107141Y-109030057D01*
X89678570Y-109934819D02*
X89583332Y-109887200D01*
X89583332Y-109887200D02*
X89535713Y-109839580D01*
X89535713Y-109839580D02*
X89488094Y-109744342D01*
X89488094Y-109744342D02*
X89488094Y-109458628D01*
X89488094Y-109458628D02*
X89535713Y-109363390D01*
X89535713Y-109363390D02*
X89583332Y-109315771D01*
X89583332Y-109315771D02*
X89678570Y-109268152D01*
X89678570Y-109268152D02*
X89821427Y-109268152D01*
X89821427Y-109268152D02*
X89916665Y-109315771D01*
X89916665Y-109315771D02*
X89964284Y-109363390D01*
X89964284Y-109363390D02*
X90011903Y-109458628D01*
X90011903Y-109458628D02*
X90011903Y-109744342D01*
X90011903Y-109744342D02*
X89964284Y-109839580D01*
X89964284Y-109839580D02*
X89916665Y-109887200D01*
X89916665Y-109887200D02*
X89821427Y-109934819D01*
X89821427Y-109934819D02*
X89678570Y-109934819D01*
X90583332Y-109934819D02*
X90488094Y-109887200D01*
X90488094Y-109887200D02*
X90440475Y-109791961D01*
X90440475Y-109791961D02*
X90440475Y-108934819D01*
X91107142Y-109934819D02*
X91011904Y-109887200D01*
X91011904Y-109887200D02*
X90964285Y-109791961D01*
X90964285Y-109791961D02*
X90964285Y-108934819D01*
X91869047Y-109887200D02*
X91773809Y-109934819D01*
X91773809Y-109934819D02*
X91583333Y-109934819D01*
X91583333Y-109934819D02*
X91488095Y-109887200D01*
X91488095Y-109887200D02*
X91440476Y-109791961D01*
X91440476Y-109791961D02*
X91440476Y-109411009D01*
X91440476Y-109411009D02*
X91488095Y-109315771D01*
X91488095Y-109315771D02*
X91583333Y-109268152D01*
X91583333Y-109268152D02*
X91773809Y-109268152D01*
X91773809Y-109268152D02*
X91869047Y-109315771D01*
X91869047Y-109315771D02*
X91916666Y-109411009D01*
X91916666Y-109411009D02*
X91916666Y-109506247D01*
X91916666Y-109506247D02*
X91440476Y-109601485D01*
X92773809Y-109887200D02*
X92678571Y-109934819D01*
X92678571Y-109934819D02*
X92488095Y-109934819D01*
X92488095Y-109934819D02*
X92392857Y-109887200D01*
X92392857Y-109887200D02*
X92345238Y-109839580D01*
X92345238Y-109839580D02*
X92297619Y-109744342D01*
X92297619Y-109744342D02*
X92297619Y-109458628D01*
X92297619Y-109458628D02*
X92345238Y-109363390D01*
X92345238Y-109363390D02*
X92392857Y-109315771D01*
X92392857Y-109315771D02*
X92488095Y-109268152D01*
X92488095Y-109268152D02*
X92678571Y-109268152D01*
X92678571Y-109268152D02*
X92773809Y-109315771D01*
X93059524Y-109268152D02*
X93440476Y-109268152D01*
X93202381Y-108934819D02*
X93202381Y-109791961D01*
X93202381Y-109791961D02*
X93250000Y-109887200D01*
X93250000Y-109887200D02*
X93345238Y-109934819D01*
X93345238Y-109934819D02*
X93440476Y-109934819D01*
X93916667Y-109934819D02*
X93821429Y-109887200D01*
X93821429Y-109887200D02*
X93773810Y-109839580D01*
X93773810Y-109839580D02*
X93726191Y-109744342D01*
X93726191Y-109744342D02*
X93726191Y-109458628D01*
X93726191Y-109458628D02*
X93773810Y-109363390D01*
X93773810Y-109363390D02*
X93821429Y-109315771D01*
X93821429Y-109315771D02*
X93916667Y-109268152D01*
X93916667Y-109268152D02*
X94059524Y-109268152D01*
X94059524Y-109268152D02*
X94154762Y-109315771D01*
X94154762Y-109315771D02*
X94202381Y-109363390D01*
X94202381Y-109363390D02*
X94250000Y-109458628D01*
X94250000Y-109458628D02*
X94250000Y-109744342D01*
X94250000Y-109744342D02*
X94202381Y-109839580D01*
X94202381Y-109839580D02*
X94154762Y-109887200D01*
X94154762Y-109887200D02*
X94059524Y-109934819D01*
X94059524Y-109934819D02*
X93916667Y-109934819D01*
X94678572Y-109934819D02*
X94678572Y-109268152D01*
X94678572Y-109458628D02*
X94726191Y-109363390D01*
X94726191Y-109363390D02*
X94773810Y-109315771D01*
X94773810Y-109315771D02*
X94869048Y-109268152D01*
X94869048Y-109268152D02*
X94964286Y-109268152D01*
X95821429Y-109934819D02*
X95250001Y-109934819D01*
X95535715Y-109934819D02*
X95535715Y-108934819D01*
X95535715Y-108934819D02*
X95440477Y-109077676D01*
X95440477Y-109077676D02*
X95345239Y-109172914D01*
X95345239Y-109172914D02*
X95250001Y-109220533D01*
D10*
X76642856Y-77564895D02*
X77099999Y-77564895D01*
X76871427Y-78364895D02*
X76871427Y-77564895D01*
X77709523Y-78364895D02*
X77709523Y-77945847D01*
X77709523Y-77945847D02*
X77671428Y-77869657D01*
X77671428Y-77869657D02*
X77595237Y-77831561D01*
X77595237Y-77831561D02*
X77442856Y-77831561D01*
X77442856Y-77831561D02*
X77366666Y-77869657D01*
X77709523Y-78326800D02*
X77633332Y-78364895D01*
X77633332Y-78364895D02*
X77442856Y-78364895D01*
X77442856Y-78364895D02*
X77366666Y-78326800D01*
X77366666Y-78326800D02*
X77328570Y-78250609D01*
X77328570Y-78250609D02*
X77328570Y-78174419D01*
X77328570Y-78174419D02*
X77366666Y-78098228D01*
X77366666Y-78098228D02*
X77442856Y-78060133D01*
X77442856Y-78060133D02*
X77633332Y-78060133D01*
X77633332Y-78060133D02*
X77709523Y-78022038D01*
X78090476Y-77831561D02*
X78090476Y-78364895D01*
X78090476Y-77907752D02*
X78128571Y-77869657D01*
X78128571Y-77869657D02*
X78204761Y-77831561D01*
X78204761Y-77831561D02*
X78319047Y-77831561D01*
X78319047Y-77831561D02*
X78395238Y-77869657D01*
X78395238Y-77869657D02*
X78433333Y-77945847D01*
X78433333Y-77945847D02*
X78433333Y-78364895D01*
X78814286Y-78364895D02*
X78814286Y-77564895D01*
X78890476Y-78060133D02*
X79119048Y-78364895D01*
X79119048Y-77831561D02*
X78814286Y-78136323D01*
X79880952Y-78364895D02*
X79423809Y-78364895D01*
X79652381Y-78364895D02*
X79652381Y-77564895D01*
X79652381Y-77564895D02*
X79576190Y-77679180D01*
X79576190Y-77679180D02*
X79500000Y-77755371D01*
X79500000Y-77755371D02*
X79423809Y-77793466D01*
D12*
X114261905Y-69454819D02*
X114261905Y-68454819D01*
X114261905Y-68454819D02*
X114500000Y-68454819D01*
X114500000Y-68454819D02*
X114642857Y-68502438D01*
X114642857Y-68502438D02*
X114738095Y-68597676D01*
X114738095Y-68597676D02*
X114785714Y-68692914D01*
X114785714Y-68692914D02*
X114833333Y-68883390D01*
X114833333Y-68883390D02*
X114833333Y-69026247D01*
X114833333Y-69026247D02*
X114785714Y-69216723D01*
X114785714Y-69216723D02*
X114738095Y-69311961D01*
X114738095Y-69311961D02*
X114642857Y-69407200D01*
X114642857Y-69407200D02*
X114500000Y-69454819D01*
X114500000Y-69454819D02*
X114261905Y-69454819D01*
X115785714Y-69454819D02*
X115214286Y-69454819D01*
X115500000Y-69454819D02*
X115500000Y-68454819D01*
X115500000Y-68454819D02*
X115404762Y-68597676D01*
X115404762Y-68597676D02*
X115309524Y-68692914D01*
X115309524Y-68692914D02*
X115214286Y-68740533D01*
X118298095Y-73254819D02*
X118298095Y-72254819D01*
X118869523Y-73254819D02*
X118440952Y-72683390D01*
X118869523Y-72254819D02*
X118298095Y-72826247D01*
X103607142Y-69534819D02*
X103273809Y-69058628D01*
X103035714Y-69534819D02*
X103035714Y-68534819D01*
X103035714Y-68534819D02*
X103416666Y-68534819D01*
X103416666Y-68534819D02*
X103511904Y-68582438D01*
X103511904Y-68582438D02*
X103559523Y-68630057D01*
X103559523Y-68630057D02*
X103607142Y-68725295D01*
X103607142Y-68725295D02*
X103607142Y-68868152D01*
X103607142Y-68868152D02*
X103559523Y-68963390D01*
X103559523Y-68963390D02*
X103511904Y-69011009D01*
X103511904Y-69011009D02*
X103416666Y-69058628D01*
X103416666Y-69058628D02*
X103035714Y-69058628D01*
X104559523Y-69534819D02*
X103988095Y-69534819D01*
X104273809Y-69534819D02*
X104273809Y-68534819D01*
X104273809Y-68534819D02*
X104178571Y-68677676D01*
X104178571Y-68677676D02*
X104083333Y-68772914D01*
X104083333Y-68772914D02*
X103988095Y-68820533D01*
X105511904Y-69534819D02*
X104940476Y-69534819D01*
X105226190Y-69534819D02*
X105226190Y-68534819D01*
X105226190Y-68534819D02*
X105130952Y-68677676D01*
X105130952Y-68677676D02*
X105035714Y-68772914D01*
X105035714Y-68772914D02*
X104940476Y-68820533D01*
X89607142Y-106954819D02*
X89273809Y-106478628D01*
X89035714Y-106954819D02*
X89035714Y-105954819D01*
X89035714Y-105954819D02*
X89416666Y-105954819D01*
X89416666Y-105954819D02*
X89511904Y-106002438D01*
X89511904Y-106002438D02*
X89559523Y-106050057D01*
X89559523Y-106050057D02*
X89607142Y-106145295D01*
X89607142Y-106145295D02*
X89607142Y-106288152D01*
X89607142Y-106288152D02*
X89559523Y-106383390D01*
X89559523Y-106383390D02*
X89511904Y-106431009D01*
X89511904Y-106431009D02*
X89416666Y-106478628D01*
X89416666Y-106478628D02*
X89035714Y-106478628D01*
X90559523Y-106954819D02*
X89988095Y-106954819D01*
X90273809Y-106954819D02*
X90273809Y-105954819D01*
X90273809Y-105954819D02*
X90178571Y-106097676D01*
X90178571Y-106097676D02*
X90083333Y-106192914D01*
X90083333Y-106192914D02*
X89988095Y-106240533D01*
X91178571Y-105954819D02*
X91273809Y-105954819D01*
X91273809Y-105954819D02*
X91369047Y-106002438D01*
X91369047Y-106002438D02*
X91416666Y-106050057D01*
X91416666Y-106050057D02*
X91464285Y-106145295D01*
X91464285Y-106145295D02*
X91511904Y-106335771D01*
X91511904Y-106335771D02*
X91511904Y-106573866D01*
X91511904Y-106573866D02*
X91464285Y-106764342D01*
X91464285Y-106764342D02*
X91416666Y-106859580D01*
X91416666Y-106859580D02*
X91369047Y-106907200D01*
X91369047Y-106907200D02*
X91273809Y-106954819D01*
X91273809Y-106954819D02*
X91178571Y-106954819D01*
X91178571Y-106954819D02*
X91083333Y-106907200D01*
X91083333Y-106907200D02*
X91035714Y-106859580D01*
X91035714Y-106859580D02*
X90988095Y-106764342D01*
X90988095Y-106764342D02*
X90940476Y-106573866D01*
X90940476Y-106573866D02*
X90940476Y-106335771D01*
X90940476Y-106335771D02*
X90988095Y-106145295D01*
X90988095Y-106145295D02*
X91035714Y-106050057D01*
X91035714Y-106050057D02*
X91083333Y-106002438D01*
X91083333Y-106002438D02*
X91178571Y-105954819D01*
D10*
X65257142Y-77945847D02*
X65371428Y-77983942D01*
X65371428Y-77983942D02*
X65409523Y-78022038D01*
X65409523Y-78022038D02*
X65447619Y-78098228D01*
X65447619Y-78098228D02*
X65447619Y-78212514D01*
X65447619Y-78212514D02*
X65409523Y-78288704D01*
X65409523Y-78288704D02*
X65371428Y-78326800D01*
X65371428Y-78326800D02*
X65295238Y-78364895D01*
X65295238Y-78364895D02*
X64990476Y-78364895D01*
X64990476Y-78364895D02*
X64990476Y-77564895D01*
X64990476Y-77564895D02*
X65257142Y-77564895D01*
X65257142Y-77564895D02*
X65333333Y-77602990D01*
X65333333Y-77602990D02*
X65371428Y-77641085D01*
X65371428Y-77641085D02*
X65409523Y-77717276D01*
X65409523Y-77717276D02*
X65409523Y-77793466D01*
X65409523Y-77793466D02*
X65371428Y-77869657D01*
X65371428Y-77869657D02*
X65333333Y-77907752D01*
X65333333Y-77907752D02*
X65257142Y-77945847D01*
X65257142Y-77945847D02*
X64990476Y-77945847D01*
X66133333Y-78364895D02*
X66133333Y-77945847D01*
X66133333Y-77945847D02*
X66095238Y-77869657D01*
X66095238Y-77869657D02*
X66019047Y-77831561D01*
X66019047Y-77831561D02*
X65866666Y-77831561D01*
X65866666Y-77831561D02*
X65790476Y-77869657D01*
X66133333Y-78326800D02*
X66057142Y-78364895D01*
X66057142Y-78364895D02*
X65866666Y-78364895D01*
X65866666Y-78364895D02*
X65790476Y-78326800D01*
X65790476Y-78326800D02*
X65752380Y-78250609D01*
X65752380Y-78250609D02*
X65752380Y-78174419D01*
X65752380Y-78174419D02*
X65790476Y-78098228D01*
X65790476Y-78098228D02*
X65866666Y-78060133D01*
X65866666Y-78060133D02*
X66057142Y-78060133D01*
X66057142Y-78060133D02*
X66133333Y-78022038D01*
X66400000Y-77831561D02*
X66704762Y-77831561D01*
X66514286Y-77564895D02*
X66514286Y-78250609D01*
X66514286Y-78250609D02*
X66552381Y-78326800D01*
X66552381Y-78326800D02*
X66628571Y-78364895D01*
X66628571Y-78364895D02*
X66704762Y-78364895D01*
X66857143Y-77831561D02*
X67161905Y-77831561D01*
X66971429Y-77564895D02*
X66971429Y-78250609D01*
X66971429Y-78250609D02*
X67009524Y-78326800D01*
X67009524Y-78326800D02*
X67085714Y-78364895D01*
X67085714Y-78364895D02*
X67161905Y-78364895D01*
X67847619Y-78364895D02*
X67390476Y-78364895D01*
X67619048Y-78364895D02*
X67619048Y-77564895D01*
X67619048Y-77564895D02*
X67542857Y-77679180D01*
X67542857Y-77679180D02*
X67466667Y-77755371D01*
X67466667Y-77755371D02*
X67390476Y-77793466D01*
D12*
X75586285Y-97117139D02*
X75538666Y-97164759D01*
X75538666Y-97164759D02*
X75395809Y-97212378D01*
X75395809Y-97212378D02*
X75300571Y-97212378D01*
X75300571Y-97212378D02*
X75157714Y-97164759D01*
X75157714Y-97164759D02*
X75062476Y-97069520D01*
X75062476Y-97069520D02*
X75014857Y-96974282D01*
X75014857Y-96974282D02*
X74967238Y-96783806D01*
X74967238Y-96783806D02*
X74967238Y-96640949D01*
X74967238Y-96640949D02*
X75014857Y-96450473D01*
X75014857Y-96450473D02*
X75062476Y-96355235D01*
X75062476Y-96355235D02*
X75157714Y-96259997D01*
X75157714Y-96259997D02*
X75300571Y-96212378D01*
X75300571Y-96212378D02*
X75395809Y-96212378D01*
X75395809Y-96212378D02*
X75538666Y-96259997D01*
X75538666Y-96259997D02*
X75586285Y-96307616D01*
X75919619Y-96212378D02*
X76538666Y-96212378D01*
X76538666Y-96212378D02*
X76205333Y-96593330D01*
X76205333Y-96593330D02*
X76348190Y-96593330D01*
X76348190Y-96593330D02*
X76443428Y-96640949D01*
X76443428Y-96640949D02*
X76491047Y-96688568D01*
X76491047Y-96688568D02*
X76538666Y-96783806D01*
X76538666Y-96783806D02*
X76538666Y-97021901D01*
X76538666Y-97021901D02*
X76491047Y-97117139D01*
X76491047Y-97117139D02*
X76443428Y-97164759D01*
X76443428Y-97164759D02*
X76348190Y-97212378D01*
X76348190Y-97212378D02*
X76062476Y-97212378D01*
X76062476Y-97212378D02*
X75967238Y-97164759D01*
X75967238Y-97164759D02*
X75919619Y-97117139D01*
X66333333Y-106954819D02*
X66000000Y-106478628D01*
X65761905Y-106954819D02*
X65761905Y-105954819D01*
X65761905Y-105954819D02*
X66142857Y-105954819D01*
X66142857Y-105954819D02*
X66238095Y-106002438D01*
X66238095Y-106002438D02*
X66285714Y-106050057D01*
X66285714Y-106050057D02*
X66333333Y-106145295D01*
X66333333Y-106145295D02*
X66333333Y-106288152D01*
X66333333Y-106288152D02*
X66285714Y-106383390D01*
X66285714Y-106383390D02*
X66238095Y-106431009D01*
X66238095Y-106431009D02*
X66142857Y-106478628D01*
X66142857Y-106478628D02*
X65761905Y-106478628D01*
X66714286Y-106050057D02*
X66761905Y-106002438D01*
X66761905Y-106002438D02*
X66857143Y-105954819D01*
X66857143Y-105954819D02*
X67095238Y-105954819D01*
X67095238Y-105954819D02*
X67190476Y-106002438D01*
X67190476Y-106002438D02*
X67238095Y-106050057D01*
X67238095Y-106050057D02*
X67285714Y-106145295D01*
X67285714Y-106145295D02*
X67285714Y-106240533D01*
X67285714Y-106240533D02*
X67238095Y-106383390D01*
X67238095Y-106383390D02*
X66666667Y-106954819D01*
X66666667Y-106954819D02*
X67285714Y-106954819D01*
X72333333Y-106954819D02*
X72000000Y-106478628D01*
X71761905Y-106954819D02*
X71761905Y-105954819D01*
X71761905Y-105954819D02*
X72142857Y-105954819D01*
X72142857Y-105954819D02*
X72238095Y-106002438D01*
X72238095Y-106002438D02*
X72285714Y-106050057D01*
X72285714Y-106050057D02*
X72333333Y-106145295D01*
X72333333Y-106145295D02*
X72333333Y-106288152D01*
X72333333Y-106288152D02*
X72285714Y-106383390D01*
X72285714Y-106383390D02*
X72238095Y-106431009D01*
X72238095Y-106431009D02*
X72142857Y-106478628D01*
X72142857Y-106478628D02*
X71761905Y-106478628D01*
X73190476Y-106288152D02*
X73190476Y-106954819D01*
X72952381Y-105907200D02*
X72714286Y-106621485D01*
X72714286Y-106621485D02*
X73333333Y-106621485D01*
X84083333Y-106954819D02*
X83750000Y-106478628D01*
X83511905Y-106954819D02*
X83511905Y-105954819D01*
X83511905Y-105954819D02*
X83892857Y-105954819D01*
X83892857Y-105954819D02*
X83988095Y-106002438D01*
X83988095Y-106002438D02*
X84035714Y-106050057D01*
X84035714Y-106050057D02*
X84083333Y-106145295D01*
X84083333Y-106145295D02*
X84083333Y-106288152D01*
X84083333Y-106288152D02*
X84035714Y-106383390D01*
X84035714Y-106383390D02*
X83988095Y-106431009D01*
X83988095Y-106431009D02*
X83892857Y-106478628D01*
X83892857Y-106478628D02*
X83511905Y-106478628D01*
X84654762Y-106383390D02*
X84559524Y-106335771D01*
X84559524Y-106335771D02*
X84511905Y-106288152D01*
X84511905Y-106288152D02*
X84464286Y-106192914D01*
X84464286Y-106192914D02*
X84464286Y-106145295D01*
X84464286Y-106145295D02*
X84511905Y-106050057D01*
X84511905Y-106050057D02*
X84559524Y-106002438D01*
X84559524Y-106002438D02*
X84654762Y-105954819D01*
X84654762Y-105954819D02*
X84845238Y-105954819D01*
X84845238Y-105954819D02*
X84940476Y-106002438D01*
X84940476Y-106002438D02*
X84988095Y-106050057D01*
X84988095Y-106050057D02*
X85035714Y-106145295D01*
X85035714Y-106145295D02*
X85035714Y-106192914D01*
X85035714Y-106192914D02*
X84988095Y-106288152D01*
X84988095Y-106288152D02*
X84940476Y-106335771D01*
X84940476Y-106335771D02*
X84845238Y-106383390D01*
X84845238Y-106383390D02*
X84654762Y-106383390D01*
X84654762Y-106383390D02*
X84559524Y-106431009D01*
X84559524Y-106431009D02*
X84511905Y-106478628D01*
X84511905Y-106478628D02*
X84464286Y-106573866D01*
X84464286Y-106573866D02*
X84464286Y-106764342D01*
X84464286Y-106764342D02*
X84511905Y-106859580D01*
X84511905Y-106859580D02*
X84559524Y-106907200D01*
X84559524Y-106907200D02*
X84654762Y-106954819D01*
X84654762Y-106954819D02*
X84845238Y-106954819D01*
X84845238Y-106954819D02*
X84940476Y-106907200D01*
X84940476Y-106907200D02*
X84988095Y-106859580D01*
X84988095Y-106859580D02*
X85035714Y-106764342D01*
X85035714Y-106764342D02*
X85035714Y-106573866D01*
X85035714Y-106573866D02*
X84988095Y-106478628D01*
X84988095Y-106478628D02*
X84940476Y-106431009D01*
X84940476Y-106431009D02*
X84845238Y-106383390D01*
D10*
X94909524Y-78364895D02*
X94642857Y-77983942D01*
X94452381Y-78364895D02*
X94452381Y-77564895D01*
X94452381Y-77564895D02*
X94757143Y-77564895D01*
X94757143Y-77564895D02*
X94833333Y-77602990D01*
X94833333Y-77602990D02*
X94871428Y-77641085D01*
X94871428Y-77641085D02*
X94909524Y-77717276D01*
X94909524Y-77717276D02*
X94909524Y-77831561D01*
X94909524Y-77831561D02*
X94871428Y-77907752D01*
X94871428Y-77907752D02*
X94833333Y-77945847D01*
X94833333Y-77945847D02*
X94757143Y-77983942D01*
X94757143Y-77983942D02*
X94452381Y-77983942D01*
X95252381Y-78364895D02*
X95252381Y-77564895D01*
X95252381Y-77564895D02*
X95557143Y-77564895D01*
X95557143Y-77564895D02*
X95633333Y-77602990D01*
X95633333Y-77602990D02*
X95671428Y-77641085D01*
X95671428Y-77641085D02*
X95709524Y-77717276D01*
X95709524Y-77717276D02*
X95709524Y-77831561D01*
X95709524Y-77831561D02*
X95671428Y-77907752D01*
X95671428Y-77907752D02*
X95633333Y-77945847D01*
X95633333Y-77945847D02*
X95557143Y-77983942D01*
X95557143Y-77983942D02*
X95252381Y-77983942D01*
X96052381Y-78364895D02*
X96052381Y-77564895D01*
X96052381Y-77564895D02*
X96319047Y-78136323D01*
X96319047Y-78136323D02*
X96585714Y-77564895D01*
X96585714Y-77564895D02*
X96585714Y-78364895D01*
X97385714Y-78364895D02*
X96928571Y-78364895D01*
X97157143Y-78364895D02*
X97157143Y-77564895D01*
X97157143Y-77564895D02*
X97080952Y-77679180D01*
X97080952Y-77679180D02*
X97004762Y-77755371D01*
X97004762Y-77755371D02*
X96928571Y-77793466D01*
D12*
X87433046Y-97117139D02*
X87385427Y-97164759D01*
X87385427Y-97164759D02*
X87242570Y-97212378D01*
X87242570Y-97212378D02*
X87147332Y-97212378D01*
X87147332Y-97212378D02*
X87004475Y-97164759D01*
X87004475Y-97164759D02*
X86909237Y-97069520D01*
X86909237Y-97069520D02*
X86861618Y-96974282D01*
X86861618Y-96974282D02*
X86813999Y-96783806D01*
X86813999Y-96783806D02*
X86813999Y-96640949D01*
X86813999Y-96640949D02*
X86861618Y-96450473D01*
X86861618Y-96450473D02*
X86909237Y-96355235D01*
X86909237Y-96355235D02*
X87004475Y-96259997D01*
X87004475Y-96259997D02*
X87147332Y-96212378D01*
X87147332Y-96212378D02*
X87242570Y-96212378D01*
X87242570Y-96212378D02*
X87385427Y-96259997D01*
X87385427Y-96259997D02*
X87433046Y-96307616D01*
X88337808Y-96212378D02*
X87861618Y-96212378D01*
X87861618Y-96212378D02*
X87813999Y-96688568D01*
X87813999Y-96688568D02*
X87861618Y-96640949D01*
X87861618Y-96640949D02*
X87956856Y-96593330D01*
X87956856Y-96593330D02*
X88194951Y-96593330D01*
X88194951Y-96593330D02*
X88290189Y-96640949D01*
X88290189Y-96640949D02*
X88337808Y-96688568D01*
X88337808Y-96688568D02*
X88385427Y-96783806D01*
X88385427Y-96783806D02*
X88385427Y-97021901D01*
X88385427Y-97021901D02*
X88337808Y-97117139D01*
X88337808Y-97117139D02*
X88290189Y-97164759D01*
X88290189Y-97164759D02*
X88194951Y-97212378D01*
X88194951Y-97212378D02*
X87956856Y-97212378D01*
X87956856Y-97212378D02*
X87861618Y-97164759D01*
X87861618Y-97164759D02*
X87813999Y-97117139D01*
X66583333Y-92204819D02*
X66250000Y-91728628D01*
X66011905Y-92204819D02*
X66011905Y-91204819D01*
X66011905Y-91204819D02*
X66392857Y-91204819D01*
X66392857Y-91204819D02*
X66488095Y-91252438D01*
X66488095Y-91252438D02*
X66535714Y-91300057D01*
X66535714Y-91300057D02*
X66583333Y-91395295D01*
X66583333Y-91395295D02*
X66583333Y-91538152D01*
X66583333Y-91538152D02*
X66535714Y-91633390D01*
X66535714Y-91633390D02*
X66488095Y-91681009D01*
X66488095Y-91681009D02*
X66392857Y-91728628D01*
X66392857Y-91728628D02*
X66011905Y-91728628D01*
X67535714Y-92204819D02*
X66964286Y-92204819D01*
X67250000Y-92204819D02*
X67250000Y-91204819D01*
X67250000Y-91204819D02*
X67154762Y-91347676D01*
X67154762Y-91347676D02*
X67059524Y-91442914D01*
X67059524Y-91442914D02*
X66964286Y-91490533D01*
X81509666Y-97117139D02*
X81462047Y-97164759D01*
X81462047Y-97164759D02*
X81319190Y-97212378D01*
X81319190Y-97212378D02*
X81223952Y-97212378D01*
X81223952Y-97212378D02*
X81081095Y-97164759D01*
X81081095Y-97164759D02*
X80985857Y-97069520D01*
X80985857Y-97069520D02*
X80938238Y-96974282D01*
X80938238Y-96974282D02*
X80890619Y-96783806D01*
X80890619Y-96783806D02*
X80890619Y-96640949D01*
X80890619Y-96640949D02*
X80938238Y-96450473D01*
X80938238Y-96450473D02*
X80985857Y-96355235D01*
X80985857Y-96355235D02*
X81081095Y-96259997D01*
X81081095Y-96259997D02*
X81223952Y-96212378D01*
X81223952Y-96212378D02*
X81319190Y-96212378D01*
X81319190Y-96212378D02*
X81462047Y-96259997D01*
X81462047Y-96259997D02*
X81509666Y-96307616D01*
X82366809Y-96545711D02*
X82366809Y-97212378D01*
X82128714Y-96164759D02*
X81890619Y-96879044D01*
X81890619Y-96879044D02*
X82509666Y-96879044D01*
D13*
%TO.C,Temp1*%
X82400000Y-69550000D02*
X82400000Y-76450000D01*
X82400000Y-71900000D02*
X82900000Y-71900000D01*
X82400000Y-72000000D02*
X82900000Y-72000000D01*
X82400000Y-73900000D02*
X82900000Y-73900000D01*
X82400000Y-74000000D02*
X82900000Y-74000000D01*
X82400000Y-76450000D02*
X85900000Y-76450000D01*
X82900000Y-71900000D02*
X82900000Y-72100000D01*
X82900000Y-72100000D02*
X82400000Y-72100000D01*
X82900000Y-73900000D02*
X82900000Y-74100000D01*
X82900000Y-74100000D02*
X82400000Y-74100000D01*
X83900000Y-68940000D02*
X83900000Y-69550000D01*
X83900000Y-77060000D02*
X83900000Y-76450000D01*
X85200000Y-68940000D02*
X85200000Y-69550000D01*
X85200000Y-77060000D02*
X85200000Y-76450000D01*
X85900000Y-69550000D02*
X82400000Y-69550000D01*
X85900000Y-71500000D02*
X85900000Y-69550000D01*
X85900000Y-74500000D02*
X86510000Y-74500000D01*
X85900000Y-76450000D02*
X85900000Y-74500000D01*
X86510000Y-70700000D02*
X86710000Y-70700000D01*
X86510000Y-71500000D02*
X85900000Y-71500000D01*
X86610000Y-70700000D02*
X86610000Y-70400000D01*
X86710000Y-70400000D02*
X86510000Y-70400000D01*
X86710000Y-70700000D02*
X86710000Y-70400000D01*
X86810000Y-68640000D02*
X85560000Y-68640000D01*
X86810000Y-69890000D02*
X86810000Y-68640000D01*
X86510000Y-68940000D02*
X81790000Y-68940000D01*
X81790000Y-77060000D01*
X86510000Y-77060000D01*
X86510000Y-68940000D01*
D14*
%TO.C,JP6*%
X80234000Y-83363600D02*
X80234000Y-81636400D01*
X82012000Y-81382400D02*
X80488000Y-81382400D01*
X82012000Y-83617600D02*
X80488000Y-83617600D01*
X82266000Y-81636400D02*
X82266000Y-83363600D01*
X80234000Y-81636400D02*
G75*
G02*
X80488000Y-81382400I254000J0D01*
G01*
X80488000Y-83617600D02*
G75*
G02*
X80234000Y-83363600I0J254000D01*
G01*
X82012000Y-81382400D02*
G75*
G02*
X82266000Y-81636400I0J-254000D01*
G01*
X82266000Y-83363600D02*
G75*
G02*
X82012000Y-83617600I-254000J0D01*
G01*
D13*
%TO.C,VCC1*%
X63640000Y-114090000D02*
X63640000Y-115340000D01*
X63940000Y-115700000D02*
X64550000Y-115700000D01*
X63940000Y-117000000D02*
X64550000Y-117000000D01*
X64550000Y-115000000D02*
X64550000Y-118500000D01*
X64550000Y-118500000D02*
X69450000Y-118500000D01*
X64890000Y-114090000D02*
X63640000Y-114090000D01*
X65400000Y-114190000D02*
X65400000Y-114390000D01*
X65700000Y-114190000D02*
X65400000Y-114190000D01*
X65700000Y-114290000D02*
X65400000Y-114290000D01*
X65700000Y-114390000D02*
X65700000Y-114190000D01*
X66500000Y-114390000D02*
X66500000Y-115000000D01*
X66500000Y-115000000D02*
X64550000Y-115000000D01*
X66900000Y-118000000D02*
X67100000Y-118000000D01*
X66900000Y-118500000D02*
X66900000Y-118000000D01*
X67000000Y-118500000D02*
X67000000Y-118000000D01*
X67100000Y-118000000D02*
X67100000Y-118500000D01*
X67500000Y-115000000D02*
X67500000Y-114390000D01*
X69450000Y-115000000D02*
X67500000Y-115000000D01*
X69450000Y-118500000D02*
X69450000Y-115000000D01*
X70060000Y-115700000D02*
X69450000Y-115700000D01*
X70060000Y-117000000D02*
X69450000Y-117000000D01*
X63940000Y-114390000D02*
X70060000Y-114390000D01*
X70060000Y-119110000D01*
X63940000Y-119110000D01*
X63940000Y-114390000D01*
D14*
%TO.C,JP2*%
X68484000Y-83363600D02*
X68484000Y-81636400D01*
X70262000Y-81382400D02*
X68738000Y-81382400D01*
X70262000Y-83617600D02*
X68738000Y-83617600D01*
X70516000Y-81636400D02*
X70516000Y-83363600D01*
X68484000Y-81636400D02*
G75*
G02*
X68738000Y-81382400I254000J0D01*
G01*
X68738000Y-83617600D02*
G75*
G02*
X68484000Y-83363600I0J254000D01*
G01*
X70262000Y-81382400D02*
G75*
G02*
X70516000Y-81636400I0J-254000D01*
G01*
X70516000Y-83363600D02*
G75*
G02*
X70262000Y-83617600I-254000J0D01*
G01*
D13*
%TO.C,C2*%
X68843691Y-100757456D02*
X70843691Y-100757456D01*
X69843691Y-100757456D02*
X69843691Y-99757456D01*
X69843691Y-101357456D02*
X68843691Y-101357456D01*
X69843691Y-101357456D02*
X70843691Y-101357456D01*
X69843691Y-102357456D02*
X69843691Y-101357456D01*
X68847867Y-103296100D02*
G75*
G02*
X68827691Y-98921956I6075824J2215144D01*
G01*
X70712514Y-98929312D02*
G75*
G02*
X70732690Y-103303456I-6075823J-2215144D01*
G01*
%TO.C,C1*%
X62906191Y-100757456D02*
X64906191Y-100757456D01*
X63906191Y-100757456D02*
X63906191Y-99757456D01*
X63906191Y-101357456D02*
X62906191Y-101357456D01*
X63906191Y-101357456D02*
X64906191Y-101357456D01*
X63906191Y-102357456D02*
X63906191Y-101357456D01*
X62910367Y-103296100D02*
G75*
G02*
X62890191Y-98921956I6075824J2215144D01*
G01*
X64775014Y-98929312D02*
G75*
G02*
X64795190Y-103303456I-6075823J-2215144D01*
G01*
%TO.C,R7*%
X84375000Y-83130000D02*
X84375000Y-84080000D01*
X84375000Y-88870000D02*
X84375000Y-87920000D01*
X85295000Y-84080000D02*
X83455000Y-84080000D01*
X83455000Y-87920000D01*
X85295000Y-87920000D01*
X85295000Y-84080000D01*
%TO.C,PC817*%
X123250000Y-69645000D02*
X123250000Y-74845000D01*
X123250000Y-74845000D02*
X127750000Y-74845000D01*
X124500000Y-69645000D02*
X123250000Y-69645000D01*
X127750000Y-69645000D02*
X126500000Y-69645000D01*
X127750000Y-74845000D02*
X127750000Y-69645000D01*
X126500000Y-69645000D02*
G75*
G02*
X124500000Y-69645000I-1000000J0D01*
G01*
D14*
%TO.C,JP10*%
X91984000Y-83363600D02*
X91984000Y-81636400D01*
X93762000Y-81382400D02*
X92238000Y-81382400D01*
X93762000Y-83617600D02*
X92238000Y-83617600D01*
X94016000Y-81636400D02*
X94016000Y-83363600D01*
X91984000Y-81636400D02*
G75*
G02*
X92238000Y-81382400I254000J0D01*
G01*
X92238000Y-83617600D02*
G75*
G02*
X91984000Y-83363600I0J254000D01*
G01*
X93762000Y-81382400D02*
G75*
G02*
X94016000Y-81636400I0J-254000D01*
G01*
X94016000Y-83363600D02*
G75*
G02*
X93762000Y-83617600I-254000J0D01*
G01*
D13*
%TO.C,R13*%
X129500000Y-79130000D02*
X129500000Y-80080000D01*
X129500000Y-84870000D02*
X129500000Y-83920000D01*
X130420000Y-80080000D02*
X128580000Y-80080000D01*
X128580000Y-83920000D01*
X130420000Y-83920000D01*
X130420000Y-80080000D01*
%TO.C,R12*%
X115940000Y-89000000D02*
X116890000Y-89000000D01*
X121680000Y-89000000D02*
X120730000Y-89000000D01*
X120730000Y-89920000D02*
X116890000Y-89920000D01*
X116890000Y-88080000D01*
X120730000Y-88080000D01*
X120730000Y-89920000D01*
%TO.C,C6*%
X111700000Y-80000000D02*
X112700000Y-80000000D01*
X112700000Y-80000000D02*
X112700000Y-79000000D01*
X112700000Y-80000000D02*
X112700000Y-81000000D01*
X113300000Y-79000000D02*
X113300000Y-81000000D01*
X113300000Y-80000000D02*
X114300000Y-80000000D01*
X110761356Y-79004176D02*
G75*
G02*
X115135500Y-78984000I2215144J-6075824D01*
G01*
X115128144Y-80868823D02*
G75*
G02*
X110754000Y-80888999I-2215144J6075823D01*
G01*
%TO.C,R6*%
X78375000Y-97880000D02*
X78375000Y-98830000D01*
X78375000Y-103620000D02*
X78375000Y-102670000D01*
X79295000Y-98830000D02*
X77455000Y-98830000D01*
X77455000Y-102670000D01*
X79295000Y-102670000D01*
X79295000Y-98830000D01*
%TO.C,Batt2*%
X70700000Y-69550000D02*
X70700000Y-76450000D01*
X70700000Y-71900000D02*
X71200000Y-71900000D01*
X70700000Y-72000000D02*
X71200000Y-72000000D01*
X70700000Y-73900000D02*
X71200000Y-73900000D01*
X70700000Y-74000000D02*
X71200000Y-74000000D01*
X70700000Y-76450000D02*
X74200000Y-76450000D01*
X71200000Y-71900000D02*
X71200000Y-72100000D01*
X71200000Y-72100000D02*
X70700000Y-72100000D01*
X71200000Y-73900000D02*
X71200000Y-74100000D01*
X71200000Y-74100000D02*
X70700000Y-74100000D01*
X72200000Y-68940000D02*
X72200000Y-69550000D01*
X72200000Y-77060000D02*
X72200000Y-76450000D01*
X73500000Y-68940000D02*
X73500000Y-69550000D01*
X73500000Y-77060000D02*
X73500000Y-76450000D01*
X74200000Y-69550000D02*
X70700000Y-69550000D01*
X74200000Y-71500000D02*
X74200000Y-69550000D01*
X74200000Y-74500000D02*
X74810000Y-74500000D01*
X74200000Y-76450000D02*
X74200000Y-74500000D01*
X74810000Y-70700000D02*
X75010000Y-70700000D01*
X74810000Y-71500000D02*
X74200000Y-71500000D01*
X74910000Y-70700000D02*
X74910000Y-70400000D01*
X75010000Y-70400000D02*
X74810000Y-70400000D01*
X75010000Y-70700000D02*
X75010000Y-70400000D01*
X75110000Y-68640000D02*
X73860000Y-68640000D01*
X75110000Y-69890000D02*
X75110000Y-68640000D01*
X74810000Y-68940000D02*
X70090000Y-68940000D01*
X70090000Y-77060000D01*
X74810000Y-77060000D01*
X74810000Y-68940000D01*
%TO.C,R3*%
X72625000Y-83130000D02*
X72625000Y-84080000D01*
X72625000Y-88870000D02*
X72625000Y-87920000D01*
X73545000Y-84080000D02*
X71705000Y-84080000D01*
X71705000Y-87920000D01*
X73545000Y-87920000D01*
X73545000Y-84080000D01*
%TO.C,Oil1*%
X88250000Y-69550000D02*
X88250000Y-76450000D01*
X88250000Y-71900000D02*
X88750000Y-71900000D01*
X88250000Y-72000000D02*
X88750000Y-72000000D01*
X88250000Y-73900000D02*
X88750000Y-73900000D01*
X88250000Y-74000000D02*
X88750000Y-74000000D01*
X88250000Y-76450000D02*
X91750000Y-76450000D01*
X88750000Y-71900000D02*
X88750000Y-72100000D01*
X88750000Y-72100000D02*
X88250000Y-72100000D01*
X88750000Y-73900000D02*
X88750000Y-74100000D01*
X88750000Y-74100000D02*
X88250000Y-74100000D01*
X89750000Y-68940000D02*
X89750000Y-69550000D01*
X89750000Y-77060000D02*
X89750000Y-76450000D01*
X91050000Y-68940000D02*
X91050000Y-69550000D01*
X91050000Y-77060000D02*
X91050000Y-76450000D01*
X91750000Y-69550000D02*
X88250000Y-69550000D01*
X91750000Y-71500000D02*
X91750000Y-69550000D01*
X91750000Y-74500000D02*
X92360000Y-74500000D01*
X91750000Y-76450000D02*
X91750000Y-74500000D01*
X92360000Y-70700000D02*
X92560000Y-70700000D01*
X92360000Y-71500000D02*
X91750000Y-71500000D01*
X92460000Y-70700000D02*
X92460000Y-70400000D01*
X92560000Y-70400000D02*
X92360000Y-70400000D01*
X92560000Y-70700000D02*
X92560000Y-70400000D01*
X92660000Y-68640000D02*
X91410000Y-68640000D01*
X92660000Y-69890000D02*
X92660000Y-68640000D01*
X92360000Y-68940000D02*
X87640000Y-68940000D01*
X87640000Y-77060000D01*
X92360000Y-77060000D01*
X92360000Y-68940000D01*
%TO.C,ESP-01*%
X128000000Y-99300000D02*
X117680000Y-99300000D01*
X117680000Y-94160000D01*
X128000000Y-94160000D01*
X128000000Y-99300000D01*
X130310000Y-118770000D02*
X115690000Y-118770000D01*
X115690000Y-93850000D01*
X130310000Y-93850000D01*
X130310000Y-118770000D01*
X127180921Y-100449755D02*
X126180921Y-100449755D01*
X126680921Y-99449755D01*
X127180921Y-100449755D01*
G36*
X127180921Y-100449755D02*
G01*
X126180921Y-100449755D01*
X126680921Y-99449755D01*
X127180921Y-100449755D01*
G37*
%TO.C,R5*%
X78500000Y-83130000D02*
X78500000Y-84080000D01*
X78500000Y-88870000D02*
X78500000Y-87920000D01*
X79420000Y-84080000D02*
X77580000Y-84080000D01*
X77580000Y-87920000D01*
X79420000Y-87920000D01*
X79420000Y-84080000D01*
%TO.C,R9*%
X90250000Y-83130000D02*
X90250000Y-84080000D01*
X90250000Y-88870000D02*
X90250000Y-87920000D01*
X91170000Y-84080000D02*
X89330000Y-84080000D01*
X89330000Y-87920000D01*
X91170000Y-87920000D01*
X91170000Y-84080000D01*
%TO.C,GND_Collector1*%
X74890000Y-110480000D02*
X105610000Y-110480000D01*
X74890000Y-112600000D02*
X105610000Y-112600000D01*
X74890000Y-118800000D02*
X105610000Y-118800000D01*
X74890000Y-121300000D02*
X105610000Y-121300000D01*
X74890000Y-121920000D02*
X74890000Y-110480000D01*
X77250000Y-121920000D02*
X74890000Y-121920000D01*
X105610000Y-110480000D02*
X105610000Y-121920000D01*
X105610000Y-121920000D02*
X77850000Y-121920000D01*
X77990000Y-122530000D02*
X77110000Y-122530000D01*
X77550000Y-121920000D01*
X77990000Y-122530000D01*
G36*
X77990000Y-122530000D02*
G01*
X77110000Y-122530000D01*
X77550000Y-121920000D01*
X77990000Y-122530000D01*
G37*
D14*
%TO.C,JP8*%
X86109000Y-83363600D02*
X86109000Y-81636400D01*
X87887000Y-81382400D02*
X86363000Y-81382400D01*
X87887000Y-83617600D02*
X86363000Y-83617600D01*
X88141000Y-81636400D02*
X88141000Y-83363600D01*
X86109000Y-81636400D02*
G75*
G02*
X86363000Y-81382400I254000J0D01*
G01*
X86363000Y-83617600D02*
G75*
G02*
X86109000Y-83363600I0J254000D01*
G01*
X87887000Y-81382400D02*
G75*
G02*
X88141000Y-81636400I0J-254000D01*
G01*
X88141000Y-83363600D02*
G75*
G02*
X87887000Y-83617600I-254000J0D01*
G01*
D13*
%TO.C,Tank1*%
X76550000Y-69550000D02*
X76550000Y-76450000D01*
X76550000Y-71900000D02*
X77050000Y-71900000D01*
X76550000Y-72000000D02*
X77050000Y-72000000D01*
X76550000Y-73900000D02*
X77050000Y-73900000D01*
X76550000Y-74000000D02*
X77050000Y-74000000D01*
X76550000Y-76450000D02*
X80050000Y-76450000D01*
X77050000Y-71900000D02*
X77050000Y-72100000D01*
X77050000Y-72100000D02*
X76550000Y-72100000D01*
X77050000Y-73900000D02*
X77050000Y-74100000D01*
X77050000Y-74100000D02*
X76550000Y-74100000D01*
X78050000Y-68940000D02*
X78050000Y-69550000D01*
X78050000Y-77060000D02*
X78050000Y-76450000D01*
X79350000Y-68940000D02*
X79350000Y-69550000D01*
X79350000Y-77060000D02*
X79350000Y-76450000D01*
X80050000Y-69550000D02*
X76550000Y-69550000D01*
X80050000Y-71500000D02*
X80050000Y-69550000D01*
X80050000Y-74500000D02*
X80660000Y-74500000D01*
X80050000Y-76450000D02*
X80050000Y-74500000D01*
X80660000Y-70700000D02*
X80860000Y-70700000D01*
X80660000Y-71500000D02*
X80050000Y-71500000D01*
X80760000Y-70700000D02*
X80760000Y-70400000D01*
X80860000Y-70400000D02*
X80660000Y-70400000D01*
X80860000Y-70700000D02*
X80860000Y-70400000D01*
X80960000Y-68640000D02*
X79710000Y-68640000D01*
X80960000Y-69890000D02*
X80960000Y-68640000D01*
X80660000Y-68940000D02*
X75940000Y-68940000D01*
X75940000Y-77060000D01*
X80660000Y-77060000D01*
X80660000Y-68940000D01*
%TO.C,D1*%
X111980000Y-71000000D02*
X112630000Y-71000000D01*
X112630000Y-69880000D02*
X112630000Y-72120000D01*
X112630000Y-71000000D02*
X113924500Y-71000000D01*
X112630000Y-72120000D02*
X116870000Y-72120000D01*
X115512000Y-71889000D02*
X115512000Y-70111000D01*
X116870000Y-69880000D02*
X112630000Y-69880000D01*
X116870000Y-72120000D02*
X116870000Y-69880000D01*
X116909000Y-71000000D02*
X115512000Y-71000000D01*
X117520000Y-71000000D02*
X116870000Y-71000000D01*
D10*
X115512000Y-71000000D02*
X113988000Y-71889000D01*
X113988000Y-70111000D01*
X115512000Y-71000000D01*
G36*
X115512000Y-71000000D02*
G01*
X113988000Y-71889000D01*
X113988000Y-70111000D01*
X115512000Y-71000000D01*
G37*
D13*
%TO.C,R11*%
X101380000Y-71000000D02*
X102330000Y-71000000D01*
X107120000Y-71000000D02*
X106170000Y-71000000D01*
X102330000Y-70080000D02*
X106170000Y-70080000D01*
X106170000Y-71920000D01*
X102330000Y-71920000D01*
X102330000Y-70080000D01*
%TO.C,R10*%
X90250000Y-97880000D02*
X90250000Y-98830000D01*
X90250000Y-103620000D02*
X90250000Y-102670000D01*
X91170000Y-98830000D02*
X89330000Y-98830000D01*
X89330000Y-102670000D01*
X91170000Y-102670000D01*
X91170000Y-98830000D01*
%TO.C,Batt1*%
X64850000Y-69550000D02*
X64850000Y-76450000D01*
X64850000Y-71900000D02*
X65350000Y-71900000D01*
X64850000Y-72000000D02*
X65350000Y-72000000D01*
X64850000Y-73900000D02*
X65350000Y-73900000D01*
X64850000Y-74000000D02*
X65350000Y-74000000D01*
X64850000Y-76450000D02*
X68350000Y-76450000D01*
X65350000Y-71900000D02*
X65350000Y-72100000D01*
X65350000Y-72100000D02*
X64850000Y-72100000D01*
X65350000Y-73900000D02*
X65350000Y-74100000D01*
X65350000Y-74100000D02*
X64850000Y-74100000D01*
X66350000Y-68940000D02*
X66350000Y-69550000D01*
X66350000Y-77060000D02*
X66350000Y-76450000D01*
X67650000Y-68940000D02*
X67650000Y-69550000D01*
X67650000Y-77060000D02*
X67650000Y-76450000D01*
X68350000Y-69550000D02*
X64850000Y-69550000D01*
X68350000Y-71500000D02*
X68350000Y-69550000D01*
X68350000Y-74500000D02*
X68960000Y-74500000D01*
X68350000Y-76450000D02*
X68350000Y-74500000D01*
X68960000Y-70700000D02*
X69160000Y-70700000D01*
X68960000Y-71500000D02*
X68350000Y-71500000D01*
X69060000Y-70700000D02*
X69060000Y-70400000D01*
X69160000Y-70400000D02*
X68960000Y-70400000D01*
X69160000Y-70700000D02*
X69160000Y-70400000D01*
X69260000Y-68640000D02*
X68010000Y-68640000D01*
X69260000Y-69890000D02*
X69260000Y-68640000D01*
X68960000Y-68940000D02*
X64240000Y-68940000D01*
X64240000Y-77060000D01*
X68960000Y-77060000D01*
X68960000Y-68940000D01*
%TO.C,C3*%
X74781191Y-100757456D02*
X76781191Y-100757456D01*
X75781191Y-100757456D02*
X75781191Y-99757456D01*
X75781191Y-101357456D02*
X74781191Y-101357456D01*
X75781191Y-101357456D02*
X76781191Y-101357456D01*
X75781191Y-102357456D02*
X75781191Y-101357456D01*
X74785367Y-103296100D02*
G75*
G02*
X74765191Y-98921956I6075824J2215144D01*
G01*
X76650014Y-98929312D02*
G75*
G02*
X76670190Y-103303456I-6075823J-2215144D01*
G01*
%TO.C,R2*%
X66500000Y-97880000D02*
X66500000Y-98830000D01*
X66500000Y-103620000D02*
X66500000Y-102670000D01*
X67420000Y-98830000D02*
X65580000Y-98830000D01*
X65580000Y-102670000D01*
X67420000Y-102670000D01*
X67420000Y-98830000D01*
%TO.C,R4*%
X72437500Y-97880000D02*
X72437500Y-98830000D01*
X72437500Y-103620000D02*
X72437500Y-102670000D01*
X73357500Y-98830000D02*
X71517500Y-98830000D01*
X71517500Y-102670000D01*
X73357500Y-102670000D01*
X73357500Y-98830000D01*
%TO.C,R8*%
X84312500Y-97880000D02*
X84312500Y-98830000D01*
X84312500Y-103620000D02*
X84312500Y-102670000D01*
X85232500Y-98830000D02*
X83392500Y-98830000D01*
X83392500Y-102670000D01*
X85232500Y-102670000D01*
X85232500Y-98830000D01*
%TO.C,RPM1*%
X94100000Y-69550000D02*
X94100000Y-76450000D01*
X94100000Y-71900000D02*
X94600000Y-71900000D01*
X94100000Y-72000000D02*
X94600000Y-72000000D01*
X94100000Y-73900000D02*
X94600000Y-73900000D01*
X94100000Y-74000000D02*
X94600000Y-74000000D01*
X94100000Y-76450000D02*
X97600000Y-76450000D01*
X94600000Y-71900000D02*
X94600000Y-72100000D01*
X94600000Y-72100000D02*
X94100000Y-72100000D01*
X94600000Y-73900000D02*
X94600000Y-74100000D01*
X94600000Y-74100000D02*
X94100000Y-74100000D01*
X95600000Y-68940000D02*
X95600000Y-69550000D01*
X95600000Y-77060000D02*
X95600000Y-76450000D01*
X96900000Y-68940000D02*
X96900000Y-69550000D01*
X96900000Y-77060000D02*
X96900000Y-76450000D01*
X97600000Y-69550000D02*
X94100000Y-69550000D01*
X97600000Y-71500000D02*
X97600000Y-69550000D01*
X97600000Y-74500000D02*
X98210000Y-74500000D01*
X97600000Y-76450000D02*
X97600000Y-74500000D01*
X98210000Y-70700000D02*
X98410000Y-70700000D01*
X98210000Y-71500000D02*
X97600000Y-71500000D01*
X98310000Y-70700000D02*
X98310000Y-70400000D01*
X98410000Y-70400000D02*
X98210000Y-70400000D01*
X98410000Y-70700000D02*
X98410000Y-70400000D01*
X98510000Y-68640000D02*
X97260000Y-68640000D01*
X98510000Y-69890000D02*
X98510000Y-68640000D01*
X98210000Y-68940000D02*
X93490000Y-68940000D01*
X93490000Y-77060000D01*
X98210000Y-77060000D01*
X98210000Y-68940000D01*
D14*
%TO.C,JP4*%
X74359000Y-83363600D02*
X74359000Y-81636400D01*
X76137000Y-81382400D02*
X74613000Y-81382400D01*
X76137000Y-83617600D02*
X74613000Y-83617600D01*
X76391000Y-81636400D02*
X76391000Y-83363600D01*
X74359000Y-81636400D02*
G75*
G02*
X74613000Y-81382400I254000J0D01*
G01*
X74613000Y-83617600D02*
G75*
G02*
X74359000Y-83363600I0J254000D01*
G01*
X76137000Y-81382400D02*
G75*
G02*
X76391000Y-81636400I0J-254000D01*
G01*
X76391000Y-83363600D02*
G75*
G02*
X76137000Y-83617600I-254000J0D01*
G01*
D13*
%TO.C,C5*%
X86656191Y-100757456D02*
X88656191Y-100757456D01*
X87656191Y-100757456D02*
X87656191Y-99757456D01*
X87656191Y-101357456D02*
X86656191Y-101357456D01*
X87656191Y-101357456D02*
X88656191Y-101357456D01*
X87656191Y-102357456D02*
X87656191Y-101357456D01*
X86660367Y-103296100D02*
G75*
G02*
X86640191Y-98921956I6075824J2215144D01*
G01*
X88525014Y-98929312D02*
G75*
G02*
X88545190Y-103303456I-6075823J-2215144D01*
G01*
%TO.C,R1*%
X66750000Y-83130000D02*
X66750000Y-84080000D01*
X66750000Y-88870000D02*
X66750000Y-87920000D01*
X67670000Y-84080000D02*
X65830000Y-84080000D01*
X65830000Y-87920000D01*
X67670000Y-87920000D01*
X67670000Y-84080000D01*
%TO.C,C4*%
X80718691Y-100757456D02*
X82718691Y-100757456D01*
X81718691Y-100757456D02*
X81718691Y-99757456D01*
X81718691Y-101357456D02*
X80718691Y-101357456D01*
X81718691Y-101357456D02*
X82718691Y-101357456D01*
X81718691Y-102357456D02*
X81718691Y-101357456D01*
X80722867Y-103296100D02*
G75*
G02*
X80702691Y-98921956I6075824J2215144D01*
G01*
X82587514Y-98929312D02*
G75*
G02*
X82607690Y-103303456I-6075823J-2215144D01*
G01*
%TD*%
M02*
