%TF.GenerationSoftware,KiCad,Pcbnew,9.0.7*%
%TF.CreationDate,2026-07-29T06:04:00+02:00*%
%TF.ProjectId,MotorCombo_THT,4d6f746f-7243-46f6-9d62-6f5f5448542e,rev?*%
%TF.SameCoordinates,Original*%
%TF.FileFunction,Soldermask,Top*%
%TF.FilePolarity,Negative*%
%FSLAX46Y46*%
G04 Gerber Fmt 4.6, Leading zero omitted, Abs format (unit mm)*
G04 Created by KiCad (PCBNEW 9.0.7) date 2026-07-29 06:04:00*
%MOMM*%
%LPD*%
G01*
G04 APERTURE LIST*
G04 Aperture macros list*
%AMRoundRect*
0 Rectangle with rounded corners*
0 $1 Rounding radius*
0 $2 $3 $4 $5 $6 $7 $8 $9 X,Y pos of 4 corners*
0 Add a 4 corners polygon primitive as box body*
4,1,4,$2,$3,$4,$5,$6,$7,$8,$9,$2,$3,0*
0 Add four circle primitives for the rounded corners*
1,1,$1+$1,$2,$3*
1,1,$1+$1,$4,$5*
1,1,$1+$1,$6,$7*
1,1,$1+$1,$8,$9*
0 Add four rect primitives between the rounded corners*
20,1,$1+$1,$2,$3,$4,$5,0*
20,1,$1+$1,$4,$5,$6,$7,0*
20,1,$1+$1,$6,$7,$8,$9,0*
20,1,$1+$1,$8,$9,$2,$3,0*%
G04 Aperture macros list end*
%ADD10RoundRect,0.250000X-1.050000X-1.050000X1.050000X-1.050000X1.050000X1.050000X-1.050000X1.050000X0*%
%ADD11C,2.600000*%
%ADD12C,1.400000*%
%ADD13R,1.270000X0.635000*%
%ADD14R,0.635000X1.270000*%
%ADD15R,1.600000X1.600000*%
%ADD16O,1.600000X1.600000*%
%ADD17C,1.600000*%
%ADD18RoundRect,0.250000X-0.625000X0.350000X-0.625000X-0.350000X0.625000X-0.350000X0.625000X0.350000X0*%
%ADD19O,1.750000X1.200000*%
%ADD20RoundRect,0.250000X-0.350000X-0.625000X0.350000X-0.625000X0.350000X0.625000X-0.350000X0.625000X0*%
%ADD21O,1.200000X1.750000*%
%ADD22RoundRect,0.250000X-0.950000X-0.550000X0.950000X-0.550000X0.950000X0.550000X-0.950000X0.550000X0*%
%ADD23O,2.400000X1.600000*%
%ADD24C,1.500000*%
G04 APERTURE END LIST*
D10*
%TO.C,GND_Collector1*%
X77550000Y-116500000D03*
D11*
X82630000Y-116500000D03*
X87710000Y-116500000D03*
X92790000Y-116500000D03*
X97870000Y-116500000D03*
X102950000Y-116500000D03*
%TD*%
D12*
%TO.C,R10*%
X90250000Y-96940000D03*
X90250000Y-104560000D03*
%TD*%
%TO.C,R9*%
X90250000Y-82190000D03*
X90250000Y-89810000D03*
%TD*%
%TO.C,R8*%
X84312500Y-96940000D03*
X84312500Y-104560000D03*
%TD*%
%TO.C,R7*%
X84375000Y-82190000D03*
X84375000Y-89810000D03*
%TD*%
%TO.C,R6*%
X78375000Y-96940000D03*
X78375000Y-104560000D03*
%TD*%
%TO.C,R5*%
X78500000Y-82190000D03*
X78500000Y-89810000D03*
%TD*%
%TO.C,R4*%
X72437500Y-96940000D03*
X72437500Y-104560000D03*
%TD*%
%TO.C,R3*%
X72625000Y-82190000D03*
X72625000Y-89810000D03*
%TD*%
D13*
%TO.C,JP10*%
X93000000Y-82906400D03*
X93000000Y-82093600D03*
%TD*%
D14*
%TO.C,JP9*%
X89374400Y-79750000D03*
X90187200Y-79750000D03*
X91000000Y-79750000D03*
%TD*%
D13*
%TO.C,JP8*%
X87125000Y-82906400D03*
X87125000Y-82093600D03*
%TD*%
D14*
%TO.C,JP7*%
X83515100Y-79750000D03*
X84327900Y-79750000D03*
X85140700Y-79750000D03*
%TD*%
D13*
%TO.C,JP6*%
X81250000Y-82906400D03*
X81250000Y-82093600D03*
%TD*%
D14*
%TO.C,JP5*%
X77655800Y-79750000D03*
X78468600Y-79750000D03*
X79281400Y-79750000D03*
%TD*%
D13*
%TO.C,JP4*%
X75375000Y-82906400D03*
X75375000Y-82093600D03*
%TD*%
D14*
%TO.C,JP3*%
X71796500Y-79750000D03*
X72609300Y-79750000D03*
X73422100Y-79750000D03*
%TD*%
D13*
%TO.C,JP2*%
X69500000Y-82906400D03*
X69500000Y-82093600D03*
%TD*%
D14*
%TO.C,JP1*%
X65937200Y-79750000D03*
X66750000Y-79750000D03*
X67562800Y-79750000D03*
%TD*%
D15*
%TO.C,D1*%
X118560000Y-71000000D03*
D16*
X110940000Y-71000000D03*
%TD*%
D17*
%TO.C,C5*%
X87656191Y-103557456D03*
X87656191Y-98557456D03*
%TD*%
%TO.C,C4*%
X81718691Y-103557456D03*
X81718691Y-98557456D03*
%TD*%
%TO.C,C3*%
X75781191Y-103557456D03*
X75781191Y-98557456D03*
%TD*%
%TO.C,C2*%
X69843691Y-103557456D03*
X69843691Y-98557456D03*
%TD*%
D18*
%TO.C,Temp1*%
X84700000Y-71000000D03*
D19*
X84700000Y-73000000D03*
X84700000Y-75000000D03*
%TD*%
D20*
%TO.C,VCC1*%
X66000000Y-116200000D03*
D21*
X68000000Y-116200000D03*
%TD*%
D17*
%TO.C,C1*%
X63906191Y-103557456D03*
X63906191Y-98557456D03*
%TD*%
D22*
%TO.C,PC817*%
X121690000Y-70975000D03*
D23*
X121690000Y-73515000D03*
X129310000Y-73515000D03*
X129310000Y-70975000D03*
%TD*%
D12*
%TO.C,R13*%
X129500000Y-78190000D03*
X129500000Y-85810000D03*
%TD*%
%TO.C,R12*%
X122620000Y-89000000D03*
X115000000Y-89000000D03*
%TD*%
D17*
%TO.C,C6*%
X110500000Y-80000000D03*
X115500000Y-80000000D03*
%TD*%
D18*
%TO.C,Batt2*%
X73000000Y-71000000D03*
D19*
X73000000Y-73000000D03*
X73000000Y-75000000D03*
%TD*%
D18*
%TO.C,Oil1*%
X90550000Y-71000000D03*
D19*
X90550000Y-73000000D03*
X90550000Y-75000000D03*
%TD*%
D24*
%TO.C,ESP-01*%
X119580000Y-98000000D03*
X117040000Y-98000000D03*
X114500000Y-98000000D03*
X111960000Y-98000000D03*
X119580000Y-95460000D03*
X117040000Y-95460000D03*
X114500000Y-95460000D03*
X111960000Y-95460000D03*
%TD*%
D18*
%TO.C,Tank1*%
X78850000Y-71000000D03*
D19*
X78850000Y-73000000D03*
X78850000Y-75000000D03*
%TD*%
D12*
%TO.C,R11*%
X100440000Y-71000000D03*
X108060000Y-71000000D03*
%TD*%
D18*
%TO.C,Batt1*%
X67150000Y-71000000D03*
D19*
X67150000Y-73000000D03*
X67150000Y-75000000D03*
%TD*%
D12*
%TO.C,R2*%
X66500000Y-96940000D03*
X66500000Y-104560000D03*
%TD*%
D18*
%TO.C,RPM1*%
X96400000Y-71000000D03*
D19*
X96400000Y-73000000D03*
X96400000Y-75000000D03*
%TD*%
D12*
%TO.C,R1*%
X66750000Y-82190000D03*
X66750000Y-89810000D03*
%TD*%
M02*
