%TF.GenerationSoftware,KiCad,Pcbnew,9.0.7*%
%TF.CreationDate,2026-07-30T21:23:00+02:00*%
%TF.ProjectId,MotorCombo_THT,4d6f746f-7243-46f6-9d62-6f5f5448542e,rev?*%
%TF.SameCoordinates,Original*%
%TF.FileFunction,Copper,L2,Bot*%
%TF.FilePolarity,Positive*%
%FSLAX46Y46*%
G04 Gerber Fmt 4.6, Leading zero omitted, Abs format (unit mm)*
G04 Created by KiCad (PCBNEW 9.0.7) date 2026-07-30 21:23:00*
%MOMM*%
%LPD*%
G01*
G04 APERTURE LIST*
G04 Aperture macros list*
%AMRoundRect*
0 Rectangle with rounded corners*
0 $1 Rounding radius*
0 $2 $3 $4 $5 $6 $7 $8 $9 X,Y pos of 4 corners*
0 Add a 4 corners polygon primitive as box body*
4,1,4,$2,$3,$4,$5,$6,$7,$8,$9,$2,$3,0*
0 Add four circle primitives for the rounded corners*
1,1,$1+$1,$2,$3*
1,1,$1+$1,$4,$5*
1,1,$1+$1,$6,$7*
1,1,$1+$1,$8,$9*
0 Add four rect primitives between the rounded corners*
20,1,$1+$1,$2,$3,$4,$5,0*
20,1,$1+$1,$4,$5,$6,$7,0*
20,1,$1+$1,$6,$7,$8,$9,0*
20,1,$1+$1,$8,$9,$2,$3,0*%
G04 Aperture macros list end*
%TA.AperFunction,ComponentPad*%
%ADD10RoundRect,0.250000X-0.625000X0.350000X-0.625000X-0.350000X0.625000X-0.350000X0.625000X0.350000X0*%
%TD*%
%TA.AperFunction,ComponentPad*%
%ADD11O,1.750000X1.200000*%
%TD*%
%TA.AperFunction,ComponentPad*%
%ADD12RoundRect,0.250000X-0.350000X-0.625000X0.350000X-0.625000X0.350000X0.625000X-0.350000X0.625000X0*%
%TD*%
%TA.AperFunction,ComponentPad*%
%ADD13O,1.200000X1.750000*%
%TD*%
%TA.AperFunction,ComponentPad*%
%ADD14C,1.600000*%
%TD*%
%TA.AperFunction,ComponentPad*%
%ADD15C,1.400000*%
%TD*%
%TA.AperFunction,ComponentPad*%
%ADD16RoundRect,0.250000X-0.950000X-0.550000X0.950000X-0.550000X0.950000X0.550000X-0.950000X0.550000X0*%
%TD*%
%TA.AperFunction,ComponentPad*%
%ADD17O,2.400000X1.600000*%
%TD*%
%TA.AperFunction,ComponentPad*%
%ADD18C,1.500000*%
%TD*%
%TA.AperFunction,ComponentPad*%
%ADD19RoundRect,0.250000X-1.050000X-1.050000X1.050000X-1.050000X1.050000X1.050000X-1.050000X1.050000X0*%
%TD*%
%TA.AperFunction,ComponentPad*%
%ADD20C,2.600000*%
%TD*%
%TA.AperFunction,ComponentPad*%
%ADD21R,1.600000X1.600000*%
%TD*%
%TA.AperFunction,ComponentPad*%
%ADD22O,1.600000X1.600000*%
%TD*%
%TA.AperFunction,ViaPad*%
%ADD23C,0.600000*%
%TD*%
%TA.AperFunction,Conductor*%
%ADD24C,0.250000*%
%TD*%
%TA.AperFunction,Conductor*%
%ADD25C,0.200000*%
%TD*%
%TA.AperFunction,Conductor*%
%ADD26C,0.500000*%
%TD*%
%TA.AperFunction,Conductor*%
%ADD27C,0.800000*%
%TD*%
G04 APERTURE END LIST*
D10*
%TO.P,Temp1,1,1*%
%TO.N,Net-(JP7-B)*%
X84700000Y-71000000D03*
D11*
%TO.P,Temp1,2,2*%
%TO.N,GND*%
X84700000Y-73000000D03*
%TO.P,Temp1,3,3*%
%TO.N,Net-(JP8-A)*%
X84700000Y-75000000D03*
%TD*%
D12*
%TO.P,VCC1,1,Pin_1*%
%TO.N,GND*%
X66000000Y-116200000D03*
D13*
%TO.P,VCC1,2,Pin_2*%
%TO.N,Net-(ESP-01-CH_PD)*%
X68000000Y-116200000D03*
%TD*%
D14*
%TO.P,C2,1*%
%TO.N,GND*%
X69843691Y-103557456D03*
%TO.P,C2,2*%
%TO.N,Net-(JP4-A)*%
X69843691Y-98557456D03*
%TD*%
%TO.P,C1,1*%
%TO.N,GND*%
X63906191Y-103557456D03*
%TO.P,C1,2*%
%TO.N,Net-(JP2-A)*%
X63906191Y-98557456D03*
%TD*%
D15*
%TO.P,R7,1*%
%TO.N,Net-(JP7-C)*%
X84375000Y-82190000D03*
%TO.P,R7,2*%
%TO.N,Net-(JP8-A)*%
X84375000Y-89810000D03*
%TD*%
D16*
%TO.P,PC817,1*%
%TO.N,Net-(D1-K)*%
X121690000Y-70975000D03*
D17*
%TO.P,PC817,2*%
%TO.N,Net-(GND_Collector1-Pin_6)*%
X121690000Y-73515000D03*
%TO.P,PC817,3*%
%TO.N,GND*%
X129310000Y-73515000D03*
%TO.P,PC817,4*%
%TO.N,Net-(ESP-01-GPIO0)*%
X129310000Y-70975000D03*
%TD*%
D15*
%TO.P,R13,1*%
%TO.N,GND*%
X129500000Y-78190000D03*
%TO.P,R13,2*%
%TO.N,Net-(ESP-01-GPIO2)*%
X129500000Y-85810000D03*
%TD*%
%TO.P,R12,1*%
%TO.N,Net-(ESP-01-GPIO0)*%
X122620000Y-89000000D03*
%TO.P,R12,2*%
%TO.N,Net-(ESP-01-CH_PD)*%
X115000000Y-89000000D03*
%TD*%
D14*
%TO.P,C6,1*%
%TO.N,GND*%
X110500000Y-80000000D03*
%TO.P,C6,2*%
X115500000Y-80000000D03*
%TD*%
D15*
%TO.P,R6,1*%
%TO.N,Net-(JP6-A)*%
X78375000Y-96940000D03*
%TO.P,R6,2*%
%TO.N,GND*%
X78375000Y-104560000D03*
%TD*%
D10*
%TO.P,Batt2,1,1*%
%TO.N,Net-(JP3-B)*%
X73000000Y-71000000D03*
D11*
%TO.P,Batt2,2,2*%
%TO.N,GND*%
X73000000Y-73000000D03*
%TO.P,Batt2,3,3*%
%TO.N,Net-(JP4-A)*%
X73000000Y-75000000D03*
%TD*%
D15*
%TO.P,R3,1*%
%TO.N,Net-(JP3-C)*%
X72625000Y-82190000D03*
%TO.P,R3,2*%
%TO.N,Net-(JP4-A)*%
X72625000Y-89810000D03*
%TD*%
D10*
%TO.P,Oil1,1,1*%
%TO.N,Net-(JP10-B)*%
X90550000Y-71000000D03*
D11*
%TO.P,Oil1,2,2*%
%TO.N,GND*%
X90550000Y-73000000D03*
%TO.P,Oil1,3,3*%
%TO.N,Net-(JP10-A)*%
X90550000Y-75000000D03*
%TD*%
D18*
%TO.P,ESP-01,1,GND*%
%TO.N,GND*%
X126700000Y-98000000D03*
%TO.P,ESP-01,2,GPIO0*%
%TO.N,Net-(ESP-01-GPIO0)*%
X126700000Y-95460000D03*
%TO.P,ESP-01,3,UTXD*%
%TO.N,unconnected-(ESP-01-UTXD-Pad2)*%
X124160000Y-98000000D03*
%TO.P,ESP-01,4,RST*%
%TO.N,unconnected-(ESP-01-RST-Pad6)*%
X124160000Y-95460000D03*
%TO.P,ESP-01,5,GPIO2*%
%TO.N,Net-(ESP-01-GPIO2)*%
X121620000Y-98000000D03*
%TO.P,ESP-01,6,URXD*%
%TO.N,unconnected-(ESP-01-URXD-Pad7)*%
X121620000Y-95460000D03*
%TO.P,ESP-01,7,CH_PD*%
%TO.N,Net-(ESP-01-CH_PD)*%
X119080000Y-98000000D03*
%TO.P,ESP-01,8,VCC*%
X119080000Y-95460000D03*
%TD*%
D15*
%TO.P,R5,1*%
%TO.N,Net-(JP5-C)*%
X78500000Y-82190000D03*
%TO.P,R5,2*%
%TO.N,Net-(JP6-A)*%
X78500000Y-89810000D03*
%TD*%
%TO.P,R9,1*%
%TO.N,Net-(JP9-C)*%
X90250000Y-82190000D03*
%TO.P,R9,2*%
%TO.N,Net-(JP10-A)*%
X90250000Y-89810000D03*
%TD*%
D19*
%TO.P,GND_Collector1,1,Pin_1*%
%TO.N,GND*%
X77550000Y-116500000D03*
D20*
%TO.P,GND_Collector1,2,Pin_2*%
X82630000Y-116500000D03*
%TO.P,GND_Collector1,3,Pin_3*%
X87710000Y-116500000D03*
%TO.P,GND_Collector1,4,Pin_4*%
X92790000Y-116500000D03*
%TO.P,GND_Collector1,5,Pin_5*%
X97870000Y-116500000D03*
%TO.P,GND_Collector1,6,Pin_6*%
%TO.N,Net-(GND_Collector1-Pin_6)*%
X102950000Y-116500000D03*
%TD*%
D10*
%TO.P,Tank1,1,1*%
%TO.N,Net-(JP5-B)*%
X78850000Y-71000000D03*
D11*
%TO.P,Tank1,2,2*%
%TO.N,GND*%
X78850000Y-73000000D03*
%TO.P,Tank1,3,3*%
%TO.N,Net-(JP6-A)*%
X78850000Y-75000000D03*
%TD*%
D21*
%TO.P,D1,1,K*%
%TO.N,Net-(D1-K)*%
X118560000Y-71000000D03*
D22*
%TO.P,D1,2,A*%
%TO.N,Net-(D1-A)*%
X110940000Y-71000000D03*
%TD*%
D15*
%TO.P,R11,1*%
%TO.N,Net-(R11-Pad1)*%
X100440000Y-71000000D03*
%TO.P,R11,2*%
%TO.N,Net-(D1-A)*%
X108060000Y-71000000D03*
%TD*%
%TO.P,R10,1*%
%TO.N,Net-(JP10-A)*%
X90250000Y-96940000D03*
%TO.P,R10,2*%
%TO.N,GND*%
X90250000Y-104560000D03*
%TD*%
D10*
%TO.P,Batt1,1,1*%
%TO.N,Net-(JP1-B)*%
X67150000Y-71000000D03*
D11*
%TO.P,Batt1,2,2*%
%TO.N,GND*%
X67150000Y-73000000D03*
%TO.P,Batt1,3,3*%
%TO.N,Net-(JP2-A)*%
X67150000Y-75000000D03*
%TD*%
D14*
%TO.P,C3,1*%
%TO.N,GND*%
X75781191Y-103557456D03*
%TO.P,C3,2*%
%TO.N,Net-(JP6-A)*%
X75781191Y-98557456D03*
%TD*%
D15*
%TO.P,R2,1*%
%TO.N,Net-(JP2-A)*%
X66500000Y-96940000D03*
%TO.P,R2,2*%
%TO.N,GND*%
X66500000Y-104560000D03*
%TD*%
%TO.P,R4,1*%
%TO.N,Net-(JP4-A)*%
X72437500Y-96940000D03*
%TO.P,R4,2*%
%TO.N,GND*%
X72437500Y-104560000D03*
%TD*%
%TO.P,R8,1*%
%TO.N,Net-(JP8-A)*%
X84312500Y-96940000D03*
%TO.P,R8,2*%
%TO.N,GND*%
X84312500Y-104560000D03*
%TD*%
D10*
%TO.P,RPM1,1,1*%
%TO.N,Net-(R11-Pad1)*%
X96400000Y-71000000D03*
D11*
%TO.P,RPM1,2,2*%
%TO.N,GND*%
X96400000Y-73000000D03*
%TO.P,RPM1,3,3*%
X96400000Y-75000000D03*
%TD*%
D14*
%TO.P,C5,1*%
%TO.N,GND*%
X87656191Y-103557456D03*
%TO.P,C5,2*%
%TO.N,Net-(JP10-A)*%
X87656191Y-98557456D03*
%TD*%
D15*
%TO.P,R1,1*%
%TO.N,Net-(JP1-C)*%
X66750000Y-82190000D03*
%TO.P,R1,2*%
%TO.N,Net-(JP2-A)*%
X66750000Y-89810000D03*
%TD*%
D14*
%TO.P,C4,1*%
%TO.N,GND*%
X81718691Y-103557456D03*
%TO.P,C4,2*%
%TO.N,Net-(JP8-A)*%
X81718691Y-98557456D03*
%TD*%
D23*
%TO.N,GND*%
X99750000Y-78000000D03*
%TO.N,Net-(ESP-01-GPIO0)*%
X131500000Y-89000000D03*
%TO.N,Net-(ESP-01-CH_PD)*%
X71796500Y-79750000D03*
X83515100Y-79750000D03*
X77655800Y-79750000D03*
X111960000Y-89000000D03*
X89374400Y-79750000D03*
X65937200Y-79750000D03*
%TD*%
D24*
%TO.N,GND*%
X65497456Y-103557456D02*
X66500000Y-104560000D01*
D25*
X66500000Y-104560000D02*
X90250000Y-104560000D01*
D26*
X126700000Y-98000000D02*
X126700000Y-98450000D01*
X127250000Y-99000000D02*
X127250000Y-106500000D01*
X97870000Y-116500000D02*
X82630000Y-116500000D01*
X96400000Y-73000000D02*
X54500000Y-73000000D01*
D25*
X77250000Y-116500000D02*
X76750000Y-117000000D01*
D24*
X83309956Y-103557456D02*
X84312500Y-104560000D01*
D26*
X77550000Y-116500000D02*
X82630000Y-116500000D01*
X96400000Y-73000000D02*
X98750000Y-73000000D01*
D24*
X75781191Y-103557456D02*
X77372456Y-103557456D01*
D26*
X133000000Y-104500000D02*
X131000000Y-106500000D01*
X126700000Y-98450000D02*
X127250000Y-99000000D01*
D24*
X63906191Y-103557456D02*
X65497456Y-103557456D01*
D25*
X66000000Y-115200000D02*
X66500000Y-115700000D01*
D24*
X69843691Y-103557456D02*
X71434956Y-103557456D01*
D26*
X126500000Y-120500000D02*
X99500000Y-120500000D01*
X99750000Y-114620000D02*
X97870000Y-116500000D01*
D25*
X65950000Y-116250000D02*
X66500000Y-115700000D01*
D24*
X71434956Y-103557456D02*
X72437500Y-104560000D01*
D26*
X129310000Y-73515000D02*
X131515000Y-73515000D01*
X127250000Y-119750000D02*
X126500000Y-120500000D01*
D25*
X65950000Y-116250000D02*
X66000000Y-116200000D01*
D26*
X133000000Y-75000000D02*
X133000000Y-104500000D01*
D24*
X89247456Y-103557456D02*
X90250000Y-104560000D01*
D26*
X99750000Y-74000000D02*
X99750000Y-114620000D01*
D25*
X66500000Y-115700000D02*
X66000000Y-116200000D01*
D26*
X127250000Y-106500000D02*
X127250000Y-119750000D01*
D24*
X81718691Y-103557456D02*
X83309956Y-103557456D01*
D26*
X131515000Y-73515000D02*
X133000000Y-75000000D01*
D25*
X66000000Y-105060000D02*
X66000000Y-115200000D01*
D26*
X98750000Y-73000000D02*
X99750000Y-74000000D01*
X131000000Y-106500000D02*
X127250000Y-106500000D01*
X99500000Y-120500000D02*
X97870000Y-116500000D01*
D24*
X87656191Y-103557456D02*
X89247456Y-103557456D01*
D26*
X54500000Y-73000000D02*
X51000000Y-76500000D01*
D25*
X66500000Y-104560000D02*
X66000000Y-105060000D01*
D26*
X51000000Y-112000000D02*
X55250000Y-116250000D01*
D24*
X77372456Y-103557456D02*
X78375000Y-104560000D01*
D25*
X77550000Y-116500000D02*
X77250000Y-116500000D01*
D26*
X51000000Y-76500000D02*
X51000000Y-112000000D01*
X55250000Y-116250000D02*
X65950000Y-116250000D01*
D24*
%TO.N,Net-(JP2-A)*%
X64882544Y-98557456D02*
X66500000Y-96940000D01*
X63906191Y-98557456D02*
X64882544Y-98557456D01*
%TO.N,Net-(JP4-A)*%
X70820044Y-98557456D02*
X72437500Y-96940000D01*
X69843691Y-98557456D02*
X70820044Y-98557456D01*
%TO.N,Net-(JP6-A)*%
X75781191Y-98557456D02*
X76757544Y-98557456D01*
X76757544Y-98557456D02*
X78375000Y-96940000D01*
%TO.N,Net-(JP8-A)*%
X82695044Y-98557456D02*
X84312500Y-96940000D01*
X81718691Y-98557456D02*
X82695044Y-98557456D01*
%TO.N,Net-(JP10-A)*%
X88632544Y-98557456D02*
X90250000Y-96940000D01*
X87656191Y-98557456D02*
X88632544Y-98557456D01*
D26*
%TO.N,Net-(ESP-01-GPIO0)*%
X131500000Y-89000000D02*
X122620000Y-89000000D01*
%TO.N,Net-(ESP-01-CH_PD)*%
X115000000Y-89000000D02*
X112000000Y-89000000D01*
X89250000Y-79750000D02*
X89500000Y-80000000D01*
X65937200Y-79750000D02*
X89250000Y-79750000D01*
D27*
%TO.N,Net-(GND_Collector1-Pin_6)*%
X121690000Y-73515000D02*
X121675000Y-73500000D01*
X109750000Y-73500000D02*
X103000000Y-80250000D01*
X103000000Y-80250000D02*
X103000000Y-116450000D01*
X121675000Y-73500000D02*
X109750000Y-73500000D01*
X103000000Y-116450000D02*
X102950000Y-116500000D01*
%TD*%
M02*
