%TF.GenerationSoftware,KiCad,Pcbnew,9.0.7*%
%TF.CreationDate,2026-07-29T06:04:00+02:00*%
%TF.ProjectId,MotorCombo_THT,4d6f746f-7243-46f6-9d62-6f5f5448542e,rev?*%
%TF.SameCoordinates,Original*%
%TF.FileFunction,Copper,L1,Top*%
%TF.FilePolarity,Positive*%
%FSLAX46Y46*%
G04 Gerber Fmt 4.6, Leading zero omitted, Abs format (unit mm)*
G04 Created by KiCad (PCBNEW 9.0.7) date 2026-07-29 06:04:00*
%MOMM*%
%LPD*%
G01*
G04 APERTURE LIST*
G04 Aperture macros list*
%AMRoundRect*
0 Rectangle with rounded corners*
0 $1 Rounding radius*
0 $2 $3 $4 $5 $6 $7 $8 $9 X,Y pos of 4 corners*
0 Add a 4 corners polygon primitive as box body*
4,1,4,$2,$3,$4,$5,$6,$7,$8,$9,$2,$3,0*
0 Add four circle primitives for the rounded corners*
1,1,$1+$1,$2,$3*
1,1,$1+$1,$4,$5*
1,1,$1+$1,$6,$7*
1,1,$1+$1,$8,$9*
0 Add four rect primitives between the rounded corners*
20,1,$1+$1,$2,$3,$4,$5,0*
20,1,$1+$1,$4,$5,$6,$7,0*
20,1,$1+$1,$6,$7,$8,$9,0*
20,1,$1+$1,$8,$9,$2,$3,0*%
G04 Aperture macros list end*
%TA.AperFunction,ComponentPad*%
%ADD10RoundRect,0.250000X-1.050000X-1.050000X1.050000X-1.050000X1.050000X1.050000X-1.050000X1.050000X0*%
%TD*%
%TA.AperFunction,ComponentPad*%
%ADD11C,2.600000*%
%TD*%
%TA.AperFunction,ComponentPad*%
%ADD12C,1.400000*%
%TD*%
%TA.AperFunction,SMDPad,CuDef*%
%ADD13R,1.270000X0.635000*%
%TD*%
%TA.AperFunction,SMDPad,CuDef*%
%ADD14R,0.635000X1.270000*%
%TD*%
%TA.AperFunction,ComponentPad*%
%ADD15R,1.600000X1.600000*%
%TD*%
%TA.AperFunction,ComponentPad*%
%ADD16O,1.600000X1.600000*%
%TD*%
%TA.AperFunction,ComponentPad*%
%ADD17C,1.600000*%
%TD*%
%TA.AperFunction,ComponentPad*%
%ADD18RoundRect,0.250000X-0.625000X0.350000X-0.625000X-0.350000X0.625000X-0.350000X0.625000X0.350000X0*%
%TD*%
%TA.AperFunction,ComponentPad*%
%ADD19O,1.750000X1.200000*%
%TD*%
%TA.AperFunction,ComponentPad*%
%ADD20RoundRect,0.250000X-0.350000X-0.625000X0.350000X-0.625000X0.350000X0.625000X-0.350000X0.625000X0*%
%TD*%
%TA.AperFunction,ComponentPad*%
%ADD21O,1.200000X1.750000*%
%TD*%
%TA.AperFunction,ComponentPad*%
%ADD22RoundRect,0.250000X-0.950000X-0.550000X0.950000X-0.550000X0.950000X0.550000X-0.950000X0.550000X0*%
%TD*%
%TA.AperFunction,ComponentPad*%
%ADD23O,2.400000X1.600000*%
%TD*%
%TA.AperFunction,ComponentPad*%
%ADD24C,1.500000*%
%TD*%
%TA.AperFunction,ViaPad*%
%ADD25C,0.600000*%
%TD*%
%TA.AperFunction,Conductor*%
%ADD26C,0.500000*%
%TD*%
%TA.AperFunction,Conductor*%
%ADD27C,0.250000*%
%TD*%
%TA.AperFunction,Conductor*%
%ADD28C,0.800000*%
%TD*%
%TA.AperFunction,Conductor*%
%ADD29C,0.200000*%
%TD*%
G04 APERTURE END LIST*
D10*
%TO.P,GND_Collector1,1,Pin_1*%
%TO.N,GND*%
X77550000Y-116500000D03*
D11*
%TO.P,GND_Collector1,2,Pin_2*%
X82630000Y-116500000D03*
%TO.P,GND_Collector1,3,Pin_3*%
X87710000Y-116500000D03*
%TO.P,GND_Collector1,4,Pin_4*%
X92790000Y-116500000D03*
%TO.P,GND_Collector1,5,Pin_5*%
X97870000Y-116500000D03*
%TO.P,GND_Collector1,6,Pin_6*%
%TO.N,Net-(GND_Collector1-Pin_6)*%
X102950000Y-116500000D03*
%TD*%
D12*
%TO.P,R10,1*%
%TO.N,Net-(JP10-A)*%
X90250000Y-96940000D03*
%TO.P,R10,2*%
%TO.N,GND*%
X90250000Y-104560000D03*
%TD*%
%TO.P,R9,1*%
%TO.N,Net-(JP9-C)*%
X90250000Y-82190000D03*
%TO.P,R9,2*%
%TO.N,Net-(JP10-A)*%
X90250000Y-89810000D03*
%TD*%
%TO.P,R8,1*%
%TO.N,Net-(JP8-A)*%
X84312500Y-96940000D03*
%TO.P,R8,2*%
%TO.N,GND*%
X84312500Y-104560000D03*
%TD*%
%TO.P,R7,1*%
%TO.N,Net-(JP7-C)*%
X84375000Y-82190000D03*
%TO.P,R7,2*%
%TO.N,Net-(JP8-A)*%
X84375000Y-89810000D03*
%TD*%
%TO.P,R6,1*%
%TO.N,Net-(JP6-A)*%
X78375000Y-96940000D03*
%TO.P,R6,2*%
%TO.N,GND*%
X78375000Y-104560000D03*
%TD*%
%TO.P,R5,1*%
%TO.N,Net-(JP5-C)*%
X78500000Y-82190000D03*
%TO.P,R5,2*%
%TO.N,Net-(JP6-A)*%
X78500000Y-89810000D03*
%TD*%
%TO.P,R4,1*%
%TO.N,Net-(JP4-A)*%
X72437500Y-96940000D03*
%TO.P,R4,2*%
%TO.N,GND*%
X72437500Y-104560000D03*
%TD*%
%TO.P,R3,1*%
%TO.N,Net-(JP3-C)*%
X72625000Y-82190000D03*
%TO.P,R3,2*%
%TO.N,Net-(JP4-A)*%
X72625000Y-89810000D03*
%TD*%
D13*
%TO.P,JP10,1,A*%
%TO.N,Net-(JP10-A)*%
X93000000Y-82906400D03*
%TO.P,JP10,2,B*%
%TO.N,Net-(JP10-B)*%
X93000000Y-82093600D03*
%TD*%
D14*
%TO.P,JP9,1,A*%
%TO.N,Net-(ESP-01-CH_PD)*%
X89374400Y-79750000D03*
%TO.P,JP9,2,C*%
%TO.N,Net-(JP9-C)*%
X90187200Y-79750000D03*
%TO.P,JP9,3,B*%
%TO.N,Net-(JP10-B)*%
X91000000Y-79750000D03*
%TD*%
D13*
%TO.P,JP8,1,A*%
%TO.N,Net-(JP8-A)*%
X87125000Y-82906400D03*
%TO.P,JP8,2,B*%
%TO.N,Net-(JP7-B)*%
X87125000Y-82093600D03*
%TD*%
D14*
%TO.P,JP7,1,A*%
%TO.N,Net-(ESP-01-CH_PD)*%
X83515100Y-79750000D03*
%TO.P,JP7,2,C*%
%TO.N,Net-(JP7-C)*%
X84327900Y-79750000D03*
%TO.P,JP7,3,B*%
%TO.N,Net-(JP7-B)*%
X85140700Y-79750000D03*
%TD*%
D13*
%TO.P,JP6,1,A*%
%TO.N,Net-(JP6-A)*%
X81250000Y-82906400D03*
%TO.P,JP6,2,B*%
%TO.N,Net-(JP5-B)*%
X81250000Y-82093600D03*
%TD*%
D14*
%TO.P,JP5,1,A*%
%TO.N,Net-(ESP-01-CH_PD)*%
X77655800Y-79750000D03*
%TO.P,JP5,2,C*%
%TO.N,Net-(JP5-C)*%
X78468600Y-79750000D03*
%TO.P,JP5,3,B*%
%TO.N,Net-(JP5-B)*%
X79281400Y-79750000D03*
%TD*%
D13*
%TO.P,JP4,1,A*%
%TO.N,Net-(JP4-A)*%
X75375000Y-82906400D03*
%TO.P,JP4,2,B*%
%TO.N,Net-(JP3-B)*%
X75375000Y-82093600D03*
%TD*%
D14*
%TO.P,JP3,1,A*%
%TO.N,Net-(ESP-01-CH_PD)*%
X71796500Y-79750000D03*
%TO.P,JP3,2,C*%
%TO.N,Net-(JP3-C)*%
X72609300Y-79750000D03*
%TO.P,JP3,3,B*%
%TO.N,Net-(JP3-B)*%
X73422100Y-79750000D03*
%TD*%
D13*
%TO.P,JP2,1,A*%
%TO.N,Net-(JP2-A)*%
X69500000Y-82906400D03*
%TO.P,JP2,2,B*%
%TO.N,Net-(JP1-B)*%
X69500000Y-82093600D03*
%TD*%
D14*
%TO.P,JP1,1,A*%
%TO.N,Net-(ESP-01-CH_PD)*%
X65937200Y-79750000D03*
%TO.P,JP1,2,C*%
%TO.N,Net-(JP1-C)*%
X66750000Y-79750000D03*
%TO.P,JP1,3,B*%
%TO.N,Net-(JP1-B)*%
X67562800Y-79750000D03*
%TD*%
D15*
%TO.P,D1,1,K*%
%TO.N,Net-(D1-K)*%
X118560000Y-71000000D03*
D16*
%TO.P,D1,2,A*%
%TO.N,Net-(D1-A)*%
X110940000Y-71000000D03*
%TD*%
D17*
%TO.P,C5,1*%
%TO.N,GND*%
X87656191Y-103557456D03*
%TO.P,C5,2*%
%TO.N,Net-(JP10-A)*%
X87656191Y-98557456D03*
%TD*%
%TO.P,C4,1*%
%TO.N,GND*%
X81718691Y-103557456D03*
%TO.P,C4,2*%
%TO.N,Net-(JP8-A)*%
X81718691Y-98557456D03*
%TD*%
%TO.P,C3,1*%
%TO.N,GND*%
X75781191Y-103557456D03*
%TO.P,C3,2*%
%TO.N,Net-(JP6-A)*%
X75781191Y-98557456D03*
%TD*%
%TO.P,C2,1*%
%TO.N,GND*%
X69843691Y-103557456D03*
%TO.P,C2,2*%
%TO.N,Net-(JP4-A)*%
X69843691Y-98557456D03*
%TD*%
D18*
%TO.P,Temp1,1,1*%
%TO.N,Net-(JP7-B)*%
X84700000Y-71000000D03*
D19*
%TO.P,Temp1,2,2*%
%TO.N,GND*%
X84700000Y-73000000D03*
%TO.P,Temp1,3,3*%
%TO.N,Net-(JP8-A)*%
X84700000Y-75000000D03*
%TD*%
D20*
%TO.P,VCC1,1,Pin_1*%
%TO.N,GND*%
X66000000Y-116200000D03*
D21*
%TO.P,VCC1,2,Pin_2*%
%TO.N,Net-(ESP-01-CH_PD)*%
X68000000Y-116200000D03*
%TD*%
D17*
%TO.P,C1,1*%
%TO.N,GND*%
X63906191Y-103557456D03*
%TO.P,C1,2*%
%TO.N,Net-(JP2-A)*%
X63906191Y-98557456D03*
%TD*%
D22*
%TO.P,PC817,1*%
%TO.N,Net-(D1-K)*%
X121690000Y-70975000D03*
D23*
%TO.P,PC817,2*%
%TO.N,Net-(GND_Collector1-Pin_6)*%
X121690000Y-73515000D03*
%TO.P,PC817,3*%
%TO.N,GND*%
X129310000Y-73515000D03*
%TO.P,PC817,4*%
%TO.N,Net-(ESP-01-GPIO0)*%
X129310000Y-70975000D03*
%TD*%
D12*
%TO.P,R13,1*%
%TO.N,GND*%
X129500000Y-78190000D03*
%TO.P,R13,2*%
%TO.N,Net-(ESP-01-GPIO2)*%
X129500000Y-85810000D03*
%TD*%
%TO.P,R12,1*%
%TO.N,Net-(ESP-01-GPIO0)*%
X122620000Y-89000000D03*
%TO.P,R12,2*%
%TO.N,Net-(ESP-01-CH_PD)*%
X115000000Y-89000000D03*
%TD*%
D17*
%TO.P,C6,1*%
%TO.N,GND*%
X110500000Y-80000000D03*
%TO.P,C6,2*%
X115500000Y-80000000D03*
%TD*%
D18*
%TO.P,Batt2,1,1*%
%TO.N,Net-(JP3-B)*%
X73000000Y-71000000D03*
D19*
%TO.P,Batt2,2,2*%
%TO.N,GND*%
X73000000Y-73000000D03*
%TO.P,Batt2,3,3*%
%TO.N,Net-(JP4-A)*%
X73000000Y-75000000D03*
%TD*%
D18*
%TO.P,Oil1,1,1*%
%TO.N,Net-(JP10-B)*%
X90550000Y-71000000D03*
D19*
%TO.P,Oil1,2,2*%
%TO.N,GND*%
X90550000Y-73000000D03*
%TO.P,Oil1,3,3*%
%TO.N,Net-(JP10-A)*%
X90550000Y-75000000D03*
%TD*%
D24*
%TO.P,ESP-01,1,GND*%
%TO.N,GND*%
X119580000Y-98000000D03*
%TO.P,ESP-01,3,UTXD*%
%TO.N,unconnected-(ESP-01-UTXD-Pad2)*%
X117040000Y-98000000D03*
%TO.P,ESP-01,5,GPIO2*%
%TO.N,Net-(ESP-01-GPIO2)*%
X114500000Y-98000000D03*
%TO.P,ESP-01,7,CH_PD*%
%TO.N,Net-(ESP-01-CH_PD)*%
X111960000Y-98000000D03*
%TO.P,ESP-01,2,GPIO0*%
%TO.N,Net-(ESP-01-GPIO0)*%
X119580000Y-95460000D03*
%TO.P,ESP-01,4,RST*%
%TO.N,unconnected-(ESP-01-RST-Pad6)*%
X117040000Y-95460000D03*
%TO.P,ESP-01,6,URXD*%
%TO.N,unconnected-(ESP-01-URXD-Pad7)*%
X114500000Y-95460000D03*
%TO.P,ESP-01,8,VCC*%
%TO.N,Net-(ESP-01-CH_PD)*%
X111960000Y-95460000D03*
%TD*%
D18*
%TO.P,Tank1,1,1*%
%TO.N,Net-(JP5-B)*%
X78850000Y-71000000D03*
D19*
%TO.P,Tank1,2,2*%
%TO.N,GND*%
X78850000Y-73000000D03*
%TO.P,Tank1,3,3*%
%TO.N,Net-(JP6-A)*%
X78850000Y-75000000D03*
%TD*%
D12*
%TO.P,R11,1*%
%TO.N,Net-(R11-Pad1)*%
X100440000Y-71000000D03*
%TO.P,R11,2*%
%TO.N,Net-(D1-A)*%
X108060000Y-71000000D03*
%TD*%
D18*
%TO.P,Batt1,1,1*%
%TO.N,Net-(JP1-B)*%
X67150000Y-71000000D03*
D19*
%TO.P,Batt1,2,2*%
%TO.N,GND*%
X67150000Y-73000000D03*
%TO.P,Batt1,3,3*%
%TO.N,Net-(JP2-A)*%
X67150000Y-75000000D03*
%TD*%
D12*
%TO.P,R2,1*%
%TO.N,Net-(JP2-A)*%
X66500000Y-96940000D03*
%TO.P,R2,2*%
%TO.N,GND*%
X66500000Y-104560000D03*
%TD*%
D18*
%TO.P,RPM1,1,1*%
%TO.N,Net-(R11-Pad1)*%
X96400000Y-71000000D03*
D19*
%TO.P,RPM1,2,2*%
%TO.N,GND*%
X96400000Y-73000000D03*
%TO.P,RPM1,3,3*%
X96400000Y-75000000D03*
%TD*%
D12*
%TO.P,R1,1*%
%TO.N,Net-(JP1-C)*%
X66750000Y-82190000D03*
%TO.P,R1,2*%
%TO.N,Net-(JP2-A)*%
X66750000Y-89810000D03*
%TD*%
D25*
%TO.N,GND*%
X99750000Y-78000000D03*
%TO.N,Net-(ESP-01-CH_PD)*%
X111960000Y-89000000D03*
%TO.N,Net-(ESP-01-GPIO0)*%
X131500000Y-89000000D03*
%TO.N,Net-(ESP-01-CH_PD)*%
X89374400Y-79750000D03*
X83515100Y-79750000D03*
X77655800Y-79750000D03*
X71796500Y-79750000D03*
X65937200Y-79750000D03*
%TD*%
D26*
%TO.N,Net-(ESP-01-CH_PD)*%
X111960000Y-89000000D02*
X111960000Y-95460000D01*
%TO.N,GND*%
X107000000Y-75000000D02*
X96400000Y-75000000D01*
X108500000Y-76500000D02*
X107000000Y-75000000D01*
X124000000Y-77000000D02*
X123500000Y-76500000D01*
X124000000Y-78013902D02*
X124000000Y-77000000D01*
X123500000Y-76500000D02*
X108500000Y-76500000D01*
X124000000Y-78013902D02*
X115500000Y-78013902D01*
X110500000Y-80000000D02*
X110500000Y-78013902D01*
X110500000Y-78013902D02*
X109013902Y-78013902D01*
X115500000Y-80000000D02*
X115500000Y-78013902D01*
X115500000Y-78013902D02*
X110500000Y-78013902D01*
%TO.N,Net-(ESP-01-GPIO0)*%
X114500000Y-98000000D02*
X114000000Y-98000000D01*
X131500000Y-100000000D02*
X130500000Y-101000000D01*
X117500000Y-101000000D02*
X114500000Y-98000000D01*
X131500000Y-89000000D02*
X131500000Y-100000000D01*
X130500000Y-101000000D02*
X117500000Y-101000000D01*
X131000000Y-71000000D02*
X130000000Y-71000000D01*
X131500000Y-71500000D02*
X131000000Y-71000000D01*
X131500000Y-89000000D02*
X131500000Y-71500000D01*
%TO.N,GND*%
X99750000Y-78000000D02*
X99500000Y-78000000D01*
X109000000Y-78000000D02*
X99750000Y-78000000D01*
X109013902Y-78013902D02*
X109000000Y-78000000D01*
X129323902Y-78013902D02*
X124000000Y-78013902D01*
X129500000Y-78190000D02*
X129323902Y-78013902D01*
%TO.N,unconnected-(ESP-01-UTXD-Pad2)*%
X127000000Y-99500000D02*
X129500000Y-97000000D01*
X129500000Y-97000000D02*
X129500000Y-85500000D01*
X118000000Y-99500000D02*
X127000000Y-99500000D01*
X117040000Y-98000000D02*
X118000000Y-99500000D01*
%TO.N,unconnected-(ESP-01-RST-Pad6)*%
X113000000Y-94000000D02*
X111750000Y-95250000D01*
X116500000Y-94000000D02*
X113000000Y-94000000D01*
X117000000Y-94500000D02*
X116500000Y-94000000D01*
X117000000Y-95420000D02*
X117000000Y-94500000D01*
X111750000Y-95250000D02*
X111750000Y-95750000D01*
X111750000Y-95750000D02*
X112000000Y-95500000D01*
X117040000Y-95460000D02*
X117000000Y-95420000D01*
%TO.N,Net-(ESP-01-CH_PD)*%
X110750000Y-86500000D02*
X111960000Y-87710000D01*
X106750000Y-87750000D02*
X108000000Y-86500000D01*
X108000000Y-86500000D02*
X110750000Y-86500000D01*
X106750000Y-109250000D02*
X106750000Y-87750000D01*
X104500000Y-111500000D02*
X106750000Y-109250000D01*
X72700000Y-111500000D02*
X104500000Y-111500000D01*
X111960000Y-87710000D02*
X111960000Y-89000000D01*
X68000000Y-116200000D02*
X72700000Y-111500000D01*
X65687200Y-80000000D02*
X65937200Y-79750000D01*
X60000000Y-81250000D02*
X61250000Y-80000000D01*
X60000000Y-106250000D02*
X60000000Y-81250000D01*
X61250000Y-80000000D02*
X65687200Y-80000000D01*
X68000000Y-116200000D02*
X68000000Y-114250000D01*
X68000000Y-114250000D02*
X60000000Y-106250000D01*
%TO.N,Net-(JP10-B)*%
X93000000Y-80750000D02*
X93000000Y-82093600D01*
X92000000Y-79750000D02*
X93000000Y-80750000D01*
X91000000Y-79750000D02*
X92000000Y-79750000D01*
%TO.N,Net-(JP7-B)*%
X87250000Y-81968600D02*
X87125000Y-82093600D01*
X86500000Y-79750000D02*
X87250000Y-80500000D01*
X85140700Y-79750000D02*
X86500000Y-79750000D01*
X87250000Y-80500000D02*
X87250000Y-81968600D01*
%TO.N,Net-(JP5-B)*%
X81250000Y-80500000D02*
X81250000Y-82093600D01*
X80500000Y-79750000D02*
X81250000Y-80500000D01*
X79281400Y-79750000D02*
X80500000Y-79750000D01*
%TO.N,Net-(JP3-B)*%
X75250000Y-80500000D02*
X75250000Y-81968600D01*
X74500000Y-79750000D02*
X75250000Y-80500000D01*
X75250000Y-81968600D02*
X75375000Y-82093600D01*
X73422100Y-79750000D02*
X74500000Y-79750000D01*
%TO.N,Net-(JP1-B)*%
X69500000Y-80500000D02*
X69500000Y-82093600D01*
X68750000Y-79750000D02*
X69500000Y-80500000D01*
X67562800Y-79750000D02*
X68750000Y-79750000D01*
D27*
%TO.N,Net-(JP10-A)*%
X94250000Y-92940000D02*
X90250000Y-96940000D01*
X90550000Y-75050000D02*
X94250000Y-78750000D01*
X90550000Y-75000000D02*
X90550000Y-75050000D01*
X94250000Y-78750000D02*
X94250000Y-92940000D01*
%TO.N,Net-(JP8-A)*%
X88250000Y-93002500D02*
X84312500Y-96940000D01*
X88250000Y-79000000D02*
X88250000Y-93002500D01*
X84700000Y-75450000D02*
X88250000Y-79000000D01*
X84700000Y-75000000D02*
X84700000Y-75450000D01*
%TO.N,Net-(JP6-A)*%
X82500000Y-92815000D02*
X78375000Y-96940000D01*
X82500000Y-78650000D02*
X82500000Y-92815000D01*
X78850000Y-75000000D02*
X82500000Y-78650000D01*
%TO.N,Net-(JP4-A)*%
X76500000Y-92877500D02*
X72437500Y-96940000D01*
X76500000Y-78500000D02*
X76500000Y-92877500D01*
X73000000Y-75000000D02*
X76500000Y-78500000D01*
%TO.N,Net-(JP10-A)*%
X93000000Y-87060000D02*
X90250000Y-89810000D01*
X93000000Y-82906400D02*
X93000000Y-87060000D01*
%TO.N,Net-(JP8-A)*%
X87125000Y-87060000D02*
X84375000Y-89810000D01*
X87125000Y-82906400D02*
X87125000Y-87060000D01*
%TO.N,Net-(JP6-A)*%
X81250000Y-87060000D02*
X78500000Y-89810000D01*
X81250000Y-82906400D02*
X81250000Y-87060000D01*
%TO.N,Net-(JP4-A)*%
X75375000Y-87060000D02*
X72625000Y-89810000D01*
X75375000Y-82906400D02*
X75375000Y-87060000D01*
%TO.N,Net-(JP2-A)*%
X69500000Y-87060000D02*
X66750000Y-89810000D01*
X69500000Y-82906400D02*
X69500000Y-87060000D01*
X70750000Y-78600000D02*
X70750000Y-92690000D01*
X70750000Y-92690000D02*
X66500000Y-96940000D01*
X67150000Y-75000000D02*
X70750000Y-78600000D01*
D26*
%TO.N,Net-(JP10-A)*%
X90250000Y-89810000D02*
X90250000Y-96940000D01*
%TO.N,Net-(JP8-A)*%
X84375000Y-96877500D02*
X84312500Y-96940000D01*
X84375000Y-89810000D02*
X84375000Y-96877500D01*
%TO.N,Net-(JP6-A)*%
X78500000Y-89810000D02*
X78500000Y-96815000D01*
X78500000Y-96815000D02*
X78375000Y-96940000D01*
%TO.N,Net-(JP4-A)*%
X72625000Y-96752500D02*
X72437500Y-96940000D01*
X72625000Y-89810000D02*
X72625000Y-96752500D01*
%TO.N,Net-(JP2-A)*%
X66750000Y-96690000D02*
X66500000Y-96940000D01*
X66750000Y-89810000D02*
X66750000Y-96690000D01*
%TO.N,Net-(JP10-B)*%
X91000000Y-77500000D02*
X91000000Y-79750000D01*
X89250000Y-76750000D02*
X90250000Y-76750000D01*
X88000000Y-72000000D02*
X88000000Y-75500000D01*
X89000000Y-71000000D02*
X88000000Y-72000000D01*
X88000000Y-75500000D02*
X89250000Y-76750000D01*
X90250000Y-76750000D02*
X91000000Y-77500000D01*
X90550000Y-71000000D02*
X89000000Y-71000000D01*
%TO.N,Net-(JP7-B)*%
X85140700Y-77640700D02*
X85140700Y-79750000D01*
X84250000Y-76750000D02*
X85140700Y-77640700D01*
X83500000Y-76750000D02*
X84250000Y-76750000D01*
X83250000Y-71000000D02*
X82000000Y-72250000D01*
X82000000Y-72250000D02*
X82000000Y-75250000D01*
X82000000Y-75250000D02*
X83500000Y-76750000D01*
X84700000Y-71000000D02*
X83250000Y-71000000D01*
%TO.N,Net-(JP1-B)*%
X67562800Y-77312800D02*
X67562800Y-79750000D01*
X67000000Y-76750000D02*
X67562800Y-77312800D01*
X66000000Y-76750000D02*
X67000000Y-76750000D01*
X65000000Y-72500000D02*
X65000000Y-75750000D01*
X67150000Y-71000000D02*
X66500000Y-71000000D01*
X66500000Y-71000000D02*
X65000000Y-72500000D01*
X65000000Y-75750000D02*
X66000000Y-76750000D01*
%TO.N,Net-(JP3-B)*%
X73500000Y-77500000D02*
X73500000Y-79672100D01*
X73500000Y-79672100D02*
X73422100Y-79750000D01*
X72750000Y-76750000D02*
X73500000Y-77500000D01*
X71500000Y-76750000D02*
X72750000Y-76750000D01*
X70500000Y-72500000D02*
X70500000Y-75750000D01*
X72000000Y-71000000D02*
X70500000Y-72500000D01*
X73000000Y-71000000D02*
X72000000Y-71000000D01*
X70500000Y-75750000D02*
X71500000Y-76750000D01*
%TO.N,Net-(JP5-B)*%
X79250000Y-79718600D02*
X79281400Y-79750000D01*
X77750000Y-76750000D02*
X78750000Y-76750000D01*
X76250000Y-75250000D02*
X77750000Y-76750000D01*
X76250000Y-72250000D02*
X76250000Y-75250000D01*
X77500000Y-71000000D02*
X76250000Y-72250000D01*
X78750000Y-76750000D02*
X79250000Y-77250000D01*
X78850000Y-71000000D02*
X77500000Y-71000000D01*
X79250000Y-77250000D02*
X79250000Y-79718600D01*
%TO.N,Net-(JP1-B)*%
X67150000Y-71000000D02*
X67500000Y-71000000D01*
%TO.N,Net-(JP9-C)*%
X90250000Y-79812800D02*
X90187200Y-79750000D01*
X90250000Y-82190000D02*
X90250000Y-79812800D01*
%TO.N,Net-(JP7-C)*%
X84375000Y-82190000D02*
X84375000Y-79797100D01*
X84375000Y-79797100D02*
X84327900Y-79750000D01*
%TO.N,Net-(JP5-C)*%
X78500000Y-79781400D02*
X78468600Y-79750000D01*
X78500000Y-82190000D02*
X78500000Y-79781400D01*
%TO.N,Net-(JP3-C)*%
X72625000Y-82190000D02*
X72625000Y-79765700D01*
X72625000Y-79765700D02*
X72609300Y-79750000D01*
%TO.N,Net-(JP1-C)*%
X66750000Y-82190000D02*
X66750000Y-79750000D01*
D28*
%TO.N,Net-(D1-K)*%
X118560000Y-71000000D02*
X121665000Y-71000000D01*
D29*
X121665000Y-71000000D02*
X121690000Y-70975000D01*
D28*
%TO.N,Net-(D1-A)*%
X108060000Y-71000000D02*
X110940000Y-71000000D01*
%TO.N,Net-(R11-Pad1)*%
X96400000Y-71000000D02*
X100440000Y-71000000D01*
%TD*%
M02*
