M48
; DRILL file {KiCad 9.0.7} date 2026-07-29T06:04:27+0200
; FORMAT={-:-/ absolute / metric / decimal}
; #@! TF.CreationDate,2026-07-29T06:04:27+02:00
; #@! TF.GenerationSoftware,Kicad,Pcbnew,9.0.7
; #@! TF.FileFunction,Plated,1,2,PTH
FMAT,2
METRIC
; #@! TA.AperFunction,Plated,PTH,ViaDrill
T1C0.300
; #@! TA.AperFunction,Plated,PTH,ComponentDrill
T2C0.700
; #@! TA.AperFunction,Plated,PTH,ComponentDrill
T3C0.750
; #@! TA.AperFunction,Plated,PTH,ComponentDrill
T4C0.800
; #@! TA.AperFunction,Plated,PTH,ComponentDrill
T5C1.300
%
G90
G05
T1
X65.937Y-79.75
X71.796Y-79.75
X77.656Y-79.75
X83.515Y-79.75
X89.374Y-79.75
X99.75Y-78.0
X111.96Y-89.0
X131.5Y-89.0
T2
X66.5Y-96.94
X66.5Y-104.56
X66.75Y-82.19
X66.75Y-89.81
X72.438Y-96.94
X72.438Y-104.56
X72.625Y-82.19
X72.625Y-89.81
X78.375Y-96.94
X78.375Y-104.56
X78.5Y-82.19
X78.5Y-89.81
X84.312Y-96.94
X84.312Y-104.56
X84.375Y-82.19
X84.375Y-89.81
X90.25Y-82.19
X90.25Y-89.81
X90.25Y-96.94
X90.25Y-104.56
X100.44Y-71.0
X108.06Y-71.0
X115.0Y-89.0
X122.62Y-89.0
X129.5Y-78.19
X129.5Y-85.81
T3
X66.0Y-116.2
X67.15Y-71.0
X67.15Y-73.0
X67.15Y-75.0
X68.0Y-116.2
X73.0Y-71.0
X73.0Y-73.0
X73.0Y-75.0
X78.85Y-71.0
X78.85Y-73.0
X78.85Y-75.0
X84.7Y-71.0
X84.7Y-73.0
X84.7Y-75.0
X90.55Y-71.0
X90.55Y-73.0
X90.55Y-75.0
X96.4Y-71.0
X96.4Y-73.0
X96.4Y-75.0
T4
X63.906Y-98.557
X63.906Y-103.557
X69.844Y-98.557
X69.844Y-103.557
X75.781Y-98.557
X75.781Y-103.557
X81.719Y-98.557
X81.719Y-103.557
X87.656Y-98.557
X87.656Y-103.557
X110.5Y-80.0
X110.94Y-71.0
X111.96Y-95.46
X111.96Y-98.0
X114.5Y-95.46
X114.5Y-98.0
X115.5Y-80.0
X117.04Y-95.46
X117.04Y-98.0
X118.56Y-71.0
X119.58Y-95.46
X119.58Y-98.0
X121.69Y-70.975
X121.69Y-73.515
X129.31Y-70.975
X129.31Y-73.515
T5
X77.55Y-116.5
X82.63Y-116.5
X87.71Y-116.5
X92.79Y-116.5
X97.87Y-116.5
X102.95Y-116.5
M30
